<svg version="1.1" xmlns="http://www.w3.org/2000/svg" xmlns:xlink="http://www.w3.org/1999/xlink" width="920" height="800" style="width: 920px; height: 800px;"><defs><clipPath id="EcXqupOpgSMS"><path fill="none" stroke="none" d=" M 5 5 L 915 5 L 915 795 L 5 795 L 5 5 Z"/></clipPath><clipPath id="fPunRiBHZJAf"><path fill="none" stroke="none" d=" M 5 5 L 915 5 L 915 795 L 5 795 L 5 5 Z"/></clipPath><clipPath id="caLpAnhFwvNd"><path fill="none" stroke="none" d=" M 5 5 L 915 5 L 915 795 L 5 795 L 5 5 Z"/></clipPath><clipPath id="fHpFTnUlatxu"><path fill="none" stroke="none" d=" M 5 5 L 915 5 L 915 795 L 5 795 L 5 5 Z"/></clipPath></defs><g><g transform="scale(1,1) translate(0.5,0.5)"><rect fill="#FFFFFF" stroke="none" x="0" y="0" width="920" height="800"/><rect fill="#ffffff" stroke="none" x="0" y="0" width="920" height="800"/><rect fill="#FFFFFF" stroke="none" x="5" y="5" width="910" height="790"/><rect fill="#ffffff" stroke="none" x="5" y="5" width="910" height="790"/><g><rect fill="none" stroke="#e5e5e5" x="5" y="5" width="910" height="790" stroke-linejoin="bevel" stroke-miterlimit="10"/></g><g clip-path="url(#EcXqupOpgSMS)"><g/></g><g clip-path="url(#fPunRiBHZJAf)"><g/></g><g clip-path="url(#caLpAnhFwvNd)"><g><g><path fill="none" stroke="none"/><path fill="#1f77b4" stroke="none" paint-order="stroke fill markers" d=" M 939.3221697153338 82.79201186852674 A 29.726666666666574 29.726666666666574 0 1 1 939.3221548520016 82.7622852068145"/><path fill="#1f77b4" stroke="none" paint-order="stroke fill markers" d=" M 906.9924890264311 105.02506186132518 A 18.952414693333253 18.952414693333253 0 1 1 906.9924795502246 105.00610944979057"/><path fill="#1f77b4" stroke="none" paint-order="stroke fill markers" d=" M 949.0142127663443 147.5581548799389 A 29.726666666666574 29.726666666666574 0 1 1 949.0141979030121 147.52842821822668"/><path fill="#1f77b4" stroke="none" paint-order="stroke fill markers" d=" M 834.2158448645612 68.53307346789256 A 18.952414693333367 18.952414693333367 0 1 1 834.2158353883547 68.51412105635795"/><path fill="#1f77b4" stroke="none" paint-order="stroke fill markers" d=" M 803.1120917822548 42.49329454201529 A 18.952414693333367 18.952414693333367 0 1 1 803.1120823060483 42.474342130480686"/><path fill="#1f77b4" stroke="none" paint-order="stroke fill markers" d=" M 783.8386985425362 46.82006152803024 A 29.726666666666688 29.726666666666688 0 1 1 783.8386836792041 46.790334866318"/><path fill="#1f77b4" stroke="none" paint-order="stroke fill markers" d=" M 761.6375147724266 76.0921035246804 A 18.952414693333367 18.952414693333367 0 1 1 761.6375052962201 76.07315111314578"/><path fill="#1f77b4" stroke="none" paint-order="stroke fill markers" d=" M 802.3812162936929 91.12803147528734 A 18.952414693333367 18.952414693333367 0 1 1 802.3812068174864 91.10907906375273"/><path fill="#1f77b4" stroke="none" paint-order="stroke fill markers" d=" M 797.9061813904632 118.44456145107824 A 29.726666666666688 29.726666666666688 0 1 1 797.9061665271311 118.414834789366"/><path fill="#1f77b4" stroke="none" paint-order="stroke fill markers" d=" M 756.7987454333861 118.345085906642 A 18.952414693333367 18.952414693333367 0 1 1 756.7987359571796 118.32613349510738"/><path fill="#1f77b4" stroke="none" paint-order="stroke fill markers" d=" M 741.153137355429 153.59474971993222 A 18.952414693333367 18.952414693333367 0 1 1 741.1531278792224 153.57579730839763"/><path fill="#1f77b4" stroke="none" paint-order="stroke fill markers" d=" M 782.2274950285756 168.13896782678648 A 18.952414693333253 18.952414693333253 0 1 1 782.2274855523691 168.12001541525188"/><path fill="#1f77b4" stroke="none" paint-order="stroke fill markers" d=" M 830.3532280153981 156.56614351492885 A 18.952414693333367 18.952414693333367 0 1 1 830.3532185391916 156.54719110339425"/><path fill="#1f77b4" stroke="none" paint-order="stroke fill markers" d=" M 856.7337518223981 129.46930398207292 A 29.726666666666688 29.726666666666688 0 1 1 856.7337369590659 129.43957732036068"/><path fill="#1f77b4" stroke="none" paint-order="stroke fill markers" d=" M 875.3533343564682 170.8339686242159 A 18.952414693333367 18.952414693333367 0 1 1 875.3533248802617 170.81501621268131"/><path fill="#1f77b4" stroke="none" paint-order="stroke fill markers" d=" M 912.2607079053332 163.8705607234631 A 18.952414693333253 18.952414693333253 0 1 1 912.2606984291267 163.8516083119285"/><path fill="#1f77b4" stroke="none" paint-order="stroke fill markers" d=" M 876.2885443069679 130.00069447077135 A 18.952414693333367 18.952414693333367 0 1 1 876.2885348307614 129.98174205923675"/><path fill="#1f77b4" stroke="none" paint-order="stroke fill markers" d=" M 883.5329264686584 49.66147097455928 A 18.952414693333367 18.952414693333367 0 1 1 883.5329169924519 49.64251856302467"/><path fill="#1f77b4" stroke="none" paint-order="stroke fill markers" d=" M 920.8430461891317 52.22841424622243 A 18.952414693333253 18.952414693333253 0 1 1 920.8430367129251 52.20946183468782"/><path fill="#1f77b4" stroke="none" paint-order="stroke fill markers" d=" M 785.5592110530812 -15.317747772102393 A 29.726666666666688 29.726666666666688 0 1 1 785.5591961897491 -15.347474433814632"/><path fill="#1f77b4" stroke="none" paint-order="stroke fill markers" d=" M 748.7647264862039 0.9236124895728608 A 18.952414693333367 18.952414693333367 0 1 1 748.7647170099974 0.9046600780382521"/><path fill="#1f77b4" stroke="none" paint-order="stroke fill markers" d=" M 801.2967009319559 0.03674392510720281 A 18.952414693333367 18.952414693333367 0 1 1 801.2966914557494 0.017791513572594096"/><path fill="#1f77b4" stroke="none" paint-order="stroke fill markers" d=" M 864.1368879275367 -0.4689065405104884 A 29.726666666666688 29.726666666666688 0 1 1 864.1368730642046 -0.4986332022227281"/><path fill="#1f77b4" stroke="none" paint-order="stroke fill markers" d=" M 839.2168051965352 27.48452962674537 A 18.952414693333367 18.952414693333367 0 1 1 839.2167957203287 27.46557721521076"/><path fill="#1f77b4" stroke="none" paint-order="stroke fill markers" d=" M 874.8780297814542 73.92838341399306 A 29.726666666666688 29.726666666666688 0 1 1 874.8780149181221 73.89865675228081"/><path fill="#1f77b4" stroke="none" paint-order="stroke fill markers" d=" M 955.9486334517126 11.440860847355907 A 18.952414693333367 18.952414693333367 0 1 1 955.948623975506 11.421908435821297"/><path fill="#1f77b4" stroke="none" paint-order="stroke fill markers" d=" M 921.1182701463595 -16.301142615207027 A 29.726666666666688 29.726666666666688 0 1 1 921.1182552830273 -16.330869276919266"/><path fill="#1f77b4" stroke="none" paint-order="stroke fill markers" d=" M 903.8532625922766 14.566933760859229 A 18.952414693333253 18.952414693333253 0 1 1 903.85325311607 14.54798134932462"/><path fill="#1f77b4" stroke="none" paint-order="stroke fill markers" d=" M 573.166044113974 11.909109120904759 A 18.952414693333253 18.952414693333253 0 1 1 573.1660346377674 11.890156709370151"/><path fill="#1f77b4" stroke="none" paint-order="stroke fill markers" d=" M 556.7071726807781 -2.0079439764795097 A 29.726666666666574 29.726666666666574 0 1 1 556.7071578174459 -2.0376706381917495"/><path fill="#1f77b4" stroke="none" paint-order="stroke fill markers" d=" M 504.69889784631306 18.459269349946908 A 29.726666666666688 29.726666666666688 0 1 1 504.698882982981 18.42954268823467"/><path fill="#1f77b4" stroke="none" paint-order="stroke fill markers" d=" M 670.1256951608949 158.3219685930062 A 29.726666666666574 29.726666666666574 0 1 1 670.1256802975628 158.29224193129397"/><path fill="#1f77b4" stroke="none" paint-order="stroke fill markers" d=" M 744.2241876085604 184.15880376197765 A 29.726666666666574 29.726666666666574 0 1 1 744.2241727452283 184.12907710026542"/><path fill="#1f77b4" stroke="none" paint-order="stroke fill markers" d=" M 713.0821243876935 110.6030584644027 A 29.726666666666688 29.726666666666688 0 1 1 713.0821095243614 110.57333180269045"/><path fill="#1f77b4" stroke="none" paint-order="stroke fill markers" d=" M 705.8206711797278 141.99044636687677 A 18.952414693333367 18.952414693333367 0 1 1 705.8206617035213 141.97149395534217"/><path fill="#1f77b4" stroke="none" paint-order="stroke fill markers" d=" M 726.6441634566456 91.74015605739237 A 18.952414693333367 18.952414693333367 0 1 1 726.6441539804391 91.72120364585776"/><path fill="#1f77b4" stroke="none" paint-order="stroke fill markers" d=" M 720.0605704275124 47.89949170595605 A 29.726666666666688 29.726666666666688 0 1 1 720.0605555641803 47.86976504424381"/><path fill="#1f77b4" stroke="none" paint-order="stroke fill markers" d=" M 681.3994482804619 60.33241504962871 A 18.952414693333367 18.952414693333367 0 1 1 681.3994388042554 60.3134626380941"/><path fill="#1f77b4" stroke="none" paint-order="stroke fill markers" d=" M 653.3964019307157 98.60520350850061 A 18.952414693333367 18.952414693333367 0 1 1 653.3963924545092 98.586251096966"/><path fill="#1f77b4" stroke="none" paint-order="stroke fill markers" d=" M 637.1204063928068 84.30632813667853 A 29.726666666666574 29.726666666666574 0 1 1 637.1203915294747 84.27660147496628"/><path fill="#1f77b4" stroke="none" paint-order="stroke fill markers" d=" M 631.481153419675 20.62145088323632 A 29.726666666666688 29.726666666666688 0 1 1 631.4811385563429 20.591724221524082"/><path fill="#1f77b4" stroke="none" paint-order="stroke fill markers" d=" M 675.8991235038436 -0.9372365105687095 A 18.952414693333367 18.952414693333367 0 1 1 675.8991140276371 -0.9561889221033182"/><path fill="#1f77b4" stroke="none" paint-order="stroke fill markers" d=" M 650.3511301333788 27.31881669600625 A 18.952414693333253 18.952414693333253 0 1 1 650.3511206571723 27.299864284471642"/><path fill="#1f77b4" stroke="none" paint-order="stroke fill markers" d=" M 712.8941235817787 16.523800031524615 A 18.952414693333367 18.952414693333367 0 1 1 712.8941141055722 16.504847619990006"/><path fill="#1f77b4" stroke="none" paint-order="stroke fill markers" d=" M 716.0578439157138 -21.810857186416342 A 18.952414693333253 18.952414693333253 0 1 1 716.0578344395072 -21.829809597950952"/><path fill="#1f77b4" stroke="none" paint-order="stroke fill markers" d=" M 538.6863878122159 208.32558088984365 A 18.952414693333367 18.952414693333367 0 1 1 538.6863783360094 208.30662847830905"/><path fill="#1f77b4" stroke="none" paint-order="stroke fill markers" d=" M 506.0111204880293 236.98734451112955 A 29.726666666666688 29.726666666666688 0 1 1 506.0111056246972 236.95761784941732"/><path fill="#1f77b4" stroke="none" paint-order="stroke fill markers" d=" M 499.81631914192315 205.74953792538122 A 18.95241469333331 18.95241469333331 0 1 1 499.8163096657166 205.73058551384662"/><path fill="#1f77b4" stroke="none" paint-order="stroke fill markers" d=" M 514.254665594316 146.9072383988264 A 29.72666666666663 29.72666666666663 0 1 1 514.2546507309838 146.87751173711416"/><path fill="#1f77b4" stroke="none" paint-order="stroke fill markers" d=" M 523.4784640506648 170.66730072711243 A 18.952414693333367 18.952414693333367 0 1 1 523.4784545744583 170.64834831557783"/><path fill="#1f77b4" stroke="none" paint-order="stroke fill markers" d=" M 513.2333967256591 116.98518377445157 A 18.95241469333331 18.95241469333331 0 1 1 513.2333872494526 116.96623136291696"/><path fill="#1f77b4" stroke="none" paint-order="stroke fill markers" d=" M 487.37065176217783 49.31284177893531 A 18.95241469333331 18.95241469333331 0 1 1 487.37064228597126 49.2938893674007"/><path fill="#1f77b4" stroke="none" paint-order="stroke fill markers" d=" M 556.6801351022814 59.88769030951971 A 29.726666666666574 29.726666666666574 0 1 1 556.6801202389493 59.85796364780747"/><path fill="#1f77b4" stroke="none" paint-order="stroke fill markers" d=" M 519.3428845129716 75.14574232502332 A 18.952414693333367 18.952414693333367 0 1 1 519.3428750367651 75.12678991348871"/><path fill="#1f77b4" stroke="none" paint-order="stroke fill markers" d=" M 571.8715730090489 76.22351316623758 A 18.952414693333253 18.952414693333253 0 1 1 571.8715635328424 76.20456075470297"/><path fill="#1f77b4" stroke="none" paint-order="stroke fill markers" d=" M 600.3171916453296 44.01746862681193 A 18.952414693333367 18.952414693333367 0 1 1 600.317182169123 43.99851621527733"/><path fill="#1f77b4" stroke="none" paint-order="stroke fill markers" d=" M 600.9342148790113 101.5613305984732 A 18.952414693333367 18.952414693333367 0 1 1 600.9342054028048 101.54237818693859"/><path fill="#1f77b4" stroke="none" paint-order="stroke fill markers" d=" M 595.5609434449933 142.8299567380284 A 18.952414693333367 18.952414693333367 0 1 1 595.5609339687868 142.8110043264938"/><path fill="#1f77b4" stroke="none" paint-order="stroke fill markers" d=" M 553.642138931659 109.83487216757135 A 18.952414693333367 18.952414693333367 0 1 1 553.6421294554525 109.81591975603673"/><path fill="#1f77b4" stroke="none" paint-order="stroke fill markers" d=" M 576.2327309126276 138.93864399479048 A 29.726666666666688 29.726666666666688 0 1 1 576.2327160492955 138.90891733307825"/><path fill="#1f77b4" stroke="none" paint-order="stroke fill markers" d=" M 634.9198159400853 139.5932880162627 A 18.952414693333253 18.952414693333253 0 1 1 634.9198064638788 139.5743356047281"/><path fill="#d62728" stroke="none" paint-order="stroke fill markers" d=" M 525.1316739054257 462.32980329142674 A 18.952414693333367 18.952414693333367 0 1 1 525.1316644292192 462.31085087989214"/><path fill="#d62728" stroke="none" paint-order="stroke fill markers" d=" M 517.640340618991 437.1011923800843 A 29.72666666666663 29.72666666666663 0 1 1 517.6403257556589 437.07146571837205"/><path fill="#1f77b4" stroke="none" paint-order="stroke fill markers" d=" M 552.3875261906469 388.1937022598222 A 29.726666666666688 29.726666666666688 0 1 1 552.3875113273148 388.16397559810997"/><path fill="#1f77b4" stroke="none" paint-order="stroke fill markers" d=" M 527.084100231745 360.45447096678026 A 18.952414693333253 18.952414693333253 0 1 1 527.0840907555385 360.43551855524566"/><path fill="#1f77b4" stroke="none" paint-order="stroke fill markers" d=" M 491.2472802497761 372.87554355749444 A 18.95241469333331 18.95241469333331 0 1 1 491.24727077356954 372.85659114595984"/><path fill="#1f77b4" stroke="none" paint-order="stroke fill markers" d=" M 504.27860693184607 328.88172599368204 A 18.95241469333331 18.95241469333331 0 1 1 504.2785974556395 328.86277358214744"/><path fill="#1f77b4" stroke="none" paint-order="stroke fill markers" d=" M 512.7018538600369 297.3767808439618 A 29.726666666666688 29.726666666666688 0 1 1 512.7018389967047 297.34705418224956"/><path fill="#1f77b4" stroke="none" paint-order="stroke fill markers" d=" M 526.9425165179354 279.50325921460194 A 18.952414693333367 18.952414693333367 0 1 1 526.9425070417288 279.48430680306734"/><path fill="#1f77b4" stroke="none" paint-order="stroke fill markers" d=" M 567.2737850088283 321.24904301905167 A 29.726666666666688 29.726666666666688 0 1 1 567.2737701454962 321.21931635733944"/><path fill="#1f77b4" stroke="none" paint-order="stroke fill markers" d=" M 611.3831319497424 312.28411384525316 A 18.952414693333367 18.952414693333367 0 1 1 611.3831224735359 312.26516143371856"/><path fill="#1f77b4" stroke="none" paint-order="stroke fill markers" d=" M 622.1904702557963 280.68413288974216 A 29.726666666666688 29.726666666666688 0 1 1 622.1904553924642 280.6544062280299"/><path fill="#1f77b4" stroke="none" paint-order="stroke fill markers" d=" M 565.8188872218045 291.1773835166737 A 18.952414693333367 18.952414693333367 0 1 1 565.818877745598 291.1584311051391"/><path fill="#1f77b4" stroke="none" paint-order="stroke fill markers" d=" M 565.4629227568818 235.1705816015799 A 29.726666666666688 29.726666666666688 0 1 1 565.4629078935496 235.14085493986767"/><path fill="#1f77b4" stroke="none" paint-order="stroke fill markers" d=" M 585.0063649428539 234.15599662722843 A 18.952414693333367 18.952414693333367 0 1 1 585.0063554666474 234.13704421569383"/><path fill="#1f77b4" stroke="none" paint-order="stroke fill markers" d=" M 617.3787997608429 192.34333530454387 A 29.726666666666688 29.726666666666688 0 1 1 617.3787848975107 192.31360864283164"/><path fill="#1f77b4" stroke="none" paint-order="stroke fill markers" d=" M 576.2898062358513 191.23712027146303 A 18.952414693333253 18.952414693333253 0 1 1 576.2897967596448 191.21816785992843"/><path fill="#d62728" stroke="none" paint-order="stroke fill markers" d=" M 729.0067720975072 429.8781748385634 A 18.952414693333253 18.952414693333253 0 1 1 729.0067626213007 429.8592224270288"/><path fill="#d62728" stroke="none" paint-order="stroke fill markers" d=" M 746.4508948153607 480.97421802097915 A 29.726666666666688 29.726666666666688 0 1 1 746.4508799520286 480.9444913592669"/><path fill="#d62728" stroke="none" paint-order="stroke fill markers" d=" M 682.3593956663494 493.7790004447729 A 18.952414693333367 18.952414693333367 0 1 1 682.3593861901429 493.7600480332383"/><path fill="#d62728" stroke="none" paint-order="stroke fill markers" d=" M 695.1527152747317 448.94591575183654 A 18.952414693333367 18.952414693333367 0 1 1 695.1527057985252 448.92696334030194"/><path fill="#d62728" stroke="none" paint-order="stroke fill markers" d=" M 685.786038486124 425.31718977407013 A 29.726666666666688 29.726666666666688 0 1 1 685.7860236227918 425.2874631123579"/><path fill="#d62728" stroke="none" paint-order="stroke fill markers" d=" M 645.298495237424 431.6737536049527 A 18.952414693333367 18.952414693333367 0 1 1 645.2984857612175 431.6548011934181"/><path fill="#d62728" stroke="none" paint-order="stroke fill markers" d=" M 663.5677741100804 486.71573422703796 A 29.726666666666688 29.726666666666688 0 1 1 663.5677592467483 486.6860075653257"/><path fill="#1f77b4" stroke="none" paint-order="stroke fill markers" d=" M 641.5506357552637 380.13134524595057 A 29.726666666666688 29.726666666666688 0 1 1 641.5506208919315 380.10161858423834"/><path fill="#1f77b4" stroke="none" paint-order="stroke fill markers" d=" M 660.7126978057411 375.03543243946683 A 18.952414693333367 18.952414693333367 0 1 1 660.7126883295346 375.01648002793223"/><path fill="#1f77b4" stroke="none" paint-order="stroke fill markers" d=" M 611.5719369445382 355.6710854737621 A 18.952414693333367 18.952414693333367 0 1 1 611.5719274683316 355.6521330622275"/><path fill="#1f77b4" stroke="none" paint-order="stroke fill markers" d=" M 576.8387675082321 344.6926927269699 A 18.952414693333367 18.952414693333367 0 1 1 576.8387580320256 344.6737403154353"/><path fill="#1f77b4" stroke="none" paint-order="stroke fill markers" d=" M 571.9377979832973 388.9552554232996 A 18.952414693333253 18.952414693333253 0 1 1 571.9377885070908 388.936303011765"/><path fill="#1f77b4" stroke="none" paint-order="stroke fill markers" d=" M 601.7784202988535 435.09611016976464 A 29.726666666666574 29.726666666666574 0 1 1 601.7784054355213 435.0663835080524"/><path fill="#1f77b4" stroke="none" paint-order="stroke fill markers" d=" M 610.2342026832955 459.53454079561834 A 18.952414693333367 18.952414693333367 0 1 1 610.234193207089 459.51558838408374"/><path fill="#d62728" stroke="none" paint-order="stroke fill markers" d=" M 575.3212823963511 494.10408346867644 A 29.726666666666688 29.726666666666688 0 1 1 575.321267533019 494.0743568069642"/><path fill="#1f77b4" stroke="none" paint-order="stroke fill markers" d=" M 561.0732078070547 440.2260232289527 A 18.952414693333367 18.952414693333367 0 1 1 561.0731983308482 440.2070708174181"/><path fill="#1f77b4" stroke="none" paint-order="stroke fill markers" d=" M 790.6939519903848 222.15644361599402 A 18.952414693333253 18.952414693333253 0 1 1 790.6939425141783 222.13749120445942"/><path fill="#1f77b4" stroke="none" paint-order="stroke fill markers" d=" M 812.2034219515481 192.60159020516835 A 29.726666666666688 29.726666666666688 0 1 1 812.203407088216 192.57186354345612"/><path fill="#1f77b4" stroke="none" paint-order="stroke fill markers" d=" M 712.5056417287044 229.49712942011865 A 18.952414693333367 18.952414693333367 0 1 1 712.5056322524979 229.47817700858405"/><path fill="#1f77b4" stroke="none" paint-order="stroke fill markers" d=" M 697.4746890028715 246.10663825744564 A 29.726666666666688 29.726666666666688 0 1 1 697.4746741395394 246.0769115957334"/><path fill="#1f77b4" stroke="none" paint-order="stroke fill markers" d=" M 704.1900908510015 192.4910861054923 A 18.952414693333367 18.952414693333367 0 1 1 704.190081374795 192.4721336939577"/><path fill="#1f77b4" stroke="none" paint-order="stroke fill markers" d=" M 655.9978926252351 189.72825687950012 A 18.952414693333253 18.952414693333253 0 1 1 655.9978831490286 189.70930446796552"/><path fill="#1f77b4" stroke="none" paint-order="stroke fill markers" d=" M 620.842308429747 220.24607335465726 A 18.952414693333253 18.952414693333253 0 1 1 620.8422989535405 220.22712094312266"/><path fill="#1f77b4" stroke="none" paint-order="stroke fill markers" d=" M 659.9901622089644 231.1302182233144 A 18.952414693333367 18.952414693333367 0 1 1 659.9901527327579 231.1112658117798"/><path fill="#1f77b4" stroke="none" paint-order="stroke fill markers" d=" M 637.7021828645184 264.9139935604144 A 18.952414693333367 18.952414693333367 0 1 1 637.7021733883118 264.8950411488798"/><path fill="#1f77b4" stroke="none" paint-order="stroke fill markers" d=" M 654.7260287667174 336.31138223219364 A 18.952414693333367 18.952414693333367 0 1 1 654.7260192905109 336.29242982065904"/><path fill="#1f77b4" stroke="none" paint-order="stroke fill markers" d=" M 676.9951035819013 307.068204835346 A 29.726666666666688 29.726666666666688 0 1 1 676.9950887185691 307.0384781736338"/><path fill="#1f77b4" stroke="none" paint-order="stroke fill markers" d=" M 696.2784467048978 302.8171216116591 A 18.952414693333367 18.952414693333367 0 1 1 696.2784372286912 302.7981692001245"/><path fill="#1f77b4" stroke="none" paint-order="stroke fill markers" d=" M 725.5703863164431 281.3631972257326 A 18.952414693333367 18.952414693333367 0 1 1 725.5703768402366 281.344244814198"/><path fill="#1f77b4" stroke="none" paint-order="stroke fill markers" d=" M 730.4536805286607 318.5421533655299 A 18.952414693333253 18.952414693333253 0 1 1 730.4536710524542 318.5232009539953"/><path fill="#1f77b4" stroke="none" paint-order="stroke fill markers" d=" M 723.7550438795492 373.9339190236592 A 29.726666666666688 29.726666666666688 0 1 1 723.7550290162171 373.90419236194697"/><path fill="#1f77b4" stroke="none" paint-order="stroke fill markers" d=" M 699.1537148680302 345.80793162634063 A 18.952414693333367 18.952414693333367 0 1 1 699.1537053918237 345.78897921480603"/><path fill="#1f77b4" stroke="none" paint-order="stroke fill markers" d=" M 952.4008136325695 258.071234208473 A 18.952414693333367 18.952414693333367 0 1 1 952.4008041563629 258.0522817969384"/><path fill="#1f77b4" stroke="none" paint-order="stroke fill markers" d=" M 952.0693050544481 205.06959534790053 A 18.952414693333253 18.952414693333253 0 1 1 952.0692955782416 205.05064293636593"/><path fill="#1f77b4" stroke="none" paint-order="stroke fill markers" d=" M 933.0961272694062 211.25043684997445 A 29.726666666666688 29.726666666666688 0 1 1 933.0961124060741 211.22071018826222"/><path fill="#1f77b4" stroke="none" paint-order="stroke fill markers" d=" M 912.5863640224477 241.17866470153876 A 18.952414693333367 18.952414693333367 0 1 1 912.5863545462412 241.15971229000417"/><path fill="#1f77b4" stroke="none" paint-order="stroke fill markers" d=" M 876.1500342284999 225.56047882451708 A 18.952414693333253 18.952414693333253 0 1 1 876.1500247522933 225.54152641298248"/><path fill="#1f77b4" stroke="none" paint-order="stroke fill markers" d=" M 871.3610137827573 198.43681475829817 A 29.726666666666688 29.726666666666688 0 1 1 871.3609989194251 198.40708809658594"/><path fill="#1f77b4" stroke="none" paint-order="stroke fill markers" d=" M 835.258818933657 240.8280660215098 A 18.952414693333253 18.952414693333253 0 1 1 835.2588094574505 240.8091136099752"/><path fill="#1f77b4" stroke="none" paint-order="stroke fill markers" d=" M 852.171618026984 330.83974096354746 A 18.952414693333253 18.952414693333253 0 1 1 852.1716085507775 330.82078855201286"/><path fill="#1f77b4" stroke="none" paint-order="stroke fill markers" d=" M 811.067355919452 330.82467066935146 A 18.952414693333367 18.952414693333367 0 1 1 811.0673464432455 330.80571825781686"/><path fill="#1f77b4" stroke="none" paint-order="stroke fill markers" d=" M 829.2440997682945 295.2010247113608 A 18.952414693333367 18.952414693333367 0 1 1 829.244090292088 295.1820722998262"/><path fill="#1f77b4" stroke="none" paint-order="stroke fill markers" d=" M 827.9587594268821 266.20574050492223 A 29.726666666666688 29.726666666666688 0 1 1 827.95874456355 266.17601384321"/><path fill="#1f77b4" stroke="none" paint-order="stroke fill markers" d=" M 781.0047104894747 303.629106972209 A 18.952414693333253 18.952414693333253 0 1 1 781.0047010132682 303.6101545606744"/><path fill="#1f77b4" stroke="none" paint-order="stroke fill markers" d=" M 770.635908875835 326.2878262711474 A 29.726666666666688 29.726666666666688 0 1 1 770.6358940125028 326.2580996094352"/><path fill="#1f77b4" stroke="none" paint-order="stroke fill markers" d=" M 762.234084087539 264.89656984191447 A 29.726666666666688 29.726666666666688 0 1 1 762.2340692242069 264.86684318020224"/><path fill="#1f77b4" stroke="none" paint-order="stroke fill markers" d=" M 750.7156612847273 233.30608071067263 A 18.952414693333367 18.952414693333367 0 1 1 750.7156518085208 233.28712829913803"/><path fill="#d62728" stroke="none" paint-order="stroke fill markers" d=" M 959.5667696632721 493.922649145843 A 18.952414693333367 18.952414693333367 0 1 1 959.5667601870656 493.9036967343084"/><path fill="#1f77b4" stroke="none" paint-order="stroke fill markers" d=" M 934.1797894128479 432.25444878768576 A 18.952414693333253 18.952414693333253 0 1 1 934.1797799366414 432.23549637615116"/><path fill="#1f77b4" stroke="none" paint-order="stroke fill markers" d=" M 967.380252937412 363.89940317163564 A 29.726666666666688 29.726666666666688 0 1 1 967.3802380740799 363.8696765099234"/><path fill="#1f77b4" stroke="none" paint-order="stroke fill markers" d=" M 933.2393762356126 343.74974331216345 A 18.952414693333367 18.952414693333367 0 1 1 933.239366759406 343.73079090062885"/><path fill="#1f77b4" stroke="none" paint-order="stroke fill markers" d=" M 925.3159469102432 408.1707581672747 A 29.726666666666688 29.726666666666688 0 1 1 925.315932046911 408.14103150556247"/><path fill="#1f77b4" stroke="none" paint-order="stroke fill markers" d=" M 884.7016033123955 413.84618739318375 A 18.952414693333367 18.952414693333367 0 1 1 884.701593836189 413.82723498164916"/><path fill="#1f77b4" stroke="none" paint-order="stroke fill markers" d=" M 894.8453754897992 362.7672695237927 A 18.952414693333253 18.952414693333253 0 1 1 894.8453660135926 362.7483171122581"/><path fill="#1f77b4" stroke="none" paint-order="stroke fill markers" d=" M 891.904154966626 319.20134494807576 A 18.952414693333367 18.952414693333367 0 1 1 891.9041454904195 319.18239253654116"/><path fill="#1f77b4" stroke="none" paint-order="stroke fill markers" d=" M 869.3350241973911 269.77578904545294 A 18.952414693333253 18.952414693333253 0 1 1 869.3350147211846 269.75683663391834"/><path fill="#1f77b4" stroke="none" paint-order="stroke fill markers" d=" M 905.0898495431247 287.7013587432873 A 29.726666666666688 29.726666666666688 0 1 1 905.0898346797926 287.67163208157507"/><path fill="#1f77b4" stroke="none" paint-order="stroke fill markers" d=" M 956.9760975364613 289.00433012899634 A 29.726666666666688 29.726666666666688 0 1 1 956.9760826731292 288.9746034672841"/><path fill="#d62728" stroke="none" paint-order="stroke fill markers" d=" M 795.8615873049027 501.51598348066045 A 18.952414693333367 18.952414693333367 0 1 1 795.8615778286962 501.49703106912585"/><path fill="#d62728" stroke="none" paint-order="stroke fill markers" d=" M 766.009552501613 480.80720719150077 A 18.952414693333253 18.952414693333253 0 1 1 766.0095430254065 480.78825477996617"/><path fill="#d62728" stroke="none" paint-order="stroke fill markers" d=" M 778.711245563971 447.6125158217867 A 18.952414693333367 18.952414693333367 0 1 1 778.7112360877645 447.5935634102521"/><path fill="#d62728" stroke="none" paint-order="stroke fill markers" d=" M 769.5475135023287 423.7977340222667 A 29.726666666666688 29.726666666666688 0 1 1 769.5474986389966 423.76800736055446"/><path fill="#1f77b4" stroke="none" paint-order="stroke fill markers" d=" M 743.2757821017439 375.52227441103537 A 18.952414693333253 18.952414693333253 0 1 1 743.2757726255373 375.50332199950077"/><path fill="#1f77b4" stroke="none" paint-order="stroke fill markers" d=" M 779.4965463228067 374.5737725705699 A 18.952414693333253 18.952414693333253 0 1 1 779.4965368466002 374.5548201590353"/><path fill="#1f77b4" stroke="none" paint-order="stroke fill markers" d=" M 818.1792442779936 362.1935016453324 A 29.726666666666688 29.726666666666688 0 1 1 818.1792294146614 362.16377498362016"/><path fill="#1f77b4" stroke="none" paint-order="stroke fill markers" d=" M 875.4355102651267 359.6367715561166 A 29.726666666666688 29.726666666666688 0 1 1 875.4354954017946 359.6070448944044"/><path fill="#1f77b4" stroke="none" paint-order="stroke fill markers" d=" M 850.0331444218206 415.30555158999164 A 29.726666666666688 29.726666666666688 0 1 1 850.0331295584884 415.2758249282794"/><path fill="#1f77b4" stroke="none" paint-order="stroke fill markers" d=" M 858.0293784875041 440.12870560519764 A 18.952414693333253 18.952414693333253 0 1 1 858.0293690112976 440.10975319366304"/><path fill="#1f77b4" stroke="none" paint-order="stroke fill markers" d=" M 809.23788126321 419.8285037301034 A 18.952414693333253 18.952414693333253 0 1 1 809.2378717870035 419.8095513185688"/><path fill="#d62728" stroke="none" paint-order="stroke fill markers" d=" M 826.0716017903928 477.25481985459646 A 29.726666666666688 29.726666666666688 0 1 1 826.0715869270607 477.22509319288423"/><path fill="#d62728" stroke="none" paint-order="stroke fill markers" d=" M 845.1838101547539 482.6589726657194 A 18.952414693333253 18.952414693333253 0 1 1 845.1838006785474 482.6400202541848"/><path fill="#d62728" stroke="none" paint-order="stroke fill markers" d=" M 878.3617165038838 496.4100973117222 A 18.952414693333367 18.952414693333367 0 1 1 878.3617070276773 496.3911449001876"/><path fill="#d62728" stroke="none" paint-order="stroke fill markers" d=" M 905.6353747115295 469.89370045308306 A 29.726666666666688 29.726666666666688 0 1 1 905.6353598481974 469.8639737913708"/><path fill="#d62728" stroke="none" paint-order="stroke fill markers" d=" M 925.1542059777514 471.5210877942766 A 18.952414693333253 18.952414693333253 0 1 1 925.1541965015449 471.502135382742"/><path fill="#d62728" stroke="none" paint-order="stroke fill markers" d=" M 945.023104157991 549.7581236847366 A 18.952414693333253 18.952414693333253 0 1 1 945.0230946817845 549.7391712732019"/><path fill="#d62728" stroke="none" paint-order="stroke fill markers" d=" M 932.874370101953 529.0628183136503 A 29.726666666666688 29.726666666666688 0 1 1 932.8743552386209 529.033091651938"/><path fill="#d62728" stroke="none" paint-order="stroke fill markers" d=" M 893.434384952569 539.3960364562029 A 18.952414693333367 18.952414693333367 0 1 1 893.4343754763624 539.3770840446682"/><path fill="#d62728" stroke="none" paint-order="stroke fill markers" d=" M 853.7882052316876 535.9030853055258 A 29.726666666666688 29.726666666666688 0 1 1 853.7881903683555 535.8733586438135"/><path fill="#d62728" stroke="none" paint-order="stroke fill markers" d=" M 812.7132578542239 537.3686112035232 A 18.952414693333367 18.952414693333367 0 1 1 812.7132483780174 537.3496587919885"/><path fill="#d62728" stroke="none" paint-order="stroke fill markers" d=" M 859.3826088417503 562.5072799313805 A 18.952414693333253 18.952414693333253 0 1 1 859.3825993655438 562.4883275198458"/><path fill="#d62728" stroke="none" paint-order="stroke fill markers" d=" M 849.3930511822542 601.8471098070138 A 18.952414693333253 18.952414693333253 0 1 1 849.3930417060477 601.8281573954791"/><path fill="#d62728" stroke="none" paint-order="stroke fill markers" d=" M 860.9691029785598 651.5878481174723 A 29.726666666666688 29.726666666666688 0 1 1 860.9690881152277 651.55812145576"/><path fill="#d62728" stroke="none" paint-order="stroke fill markers" d=" M 830.1041668589075 597.6387568334223 A 29.726666666666688 29.726666666666688 0 1 1 830.1041519955754 597.6090301717101"/><path fill="#d62728" stroke="none" paint-order="stroke fill markers" d=" M 800.7998959549816 622.6572150246027 A 18.952414693333367 18.952414693333367 0 1 1 800.7998864787751 622.638262613068"/><path fill="#d62728" stroke="none" paint-order="stroke fill markers" d=" M 768.3230816879704 602.2729293449106 A 18.952414693333253 18.952414693333253 0 1 1 768.3230722117639 602.253976933376"/><path fill="#d62728" stroke="none" paint-order="stroke fill markers" d=" M 771.0050357306752 540.8150953851937 A 29.726666666666688 29.726666666666688 0 1 1 771.0050208673431 540.7853687234814"/><path fill="#d62728" stroke="none" paint-order="stroke fill markers" d=" M 780.0223822797863 564.7620287187945 A 18.952414693333253 18.952414693333253 0 1 1 780.0223728035797 564.7430763072598"/><path fill="#d62728" stroke="none" paint-order="stroke fill markers" d=" M 913.7565731923171 771.7261161341946 A 18.952414693333367 18.952414693333367 0 1 1 913.7565637161106 771.70716372266"/><path fill="#d62728" stroke="none" paint-order="stroke fill markers" d=" M 963.4620613174801 789.4573655514941 A 18.952414693333367 18.952414693333367 0 1 1 963.4620518412736 789.4384131399595"/><path fill="#d62728" stroke="none" paint-order="stroke fill markers" d=" M 954.2969653185605 765.6438239173385 A 29.726666666666688 29.726666666666688 0 1 1 954.2969504552284 765.6140972556262"/><path fill="#d62728" stroke="none" paint-order="stroke fill markers" d=" M 944.4714497124623 714.3398579329398 A 18.952414693333367 18.952414693333367 0 1 1 944.4714402362558 714.3209055214052"/><path fill="#d62728" stroke="none" paint-order="stroke fill markers" d=" M 951.9251284545663 669.3894061957903 A 18.952414693333367 18.952414693333367 0 1 1 951.9251189783598 669.3704537842557"/><path fill="#d62728" stroke="none" paint-order="stroke fill markers" d=" M 925.3540970450138 708.9666502185839 A 29.726666666666688 29.726666666666688 0 1 1 925.3540821816816 708.9369235568716"/><path fill="#d62728" stroke="none" paint-order="stroke fill markers" d=" M 869.9449898545165 675.5719004779808 A 18.952414693333253 18.952414693333253 0 1 1 869.94498037831 675.5529480664461"/><path fill="#d62728" stroke="none" paint-order="stroke fill markers" d=" M 885.293327827228 617.9556323299216 A 18.952414693333367 18.952414693333367 0 1 1 885.2933183510215 617.936679918387"/><path fill="#d62728" stroke="none" paint-order="stroke fill markers" d=" M 911.1149882483094 590.5178742264893 A 29.726666666666688 29.726666666666688 0 1 1 911.1149733849772 590.488147564777"/><path fill="#d62728" stroke="none" paint-order="stroke fill markers" d=" M 930.673758667371 590.3746044055026 A 18.952414693333367 18.952414693333367 0 1 1 930.6737491911645 590.355651993968"/><path fill="#d62728" stroke="none" paint-order="stroke fill markers" d=" M 901.7085713196591 653.2966725532658 A 18.952414693333253 18.952414693333253 0 1 1 901.7085618434526 653.2777201417312"/><path fill="#d62728" stroke="none" paint-order="stroke fill markers" d=" M 942.050459128534 646.2414282699865 A 29.726666666666688 29.726666666666688 0 1 1 942.0504442652019 646.2117016082742"/><path fill="#d62728" stroke="none" paint-order="stroke fill markers" d=" M 711.47700484079 801.6790329860071 A 18.952414693333367 18.952414693333367 0 1 1 711.4769953645834 801.6600805744724"/><path fill="#d62728" stroke="none" paint-order="stroke fill markers" d=" M 746.4652263188456 784.589693557278 A 18.952414693333253 18.952414693333253 0 1 1 746.465216842639 784.5707411457433"/><path fill="#d62728" stroke="none" paint-order="stroke fill markers" d=" M 796.7493027550535 800.4519777461851 A 18.952414693333253 18.952414693333253 0 1 1 796.749293278847 800.4330253346504"/><path fill="#d62728" stroke="none" paint-order="stroke fill markers" d=" M 786.7770152735017 777.3989201272007 A 29.726666666666688 29.726666666666688 0 1 1 786.7770004101695 777.3691934654884"/><path fill="#d62728" stroke="none" paint-order="stroke fill markers" d=" M 755.1617849348168 723.8663280835531 A 29.726666666666688 29.726666666666688 0 1 1 755.1617700714846 723.8366014218408"/><path fill="#d62728" stroke="none" paint-order="stroke fill markers" d=" M 779.8991325201216 660.7601063453612 A 29.726666666666574 29.726666666666574 0 1 1 779.8991176567895 660.730379683649"/><path fill="#d62728" stroke="none" paint-order="stroke fill markers" d=" M 788.9857393313066 684.6447245840529 A 18.952414693333367 18.952414693333367 0 1 1 788.9857298551001 684.6257721725183"/><path fill="#d62728" stroke="none" paint-order="stroke fill markers" d=" M 774.6761912002305 725.580708277002 A 18.952414693333253 18.952414693333253 0 1 1 774.676181724024 725.5617558654674"/><path fill="#d62728" stroke="none" paint-order="stroke fill markers" d=" M 842.1972786660376 713.4310594092856 A 29.726666666666688 29.726666666666688 0 1 1 842.1972638027055 713.4013327475733"/><path fill="#d62728" stroke="none" paint-order="stroke fill markers" d=" M 820.381568717083 657.4141848151912 A 18.952414693333253 18.952414693333253 0 1 1 820.3815592408765 657.3952324036566"/><path fill="#d62728" stroke="none" paint-order="stroke fill markers" d=" M 861.6805576790464 715.6636406117882 A 18.952414693333253 18.952414693333253 0 1 1 861.6805482028399 715.6446882002535"/><path fill="#d62728" stroke="none" paint-order="stroke fill markers" d=" M 814.4382920095798 739.612784414961 A 18.952414693333367 18.952414693333367 0 1 1 814.4382825333732 739.5938320034263"/><path fill="#d62728" stroke="none" paint-order="stroke fill markers" d=" M 830.822347029524 782.5107066975327 A 18.952414693333367 18.952414693333367 0 1 1 830.8223375533175 782.491754285998"/><path fill="#d62728" stroke="none" paint-order="stroke fill markers" d=" M 870.7485710607648 773.7777166802578 A 29.726666666666688 29.726666666666688 0 1 1 870.7485561974327 773.7479900185455"/><path fill="#d62728" stroke="none" paint-order="stroke fill markers" d=" M 881.8101373655102 795.7118146593189 A 18.952414693333253 18.952414693333253 0 1 1 881.8101278893037 795.6928622477842"/><path fill="#d62728" stroke="none" paint-order="stroke fill markers" d=" M 895.1672354591873 733.2479275784565 A 18.952414693333253 18.952414693333253 0 1 1 895.1672259829808 733.2289751669218"/><path fill="#d62728" stroke="none" paint-order="stroke fill markers" d=" M 730.427628267176 546.697393718277 A 18.952414693333367 18.952414693333367 0 1 1 730.4276187909695 546.6784413067423"/><path fill="#d62728" stroke="none" paint-order="stroke fill markers" d=" M 748.8391336809113 600.0502166894589 A 29.726666666666688 29.726666666666688 0 1 1 748.8391188175792 600.0204900277466"/><path fill="#d62728" stroke="none" paint-order="stroke fill markers" d=" M 685.4275655892133 612.4303919746105 A 18.952414693333367 18.952414693333367 0 1 1 685.4275561130067 612.4114395630759"/><path fill="#d62728" stroke="none" paint-order="stroke fill markers" d=" M 721.0880169515415 626.2374801863332 A 18.952414693333367 18.952414693333367 0 1 1 721.088007475335 626.2185277747985"/><path fill="#d62728" stroke="none" paint-order="stroke fill markers" d=" M 739.3388979140632 666.736047366484 A 18.952414693333367 18.952414693333367 0 1 1 739.3388884378567 666.7170949549493"/><path fill="#d62728" stroke="none" paint-order="stroke fill markers" d=" M 689.1002330707274 729.4125055626682 A 18.952414693333367 18.952414693333367 0 1 1 689.1002235945209 729.3935531511336"/><path fill="#d62728" stroke="none" paint-order="stroke fill markers" d=" M 705.1045175480346 688.9118319521699 A 18.952414693333253 18.952414693333253 0 1 1 705.104508071828 688.8928795406352"/><path fill="#d62728" stroke="none" paint-order="stroke fill markers" d=" M 695.6638159187588 665.3518133390025 A 29.726666666666574 29.726666666666574 0 1 1 695.6638010554267 665.3220866772903"/><path fill="#d62728" stroke="none" paint-order="stroke fill markers" d=" M 655.1963783000408 671.8095175506246 A 18.952414693333367 18.952414693333367 0 1 1 655.1963688238343 671.79056513909"/><path fill="#d62728" stroke="none" paint-order="stroke fill markers" d=" M 618.0040986481887 691.4884561282877 A 18.952414693333367 18.952414693333367 0 1 1 618.0040891719822 691.469503716753"/><path fill="#d62728" stroke="none" paint-order="stroke fill markers" d=" M 669.5785715301178 727.8434258215536 A 29.726666666666688 29.726666666666688 0 1 1 669.5785566667856 727.8136991598413"/><path fill="#d62728" stroke="none" paint-order="stroke fill markers" d=" M 642.351969616398 754.3915295532781 A 18.952414693333367 18.952414693333367 0 1 1 642.3519601401915 754.3725771417435"/><path fill="#d62728" stroke="none" paint-order="stroke fill markers" d=" M 621.1228959787358 806.1698684975245 A 18.952414693333367 18.952414693333367 0 1 1 621.1228865025292 806.1509160859898"/><path fill="#d62728" stroke="none" paint-order="stroke fill markers" d=" M 659.4480061841333 794.072301956015 A 18.952414693333367 18.952414693333367 0 1 1 659.4479967079268 794.0533495444804"/><path fill="#d62728" stroke="none" paint-order="stroke fill markers" d=" M 698.3446114017011 782.229001056513 A 29.726666666666574 29.726666666666574 0 1 1 698.3445965383689 782.1992743948007"/><path fill="#d62728" stroke="none" paint-order="stroke fill markers" d=" M 727.8180207651487 750.3352359783119 A 18.952414693333253 18.952414693333253 0 1 1 727.8180112889422 750.3162835667772"/><path fill="#d62728" stroke="none" paint-order="stroke fill markers" d=" M 544.9354677663121 518.2112253389334 A 18.952414693333367 18.952414693333367 0 1 1 544.9354582901055 518.1922729273988"/><path fill="#d62728" stroke="none" paint-order="stroke fill markers" d=" M 531.1798700302489 571.9165634358624 A 18.952414693333367 18.952414693333367 0 1 1 531.1798605540424 571.8976110243277"/><path fill="#d62728" stroke="none" paint-order="stroke fill markers" d=" M 566.7523922893374 549.4876764843011 A 18.952414693333367 18.952414693333367 0 1 1 566.7523828131309 549.4687240727665"/><path fill="#d62728" stroke="none" paint-order="stroke fill markers" d=" M 594.3933506460719 499.74385256934306 A 18.952414693333367 18.952414693333367 0 1 1 594.3933411698654 499.72490015780846"/><path fill="#d62728" stroke="none" paint-order="stroke fill markers" d=" M 607.7629615848992 546.9623511696973 A 29.726666666666688 29.726666666666688 0 1 1 607.7629467215671 546.932624507985"/><path fill="#d62728" stroke="none" paint-order="stroke fill markers" d=" M 597.711090947371 611.892463477644 A 18.952414693333253 18.952414693333253 0 1 1 597.7110814711644 611.8735110661094"/><path fill="#d62728" stroke="none" paint-order="stroke fill markers" d=" M 578.1875428892091 610.363432406104 A 29.726666666666688 29.726666666666688 0 1 1 578.187528025877 610.3337057443918"/><path fill="#d62728" stroke="none" paint-order="stroke fill markers" d=" M 550.9932908838217 636.9332627466229 A 18.952414693333367 18.952414693333367 0 1 1 550.9932814076152 636.9143103350882"/><path fill="#d62728" stroke="none" paint-order="stroke fill markers" d=" M 636.5319662647007 632.4569145095986 A 18.952414693333367 18.952414693333367 0 1 1 636.5319567884942 632.437962098064"/><path fill="#d62728" stroke="none" paint-order="stroke fill markers" d=" M 666.2045927356437 607.7392926368841 A 29.726666666666574 29.726666666666574 0 1 1 666.2045778723116 607.7095659751718"/><path fill="#d62728" stroke="none" paint-order="stroke fill markers" d=" M 614.2061985984692 572.9785657908258 A 18.952414693333367 18.952414693333367 0 1 1 614.2061891222627 572.9596133792911"/><path fill="#d62728" stroke="none" paint-order="stroke fill markers" d=" M 632.1388131429009 509.8581110923492 A 18.952414693333367 18.952414693333367 0 1 1 632.1388036666943 509.8391586808146"/><path fill="#d62728" stroke="none" paint-order="stroke fill markers" d=" M 650.1793942170709 547.5622563660195 A 18.952414693333367 18.952414693333367 0 1 1 650.1793847408644 547.5433039544848"/><path fill="#d62728" stroke="none" paint-order="stroke fill markers" d=" M 698.3541958724365 569.4024753498438 A 18.952414693333367 18.952414693333367 0 1 1 698.35418639623 569.3835229383092"/><path fill="#d62728" stroke="none" paint-order="stroke fill markers" d=" M 691.0930541457412 543.9947714579644 A 29.726666666666688 29.726666666666688 0 1 1 691.0930392824091 543.9650447962521"/><path fill="#d62728" stroke="none" paint-order="stroke fill markers" d=" M 720.6490264890451 508.42374446525423 A 18.952414693333367 18.952414693333367 0 1 1 720.6490170128386 508.40479205371963"/><path fill="#d62728" stroke="none" paint-order="stroke fill markers" d=" M 531.333260674945 792.0604532124607 A 29.726666666666688 29.726666666666688 0 1 1 531.3332458116129 792.0307265507485"/><path fill="#d62728" stroke="none" paint-order="stroke fill markers" d=" M 571.7231854078109 787.5342637972294 A 18.952414693333367 18.952414693333367 0 1 1 571.7231759316044 787.5153113856948"/><path fill="#d62728" stroke="none" paint-order="stroke fill markers" d=" M 612.3612889954 781.9961057423552 A 29.726666666666574 29.726666666666574 0 1 1 612.3612741320678 781.9663790806429"/><path fill="#d62728" stroke="none" paint-order="stroke fill markers" d=" M 557.5208420975335 748.9670524875874 A 18.952414693333367 18.952414693333367 0 1 1 557.520832621327 748.9481000760527"/><path fill="#d62728" stroke="none" paint-order="stroke fill markers" d=" M 587.5085509950504 724.5144700287851 A 29.726666666666688 29.726666666666688 0 1 1 587.5085361317183 724.4847433670728"/><path fill="#d62728" stroke="none" paint-order="stroke fill markers" d=" M 606.6687352315623 729.6223516901703 A 18.952414693333253 18.952414693333253 0 1 1 606.6687257553558 729.6033992786356"/><path fill="#d62728" stroke="none" paint-order="stroke fill markers" d=" M 608.8287145632374 667.6842657475861 A 29.726666666666688 29.726666666666688 0 1 1 608.8286996999053 667.6545390858738"/><path fill="#d62728" stroke="none" paint-order="stroke fill markers" d=" M 568.2909518810612 673.7805145132863 A 18.952414693333253 18.952414693333253 0 1 1 568.2909424048547 673.7615621017517"/><path fill="#d62728" stroke="none" paint-order="stroke fill markers" d=" M 532.7013372181531 696.7378511704401 A 18.952414693333253 18.952414693333253 0 1 1 532.7013277419466 696.7188987589054"/><path fill="#d62728" stroke="none" paint-order="stroke fill markers" d=" M 501.0841836697822 731.5586914326159 A 29.72666666666663 29.72666666666663 0 1 1 501.0841688064501 731.5289647709036"/><path fill="#d62728" stroke="none" paint-order="stroke fill markers" d=" M 484.401426671323 675.1995822177787 A 18.95241469333331 18.95241469333331 0 1 1 484.40141719511644 675.180629806244"/><path fill="#d62728" stroke="none" paint-order="stroke fill markers" d=" M 525.2939693760383 671.4434992289684 A 29.72666666666663 29.72666666666663 0 1 1 525.2939545127061 671.4137725672562"/><path fill="#d62728" stroke="none" paint-order="stroke fill markers" d=" M 515.1083989246964 616.6734633619778 A 18.952414693333367 18.952414693333367 0 1 1 515.1083894484899 616.6545109504432"/><path fill="#d62728" stroke="none" paint-order="stroke fill markers" d=" M 495.775462563151 612.8219955885158 A 29.72666666666663 29.72666666666663 0 1 1 495.7754476998189 612.7922689268036"/><path fill="#d62728" stroke="none" paint-order="stroke fill markers" d=" M 520.8416370330193 549.226935777245 A 29.726666666666688 29.726666666666688 0 1 1 520.8416221696872 549.1972091155327"/><path fill="#d62728" stroke="none" paint-order="stroke fill markers" d=" M 510.6756000157752 497.36120571372567 A 18.95241469333331 18.95241469333331 0 1 1 510.67559053956865 497.34225330219107"/><path fill="#d62728" stroke="none" paint-order="stroke fill markers" d=" M 538.8763813032737 817.2482839036752 A 18.952414693333253 18.952414693333253 0 1 1 538.8763718270671 817.2293314921405"/><path fill="#d62728" stroke="none" paint-order="stroke fill markers" d=" M 490.46139388911 795.9922714898207 A 18.952414693333367 18.952414693333367 0 1 1 490.46138441290344 795.9733190782861"/><path fill="#d62728" stroke="none" paint-order="stroke fill markers" d=" M 520.3386444690415 736.0258180095725 A 18.95241469333331 18.95241469333331 0 1 1 520.338634992835 736.0068655980378"/><path fill="#d62728" stroke="none" paint-order="stroke fill markers" d=" M 933.8613052514148 823.503555669369 A 29.726666666666688 29.726666666666688 0 1 1 933.8612903880827 823.4738290076567"/><path fill="#d62728" stroke="none" paint-order="stroke fill markers" d=" M 34.42108178330477 810.6059378238735 A 29.72666666666663 29.72666666666663 0 1 1 34.421066919972674 810.5762111621613"/><path fill="#d62728" stroke="none" paint-order="stroke fill markers" d=" M 198.44273398133038 810.5323315295745 A 29.726666666666688 29.726666666666688 0 1 1 198.44271911799828 810.5026048678623"/><path fill="#d62728" stroke="none" paint-order="stroke fill markers" d=" M 157.6917512710653 815.3635193981836 A 18.95241469333331 18.95241469333331 0 1 1 157.69174179485873 815.3445669866489"/><path fill="#d62728" stroke="none" paint-order="stroke fill markers" d=" M 117.87002847295054 811.6431582221694 A 29.726666666666688 29.726666666666688 0 1 1 117.87001360961844 811.6134315604571"/><path fill="#d62728" stroke="none" paint-order="stroke fill markers" d=" M 76.82088552525676 813.60375944827 A 18.95241469333331 18.95241469333331 0 1 1 76.8208760490502 813.5848070367354"/><path fill="#d62728" stroke="none" paint-order="stroke fill markers" d=" M 471.582003425002 756.4167066832997 A 18.95241469333331 18.95241469333331 0 1 1 471.5819939487954 756.397754271765"/><path fill="#d62728" stroke="none" paint-order="stroke fill markers" d=" M 459.82687812383284 817.888326632805 A 18.952414693333367 18.952414693333367 0 1 1 459.82686864762627 817.8693742212704"/><path fill="#d62728" stroke="none" paint-order="stroke fill markers" d=" M 374.44430853642547 819.0185440262053 A 18.952414693333367 18.952414693333367 0 1 1 374.4442990602189 818.9995916146706"/><path fill="#d62728" stroke="none" paint-order="stroke fill markers" d=" M 429.19426024182104 505.1707841938394 A 18.95241469333331 18.95241469333331 0 1 1 429.19425076561447 505.1518317823048"/><path fill="#d62728" stroke="none" paint-order="stroke fill markers" d=" M 462.5451168736447 519.3072174717943 A 18.952414693333367 18.952414693333367 0 1 1 462.54510739743813 519.2882650602596"/><path fill="#d62728" stroke="none" paint-order="stroke fill markers" d=" M 480.64899891876837 556.9295766535915 A 18.95241469333331 18.95241469333331 0 1 1 480.6489894425618 556.9106242420569"/><path fill="#d62728" stroke="none" paint-order="stroke fill markers" d=" M 449.0967625614474 582.6640913094682 A 18.95241469333331 18.95241469333331 0 1 1 449.09675308524083 582.6451388979335"/><path fill="#d62728" stroke="none" paint-order="stroke fill markers" d=" M 434.6842722728812 622.9907438674982 A 18.95241469333331 18.95241469333331 0 1 1 434.6842627966746 622.9717914559635"/><path fill="#d62728" stroke="none" paint-order="stroke fill markers" d=" M 466.7458482738866 638.0586395602486 A 18.95241469333331 18.95241469333331 0 1 1 466.74583879768005 638.0396871487139"/><path fill="#d62728" stroke="none" paint-order="stroke fill markers" d=" M 450.380475566053 698.628598391545 A 18.95241469333331 18.95241469333331 0 1 1 450.38046608984644 698.6096459800103"/><path fill="#d62728" stroke="none" paint-order="stroke fill markers" d=" M 443.22202182698817 673.1421341336099 A 29.726666666666688 29.726666666666688 0 1 1 443.2220069636561 673.1124074718977"/><path fill="#d62728" stroke="none" paint-order="stroke fill markers" d=" M 402.29423158093886 676.5775951115636 A 18.95241469333331 18.95241469333331 0 1 1 402.2942221047323 676.5586427000289"/><path fill="#d62728" stroke="none" paint-order="stroke fill markers" d=" M 370.4357066331333 699.1474303298928 A 18.95241469333331 18.95241469333331 0 1 1 370.4356971569267 699.1284779183582"/><path fill="#d62728" stroke="none" paint-order="stroke fill markers" d=" M 418.88876392108926 735.7160938593354 A 29.726666666666688 29.726666666666688 0 1 1 418.8887490577572 735.6863671976231"/><path fill="#d62728" stroke="none" paint-order="stroke fill markers" d=" M 392.285811151139 762.672549068119 A 18.95241469333331 18.95241469333331 0 1 1 392.28580167493243 762.6535966565843"/><path fill="#d62728" stroke="none" paint-order="stroke fill markers" d=" M 358.92427355543765 739.7040356752684 A 18.952414693333367 18.952414693333367 0 1 1 358.9242640792311 739.6850832637338"/><path fill="#d62728" stroke="none" paint-order="stroke fill markers" d=" M 410.4401441086819 799.2154602683895 A 18.952414693333367 18.952414693333367 0 1 1 410.44013463247535 799.1965078568549"/><path fill="#d62728" stroke="none" paint-order="stroke fill markers" d=" M 451.0820850144755 793.6998340094501 A 29.726666666666688 29.726666666666688 0 1 1 451.08207015114345 793.6701073477378"/><path fill="#d62728" stroke="none" paint-order="stroke fill markers" d=" M 438.4380680319626 736.5183486496937 A 18.95241469333331 18.95241469333331 0 1 1 438.438058555756 736.4993962381591"/><path fill="#d62728" stroke="none" paint-order="stroke fill markers" d=" M 266.00431786835964 515.5997658879837 A 18.95241469333334 18.95241469333334 0 1 1 266.00430839215306 515.5808134764491"/><path fill="#d62728" stroke="none" paint-order="stroke fill markers" d=" M 314.97581500679746 571.3533636758796 A 18.952414693333367 18.952414693333367 0 1 1 314.9758055305909 571.3344112643449"/><path fill="#d62728" stroke="none" paint-order="stroke fill markers" d=" M 298.8374466100039 534.8906951544236 A 18.952414693333367 18.952414693333367 0 1 1 298.8374371337973 534.871742742889"/><path fill="#d62728" stroke="none" paint-order="stroke fill markers" d=" M 326.90321628793254 508.9278178604204 A 29.726666666666688 29.726666666666688 0 1 1 326.90320142460047 508.8980911987082"/><path fill="#d62728" stroke="none" paint-order="stroke fill markers" d=" M 346.3579566638503 511.5465977639644 A 18.95241469333331 18.95241469333331 0 1 1 346.35794718764373 511.52764535242983"/><path fill="#d62728" stroke="none" paint-order="stroke fill markers" d=" M 354.923376385594 562.6980434562063 A 29.726666666666688 29.726666666666688 0 1 1 354.9233615222619 562.668316794494"/><path fill="#d62728" stroke="none" paint-order="stroke fill markers" d=" M 330.3918569938013 622.5537165527765 A 29.72666666666663 29.72666666666663 0 1 1 330.39184213046923 622.5239898910642"/><path fill="#d62728" stroke="none" paint-order="stroke fill markers" d=" M 305.1892077877986 650.3499749759503 A 18.95241469333331 18.95241469333331 0 1 1 305.189198311592 650.3310225644157"/><path fill="#d62728" stroke="none" paint-order="stroke fill markers" d=" M 349.93914701575204 621.6727321162928 A 18.952414693333367 18.952414693333367 0 1 1 349.93913753954547 621.6537797047581"/><path fill="#d62728" stroke="none" paint-order="stroke fill markers" d=" M 384.909740120507 640.5105298419185 A 18.95241469333331 18.95241469333331 0 1 1 384.90973064430045 640.4915774303838"/><path fill="#d62728" stroke="none" paint-order="stroke fill markers" d=" M 415.7164592420679 616.7819553555246 A 29.72666666666663 29.72666666666663 0 1 1 415.71644437873584 616.7522286938123"/><path fill="#d62728" stroke="none" paint-order="stroke fill markers" d=" M 365.93104371276075 584.6902264738708 A 18.95241469333331 18.95241469333331 0 1 1 365.9310342365542 584.6712740623361"/><path fill="#d62728" stroke="none" paint-order="stroke fill markers" d=" M 381.8750417840854 528.9544883132576 A 18.952414693333367 18.952414693333367 0 1 1 381.8750323078788 528.9355359017229"/><path fill="#d62728" stroke="none" paint-order="stroke fill markers" d=" M 409.71834889841386 502.8323416286448 A 29.726666666666688 29.726666666666688 0 1 1 409.7183340350818 502.8026149669326"/><path fill="#d62728" stroke="none" paint-order="stroke fill markers" d=" M 400.11106727667845 562.8779474102087 A 18.952414693333367 18.952414693333367 0 1 1 400.1110578004719 562.858994998674"/><path fill="#d62728" stroke="none" paint-order="stroke fill markers" d=" M 440.86098203685515 558.0395652842292 A 29.726666666666688 29.726666666666688 0 1 1 440.8609671735231 558.0098386225169"/><path fill="#d62728" stroke="none" paint-order="stroke fill markers" d=" M 286.43231429343064 804.5970590111092 A 29.726666666666688 29.726666666666688 0 1 1 286.43229943009857 804.5673323493969"/><path fill="#d62728" stroke="none" paint-order="stroke fill markers" d=" M 325.2965973031962 799.6733505452321 A 18.952414693333367 18.952414693333367 0 1 1 325.29658782698965 799.6543981336974"/><path fill="#d62728" stroke="none" paint-order="stroke fill markers" d=" M 366.00533106225294 794.5657699183084 A 29.726666666666688 29.726666666666688 0 1 1 366.00531619892087 794.5360432565961"/><path fill="#d62728" stroke="none" paint-order="stroke fill markers" d=" M 339.4764310697175 737.0002596908043 A 29.72666666666663 29.72666666666663 0 1 1 339.4764162063854 736.970533029092"/><path fill="#d62728" stroke="none" paint-order="stroke fill markers" d=" M 311.3434527898726 762.9144164869547 A 18.952414693333367 18.952414693333367 0 1 1 311.343443313666 762.89546407542"/><path fill="#d62728" stroke="none" paint-order="stroke fill markers" d=" M 359.73872119224814 676.8261449199217 A 29.726666666666688 29.726666666666688 0 1 1 359.73870632891607 676.7964182582094"/><path fill="#d62728" stroke="none" paint-order="stroke fill markers" d=" M 319.6729138128213 685.036619147158 A 18.952414693333367 18.952414693333367 0 1 1 319.67290433661475 685.0176667356234"/><path fill="#d62728" stroke="none" paint-order="stroke fill markers" d=" M 281.6858727880377 688.9487155256518 A 29.726666666666688 29.726666666666688 0 1 1 281.68585792470566 688.9189888639395"/><path fill="#d62728" stroke="none" paint-order="stroke fill markers" d=" M 287.88064225027983 715.1414969128273 A 18.952414693333367 18.952414693333367 0 1 1 287.88063277407326 715.1225445012926"/><path fill="#d62728" stroke="none" paint-order="stroke fill markers" d=" M 240.65275529174926 691.161592676267 A 18.95241469333334 18.95241469333334 0 1 1 240.6527458155427 691.1426402647323"/><path fill="#d62728" stroke="none" paint-order="stroke fill markers" d=" M 251.59065616817307 629.1589533725835 A 29.726666666666688 29.726666666666688 0 1 1 251.59064130484097 629.1292267108712"/><path fill="#d62728" stroke="none" paint-order="stroke fill markers" d=" M 271.1250072949439 627.8832421005773 A 18.95241469333331 18.95241469333331 0 1 1 271.1249978187373 627.8642896890426"/><path fill="#d62728" stroke="none" paint-order="stroke fill markers" d=" M 279.6687195762978 588.4009600599773 A 18.952414693333367 18.952414693333367 0 1 1 279.66871010009123 588.3820076484426"/><path fill="#d62728" stroke="none" paint-order="stroke fill markers" d=" M 228.76639969973266 574.8466064538829 A 18.95241469333334 18.95241469333334 0 1 1 228.76639022352612 574.8276540423483"/><path fill="#d62728" stroke="none" paint-order="stroke fill markers" d=" M 268.74777410091133 566.3159436179753 A 29.72666666666663 29.72666666666663 0 1 1 268.74775923757926 566.286216956263"/><path fill="#d62728" stroke="none" paint-order="stroke fill markers" d=" M 246.8640535549569 510.3667659312698 A 29.72666666666666 29.72666666666666 0 1 1 246.8640386916248 510.3370392695576"/><path fill="#d62728" stroke="none" paint-order="stroke fill markers" d=" M 89.00137787503434 751.7788323278332 A 29.726666666666688 29.726666666666688 0 1 1 89.00136301170224 751.749105666121"/><path fill="#d62728" stroke="none" paint-order="stroke fill markers" d=" M 142.36308914787418 773.0846836160529 A 18.95241469333331 18.95241469333331 0 1 1 142.3630796716676 773.0657312045182"/><path fill="#d62728" stroke="none" paint-order="stroke fill markers" d=" M 172.33964243411975 748.6225958917596 A 29.726666666666688 29.726666666666688 0 1 1 172.33962757078766 748.5928692300473"/><path fill="#d62728" stroke="none" paint-order="stroke fill markers" d=" M 108.35231599250699 755.4743528685394 A 18.95241469333331 18.95241469333331 0 1 1 108.35230651630043 755.4554004570048"/><path fill="#d62728" stroke="none" paint-order="stroke fill markers" d=" M 118.8302525261492 717.68463146675 A 18.95241469333331 18.95241469333331 0 1 1 118.83024304994264 717.6656790552154"/><path fill="#d62728" stroke="none" paint-order="stroke fill markers" d=" M 110.60429823983583 693.0518792710336 A 29.726666666666688 29.726666666666688 0 1 1 110.60428337650373 693.0221526093213"/><path fill="#d62728" stroke="none" paint-order="stroke fill markers" d=" M 137.61828801086978 658.1598805458109 A 18.95241469333331 18.95241469333331 0 1 1 137.6182785346632 658.1409281342762"/><path fill="#d62728" stroke="none" paint-order="stroke fill markers" d=" M 155.75536850824847 702.4546072128664 A 18.95241469333331 18.95241469333331 0 1 1 155.7553590320419 702.4356548013318"/><path fill="#d62728" stroke="none" paint-order="stroke fill markers" d=" M 195.13980614103343 691.9556472838999 A 29.726666666666688 29.726666666666688 0 1 1 195.13979127770133 691.9259206221876"/><path fill="#d62728" stroke="none" paint-order="stroke fill markers" d=" M 226.72261626636387 657.1409008403157 A 18.95241469333334 18.95241469333334 0 1 1 226.72260679015733 657.121948428781"/><path fill="#d62728" stroke="none" paint-order="stroke fill markers" d=" M 207.398549988341 712.5179666336046 A 18.95241469333328 18.95241469333328 0 1 1 207.39854051213445 712.49901422207"/><path fill="#d62728" stroke="none" paint-order="stroke fill markers" d=" M 191.50215066366115 753.715660555664 A 18.95241469333331 18.95241469333331 0 1 1 191.50214118745458 753.6967081441294"/><path fill="#d62728" stroke="none" paint-order="stroke fill markers" d=" M 223.71360650657724 774.0694993130178 A 18.95241469333334 18.95241469333334 0 1 1 223.7135970303707 774.0505469014831"/><path fill="#d62728" stroke="none" paint-order="stroke fill markers" d=" M 245.41745366341758 807.0659887522763 A 18.95241469333334 18.95241469333334 0 1 1 245.417444187211 807.0470363407417"/><path fill="#d62728" stroke="none" paint-order="stroke fill markers" d=" M 253.07772298912727 749.0992668287911 A 29.72666666666666 29.72666666666666 0 1 1 253.07770812579517 749.0695401670788"/><path fill="#d62728" stroke="none" paint-order="stroke fill markers" d=" M 272.3564395793269 753.3857245198119 A 18.95241469333334 18.95241469333334 0 1 1 272.3564301031203 753.3667721082772"/><path fill="#d62728" stroke="none" paint-order="stroke fill markers" d=" M 21.668474663216898 639.4987342701095 A 18.95241469333331 18.95241469333331 0 1 1 21.66846518701034 639.4797818585748"/><path fill="#d62728" stroke="none" paint-order="stroke fill markers" d=" M 63.45534152571503 581.2963636399252 A 18.95241469333331 18.95241469333331 0 1 1 63.45533204950847 581.2774112283905"/><path fill="#d62728" stroke="none" paint-order="stroke fill markers" d=" M 104.24709126261342 576.7481628024245 A 29.726666666666688 29.726666666666688 0 1 1 104.24707639928133 576.7184361407122"/><path fill="#d62728" stroke="none" paint-order="stroke fill markers" d=" M 81.44377159368992 634.9828421050822 A 29.726666666666688 29.726666666666688 0 1 1 81.44375673035782 634.9531154433699"/><path fill="#d62728" stroke="none" paint-order="stroke fill markers" d=" M 69.85245809710176 697.877283207529 A 18.95241469333331 18.95241469333331 0 1 1 69.8524486208952 697.8583307959943"/><path fill="#d62728" stroke="none" paint-order="stroke fill markers" d=" M 35.53208753916351 721.5286162151899 A 18.95241469333331 18.95241469333331 0 1 1 35.532078062956955 721.5096638036553"/><path fill="#d62728" stroke="none" paint-order="stroke fill markers" d=" M 52.35845821464517 660.1756517967817 A 18.95241469333331 18.95241469333331 0 1 1 52.35844873843861 660.1566993852471"/><path fill="#d62728" stroke="none" paint-order="stroke fill markers" d=" M 26.204074908711277 697.864187335302 A 29.726666666666688 29.726666666666688 0 1 1 26.204060045379183 697.8344606735897"/><path fill="#d62728" stroke="none" paint-order="stroke fill markers" d=" M 22.892359625731217 756.8695476916844 A 18.95241469333331 18.95241469333331 0 1 1 22.89235014952466 756.8505952801497"/><path fill="#d62728" stroke="none" paint-order="stroke fill markers" d=" M 60.09240408398546 777.1096916957172 A 18.95241469333331 18.95241469333331 0 1 1 60.0923946077789 777.0907392841825"/><path fill="#d62728" stroke="none" paint-order="stroke fill markers" d=" M 186.42944421955366 572.8261653850905 A 29.72666666666663 29.72666666666663 0 1 1 186.42942935622156 572.7964387233782"/><path fill="#d62728" stroke="none" paint-order="stroke fill markers" d=" M 195.5250767658829 596.702636726332 A 18.95241469333331 18.95241469333331 0 1 1 195.52506728967631 596.6836843147973"/><path fill="#d62728" stroke="none" paint-order="stroke fill markers" d=" M 186.25814470299304 637.4685142609596 A 18.95241469333331 18.95241469333331 0 1 1 186.25813522678646 637.449561849425"/><path fill="#d62728" stroke="none" paint-order="stroke fill markers" d=" M 145.87147026900766 578.8143253299836 A 18.95241469333331 18.95241469333331 0 1 1 145.8714607928011 578.795372918449"/><path fill="#d62728" stroke="none" paint-order="stroke fill markers" d=" M 166.97881250023715 633.1867464896161 A 29.726666666666688 29.726666666666688 0 1 1 166.97879763690506 633.1570198279038"/><path fill="#d62728" stroke="none" paint-order="stroke fill markers" d=" M 100.76811760150463 638.906478021964 A 18.95241469333331 18.95241469333331 0 1 1 100.76810812529807 638.8875256104293"/><path fill="#d62728" stroke="none" paint-order="stroke fill markers" d=" M 112.2625584050806 601.555522385775 A 18.95241469333331 18.95241469333331 0 1 1 112.26254892887404 601.5365699742404"/><path fill="#d62728" stroke="none" paint-order="stroke fill markers" d=" M 132.60391720878613 539.7737686199548 A 18.95241469333331 18.95241469333331 0 1 1 132.60390773257956 539.7548162084202"/><path fill="#d62728" stroke="none" paint-order="stroke fill markers" d=" M 161.89115119006573 514.7416254243028 A 29.72666666666663 29.72666666666663 0 1 1 161.89113632673363 514.7118987625905"/><path fill="#d62728" stroke="none" paint-order="stroke fill markers" d=" M 96.96490105274995 523.3916438604842 A 18.95241469333331 18.95241469333331 0 1 1 96.9648915765434 523.3726914489496"/><path fill="#d62728" stroke="none" paint-order="stroke fill markers" d=" M 48.552713521397834 544.6545670131909 A 18.95241469333331 18.95241469333331 0 1 1 48.55270404519128 544.6356146016562"/><path fill="#d62728" stroke="none" paint-order="stroke fill markers" d=" M 77.6410230502305 519.4641223782778 A 29.726666666666688 29.726666666666688 0 1 1 77.6410081868984 519.4343957165655"/><path fill="#d62728" stroke="none" paint-order="stroke fill markers" d=" M 15.496386690081465 528.1818129681897 A 18.95241469333331 18.95241469333331 0 1 1 15.496377213874908 528.162860556655"/><path fill="#d62728" stroke="none" paint-order="stroke fill markers" d=" M 29.72547717677145 600.7124533034851 A 18.95241469333331 18.95241469333331 0 1 1 29.72546770056489 600.6935008919504"/><path fill="#d62728" stroke="none" paint-order="stroke fill markers" d=" M 19.708869804753988 577.7027691555625 A 29.726666666666688 29.726666666666688 0 1 1 19.708854941421894 577.6730424938502"/><path fill="#1f77b4" stroke="none" paint-order="stroke fill markers" d=" M 64.47302132170859 463.03065928445653 A 18.95241469333331 18.95241469333331 0 1 1 64.47301184550203 463.01170687292193"/><path fill="#1f77b4" stroke="none" paint-order="stroke fill markers" d=" M 72.36031552486838 420.2139707131221 A 18.95241469333331 18.95241469333331 0 1 1 72.36030604866183 420.1950183015875"/><path fill="#1f77b4" stroke="none" paint-order="stroke fill markers" d=" M 105.49806302449059 460.70105650529854 A 29.726666666666688 29.726666666666688 0 1 1 105.4980481611585 460.6713298435863"/><path fill="#1f77b4" stroke="none" paint-order="stroke fill markers" d=" M 111.78583037015903 486.82818869022526 A 18.95241469333331 18.95241469333331 0 1 1 111.78582089395248 486.80923627869066"/><path fill="#d62728" stroke="none" paint-order="stroke fill markers" d=" M 145.06734822467445 459.08818043040105 A 18.95241469333331 18.95241469333331 0 1 1 145.06733874846788 459.06922801886645"/><path fill="#1f77b4" stroke="none" paint-order="stroke fill markers" d=" M 113.88866179632646 412.48509472934325 A 18.95241469333331 18.95241469333331 0 1 1 113.8886523201199 412.46614231780865"/><path fill="#1f77b4" stroke="none" paint-order="stroke fill markers" d=" M 115.10618031251414 350.68259172871876 A 18.95241469333331 18.95241469333331 0 1 1 115.10617083630758 350.66363931718416"/><path fill="#1f77b4" stroke="none" paint-order="stroke fill markers" d=" M 151.86095706774648 374.6585321890834 A 18.95241469333331 18.95241469333331 0 1 1 151.8609475915399 374.6395797775488"/><path fill="#1f77b4" stroke="none" paint-order="stroke fill markers" d=" M 154.13094449577898 404.99121042288175 A 29.726666666666688 29.726666666666688 0 1 1 154.13092963244688 404.9614837611695"/><path fill="#1f77b4" stroke="none" paint-order="stroke fill markers" d=" M 188.0983432205125 379.1425126706117 A 18.95241469333331 18.95241469333331 0 1 1 188.09833374430593 379.1235602590771"/><path fill="#1f77b4" stroke="none" paint-order="stroke fill markers" d=" M 219.88594196247485 354.7066071111874 A 18.95241469333334 18.95241469333334 0 1 1 219.8859324862683 354.6876546996528"/><path fill="#1f77b4" stroke="none" paint-order="stroke fill markers" d=" M 215.15082531087913 405.80684871772996 A 29.72666666666666 29.72666666666666 0 1 1 215.15081044754703 405.77712205601773"/><path fill="#d62728" stroke="none" paint-order="stroke fill markers" d=" M 185.92423791202492 455.03389115986533 A 29.72666666666663 29.72666666666663 0 1 1 185.92422304869282 455.0041644981531"/><path fill="#d62728" stroke="none" paint-order="stroke fill markers" d=" M 193.56168001245914 480.14697595612006 A 18.95241469333331 18.95241469333331 0 1 1 193.56167053625256 480.12802354458546"/><path fill="#d62728" stroke="none" paint-order="stroke fill markers" d=" M 216.7822925301023 534.7388179121917 A 18.95241469333334 18.95241469333334 0 1 1 216.78228305389575 534.7198655006571"/><path fill="#d62728" stroke="none" paint-order="stroke fill markers" d=" M 181.1828935281997 518.9277654406053 A 18.95241469333331 18.95241469333331 0 1 1 181.18288405199314 518.9088130290706"/><path fill="#1f77b4" stroke="none" paint-order="stroke fill markers" d=" M 11.150194675372461 280.808008835651 A 29.72666666666663 29.72666666666663 0 1 1 11.150179812040367 280.77828217393875"/><path fill="#1f77b4" stroke="none" paint-order="stroke fill markers" d=" M 26.609555027389888 335.6888549080361 A 18.95241469333331 18.95241469333331 0 1 1 26.60954555118333 335.6699024965015"/><path fill="#1f77b4" stroke="none" paint-order="stroke fill markers" d=" M 65.01923513527197 318.47288859871014 A 18.95241469333331 18.95241469333331 0 1 1 65.01922565906541 318.45393618717554"/><path fill="#1f77b4" stroke="none" paint-order="stroke fill markers" d=" M 51.163301146433525 266.8529786083177 A 18.95241469333331 18.95241469333331 0 1 1 51.16329167022697 266.8340261967831"/><path fill="#1f77b4" stroke="none" paint-order="stroke fill markers" d=" M 92.09940060673722 271.57064666607016 A 18.95241469333331 18.95241469333331 0 1 1 92.09939113053066 271.55169425453556"/><path fill="#1f77b4" stroke="none" paint-order="stroke fill markers" d=" M 102.33035851841646 303.16557728404746 A 29.726666666666688 29.726666666666688 0 1 1 102.33034365508436 303.1358506223352"/><path fill="#1f77b4" stroke="none" paint-order="stroke fill markers" d=" M 101.2632782232194 369.1457340255736 A 29.726666666666688 29.726666666666688 0 1 1 101.2632633598873 369.11600736386134"/><path fill="#1f77b4" stroke="none" paint-order="stroke fill markers" d=" M 53.35067474019036 414.22673655408244 A 29.726666666666688 29.726666666666688 0 1 1 53.35065987685826 414.1970098923702"/><path fill="#1f77b4" stroke="none" paint-order="stroke fill markers" d=" M 62.831830265097324 356.16797704111764 A 18.95241469333331 18.95241469333331 0 1 1 62.83182078889077 356.14902462958304"/><path fill="#1f77b4" stroke="none" paint-order="stroke fill markers" d=" M 7.423770480649068 340.63116053172575 A 29.72666666666663 29.72666666666663 0 1 1 7.423755617316974 340.6014338700135"/><path fill="#1f77b4" stroke="none" paint-order="stroke fill markers" d=" M 32.66173198456369 384.36241620691635 A 18.95241469333331 18.95241469333331 0 1 1 32.66172250835713 384.34346379538175"/><path fill="#d62728" stroke="none" paint-order="stroke fill markers" d=" M 19.43871593228272 462.22933204635115 A 29.72666666666663 29.72666666666663 0 1 1 19.438701068950625 462.1996053846389"/><path fill="#d62728" stroke="none" paint-order="stroke fill markers" d=" M 28.539753425538436 486.1009215072122 A 18.952414693333253 18.952414693333253 0 1 1 28.53974394933188 486.0819690956776"/><path fill="#1f77b4" stroke="none" paint-order="stroke fill markers" d=" M 235.550311882554 231.90587470337186 A 29.726666666666688 29.726666666666688 0 1 1 235.55029701922192 231.87614804165963"/><path fill="#1f77b4" stroke="none" paint-order="stroke fill markers" d=" M 213.08985148229837 261.06661533951547 A 18.95241469333328 18.95241469333328 0 1 1 213.08984200609183 261.04766292798087"/><path fill="#1f77b4" stroke="none" paint-order="stroke fill markers" d=" M 188.56630163037903 327.8659283373895 A 29.72666666666663 29.72666666666663 0 1 1 188.56628676704693 327.8362016756773"/><path fill="#1f77b4" stroke="none" paint-order="stroke fill markers" d=" M 192.8448804150267 300.4313978685425 A 18.95241469333331 18.95241469333331 0 1 1 192.84487093882012 300.4124454570079"/><path fill="#1f77b4" stroke="none" paint-order="stroke fill markers" d=" M 176.56153695831068 266.8397903944365 A 18.95241469333331 18.95241469333331 0 1 1 176.5615274821041 266.8208379829019"/><path fill="#1f77b4" stroke="none" paint-order="stroke fill markers" d=" M 157.57030405565865 272.92556573237766 A 29.726666666666688 29.726666666666688 0 1 1 157.57028919232656 272.89583907066543"/><path fill="#1f77b4" stroke="none" paint-order="stroke fill markers" d=" M 147.45899866216342 328.0026936304937 A 18.95241469333331 18.95241469333331 0 1 1 147.45898918595685 327.9837412189591"/><path fill="#1f77b4" stroke="none" paint-order="stroke fill markers" d=" M 126.85413578277223 249.11435731312713 A 18.95241469333331 18.95241469333331 0 1 1 126.85412630656568 249.09540490159253"/><path fill="#1f77b4" stroke="none" paint-order="stroke fill markers" d=" M 161.74314939407475 201.2623735859729 A 29.726666666666688 29.726666666666688 0 1 1 161.74313453074265 201.23264692426068"/><path fill="#1f77b4" stroke="none" paint-order="stroke fill markers" d=" M 120.9411250083985 205.73636933485932 A 18.95241469333331 18.95241469333331 0 1 1 120.94111553219194 205.71741692332472"/><path fill="#1f77b4" stroke="none" paint-order="stroke fill markers" d=" M 87.39485782253377 227.21675115680478 A 18.95241469333331 18.95241469333331 0 1 1 87.39484834632721 227.19779874527018"/><path fill="#1f77b4" stroke="none" paint-order="stroke fill markers" d=" M 69.06998301179522 236.13895858936962 A 29.72666666666663 29.72666666666663 0 1 1 69.06996814846312 236.1092319276574"/><path fill="#1f77b4" stroke="none" paint-order="stroke fill markers" d=" M 18.666445863193985 210.33976289896395 A 18.95241469333331 18.95241469333331 0 1 1 18.666436386987428 210.32081048742936"/><path fill="#1f77b4" stroke="none" paint-order="stroke fill markers" d=" M -0.27130618307353416 249.2152033438481 A 18.95241469333331 18.95241469333331 0 1 1 -0.2713156592800914 249.1962509323135"/><path fill="#1f77b4" stroke="none" paint-order="stroke fill markers" d=" M 26.963024354857623 296.0204706818288 A 18.95241469333331 18.95241469333331 0 1 1 26.963014878651066 296.0015182702942"/><path fill="#1f77b4" stroke="none" paint-order="stroke fill markers" d=" M 251.29509178997242 331.5450628205881 A 29.726666666666688 29.726666666666688 0 1 1 251.29507692664032 331.51533615887587"/><path fill="#1f77b4" stroke="none" paint-order="stroke fill markers" d=" M 231.58383460770983 301.34771208726715 A 18.95241469333334 18.95241469333334 0 1 1 231.58382513150326 301.32875967573256"/><path fill="#1f77b4" stroke="none" paint-order="stroke fill markers" d=" M 261.17432087403165 275.499305898855 A 18.95241469333331 18.95241469333331 0 1 1 261.1743113978251 275.48035348732043"/><path fill="#1f77b4" stroke="none" paint-order="stroke fill markers" d=" M 284.9049231763401 306.60379489754223 A 18.95241469333331 18.95241469333331 0 1 1 284.90491370013353 306.58484248600763"/><path fill="#1f77b4" stroke="none" paint-order="stroke fill markers" d=" M 308.94719849354425 335.0205212703447 A 29.726666666666688 29.726666666666688 0 1 1 308.9471836302122 334.9907946086325"/><path fill="#1f77b4" stroke="none" paint-order="stroke fill markers" d=" M 328.4301040396685 337.2586184024253 A 18.95241469333331 18.95241469333331 0 1 1 328.4300945634619 337.2396659908907"/><path fill="#1f77b4" stroke="none" paint-order="stroke fill markers" d=" M 358.3221067608005 278.486930396743 A 29.72666666666663 29.72666666666663 0 1 1 358.32209189746845 278.45720373503076"/><path fill="#1f77b4" stroke="none" paint-order="stroke fill markers" d=" M 319.14048740191294 289.5674730042606 A 18.95241469333331 18.95241469333331 0 1 1 319.14047792570636 289.548520592726"/><path fill="#1f77b4" stroke="none" paint-order="stroke fill markers" d=" M 352.54015776525364 247.3178423875704 A 18.95241469333331 18.95241469333331 0 1 1 352.54014828904707 247.2988899760358"/><path fill="#1f77b4" stroke="none" paint-order="stroke fill markers" d=" M 328.9244107643724 188.6779253274574 A 29.726666666666688 29.726666666666688 0 1 1 328.9243959010403 188.64819866574516"/><path fill="#1f77b4" stroke="none" paint-order="stroke fill markers" d=" M 323.0088059787919 219.86992643604708 A 18.952414693333367 18.952414693333367 0 1 1 323.0087965025853 219.85097402451248"/><path fill="#1f77b4" stroke="none" paint-order="stroke fill markers" d=" M 275.1652743046866 222.74285035932644 A 18.952414693333367 18.952414693333367 0 1 1 275.16526482848 222.72389794779184"/><path fill="#1f77b4" stroke="none" paint-order="stroke fill markers" d=" M 293.5630629076961 253.3285728067599 A 29.726666666666688 29.726666666666688 0 1 1 293.56304804436405 253.29884614504766"/><path fill="#1f77b4" stroke="none" paint-order="stroke fill markers" d=" M 251.9321578576863 186.60162912996088 A 18.95241469333334 18.95241469333334 0 1 1 251.93214838147975 186.58267671842628"/><path fill="#1f77b4" stroke="none" paint-order="stroke fill markers" d=" M 206.37751070514355 206.78233478621405 A 18.95241469333331 18.95241469333331 0 1 1 206.37750122893698 206.76338237467945"/><path fill="#1f77b4" stroke="none" paint-order="stroke fill markers" d=" M 169.7020663163874 226.11610540680454 A 18.95241469333331 18.95241469333331 0 1 1 169.70205684018083 226.09715299526994"/><path fill="#d62728" stroke="none" paint-order="stroke fill markers" d=" M 435.80776292149307 435.23824304433083 A 29.726666666666688 29.726666666666688 0 1 1 435.807748058161 435.2085163826186"/><path fill="#d62728" stroke="none" paint-order="stroke fill markers" d=" M 394.70051958516177 435.38842133806725 A 18.952414693333367 18.952414693333367 0 1 1 394.7005101089552 435.36946892653265"/><path fill="#d62728" stroke="none" paint-order="stroke fill markers" d=" M 361.36462792804116 462.9538011152406 A 18.952414693333367 18.952414693333367 0 1 1 361.3646184518346 462.934848703706"/><path fill="#1f77b4" stroke="none" paint-order="stroke fill markers" d=" M 383.98249908667674 391.2336744274148 A 29.72666666666663 29.72666666666663 0 1 1 383.98248422334467 391.2039477657026"/><path fill="#1f77b4" stroke="none" paint-order="stroke fill markers" d=" M 403.5229435806378 390.1261601080871 A 18.952414693333367 18.952414693333367 0 1 1 403.5229341044312 390.1072076965525"/><path fill="#1f77b4" stroke="none" paint-order="stroke fill markers" d=" M 406.0364398332557 346.9002892643434 A 18.952414693333367 18.952414693333367 0 1 1 406.03643035704914 346.88133685280883"/><path fill="#1f77b4" stroke="none" paint-order="stroke fill markers" d=" M 357.1302099755269 364.43784307680244 A 18.952414693333367 18.952414693333367 0 1 1 357.1302004993203 364.41889066526784"/><path fill="#1f77b4" stroke="none" paint-order="stroke fill markers" d=" M 320.8641971142199 389.77349385426123 A 18.952414693333367 18.952414693333367 0 1 1 320.86418763801333 389.75454144272663"/><path fill="#1f77b4" stroke="none" paint-order="stroke fill markers" d=" M 303.0674696571873 400.3876899377874 A 29.72666666666663 29.72666666666663 0 1 1 303.06745479385523 400.35796327607517"/><path fill="#d62728" stroke="none" paint-order="stroke fill markers" d=" M 349.45198643351904 441.9780549663046 A 29.72666666666663 29.72666666666663 0 1 1 349.45197157018697 441.9483283045924"/><path fill="#d62728" stroke="none" paint-order="stroke fill markers" d=" M 309.89691294177317 451.9580502294896 A 18.95241469333331 18.95241469333331 0 1 1 309.8969034655666 451.939097817955"/><path fill="#d62728" stroke="none" paint-order="stroke fill markers" d=" M 277.6067150631616 474.7475808372226 A 18.952414693333367 18.952414693333367 0 1 1 277.606705586955 474.728628425688"/><path fill="#d62728" stroke="none" paint-order="stroke fill markers" d=" M 227.9964132790809 456.7293415757049 A 18.95241469333334 18.95241469333334 0 1 1 227.99640380287434 456.7103891641703"/><path fill="#d62728" stroke="none" paint-order="stroke fill markers" d=" M 268.56873817541583 450.81916981119343 A 29.726666666666688 29.726666666666688 0 1 1 268.56872331208376 450.7894431494812"/><path fill="#1f77b4" stroke="none" paint-order="stroke fill markers" d=" M 234.6820530544735 404.4529747322638 A 18.95241469333334 18.95241469333334 0 1 1 234.68204357826693 404.4340223207292"/><path fill="#1f77b4" stroke="none" paint-order="stroke fill markers" d=" M 269.18402689850325 379.918361801213 A 18.95241469333331 18.95241469333331 0 1 1 269.1840174222967 379.8994093896784"/><path fill="#1f77b4" stroke="none" paint-order="stroke fill markers" d=" M 458.09982605891383 205.1708249672863 A 18.95241469333331 18.95241469333331 0 1 1 458.09981658270726 205.1518725557517"/><path fill="#1f77b4" stroke="none" paint-order="stroke fill markers" d=" M 466.97880067177107 248.4747172949344 A 18.95241469333331 18.95241469333331 0 1 1 466.9787911955645 248.4557648833998"/><path fill="#1f77b4" stroke="none" paint-order="stroke fill markers" d=" M 417.9131091496797 208.77681635585054 A 18.952414693333367 18.952414693333367 0 1 1 417.91309967347314 208.75786394431594"/><path fill="#1f77b4" stroke="none" paint-order="stroke fill markers" d=" M 366.0452389182291 205.78442145012764 A 18.952414693333367 18.952414693333367 0 1 1 366.0452294420225 205.76546903859304"/><path fill="#1f77b4" stroke="none" paint-order="stroke fill markers" d=" M 392.0473508479641 256.41713360011477 A 18.95241469333331 18.95241469333331 0 1 1 392.0473413717575 256.39818118858017"/><path fill="#1f77b4" stroke="none" paint-order="stroke fill markers" d=" M 428.95579343140673 240.37557671639752 A 29.726666666666688 29.726666666666688 0 1 1 428.95577856807466 240.3458500546853"/><path fill="#1f77b4" stroke="none" paint-order="stroke fill markers" d=" M 398.17762190704127 292.7832582266308 A 18.95241469333331 18.95241469333331 0 1 1 398.1776124308347 292.7643058150962"/><path fill="#1f77b4" stroke="none" paint-order="stroke fill markers" d=" M 397.8852492353691 322.2051533757249 A 29.72666666666663 29.72666666666663 0 1 1 397.885234372037 322.17542671401264"/><path fill="#1f77b4" stroke="none" paint-order="stroke fill markers" d=" M 454.08456729098435 313.35115124806157 A 29.72666666666663 29.72666666666663 0 1 1 454.0845524276523 313.32142458634934"/><path fill="#1f77b4" stroke="none" paint-order="stroke fill markers" d=" M 448.396063195428 282.1984628998889 A 18.952414693333367 18.952414693333367 0 1 1 448.3960537192214 282.1795104883543"/><path fill="#1f77b4" stroke="none" paint-order="stroke fill markers" d=" M 466.6650242330549 333.5158018066395 A 18.952414693333367 18.952414693333367 0 1 1 466.66501475684834 333.4968493951049"/><path fill="#1f77b4" stroke="none" paint-order="stroke fill markers" d=" M 438.82747159072443 369.1928140228597 A 18.95241469333331 18.95241469333331 0 1 1 438.82746211451786 369.1738616113251"/><path fill="#1f77b4" stroke="none" paint-order="stroke fill markers" d=" M 474.7911296436456 386.798372155974 A 29.726666666666688 29.726666666666688 0 1 1 474.79111478031353 386.76864549426176"/><path fill="#d62728" stroke="none" paint-order="stroke fill markers" d=" M 476.7604671274808 440.96590069079366 A 18.952414693333367 18.952414693333367 0 1 1 476.76045765127424 440.94694827925906"/><path fill="#d62728" stroke="none" paint-order="stroke fill markers" d=" M 491.3032875812813 493.85994442922583 A 29.72666666666663 29.72666666666663 0 1 1 491.30327271794926 493.8302177675136"/><path fill="#d62728" stroke="none" paint-order="stroke fill markers" d=" M 440.3248512915821 462.5292483983635 A 18.95241469333331 18.95241469333331 0 1 1 440.3248418153755 462.5102959868289"/><path fill="#1f77b4" stroke="none" paint-order="stroke fill markers" d=" M 289.7905720958137 177.4653440372765 A 18.952414693333367 18.952414693333367 0 1 1 289.7905626196071 177.4463916257419"/><path fill="#1f77b4" stroke="none" paint-order="stroke fill markers" d=" M 308.9314186124733 119.89990971030306 A 29.726666666666688 29.726666666666688 0 1 1 308.9314037491412 119.87018304859082"/><path fill="#1f77b4" stroke="none" paint-order="stroke fill markers" d=" M 321.65255452709266 139.88641402550866 A 18.952414693333367 18.952414693333367 0 1 1 321.6525450508861 139.86746161397406"/><path fill="#1f77b4" stroke="none" paint-order="stroke fill markers" d=" M 347.9147216462596 110.14066436099574 A 18.95241469333331 18.95241469333331 0 1 1 347.914712170053 110.12171194946113"/><path fill="#1f77b4" stroke="none" paint-order="stroke fill markers" d=" M 358.3537633100246 151.64130382787062 A 18.95241469333331 18.95241469333331 0 1 1 358.353753833818 151.62235141633602"/><path fill="#1f77b4" stroke="none" paint-order="stroke fill markers" d=" M 387.9770152045505 176.3998072537397 A 29.726666666666688 29.726666666666688 0 1 1 387.97700034121846 176.37008059202748"/><path fill="#1f77b4" stroke="none" paint-order="stroke fill markers" d=" M 398.5275000885473 124.82464977343943 A 18.952414693333367 18.952414693333367 0 1 1 398.5274906123407 124.80569736190482"/><path fill="#1f77b4" stroke="none" paint-order="stroke fill markers" d=" M 388.0643506124718 102.26189076058427 A 29.726666666666688 29.726666666666688 0 1 1 388.06433574913973 102.23216409887202"/><path fill="#d62728" stroke="none" paint-order="stroke fill markers" d=" M 372.24476830312994 50.47237908007696 A 18.952414693333367 18.952414693333367 0 1 1 372.2447588269234 50.453426668542356"/><path fill="#1f77b4" stroke="none" paint-order="stroke fill markers" d=" M 412.69339655195984 63.83652193915668 A 18.952414693333367 18.952414693333367 0 1 1 412.69338707575326 63.81756952762208"/><path fill="#1f77b4" stroke="none" paint-order="stroke fill markers" d=" M 428.5245661200372 100.62457747791154 A 18.95241469333331 18.95241469333331 0 1 1 428.52455664383064 100.60562506637693"/><path fill="#1f77b4" stroke="none" paint-order="stroke fill markers" d=" M 449.8668090511703 48.27294065876208 A 29.726666666666688 29.726666666666688 0 1 1 449.86679418783825 48.24321399704984"/><path fill="#1f77b4" stroke="none" paint-order="stroke fill markers" d=" M 480.1225702490341 90.31279799599838 A 18.95241469333331 18.95241469333331 0 1 1 480.1225607728275 90.29384558446377"/><path fill="#1f77b4" stroke="none" paint-order="stroke fill markers" d=" M 467.95525318649743 110.98574006564081 A 29.726666666666688 29.726666666666688 0 1 1 467.95523832316536 110.95601340392857"/><path fill="#1f77b4" stroke="none" paint-order="stroke fill markers" d=" M 425.2142683874948 162.48576753354132 A 18.95241469333331 18.95241469333331 0 1 1 425.21425891128825 162.46681512200672"/><path fill="#1f77b4" stroke="none" paint-order="stroke fill markers" d=" M 464.25948985327017 173.93863149819572 A 29.72666666666663 29.72666666666663 0 1 1 464.2594749899381 173.9089048364835"/><path fill="#1f77b4" stroke="none" paint-order="stroke fill markers" d=" M 269.38841157667775 0.1479288203518081 A 18.95241469333334 18.95241469333334 0 1 1 269.3884021004712 0.1289764088171994"/><path fill="#1f77b4" stroke="none" paint-order="stroke fill markers" d=" M 323.85033297012785 -18.89760545483432 A 29.72666666666663 29.72666666666663 0 1 1 323.8503181067958 -18.92733211654656"/><path fill="#d62728" stroke="none" paint-order="stroke fill markers" d=" M 324.2670928924474 28.16619258757646 A 18.952414693333367 18.952414693333367 0 1 1 324.26708341624084 28.14724017604185"/><path fill="#d62728" stroke="none" paint-order="stroke fill markers" d=" M 352.84905408917086 53.74759776593987 A 29.726666666666688 29.726666666666688 0 1 1 352.8490392258388 53.71787110422763"/><path fill="#1f77b4" stroke="none" paint-order="stroke fill markers" d=" M 303.0244797580972 88.70937481155124 A 18.95241469333331 18.95241469333331 0 1 1 303.0244702818906 88.69042240001663"/><path fill="#1f77b4" stroke="none" paint-order="stroke fill markers" d=" M 289.77236944232277 50.593427458044744 A 18.95241469333331 18.95241469333331 0 1 1 289.7723599661162 50.57447504651014"/><path fill="#1f77b4" stroke="none" paint-order="stroke fill markers" d=" M 276.37600468429616 31.500739668868846 A 29.72666666666666 29.72666666666666 0 1 1 276.3759898209641 31.471013007156607"/><path fill="#1f77b4" stroke="none" paint-order="stroke fill markers" d=" M 240.68512792859593 87.85946348611151 A 29.726666666666688 29.726666666666688 0 1 1 240.68511306526383 87.82973682439926"/><path fill="#1f77b4" stroke="none" paint-order="stroke fill markers" d=" M 260.2439356191078 87.99347688661123 A 18.95241469333331 18.95241469333331 0 1 1 260.2439261429012 87.97452447507662"/><path fill="#1f77b4" stroke="none" paint-order="stroke fill markers" d=" M 250.88008001620716 131.8797992382133 A 18.95241469333334 18.95241469333334 0 1 1 250.8800705400006 131.8608468266787"/><path fill="#1f77b4" stroke="none" paint-order="stroke fill markers" d=" M 247.01674505688135 159.55710465184484 A 29.726666666666688 29.726666666666688 0 1 1 247.01673019354925 159.5273779901326"/><path fill="#1f77b4" stroke="none" paint-order="stroke fill markers" d=" M 471.55271922859873 -2.8804576864999945 A 18.952414693333367 18.952414693333367 0 1 1 471.55270975239216 -2.899410098034603"/><path fill="#1f77b4" stroke="none" paint-order="stroke fill markers" d=" M 439.353955822098 16.674115893292083 A 18.95241469333331 18.95241469333331 0 1 1 439.3539463458914 16.655163481757473"/><path fill="#1f77b4" stroke="none" paint-order="stroke fill markers" d=" M 419.5241073981585 -12.823019857105464 A 18.95241469333331 18.95241469333331 0 1 1 419.5240979219519 -12.841972268640072"/><path fill="#1f77b4" stroke="none" paint-order="stroke fill markers" d=" M 396.2534444812705 21.228831039365787 A 18.952414693333367 18.952414693333367 0 1 1 396.2534350050639 21.209878627831177"/><path fill="#1f77b4" stroke="none" paint-order="stroke fill markers" d=" M 384.3155903610766 0.2827195620143357 A 29.726666666666688 29.726666666666688 0 1 1 384.31557549774453 0.252992900302096"/><path fill="#1f77b4" stroke="none" paint-order="stroke fill markers" d=" M 62.731944187178954 -6.56777181102143 A 18.95241469333331 18.95241469333331 0 1 1 62.731934710972396 -6.586724222556039"/><path fill="#1f77b4" stroke="none" paint-order="stroke fill markers" d=" M 43.63429351375635 -12.05860599051357 A 29.726666666666688 29.726666666666688 0 1 1 43.63427865042425 -12.088332652225809"/><path fill="#1f77b4" stroke="none" paint-order="stroke fill markers" d=" M 13.359498540996753 12.146083001729949 A 18.95241469333331 18.95241469333331 0 1 1 13.359489064790196 12.12713059019534"/><path fill="#1f77b4" stroke="none" paint-order="stroke fill markers" d=" M 186.52695401319232 171.03545767553555 A 18.95241469333331 18.95241469333331 0 1 1 186.52694453698575 171.01650526400095"/><path fill="#1f77b4" stroke="none" paint-order="stroke fill markers" d=" M 214.63294016554173 115.1586135823552 A 18.95241469333328 18.95241469333328 0 1 1 214.63293068933518 115.13966117082059"/><path fill="#1f77b4" stroke="none" paint-order="stroke fill markers" d=" M 185.71186603081048 141.8327925052697 A 29.72666666666663 29.72666666666663 0 1 1 185.7118511674784 141.80306584355748"/><path fill="#1f77b4" stroke="none" paint-order="stroke fill markers" d=" M 179.6671705938815 89.52712814365054 A 18.95241469333331 18.95241469333331 0 1 1 179.66716111767494 89.50817573211593"/><path fill="#1f77b4" stroke="none" paint-order="stroke fill markers" d=" M 216.57542069565937 35.7764082981555 A 18.95241469333331 18.95241469333331 0 1 1 216.5754112194528 35.757455886620896"/><path fill="#1f77b4" stroke="none" paint-order="stroke fill markers" d=" M 197.04134047050968 34.49367298151196 A 29.726666666666688 29.726666666666688 0 1 1 197.04132560717758 34.463946319799724"/><path fill="#1f77b4" stroke="none" paint-order="stroke fill markers" d=" M 140.2010861279503 53.39806292793469 A 18.95241469333331 18.95241469333331 0 1 1 140.20107665174373 53.37911051640008"/><path fill="#1f77b4" stroke="none" paint-order="stroke fill markers" d=" M 160.696879811543 83.33121914569983 A 29.726666666666688 29.726666666666688 0 1 1 160.6968649482109 83.30149248398759"/><path fill="#1f77b4" stroke="none" paint-order="stroke fill markers" d=" M 103.39631334009368 48.52448495546082 A 18.95241469333331 18.95241469333331 0 1 1 103.39630386388713 48.505532543926215"/><path fill="#1f77b4" stroke="none" paint-order="stroke fill markers" d=" M 114.17353649171457 16.924486790640003 A 29.726666666666688 29.726666666666688 0 1 1 114.17352162838247 16.894760128927764"/><path fill="#1f77b4" stroke="none" paint-order="stroke fill markers" d=" M 129.67020582998458 1.1271696113203689 A 18.95241469333331 18.95241469333331 0 1 1 129.670196353778 1.1082171997857602"/><path fill="#1f77b4" stroke="none" paint-order="stroke fill markers" d=" M 172.17927517799677 6.508458759394671 A 18.95241469333331 18.95241469333331 0 1 1 172.1792657017902 6.489506347860062"/><path fill="#1f77b4" stroke="none" paint-order="stroke fill markers" d=" M 230.14597556994534 -14.319041937832935 A 29.726666666666688 29.726666666666688 0 1 1 230.14596070661324 -14.348768599545174"/><path fill="#1f77b4" stroke="none" paint-order="stroke fill markers" d=" M 27.83745836089878 178.78393052921479 A 29.72666666666663 29.72666666666663 0 1 1 27.837443497566685 178.75420386750255"/><path fill="#1f77b4" stroke="none" paint-order="stroke fill markers" d=" M 24.603081533787133 127.08926939513435 A 18.95241469333331 18.95241469333331 0 1 1 24.603072057580576 127.07031698359974"/><path fill="#1f77b4" stroke="none" paint-order="stroke fill markers" d=" M 8.579795685129511 112.28299305493715 A 29.726666666666688 29.726666666666688 0 1 1 8.579780821797417 112.2532663932249"/><path fill="#1f77b4" stroke="none" paint-order="stroke fill markers" d=" M 12.526058579739242 58.93988071086869 A 18.95241469333331 18.95241469333331 0 1 1 12.526049103532685 58.920928299334086"/><path fill="#1f77b4" stroke="none" paint-order="stroke fill markers" d=" M 53.6313748179129 59.32638420845069 A 29.726666666666688 29.726666666666688 0 1 1 53.6313599545808 59.29665754673845"/><path fill="#1f77b4" stroke="none" paint-order="stroke fill markers" d=" M 58.34395954441413 32.15528049083673 A 18.95241469333331 18.95241469333331 0 1 1 58.343950068207576 32.136328079302125"/><path fill="#1f77b4" stroke="none" paint-order="stroke fill markers" d=" M 100.46687876993724 100.48666342830847 A 29.72666666666663 29.72666666666663 0 1 1 100.46686390660514 100.45693676659623"/><path fill="#1f77b4" stroke="none" paint-order="stroke fill markers" d=" M 59.87453963207389 106.28625756220231 A 18.95241469333331 18.95241469333331 0 1 1 59.87453015586733 106.2673051506677"/><path fill="#1f77b4" stroke="none" paint-order="stroke fill markers" d=" M 59.232393863066136 150.64453815251068 A 18.95241469333331 18.95241469333331 0 1 1 59.23238438685958 150.62558574097608"/><path fill="#1f77b4" stroke="none" paint-order="stroke fill markers" d=" M 91.22087500927893 173.23094135744395 A 29.726666666666688 29.726666666666688 0 1 1 91.22086014594683 173.20121469573172"/><path fill="#1f77b4" stroke="none" paint-order="stroke fill markers" d=" M 109.83007025197213 165.38489646660764 A 18.95241469333331 18.95241469333331 0 1 1 109.83006077576557 165.36594405507304"/><path fill="#1f77b4" stroke="none" paint-order="stroke fill markers" d=" M 109.42293878871232 124.48841934152051 A 18.95241469333331 18.95241469333331 0 1 1 109.42292931250576 124.4694669299859"/><path fill="#1f77b4" stroke="none" paint-order="stroke fill markers" d=" M 144.86643852153753 137.68723687974148 A 18.95241469333331 18.95241469333331 0 1 1 144.86642904533096 137.66828446820688"/></g></g></g><g/><g/><g/><g clip-path="url(#fHpFTnUlatxu)"><g/></g></g></g></svg>