<svg version="1.1" xmlns="http://www.w3.org/2000/svg" xmlns:xlink="http://www.w3.org/1999/xlink" width="920" height="800" style="width: 920px; height: 800px;"><defs><clipPath id="PTmitTgBHkvQ"><path fill="none" stroke="none" d=" M 5 5 L 915 5 L 915 795 L 5 795 L 5 5 Z"/></clipPath><clipPath id="SPUNhPFTgMIH"><path fill="none" stroke="none" d=" M 5 5 L 915 5 L 915 795 L 5 795 L 5 5 Z"/></clipPath><clipPath id="OcMuBaTsKBJG"><path fill="none" stroke="none" d=" M 5 5 L 915 5 L 915 795 L 5 795 L 5 5 Z"/></clipPath><clipPath id="EeDVTlxPRMNy"><path fill="none" stroke="none" d=" M 5 5 L 915 5 L 915 795 L 5 795 L 5 5 Z"/></clipPath></defs><g><g transform="scale(1,1) translate(0.5,0.5)"><rect fill="#FFFFFF" stroke="none" x="0" y="0" width="920" height="800"/><rect fill="#ffffff" stroke="none" x="0" y="0" width="920" height="800"/><rect fill="#FFFFFF" stroke="none" x="5" y="5" width="910" height="790"/><rect fill="#ffffff" stroke="none" x="5" y="5" width="910" height="790"/><g><rect fill="none" stroke="#e5e5e5" x="5" y="5" width="910" height="790" stroke-linejoin="bevel" stroke-miterlimit="10"/></g><g clip-path="url(#PTmitTgBHkvQ)"><g/></g><g clip-path="url(#SPUNhPFTgMIH)"><g/></g><g clip-path="url(#OcMuBaTsKBJG)"><g><g><path fill="none" stroke="none"/><path fill="#1f77b4" stroke="none" paint-order="stroke fill markers" d=" M 929.3391157424005 137.9194816549675 A 18.952414693333253 18.952414693333253 0 1 1 929.339106266194 137.9005292434329"/><path fill="#1f77b4" stroke="none" paint-order="stroke fill markers" d=" M 781.3041740951603 185.55903468850988 A 29.726666666666688 29.726666666666688 0 1 1 781.3041592318282 185.52930802679765"/><path fill="#1f77b4" stroke="none" paint-order="stroke fill markers" d=" M 797.8883324605988 171.91126244321345 A 18.952414693333367 18.952414693333367 0 1 1 797.8883229843923 171.89231003167885"/><path fill="#1f77b4" stroke="none" paint-order="stroke fill markers" d=" M 816.2652396902822 123.50217034197908 A 29.726666666666688 29.726666666666688 0 1 1 816.2652248269501 123.47244368026684"/><path fill="#1f77b4" stroke="none" paint-order="stroke fill markers" d=" M 828.220705803278 144.4275417671754 A 18.952414693333367 18.952414693333367 0 1 1 828.2206963270714 144.4085893556408"/><path fill="#1f77b4" stroke="none" paint-order="stroke fill markers" d=" M 835.6758916406419 187.1116804346177 A 18.952414693333253 18.952414693333253 0 1 1 835.6758821644354 187.0927280230831"/><path fill="#1f77b4" stroke="none" paint-order="stroke fill markers" d=" M 866.2732605699124 160.66288790997555 A 18.952414693333253 18.952414693333253 0 1 1 866.2732510937059 160.64393549844095"/><path fill="#1f77b4" stroke="none" paint-order="stroke fill markers" d=" M 897.0894909206548 181.12790563934163 A 18.952414693333253 18.952414693333253 0 1 1 897.0894814444483 181.10895322780704"/><path fill="#1f77b4" stroke="none" paint-order="stroke fill markers" d=" M 935.9617728665351 169.22211343811205 A 29.726666666666688 29.726666666666688 0 1 1 935.9617580032029 169.19238677639981"/><path fill="#1f77b4" stroke="none" paint-order="stroke fill markers" d=" M 884.6799757256808 130.07958116882128 A 29.726666666666688 29.726666666666688 0 1 1 884.6799608623487 130.04985450710905"/><path fill="#1f77b4" stroke="none" paint-order="stroke fill markers" d=" M 918.1527607325725 43.79662993569036 A 18.952414693333367 18.952414693333367 0 1 1 918.152751256366 43.777677524155756"/><path fill="#1f77b4" stroke="none" paint-order="stroke fill markers" d=" M 917.9882617575803 73.2703747468895 A 29.726666666666688 29.726666666666688 0 1 1 917.9882468942482 73.24064808517726"/><path fill="#1f77b4" stroke="none" paint-order="stroke fill markers" d=" M 926.2464931554657 97.8760693530644 A 18.952414693333367 18.952414693333367 0 1 1 926.2464836792592 97.85711694152978"/><path fill="#1f77b4" stroke="none" paint-order="stroke fill markers" d=" M 958.4861582985764 73.32751470171365 A 18.952414693333367 18.952414693333367 0 1 1 958.4861488223698 73.30856229017904"/><path fill="#1f77b4" stroke="none" paint-order="stroke fill markers" d=" M 960.7055010598835 114.75280638874301 A 18.952414693333367 18.952414693333367 0 1 1 960.705491583677 114.7338539772084"/><path fill="#1f77b4" stroke="none" paint-order="stroke fill markers" d=" M 778.4335312466907 -20.076600805612543 A 18.952414693333253 18.952414693333253 0 1 1 778.4335217704842 -20.095553217147152"/><path fill="#1f77b4" stroke="none" paint-order="stroke fill markers" d=" M 760.2250363809566 16.059154339188808 A 29.726666666666688 29.726666666666688 0 1 1 760.2250215176244 16.02942767747657"/><path fill="#1f77b4" stroke="none" paint-order="stroke fill markers" d=" M 778.1672840339345 26.238246192856877 A 18.952414693333253 18.952414693333253 0 1 1 778.167274557728 26.219293781322268"/><path fill="#1f77b4" stroke="none" paint-order="stroke fill markers" d=" M 817.3803887318953 30.737655694807245 A 18.952414693333253 18.952414693333253 0 1 1 817.3803792556888 30.718703283272635"/><path fill="#1f77b4" stroke="none" paint-order="stroke fill markers" d=" M 819.5347839394817 -20.722258399233397 A 29.726666666666574 29.726666666666574 0 1 1 819.5347690761496 -20.751985060945636"/><path fill="#1f77b4" stroke="none" paint-order="stroke fill markers" d=" M 854.2448012348248 -1.11178122389083 A 18.952414693333367 18.952414693333367 0 1 1 854.2447917586182 -1.1307336354254387"/><path fill="#1f77b4" stroke="none" paint-order="stroke fill markers" d=" M 856.7687086560086 66.95870163973314 A 18.952414693333367 18.952414693333367 0 1 1 856.7686991798021 66.93974922819852"/><path fill="#1f77b4" stroke="none" paint-order="stroke fill markers" d=" M 852.2977065121956 107.90200418780455 A 18.952414693333367 18.952414693333367 0 1 1 852.2976970359891 107.88305177626994"/><path fill="#1f77b4" stroke="none" paint-order="stroke fill markers" d=" M 837.8118120794309 60.69341622502975 A 29.726666666666688 29.726666666666688 0 1 1 837.8117972160987 60.66368956331751"/><path fill="#1f77b4" stroke="none" paint-order="stroke fill markers" d=" M 769.6800359126631 64.91070849970879 A 18.952414693333253 18.952414693333253 0 1 1 769.6800264364566 64.89175608817418"/><path fill="#1f77b4" stroke="none" paint-order="stroke fill markers" d=" M 760.3283860899777 88.55332495831635 A 29.726666666666688 29.726666666666688 0 1 1 760.3283712266456 88.5235982966041"/><path fill="#1f77b4" stroke="none" paint-order="stroke fill markers" d=" M 776.7306307065628 133.54598826926326 A 18.952414693333367 18.952414693333367 0 1 1 776.7306212303563 133.52703585772866"/><path fill="#1f77b4" stroke="none" paint-order="stroke fill markers" d=" M 738.8151495537666 148.71985622780198 A 18.952414693333367 18.952414693333367 0 1 1 738.81514007756 148.70090381626738"/><path fill="#1f77b4" stroke="none" paint-order="stroke fill markers" d=" M 940.4205654796193 -6.148364532682081 A 18.952414693333253 18.952414693333253 0 1 1 940.4205560034128 -6.167316944216689"/><path fill="#1f77b4" stroke="none" paint-order="stroke fill markers" d=" M 906.1908562551434 7.087119511843866 A 18.952414693333253 18.952414693333253 0 1 1 906.1908467789369 7.068167100309258"/><path fill="#1f77b4" stroke="none" paint-order="stroke fill markers" d=" M 888.7201343702498 18.609390715952713 A 29.726666666666688 29.726666666666688 0 1 1 888.7201195069176 18.579664054240475"/><path fill="#1f77b4" stroke="none" paint-order="stroke fill markers" d=" M 540.8450091501654 27.722677544122234 A 18.952414693333253 18.952414693333253 0 1 1 540.8449996739589 27.703725132587625"/><path fill="#1f77b4" stroke="none" paint-order="stroke fill markers" d=" M 502.49108364367737 8.032181449841573 A 18.952414693333367 18.952414693333367 0 1 1 502.4910741674708 8.013229038306964"/><path fill="#1f77b4" stroke="none" paint-order="stroke fill markers" d=" M 647.32729605546 22.151005314698068 A 18.952414693333367 18.952414693333367 0 1 1 647.3272865792535 22.13205290316346"/><path fill="#1f77b4" stroke="none" paint-order="stroke fill markers" d=" M 688.1719616550267 26.30254637398025 A 29.726666666666688 29.726666666666688 0 1 1 688.1719467916946 26.27281971226801"/><path fill="#1f77b4" stroke="none" paint-order="stroke fill markers" d=" M 709.9988589735896 -15.380524872678507 A 18.952414693333367 18.952414693333367 0 1 1 709.998849497383 -15.399477284213116"/><path fill="#1f77b4" stroke="none" paint-order="stroke fill markers" d=" M 600.2538294331439 -3.352099498849384 A 29.726666666666688 29.726666666666688 0 1 1 600.2538145698118 -3.3818261605616238"/><path fill="#1f77b4" stroke="none" paint-order="stroke fill markers" d=" M 533.5850661042193 -14.169752201877145 A 18.952414693333253 18.952414693333253 0 1 1 533.5850566280128 -14.188704613411753"/><path fill="#1f77b4" stroke="none" paint-order="stroke fill markers" d=" M 590.680215364337 142.76788731742977 A 29.726666666666688 29.726666666666688 0 1 1 590.6802005010048 142.73816065571754"/><path fill="#1f77b4" stroke="none" paint-order="stroke fill markers" d=" M 567.7481829800968 113.8171398289387 A 18.952414693333367 18.952414693333367 0 1 1 567.7481735038903 113.7981874174041"/><path fill="#1f77b4" stroke="none" paint-order="stroke fill markers" d=" M 610.051938183982 146.2746438741392 A 18.952414693333367 18.952414693333367 0 1 1 610.0519287077755 146.2556914626046"/><path fill="#1f77b4" stroke="none" paint-order="stroke fill markers" d=" M 668.6992964551316 115.50089195726855 A 29.726666666666688 29.726666666666688 0 1 1 668.6992815917995 115.4711652955563"/><path fill="#1f77b4" stroke="none" paint-order="stroke fill markers" d=" M 645.5133065518556 170.3126840288112 A 18.952414693333367 18.952414693333367 0 1 1 645.5132970756491 170.2937316172766"/><path fill="#1f77b4" stroke="none" paint-order="stroke fill markers" d=" M 686.4665976333278 153.374349720724 A 18.952414693333253 18.952414693333253 0 1 1 686.4665881571212 153.3553973091894"/><path fill="#1f77b4" stroke="none" paint-order="stroke fill markers" d=" M 722.1253478690771 135.3043383629972 A 29.726666666666688 29.726666666666688 0 1 1 722.125333005745 135.27461170128498"/><path fill="#1f77b4" stroke="none" paint-order="stroke fill markers" d=" M 679.5068562562053 93.29563754173205 A 18.952414693333367 18.952414693333367 0 1 1 679.5068467799988 93.27668513019744"/><path fill="#1f77b4" stroke="none" paint-order="stroke fill markers" d=" M 719.8368086774625 82.21726384422072 A 18.952414693333253 18.952414693333253 0 1 1 719.836799201256 82.19831143268611"/><path fill="#1f77b4" stroke="none" paint-order="stroke fill markers" d=" M 726.6305406897117 36.87732175799351 A 18.952414693333253 18.952414693333253 0 1 1 726.6305312135052 36.85836934645891"/><path fill="#1f77b4" stroke="none" paint-order="stroke fill markers" d=" M 688.9816927457701 55.507517036907075 A 18.952414693333367 18.952414693333367 0 1 1 688.9816832695636 55.48856462537247"/><path fill="#1f77b4" stroke="none" paint-order="stroke fill markers" d=" M 643.3752550655773 67.26477719288073 A 18.952414693333367 18.952414693333367 0 1 1 643.3752455893708 67.24582478134612"/><path fill="#1f77b4" stroke="none" paint-order="stroke fill markers" d=" M 628.6746595575114 107.13264377980795 A 18.952414693333367 18.952414693333367 0 1 1 628.6746500813049 107.11369136827334"/><path fill="#1f77b4" stroke="none" paint-order="stroke fill markers" d=" M 624.3955604288931 61.118066508557604 A 29.726666666666688 29.726666666666688 0 1 1 624.395545565561 61.088339846845365"/><path fill="#1f77b4" stroke="none" paint-order="stroke fill markers" d=" M 619.7849727682348 -4.7080546308047815 A 18.952414693333367 18.952414693333367 0 1 1 619.7849632920282 -4.72700704233939"/><path fill="#1f77b4" stroke="none" paint-order="stroke fill markers" d=" M 657.4602591691296 -15.55674114861904 A 18.952414693333367 18.952414693333367 0 1 1 657.4602496929231 -15.575693560153649"/><path fill="#1f77b4" stroke="none" paint-order="stroke fill markers" d=" M 544.7676752617867 260.918526867687 A 18.952414693333367 18.952414693333367 0 1 1 544.7676657855802 260.8995744561524"/><path fill="#1f77b4" stroke="none" paint-order="stroke fill markers" d=" M 612.3489909890561 252.81351623500495 A 29.726666666666688 29.726666666666688 0 1 1 612.348976125724 252.78378957329272"/><path fill="#1f77b4" stroke="none" paint-order="stroke fill markers" d=" M 576.0725787548084 235.70358030547004 A 18.952414693333367 18.952414693333367 0 1 1 576.0725692786019 235.68462789393544"/><path fill="#1f77b4" stroke="none" paint-order="stroke fill markers" d=" M 598.591704332511 194.93648381051912 A 18.952414693333367 18.952414693333367 0 1 1 598.5916948563045 194.91753139898452"/><path fill="#1f77b4" stroke="none" paint-order="stroke fill markers" d=" M 552.1071098708264 196.3553382154928 A 29.726666666666688 29.726666666666688 0 1 1 552.1070950074943 196.32561155378056"/><path fill="#1f77b4" stroke="none" paint-order="stroke fill markers" d=" M 528.7386357790577 225.10289574687954 A 18.952414693333367 18.952414693333367 0 1 1 528.7386263028512 225.08394333534494"/><path fill="#1f77b4" stroke="none" paint-order="stroke fill markers" d=" M 506.1442193874573 267.6654201697893 A 29.72666666666663 29.72666666666663 0 1 1 506.14420452412526 267.63569350807705"/><path fill="#1f77b4" stroke="none" paint-order="stroke fill markers" d=" M 489.1555788078532 236.7356829176208 A 18.952414693333367 18.952414693333367 0 1 1 489.15556933164663 236.7167305060862"/><path fill="#1f77b4" stroke="none" paint-order="stroke fill markers" d=" M 523.7317991400214 170.61919065920915 A 18.95241469333331 18.95241469333331 0 1 1 523.7317896638149 170.60023824767455"/><path fill="#1f77b4" stroke="none" paint-order="stroke fill markers" d=" M 533.2350453581062 132.27939738993996 A 18.952414693333367 18.952414693333367 0 1 1 533.2350358818996 132.26044497840536"/><path fill="#1f77b4" stroke="none" paint-order="stroke fill markers" d=" M 515.6613426490927 121.0349439453098 A 29.72666666666663 29.72666666666663 0 1 1 515.6613277857606 121.00521728359756"/><path fill="#1f77b4" stroke="none" paint-order="stroke fill markers" d=" M 500.06075492342325 89.8375019264688 A 18.95241469333331 18.95241469333331 0 1 1 500.0607454472167 89.81854951493419"/><path fill="#1f77b4" stroke="none" paint-order="stroke fill markers" d=" M 503.4949044749093 37.94805708261674 A 29.72666666666663 29.72666666666663 0 1 1 503.4948896115772 37.9183304209045"/><path fill="#1f77b4" stroke="none" paint-order="stroke fill markers" d=" M 537.4091745378929 82.33831667355571 A 18.952414693333367 18.952414693333367 0 1 1 537.4091650616864 82.3193642620211"/><path fill="#1f77b4" stroke="none" paint-order="stroke fill markers" d=" M 565.0355438620859 56.06375401230207 A 29.726666666666688 29.726666666666688 0 1 1 565.0355289987538 56.03402735058983"/><path fill="#1f77b4" stroke="none" paint-order="stroke fill markers" d=" M 593.6345066811468 84.8883995846943 A 18.952414693333367 18.952414693333367 0 1 1 593.6344972049403 84.86944717315968"/><path fill="#1f77b4" stroke="none" paint-order="stroke fill markers" d=" M 546.6155203396045 353.79595058862856 A 18.952414693333367 18.952414693333367 0 1 1 546.615510863398 353.77699817709396"/><path fill="#1f77b4" stroke="none" paint-order="stroke fill markers" d=" M 579.2190978965704 410.1944191243783 A 18.952414693333367 18.952414693333367 0 1 1 579.2190884203638 410.17546671284373"/><path fill="#1f77b4" stroke="none" paint-order="stroke fill markers" d=" M 593.1194187889297 461.4562948114203 A 29.726666666666688 29.726666666666688 0 1 1 593.1194039255976 461.4265681497081"/><path fill="#1f77b4" stroke="none" paint-order="stroke fill markers" d=" M 566.0958038221532 488.1397316433047 A 18.952414693333367 18.952414693333367 0 1 1 566.0957943459467 488.1207792317701"/><path fill="#1f77b4" stroke="none" paint-order="stroke fill markers" d=" M 542.6727357113699 434.46570359121074 A 18.952414693333367 18.952414693333367 0 1 1 542.6727262351634 434.44675117967614"/><path fill="#2ca02c" stroke="none" paint-order="stroke fill markers" d=" M 532.4780064138605 471.296243752269 A 18.952414693333367 18.952414693333367 0 1 1 532.477996937654 471.2772913407344"/><path fill="#2ca02c" stroke="none" paint-order="stroke fill markers" d=" M 513.1204533823469 467.65970645468997 A 29.726666666666688 29.726666666666688 0 1 1 513.1204385190148 467.62997979297774"/><path fill="#2ca02c" stroke="none" paint-order="stroke fill markers" d=" M 484.2572062266847 493.02602611140014 A 18.952414693333367 18.952414693333367 0 1 1 484.2571967504781 493.00707369986554"/><path fill="#1f77b4" stroke="none" paint-order="stroke fill markers" d=" M 498.4935843509148 404.84355419065605 A 18.95241469333331 18.95241469333331 0 1 1 498.4935748747082 404.82460177912145"/><path fill="#1f77b4" stroke="none" paint-order="stroke fill markers" d=" M 539.5658216524027 406.36864443981267 A 29.726666666666688 29.726666666666688 0 1 1 539.5658067890706 406.33891777810044"/><path fill="#1f77b4" stroke="none" paint-order="stroke fill markers" d=" M 501.64452270588686 354.6487020705647 A 29.72666666666663 29.72666666666663 0 1 1 501.6445078425548 354.61897540885246"/><path fill="#1f77b4" stroke="none" paint-order="stroke fill markers" d=" M 492.4528867604401 323.0917418466586 A 18.95241469333331 18.95241469333331 0 1 1 492.4528772842335 323.072789435124"/><path fill="#1f77b4" stroke="none" paint-order="stroke fill markers" d=" M 529.5062536822137 313.29133273753223 A 18.952414693333367 18.952414693333367 0 1 1 529.5062442060072 313.27238032599763"/><path fill="#1f77b4" stroke="none" paint-order="stroke fill markers" d=" M 592.2376053266532 326.65103314419366 A 18.952414693333253 18.952414693333253 0 1 1 592.2375958504467 326.63208073265906"/><path fill="#1f77b4" stroke="none" paint-order="stroke fill markers" d=" M 600.1021360777642 284.3762552051305 A 18.952414693333253 18.952414693333253 0 1 1 600.1021266015576 284.3573027935959"/><path fill="#1f77b4" stroke="none" paint-order="stroke fill markers" d=" M 562.4239187614783 291.69449220142087 A 29.726666666666574 29.726666666666574 0 1 1 562.4239038981461 291.66476553970864"/><path fill="#1f77b4" stroke="none" paint-order="stroke fill markers" d=" M 698.7267763910572 318.21683983277444 A 29.726666666666688 29.726666666666688 0 1 1 698.7267615277251 318.1871131710622"/><path fill="#1f77b4" stroke="none" paint-order="stroke fill markers" d=" M 704.1275686768943 291.4844439084361 A 18.952414693333367 18.952414693333367 0 1 1 704.1275592006878 291.4654914969015"/><path fill="#1f77b4" stroke="none" paint-order="stroke fill markers" d=" M 732.0467394939953 370.70393679956715 A 18.952414693333367 18.952414693333367 0 1 1 732.0467300177888 370.68498438803255"/><path fill="#1f77b4" stroke="none" paint-order="stroke fill markers" d=" M 705.2673264829571 400.6203921856227 A 29.726666666666574 29.726666666666574 0 1 1 705.2673116196249 400.59066552391045"/><path fill="#1f77b4" stroke="none" paint-order="stroke fill markers" d=" M 713.8316928361202 424.96566049559397 A 18.952414693333253 18.952414693333253 0 1 1 713.8316833599137 424.94670808405937"/><path fill="#1f77b4" stroke="none" paint-order="stroke fill markers" d=" M 731.1863139256579 482.89582030522024 A 18.952414693333367 18.952414693333367 0 1 1 731.1863044494514 482.87686789368564"/><path fill="#2ca02c" stroke="none" paint-order="stroke fill markers" d=" M 698.1868375277819 460.68740719607695 A 18.952414693333367 18.952414693333367 0 1 1 698.1868280515754 460.66845478454235"/><path fill="#2ca02c" stroke="none" paint-order="stroke fill markers" d=" M 678.7343496783398 458.0405663161905 A 29.726666666666688 29.726666666666688 0 1 1 678.7343348150076 458.0108396544783"/><path fill="#2ca02c" stroke="none" paint-order="stroke fill markers" d=" M 650.6463792894114 483.9873814071657 A 18.952414693333253 18.952414693333253 0 1 1 650.6463698132048 483.9684289956311"/><path fill="#1f77b4" stroke="none" paint-order="stroke fill markers" d=" M 612.6520906362354 462.77457596226714 A 18.952414693333367 18.952414693333367 0 1 1 612.6520811600288 462.75562355073254"/><path fill="#1f77b4" stroke="none" paint-order="stroke fill markers" d=" M 628.8148164104828 428.2561638721197 A 18.952414693333367 18.952414693333367 0 1 1 628.8148069342762 428.2372114605851"/><path fill="#1f77b4" stroke="none" paint-order="stroke fill markers" d=" M 619.7961868068576 404.3103850210796 A 29.726666666666688 29.726666666666688 0 1 1 619.7961719435255 404.28065835936735"/><path fill="#1f77b4" stroke="none" paint-order="stroke fill markers" d=" M 664.5852688065521 405.8948494183926 A 18.952414693333367 18.952414693333367 0 1 1 664.5852593303456 405.875897006858"/><path fill="#1f77b4" stroke="none" paint-order="stroke fill markers" d=" M 661.335027604887 364.2980480432243 A 18.952414693333367 18.952414693333367 0 1 1 661.3350181286805 364.2790956316897"/><path fill="#1f77b4" stroke="none" paint-order="stroke fill markers" d=" M 645.0845122162937 349.9469797068382 A 29.726666666666688 29.726666666666688 0 1 1 645.0844973529615 349.91725304512596"/><path fill="#1f77b4" stroke="none" paint-order="stroke fill markers" d=" M 587.7227737970335 353.94340780770494 A 29.726666666666688 29.726666666666688 0 1 1 587.7227589337014 353.9136811459927"/><path fill="#1f77b4" stroke="none" paint-order="stroke fill markers" d=" M 792.9362005173746 320.4227010523721 A 18.952414693333367 18.952414693333367 0 1 1 792.9361910411681 320.4037486408375"/><path fill="#1f77b4" stroke="none" paint-order="stroke fill markers" d=" M 759.9499475477148 344.62437710533436 A 29.726666666666688 29.726666666666688 0 1 1 759.9499326843827 344.59465044362213"/><path fill="#1f77b4" stroke="none" paint-order="stroke fill markers" d=" M 736.0599408094135 316.1310397327936 A 18.952414693333253 18.952414693333253 0 1 1 736.059931333207 316.112087321259"/><path fill="#1f77b4" stroke="none" paint-order="stroke fill markers" d=" M 771.9568394241533 273.1372074129167 A 29.726666666666688 29.726666666666688 0 1 1 771.9568245608211 273.1074807512045"/><path fill="#1f77b4" stroke="none" paint-order="stroke fill markers" d=" M 784.1004757014034 252.43577587432446 A 18.952414693333367 18.952414693333367 0 1 1 784.1004662251969 252.41682346278986"/><path fill="#1f77b4" stroke="none" paint-order="stroke fill markers" d=" M 768.196265078934 217.06538096886197 A 18.952414693333367 18.952414693333367 0 1 1 768.1962556027274 217.04642855732737"/><path fill="#1f77b4" stroke="none" paint-order="stroke fill markers" d=" M 722.5008625155203 196.48178906219277 A 29.726666666666688 29.726666666666688 0 1 1 722.5008476521882 196.45206240048054"/><path fill="#1f77b4" stroke="none" paint-order="stroke fill markers" d=" M 728.7541835675975 222.63330013509153 A 18.952414693333367 18.952414693333367 0 1 1 728.754174091391 222.61434772355693"/><path fill="#1f77b4" stroke="none" paint-order="stroke fill markers" d=" M 732.5143092541928 262.81165416393037 A 18.952414693333367 18.952414693333367 0 1 1 732.5142997779863 262.79270175239577"/><path fill="#1f77b4" stroke="none" paint-order="stroke fill markers" d=" M 692.9714686226114 253.0902891384967 A 18.952414693333367 18.952414693333367 0 1 1 692.9714591464049 253.0713367269621"/><path fill="#1f77b4" stroke="none" paint-order="stroke fill markers" d=" M 681.4727777518929 198.7681261347468 A 18.952414693333367 18.952414693333367 0 1 1 681.4727682756863 198.7491737232122"/><path fill="#1f77b4" stroke="none" paint-order="stroke fill markers" d=" M 639.6501052022309 196.7353032910405 A 29.726666666666574 29.726666666666574 0 1 1 639.6500903388987 196.70557662932828"/><path fill="#1f77b4" stroke="none" paint-order="stroke fill markers" d=" M 673.4392649687829 251.76033551204887 A 29.726666666666574 29.726666666666574 0 1 1 673.4392501054508 251.73060885033664"/><path fill="#1f77b4" stroke="none" paint-order="stroke fill markers" d=" M 646.4061815445806 278.43751469271615 A 18.952414693333367 18.952414693333367 0 1 1 646.4061720683741 278.41856228118155"/><path fill="#1f77b4" stroke="none" paint-order="stroke fill markers" d=" M 632.7280823880059 318.38999574847253 A 18.952414693333367 18.952414693333367 0 1 1 632.7280729117994 318.37104333693793"/><path fill="#1f77b4" stroke="none" paint-order="stroke fill markers" d=" M 702.0879462925413 346.1759867666019 A 18.952414693333367 18.952414693333367 0 1 1 702.0879368163348 346.1570343550673"/><path fill="#1f77b4" stroke="none" paint-order="stroke fill markers" d=" M 928.6069125370923 339.7816771721566 A 18.952414693333253 18.952414693333253 0 1 1 928.6069030608858 339.762724760622"/><path fill="#1f77b4" stroke="none" paint-order="stroke fill markers" d=" M 938.677523409071 259.71743896329986 A 18.952414693333367 18.952414693333367 0 1 1 938.6775139328645 259.69848655176526"/><path fill="#1f77b4" stroke="none" paint-order="stroke fill markers" d=" M 961.5871263084591 199.3834694528848 A 18.952414693333367 18.952414693333367 0 1 1 961.5871168322526 199.3645170413502"/><path fill="#1f77b4" stroke="none" paint-order="stroke fill markers" d=" M 920.7230085496947 224.0871410539812 A 18.952414693333367 18.952414693333367 0 1 1 920.7229990734882 224.06818864244661"/><path fill="#1f77b4" stroke="none" paint-order="stroke fill markers" d=" M 902.9009255467482 234.62697146482833 A 29.726666666666574 29.726666666666574 0 1 1 902.9009106834161 234.5972448031161"/><path fill="#1f77b4" stroke="none" paint-order="stroke fill markers" d=" M 869.0666258683284 214.09758486888586 A 18.952414693333367 18.952414693333367 0 1 1 869.0666163921219 214.07863245735126"/><path fill="#1f77b4" stroke="none" paint-order="stroke fill markers" d=" M 831.0642007750067 214.3449180190628 A 29.726666666666688 29.726666666666688 0 1 1 831.0641859116746 214.31519135735056"/><path fill="#1f77b4" stroke="none" paint-order="stroke fill markers" d=" M 835.236276112355 241.84256689055746 A 18.952414693333253 18.952414693333253 0 1 1 835.2362666361485 241.82361447902286"/><path fill="#1f77b4" stroke="none" paint-order="stroke fill markers" d=" M 860.6808186051219 272.4230308423239 A 18.952414693333367 18.952414693333367 0 1 1 860.6808091289154 272.4040784307893"/><path fill="#1f77b4" stroke="none" paint-order="stroke fill markers" d=" M 848.1825735587657 292.6905703267189 A 29.726666666666688 29.726666666666688 0 1 1 848.1825586954336 292.66084366500667"/><path fill="#1f77b4" stroke="none" paint-order="stroke fill markers" d=" M 839.3548977308922 346.06006525587304 A 18.952414693333253 18.952414693333253 0 1 1 839.3548882546856 346.04111284433844"/><path fill="#1f77b4" stroke="none" paint-order="stroke fill markers" d=" M 808.9234383621019 281.82814687783184 A 18.952414693333367 18.952414693333367 0 1 1 808.9234288858954 281.80919446629724"/><path fill="#ff7f0e" stroke="none" paint-order="stroke fill markers" d=" M 846.7829667192345 452.7708009997284 A 29.726666666666688 29.726666666666688 0 1 1 846.7829518559024 452.7410743380162"/><path fill="#ff7f0e" stroke="none" paint-order="stroke fill markers" d=" M 819.6253068561933 479.3651381504453 A 18.952414693333253 18.952414693333253 0 1 1 819.6252973799868 479.3461857389107"/><path fill="#ff7f0e" stroke="none" paint-order="stroke fill markers" d=" M 866.3085915880129 454.2545653053926 A 18.952414693333367 18.952414693333367 0 1 1 866.3085821118063 454.235612893858"/><path fill="#2ca02c" stroke="none" paint-order="stroke fill markers" d=" M 930.0190019682061 449.7062686147706 A 29.726666666666688 29.726666666666688 0 1 1 930.018987104874 449.67654195305835"/><path fill="#2ca02c" stroke="none" paint-order="stroke fill markers" d=" M 901.3571092827224 475.2270795962272 A 18.952414693333253 18.952414693333253 0 1 1 901.3570998065159 475.2081271846926"/><path fill="#2ca02c" stroke="none" paint-order="stroke fill markers" d=" M 949.4043086763061 453.0838987982793 A 18.952414693333253 18.952414693333253 0 1 1 949.4042992000996 453.0649463867447"/><path fill="#1f77b4" stroke="none" paint-order="stroke fill markers" d=" M 958.2110009750991 388.1557131962102 A 29.726666666666688 29.726666666666688 0 1 1 958.2109861117669 388.12598653449794"/><path fill="#1f77b4" stroke="none" paint-order="stroke fill markers" d=" M 910.2535053881617 348.60227439508117 A 29.726666666666688 29.726666666666688 0 1 1 910.2534905248295 348.57254773336894"/><path fill="#1f77b4" stroke="none" paint-order="stroke fill markers" d=" M 917.8484480827424 395.11630688169976 A 18.952414693333253 18.952414693333253 0 1 1 917.8484386065359 395.09735447016516"/><path fill="#1f77b4" stroke="none" paint-order="stroke fill markers" d=" M 881.7051413748098 419.2969159806146 A 18.952414693333253 18.952414693333253 0 1 1 881.7051318986033 419.27796356908"/><path fill="#1f77b4" stroke="none" paint-order="stroke fill markers" d=" M 874.1619378346913 394.10914949493235 A 29.726666666666688 29.726666666666688 0 1 1 874.1619229713592 394.0794228332201"/><path fill="#1f77b4" stroke="none" paint-order="stroke fill markers" d=" M 877.5827617828644 326.7339164747543 A 18.952414693333253 18.952414693333253 0 1 1 877.5827523066579 326.7149640632197"/><path fill="#1f77b4" stroke="none" paint-order="stroke fill markers" d=" M 895.5759308568131 291.01505736455283 A 18.952414693333253 18.952414693333253 0 1 1 895.5759213806066 290.99610495301823"/><path fill="#1f77b4" stroke="none" paint-order="stroke fill markers" d=" M 936.5736670926249 288.32817719509626 A 29.726666666666688 29.726666666666688 0 1 1 936.5736522292927 288.298450533384"/><path fill="#2ca02c" stroke="none" paint-order="stroke fill markers" d=" M 804.4526156187039 653.0928826044703 A 18.952414693333253 18.952414693333253 0 1 1 804.4526061424974 653.0739301929357"/><path fill="#2ca02c" stroke="none" paint-order="stroke fill markers" d=" M 824.0942169829266 593.7670861639451 A 18.952414693333367 18.952414693333367 0 1 1 824.0942075067201 593.7481337524105"/><path fill="#2ca02c" stroke="none" paint-order="stroke fill markers" d=" M 795.5106495396157 629.0785592503919 A 29.726666666666688 29.726666666666688 0 1 1 795.5106346762835 629.0488325886796"/><path fill="#2ca02c" stroke="none" paint-order="stroke fill markers" d=" M 754.9149102010439 634.8591550689657 A 18.952414693333253 18.952414693333253 0 1 1 754.9149007248374 634.8402026574311"/><path fill="#1f77b4" stroke="none" paint-order="stroke fill markers" d=" M 737.4291067062302 598.4822162961425 A 18.952414693333253 18.952414693333253 0 1 1 737.4290972300237 598.4632638846078"/><path fill="#1f77b4" stroke="none" paint-order="stroke fill markers" d=" M 766.7868778741362 573.5068606502057 A 29.726666666666688 29.726666666666688 0 1 1 766.786863010804 573.4771339884934"/><path fill="#1f77b4" stroke="none" paint-order="stroke fill markers" d=" M 786.066680296209 577.7850334662492 A 18.952414693333253 18.952414693333253 0 1 1 786.0666708200025 577.7660810547145"/><path fill="#2ca02c" stroke="none" paint-order="stroke fill markers" d=" M 791.8581339536345 514.7764895379439 A 29.726666666666688 29.726666666666688 0 1 1 791.8581190903024 514.7467628762316"/><path fill="#2ca02c" stroke="none" paint-order="stroke fill markers" d=" M 750.9412456156388 518.3142762710975 A 18.952414693333253 18.952414693333253 0 1 1 750.9412361394322 518.2953238595628"/><path fill="#1f77b4" stroke="none" paint-order="stroke fill markers" d=" M 779.0253786739995 460.26886412253884 A 18.952414693333367 18.952414693333367 0 1 1 779.025369197793 460.24991171100424"/><path fill="#1f77b4" stroke="none" paint-order="stroke fill markers" d=" M 798.1056099427137 425.19535548977956 A 18.952414693333367 18.952414693333367 0 1 1 798.1056004665072 425.17640307824496"/><path fill="#1f77b4" stroke="none" paint-order="stroke fill markers" d=" M 759.6100834143082 457.1957144369867 A 29.726666666666688 29.726666666666688 0 1 1 759.610068550976 457.16598777527446"/><path fill="#1f77b4" stroke="none" paint-order="stroke fill markers" d=" M 749.2188822032165 405.14533839123146 A 18.952414693333367 18.952414693333367 0 1 1 749.21887272701 405.12638597969686"/><path fill="#1f77b4" stroke="none" paint-order="stroke fill markers" d=" M 789.9924334804623 400.4686551790471 A 29.726666666666688 29.726666666666688 0 1 1 789.9924186171302 400.4389285173349"/><path fill="#1f77b4" stroke="none" paint-order="stroke fill markers" d=" M 819.8155908287481 347.20086406284827 A 29.726666666666688 29.726666666666688 0 1 1 819.815575965416 347.17113740113604"/><path fill="#1f77b4" stroke="none" paint-order="stroke fill markers" d=" M 833.2900830807096 398.0410750273825 A 18.952414693333367 18.952414693333367 0 1 1 833.290073604503 398.0221226158479"/><path fill="#2ca02c" stroke="none" paint-order="stroke fill markers" d=" M 922.8760175300183 628.0957483689738 A 18.952414693333367 18.952414693333367 0 1 1 922.8760080538118 628.0767959574391"/><path fill="#2ca02c" stroke="none" paint-order="stroke fill markers" d=" M 963.9186465193014 626.0288779315026 A 29.726666666666688 29.726666666666688 0 1 1 963.9186316559693 625.9991512697903"/><path fill="#2ca02c" stroke="none" paint-order="stroke fill markers" d=" M 956.5184646719193 565.848641401665 A 18.952414693333367 18.952414693333367 0 1 1 956.5184551957128 565.8296889901303"/><path fill="#2ca02c" stroke="none" paint-order="stroke fill markers" d=" M 958.80473039211 504.3992562563492 A 29.726666666666574 29.726666666666574 0 1 1 958.8047155287778 504.36952959463696"/><path fill="#2ca02c" stroke="none" paint-order="stroke fill markers" d=" M 918.6055606567928 512.0747847960993 A 18.952414693333253 18.952414693333253 0 1 1 918.6055511805863 512.0558323845646"/><path fill="#2ca02c" stroke="none" paint-order="stroke fill markers" d=" M 937.0319683126902 563.6638958747108 A 29.726666666666688 29.726666666666688 0 1 1 937.0319534493581 563.6341692129985"/><path fill="#2ca02c" stroke="none" paint-order="stroke fill markers" d=" M 873.9584157142349 576.5262335874647 A 18.952414693333367 18.952414693333367 0 1 1 873.9584062380284 576.5072811759301"/><path fill="#2ca02c" stroke="none" paint-order="stroke fill markers" d=" M 881.3270623457032 534.659016149051 A 18.952414693333253 18.952414693333253 0 1 1 881.3270528694967 534.6400637375164"/><path fill="#2ca02c" stroke="none" paint-order="stroke fill markers" d=" M 873.1194836568151 510.01089414821286 A 29.726666666666688 29.726666666666688 0 1 1 873.119468793483 509.9811674865006"/><path fill="#2ca02c" stroke="none" paint-order="stroke fill markers" d=" M 832.3640539021333 514.8120339776385 A 18.952414693333253 18.952414693333253 0 1 1 832.3640444259267 514.7930815661039"/><path fill="#2ca02c" stroke="none" paint-order="stroke fill markers" d=" M 799.0962022537133 540.2019542226967 A 18.952414693333253 18.952414693333253 0 1 1 799.0961927775068 540.1830018111621"/><path fill="#2ca02c" stroke="none" paint-order="stroke fill markers" d=" M 855.0230629182446 570.1510131343321 A 29.726666666666574 29.726666666666574 0 1 1 855.0230480549125 570.1212864726198"/><path fill="#2ca02c" stroke="none" paint-order="stroke fill markers" d=" M 838.1393830395562 631.5892045816213 A 18.952414693333367 18.952414693333367 0 1 1 838.1393735633496 631.5702521700866"/><path fill="#2ca02c" stroke="none" paint-order="stroke fill markers" d=" M 876.3956899418283 808.4936598942293 A 18.952414693333367 18.952414693333367 0 1 1 876.3956804656218 808.4747074826946"/><path fill="#2ca02c" stroke="none" paint-order="stroke fill markers" d=" M 882.0540595778942 747.310286475705 A 29.726666666666688 29.726666666666688 0 1 1 882.0540447145621 747.2805598139927"/><path fill="#2ca02c" stroke="none" paint-order="stroke fill markers" d=" M 890.8531759046207 771.4510970859178 A 18.952414693333253 18.952414693333253 0 1 1 890.8531664284142 771.4321446743832"/><path fill="#2ca02c" stroke="none" paint-order="stroke fill markers" d=" M 923.1052650393178 747.1759247923455 A 18.952414693333367 18.952414693333367 0 1 1 923.1052555631113 747.1569723808109"/><path fill="#2ca02c" stroke="none" paint-order="stroke fill markers" d=" M 941.8842360634526 799.3141630640557 A 29.726666666666688 29.726666666666688 0 1 1 941.8842212001205 799.2844364023434"/><path fill="#2ca02c" stroke="none" paint-order="stroke fill markers" d=" M 960.9384549549015 805.0555039720032 A 18.952414693333367 18.952414693333367 0 1 1 960.938445478695 805.0365515604685"/><path fill="#2ca02c" stroke="none" paint-order="stroke fill markers" d=" M 963.8244274499656 742.1351276732457 A 29.726666666666574 29.726666666666574 0 1 1 963.8244125866335 742.1054010115334"/><path fill="#2ca02c" stroke="none" paint-order="stroke fill markers" d=" M 955.0547065205778 688.3519938926945 A 18.952414693333367 18.952414693333367 0 1 1 955.0546970443713 688.3330414811599"/><path fill="#2ca02c" stroke="none" paint-order="stroke fill markers" d=" M 935.8376739691464 683.6198532439189 A 29.726666666666688 29.726666666666688 0 1 1 935.8376591058143 683.5901265822066"/><path fill="#2ca02c" stroke="none" paint-order="stroke fill markers" d=" M 906.1338985836287 708.3115940254959 A 18.952414693333367 18.952414693333367 0 1 1 906.1338891074222 708.2926416139612"/><path fill="#2ca02c" stroke="none" paint-order="stroke fill markers" d=" M 870.8457361493274 690.761990572805 A 18.952414693333367 18.952414693333367 0 1 1 870.8457266731209 690.7430381612703"/><path fill="#2ca02c" stroke="none" paint-order="stroke fill markers" d=" M 887.1440641558295 651.3242555794989 A 18.952414693333367 18.952414693333367 0 1 1 887.144054679623 651.3053031679642"/><path fill="#2ca02c" stroke="none" paint-order="stroke fill markers" d=" M 878.8846327583994 626.7195659619265 A 29.726666666666688 29.726666666666688 0 1 1 878.8846178950673 626.6898393002142"/><path fill="#2ca02c" stroke="none" paint-order="stroke fill markers" d=" M 909.3111398585797 589.8724419716709 A 18.952414693333367 18.952414693333367 0 1 1 909.3111303823732 589.8534895601363"/><path fill="#2ca02c" stroke="none" paint-order="stroke fill markers" d=" M 691.0516751946416 808.0403165408761 A 29.726666666666688 29.726666666666688 0 1 1 691.0516603313094 808.0105898791638"/><path fill="#2ca02c" stroke="none" paint-order="stroke fill markers" d=" M 671.6448632653095 755.1438073881102 A 18.952414693333253 18.952414693333253 0 1 1 671.644853789103 755.1248549765755"/><path fill="#2ca02c" stroke="none" paint-order="stroke fill markers" d=" M 712.3188827410945 749.8201386679591 A 29.726666666666688 29.726666666666688 0 1 1 712.3188678777624 749.7904120062468"/><path fill="#2ca02c" stroke="none" paint-order="stroke fill markers" d=" M 720.9201394779291 774.1335499766453 A 18.952414693333367 18.952414693333367 0 1 1 720.9201300017226 774.1145975651107"/><path fill="#2ca02c" stroke="none" paint-order="stroke fill markers" d=" M 773.9108103877861 809.5966447192629 A 29.726666666666688 29.726666666666688 0 1 1 773.910795524454 809.5669180575507"/><path fill="#2ca02c" stroke="none" paint-order="stroke fill markers" d=" M 793.3868096692474 811.9338705654566 A 18.952414693333367 18.952414693333367 0 1 1 793.3868001930409 811.9149181539219"/><path fill="#2ca02c" stroke="none" paint-order="stroke fill markers" d=" M 798.9562260441378 749.8096887351833 A 29.726666666666688 29.726666666666688 0 1 1 798.9562111808057 749.779962073471"/><path fill="#2ca02c" stroke="none" paint-order="stroke fill markers" d=" M 758.7386903509714 757.4084002086545 A 18.952414693333367 18.952414693333367 0 1 1 758.7386808747649 757.3894477971198"/><path fill="#2ca02c" stroke="none" paint-order="stroke fill markers" d=" M 743.6332099433383 716.2153546471791 A 18.952414693333253 18.952414693333253 0 1 1 743.6332004671318 716.1964022356444"/><path fill="#2ca02c" stroke="none" paint-order="stroke fill markers" d=" M 770.6416619196552 689.5219005169388 A 29.726666666666688 29.726666666666688 0 1 1 770.6416470563231 689.4921738552265"/><path fill="#2ca02c" stroke="none" paint-order="stroke fill markers" d=" M 790.1750798864457 690.8214926996516 A 18.952414693333367 18.952414693333367 0 1 1 790.1750704102392 690.8025402881169"/><path fill="#2ca02c" stroke="none" paint-order="stroke fill markers" d=" M 822.203822798262 711.4481056651819 A 18.952414693333253 18.952414693333253 0 1 1 822.2038133220555 711.4291532536472"/><path fill="#2ca02c" stroke="none" paint-order="stroke fill markers" d=" M 851.566830904572 686.4769795676771 A 29.726666666666688 29.726666666666688 0 1 1 851.5668160412399 686.4472529059648"/><path fill="#2ca02c" stroke="none" paint-order="stroke fill markers" d=" M 841.4245951197685 752.8987620072246 A 18.952414693333253 18.952414693333253 0 1 1 841.424585643562 752.87980959569"/><path fill="#2ca02c" stroke="none" paint-order="stroke fill markers" d=" M 809.2205104367276 772.5737430263769 A 18.952414693333367 18.952414693333367 0 1 1 809.2205009605211 772.5547906148422"/><path fill="#2ca02c" stroke="none" paint-order="stroke fill markers" d=" M 856.9739049615803 805.4904778766556 A 29.726666666666688 29.726666666666688 0 1 1 856.9738900982481 805.4607512149433"/><path fill="#2ca02c" stroke="none" paint-order="stroke fill markers" d=" M 667.7147479069926 522.9940110299103 A 18.952414693333253 18.952414693333253 0 1 1 667.714738430786 522.9750586183757"/><path fill="#2ca02c" stroke="none" paint-order="stroke fill markers" d=" M 682.8423917707464 578.479456697283 A 29.726666666666688 29.726666666666688 0 1 1 682.8423769074143 578.4497300355707"/><path fill="#2ca02c" stroke="none" paint-order="stroke fill markers" d=" M 708.4629257796635 518.1439631001126 A 29.726666666666688 29.726666666666688 0 1 1 708.4629109163313 518.1142364384003"/><path fill="#2ca02c" stroke="none" paint-order="stroke fill markers" d=" M 716.7075359744654 542.7610889803282 A 18.952414693333367 18.952414693333367 0 1 1 716.7075264982589 542.7421365687935"/><path fill="#2ca02c" stroke="none" paint-order="stroke fill markers" d=" M 701.8556756193824 584.4470027689449 A 18.952414693333253 18.952414693333253 0 1 1 701.8556661431759 584.4280503574103"/><path fill="#2ca02c" stroke="none" paint-order="stroke fill markers" d=" M 711.8657510978251 634.41402262322 A 29.726666666666688 29.726666666666688 0 1 1 711.8657362344929 634.3842959615077"/><path fill="#2ca02c" stroke="none" paint-order="stroke fill markers" d=" M 671.3878311398809 640.8191921069138 A 18.952414693333367 18.952414693333367 0 1 1 671.3878216636743 640.8002396953791"/><path fill="#2ca02c" stroke="none" paint-order="stroke fill markers" d=" M 721.2680219241479 658.0097647010186 A 18.952414693333367 18.952414693333367 0 1 1 721.2680124479414 657.990812289484"/><path fill="#2ca02c" stroke="none" paint-order="stroke fill markers" d=" M 709.3350819444563 696.7932894615258 A 18.952414693333253 18.952414693333253 0 1 1 709.3350724682498 696.7743370499911"/><path fill="#2ca02c" stroke="none" paint-order="stroke fill markers" d=" M 690.4455752432964 690.1904452918047 A 29.726666666666574 29.726666666666574 0 1 1 690.4455603799643 690.1607186300924"/><path fill="#2ca02c" stroke="none" paint-order="stroke fill markers" d=" M 636.0679896415668 661.9653043126864 A 18.952414693333253 18.952414693333253 0 1 1 636.0679801653603 661.9463519011517"/><path fill="#1f77b4" stroke="none" paint-order="stroke fill markers" d=" M 618.5448852697723 697.9578205039518 A 18.952414693333367 18.952414693333367 0 1 1 618.5448757935658 697.9388680924171"/><path fill="#2ca02c" stroke="none" paint-order="stroke fill markers" d=" M 659.3504254477643 713.651343676845 A 18.952414693333367 18.952414693333367 0 1 1 659.3504159715578 713.6323912653104"/><path fill="#2ca02c" stroke="none" paint-order="stroke fill markers" d=" M 631.4267783661282 756.3357221589697 A 29.726666666666688 29.726666666666688 0 1 1 631.4267635027961 756.3059954972574"/><path fill="#1f77b4" stroke="none" paint-order="stroke fill markers" d=" M 624.1873431385568 812.9130669779656 A 18.952414693333367 18.952414693333367 0 1 1 624.1873336623503 812.894114566431"/><path fill="#2ca02c" stroke="none" paint-order="stroke fill markers" d=" M 642.6895382931978 778.0503539372523 A 18.952414693333253 18.952414693333253 0 1 1 642.6895288169912 778.0314015257177"/><path fill="#2ca02c" stroke="none" paint-order="stroke fill markers" d=" M 542.6274598071861 637.5312465601771 A 29.726666666666688 29.726666666666688 0 1 1 542.627444943854 637.5015198984648"/><path fill="#2ca02c" stroke="none" paint-order="stroke fill markers" d=" M 534.1227824800329 586.4900985873292 A 18.952414693333367 18.952414693333367 0 1 1 534.1227730038264 586.4711461757945"/><path fill="#2ca02c" stroke="none" paint-order="stroke fill markers" d=" M 514.8214681649106 582.3792546806867 A 29.72666666666663 29.72666666666663 0 1 1 514.8214533015785 582.3495280189744"/><path fill="#2ca02c" stroke="none" paint-order="stroke fill markers" d=" M 485.5920432008245 607.4576822544448 A 18.95241469333331 18.95241469333331 0 1 1 485.5920337246179 607.4387298429101"/><path fill="#2ca02c" stroke="none" paint-order="stroke fill markers" d=" M 499.03389086695165 533.8484445812967 A 18.95241469333331 18.95241469333331 0 1 1 499.0338813907451 533.829492169762"/><path fill="#2ca02c" stroke="none" paint-order="stroke fill markers" d=" M 538.6599798321288 524.0935295265165 A 29.72666666666663 29.72666666666663 0 1 1 538.6599649687967 524.0638028648042"/><path fill="#2ca02c" stroke="none" paint-order="stroke fill markers" d=" M 550.4210167584048 545.2458859996084 A 18.952414693333367 18.952414693333367 0 1 1 550.4210072821983 545.2269335880737"/><path fill="#2ca02c" stroke="none" paint-order="stroke fill markers" d=" M 583.9801692993849 524.9215109548136 A 18.952414693333253 18.952414693333253 0 1 1 583.9801598231784 524.9025585432789"/><path fill="#2ca02c" stroke="none" paint-order="stroke fill markers" d=" M 598.537230999193 579.5039386523406 A 29.726666666666688 29.726666666666688 0 1 1 598.5372161358608 579.4742119906283"/><path fill="#2ca02c" stroke="none" paint-order="stroke fill markers" d=" M 571.3302245527775 606.0652105873794 A 18.952414693333367 18.952414693333367 0 1 1 571.330215076571 606.0462581758447"/><path fill="#2ca02c" stroke="none" paint-order="stroke fill markers" d=" M 587.0117190643458 642.3698423733058 A 18.952414693333367 18.952414693333367 0 1 1 587.0117095881393 642.3508899617711"/><path fill="#2ca02c" stroke="none" paint-order="stroke fill markers" d=" M 627.7440828987208 637.4148945127381 A 29.726666666666688 29.726666666666688 0 1 1 627.7440680353886 637.3851678510258"/><path fill="#2ca02c" stroke="none" paint-order="stroke fill markers" d=" M 652.2134846629604 602.3696754825023 A 18.952414693333367 18.952414693333367 0 1 1 652.2134751867538 602.3507230709677"/><path fill="#2ca02c" stroke="none" paint-order="stroke fill markers" d=" M 618.0600416972704 581.0487554233657 A 18.952414693333367 18.952414693333367 0 1 1 618.0600322210639 581.0298030118311"/><path fill="#2ca02c" stroke="none" paint-order="stroke fill markers" d=" M 624.2003188240299 517.3338052202503 A 29.726666666666688 29.726666666666688 0 1 1 624.2003039606977 517.304078558538"/><path fill="#2ca02c" stroke="none" paint-order="stroke fill markers" d=" M 634.4567609702323 540.1057205070647 A 18.952414693333367 18.952414693333367 0 1 1 634.4567514940258 540.08676809553"/><path fill="#1f77b4" stroke="none" paint-order="stroke fill markers" d=" M 541.9122403551065 823.0137564157981 A 18.952414693333367 18.952414693333367 0 1 1 541.9122308789 822.9948040042634"/><path fill="#1f77b4" stroke="none" paint-order="stroke fill markers" d=" M 522.6513968968868 818.5934345038181 A 29.72666666666663 29.72666666666663 0 1 1 522.6513820335547 818.5637078421058"/><path fill="#1f77b4" stroke="none" paint-order="stroke fill markers" d=" M 506.66926739784947 758.9445688230367 A 18.952414693333367 18.952414693333367 0 1 1 506.6692579216429 758.925616411502"/><path fill="#1f77b4" stroke="none" paint-order="stroke fill markers" d=" M 547.6563585207115 756.1307795904588 A 29.726666666666688 29.726666666666688 0 1 1 547.6563436573794 756.1010529287465"/><path fill="#1f77b4" stroke="none" paint-order="stroke fill markers" d=" M 554.3276596855536 781.9815806026177 A 18.952414693333253 18.952414693333253 0 1 1 554.3276502093471 781.962628191083"/><path fill="#1f77b4" stroke="none" paint-order="stroke fill markers" d=" M 604.6315700534708 813.3797816523547 A 29.726666666666688 29.726666666666688 0 1 1 604.6315551901387 813.3500549906424"/><path fill="#2ca02c" stroke="none" paint-order="stroke fill markers" d=" M 591.582401512385 765.3599581445003 A 18.952414693333367 18.952414693333367 0 1 1 591.5823920361785 765.3410057329656"/><path fill="#1f77b4" stroke="none" paint-order="stroke fill markers" d=" M 573.0499358348718 725.3333337940146 A 18.952414693333253 18.952414693333253 0 1 1 573.0499263586653 725.31438138248"/><path fill="#1f77b4" stroke="none" paint-order="stroke fill markers" d=" M 598.985804291722 697.9638933094552 A 29.726666666666688 29.726666666666688 0 1 1 598.9857894283899 697.9341666477429"/><path fill="#2ca02c" stroke="none" paint-order="stroke fill markers" d=" M 550.9836323331474 662.0543762084383 A 18.952414693333367 18.952414693333367 0 1 1 550.9836228569409 662.0354237969036"/><path fill="#2ca02c" stroke="none" paint-order="stroke fill markers" d=" M 540.1224613371458 701.8637000862402 A 18.952414693333253 18.952414693333253 0 1 1 540.1224518609392 701.8447476747056"/><path fill="#2ca02c" stroke="none" paint-order="stroke fill markers" d=" M 491.29224958273807 722.0626176960338 A 18.952414693333367 18.952414693333367 0 1 1 491.2922401065315 722.0436652844992"/><path fill="#2ca02c" stroke="none" paint-order="stroke fill markers" d=" M 520.8844110375327 697.2784627963392 A 29.72666666666663 29.72666666666663 0 1 1 520.8843961742006 697.2487361346269"/><path fill="#2ca02c" stroke="none" paint-order="stroke fill markers" d=" M 501.9016415390755 642.5289447973025 A 18.95241469333331 18.95241469333331 0 1 1 501.90163206286894 642.5099923857679"/><path fill="#2ca02c" stroke="none" paint-order="stroke fill markers" d=" M 709.7292819378417 815.6028694865956 A 18.952414693333253 18.952414693333253 0 1 1 709.7292724616352 815.583917075061"/><path fill="#2ca02c" stroke="none" paint-order="stroke fill markers" d=" M 911.4229073985655 823.3544143848394 A 18.952414693333367 18.952414693333367 0 1 1 911.422897922359 823.3354619733047"/><path fill="#2ca02c" stroke="none" paint-order="stroke fill markers" d=" M 374.82604109979417 825.8570351404119 A 18.95241469333331 18.95241469333331 0 1 1 374.8260316235876 825.8380827288772"/><path fill="#2ca02c" stroke="none" paint-order="stroke fill markers" d=" M 355.35005669213956 823.5196195526064 A 29.726666666666688 29.726666666666688 0 1 1 355.3500418288075 823.4898928908941"/><path fill="#2ca02c" stroke="none" paint-order="stroke fill markers" d=" M 379.440181314591 760.8835035277114 A 29.726666666666688 29.726666666666688 0 1 1 379.4401664512589 760.8537768659991"/><path fill="#2ca02c" stroke="none" paint-order="stroke fill markers" d=" M 388.1712043156808 785.0840500672323 A 18.95241469333331 18.95241469333331 0 1 1 388.17119483947425 785.0650976556976"/><path fill="#1f77b4" stroke="none" paint-order="stroke fill markers" d=" M 425.7518292248578 762.7186291152514 A 18.952414693333367 18.952414693333367 0 1 1 425.7518197486512 762.6996767037167"/><path fill="#1f77b4" stroke="none" paint-order="stroke fill markers" d=" M 466.7163195290348 759.6528427633423 A 29.72666666666663 29.72666666666663 0 1 1 466.71630466570275 759.62311610163"/><path fill="#1f77b4" stroke="none" paint-order="stroke fill markers" d=" M 473.5858076170524 785.3572558435742 A 18.95241469333331 18.95241469333331 0 1 1 473.58579814084584 785.3383034320395"/><path fill="#2ca02c" stroke="none" paint-order="stroke fill markers" d=" M 455.84429056007224 824.5753944116975 A 18.95241469333331 18.95241469333331 0 1 1 455.84428108386567 824.5564420001629"/><path fill="#2ca02c" stroke="none" paint-order="stroke fill markers" d=" M 436.5901209424946 820.106147165825 A 29.72666666666663 29.72666666666663 0 1 1 436.5901060791625 820.0764205041127"/><path fill="#2ca02c" stroke="none" paint-order="stroke fill markers" d=" M 368.63494661870595 592.6427307517106 A 18.95241469333331 18.95241469333331 0 1 1 368.6349371424994 592.6237783401759"/><path fill="#2ca02c" stroke="none" paint-order="stroke fill markers" d=" M 374.44037710904354 527.8213890887639 A 29.726666666666688 29.726666666666688 0 1 1 374.44036224571147 527.7916624270516"/><path fill="#2ca02c" stroke="none" paint-order="stroke fill markers" d=" M 383.86338310636904 551.397876902575 A 18.952414693333367 18.952414693333367 0 1 1 383.86337363016247 551.3789244910404"/><path fill="#2ca02c" stroke="none" paint-order="stroke fill markers" d=" M 415.5260077304702 533.7045669424508 A 18.95241469333331 18.95241469333331 0 1 1 415.52599825426364 533.6856145309162"/><path fill="#2ca02c" stroke="none" paint-order="stroke fill markers" d=" M 456.2104907619541 528.4450606716903 A 29.72666666666663 29.72666666666663 0 1 1 456.210475898622 528.415334009978"/><path fill="#2ca02c" stroke="none" paint-order="stroke fill markers" d=" M 464.7636397718694 552.79999396789 A 18.95241469333331 18.95241469333331 0 1 1 464.76363029566284 552.7810415563554"/><path fill="#2ca02c" stroke="none" paint-order="stroke fill markers" d=" M 450.0954302041124 589.9334596749318 A 18.952414693333367 18.952414693333367 0 1 1 450.09542072790583 589.9145072633971"/><path fill="#2ca02c" stroke="none" paint-order="stroke fill markers" d=" M 430.6829060127288 586.8309192838817 A 29.72666666666663 29.72666666666663 0 1 1 430.6828911493967 586.8011926221694"/><path fill="#2ca02c" stroke="none" paint-order="stroke fill markers" d=" M 420.0594008660027 649.5349578198641 A 18.952414693333367 18.952414693333367 0 1 1 420.05939138979613 649.5160054083294"/><path fill="#2ca02c" stroke="none" paint-order="stroke fill markers" d=" M 460.8032609552655 644.6560541796721 A 29.72666666666663 29.72666666666663 0 1 1 460.80324609193343 644.6263275179598"/><path fill="#2ca02c" stroke="none" paint-order="stroke fill markers" d=" M 469.0696997630329 669.2548574462644 A 18.952414693333367 18.952414693333367 0 1 1 469.0696902868263 669.2359050347297"/><path fill="#1f77b4" stroke="none" paint-order="stroke fill markers" d=" M 453.43145029363035 706.0722797341668 A 18.95241469333331 18.95241469333331 0 1 1 453.4314408174238 706.0533273226322"/><path fill="#1f77b4" stroke="none" paint-order="stroke fill markers" d=" M 434.04995946903017 702.657873981927 A 29.726666666666688 29.726666666666688 0 1 1 434.0499446056981 702.6281473202147"/><path fill="#1f77b4" stroke="none" paint-order="stroke fill markers" d=" M 385.05413705616945 673.029700155264 A 18.952414693333367 18.952414693333367 0 1 1 385.0541275799629 673.0107477437293"/><path fill="#1f77b4" stroke="none" paint-order="stroke fill markers" d=" M 367.62346318416644 710.1086554739234 A 18.952414693333367 18.952414693333367 0 1 1 367.62345370795987 710.0897030623887"/><path fill="#1f77b4" stroke="none" paint-order="stroke fill markers" d=" M 405.35940314038135 728.1568549508984 A 18.95241469333331 18.95241469333331 0 1 1 405.3593936641748 728.1379025393637"/><path fill="#2ca02c" stroke="none" paint-order="stroke fill markers" d=" M 264.4093400221585 707.4455771564649 A 29.726666666666688 29.726666666666688 0 1 1 264.40932515882645 707.4158504947526"/><path fill="#2ca02c" stroke="none" paint-order="stroke fill markers" d=" M 236.28329447423025 733.3647715354086 A 18.95241469333334 18.95241469333334 0 1 1 236.2832849980237 733.345819123874"/><path fill="#1f77b4" stroke="none" paint-order="stroke fill markers" d=" M 251.28437168391238 652.8766874189866 A 18.95241469333331 18.95241469333331 0 1 1 251.28436220770584 652.857735007452"/><path fill="#1f77b4" stroke="none" paint-order="stroke fill markers" d=" M 292.3269126401558 650.808382041123 A 29.726666666666688 29.726666666666688 0 1 1 292.3268977768237 650.7786553794107"/><path fill="#2ca02c" stroke="none" paint-order="stroke fill markers" d=" M 284.1434514242029 596.4282265878396 A 18.952414693333367 18.952414693333367 0 1 1 284.14344194799634 596.409274176305"/><path fill="#2ca02c" stroke="none" paint-order="stroke fill markers" d=" M 265.0073269185244 591.1696193018436 A 29.72666666666666 29.72666666666666 0 1 1 265.00731205519236 591.1398926401313"/><path fill="#2ca02c" stroke="none" paint-order="stroke fill markers" d=" M 234.90634780322694 615.5251323207658 A 18.95241469333334 18.95241469333334 0 1 1 234.90633832702036 615.5061799092312"/><path fill="#ff7f0e" stroke="none" paint-order="stroke fill markers" d=" M 249.90480195771661 535.844424243237 A 18.95241469333334 18.95241469333334 0 1 1 249.90479248151007 535.8254718317023"/><path fill="#ff7f0e" stroke="none" paint-order="stroke fill markers" d=" M 290.70803248925677 531.3792313789684 A 29.726666666666688 29.726666666666688 0 1 1 290.7080176259247 531.3495047172561"/><path fill="#ff7f0e" stroke="none" paint-order="stroke fill markers" d=" M 298.6602350354677 556.2384522269156 A 18.95241469333331 18.95241469333331 0 1 1 298.6602255592611 556.2194998153809"/><path fill="#2ca02c" stroke="none" paint-order="stroke fill markers" d=" M 333.96809547804224 534.2548917235047 A 18.95241469333331 18.95241469333331 0 1 1 333.9680860018357 534.23593931197"/><path fill="#2ca02c" stroke="none" paint-order="stroke fill markers" d=" M 349.3441982245743 588.4488548631953 A 29.726666666666688 29.726666666666688 0 1 1 349.34418336124224 588.419128201483"/><path fill="#2ca02c" stroke="none" paint-order="stroke fill markers" d=" M 320.0510304664923 613.4762335989612 A 18.952414693333367 18.952414693333367 0 1 1 320.05102099028574 613.4572811874266"/><path fill="#1f77b4" stroke="none" paint-order="stroke fill markers" d=" M 336.50688792597396 652.1036294138105 A 18.95241469333331 18.95241469333331 0 1 1 336.5068784497674 652.0846770022758"/><path fill="#1f77b4" stroke="none" paint-order="stroke fill markers" d=" M 377.3534577121201 647.9670641076832 A 29.726666666666688 29.726666666666688 0 1 1 377.353442848788 647.9373374459709"/><path fill="#2ca02c" stroke="none" paint-order="stroke fill markers" d=" M 402.2360894000145 612.5138299645259 A 18.952414693333367 18.952414693333367 0 1 1 402.23607992380795 612.4948775529913"/><path fill="#1f77b4" stroke="none" paint-order="stroke fill markers" d=" M 181.5692827014604 716.5763266010938 A 29.726666666666688 29.726666666666688 0 1 1 181.5692678381283 716.5465999393815"/><path fill="#2ca02c" stroke="none" paint-order="stroke fill markers" d=" M 163.41343850532445 664.8116799718812 A 18.95241469333331 18.95241469333331 0 1 1 163.41342902911788 664.7927275603465"/><path fill="#2ca02c" stroke="none" paint-order="stroke fill markers" d=" M 214.49392050719723 677.6179928678052 A 18.95241469333331 18.95241469333331 0 1 1 214.49391103099066 677.5990404562706"/><path fill="#1f77b4" stroke="none" paint-order="stroke fill markers" d=" M 201.0082209563961 713.7666090039129 A 18.95241469333331 18.95241469333331 0 1 1 201.00821148018952 713.7476565923782"/><path fill="#2ca02c" stroke="none" paint-order="stroke fill markers" d=" M 211.60670785094328 775.2659807643879 A 29.726666666666688 29.726666666666688 0 1 1 211.60669298761118 775.2362541026756"/><path fill="#1f77b4" stroke="none" paint-order="stroke fill markers" d=" M 158.02418721206624 745.2391978788798 A 18.95241469333331 18.95241469333331 0 1 1 158.02417773585967 745.2202454673452"/><path fill="#2ca02c" stroke="none" paint-order="stroke fill markers" d=" M 171.3237736166189 782.584195507249 A 18.95241469333331 18.95241469333331 0 1 1 171.32376414041232 782.5652430957143"/><path fill="#2ca02c" stroke="none" paint-order="stroke fill markers" d=" M 221.67051131276094 798.2292853982849 A 18.952414693333367 18.952414693333367 0 1 1 221.67050183655437 798.2103329867502"/><path fill="#2ca02c" stroke="none" paint-order="stroke fill markers" d=" M 295.06502924801225 767.251515204468 A 29.726666666666688 29.726666666666688 0 1 1 295.0650143846802 767.2217885427557"/><path fill="#2ca02c" stroke="none" paint-order="stroke fill markers" d=" M 255.1773981473005 776.1231284647897 A 18.95241469333334 18.95241469333334 0 1 1 255.17738867109392 776.1041760532551"/><path fill="#2ca02c" stroke="none" paint-order="stroke fill markers" d=" M 306.2225375720526 789.0814842604295 A 18.95241469333331 18.95241469333331 0 1 1 306.22252809584603 789.0625318488949"/><path fill="#2ca02c" stroke="none" paint-order="stroke fill markers" d=" M 338.7951043195459 766.3806779114038 A 18.95241469333331 18.95241469333331 0 1 1 338.7950948433393 766.3617254998692"/><path fill="#1f77b4" stroke="none" paint-order="stroke fill markers" d=" M 319.94704140615295 733.1051385280191 A 18.952414693333367 18.952414693333367 0 1 1 319.9470319299464 733.0861861164844"/><path fill="#1f77b4" stroke="none" paint-order="stroke fill markers" d=" M 348.18709200317517 707.2691802412214 A 29.726666666666688 29.726666666666688 0 1 1 348.1870771398431 707.2394535795091"/><path fill="#1f77b4" stroke="none" paint-order="stroke fill markers" d=" M 298.40621045515627 677.0819501932106 A 18.95241469333331 18.95241469333331 0 1 1 298.4062009789497 677.0629977816759"/><path fill="#2ca02c" stroke="none" paint-order="stroke fill markers" d=" M 283.8579041442249 710.1405790425013 A 18.952414693333367 18.952414693333367 0 1 1 283.85789466801833 710.1216266309666"/><path fill="#2ca02c" stroke="none" paint-order="stroke fill markers" d=" M 41.6873453243295 658.5133147902975 A 29.726666666666688 29.726666666666688 0 1 1 41.6873304609974 658.4835881285852"/><path fill="#2ca02c" stroke="none" paint-order="stroke fill markers" d=" M 1.2526015785078357 665.1320710175803 A 18.95241469333331 18.95241469333331 0 1 1 1.2525921023012785 665.1131186060456"/><path fill="#2ca02c" stroke="none" paint-order="stroke fill markers" d=" M 18.053329359414647 720.1351788141819 A 29.726666666666688 29.726666666666688 0 1 1 18.053314496082553 720.1054521524696"/><path fill="#2ca02c" stroke="none" paint-order="stroke fill markers" d=" M 3.0614068084588553 785.4261583177126 A 18.95241469333331 18.95241469333331 0 1 1 3.061397332252298 785.407205906178"/><path fill="#2ca02c" stroke="none" paint-order="stroke fill markers" d=" M 53.37873558786805 801.173586476003 A 18.95241469333331 18.95241469333331 0 1 1 53.37872611166149 801.1546340644684"/><path fill="#2ca02c" stroke="none" paint-order="stroke fill markers" d=" M 43.357994892357965 778.1679569274756 A 29.726666666666688 29.726666666666688 0 1 1 43.35798002902587 778.1382302657634"/><path fill="#2ca02c" stroke="none" paint-order="stroke fill markers" d=" M 69.15292675789317 743.2831016694283 A 18.95241469333331 18.95241469333331 0 1 1 69.15291728168661 743.2641492578937"/><path fill="#1f77b4" stroke="none" paint-order="stroke fill markers" d=" M 89.0753168790547 782.3208624228671 A 18.95241469333331 18.95241469333331 0 1 1 89.07530740284814 782.3019100113324"/><path fill="#1f77b4" stroke="none" paint-order="stroke fill markers" d=" M 129.79384890355078 777.2759931845887 A 29.726666666666688 29.726666666666688 0 1 1 129.79383404021868 777.2462665228765"/><path fill="#1f77b4" stroke="none" paint-order="stroke fill markers" d=" M 138.18559382053252 801.7689616532864 A 18.95241469333331 18.95241469333331 0 1 1 138.18558434432595 801.7500092417517"/><path fill="#2ca02c" stroke="none" paint-order="stroke fill markers" d=" M 119.67146140728272 728.2510321792583 A 18.95241469333331 18.95241469333331 0 1 1 119.67145193107616 728.2320797677237"/><path fill="#1f77b4" stroke="none" paint-order="stroke fill markers" d=" M 126.93399856348918 658.671128258309 A 29.726666666666688 29.726666666666688 0 1 1 126.93398370015709 658.6414015965967"/><path fill="#1f77b4" stroke="none" paint-order="stroke fill markers" d=" M 130.63185263744026 686.4427141073254 A 18.95241469333331 18.95241469333331 0 1 1 130.6318431612337 686.4237616957907"/><path fill="#1f77b4" stroke="none" paint-order="stroke fill markers" d=" M 65.52780020945158 511.97771543939825 A 18.95241469333331 18.95241469333331 0 1 1 65.52779073324503 511.95876302786365"/><path fill="#2ca02c" stroke="none" paint-order="stroke fill markers" d=" M 81.10398696399585 548.1733602545148 A 18.952414693333253 18.952414693333253 0 1 1 81.1039774877893 548.1544078429802"/><path fill="#1f77b4" stroke="none" paint-order="stroke fill markers" d=" M 47.327276366347974 568.700785707777 A 18.95241469333331 18.95241469333331 0 1 1 47.327266890141416 568.6818332962423"/><path fill="#1f77b4" stroke="none" paint-order="stroke fill markers" d=" M 40.71778611733714 542.8048356991217 A 29.726666666666688 29.726666666666688 0 1 1 40.717771254005044 542.7751090374094"/><path fill="#1f77b4" stroke="none" paint-order="stroke fill markers" d=" M -0.2759321530080001 545.5402861858745 A 18.95241469333331 18.95241469333331 0 1 1 -0.27594162921455734 545.5213337743398"/><path fill="#2ca02c" stroke="none" paint-order="stroke fill markers" d=" M 13.753333595053789 602.3107818711562 A 29.726666666666688 29.726666666666688 0 1 1 13.753318731721695 602.2810552094439"/><path fill="#2ca02c" stroke="none" paint-order="stroke fill markers" d=" M 33.107997576257844 605.9732086481108 A 18.95241469333331 18.95241469333331 0 1 1 33.10798810005129 605.9542562365762"/><path fill="#2ca02c" stroke="none" paint-order="stroke fill markers" d=" M 97.79089516267044 599.893964782151 A 29.72666666666663 29.72666666666663 0 1 1 97.79088029933834 599.8642381204387"/><path fill="#2ca02c" stroke="none" paint-order="stroke fill markers" d=" M 66.84431841611871 623.4936034459092 A 18.95241469333331 18.95241469333331 0 1 1 66.84430893991215 623.4746510343746"/><path fill="#1f77b4" stroke="none" paint-order="stroke fill markers" d=" M 85.83686029124675 657.8419117237208 A 18.95241469333331 18.95241469333331 0 1 1 85.8368508150402 657.8229593121862"/><path fill="#2ca02c" stroke="none" paint-order="stroke fill markers" d=" M 101.02100273221265 720.5746414809028 A 29.726666666666688 29.726666666666688 0 1 1 101.02098786888055 720.5449148191905"/><path fill="#2ca02c" stroke="none" paint-order="stroke fill markers" d=" M 37.54424635652964 722.2524772336305 A 18.95241469333331 18.95241469333331 0 1 1 37.54423688032308 722.2335248220959"/><path fill="#2ca02c" stroke="none" paint-order="stroke fill markers" d=" M 51.245585290937925 681.9633101760089 A 18.95241469333331 18.95241469333331 0 1 1 51.24557581473137 681.9443577644743"/><path fill="#1f77b4" stroke="none" paint-order="stroke fill markers" d=" M 197.5281339844518 418.38517634669756 A 29.72666666666663 29.72666666666663 0 1 1 197.52811912111972 418.35544968498533"/><path fill="#1f77b4" stroke="none" paint-order="stroke fill markers" d=" M 175.61501412390356 369.94016350229845 A 18.95241469333331 18.95241469333331 0 1 1 175.615004647697 369.92121109076385"/><path fill="#1f77b4" stroke="none" paint-order="stroke fill markers" d=" M 205.99367698306176 442.8152712898907 A 18.95241469333334 18.95241469333334 0 1 1 205.99366750685522 442.7963188783561"/><path fill="#2ca02c" stroke="none" paint-order="stroke fill markers" d=" M 174.82384381922117 481.29489258292074 A 29.726666666666688 29.726666666666688 0 1 1 174.82382895588907 481.2651659212085"/><path fill="#2ca02c" stroke="none" paint-order="stroke fill markers" d=" M 194.37965936121475 481.7584746038317 A 18.95241469333331 18.95241469333331 0 1 1 194.37964988500818 481.7395221922971"/><path fill="#2ca02c" stroke="none" paint-order="stroke fill markers" d=" M 204.42253250176574 536.5291523644248 A 29.72666666666666 29.72666666666666 0 1 1 204.42251763843365 536.4994257027125"/><path fill="#2ca02c" stroke="none" paint-order="stroke fill markers" d=" M 163.8101836084644 542.215955937728 A 18.95241469333331 18.95241469333331 0 1 1 163.81017413225783 542.1970035261934"/><path fill="#2ca02c" stroke="none" paint-order="stroke fill markers" d=" M 213.29483134996352 560.6053586167923 A 18.95241469333328 18.95241469333328 0 1 1 213.29482187375697 560.5864062052576"/><path fill="#2ca02c" stroke="none" paint-order="stroke fill markers" d=" M 200.3330952288308 600.8274925975352 A 18.95241469333331 18.95241469333331 0 1 1 200.33308575262424 600.8085401860005"/><path fill="#2ca02c" stroke="none" paint-order="stroke fill markers" d=" M 203.27660915537462 655.8534173702742 A 29.726666666666688 29.726666666666688 0 1 1 203.27659429204252 655.8236907085619"/><path fill="#2ca02c" stroke="none" paint-order="stroke fill markers" d=" M 181.007140678645 596.9172632736286 A 29.726666666666688 29.726666666666688 0 1 1 181.0071258153129 596.8875366119163"/><path fill="#2ca02c" stroke="none" paint-order="stroke fill markers" d=" M 151.93216838712948 622.1182278324495 A 18.95241469333331 18.95241469333331 0 1 1 151.9321589109229 622.0992754209149"/><path fill="#2ca02c" stroke="none" paint-order="stroke fill markers" d=" M 116.72145165636789 606.2933979584627 A 18.95241469333331 18.95241469333331 0 1 1 116.72144218016133 606.2744455469281"/><path fill="#2ca02c" stroke="none" paint-order="stroke fill markers" d=" M 121.98385368327331 544.3085799224643 A 29.726666666666688 29.726666666666688 0 1 1 121.98383881994121 544.278853260752"/><path fill="#2ca02c" stroke="none" paint-order="stroke fill markers" d=" M 129.4752435789768 569.537148568138 A 18.95241469333331 18.95241469333331 0 1 1 129.47523410277023 569.5181961566034"/><path fill="#2ca02c" stroke="none" paint-order="stroke fill markers" d=" M 148.49917893857122 508.42655987623584 A 18.95241469333331 18.95241469333331 0 1 1 148.49916946236465 508.40760746470124"/><path fill="#1f77b4" stroke="none" paint-order="stroke fill markers" d=" M 67.263032214757 386.96457492217087 A 18.95241469333331 18.95241469333331 0 1 1 67.26302273855045 386.94562251063627"/><path fill="#1f77b4" stroke="none" paint-order="stroke fill markers" d=" M 33.0895689387786 364.1153454431608 A 18.95241469333331 18.95241469333331 0 1 1 33.08955946257204 364.0963930316262"/><path fill="#1f77b4" stroke="none" paint-order="stroke fill markers" d=" M -3.8287155754437663 375.89863525124883 A 18.95241469333331 18.95241469333331 0 1 1 -3.8287250516503235 375.87968283971423"/><path fill="#1f77b4" stroke="none" paint-order="stroke fill markers" d=" M 33.703192600898205 418.7500510751727 A 29.726666666666688 29.726666666666688 0 1 1 33.70317773756611 418.72032441346045"/><path fill="#1f77b4" stroke="none" paint-order="stroke fill markers" d=" M 13.456298343370577 482.30674970721793 A 29.726666666666688 29.726666666666688 0 1 1 13.456283480038483 482.2770230455057"/><path fill="#1f77b4" stroke="none" paint-order="stroke fill markers" d=" M 32.90428284108816 485.00881030809546 A 18.95241469333331 18.95241469333331 0 1 1 32.904273364881604 484.98985789656086"/><path fill="#1f77b4" stroke="none" paint-order="stroke fill markers" d=" M 39.62677747084666 445.13129653437795 A 18.95241469333331 18.95241469333331 0 1 1 39.626767994640105 445.11234412284335"/><path fill="#1f77b4" stroke="none" paint-order="stroke fill markers" d=" M 74.3273167137736 433.72515823047706 A 18.95241469333331 18.95241469333331 0 1 1 74.32730723756704 433.70620581894246"/><path fill="#1f77b4" stroke="none" paint-order="stroke fill markers" d=" M 93.05646087231838 485.6354234584444 A 29.72666666666663 29.72666666666663 0 1 1 93.05644600898628 485.60569679673216"/><path fill="#1f77b4" stroke="none" paint-order="stroke fill markers" d=" M 112.55805822138029 487.57992293077064 A 18.95241469333331 18.95241469333331 0 1 1 112.55804874517374 487.56097051923604"/><path fill="#1f77b4" stroke="none" paint-order="stroke fill markers" d=" M 124.9312556167622 448.4421708964246 A 18.95241469333331 18.95241469333331 0 1 1 124.93124614055564 448.42321848489"/><path fill="#1f77b4" stroke="none" paint-order="stroke fill markers" d=" M 114.48167788081759 425.86555661528587 A 29.726666666666688 29.726666666666688 0 1 1 114.48166301748549 425.83582995357364"/><path fill="#1f77b4" stroke="none" paint-order="stroke fill markers" d=" M 156.05608727899005 369.8389553349268 A 29.726666666666688 29.726666666666688 0 1 1 156.05607241565795 369.8092286732146"/><path fill="#1f77b4" stroke="none" paint-order="stroke fill markers" d=" M 156.82497134070258 423.5280649366539 A 18.95241469333331 18.95241469333331 0 1 1 156.824961864496 423.5091125251193"/><path fill="#1f77b4" stroke="none" paint-order="stroke fill markers" d=" M 125.2351163104367 255.30526914372444 A 18.95241469333331 18.95241469333331 0 1 1 125.23510683423014 255.28631673218985"/><path fill="#1f77b4" stroke="none" paint-order="stroke fill markers" d=" M 140.7884560840812 203.02574903021355 A 18.95241469333331 18.95241469333331 0 1 1 140.78844660787462 203.00679661867895"/><path fill="#1f77b4" stroke="none" paint-order="stroke fill markers" d=" M 129.2991859039937 224.48815754627662 A 29.726666666666688 29.726666666666688 0 1 1 129.2991710406616 224.4584308845644"/><path fill="#1f77b4" stroke="none" paint-order="stroke fill markers" d=" M 66.95561112557294 235.15003077732672 A 18.95241469333331 18.95241469333331 0 1 1 66.95560164936639 235.13107836579212"/><path fill="#1f77b4" stroke="none" paint-order="stroke fill markers" d=" M 68.42005575232957 205.07516100354974 A 29.726666666666688 29.726666666666688 0 1 1 68.42004088899748 205.0454343418375"/><path fill="#1f77b4" stroke="none" paint-order="stroke fill markers" d=" M 13.194942067433658 226.07509784036506 A 18.95241469333331 18.95241469333331 0 1 1 13.1949325912271 226.05614542883046"/><path fill="#1f77b4" stroke="none" paint-order="stroke fill markers" d=" M 39.55211957975939 271.5327797207174 A 29.726666666666688 29.726666666666688 0 1 1 39.552104716427294 271.50305305900514"/><path fill="#1f77b4" stroke="none" paint-order="stroke fill markers" d=" M 0.43368416477710525 282.78755433920264 A 18.95241469333331 18.95241469333331 0 1 1 0.43367468857054803 282.76860192766804"/><path fill="#1f77b4" stroke="none" paint-order="stroke fill markers" d=" M 34.45539364009181 334.07380236095946 A 29.726666666666688 29.726666666666688 0 1 1 34.455378776759716 334.04407569924723"/><path fill="#1f77b4" stroke="none" paint-order="stroke fill markers" d=" M 52.30618043745892 291.4772062232828 A 18.952414693333253 18.952414693333253 0 1 1 52.30617096125236 291.4582538117482"/><path fill="#1f77b4" stroke="none" paint-order="stroke fill markers" d=" M 89.53258647093958 268.7589433065732 A 18.95241469333331 18.95241469333331 0 1 1 89.53257699473302 268.7399908950386"/><path fill="#1f77b4" stroke="none" paint-order="stroke fill markers" d=" M 69.23244092697922 332.27023624266485 A 18.95241469333331 18.95241469333331 0 1 1 69.23243145077267 332.25128383113025"/><path fill="#1f77b4" stroke="none" paint-order="stroke fill markers" d=" M 94.17799602561081 360.20966515352325 A 29.726666666666688 29.726666666666688 0 1 1 94.17798116227871 360.179938491811"/><path fill="#1f77b4" stroke="none" paint-order="stroke fill markers" d=" M 305.51266645077544 306.3420988225589 A 18.95241469333331 18.95241469333331 0 1 1 305.51265697456887 306.3231464110243"/><path fill="#1f77b4" stroke="none" paint-order="stroke fill markers" d=" M 301.1683382372204 265.92543443652835 A 18.952414693333367 18.952414693333367 0 1 1 301.1683287610138 265.90648202499375"/><path fill="#1f77b4" stroke="none" paint-order="stroke fill markers" d=" M 346.1982150209745 228.55841589310057 A 29.72666666666663 29.72666666666663 0 1 1 346.1982001576424 228.52868923138834"/><path fill="#1f77b4" stroke="none" paint-order="stroke fill markers" d=" M 307.812327013325 215.47579949772603 A 18.95241469333331 18.95241469333331 0 1 1 307.8123175371184 215.45684708619143"/><path fill="#1f77b4" stroke="none" paint-order="stroke fill markers" d=" M 265.1653099218694 226.0638493495935 A 18.95241469333334 18.95241469333334 0 1 1 265.1653004456628 226.0448969380589"/><path fill="#1f77b4" stroke="none" paint-order="stroke fill markers" d=" M 282.8952800307792 256.8218215605575 A 29.72666666666666 29.72666666666666 0 1 1 282.8952651674471 256.7920948988453"/><path fill="#1f77b4" stroke="none" paint-order="stroke fill markers" d=" M 225.5243461009274 207.72719590074666 A 18.95241469333331 18.95241469333331 0 1 1 225.52433662472083 207.70824348921207"/><path fill="#1f77b4" stroke="none" paint-order="stroke fill markers" d=" M 175.04677979363373 222.90790179763394 A 18.95241469333331 18.95241469333331 0 1 1 175.04677031742716 222.88894938609934"/><path fill="#1f77b4" stroke="none" paint-order="stroke fill markers" d=" M 164.7463384619528 263.2967415935034 A 18.95241469333331 18.95241469333331 0 1 1 164.74632898574623 263.2777891819688"/><path fill="#1f77b4" stroke="none" paint-order="stroke fill markers" d=" M 215.26644582710713 230.4976522405841 A 29.726666666666688 29.726666666666688 0 1 1 215.26643096377504 230.46792557887187"/><path fill="#1f77b4" stroke="none" paint-order="stroke fill markers" d=" M 201.870017400076 341.57464378668624 A 18.95241469333331 18.95241469333331 0 1 1 201.87000792386942 341.55569137515164"/><path fill="#1f77b4" stroke="none" paint-order="stroke fill markers" d=" M 167.86398303012942 317.9330956103622 A 18.95241469333331 18.95241469333331 0 1 1 167.86397355392285 317.9141431988276"/><path fill="#1f77b4" stroke="none" paint-order="stroke fill markers" d=" M 192.21935285257194 289.6773496857827 A 29.726666666666688 29.726666666666688 0 1 1 192.21933798923985 289.64762302407047"/><path fill="#1f77b4" stroke="none" paint-order="stroke fill markers" d=" M 133.20657988431054 299.18319931990914 A 18.95241469333331 18.95241469333331 0 1 1 133.20657040810397 299.16424690837454"/><path fill="#1f77b4" stroke="none" paint-order="stroke fill markers" d=" M 130.19938161943384 342.4220881329893 A 18.95241469333331 18.95241469333331 0 1 1 130.19937214322727 342.4031357214547"/><path fill="#1f77b4" stroke="none" paint-order="stroke fill markers" d=" M 113.71315908956268 297.1051382573064 A 29.726666666666688 29.726666666666688 0 1 1 113.71314422623058 297.0754115955942"/><path fill="#1f77b4" stroke="none" paint-order="stroke fill markers" d=" M 331.3193260122723 416.03776968444254 A 18.952414693333367 18.952414693333367 0 1 1 331.31931653606574 416.01881727290794"/><path fill="#2ca02c" stroke="none" paint-order="stroke fill markers" d=" M 339.490333910927 468.5265704952219 A 29.726666666666688 29.726666666666688 0 1 1 339.49031904759494 468.4968438335097"/><path fill="#2ca02c" stroke="none" paint-order="stroke fill markers" d=" M 312.71306928769513 495.37109995785386 A 18.952414693333367 18.952414693333367 0 1 1 312.71305981148856 495.35214754631926"/><path fill="#1f77b4" stroke="none" paint-order="stroke fill markers" d=" M 290.6677936096411 426.1434501936062 A 18.952414693333367 18.952414693333367 0 1 1 290.6677841334345 426.1244977820716"/><path fill="#1f77b4" stroke="none" paint-order="stroke fill markers" d=" M 276.84445625399894 468.18777245277147 A 18.95241469333331 18.95241469333331 0 1 1 276.84444677779237 468.16882004123687"/><path fill="#1f77b4" stroke="none" paint-order="stroke fill markers" d=" M 257.3143751552792 469.56918941800313 A 29.72666666666663 29.72666666666663 0 1 1 257.31436029194714 469.5394627562909"/><path fill="#1f77b4" stroke="none" paint-order="stroke fill markers" d=" M 232.53634529285887 497.60013804377627 A 18.95241469333334 18.95241469333334 0 1 1 232.5363358166523 497.58118563224167"/><path fill="#1f77b4" stroke="none" paint-order="stroke fill markers" d=" M 238.5532567429153 419.2012175140869 A 18.95241469333334 18.95241469333334 0 1 1 238.55324726670875 419.1822651025523"/><path fill="#1f77b4" stroke="none" paint-order="stroke fill markers" d=" M 277.30849600900456 406.99994441388867 A 29.726666666666688 29.726666666666688 0 1 1 277.3084811456725 406.97021775217644"/><path fill="#1f77b4" stroke="none" paint-order="stroke fill markers" d=" M 252.33104316513567 356.81489617088255 A 18.95241469333334 18.95241469333334 0 1 1 252.3310336889291 356.79594375934795"/><path fill="#1f77b4" stroke="none" paint-order="stroke fill markers" d=" M 233.65165073622958 364.3698991293452 A 29.726666666666716 29.726666666666716 0 1 1 233.6516358728975 364.34017246763295"/><path fill="#1f77b4" stroke="none" paint-order="stroke fill markers" d=" M 227.48628664752164 276.21875038976054 A 18.95241469333334 18.95241469333334 0 1 1 227.48627717131507 276.19979797822594"/><path fill="#1f77b4" stroke="none" paint-order="stroke fill markers" d=" M 249.3663719318292 305.6246087332529 A 29.72666666666666 29.72666666666666 0 1 1 249.3663570684971 305.59488207154067"/><path fill="#1f77b4" stroke="none" paint-order="stroke fill markers" d=" M 268.5904596167743 310.3079760210294 A 18.952414693333367 18.952414693333367 0 1 1 268.5904501405677 310.2890236094948"/><path fill="#1f77b4" stroke="none" paint-order="stroke fill markers" d=" M 290.37486987874763 344.98506464219895 A 18.952414693333367 18.952414693333367 0 1 1 290.37486040254106 344.96611223066435"/><path fill="#1f77b4" stroke="none" paint-order="stroke fill markers" d=" M 346.60844257223675 305.4603627705467 A 29.726666666666688 29.726666666666688 0 1 1 346.6084277089047 305.43063610883445"/><path fill="#1f77b4" stroke="none" paint-order="stroke fill markers" d=" M 434.766702801945 297.31467186484633 A 29.726666666666688 29.726666666666688 0 1 1 434.7666879386129 297.2849452031341"/><path fill="#1f77b4" stroke="none" paint-order="stroke fill markers" d=" M 472.76492149298105 288.73684246923017 A 18.95241469333331 18.95241469333331 0 1 1 472.7649120167745 288.71789005769557"/><path fill="#1f77b4" stroke="none" paint-order="stroke fill markers" d=" M 463.84530352997234 368.999363211683 A 18.95241469333331 18.95241469333331 0 1 1 463.84529405376577 368.9804108001484"/><path fill="#1f77b4" stroke="none" paint-order="stroke fill markers" d=" M 422.0557105689794 359.1703171897534 A 18.95241469333331 18.95241469333331 0 1 1 422.05570109277284 359.1513647782188"/><path fill="#1f77b4" stroke="none" paint-order="stroke fill markers" d=" M 451.73257244937207 413.3254643205755 A 29.726666666666688 29.726666666666688 0 1 1 451.73255758604 413.2957376588633"/><path fill="#1f77b4" stroke="none" paint-order="stroke fill markers" d=" M 458.0028668098842 439.4649719198053 A 18.952414693333367 18.952414693333367 0 1 1 458.00285733367764 439.4460195082707"/><path fill="#1f77b4" stroke="none" paint-order="stroke fill markers" d=" M 447.5115414007553 478.55047810533256 A 18.95241469333331 18.95241469333331 0 1 1 447.5115319245487 478.53152569379796"/><path fill="#1f77b4" stroke="none" paint-order="stroke fill markers" d=" M 428.7105618769596 471.52986265697064 A 29.726666666666688 29.726666666666688 0 1 1 428.71054701362755 471.5001359952584"/><path fill="#1f77b4" stroke="none" paint-order="stroke fill markers" d=" M 397.31237822922407 494.7020078705093 A 18.95241469333331 18.95241469333331 0 1 1 397.3123687530175 494.6830554589747"/><path fill="#2ca02c" stroke="none" paint-order="stroke fill markers" d=" M 359.0337490017144 469.5420497007326 A 18.95241469333331 18.95241469333331 0 1 1 359.0337395255078 469.523097289198"/><path fill="#1f77b4" stroke="none" paint-order="stroke fill markers" d=" M 380.3335535925701 435.7470628509127 A 18.95241469333331 18.95241469333331 0 1 1 380.33354411636356 435.7281104393781"/><path fill="#1f77b4" stroke="none" paint-order="stroke fill markers" d=" M 372.06221148595125 411.15238059941044 A 29.726666666666688 29.726666666666688 0 1 1 372.0621966226192 411.1226539376982"/><path fill="#1f77b4" stroke="none" paint-order="stroke fill markers" d=" M 410.705979489237 415.6331157005368 A 18.95241469333331 18.95241469333331 0 1 1 410.7059700130304 415.6141632890022"/><path fill="#1f77b4" stroke="none" paint-order="stroke fill markers" d=" M 402.6363537987368 362.1998667719115 A 29.72666666666663 29.72666666666663 0 1 1 402.63633893540475 362.17014011019927"/><path fill="#1f77b4" stroke="none" paint-order="stroke fill markers" d=" M 341.51170630664404 357.54493655949045 A 18.95241469333331 18.95241469333331 0 1 1 341.5116968304375 357.52598414795585"/><path fill="#1f77b4" stroke="none" paint-order="stroke fill markers" d=" M 323.23715219063456 366.64336610788064 A 29.726666666666688 29.726666666666688 0 1 1 323.2371373273025 366.6136394461684"/><path fill="#1f77b4" stroke="none" paint-order="stroke fill markers" d=" M 430.14036037220257 66.41408614606166 A 18.95241469333331 18.95241469333331 0 1 1 430.140350895996 66.39513373452705"/><path fill="#1f77b4" stroke="none" paint-order="stroke fill markers" d=" M 462.9660311669683 44.09121837672137 A 18.952414693333367 18.952414693333367 0 1 1 462.96602169076175 44.072265965186766"/><path fill="#1f77b4" stroke="none" paint-order="stroke fill markers" d=" M 458.9949817067457 90.7673846125881 A 18.952414693333367 18.952414693333367 0 1 1 458.99497223053913 90.74843220105349"/><path fill="#1f77b4" stroke="none" paint-order="stroke fill markers" d=" M 455.03745529079015 118.39039973036802 A 29.726666666666688 29.726666666666688 0 1 1 455.0374404274581 118.36067306865577"/><path fill="#1f77b4" stroke="none" paint-order="stroke fill markers" d=" M 433.8716246316778 175.864801493781 A 18.952414693333367 18.952414693333367 0 1 1 433.8716151554712 175.8458490822464"/><path fill="#1f77b4" stroke="none" paint-order="stroke fill markers" d=" M 473.3990906803527 158.2632232783285 A 18.952414693333367 18.952414693333367 0 1 1 473.3990812041461 158.2442708667939"/><path fill="#1f77b4" stroke="none" paint-order="stroke fill markers" d=" M 488.69767826396463 189.50974635951297 A 29.726666666666688 29.726666666666688 0 1 1 488.69766340063256 189.48001969780074"/><path fill="#1f77b4" stroke="none" paint-order="stroke fill markers" d=" M 454.2100062792908 209.21481417563518 A 18.952414693333367 18.952414693333367 0 1 1 454.2099968030842 209.19586176410058"/><path fill="#1f77b4" stroke="none" paint-order="stroke fill markers" d=" M 437.5753097155956 246.5887551812557 A 18.95241469333331 18.95241469333331 0 1 1 437.57530023938904 246.5698027697211"/><path fill="#1f77b4" stroke="none" paint-order="stroke fill markers" d=" M 360.10550783296816 210.18880707011067 A 18.95241469333331 18.95241469333331 0 1 1 360.1054983567616 210.16985465857607"/><path fill="#1f77b4" stroke="none" paint-order="stroke fill markers" d=" M 386.57080703869985 259.71960879475387 A 18.952414693333367 18.952414693333367 0 1 1 386.5707975624933 259.70065638321927"/><path fill="#1f77b4" stroke="none" paint-order="stroke fill markers" d=" M 419.2087012137107 237.81561215924444 A 29.726666666666688 29.726666666666688 0 1 1 419.2086863503786 237.7858854975322"/><path fill="#1f77b4" stroke="none" paint-order="stroke fill markers" d=" M 393.97594972018294 301.8699882974561 A 18.952414693333367 18.952414693333367 0 1 1 393.97594024397637 301.8510358859215"/><path fill="#1f77b4" stroke="none" paint-order="stroke fill markers" d=" M 350.26195534773444 277.66374629263646 A 18.952414693333367 18.952414693333367 0 1 1 350.26194587152787 277.64479388110186"/><path fill="#1f77b4" stroke="none" paint-order="stroke fill markers" d=" M 374.24679877202766 336.4742969343308 A 18.952414693333367 18.952414693333367 0 1 1 374.2467892958211 336.4553445227962"/><path fill="#1f77b4" stroke="none" paint-order="stroke fill markers" d=" M 442.7875875182889 322.11757372441616 A 18.95241469333331 18.95241469333331 0 1 1 442.7875780420823 322.09862131288156"/><path fill="#1f77b4" stroke="none" paint-order="stroke fill markers" d=" M 261.0072123372143 44.52496794481999 A 18.95241469333334 18.95241469333334 0 1 1 261.0072028610077 44.506015533285385"/><path fill="#1f77b4" stroke="none" paint-order="stroke fill markers" d=" M 229.39642760152034 64.1095753931213 A 18.95241469333334 18.95241469333334 0 1 1 229.3964181253138 64.09062298158669"/><path fill="#1f77b4" stroke="none" paint-order="stroke fill markers" d=" M 259.3488875790234 88.31141514891601 A 18.95241469333334 18.95241469333334 0 1 1 259.34887810281685 88.2924627373814"/><path fill="#1f77b4" stroke="none" paint-order="stroke fill markers" d=" M 273.17588502766284 133.15355708634206 A 18.952414693333367 18.952414693333367 0 1 1 273.1758755514563 133.13460467480746"/><path fill="#1f77b4" stroke="none" paint-order="stroke fill markers" d=" M 232.44758874828673 121.82429705079949 A 18.95241469333334 18.95241469333334 0 1 1 232.4475792720802 121.80534463926487"/><path fill="#1f77b4" stroke="none" paint-order="stroke fill markers" d=" M 271.09695605075046 161.77645563533383 A 29.726666666666688 29.726666666666688 0 1 1 271.0969411874184 161.7467289736216"/><path fill="#1f77b4" stroke="none" paint-order="stroke fill markers" d=" M 277.6906533231562 187.6839048198276 A 18.952414693333367 18.952414693333367 0 1 1 277.6906438469496 187.664952408293"/><path fill="#1f77b4" stroke="none" paint-order="stroke fill markers" d=" M 310.03502065947316 136.69591226800912 A 18.952414693333253 18.952414693333253 0 1 1 310.0350111832666 136.67695985647453"/><path fill="#1f77b4" stroke="none" paint-order="stroke fill markers" d=" M 332.74901003025144 165.74497896266507 A 29.72666666666663 29.72666666666663 0 1 1 332.74899516691937 165.71525230095284"/><path fill="#1f77b4" stroke="none" paint-order="stroke fill markers" d=" M 352.09344467269074 169.4976112717668 A 18.95241469333331 18.95241469333331 0 1 1 352.09343519648417 169.4786588602322"/><path fill="#1f77b4" stroke="none" paint-order="stroke fill markers" d=" M 414.41496213964973 178.45936975563404 A 29.726666666666688 29.726666666666688 0 1 1 414.41494727631766 178.4296430939218"/><path fill="#1f77b4" stroke="none" paint-order="stroke fill markers" d=" M 386.36835917977197 152.4826524810535 A 18.95241469333331 18.95241469333331 0 1 1 386.3683497035654 152.4637000695189"/><path fill="#1f77b4" stroke="none" paint-order="stroke fill markers" d=" M 413.93398876046365 118.91105720977816 A 18.952414693333367 18.952414693333367 0 1 1 413.9339792842571 118.89210479824355"/><path fill="#1f77b4" stroke="none" paint-order="stroke fill markers" d=" M 370.6747817050209 114.38491533949764 A 18.952414693333367 18.952414693333367 0 1 1 370.67477222881433 114.36596292796303"/><path fill="#1f77b4" stroke="none" paint-order="stroke fill markers" d=" M 384.4022721618742 39.48185123010148 A 18.952414693333367 18.952414693333367 0 1 1 384.4022626856676 39.46289881856688"/><path fill="#1f77b4" stroke="none" paint-order="stroke fill markers" d=" M 410.58254423481753 66.70277020440335 A 29.726666666666688 29.726666666666688 0 1 1 410.58252937148546 66.6730435426911"/><path fill="#1f77b4" stroke="none" paint-order="stroke fill markers" d=" M 280.63894631112373 14.302196935489292 A 29.72666666666666 29.72666666666666 0 1 1 280.63893144779166 14.272470273777053"/><path fill="#1f77b4" stroke="none" paint-order="stroke fill markers" d=" M 299.4179665134243 7.181935461487228 A 18.952414693333367 18.952414693333367 0 1 1 299.4179570372177 7.1629830499526195"/><path fill="#1f77b4" stroke="none" paint-order="stroke fill markers" d=" M 358.19100422667765 -3.389712218288878 A 29.72666666666663 29.72666666666663 0 1 1 358.1909893633456 -3.4194388800011177"/><path fill="#1f77b4" stroke="none" paint-order="stroke fill markers" d=" M 336.1999486167513 25.970400481930938 A 18.95241469333331 18.95241469333331 0 1 1 336.19993914054476 25.951448070396328"/><path fill="#1f77b4" stroke="none" paint-order="stroke fill markers" d=" M 346.41079123117373 65.83862072779925 A 18.95241469333331 18.95241469333331 0 1 1 346.41078175496716 65.81966831626464"/><path fill="#1f77b4" stroke="none" paint-order="stroke fill markers" d=" M 355.8646773133057 97.40867065877728 A 29.726666666666688 29.726666666666688 0 1 1 355.86466244997365 97.37894399706504"/><path fill="#1f77b4" stroke="none" paint-order="stroke fill markers" d=" M 300.27016842356704 84.81449036641334 A 29.726666666666688 29.726666666666688 0 1 1 300.270153560235 84.78476370470109"/><path fill="#1f77b4" stroke="none" paint-order="stroke fill markers" d=" M 301.6623977076033 55.867707155568496 A 18.952414693333367 18.952414693333367 0 1 1 301.66238823139673 55.84875474403389"/><path fill="#1f77b4" stroke="none" paint-order="stroke fill markers" d=" M 461.21169274611754 1.273811206226128 A 18.95241469333331 18.95241469333331 0 1 1 461.21168326991096 1.2548587946915193"/><path fill="#1f77b4" stroke="none" paint-order="stroke fill markers" d=" M 428.07158870925934 24.06562228648363 A 18.952414693333367 18.952414693333367 0 1 1 428.0715792330528 24.04666987494902"/><path fill="#1f77b4" stroke="none" paint-order="stroke fill markers" d=" M 420.83632305565067 -1.3619936381701336 A 29.726666666666688 29.726666666666688 0 1 1 420.8363081923186 -1.3917202998823734"/><path fill="#1f77b4" stroke="none" paint-order="stroke fill markers" d=" M 77.16026827230172 23.35421908142689 A 29.726666666666688 29.726666666666688 0 1 1 77.16025340896962 23.32449241971465"/><path fill="#1f77b4" stroke="none" paint-order="stroke fill markers" d=" M 36.052804371096784 23.265127254286654 A 18.95241469333331 18.95241469333331 0 1 1 36.052794894890226 23.246174842752044"/><path fill="#1f77b4" stroke="none" paint-order="stroke fill markers" d=" M 31.629948785491877 -21.435683825363412 A 18.95241469333331 18.95241469333331 0 1 1 31.62993930928532 -21.454636236898022"/><path fill="#1f77b4" stroke="none" paint-order="stroke fill markers" d=" M 12.070893797711676 -21.47694038206464 A 29.726666666666688 29.726666666666688 0 1 1 12.070878934379582 -21.50666704377688"/><path fill="#1f77b4" stroke="none" paint-order="stroke fill markers" d=" M -0.3463864447533638 29.581905602914958 A 18.95241469333331 18.95241469333331 0 1 1 -0.346395920959921 29.56295319138035"/><path fill="#1f77b4" stroke="none" paint-order="stroke fill markers" d=" M 154.60427657563963 89.38399251602709 A 29.726666666666688 29.726666666666688 0 1 1 154.60426171230753 89.35426585431485"/><path fill="#1f77b4" stroke="none" paint-order="stroke fill markers" d=" M 116.19378208948626 76.35787980420332 A 18.95241469333331 18.95241469333331 0 1 1 116.1937726132797 76.33892739266871"/><path fill="#1f77b4" stroke="none" paint-order="stroke fill markers" d=" M 115.55701465998686 -3.035194746907564 A 18.95241469333331 18.95241469333331 0 1 1 115.5570051837803 -3.0541471584421727"/><path fill="#1f77b4" stroke="none" paint-order="stroke fill markers" d=" M 136.72018976168346 26.653659269777336 A 29.726666666666688 29.726666666666688 0 1 1 136.72017489835136 26.623932608065097"/><path fill="#1f77b4" stroke="none" paint-order="stroke fill markers" d=" M 155.8210799235942 32.12531294295013 A 18.95241469333331 18.95241469333331 0 1 1 155.82107044738763 32.106360531415525"/><path fill="#1f77b4" stroke="none" paint-order="stroke fill markers" d=" M 177.05331365337594 1.1667392054009724 A 18.95241469333331 18.95241469333331 0 1 1 177.05330417716937 1.1477867938663637"/><path fill="#1f77b4" stroke="none" paint-order="stroke fill markers" d=" M 216.27368177085012 11.111542892841499 A 18.95241469333334 18.95241469333334 0 1 1 216.27367229464357 11.09259048130689"/><path fill="#1f77b4" stroke="none" paint-order="stroke fill markers" d=" M -0.0118175935838849 84.31360043501809 A 18.95241469333331 18.95241469333331 0 1 1 -0.011827069790442124 84.29464802348348"/><path fill="#1f77b4" stroke="none" paint-order="stroke fill markers" d=" M 62.18118103975678 95.64623407871477 A 29.726666666666688 29.726666666666688 0 1 1 62.18116617642468 95.61650741700252"/><path fill="#1f77b4" stroke="none" paint-order="stroke fill markers" d=" M 37.60834473469362 67.50506452133459 A 18.95241469333331 18.95241469333331 0 1 1 37.60833525848706 67.48611210979998"/><path fill="#1f77b4" stroke="none" paint-order="stroke fill markers" d=" M 81.47855829763017 50.765059181864444 A 18.95241469333331 18.95241469333331 0 1 1 81.47854882142362 50.74610677032984"/><path fill="#1f77b4" stroke="none" paint-order="stroke fill markers" d=" M 81.70029432978623 97.26788627543851 A 18.95241469333331 18.95241469333331 0 1 1 81.70028485357967 97.2489338639039"/><path fill="#1f77b4" stroke="none" paint-order="stroke fill markers" d=" M 79.67915310210253 141.05947620435563 A 18.95241469333331 18.95241469333331 0 1 1 79.67914362589597 141.04052379282103"/><path fill="#1f77b4" stroke="none" paint-order="stroke fill markers" d=" M 77.99247964234968 181.63852129285397 A 18.95241469333331 18.95241469333331 0 1 1 77.99247016614312 181.61956888131937"/><path fill="#1f77b4" stroke="none" paint-order="stroke fill markers" d=" M 120.75160695743716 139.53904075688433 A 29.726666666666688 29.726666666666688 0 1 1 120.75159209410506 139.5093140951721"/><path fill="#1f77b4" stroke="none" paint-order="stroke fill markers" d=" M 126.39041037123508 166.1135313786035 A 18.95241469333331 18.95241469333331 0 1 1 126.39040089502852 166.0945789670689"/><path fill="#1f77b4" stroke="none" paint-order="stroke fill markers" d=" M 160.4323394835701 155.48819938725524 A 18.95241469333331 18.95241469333331 0 1 1 160.43233000736353 155.46924697572064"/><path fill="#1f77b4" stroke="none" paint-order="stroke fill markers" d=" M 194.97937119004445 175.11549223704105 A 29.726666666666688 29.726666666666688 0 1 1 194.97935632671235 175.08576557532882"/><path fill="#1f77b4" stroke="none" paint-order="stroke fill markers" d=" M 212.40789954597858 163.4815958512895 A 18.95241469333331 18.95241469333331 0 1 1 212.407890069772 163.4626434397549"/><path fill="#1f77b4" stroke="none" paint-order="stroke fill markers" d=" M 179.91645624504935 122.76390537142765 A 18.95241469333331 18.95241469333331 0 1 1 179.91644676884277 122.74495295989304"/><path fill="#1f77b4" stroke="none" paint-order="stroke fill markers" d=" M 216.69590545910614 106.49642892542897 A 29.726666666666688 29.726666666666688 0 1 1 216.69589059577405 106.46670226371673"/><path fill="#1f77b4" stroke="none" paint-order="stroke fill markers" d=" M 218.92335128820173 41.55695788591197 A 29.726666666666688 29.726666666666688 0 1 1 218.92333642486963 41.52723122419973"/><path fill="#1f77b4" stroke="none" paint-order="stroke fill markers" d=" M 168.4769005229731 70.96393212312864 A 18.95241469333331 18.95241469333331 0 1 1 168.47689104676653 70.94497971159403"/><path fill="#1f77b4" stroke="none" paint-order="stroke fill markers" d=" M 12.81730259644388 180.8101379805562 A 18.95241469333331 18.95241469333331 0 1 1 12.817293120237323 180.7911855690216"/><path fill="#1f77b4" stroke="none" paint-order="stroke fill markers" d=" M 38.25569737398075 153.148090868076 A 29.726666666666688 29.726666666666688 0 1 1 38.255682510648654 153.11836420636376"/><path fill="#1f77b4" stroke="none" paint-order="stroke fill markers" d=" M 11.817743862754924 126.08723929101598 A 18.95241469333331 18.95241469333331 0 1 1 11.817734386548366 126.06828687948136"/></g></g></g><g/><g/><g/><g clip-path="url(#EeDVTlxPRMNy)"><g/></g></g></g></svg>