<svg class="marks" width="754" height="465" viewBox="0 0 754 465" version="1.1" xmlns="http://www.w3.org/2000/svg" xmlns:xlink="http://www.w3.org/1999/xlink"><rect width="754" height="465" style="fill: white;"></rect><g transform="translate(63,13)"><g class="mark-group role-frame root"><g transform="translate(0,0)"><path class="background" d="M0.5,0.5h600v400h-600Z" style="fill: none; stroke: #ddd;"></path><g><g class="mark-group role-scope pathgroup"><g transform="translate(0,0)"><path class="background" d="M0,0h600v400h-600Z" style="fill: none;"></path><g><g class="mark-line role-mark marks"><path d="M551.4099426912834,371.5525793650762L551.14234255467,288.7896825396703L550.8747424180566,203.69543650791488L550.6071422814432,134.7718253967962L550.3395421448297,82.24206349220486L550.0719420082163,38.616071428531654L549.8043418716029,21.94940476186315L549.5367417349894,4.141865079321462L549.269141598376,3.546626984083275L549.0015414617625,8.581349206523328L548.7339413251492,18.154761904719862L548.4663411885357,38.938492063452316L548.1987410519223,41.542658730119285L547.931140915309,54.985119047581065L547.6635407786955,79.01785714299996L547.3959406420819,94.51884920631556L547.1283405054686,109.84623015869818L546.8607403688552,129.2410714285416L546.5931402322418,144.81646825394017L546.3255400956284,162.772817460423L546.0579399590148,177.72817460315014L545.7903398224013,192.28670634918345L545.522739685788,201.6617063491845L545.2551395491746,216.12103174601148L544.9875394125612,229.0674603175364L544.7199392759477,235.68948412696605L544.4523391393343,248.43749999998332L544.1847390027209,261.03670634919104L543.9171388661075,262.57440476188964L543.649538729494,273.4375000000563L543.3819385928805,284.05257936506655L543.1143384562671,289.2609126984005L542.8467383196537,293.1795634920517L542.5791381830403,301.86011904760824L542.3115380464268,306.0763888889307L542.0439379098134,310.24305555554565L541.7763377732,315.07936507935574L541.5087376365866,321.23015873015004L541.2411374999732,326.736111111103L540.9735373633597,329.8859126984439L540.7059372267462,332.5892857142783L540.4383370901328,338.64087301586625L540.1707369535194,341.9890873015809L539.903136816906,345.188492063486L539.6355366802925,346.32936507938894L539.3679365436791,350.1984126984072L539.1003364070657,352.85218253967736L538.8327362704522,355.65476190475704L538.5651361338388,358.85416666666214L538.2975359972254,359.99503968253526L538.029935860612,359.7470238095417L537.7623357239985,363.4672619047579L537.4947355873851,364.1617063492024L537.2271354507717,366.3194444444407L536.9595353141583,368.52678571428225L536.6919351775449,370.1140873016006L536.4243350409313,371.7013888888858L536.156734904318,373.1646825396796L535.8891347677045,373.71031746031457L535.6215346310912,374.77678571428294L535.3539344944777,377.97619047620026L535.0863343578643,376.06646825396564L534.8187342212508,378.8194444444421L534.5511340846374,378.645833333331L534.283533948024,380.6795634920614L534.0159338114106,381.89484126984934L533.748333674797,381.12599206349L533.4807335381837,382.24206349206156L533.2131334015702,383.45734126983945L532.9455332649569,384.1765873015856L532.6779331283433,386.2103174603236L532.4103329917299,385.98710317460166L532.1427328551165,386.5327380952366L531.8751327185031,386.9791666666652L531.6075325818896,387.177579365078L531.3399324452762,387.59920634921184L531.0723323086627,388.69047619047495L530.8047321720494,388.98809523809405L530.537132035436,388.8144841269829L530.2695318988226,389.6081349206338L530.0019317622091,389.6329365079411L529.7343316255956,390.0545634920624L529.4667314889821,391.0218253968244L529.1991313523688,390.7738095238085L528.9315312157554,392.38591269841186L528.6639310791419,392.43551587301926L528.3963309425285,392.9563492063484L528.1287308059151,392.4603174603166L527.8611306693016,393.3283730158723L527.5935305326882,393.22916666666595L527.3259303960748,394.0476190476217L527.0583302594613,393.89880952380884L526.7907301228479,393.65079365079293L526.5231299862345,394.7668650793645L526.2555298496211,394.8660714285709L525.9879297130076,394.4940476190501L525.7203295763942,394.7668650793645L525.4527294397808,395.3124999999995L525.1851293031673,395.23809523809473L524.9175291665539,394.89087301587244L524.6499290299405,395.33730158730367L524.382328893327,396.2549603174599L524.1147287567136,396.006944444444L523.8471286201002,395.83333333333286L523.5795284834869,396.72619047619014L523.3119283468733,396.8501984126998L523.0443282102598,396.7757936507933L522.7767280736464,396.552579365079L522.509127937033,396.3541666666663L522.2415278004196,397.17261904761875L521.9739276638062,396.70138888889034L521.7063275271927,397.519841269841L521.4387273905794,397.2966269841267L521.1711272539659,397.66865079365056L520.9035271173525,397.7926587301585L520.635926980739,397.3958333333345L520.3683268441255,397.5446428571426L520.1007267075121,397.9662698412696L519.8331265708988,397.91666666666646L519.5655264342853,398.13988095238074L519.2979262976719,397.86706349206446L519.0303261610584,397.89186507936483L518.762726024445,398.2390873015871L518.4951258878315,398.3134920634919L518.2275257512182,398.2142857142855L517.9599256146047,398.0902777777786L517.6923254779913,398.611111111111L517.4247253413778,398.487103174603L517.1571252047645,398.5367063492062L516.8895250681511,398.38789682539664L516.6219249315376,398.5615079365086L516.3543247949241,398.611111111111L516.0867246583107,398.7599206349205L515.8191245216973,398.7847222222221L515.5515243850839,398.8095238095237L515.2839242484705,398.80952380952436L515.016324111857,398.8591269841269L514.7487239752436,399.1071428571428L514.4811238386301,398.8591269841269L514.2135237020168,399.18154761904754L513.9459235654033,399.00793650793696L513.6783234287898,398.88392857142844L513.4107232921764,399.0575396825396L513.143123155563,399.08234126984115L512.8755230189496,399.3055555555555L512.6079228823361,399.3799603174606L512.3403227457226,399.3551587301587L512.0727226091093,399.13194444444434L511.8051224724958,399.28075396825386L511.5375223358824,399.47916666666663L511.26992219926893,399.4295634920637L511.0023220626555,399.57837301587296L510.7347219260421,399.2063492063491L510.46712178942875,399.6031746031746L510.1995216528153,399.5039682539682L509.93192151620184,399.5783730158732L509.6643213795883,399.47916666666663L509.3967212429749,399.4047619047618L509.1291211063615,399.37996031746025L508.86152096974814,399.6527777777777L508.59392083313463,399.52876984127005L508.32632069652124,399.4047619047618L508.0587205599078,399.47916666666663L507.7911204232944,399.6031746031746L507.52352028668093,399.7023809523809L507.25592015006754,399.4791666666669L506.98832001345403,399.5535714285714L506.72071987684063,399.8511904761905L506.4531197402272,399.57837301587296L506.18551960361384,399.6031746031746L505.91791946700033,399.65277777777794L505.6503193303869,399.67757936507934L505.3827191937735,399.5535714285714L505.11511905716003,399.77678571428567L504.8475189205467,399.77678571428567L504.5799187839332,399.7023809523811L504.3123186473198,399.6031746031746L504.04471851070633,399.8015873015873L503.777118374093,399.7519841269841L503.50951823747954,399.7519841269841L503.24191810086614,399.72718253968253L502.97431796425263,399.5783730158732L502.7067178276392,399.77678571428567L502.43911769102573,399.6527777777777L502.1715175544124,399.8015873015873L501.90391741779894,399.67757936507934L501.6363172811855,399.8015873015874L501.36871714457203,399.8015873015873L501.10111700795863,399.82638888888886L500.8335168713452,399.72718253968253L500.56591673473184,399.9007936507936L500.2983165981184,399.8015873015874L500.0307164615049,399.77678571428567L499.7631163248914,399.9007936507936L499.4955161882781,399.7519841269841L499.2279160516647,399.9007936507936L498.9603159150512,399.8759920634921L498.6927157784377,399.9007936507936L498.4251156418243,399.87599206349205L498.1575155052109,399.87599206349205L497.8899153685975,399.87599206349205L497.62231523198403,399.82638888888897L497.3547150953706,399.77678571428567L497.0871149587572,399.77678571428567L496.8195148221438,399.82638888888886L496.55191468553033,399.82638888888886L496.2843145489169,399.82638888888897L496.01671441230343,399.87599206349205L495.74911427569,399.8511904761905L495.4815141390766,399.92559523809524L495.21391400246324,399.9007936507936L494.94631386584973,399.9255952380953L494.67871372923634,399.87599206349205L494.4111135926229,399.87599206349205L494.1435134560095,399.9503968253968L493.87591331939603,399.82638888888886L493.60831318278264,399.8759920634921L493.3407130461691,399.97519841269843L493.07311290955573,399.9007936507936L492.80551277294234,399.9503968253968L492.53791263632894,399.9007936507936L492.27031249971543,399.9255952380953L492.002712363102,399.92559523809524L491.7351122264885,399.87599206349205L491.46751208987513,399.9503968253968L491.19991195326173,399.9503968253968L490.9323118166483,399.95039682539687L490.39711154342143,399.9007936507936L490.1295114068081,399.92559523809524L489.8619112701946,399.97519841269843L489.5943111335812,399.95039682539687L489.3267109969676,399.92559523809524L489.0591108603542,399.97519841269843L488.7915107237408,399.97519841269843L488.5239105871275,399.92559523809524L488.2563104505139,399.95039682539687L487.9887103139006,399.9007936507936L487.45351004067373,399.92559523809524L487.1859099040603,399.9503968253968L486.9183097674469,399.95039682539687L486.38310949422,399.9007936507936L486.1155093576065,399.9503968253968L485.8479092209932,399.97519841269843L485.0451088111528,399.92559523809524L484.7775086745394,399.97519841269843L484.50990853792604,399.9503968253968L483.97470826469913,399.97519841269843L483.7071081280857,399.97519841269843L483.43950799147234,399.97519841269843L483.17190785485883,399.97519841269843L482.90430771824543,399.9255952380953L482.63670758163187,399.9503968253968L482.3691074450185,399.97519841269843L481.56630703517817,399.97519841269843L481.29870689856483,399.97519841269843L480.763506625338,399.92559523809524L480.49590648872453,399.97519841269843L479.6931060788842,399.9503968253968L478.89030566904387,399.97519841269843L478.35510539581696,399.97519841269843L478.0875052592036,399.97519841269843L477.8199051225902,399.97519841269843L477.0171047127499,399.97519841269843L476.4819044395231,399.97519841269843L476.2143043029096,399.97519841269843L475.6791040296828,399.97519841269843L474.07350321000223,399.97519841269843L473.80590307338883,399.9503968253968L473.5383029367754,399.97519841269843L472.7355025269351,399.97519841269843L472.2003022537082,399.97519841269843L471.9327021170947,399.97519841269843L471.6651019804812,399.97519841269843L471.1299017072545,399.97519841269843L470.862301570641,399.95039682539687L470.59470143402757,399.9503968253968L469.25670075096036,399.97519841269843L466.31309924821267,399.97519841269843L466.0454991115993,399.97519841269843L464.9750985651455,399.97519841269843L464.7074984285321,399.97519841269843L464.4398982919187,399.97519841269843L464.17229815530527,399.97519841269843L463.6370978820785,399.97519841269843L462.8342974722382,399.97519841269843L462.5666973356248,399.97519841269843L462.2990971990112,399.97519841269843L459.3554956962636,399.97519841269843L459.0878955596502,399.9503968253968L458.5526952864232,399.97519841269843L458.28509514980976,399.97519841269843L456.94709446674267,399.97519841269843L455.34149364706207,399.92559523809524L454.0034929639949,399.97519841269843L452.3978921443144,399.97519841269843L451.8626918710875,399.97519841269843L451.595091734474,399.87599206349205L451.32749159786056,399.9503968253968L451.0598914612472,399.9503968253968L450.52469118802037,399.95039682539687L450.2570910514069,399.97519841269843L449.9894909147935,399.97519841269843L449.4542906415667,399.9503968253968L448.383890095113,399.92559523809524L448.1162899584995,399.97519841269843L447.848689821886,399.97519841269843L447.58108968527256,399.97519841269843L447.3134895486592,399.97519841269843L447.04588941204577,399.97519841269843L446.5106891388189,399.97519841269843L446.24308900220547,399.97519841269843L445.975488865592,399.97519841269843L445.7078887289787,399.97519841269843L444.63748818252486,399.97519841269843L444.10228790929807,399.92559523809524L443.56708763607116,399.9503968253968L442.76428722623086,399.92559523809524L440.35588599671,399.97519841269843L440.0882858600966,399.97519841269843L439.82068572348317,399.97519841269843L439.5530855868697,399.97519841269843L439.28548545025626,399.9503968253968L438.7502851770295,399.9503968253968L438.482685040416,399.97519841269843L437.9474847671891,399.97519841269843L436.07428381089517,399.97519841269843L431.7926816250803,399.97519841269843L425.9054786195848,399.97519841269843L425.10267820974457,399.97519841269843L423.2294772534505,399.97519841269843L421.6238764337699,399.97519841269843L354.7238422804124,399.97519841269843L349.63943968475735,399.97519841269843L348.3014390016901,399.97519841269843L339.4706344934468,399.97519841269843L337.32983340053954,399.97519841269843L192.29055935606044,399.97519841269843L191.48775894622008,399.97519841269843L181.05135361829642,399.97519841269843L178.10775211554864,399.97519841269843L167.9389469242383,399.97519841269843L157.7701417329279,399.97519841269843L156.43214104986077,399.97519841269843L154.29133995695338,399.97519841269843L154.02373982033993,399.97519841269843L153.22093941049968,399.97519841269843L152.15053886404593,399.97519841269843L148.93933722468478,399.97519841269843L148.13653681484442,399.97519841269843L133.68612943771927,399.97519841269843L128.86932697867752,399.97519841269843L127.26372615899699,399.97519841269843L121.64412329011489,399.97519841269843L120.03852247043427,399.97519841269843" style="fill: none; stroke: #f58518; stroke-width: 2;"></path></g></g></g><g transform="translate(0,0)"><path class="background" d="M0,0h600v400h-600Z" style="fill: none;"></path><g><g class="mark-line role-mark marks"><path d="M549.269141598376,399.84L547.6635407786955,399.8400000000001L546.8607403688552,399.84L546.5931402322418,399.5199999999999L546.3255400956284,399.6800000000001L546.0579399590148,399.84L545.7903398224013,399.84L545.522739685788,399.84L545.2551395491746,399.67999999999995L544.1847390027209,399.84L543.1143384562671,399.84L542.5791381830403,399.84L542.0439379098134,399.84L541.7763377732,399.5199999999999L541.5087376365866,399.84L540.9735373633597,399.6800000000001L539.6355366802925,399.6800000000001L539.3679365436791,399.84L539.1003364070657,399.84L538.8327362704522,399.84L538.2975359972254,399.67999999999995L537.4947355873851,399.5199999999999L537.2271354507717,399.5199999999999L536.9595353141583,399.84L536.4243350409313,399.5199999999999L535.6215346310912,399.84L535.3539344944777,399.8400000000001L534.5511340846374,399.84L534.283533948024,399.84L534.0159338114106,399.6800000000001L532.9455332649569,399.84L532.6779331283433,399.6800000000001L532.4103329917299,399.84L532.1427328551165,399.84L531.3399324452762,399.8400000000001L531.0723323086627,399.5199999999999L530.537132035436,399.84L530.2695318988226,399.84L529.4667314889821,399.67999999999995L528.6639310791419,399.8400000000001L528.3963309425285,399.84L528.1287308059151,399.5199999999999L527.3259303960748,399.8400000000001L526.5231299862345,399.84L526.2555298496211,399.84L525.7203295763942,399.84L525.4527294397808,399.67999999999995L524.9175291665539,399.84L524.382328893327,399.84L523.8471286201002,399.67999999999995L523.5795284834869,399.84L523.3119283468733,399.6800000000001L523.0443282102598,399.84L522.509127937033,399.84L522.2415278004196,399.84L521.4387273905794,399.84L521.1711272539659,399.84L520.9035271173525,399.84L520.3683268441255,399.84L520.1007267075121,399.84L519.0303261610584,399.67999999999995L518.2275257512182,399.35999999999996L517.6923254779913,399.67999999999995L517.4247253413778,399.84L517.1571252047645,399.67999999999995L516.3543247949241,399.84L516.0867246583107,399.84L515.8191245216973,399.67999999999995L515.5515243850839,399.5199999999999L515.2839242484705,399.8400000000001L515.016324111857,399.35999999999996L514.7487239752436,399.84L514.2135237020168,399.67999999999995L513.6783234287898,399.84L513.4107232921764,399.84L512.8755230189496,399.84L512.6079228823361,399.8400000000001L512.0727226091093,399.5199999999999L511.8051224724958,399.84L511.5375223358824,399.84L511.26992219926893,399.8400000000001L511.0023220626555,399.84L510.7347219260421,399.5199999999999L510.46712178942875,399.5199999999999L509.93192151620184,399.8400000000001L509.6643213795883,399.67999999999995L509.3967212429749,399.84L509.1291211063615,399.67999999999995L508.86152096974814,399.67999999999995L508.59392083313463,399.6800000000001L508.32632069652124,399.67999999999995L507.7911204232944,399.5199999999999L507.52352028668093,399.5199999999999L506.98832001345403,399.84L506.72071987684063,399.84L506.4531197402272,399.5199999999999L506.18551960361384,399.5199999999999L505.91791946700033,399.8400000000001L505.3827191937735,399.67999999999995L505.11511905716003,399.67999999999995L504.8475189205467,399.84L504.5799187839332,399.8400000000001L504.04471851070633,399.5199999999999L503.777118374093,399.5199999999999L503.50951823747954,399.84L503.24191810086614,399.84L502.97431796425263,399.5200000000002L502.43911769102573,399.67999999999995L502.1715175544124,399.35999999999996L501.90391741779894,399.67999999999995L501.6363172811855,399.8400000000001L501.36871714457203,399.5199999999999L501.10111700795863,399.84L500.8335168713452,399.67999999999995L500.56591673473184,399.67999999999995L500.2983165981184,399.3600000000003L500.0307164615049,399.5199999999999L499.7631163248914,399.5199999999999L499.4955161882781,399.84L499.2279160516647,399.67999999999995L498.9603159150512,399.6800000000001L498.6927157784377,399.5199999999999L498.4251156418243,399.84L497.8899153685975,399.67999999999995L497.62231523198403,399.5200000000002L497.3547150953706,399.5199999999999L497.0871149587572,399.67999999999995L496.8195148221438,399.84L496.55191468553033,399.67999999999995L496.2843145489169,399.6800000000001L495.74911427569,399.67999999999995L494.94631386584973,399.3600000000003L494.67871372923634,399.5199999999999L494.1435134560095,399.67999999999995L493.87591331939603,399.5199999999999L493.60831318278264,399.3600000000003L493.3407130461691,399.84L493.07311290955573,399.35999999999996L492.80551277294234,399.67999999999995L492.53791263632894,399.84L492.27031249971543,399.5200000000002L492.002712363102,399.35999999999996L491.46751208987513,399.35999999999996L491.19991195326173,399.67999999999995L490.9323118166483,399.6800000000001L490.6647116800348,399.84L490.39711154342143,399.5199999999999L490.1295114068081,399.67999999999995L489.8619112701946,399.35999999999996L489.5943111335812,399.8400000000001L489.3267109969676,399.19999999999993L489.0591108603542,399.67999999999995L488.7915107237408,399.35999999999996L488.5239105871275,399.35999999999996L488.2563104505139,399.20000000000033L487.9887103139006,399.5199999999999L487.7211101772871,399.84L487.45351004067373,399.67999999999995L487.1859099040603,399.19999999999993L486.9183097674469,399.3600000000003L486.6507096308334,399.19999999999993L486.38310949422,399.5199999999999L486.1155093576065,399.5199999999999L485.8479092209932,399.67999999999995L485.5803090843797,399.8400000000001L485.3127089477662,399.67999999999995L484.7775086745394,399.35999999999996L484.50990853792604,399.67999999999995L484.2423084013125,399.8400000000001L483.97470826469913,399.35999999999996L483.7071081280857,399.67999999999995L483.43950799147234,399.5199999999999L483.17190785485883,399.0399999999999L482.90430771824543,399.6800000000001L482.63670758163187,399.35999999999996L482.3691074450185,399.67999999999995L482.1015073084051,399.0399999999999L481.83390717179174,399.5199999999999L481.56630703517817,399.20000000000033L481.29870689856483,399.5199999999999L481.0311067619513,399.84L480.763506625338,399.5199999999999L480.49590648872453,399.35999999999996L480.22830635211113,399.6800000000001L479.96070621549757,399.19999999999993L479.6931060788842,399.19999999999993L479.4255059422708,399.84L479.15790580565744,399.67999999999995L478.89030566904387,399.5200000000002L478.6227055324305,399.0399999999999L478.35510539581696,399.84L478.0875052592036,398.71999999999986L477.8199051225902,399.19999999999993L477.5523049859768,399.20000000000033L477.2847048493633,399.67999999999995L477.0171047127499,399.5199999999999L476.74950457613653,399.5199999999999L476.4819044395231,399.84L476.2143043029096,399.8400000000001L475.9467041662961,399.0399999999999L475.6791040296828,399.19999999999993L475.4115038930693,399.35999999999996L475.1439037564559,398.8799999999999L474.8763036198424,399.3600000000003L474.6087034832291,398.55999999999983L474.34110334661557,399.5199999999999L474.07350321000223,399.67999999999995L473.80590307338883,399.5199999999999L473.5383029367754,399.20000000000033L473.2707028001618,399.67999999999995L473.0031026635485,399.67999999999995L472.7355025269351,399.35999999999996L472.4679023903217,399.5199999999999L472.2003022537082,399.0400000000004L471.9327021170947,399.0399999999999L471.6651019804812,398.8799999999999L471.3975018438679,399.35999999999996L471.1299017072545,399.0399999999999L470.862301570641,399.20000000000033L470.59470143402757,399.0399999999999L470.3271012974142,399.67999999999995L470.0595011608008,399.19999999999993L469.7919010241873,399.67999999999995L469.5243008875739,398.5600000000006L469.25670075096036,399.19999999999993L468.98910061434697,398.71999999999986L468.72150047773357,399.0399999999999L468.4539003411202,398.8799999999999L468.18630020450684,399.19999999999993L467.91870006789327,399.0400000000004L467.6510999312799,399.67999999999995L467.3834997946664,398.71999999999986L467.1158996580531,399.0399999999999L466.84829952143957,399.0399999999999L466.58069938482623,399.3600000000003L466.31309924821267,398.3999999999998L466.0454991115993,399.67999999999995L465.7778989749859,399.5199999999999L465.51029883837253,399.0399999999999L465.24269870175897,399.0400000000004L464.9750985651455,399.5199999999999L464.7074984285321,399.84L464.4398982919187,399.0399999999999L464.17229815530527,399.35999999999996L463.9046980186919,398.8800000000005L463.6370978820785,399.19999999999993L463.369497745465,398.3999999999998L463.10189760885163,399.35999999999996L462.8342974722382,399.35999999999996L462.5666973356248,398.5600000000006L462.2990971990112,399.19999999999993L462.0314970623979,398.3999999999998L461.7638969257844,397.75999999999976L461.4962967891711,398.2399999999998L461.2286966525575,398.8800000000005L460.9610965159441,399.67999999999995L460.69349637933067,398.71999999999986L460.42589624271733,398.55999999999983L460.1582961061038,398.8799999999999L459.8906959694905,398.8800000000005L459.6230958328769,398.2399999999998L459.3554956962636,398.3999999999998L459.0878955596502,398.55999999999983L458.8202954230368,398.2399999999998L458.5526952864232,399.3600000000003L458.28509514980976,398.8799999999999L458.0174950131963,399.0399999999999L457.74989487658297,398.8799999999999L457.4822947399696,398.3999999999998L457.2146946033561,399.5200000000002L456.94709446674267,399.0399999999999L456.6794943301293,399.19999999999993L456.4118941935158,398.71999999999986L456.1442940569024,398.71999999999986L455.876693920289,397.9200000000009L455.60909378367546,398.8799999999999L455.34149364706207,398.71999999999986L455.07389351044867,398.2399999999998L454.8062933738353,398.3999999999998L454.53869323722176,397.9200000000009L454.27109310060837,397.9199999999998L454.0034929639949,397.75999999999976L453.7358928273815,397.75999999999976L453.46829269076807,398.3999999999998L453.20069255415467,398.08000000000084L452.93309241754116,397.4399999999997L452.6654922809278,396.95999999999964L452.3978921443144,399.35999999999996L452.130292007701,397.9199999999998L451.8626918710875,397.44000000000113L451.595091734474,397.9199999999998L451.32749159786056,397.11999999999966L451.0598914612472,398.2399999999998L450.7922913246338,398.71999999999986L450.52469118802037,398.08000000000084L450.2570910514069,397.4399999999997L449.9894909147935,398.8799999999999L449.72189077818007,397.75999999999976L449.4542906415667,397.59999999999974L449.1866905049532,398.5600000000006L448.9190903683397,398.55999999999983L448.6514902317263,398.0799999999998L448.383890095113,397.4399999999997L448.1162899584995,398.0799999999998L447.848689821886,398.7200000000006L447.58108968527256,397.9199999999998L447.3134895486592,398.8799999999999L447.04588941204577,397.4399999999997L446.77828927543237,398.2399999999998L446.5106891388189,397.44000000000113L446.24308900220547,396.79999999999967L445.975488865592,398.0799999999998L445.7078887289787,398.55999999999983L445.4402885923652,397.4399999999997L445.17268845575177,398.08000000000084L444.90508831913826,398.55999999999983L444.63748818252486,398.2399999999998L444.3698880459114,397.59999999999974L444.10228790929807,398.55999999999983L443.83468777268456,397.760000000001L443.56708763607116,397.9199999999998L443.2994874994577,397.2799999999997L443.0318873628443,397.2799999999997L442.76428722623086,397.9199999999998L442.49668708961747,397.44000000000113L442.22908695300396,397.2799999999997L441.96148681639056,398.0799999999998L441.6938866797772,397.4399999999997L441.42628654316377,397.2799999999997L441.1586864065503,396.6400000000015L440.8910862699368,397.4399999999997L440.62348613332347,397.2799999999997L440.35588599671,397.9199999999998L440.0882858600966,397.59999999999974L439.82068572348317,397.9200000000009L439.5530855868697,396.4799999999996L439.28548545025626,397.9199999999998L439.0178853136429,398.71999999999986L438.7502851770295,397.9199999999998L438.482685040416,397.2800000000012L438.21508490380245,396.79999999999967L437.9474847671891,397.11999999999966L437.67988463057566,396.4799999999996L437.4122844939623,397.4399999999997L437.1446843573488,396.48000000000155L436.8770842207354,397.11999999999966L436.609484084122,397.11999999999966L436.34188394750856,397.59999999999974L436.07428381089517,396.63999999999965L435.8066836742817,396.16000000000173L435.53908353766815,396.4799999999996L435.2714834010548,398.0799999999998L435.0038832644414,396.4799999999996L434.736283127828,397.59999999999974L434.4686829912145,397.760000000001L434.20108285460105,396.3199999999996L433.93348271798766,397.4399999999997L433.66588258137426,397.11999999999966L433.3982824447608,397.2799999999997L433.1306823081474,396.95999999999964L432.86308217153396,396.16000000000173L432.5954820349205,396.15999999999957L432.3278818983071,395.6799999999995L432.0602817616938,395.6799999999995L431.7926816250803,398.0799999999998L431.52508148846687,396.80000000000143L431.25748135185336,398.0799999999998L430.98988121523996,395.99999999999955L430.72228107862657,398.0799999999998L430.45468094201317,397.59999999999974L430.18708080539966,396.96000000000134L429.91948066878626,396.63999999999965L429.6518805321728,397.59999999999974L429.3842803955594,396.4799999999996L429.1166802589461,394.5599999999994L428.84908012233257,395.68000000000194L428.58147998571906,395.5199999999995L428.31387984910566,396.79999999999967L428.0462797124923,396.15999999999957L427.77867957587887,395.03999999999945L427.51107943926536,396.00000000000176L427.2434793026519,396.4799999999996L426.97587916603857,395.5199999999995L426.70827902942506,395.03999999999945L426.4406788928117,396.63999999999965L426.1730787561982,396.32000000000164L425.9054786195848,396.95999999999964L425.63787848297136,396.15999999999957L425.370278346358,396.15999999999957L425.10267820974457,396.79999999999967L424.8350780731311,395.68000000000194L424.56747793651755,396.3199999999996L424.2998777999042,395.6799999999995L424.03227766329076,395.8399999999995L423.7646775266774,396.79999999999967L423.49707739006385,396.16000000000173L423.2294772534505,395.6799999999995L422.961877116837,396.4799999999996L422.69427698022366,396.3199999999996L422.42667684361027,396.15999999999957L422.1590767069968,395.68000000000194L421.8914765703833,396.63999999999965L421.6238764337699,396.15999999999957L421.3562762971565,397.11999999999966L421.0886761605431,395.1999999999995L420.82107602392966,397.12000000000126L420.55347588731615,395.3599999999995L420.2858757507028,396.15999999999957L420.0182756140893,396.4799999999996L419.75067547747597,395.8399999999995L419.48307534086246,395.84000000000185L419.21547520424906,395.99999999999955L418.9478750676356,396.3199999999996L418.68027493102227,395.03999999999945L418.4126747944089,395.5199999999995L418.14507465779536,394.4000000000025L417.8774745211818,396.95999999999964L417.60987438456846,396.3199999999996L417.342274247955,395.1999999999995L417.07467411134166,394.8799999999994L416.8070739747281,394.72000000000236L416.53947383811476,396.15999999999957L416.27187370150125,395.5199999999995L416.0042735648879,395.5199999999995L415.7366734282745,396.4799999999996L415.46907329166106,394.88000000000227L415.2014731550475,395.6799999999995L414.93387301843416,396.15999999999957L414.66627288182076,397.11999999999966L414.39867274520736,395.5199999999995L414.13107260859385,395.52000000000197L413.8634724719804,395.6799999999995L413.595872335367,396.63999999999965L413.32827219875355,394.8799999999994L413.06067206214016,395.8399999999995L412.7930719255267,395.20000000000215L412.52547178891325,396.63999999999965L412.25787165229985,394.8799999999994L411.99027151568646,394.7199999999994L411.7226713790731,393.7599999999993L411.4550712424596,394.72000000000236L411.18747110584604,394.7199999999994L410.9198709692327,394.2399999999994L410.6522708326193,394.07999999999936L410.3846706960059,395.6799999999995L410.11707055939235,394.08000000000266L409.849470422779,393.91999999999933L409.58187028616555,396.63999999999965L409.31427014955216,394.7199999999994L409.04667001293876,395.99999999999955L408.7790698763253,394.56000000000245L408.5114697397118,395.3599999999995L408.2438696030984,396.4799999999996L407.976269466485,394.2399999999994L407.70866932987167,395.03999999999945L407.4410691932581,395.20000000000215L407.17346905664465,393.5999999999993L406.90586892003125,394.2399999999994L406.6382687834179,396.3199999999996L406.3706686468044,394.8799999999994L406.10306851019095,394.4000000000025L405.8354683735775,394.8799999999994L405.56786823696416,396.15999999999957L405.3002681003507,395.6799999999995L405.0326679637373,395.03999999999945L404.7650678271238,395.20000000000215L404.4974676905103,394.3999999999994L404.2298675538969,394.07999999999936L403.96226741728356,394.7199999999994L403.6946672806701,395.5199999999995L403.4270671440567,394.4000000000025L403.1594670074432,396.95999999999964L402.8918668708298,396.15999999999957L402.62426673421635,394.3999999999994L402.356666597603,396.4799999999996L402.0890664609895,394.56000000000245L401.82146632437605,395.1999999999995L401.55386618776265,395.5199999999995L401.28626605114925,396.3199999999996L401.01866591453586,393.7599999999993L400.75106577792235,395.36000000000206L400.4834656413089,394.8799999999994L400.2158655046955,393.7599999999993L399.94826536808216,394.8799999999994L399.68066523146865,394.2399999999994L399.41306509485526,396.16000000000173L399.14546495824175,395.5199999999995L398.8778648216284,395.8399999999995L398.61026468501495,393.5999999999993L398.34266454840156,393.11999999999927L398.0750644117881,394.7199999999994L397.8074642751747,393.1200000000031L397.53986413856114,393.5999999999993L397.2722640019478,394.5599999999994L397.00466386533435,395.03999999999945L396.737063728721,393.5999999999993L396.46946359210745,394.4000000000025L396.20186345549405,393.7599999999993L395.9342633188806,393.91999999999933L395.66666318226726,393.11999999999927L395.39906304565386,395.1999999999995L395.1314629090404,394.88000000000227L394.86386277242684,394.07999999999936L394.5962626358135,394.3999999999994L394.3286624992001,394.07999999999936L394.0610623625867,394.2399999999994L393.7934622259732,394.72000000000236L393.52586208935975,394.8799999999994L393.25826195274635,394.8799999999994L392.9906618161329,394.8799999999994L392.7230616795195,393.7599999999993L392.45546154290605,393.9200000000027L392.1878614062926,394.7199999999994L391.9202612696792,395.3599999999995L391.65266113306575,394.8799999999994L391.3850609964524,394.07999999999936L391.1174608598389,395.68000000000194L390.8498607232254,392.47999999999917L390.58226058661205,393.7599999999993L390.31466044999866,393.5999999999993L390.0470603133852,393.91999999999933L389.7794601767717,395.84000000000185L389.5118600401583,392.1599999999991L389.2442599035449,393.27999999999923L388.9766597669315,393.7599999999993L388.7090596303181,395.03999999999945L388.44145949370466,394.56000000000245L388.17385935709115,393.5999999999993L387.90625922047775,393.7599999999993L387.63865908386435,392.47999999999917L387.371058947251,396.3199999999996L387.10345881063745,394.24000000000257L386.835858674024,395.03999999999945L386.5682585374106,394.8799999999994L386.30065840079715,395.03999999999945L386.03305826418375,395.1999999999995L385.76545812757035,393.280000000003L385.49785799095685,394.2399999999994L385.2302578543435,393.5999999999993L384.96265771773,393.7599999999993L384.69505758111666,392.95999999999924L384.42745744450315,394.24000000000257L384.15985730788964,393.7599999999993L383.89225717127624,393.7599999999993L383.6246570346629,392.95999999999924L383.35705689804945,392.47999999999917L383.089456761436,393.9200000000027L382.8218566248225,394.3999999999994L382.55425648820915,394.8799999999994L382.2866563515957,395.5199999999995L382.01905621498236,393.11999999999927L381.75145607836885,395.36000000000206L381.4838559417554,394.2399999999994L381.21625580514194,393.11999999999927L380.9486556685286,394.5599999999994L380.6810555319152,394.3999999999994L380.4134553953017,393.280000000003L380.14585525868824,394.07999999999936L379.87825512207485,393.27999999999923L379.61065498546145,394.3999999999994L379.343054848848,392.7999999999992L379.0754547122346,395.52000000000197L378.8078545756211,391.9999999999991L378.54025443900775,393.5999999999993L378.27265430239424,394.07999999999936L378.0050541657809,393.43999999999926L377.7374540291674,393.4400000000029L377.46985389255394,392.1599999999991L377.2022537559405,393.27999999999923L376.93465361932715,392.1599999999991L376.6670534827137,392.6399999999992L376.39945334610024,391.6800000000037L376.13185320948674,391.199999999999L375.8642530728734,394.8799999999994L375.59665293625994,393.27999999999923L375.3290527996466,392.7999999999992L375.06145266303315,394.24000000000257L374.79385252641964,393.7599999999993L374.5262523898062,393.5999999999993L374.25865225319285,393.7599999999993L373.99105211657945,394.07999999999936L373.72345197996594,395.0400000000022L373.45585184335243,395.1999999999995L373.1882517067391,394.3999999999994L372.92065157012564,394.07999999999936L372.65305143351225,393.5999999999993L372.3854512968988,395.20000000000215L372.11785116028534,392.1599999999991L371.85025102367194,391.9999999999991L371.5826508870585,393.91999999999933L371.3150507504451,393.91999999999933L371.04745061383164,395.20000000000215L370.7798504772182,393.91999999999933L370.51225034060474,393.11999999999927L370.24465020399134,392.95999999999924L369.977050067378,391.35999999999905L369.7094499307645,392.8000000000032L369.441849794151,393.11999999999927L369.17424965753764,394.07999999999936L368.90664952092425,394.2399999999994L368.6390493843108,391.6799999999991L368.3714492476974,394.4000000000025L368.1038491110839,392.7999999999992L367.8362489744705,393.91999999999933L367.5686488378571,394.2399999999994L367.3010487012437,395.03999999999945L367.0334485646302,393.60000000000286L366.76584842801674,393.43999999999926L366.49824829140334,393.5999999999993L366.2306481547899,394.2399999999994L365.9630480181765,392.31999999999914L365.69544788156304,394.4000000000025L365.4278477449496,393.91999999999933L365.1602476083362,392.7999999999992L364.89264747172274,392.6399999999992L364.62504733510934,393.7599999999993L364.35744719849595,393.1200000000031L364.0898470618824,393.11999999999927L363.822246925269,392.47999999999917L363.5546467886556,394.8799999999994L363.28704665204225,393.7599999999993L363.0194465154287,394.56000000000245L362.75184637881523,394.7199999999994L362.48424624220183,391.5199999999991L362.2166461055885,392.31999999999914L361.94904596897504,392.6399999999992L361.68144583236165,392.47999999999917L361.41384569574814,392.8000000000032L361.14624555913474,394.3999999999994L360.8786454225213,393.43999999999926L360.61104528590795,392.6399999999992L360.34344514929455,393.5999999999993L360.07584501268104,394.24000000000257L359.80824487606753,393.27999999999923L359.54064473945414,392.95999999999924L359.2730446028407,393.27999999999923L359.00544446622735,394.07999999999936L358.73784432961384,394.24000000000257L358.47024419300044,393.11999999999927L358.20264405638704,394.7199999999994L357.9350439197736,392.7999999999992L357.6674437831602,391.039999999999L357.39984364654674,390.4000000000043L357.1322435099333,391.199999999999L356.86464337331984,393.11999999999927L356.5970432367065,392.47999999999917L356.32944310009304,391.9999999999991L356.0618429634796,394.4000000000025L355.7942428268661,393.11999999999927L355.52664269025274,393.7599999999993L355.2590425536393,392.7999999999992L354.9914424170259,393.43999999999926L354.7238422804124,390.88000000000403L354.456242143799,392.7999999999992L354.18864200718554,392.95999999999924L353.9210418705722,391.199999999999L353.6534417339588,391.8399999999991L353.3858415973453,392.3200000000034L353.1182414607318,391.8399999999991L352.8506413241184,395.03999999999945L352.583041187505,394.07999999999936L352.3154410508916,392.1599999999991L352.04784091427814,394.24000000000257L351.7802407776647,391.199999999999L351.51264064105123,389.27999999999884L351.24504050443784,392.47999999999917L350.97744036782444,393.11999999999927L350.709840231211,393.1200000000031L350.4422400945975,392.1599999999991L350.1746399579841,391.35999999999905L349.9070398213707,393.5999999999993L349.63943968475735,392.31999999999914L349.3718395481438,391.3600000000038L349.10423941153033,390.39999999999895L348.83663927491693,393.27999999999923L348.5690391383036,391.5199999999991L348.3014390016901,392.1599999999991L348.0338388650767,391.2000000000039L347.76623872846324,391.039999999999L347.49863859184984,391.199999999999L347.2310384552364,390.39999999999895L346.96343831862305,392.31999999999914L346.69583818200954,392.0000000000036L346.4282380453961,394.7199999999994L346.16063790878263,392.6399999999992L345.89303777216924,392.31999999999914L345.62543763555584,391.9999999999991L345.3578374989424,390.24000000000433L345.09023736232893,392.95999999999924L344.8226372257155,391.6799999999991L344.5550370891021,392.7999999999992L344.2874369524887,391.5199999999991L344.0198368158753,391.5200000000038L343.7522366792617,393.11999999999927L343.48463654264833,392.1599999999991L343.21703640603494,391.9999999999991L342.9494362694216,394.2399999999994L342.68183613280803,391.040000000004L342.4142359961946,390.23999999999893L342.1466358595812,391.9999999999991L341.87903572296784,392.6399999999992L341.61143558635433,391.6799999999991L341.34383544974094,391.2000000000039L341.0762353131274,391.8399999999991L340.8086351765141,392.6399999999992L340.54103503990063,389.75999999999885L340.27343490328724,392.7999999999992L340.00583476667373,390.5600000000042L339.73823463006033,391.199999999999L339.4706344934468,391.039999999999L339.2030343568335,391.039999999999L338.93543422022003,391.039999999999L338.66783408360664,391.6800000000037L338.4002339469931,391.9999999999991L338.13263381037973,390.39999999999895L337.8650336737663,391.35999999999905L337.59743353715294,391.35999999999905L337.32983340053954,391.6800000000037L337.062233263926,393.43999999999926L336.79463312731264,390.879999999999L336.5270329906992,389.59999999999883L336.25943285408584,390.719999999999L335.9918327174723,389.76000000000454L335.7242325808589,392.47999999999917L335.45663244424543,391.039999999999L335.1890323076321,392.7999999999992L334.92143217101864,390.719999999999L334.6538320344052,391.2000000000039L334.3862318977917,391.199999999999L334.11863176117834,388.79999999999876L333.8510316245649,391.35999999999905L333.5834314879515,392.31999999999914L333.315831351338,390.24000000000433L333.0482312147246,390.0799999999989L332.78063107811107,390.39999999999895L332.51303094149773,391.6799999999991L332.24543080488434,392.31999999999914L331.9778306682709,390.7200000000041L331.71023053165743,391.039999999999L331.442630395044,389.9199999999989L331.1750302584306,391.199999999999L330.9074301218172,390.879999999999L330.63982998520373,389.9200000000045L330.3722298485902,389.9199999999989L330.1046297119768,390.23999999999893L329.83702957536343,391.199999999999L329.56942943875003,393.7599999999993L329.3018293021365,388.64000000000505L329.03422916552313,392.95999999999924L328.7666290289097,391.35999999999905L328.4990288922963,390.23999999999893L328.23142875568294,393.11999999999927L327.96382861906943,391.6800000000037L327.6962284824559,391.199999999999L327.4286283458426,391.35999999999905L327.1610282092292,389.9199999999989L326.89342807261573,390.39999999999895L326.62582793600234,389.75999999999885L326.3582277993889,391.2000000000039L326.0906276627753,390.23999999999893L325.823027526162,388.3199999999987L325.5554273895486,391.5199999999991L325.2878272529352,390.879999999999L325.02022711632173,391.8400000000036L324.7526269797082,389.1199999999988L324.48502684309483,388.4799999999987L324.21742670648143,391.039999999999L323.94982656986804,391.199999999999L323.68222643325464,389.6000000000046L323.4146262966411,391.5199999999991L323.1470261600277,389.75999999999885L322.8794260234143,389.75999999999885L322.61182588680094,388.9599999999988L322.3442257501874,388.9600000000049L322.0766256135739,390.879999999999L321.8090254769605,389.43999999999886L321.5414253403472,392.6399999999992L321.2738252037337,392.7999999999992L321.0062250671203,387.04000000000576L320.7386249305068,391.35999999999905L320.47102479389343,388.79999999999876L320.2034246572799,389.75999999999885L319.9358245206666,391.6799999999991L319.6682243840531,392.1600000000035L319.4006242474396,389.75999999999885L319.13302411082617,387.67999999999864L318.86542397421283,391.8399999999991L318.5978238375994,391.8399999999991L318.330223700986,390.5600000000042L318.0626235643725,388.3199999999987L317.7950234277591,390.559999999999L317.5274232911456,389.9199999999989L317.2598231545323,390.879999999999L316.99222301791883,389.76000000000454L316.7246228813053,391.35999999999905L316.457022744692,388.63999999999874L316.18942260807853,390.719999999999L315.92182247146513,391.039999999999L315.6542223348516,392.6400000000033L315.38662219823823,392.1599999999991L315.1190220616248,389.59999999999883L314.85142192501144,387.9999999999987L314.5838217883979,390.39999999999895L314.31622165178453,389.4400000000047L314.048621515171,390.879999999999L313.7810213785577,391.35999999999905L313.5134212419442,386.07999999999845L313.24582110533083,389.27999999999884L312.9782209687173,391.8400000000036L312.71062083210387,390.559999999999L312.4430206954904,389.75999999999885L312.1754205588771,389.43999999999886L311.9078204222637,389.9199999999989L311.64022028565023,388.00000000000534L311.37262014903666,390.0799999999989L311.1050200124233,389.27999999999884L310.8374198758099,390.719999999999L310.56981973919653,389.75999999999885L310.3022196025831,390.4000000000043L310.03461946596957,391.039999999999L309.7670193293562,389.43999999999886L309.4994191927428,391.9999999999991L309.2318190561294,389.27999999999884L308.9642189195159,390.5600000000042L308.6966187829024,391.6799999999991L308.429018646289,388.63999999999874L308.1614185096756,389.43999999999886L307.8938183730622,390.559999999999L307.6262182364487,389.12000000000484L307.35861809983527,391.35999999999905L307.0910179632219,387.67999999999864L306.8234178266084,388.1599999999987L306.555817689995,389.43999999999886L306.2882175533816,389.28000000000475L306.0206174167681,390.879999999999L305.75301728015467,390.719999999999L305.4854171435413,389.1199999999988L305.21781700692793,388.4799999999987L304.9502168703145,390.4000000000043L304.6826167337009,388.63999999999874L304.4150165970876,389.27999999999884L304.1474164604742,391.8399999999991L303.8798163238608,390.23999999999893L303.61221618724727,388.00000000000534L303.3446160506338,389.43999999999886L303.0770159140204,388.79999999999876L302.809415777407,387.5199999999986L302.54181564079363,389.43999999999886L302.2742155041801,390.24000000000433L302.00661536756667,386.3999999999985L301.7390152309533,388.4799999999987L301.4714150943399,388.63999999999874L301.2038149577265,386.3999999999985L300.93621482111297,389.28000000000475L300.6686146844996,388.9599999999988L300.4010145478861,388.9599999999988L300.1334144112727,388.3199999999987L299.86581427465933,390.559999999999L299.5982141380459,389.28000000000475L299.33061400143237,391.8399999999991L299.06301386481897,390.0799999999989L298.7954137282056,389.1199999999988L298.5278135915922,390.879999999999L298.2602134549787,387.68000000000546L297.9926133183652,389.43999999999886L297.7250131817518,390.23999999999893L297.4574130451384,390.23999999999893L297.189812908525,388.9599999999988L296.9222127719115,387.36000000000564L296.65461263529807,389.59999999999883L296.38701249868467,391.35999999999905L296.1194123620713,390.39999999999895L295.8518122254579,389.59999999999883L295.58421208884437,387.04000000000576L295.3166119522309,388.79999999999876L295.0490118156175,387.0399999999986L294.7814116790041,389.1199999999988L294.51381154239067,390.719999999999L294.2462114057772,389.28000000000475L293.97861126916376,388.4799999999987L293.71101113255037,389.27999999999884L293.4434109959369,390.719999999999L293.1758108593235,387.3599999999986L292.90821072271007,389.4400000000047L292.6406105860966,388.4799999999987L292.37301044948316,392.1599999999991L292.10541031286976,389.43999999999886L291.83781017625637,387.83999999999867L291.57021003964303,389.9199999999989L291.30260990302946,388.3200000000052L291.03500976641607,391.5199999999991L290.7674096298026,390.39999999999895L290.4998094931893,389.43999999999886L290.2322093565759,389.9199999999989L289.96460921996237,390.24000000000433L289.6970090833489,387.83999999999867L289.4294089467355,391.199999999999L289.1618088101221,390.39999999999895L288.89420867350873,390.23999999999893L288.6266085368952,388.00000000000534L288.35900840028177,390.559999999999L288.09140826366837,387.67999999999864L287.8238081270549,387.67999999999864L287.5562079904415,388.79999999999876L287.28860785382807,388.64000000000505L287.0210077172146,389.1199999999988L286.75340758060116,389.75999999999885L286.48580744398777,387.9999999999987L286.2182073073744,387.67999999999864L285.950607170761,390.4000000000043L285.6830070341474,389.59999999999883L285.415406897534,388.63999999999874L285.1478067609207,387.67999999999864L284.8802066243073,387.19999999999857L284.61260648769377,391.2000000000039L284.3450063510803,387.83999999999867L284.0774062144669,390.23999999999893L283.8098060778535,388.9599999999988L283.5422059412401,387.9999999999987L283.2746058046266,388.80000000000496L283.00700566801316,390.23999999999893L282.73940553139977,389.43999999999886L282.4718053947864,387.3599999999986L282.204205258173,388.3199999999987L281.93660512155947,390.5600000000042L281.669004984946,387.9999999999987L281.4014048483326,388.9599999999988L281.13380471171916,389.27999999999884L280.86620457510577,388.1599999999987L280.5986044384923,389.28000000000475L280.3310043018789,389.9199999999989L280.06340416526547,388.9599999999988L279.79580402865207,386.8799999999986L279.5282038920386,388.63999999999874L279.2606037554252,387.52000000000555L278.9930036188117,387.9999999999987L278.7254034821983,388.1599999999987L278.4578033455849,387.5199999999986L278.1902032089715,385.59999999999843L277.9226030723581,384.9600000000067L277.65500293574456,389.75999999999885L277.38740279913117,390.719999999999L277.11980266251777,388.79999999999876L276.8522025259044,386.5599999999985L276.58460238929086,390.24000000000433L276.3170022526774,391.199999999999L276.049402116064,388.1599999999987L275.7818019794506,386.71999999999855L275.51420184283717,386.3999999999985L275.2466017062237,389.12000000000484L274.97900156961026,387.19999999999857L274.71140143299687,389.27999999999884L274.4438012963834,388.1599999999987L274.17620115977,388.63999999999874L273.90860102315656,389.28000000000475L273.6410008865431,390.39999999999895L273.37340074992966,385.2799999999984L273.10580061331626,389.75999999999885L272.83820047670287,388.4799999999987L272.5706003400894,389.28000000000475L272.30300020347596,387.19999999999857L272.0354000668625,387.0399999999986L271.7677999302491,387.67999999999864L271.5001997936357,389.1199999999988L271.23259965702226,385.92000000000627L270.9649995204088,388.1599999999987L270.69739938379536,387.9999999999987L270.429799247182,389.75999999999885L270.16219911056857,388.4799999999987L269.8945989739551,386.24000000000615L269.62699883734166,387.83999999999867L269.35939870072826,387.83999999999867L269.09179856411487,388.63999999999874L268.8241984275014,388.63999999999874L268.55659829088796,387.68000000000546L268.2889981542745,387.5199999999986L268.0213980176611,387.67999999999864L267.7537978810477,387.83999999999867L267.4861977444343,385.9199999999984L267.2185976078208,387.52000000000555L266.95099747120736,386.8799999999986L266.68339733459396,387.3599999999986L266.4157971979805,387.67999999999864L266.1481970613671,386.3999999999985L265.88059692475366,387.52000000000555L265.6129967881402,387.9999999999987L265.34539665152676,388.1599999999987L265.0777965149134,388.3199999999987L264.8101963783,386.3999999999985L264.5425962416865,386.72000000000594L264.274996105073,385.9199999999984L264.00739596845966,385.2799999999984L263.73979583184627,388.4799999999987L263.4721956952328,387.83999999999867L263.20459555861936,386.40000000000606L262.9369954220059,387.5199999999986L262.6693952853925,389.1199999999988L262.40179514877906,388.1599999999987L262.13419501216566,386.07999999999845L261.8665948755522,388.3200000000052L261.5989947389387,387.9999999999987L261.3313946023253,384.3199999999983L261.0637944657119,388.63999999999874L260.79619432909857,387.19999999999857L260.52859419248506,389.76000000000454L260.2609940558716,388.1599999999987L259.99339391925815,389.9199999999989L259.72579378264476,386.5599999999985L259.45819364603136,387.83999999999867L259.1905935094179,385.76000000000636L258.92299337280446,387.9999999999987L258.65539323619106,389.27999999999884L258.38779309957766,385.4399999999984L258.1201929629642,388.4799999999987L257.85259282635076,387.84000000000543L257.5849926897373,389.1199999999988L257.3173925531239,388.1599999999987L257.0497924165105,384.95999999999833L256.78219227989706,387.9999999999987L256.5145921432837,390.0799999999989L256.2469920066702,388.9600000000049L255.97939187005676,389.27999999999884L255.71179173344333,385.75999999999846L255.44419159682994,390.879999999999L255.17659146021654,387.83999999999867L254.90899132360306,385.76000000000636L254.64139118698958,388.9599999999988L254.37379105037618,387.83999999999867L254.10619091376276,390.719999999999L253.83859077714936,387.0399999999986L253.5709906405359,389.9200000000045L253.30339050392243,388.1599999999987L253.035790367309,388.63999999999874L252.7681902306956,389.75999999999885L252.50059009408224,388.4799999999987L252.23298995746873,386.56000000000597L251.96538982085525,386.71999999999855L251.69778968424185,388.4799999999987L251.4301895476285,389.59999999999883L251.1625894110151,386.07999999999845L250.8949892744016,390.0800000000044L250.62738913778813,388.79999999999876L250.35978900117473,391.039999999999L250.0921888645613,389.9199999999989L249.8245887279479,388.3199999999987L249.55698859133443,389.12000000000484L249.28938845472098,388.79999999999876L249.02178831810755,388.4799999999987L248.75418818149416,386.5599999999985L248.48658804488076,389.9199999999989L248.21898790826728,391.5200000000038L247.95138777165383,389.27999999999884L247.68378763504043,390.0799999999989L247.416187498427,390.23999999999893L247.1485873618136,388.4799999999987L246.8809872252002,390.88000000000403L246.61338708858668,387.5199999999986L246.34578695197325,389.43999999999886L246.07818681535989,389.59999999999883L245.8105866787465,389.27999999999884L245.542986542133,392.3200000000034L245.27538640551953,389.43999999999886L245.00778626890613,388.79999999999876L244.74018613229273,389.43999999999886L244.47258599567934,388.63999999999874L244.20498585906586,389.76000000000454L243.93738572245238,390.719999999999L243.66978558583898,385.4399999999984L243.40218544922556,388.1599999999987L243.13458531261216,386.71999999999855L242.86698517599868,389.76000000000454L242.59938503938523,388.4799999999987L242.3317849027718,389.9199999999989L242.0641847661584,391.6799999999991L241.79658462954504,389.75999999999885L241.52898449293156,388.3200000000052L241.26138435631805,390.879999999999L240.99378421970468,387.9999999999987L240.72618408309125,388.1599999999987L240.45858394647786,389.27999999999884L240.1909838098644,390.7200000000041L239.92338367325092,389.43999999999886L239.6557835366375,390.719999999999L239.3881834000241,386.5599999999985L239.1205832634107,390.559999999999L238.85298312679723,390.88000000000403L238.58538299018377,391.35999999999905L238.31778285357038,388.63999999999874L238.05018271695695,389.27999999999884L237.78258258034356,390.559999999999L237.5149824437301,388.48000000000513L237.24738230711662,387.67999999999864L236.97978217050323,387.3599999999986L236.7121820338898,390.719999999999L236.44458189727644,388.4799999999987L236.17698176066295,388.80000000000496L235.90938162404947,389.43999999999886L235.64178148743608,387.9999999999987L235.37418135082268,389.43999999999886L235.10658121420929,391.5199999999991L234.8389810775958,389.4400000000047L234.57138094098232,391.35999999999905L234.30378080436893,385.4399999999984L234.0361806677555,389.27999999999884L233.7685805311421,391.039999999999L233.50098039452865,389.76000000000454L233.23338025791517,389.9199999999989L232.96578012130175,386.5599999999985L232.69817998468835,387.19999999999857L232.43057984807496,388.79999999999876L232.16297971146147,388.80000000000496L231.895379574848,387.67999999999864L231.6277794382346,389.9199999999989L231.36017930162123,391.8399999999991L231.09257916500783,388.63999999999874L230.82497902839435,390.88000000000403L230.55737889178084,388.79999999999876L230.28977875516748,390.0799999999989L230.02217861855405,392.31999999999914L229.75457848194065,391.199999999999L229.48697834532717,387.04000000000576L229.21937820871372,390.39999999999895L228.9517780721003,388.1599999999987L228.6841779354869,389.59999999999883L228.4165777988735,391.8399999999991L228.14897766226002,391.2000000000039L227.88137752564657,391.8399999999991L227.61377738903317,389.9199999999989L227.34617725241975,388.4799999999987L227.07857711580633,391.039999999999L226.8109769791929,388.64000000000505L226.54337684257942,390.39999999999895L226.275776705966,390.39999999999895L226.00817656935263,391.039999999999L225.74057643273923,390.0799999999989L225.47297629612575,390.4000000000043L225.20537615951224,389.9199999999989L224.93777602289887,392.7999999999992L224.67017588628548,391.9999999999991L224.40257574967208,388.1599999999987L224.1349756130586,389.12000000000484L223.86737547644512,389.59999999999883L223.59977533983172,389.59999999999883L223.3321752032183,390.559999999999L223.0645750666049,392.47999999999917L222.79697492999142,390.5600000000042L222.52937479337797,391.5199999999991L222.26177465676454,391.6799999999991L221.99417452015115,388.3199999999987L221.72657438353778,390.559999999999L221.45897424692427,392.3200000000034L221.1913741103108,390.559999999999L220.9237739736974,388.79999999999876L220.65617383708397,391.35999999999905L220.3885737004706,388.3199999999987L220.1209735638572,390.719999999999L219.85337342724372,390.24000000000433L219.58577329063021,391.199999999999L219.31817315401685,390.879999999999L219.05057301740345,391.039999999999L218.78297288079006,389.27999999999884L218.51537274417657,392.0000000000036L218.2477726075631,388.63999999999874L217.9801724709497,390.23999999999893L217.7125723343363,391.35999999999905L217.44497219772288,390.39999999999895L217.1773720611094,390.88000000000403L216.90977192449597,389.75999999999885L216.64217178788255,389.43999999999886L216.37457165126912,390.879999999999L216.10697151465575,392.7999999999992L215.8393713780423,389.4400000000047L215.5717712414288,388.9599999999988L215.30417110481542,388.9599999999988L215.03657096820203,392.1599999999991L214.7689708315886,388.9599999999988L214.50137069497515,388.16000000000525L214.23377055836167,391.8399999999991L213.96617042174825,389.75999999999885L213.69857028513485,389.75999999999885L213.43097014852145,388.63999999999874L213.16337001190797,393.9200000000027L212.8957698752945,388.79999999999876L212.6281697386811,392.6399999999992L212.3605696020677,391.9999999999991L212.09296946545433,390.23999999999893L211.82536932884082,392.0000000000036L211.55776919222734,389.75999999999885L211.29016905561394,390.23999999999893L211.02256891900058,391.8399999999991L210.75496878238715,390.879999999999L210.48736864577364,391.2000000000039L210.2197685091602,391.5199999999991L209.95216837254677,392.1599999999991L209.6845682359334,391.039999999999L209.41696809932,391.5199999999991L209.14936796270652,390.5600000000042L208.881767826093,391.9999999999991L208.61416768947964,391.5199999999991L208.34656755286625,389.43999999999886L208.07896741625282,390.0799999999989L207.81136727963937,391.040000000004L207.5437671430259,391.35999999999905L207.27616700641246,392.31999999999914L207.00856686979907,393.5999999999993L206.74096673318567,391.039999999999L206.4733665965722,393.60000000000286L206.20576645995874,391.6799999999991L205.93816632334534,391.5199999999991L205.67056618673197,392.31999999999914L205.40296605011855,391.6799999999991L205.1353659135051,391.5200000000038L204.8677657768916,391.35999999999905L204.60016564027822,391.5199999999991L204.33256550366482,391.199999999999L204.0649653670514,392.1599999999991L203.79736523043792,390.0800000000044L203.52976509382447,392.31999999999914L203.26216495721107,392.47999999999917L202.99456482059765,393.11999999999927L202.72696468398422,391.9999999999991L202.45936454737077,391.2000000000039L202.1917644107573,391.9999999999991L201.9241642741439,392.6399999999992L201.65656413753047,389.59999999999883L201.38896400091707,392.1599999999991L201.12136386430362,390.88000000000403L200.85376372769014,392.7999999999992L200.5861635910767,391.039999999999L200.31856345446332,392.31999999999914L200.05096331784995,392.1599999999991L199.78336318123644,391.6800000000037L199.51576304462296,390.23999999999893L199.24816290800956,392.6399999999992L198.9805627713962,391.039999999999L198.7129626347828,393.27999999999923L198.44536249816932,392.8000000000032L198.1777623615558,392.1599999999991L197.91016222494244,392.7999999999992L197.64256208832904,391.9999999999991L197.37496195171562,393.11999999999927L197.10736181510214,391.040000000004L196.8397616784887,391.9999999999991L196.5721615418753,392.1599999999991L196.30456140526186,391.039999999999L196.03696126864844,391.6799999999991L195.76936113203502,392.9600000000031L195.50176099542153,392.6399999999992L195.23416085880814,392.7999999999992L194.9665607221947,390.559999999999L194.69896058558135,389.27999999999884L194.4313604489679,392.0000000000036L194.16376031235438,394.8799999999994L193.89616017574096,392.7999999999992L193.6285600391276,392.95999999999924L193.3609599025142,391.35999999999905L193.09335976590071,392.8000000000032L192.8257596292872,391.8399999999991L192.55815949267384,393.43999999999926L192.29055935606044,392.6399999999992L192.02295921944705,392.1599999999991L191.75535908283356,393.1200000000031L191.48775894622008,392.7999999999992L191.2201588096067,392.95999999999924L190.9525586729933,392.6399999999992L190.68495853637987,391.6799999999991L190.41735839976639,393.1200000000031L190.14975826315293,394.2399999999994L189.88215812653954,392.47999999999917L189.6145579899261,391.35999999999905L189.34695785331272,392.31999999999914L189.07935771669923,393.280000000003L188.81175758008575,391.35999999999905L188.54415744347236,391.6799999999991L188.27655730685896,393.5999999999993L188.00895717024557,394.2399999999994L187.7413570336321,391.3600000000038L187.47375689701863,392.1599999999991L187.2061567604052,391.6799999999991L186.9385566237918,393.5999999999993L186.67095648717842,393.43999999999926L186.40335635056493,393.280000000003L186.13575621395148,393.43999999999926L185.86815607733809,391.9999999999991L185.60055594072466,395.3599999999995L185.33295580411126,391.6799999999991L185.06535566749787,392.1599999999991L184.7977555308844,393.4400000000029L184.53015539427093,393.43999999999926L184.26255525765757,391.6799999999991L183.99495512104414,392.47999999999917L183.72735498443072,391.8399999999991L183.45975484781727,394.08000000000266L183.1921547112038,394.07999999999936L182.9245545745904,393.43999999999926L182.65695443797696,393.11999999999927L182.38935430136357,392.7999999999992L182.12175416475012,391.8400000000036L181.85415402813663,392.6399999999992L181.5865538915232,392.95999999999924L181.3189537549098,391.9999999999991L181.05135361829642,393.27999999999923L180.78375348168296,395.0400000000022L180.51615334506945,393.5999999999993L180.24855320845606,392.95999999999924L179.98095307184266,393.5999999999993L179.7133529352293,393.5999999999993L179.44575279861579,392.3200000000034L179.1781526620023,393.91999999999933L178.9105525253889,391.8399999999991L178.64295238877554,391.8399999999991L178.37535225216212,393.43999999999926L178.10775211554864,394.24000000000257L177.84015197893518,392.6399999999992L177.5725518423218,395.6799999999995L177.30495170570836,393.27999999999923L177.03735156909497,390.879999999999L176.76975143248148,392.8000000000032L176.50215129586803,392.95999999999924L176.2345511592546,392.1599999999991L175.96695102264118,392.47999999999917L175.6993508860278,393.91999999999933L175.43175074941433,394.4000000000025L175.16415061280088,394.2399999999994L174.89655047618746,392.47999999999917L174.62895033957403,393.27999999999923L174.36135020296067,392.7999999999992L174.09375006634718,394.88000000000227L173.8261499297337,394.07999999999936L173.5585497931203,393.27999999999923L173.29094965650694,393.11999999999927L173.02334951989351,393.27999999999923L172.75574938328006,393.4400000000029L172.48814924666658,393.11999999999927L172.22054911005318,393.27999999999923L171.9529489734398,394.7199999999994L171.68534883682636,394.2399999999994L171.41774870021288,394.56000000000245L171.15014856359943,392.31999999999914L170.88254842698603,393.43999999999926L170.6149482903726,393.7599999999993L170.3473481537592,394.2399999999994L170.07974801714573,394.24000000000257L169.81214788053228,390.559999999999L169.54454774391886,393.91999999999933L169.27694760730543,392.6399999999992L169.00934747069206,392.7999999999992L168.74174733407858,394.4000000000025L168.4741471974651,394.2399999999994L168.20654706085168,394.8799999999994L167.9389469242383,392.7999999999992L167.6713467876249,393.5999999999993L167.40374665101146,394.56000000000245L167.13614651439792,391.6799999999991L166.86854637778455,395.8399999999995L166.60094624117116,394.07999999999936L166.33334610455776,394.2399999999994L166.06574596794428,393.1200000000031L165.79814583133083,393.43999999999926L165.5305456947174,394.3999999999994L165.262945558104,392.7999999999992L164.99534542149058,394.3999999999994L164.72774528487713,394.4000000000025L164.46014514826368,392.47999999999917L164.19254501165028,393.11999999999927L163.92494487503686,393.91999999999933L163.65734473842346,395.8399999999995L163.38974460180998,392.6400000000033L163.12214446519653,393.91999999999933L162.85454432858313,394.5599999999994L162.5869441919697,393.5999999999993L162.3193440553563,395.8399999999995L162.05174391874286,393.280000000003L161.78414378212938,392.6399999999992L161.51654364551595,393.43999999999926L161.24894350890256,394.2399999999994L160.98134337228916,392.31999999999914L160.7137432356757,394.08000000000266L160.4461430990622,392.95999999999924L160.1785429624488,391.6799999999991L159.9109428258354,394.3999999999994L159.643342689222,395.3599999999995L159.37574255260853,394.72000000000236L159.10814241599505,393.91999999999933L158.84054227938165,393.7599999999993L158.57294214276828,392.7999999999992L158.30534200615486,392.6399999999992L158.03774186954135,394.24000000000257L157.7701417329279,394.8799999999994L157.50254159631453,393.11999999999927L157.2349414597011,394.8799999999994L156.9673413230877,392.95999999999924L156.69974118647423,394.56000000000245L156.43214104986077,393.5999999999993L156.16454091324735,392.47999999999917L155.89694077663393,395.03999999999945L155.62934064002053,394.2399999999994L155.36174050340708,394.72000000000236L155.09414036679362,395.3599999999995L154.8265402301802,395.1999999999995L154.55894009356678,393.5999999999993L154.29133995695338,394.5599999999994L154.02373982033993,394.56000000000245L153.75613968372645,394.2399999999994L153.48853954711305,393.11999999999927L153.22093941049968,394.8799999999994L152.95333927388626,392.31999999999914L152.6857391372728,394.08000000000266L152.4181390006593,394.07999999999936L152.15053886404593,395.5199999999995L151.88293872743253,394.3999999999994L151.6153385908191,394.2399999999994L151.34773845420563,395.0400000000022L151.08013831759217,392.7999999999992L150.81253818097878,392.6399999999992L150.54493804436535,394.8799999999994L150.27733790775196,396.15999999999957L150.00973777113853,394.2399999999994L149.74213763452508,393.7600000000028L149.4745374979116,395.6799999999995L149.20693736129817,394.3999999999994L148.93933722468478,394.8799999999994L148.6717370880714,394.7199999999994L148.40413695145796,394.88000000000227L148.13653681484442,395.1999999999995L147.86893667823102,394.8799999999994L147.60133654161766,394.07999999999936L147.33373640500426,394.8799999999994L147.06613626839078,394.56000000000245L146.7985361317773,393.43999999999926L146.5309359951639,393.7599999999993L146.2633358585505,395.3599999999995L145.9957357219371,392.95999999999924L145.7281355853236,394.56000000000245L145.46053544871015,395.5199999999995L145.19293531209678,395.5199999999995L144.92533517548335,395.8399999999995L144.65773503886993,394.2399999999994L144.39013490225648,393.7600000000028L144.12253476564302,397.11999999999966L143.8549346290296,394.5599999999994L143.5873344924162,395.8399999999995L143.31973435580278,394.2399999999994L143.05213421918933,394.24000000000257L142.78453408257585,395.99999999999955L142.51693394596242,397.9199999999998L142.24933380934903,395.6799999999995L141.98173367273563,395.03999999999945L141.71413353612218,394.88000000000227L141.44653339950867,395.5199999999995L141.17893326289527,395.1999999999995L140.91133312628187,394.7199999999994L140.6437329896685,392.7999999999992L140.37613285305503,396.32000000000164L140.10853271644154,395.8399999999995L139.84093257982815,395.5199999999995L139.57333244321475,395.1999999999995L139.30573230660136,393.91999999999933L139.03813216998785,395.68000000000194L138.7705320333744,394.8799999999994L138.502931896761,396.15999999999957L138.23533176014757,395.99999999999955L137.9677316235342,394.7199999999994L137.7001314869207,396.48000000000155L137.43253135030724,394.8799999999994L137.16493121369382,396.15999999999957L136.89733107708045,395.1999999999995L136.62973094046703,394.07999999999936L136.36213080385357,395.36000000000206L136.0945306672401,397.11999999999966L135.8269305306267,393.91999999999933L135.55933039401327,393.5999999999993L135.29173025739988,395.03999999999945L135.0241301207864,394.56000000000245L134.75652998417294,395.3599999999995L134.48892984755952,396.4799999999996L134.22132971094615,396.15999999999957L133.95372957433273,395.3599999999995L133.68612943771927,395.84000000000185L133.41852930110576,395.1999999999995L133.1509291644924,394.7199999999994L132.883329027879,395.1999999999995L132.61572889126558,395.99999999999955L132.34812875465212,394.4000000000025L132.08052861803864,395.99999999999955L131.81292848142525,396.63999999999965L131.54532834481182,396.3199999999996L131.27772820819843,395.99999999999955L131.01012807158494,396.48000000000155L130.74252793497146,395.03999999999945L130.4749277983581,395.1999999999995L130.20732766174467,396.79999999999967L129.9397275251313,394.8799999999994L129.67212738851782,395.36000000000206L129.40452725190434,395.8399999999995L129.13692711529094,396.4799999999996L128.86932697867752,395.1999999999995L128.60172684206412,394.8799999999994L128.33412670545064,396.16000000000173L128.0665265688372,395.1999999999995L127.79892643222377,396.15999999999957L127.53132629561038,394.8799999999994L127.26372615899699,395.1999999999995L126.9961260223835,396.80000000000143L126.72852588577001,395.8399999999995L126.46092574915663,395.99999999999955L126.19332561254323,397.11999999999966L125.92572547592982,395.8399999999995L125.65812533931636,396.00000000000176L125.39052520270289,395.8399999999995L125.12292506608948,396.3199999999996L124.85532492947607,395.99999999999955L124.58772479286267,394.8799999999994L124.3201246562492,396.00000000000176L124.05252451963571,396.15999999999957L123.78492438302233,396.15999999999957L123.51732424640893,397.11999999999966L123.24972410979554,395.3599999999995L122.98212397318206,396.6400000000015L122.71452383656857,396.4799999999996L122.44692369995518,397.11999999999966L122.17932356334177,396.15999999999957L121.91172342672837,396.63999999999965L121.64412329011489,395.0400000000022L121.37652315350144,396.79999999999967L121.10892301688801,397.59999999999974L120.84132288027462,397.4399999999997L120.57372274366124,396.3199999999996L120.30612260704774,396.80000000000143L120.03852247043427,396.79999999999967L119.77092233382088,396.3199999999996L119.50332219720748,396.95999999999964L119.23572206059406,396.4799999999996L118.96812192398062,396.32000000000164L118.70052178736714,394.8799999999994L118.43292165075374,396.15999999999957L118.16532151414032,395.5199999999995L117.89772137752693,395.5199999999995L117.63012124091344,396.48000000000155L117.36252110429996,396.15999999999957L117.09492096768656,396.4799999999996L116.82732083107318,396.4799999999996L116.55972069445978,395.6799999999995L116.2921205578463,395.84000000000185L116.02452042123284,395.1999999999995L115.75692028461943,395.8399999999995L115.489320148006,397.11999999999966L115.22172001139262,396.4799999999996L114.95411987477922,396.15999999999957L114.68651973816574,396.96000000000134L114.41891960155226,397.4399999999997L114.15131946493888,397.2799999999997L113.88371932832547,396.3199999999996L113.61611919171204,397.4399999999997L113.3485190550986,396.96000000000134L113.08091891848512,396.3199999999996L112.81331878187173,396.63999999999965L112.54571864525832,396.15999999999957L112.27811850864492,396.79999999999967L112.01051837203144,396.48000000000155L111.74291823541799,397.59999999999974L111.47531809880456,396.3199999999996L111.20771796219117,396.63999999999965L110.94011782557779,396.3199999999996L110.67251768896429,396.32000000000164L110.40491755235081,396.95999999999964L110.13731741573741,397.2799999999997L109.86971727912403,396.95999999999964L109.60211714251061,395.99999999999955L109.33451700589713,395.84000000000185L109.06691686928369,397.75999999999976L108.79931673267026,398.0799999999998L108.53171659605685,396.63999999999965L108.26411645944347,397.9199999999998L107.99651632282999,397.60000000000105L107.72891618621651,396.79999999999967L107.46131604960311,395.6799999999995L107.19371591298973,397.75999999999976L106.9261157763763,396.79999999999967L106.65851563976285,397.12000000000126L106.39091550314936,396.95999999999964L106.12331536653598,398.0799999999998L105.85571522992255,397.75999999999976L105.58811509330917,397.4399999999997L105.32051495669567,398.2400000000008L105.05291482008222,397.11999999999966L104.7853146834688,397.11999999999966L104.51771454685542,396.3199999999996L104.25011441024202,398.2399999999998L103.98251427362854,397.44000000000113L103.71491413701506,397.9199999999998L103.44731400040168,398.2399999999998L103.17971386378827,397.2799999999997L102.91211372717484,397.11999999999966L102.64451359056137,397.12000000000126L102.37691345394792,397.75999999999976L102.1093133173345,397.2799999999997L101.84171318072111,398.0799999999998L101.57411304410772,397.59999999999974L101.30651290749424,397.9200000000009L101.03891277088074,398.3999999999998L100.77131263426736,397.75999999999976L100.50371249765396,398.0799999999998L100.23611236104054,398.8799999999999L99.96851222442709,398.4000000000007L99.70091208781362,398.3999999999998L99.43331195120021,397.75999999999976L99.1657118145868,398.0799999999998L98.8981116779734,397.9199999999998L98.63051154135994,397.60000000000105L98.36291140474648,398.8799999999999L98.09531126813306,398.3999999999998L97.82771113151966,398.2399999999998L97.56011099490627,398.0799999999998L97.29251085829279,398.5600000000006L97.0249107216793,398.0799999999998L96.75731058506591,397.59999999999974L96.48971044845253,398.3999999999998L96.2221103118391,398.0799999999998L95.95451017522562,398.08000000000084L95.68691003861215,398.3999999999998L95.41930990199874,397.75999999999976L95.15170976538535,398.55999999999983L94.88410962877197,398.2399999999998L94.61650949215847,398.08000000000084L94.348909355545,398.55999999999983L94.0813092189316,399.0399999999999L93.81370908231821,397.59999999999974L93.54610894570479,397.59999999999974L93.27850880909133,397.9200000000009L93.01090867247785,398.71999999999986L92.74330853586447,398.3999999999998L92.47570839925105,398.2399999999998L92.20810826263765,398.3999999999998L91.94050812602417,397.2800000000012L91.67290798941069,398.71999999999986L91.40530785279729,399.19999999999993L91.13770771618391,398.2399999999998L90.87010757957052,398.3999999999998L90.60250744295703,399.0400000000004L90.33490730634354,398.55999999999983L90.06730716973016,398.2399999999998L89.79970703311673,398.8799999999999L89.53210689650335,398.3999999999998L89.26450675988985,398.4000000000007L88.99690662327642,399.35999999999996L88.72930648666299,398.0799999999998L88.4617063500496,398.71999999999986L88.1941062134362,398.2399999999998L87.92650607682273,398.5600000000006L87.65890594020924,399.0399999999999L87.39130580359586,398.8799999999999L87.12370566698246,399.35999999999996L86.85610553036905,399.5199999999999L86.58850539375558,399.20000000000033L86.3209052571421,398.0799999999998L86.0533051205287,399.0399999999999L85.7857049839153,398.0799999999998L85.5181048473019,398.55999999999983L85.25050471068842,398.2400000000008L84.98290457407492,398.55999999999983L84.71530443746154,398.55999999999983L84.44770430084814,399.35999999999996L84.18010416423476,398.71999999999986L83.91250402762127,398.5600000000006L83.6449038910078,398.71999999999986L83.3773037543944,398.71999999999986L83.109703617781,398.8799999999999L82.84210348116758,399.35999999999996L82.57450334455412,398.8800000000005L82.30690320794066,398.8799999999999L82.03930307132724,398.8799999999999L81.77170293471384,398.8799999999999L81.50410279810046,398.3999999999998L81.23650266148697,398.8800000000005L80.96890252487349,398.71999999999986L80.70130238826009,398.55999999999983L80.43370225164671,399.5199999999999L80.16610211503328,397.4399999999997L79.8985019784199,398.71999999999986L79.6309018418064,398.5600000000006L79.36330170519295,398.55999999999983L79.09570156857953,399.84L78.82810143196615,398.8799999999999L78.56050129535275,399.19999999999993L78.29290115873927,398.5600000000006L78.02530102212579,399.35999999999996L77.75770088551239,398.8799999999999L77.490100748899,398.71999999999986L77.22250061228557,399.19999999999993L76.95490047567212,399.20000000000033L76.68730033905865,399.5199999999999L76.41970020244523,398.8799999999999L76.15210006583185,399.67999999999995L75.88449992921844,398.0799999999998L75.61689979260497,398.8800000000005L75.34929965599147,398.8799999999999L75.08169951937809,399.35999999999996L74.8140993827647,399.19999999999993L74.54649924615127,399.0399999999999L74.27889910953782,399.5200000000002L74.01129897292434,398.8799999999999L73.74369883631094,398.8799999999999L73.47609869969752,398.71999999999986L73.20849856308413,399.5199999999999L72.94089842647065,398.7200000000006L72.6732982898572,399.19999999999993L72.40569815324378,399.0399999999999L72.1380980166304,399.67999999999995L71.870497880017,398.8799999999999L71.60289774340352,398.4000000000007L71.33529760679004,398.2399999999998L71.06769747017664,399.19999999999993L70.80009733356324,398.8799999999999L70.53249719694982,399.67999999999995L70.26489706033638,399.3600000000003L69.99729692372289,399.0399999999999L69.72969678710948,399.19999999999993L69.46209665049608,399.35999999999996L69.1944965138827,399.5199999999999L68.9268963772692,399.20000000000033L68.65929624065572,398.8799999999999L68.39169610404234,399.19999999999993L68.12409596742894,399.35999999999996L67.85649583081552,399.35999999999996L67.58889569420207,399.3600000000003L67.32129555758858,399.19999999999993L67.05369542097519,399.67999999999995L66.78609528436178,399.5199999999999L66.51849514774838,398.8799999999999L66.2508950111349,399.6800000000001L65.98329487452145,399.0399999999999L65.71569473790802,399.5199999999999L65.44809460129463,399.19999999999993L65.18049446468125,399.67999999999995L64.91289432806776,399.5200000000002L64.64529419145427,399.19999999999993L64.37769405484089,399.35999999999996L64.11009391822749,399.5199999999999L63.842493781614074,399.35999999999996L63.57489364500062,399.5200000000002L63.30729350838714,399.5199999999999L63.039693371773716,399.35999999999996L62.77209323516032,399.5199999999999L62.50449309854693,399.35999999999996L62.23689296193345,399.3600000000003L61.96929282531997,399.67999999999995L61.70169268870657,399.35999999999996L61.43409255209318,399.5199999999999L61.166492415479766,399.67999999999995L60.898892278866306,399.8400000000001L60.63129214225283,399.67999999999995L60.36369200563944,398.55999999999983L60.09609186902602,399.35999999999996L59.82849173241262,399.5199999999999L59.56089159579914,399.5200000000002L59.29329145918569,399.19999999999993L59.025691322572264,399.35999999999996L58.758091185958875,399.19999999999993L58.490491049345486,399.19999999999993L58.222890912732,399.3600000000003L57.955290776118524,399.84L57.687690639505135,399.5199999999999L57.42009050289173,399.5199999999999L57.152490366278315,399.84L56.88489022966487,399.5200000000002L56.61729009305138,399.5199999999999L56.349689956437956,399.67999999999995L56.08208981982457,399.67999999999995L55.81448968321118,399.5199999999999L55.54688954659769,399.20000000000033L55.27928940998421,399.19999999999993L55.01168927337082,399.67999999999995L54.744089136757424,399.84L54.47648900014401,399.19999999999993L54.20888886353056,399.3600000000003L53.94128872691708,399.84L53.673688590303684,399.5199999999999L53.40608845369026,399.5199999999999L53.13848831707687,399.84L52.87088818046339,399.6800000000001L52.603288043849936,399.67999999999995L52.33568790723651,399.67999999999995L52.06808777062312,399.67999999999995L51.80048763400973,399.19999999999993L51.532887497396246,399.3600000000003L51.26528736078277,399.67999999999995L50.99768722416937,399.84L50.73008708755599,399.35999999999996L50.46248695094256,399.84L50.19488681432911,399.6800000000001L49.92728667771563,399.5199999999999L49.659686541102204,399.84L49.12448626787542,399.67999999999995L48.85688613126194,399.6800000000001L48.589285994648456,399.5199999999999L48.32168585803506,399.84L48.05408572142167,399.67999999999995L47.786485584808254,399.84L47.518885448194794,399.8400000000001L47.25128531158132,399.5199999999999L46.98368517496793,399.67999999999995L45.913284628514184,399.67999999999995L45.37808435528736,399.84L45.110484218673975,399.35999999999996L44.84288408206049,399.8400000000001L44.57528394544701,399.84L44.30768380883362,399.84L44.040083672220234,399.84L43.77248353560681,399.84L43.504883398993414,399.35999999999996L43.23728326237993,399.6800000000001L42.702082989153055,399.84L42.43448285253967,399.84L42.16688271592628,399.84L41.89928257931279,399.8400000000001L41.63168244269931,399.67999999999995L41.0964821694725,399.67999999999995L40.561281896245625,399.8400000000001L39.75848148640536,399.84L38.68808093995161,399.67999999999995L38.1528806667248,399.84L37.885280530111345,399.6800000000001L37.08248012027105,399.84L36.81487998365766,399.84L36.54727984704418,399.6800000000001L35.744479437203914,399.84L35.47687930059052,399.67999999999995L35.20927916397704,399.8400000000001L34.40647875413674,399.67999999999995L34.13887861752335,399.84L33.871278480909865,399.6800000000001L33.60367834429642,399.84L32.80087793445622,399.84L31.99807752461586,399.84L30.927676978162108,399.84L29.85727643170842,399.6800000000001L29.58967629509494,399.84L28.786875885254766,399.5199999999999L28.519275748641284,399.8400000000001L27.448875202187597,399.84L27.181275065574116,399.8400000000001L26.91367492896066,399.84L26.110874519120458,399.67999999999995L24.505273699439837,399.8400000000001L23.43487315298615,399.84L22.899672879759184,399.84L21.82927233330553,399.8400000000001L21.294072060078655,399.67999999999995L21.026471923465234,399.84L20.75887178685184,399.84L19.956071377011487,399.67999999999995L19.153270967171224,399.6800000000001L18.618070693944347,399.84L18.350470557330954,399.84L18.082870420717533,399.67999999999995L17.280070010877207,399.84L16.744869737650394,399.84L16.477269601036912,399.5200000000002L16.209669464423428,399.84L15.406869054583256,399.84L15.139268917969773,399.8400000000001L14.871668781356291,399.84L13.533668098289152,399.84L13.266067961675729,399.84L12.730867688448948,399.84L10.322466458928032,399.84L8.984465775860892,399.84L4.16766331681915,399.8400000000001L3.097262770365493,399.84" style="fill: none; stroke: #4c78a8; stroke-width: 2;"></path></g></g></g></g><g class="mark-group role-legend"><g transform="translate(618,0)"><path class="background" d="M0,0h68v59h-68Z" style="pointer-events: none; fill: none;"></path><g><g class="mark-group role-legend-entry"><g transform="translate(0,25)"><path class="background" d="M0,0h0v0h0Z" style="pointer-events: none; fill: none;"></path><g><g class="mark-group role-scope"><g transform="translate(0,0)"><path class="background" d="M0,0h57.359375v16h-57.359375Z" style="pointer-events: none; fill: none; opacity: 1;"></path><g><g class="mark-symbol role-legend-symbol" style="pointer-events: none;"><path transform="translate(8,8)" d="M-5,0L5,0" style="fill: none; stroke: #4c78a8; stroke-width: 1.5; opacity: 1;"></path></g><g class="mark-text role-legend-label" style="pointer-events: none;"><text text-anchor="start" transform="translate(20,13)" style="font-family: sans-serif; font-size: 16px; fill: #000; opacity: 1;">liquid</text></g></g></g><g transform="translate(0,18)"><path class="background" d="M0,0h57.359375v16h-57.359375Z" style="pointer-events: none; fill: none; opacity: 1;"></path><g><g class="mark-symbol role-legend-symbol" style="pointer-events: none;"><path transform="translate(8,8)" d="M-5,0L5,0" style="fill: none; stroke: #f58518; stroke-width: 1.5; opacity: 1;"></path></g><g class="mark-text role-legend-label" style="pointer-events: none;"><text text-anchor="start" transform="translate(20,13)" style="font-family: sans-serif; font-size: 16px; fill: #000; opacity: 1;">p2</text></g></g></g></g></g></g></g><g class="mark-text role-legend-title" style="pointer-events: none;"><text text-anchor="start" transform="translate(0,16)" style="font-family: sans-serif; font-size: 20px; font-weight: bold; fill: #000; opacity: 1;">Crystal</text></g></g></g></g><g class="mark-group role-axis"><g transform="translate(0.5,400.5)"><path class="background" d="M0,0h0v0h0Z" style="pointer-events: none; fill: none;"></path><g><g class="mark-rule role-axis-tick" style="pointer-events: none;"><line transform="translate(0,0)" x2="0" y2="5" style="fill: none; stroke: #888; stroke-width: 1; opacity: 1;"></line><line transform="translate(55,0)" x2="0" y2="5" style="fill: none; stroke: #888; stroke-width: 1; opacity: 1;"></line><line transform="translate(109,0)" x2="0" y2="5" style="fill: none; stroke: #888; stroke-width: 1; opacity: 1;"></line><line transform="translate(164,0)" x2="0" y2="5" style="fill: none; stroke: #888; stroke-width: 1; opacity: 1;"></line><line transform="translate(218,0)" x2="0" y2="5" style="fill: none; stroke: #888; stroke-width: 1; opacity: 1;"></line><line transform="translate(273,0)" x2="0" y2="5" style="fill: none; stroke: #888; stroke-width: 1; opacity: 1;"></line><line transform="translate(327,0)" x2="0" y2="5" style="fill: none; stroke: #888; stroke-width: 1; opacity: 1;"></line><line transform="translate(382,0)" x2="0" y2="5" style="fill: none; stroke: #888; stroke-width: 1; opacity: 1;"></line><line transform="translate(436,0)" x2="0" y2="5" style="fill: none; stroke: #888; stroke-width: 1; opacity: 1;"></line><line transform="translate(491,0)" x2="0" y2="5" style="fill: none; stroke: #888; stroke-width: 1; opacity: 1;"></line><line transform="translate(545,0)" x2="0" y2="5" style="fill: none; stroke: #888; stroke-width: 1; opacity: 1;"></line><line transform="translate(600,0)" x2="0" y2="5" style="fill: none; stroke: #888; stroke-width: 1; opacity: 1;"></line></g><g class="mark-text role-axis-label" style="pointer-events: none;"><text text-anchor="start" transform="translate(0,20)" style="font-family: sans-serif; font-size: 16px; fill: #000; opacity: 1;">-1.0</text><text text-anchor="middle" transform="translate(54.54545454545453,20)" style="font-family: sans-serif; font-size: 16px; fill: #000; opacity: 1;">-0.8</text><text text-anchor="middle" transform="translate(109.0909090909091,20)" style="font-family: sans-serif; font-size: 16px; fill: #000; opacity: 1;">-0.6</text><text text-anchor="middle" transform="translate(163.63636363636363,20)" style="font-family: sans-serif; font-size: 16px; fill: #000; opacity: 1;">-0.4</text><text text-anchor="middle" transform="translate(218.1818181818182,20)" style="font-family: sans-serif; font-size: 16px; fill: #000; opacity: 1;">-0.2</text><text text-anchor="middle" transform="translate(272.7272727272727,20)" style="font-family: sans-serif; font-size: 16px; fill: #000; opacity: 1;">0.0</text><text text-anchor="middle" transform="translate(327.27272727272725,20)" style="font-family: sans-serif; font-size: 16px; fill: #000; opacity: 1;">0.2</text><text text-anchor="middle" transform="translate(381.81818181818176,20)" style="font-family: sans-serif; font-size: 16px; fill: #000; opacity: 1;">0.4</text><text text-anchor="middle" transform="translate(436.3636363636364,20)" style="font-family: sans-serif; font-size: 16px; fill: #000; opacity: 1;">0.6</text><text text-anchor="middle" transform="translate(490.9090909090909,20)" style="font-family: sans-serif; font-size: 16px; fill: #000; opacity: 1;">0.8</text><text text-anchor="middle" transform="translate(545.4545454545454,20)" style="font-family: sans-serif; font-size: 16px; fill: #000; opacity: 1;">1.0</text><text text-anchor="end" transform="translate(600,20)" style="font-family: sans-serif; font-size: 16px; fill: #000; opacity: 1;">1.2</text></g><g class="mark-rule role-axis-domain" style="pointer-events: none;"><line transform="translate(0,0)" x2="600" y2="0" style="fill: none; stroke: #888; stroke-width: 1; opacity: 1;"></line></g><g class="mark-text role-axis-title" style="pointer-events: none;"><text text-anchor="middle" transform="translate(300,43)" style="font-family: sans-serif; font-size: 20px; font-weight: bold; fill: #000; opacity: 1;">Orientation Order</text></g></g></g></g><g class="mark-group role-axis"><g transform="translate(0.5,0.5)"><path class="background" d="M0,0h0v0h0Z" style="pointer-events: none; fill: none;"></path><g><g class="mark-rule role-axis-tick" style="pointer-events: none;"><line transform="translate(0,400)" x2="-5" y2="0" style="fill: none; stroke: #888; stroke-width: 1; opacity: 1;"></line><line transform="translate(0,360)" x2="-5" y2="0" style="fill: none; stroke: #888; stroke-width: 1; opacity: 1;"></line><line transform="translate(0,320)" x2="-5" y2="0" style="fill: none; stroke: #888; stroke-width: 1; opacity: 1;"></line><line transform="translate(0,280)" x2="-5" y2="0" style="fill: none; stroke: #888; stroke-width: 1; opacity: 1;"></line><line transform="translate(0,240)" x2="-5" y2="0" style="fill: none; stroke: #888; stroke-width: 1; opacity: 1;"></line><line transform="translate(0,200)" x2="-5" y2="0" style="fill: none; stroke: #888; stroke-width: 1; opacity: 1;"></line><line transform="translate(0,160)" x2="-5" y2="0" style="fill: none; stroke: #888; stroke-width: 1; opacity: 1;"></line><line transform="translate(0,120)" x2="-5" y2="0" style="fill: none; stroke: #888; stroke-width: 1; opacity: 1;"></line><line transform="translate(0,80)" x2="-5" y2="0" style="fill: none; stroke: #888; stroke-width: 1; opacity: 1;"></line><line transform="translate(0,40)" x2="-5" y2="0" style="fill: none; stroke: #888; stroke-width: 1; opacity: 1;"></line><line transform="translate(0,0)" x2="-5" y2="0" style="fill: none; stroke: #888; stroke-width: 1; opacity: 1;"></line></g><g class="mark-text role-axis-label" style="pointer-events: none;"><text text-anchor="end" transform="translate(-7,405)" style="font-family: sans-serif; font-size: 16px; fill: #000; opacity: 1;">0</text><text text-anchor="end" transform="translate(-7,365)" style="font-family: sans-serif; font-size: 16px; fill: #000; opacity: 1;">10</text><text text-anchor="end" transform="translate(-7,325)" style="font-family: sans-serif; font-size: 16px; fill: #000; opacity: 1;">20</text><text text-anchor="end" transform="translate(-7,285)" style="font-family: sans-serif; font-size: 16px; fill: #000; opacity: 1;">30</text><text text-anchor="end" transform="translate(-7,245)" style="font-family: sans-serif; font-size: 16px; fill: #000; opacity: 1;">40</text><text text-anchor="end" transform="translate(-7,205)" style="font-family: sans-serif; font-size: 16px; fill: #000; opacity: 1;">50</text><text text-anchor="end" transform="translate(-7,165)" style="font-family: sans-serif; font-size: 16px; fill: #000; opacity: 1;">60</text><text text-anchor="end" transform="translate(-7,125)" style="font-family: sans-serif; font-size: 16px; fill: #000; opacity: 1;">70</text><text text-anchor="end" transform="translate(-7,85)" style="font-family: sans-serif; font-size: 16px; fill: #000; opacity: 1;">80</text><text text-anchor="end" transform="translate(-7,45)" style="font-family: sans-serif; font-size: 16px; fill: #000; opacity: 1;">90</text><text text-anchor="end" transform="translate(-7,5)" style="font-family: sans-serif; font-size: 16px; fill: #000; opacity: 1;">100</text></g><g class="mark-rule role-axis-domain" style="pointer-events: none;"><line transform="translate(0,400)" x2="0" y2="-400" style="fill: none; stroke: #888; stroke-width: 1; opacity: 1;"></line></g><g class="mark-text role-axis-title" style="pointer-events: none;"><text text-anchor="middle" transform="translate(-37.6953125,200) rotate(-90) translate(0,-4)" style="font-family: sans-serif; font-size: 20px; font-weight: bold; fill: #000; opacity: 1;">Distribution</text></g></g></g></g></g></g></g></g></svg>