<svg class="marks" width="740" height="465" viewBox="0 0 740 465" version="1.1" xmlns="http://www.w3.org/2000/svg" xmlns:xlink="http://www.w3.org/1999/xlink"><rect width="740" height="465" style="fill: white;"></rect><g transform="translate(38,13)"><g class="mark-group role-frame root"><g transform="translate(0,0)"><path class="background" d="M0.5,0.5h600v400h-600Z" style="fill: none; stroke: #ddd;"></path><g><g class="mark-group role-scope pathgroup"><g transform="translate(0,0)"><path class="background" d="M0,0h600v400h-600Z" style="fill: none;"></path><g><g class="mark-line role-mark marks"><path d="M600,137.0959857131423L594,142.32777559745085L588,147.50698467890194L582,152.63361295749561L576,157.707660433232L570,162.72912710611092L564,167.6980129761325L558,172.6143180432968L552,177.47804230760363L546,182.28918576905312L540,187.04774842764527L534,191.75373028338007L528,196.40713133625744L522,201.00795158627744L516,205.5561910334401L510,210.05184967774534L504,214.49492751919328L498.00000000000006,218.88542455778372L492.00000000000006,223.22334079351685L486.00000000000006,227.50867622639265L480,231.74143085641106L474,235.9216046835721L468,240.0491977078758L462,244.12420992932206L456,248.14664134791101L450,252.11649196364255L444,256.03376177651677L438,259.8984507865336L432,263.710558993693L426,267.47008639799503L420.00000000000006,271.1770329994397L414.00000000000006,274.83139879802707L408.00000000000006,278.433183793757L402,281.9823879866296L396,285.4790113766448L390,288.9230539638026L384,292.3145157481031L378,295.65339672954616L372,298.93969690813196L366,302.17341628386026L360,305.3545548567312L354,308.48311262674486L348,311.5590895939011L342.00000000000006,314.58248575819994L336.00000000000006,317.55330111964145L330,320.47153567822556L324,323.3371894339523L318,326.1502623868217L312,328.9107545368337L306,331.61866588398834L300,334.27399642828556L294,336.8767461697255L288,339.426915108308L282,341.92450324403313L276,344.3695105769009L270,346.7619371069113L264,349.10178283406435L258,351.38904775836L252,353.6237318797983L245.99999999999997,355.8058351983792L240,357.9353577141028L234,360.012299426969L228,362.0366603369777L222,364.0084404441292L216,365.92763974842325L210.00000000000003,367.7942582498599L204.00000000000003,369.60829594843926L198,371.3697528441612L192,373.07862893702577L186,374.734924227033L180,376.3386387141828L174,377.88977239847526L168.00000000000003,379.38832527991036L162,380.8342973584881L156,382.2276886342084L150,383.5684991070714L144,384.856728777077L138,386.0923776442252L132,387.2754457085161L126,388.40593296994956L120,389.4838394285257L114,390.50916508424444L108,391.4819099371058L102.00000000000001,392.4020739871098L96,393.26965723425644L90,394.08465967854573L84.00000000000001,394.8470813199776L78,395.55692215855214L72,396.21418219426926L66,396.81886142712904L60,397.3709598571314L54,397.8704774842765L48,398.31741430856414L42.00000000000001,398.7117703299944L36,399.0535455485673L30,399.3427399642829L24,399.57935357714103L18,399.76338638714185L12,399.8948383942853L6,399.9737095985713L0,400" style="fill: none; stroke: #f58518; stroke-width: 2;"></path></g></g><path class="foreground" d="" style="display: none; fill: none;"></path></g><g transform="translate(0,0)"><path class="background" d="M0,0h600v400h-600Z" style="fill: none;"></path><g><g class="mark-line role-mark marks"><path d="M600,400L594,389.5174449787402L588,358.06977991496063L582,305.65700480866144L576,232.2791196598426L570,137.9361244685052L564,22.628019234647212" style="fill: none; stroke: #4c78a8; stroke-width: 2;"></path></g></g><path class="foreground" d="" style="display: none; fill: none;"></path></g></g><g class="mark-group role-legend"><g transform="translate(620,0)"><path class="background" d="M0,0h77v59h-77Z" style="pointer-events: none; fill: none;"></path><g><g class="mark-group role-legend-entry"><g transform="translate(0,25)"><path class="background" d="M0,0h0v0h0Z" style="pointer-events: none; fill: none;"></path><g><g class="mark-group role-scope"><g transform="translate(0,0)"><path class="background" d="M0,0h76.06666564941406v16h-76.06666564941406Z" style="pointer-events: none; fill: none; opacity: 1;"></path><g><g class="mark-symbol role-legend-symbol" style="pointer-events: none;"><path transform="translate(8,8)" d="M-5,0L5,0" style="fill: none; stroke: #4c78a8; stroke-width: 1.5; opacity: 1;"></path></g><g class="mark-text role-legend-label" style="pointer-events: none;"><text text-anchor="start" transform="translate(20,13)" style="font-family: sans-serif; font-size: 16px; fill: #000; opacity: 1;">Crystal</text></g></g><path class="foreground" d="" style="pointer-events: none; display: none; fill: none;"></path></g><g transform="translate(0,18)"><path class="background" d="M0,0h76.06666564941406v16h-76.06666564941406Z" style="pointer-events: none; fill: none; opacity: 1;"></path><g><g class="mark-symbol role-legend-symbol" style="pointer-events: none;"><path transform="translate(8,8)" d="M-5,0L5,0" style="fill: none; stroke: #f58518; stroke-width: 1.5; opacity: 1;"></path></g><g class="mark-text role-legend-label" style="pointer-events: none;"><text text-anchor="start" transform="translate(20,13)" style="font-family: sans-serif; font-size: 16px; fill: #000; opacity: 1;">Liquid</text></g></g><path class="foreground" d="" style="pointer-events: none; display: none; fill: none;"></path></g></g></g><path class="foreground" d="" style="pointer-events: none; display: none; fill: none;"></path></g></g><g class="mark-text role-legend-title" style="pointer-events: none;"><text text-anchor="start" transform="translate(0,16)" style="font-family: sans-serif; font-size: 20px; font-weight: bold; fill: #000; opacity: 1;">Phase</text></g></g><path class="foreground" d="" style="pointer-events: none; display: none; fill: none;"></path></g></g><g class="mark-group role-axis"><g transform="translate(0.5,400.5)"><path class="background" d="M0,0h0v0h0Z" style="pointer-events: none; fill: none;"></path><g><g class="mark-rule role-axis-tick" style="pointer-events: none;"><line transform="translate(0,0)" x2="0" y2="5" style="fill: none; stroke: #888; stroke-width: 1; opacity: 1;"></line><line transform="translate(30,0)" x2="0" y2="5" style="fill: none; stroke: #888; stroke-width: 1; opacity: 1;"></line><line transform="translate(60,0)" x2="0" y2="5" style="fill: none; stroke: #888; stroke-width: 1; opacity: 1;"></line><line transform="translate(90,0)" x2="0" y2="5" style="fill: none; stroke: #888; stroke-width: 1; opacity: 1;"></line><line transform="translate(120,0)" x2="0" y2="5" style="fill: none; stroke: #888; stroke-width: 1; opacity: 1;"></line><line transform="translate(150,0)" x2="0" y2="5" style="fill: none; stroke: #888; stroke-width: 1; opacity: 1;"></line><line transform="translate(180,0)" x2="0" y2="5" style="fill: none; stroke: #888; stroke-width: 1; opacity: 1;"></line><line transform="translate(210,0)" x2="0" y2="5" style="fill: none; stroke: #888; stroke-width: 1; opacity: 1;"></line><line transform="translate(240,0)" x2="0" y2="5" style="fill: none; stroke: #888; stroke-width: 1; opacity: 1;"></line><line transform="translate(270,0)" x2="0" y2="5" style="fill: none; stroke: #888; stroke-width: 1; opacity: 1;"></line><line transform="translate(300,0)" x2="0" y2="5" style="fill: none; stroke: #888; stroke-width: 1; opacity: 1;"></line><line transform="translate(330,0)" x2="0" y2="5" style="fill: none; stroke: #888; stroke-width: 1; opacity: 1;"></line><line transform="translate(360,0)" x2="0" y2="5" style="fill: none; stroke: #888; stroke-width: 1; opacity: 1;"></line><line transform="translate(390,0)" x2="0" y2="5" style="fill: none; stroke: #888; stroke-width: 1; opacity: 1;"></line><line transform="translate(420,0)" x2="0" y2="5" style="fill: none; stroke: #888; stroke-width: 1; opacity: 1;"></line><line transform="translate(450,0)" x2="0" y2="5" style="fill: none; stroke: #888; stroke-width: 1; opacity: 1;"></line><line transform="translate(480,0)" x2="0" y2="5" style="fill: none; stroke: #888; stroke-width: 1; opacity: 1;"></line><line transform="translate(510,0)" x2="0" y2="5" style="fill: none; stroke: #888; stroke-width: 1; opacity: 1;"></line><line transform="translate(540,0)" x2="0" y2="5" style="fill: none; stroke: #888; stroke-width: 1; opacity: 1;"></line><line transform="translate(570,0)" x2="0" y2="5" style="fill: none; stroke: #888; stroke-width: 1; opacity: 1;"></line><line transform="translate(600,0)" x2="0" y2="5" style="fill: none; stroke: #888; stroke-width: 1; opacity: 1;"></line></g><g class="mark-text role-axis-label" style="pointer-events: none;"><text text-anchor="start" transform="translate(0,20)" style="font-family: sans-serif; font-size: 16px; fill: #000; opacity: 1;">0.00</text><text text-anchor="middle" transform="translate(30,20)" style="font-family: sans-serif; font-size: 16px; fill: #000; opacity: 0;">0.05</text><text text-anchor="middle" transform="translate(60,20)" style="font-family: sans-serif; font-size: 16px; fill: #000; opacity: 1;">0.10</text><text text-anchor="middle" transform="translate(90,20)" style="font-family: sans-serif; font-size: 16px; fill: #000; opacity: 0;">0.15</text><text text-anchor="middle" transform="translate(120,20)" style="font-family: sans-serif; font-size: 16px; fill: #000; opacity: 1;">0.20</text><text text-anchor="middle" transform="translate(150,20)" style="font-family: sans-serif; font-size: 16px; fill: #000; opacity: 0;">0.25</text><text text-anchor="middle" transform="translate(180,20)" style="font-family: sans-serif; font-size: 16px; fill: #000; opacity: 1;">0.30</text><text text-anchor="middle" transform="translate(210,20)" style="font-family: sans-serif; font-size: 16px; fill: #000; opacity: 0;">0.35</text><text text-anchor="middle" transform="translate(240,20)" style="font-family: sans-serif; font-size: 16px; fill: #000; opacity: 1;">0.40</text><text text-anchor="middle" transform="translate(270,20)" style="font-family: sans-serif; font-size: 16px; fill: #000; opacity: 0;">0.45</text><text text-anchor="middle" transform="translate(300,20)" style="font-family: sans-serif; font-size: 16px; fill: #000; opacity: 1;">0.50</text><text text-anchor="middle" transform="translate(330,20)" style="font-family: sans-serif; font-size: 16px; fill: #000; opacity: 0;">0.55</text><text text-anchor="middle" transform="translate(360,20)" style="font-family: sans-serif; font-size: 16px; fill: #000; opacity: 1;">0.60</text><text text-anchor="middle" transform="translate(390,20)" style="font-family: sans-serif; font-size: 16px; fill: #000; opacity: 0;">0.65</text><text text-anchor="middle" transform="translate(420,20)" style="font-family: sans-serif; font-size: 16px; fill: #000; opacity: 1;">0.70</text><text text-anchor="middle" transform="translate(450,20)" style="font-family: sans-serif; font-size: 16px; fill: #000; opacity: 0;">0.75</text><text text-anchor="middle" transform="translate(480,20)" style="font-family: sans-serif; font-size: 16px; fill: #000; opacity: 1;">0.80</text><text text-anchor="middle" transform="translate(510,20)" style="font-family: sans-serif; font-size: 16px; fill: #000; opacity: 0;">0.85</text><text text-anchor="middle" transform="translate(540,20)" style="font-family: sans-serif; font-size: 16px; fill: #000; opacity: 1;">0.90</text><text text-anchor="middle" transform="translate(570,20)" style="font-family: sans-serif; font-size: 16px; fill: #000; opacity: 0;">0.95</text><text text-anchor="end" transform="translate(600,20)" style="font-family: sans-serif; font-size: 16px; fill: #000; opacity: 1;">1.00</text></g><g class="mark-rule role-axis-domain" style="pointer-events: none;"><line transform="translate(0,0)" x2="600" y2="0" style="fill: none; stroke: #888; stroke-width: 1; opacity: 1;"></line></g><g class="mark-text role-axis-title" style="pointer-events: none;"><text text-anchor="middle" transform="translate(300,43)" style="font-family: sans-serif; font-size: 20px; font-weight: bold; fill: #000; opacity: 1;">M/Mₛ</text></g></g><path class="foreground" d="" style="pointer-events: none; display: none; fill: none;"></path></g></g><g class="mark-group role-axis"><g transform="translate(0.5,0.5)"><path class="background" d="M0,0h0v0h0Z" style="pointer-events: none; fill: none;"></path><g><g class="mark-rule role-axis-tick" style="pointer-events: none;"><line transform="translate(0,400)" x2="-5" y2="0" style="fill: none; stroke: #888; stroke-width: 1; opacity: 1;"></line><line transform="translate(0,356)" x2="-5" y2="0" style="fill: none; stroke: #888; stroke-width: 1; opacity: 1;"></line><line transform="translate(0,311)" x2="-5" y2="0" style="fill: none; stroke: #888; stroke-width: 1; opacity: 1;"></line><line transform="translate(0,267)" x2="-5" y2="0" style="fill: none; stroke: #888; stroke-width: 1; opacity: 1;"></line><line transform="translate(0,222)" x2="-5" y2="0" style="fill: none; stroke: #888; stroke-width: 1; opacity: 1;"></line><line transform="translate(0,178)" x2="-5" y2="0" style="fill: none; stroke: #888; stroke-width: 1; opacity: 1;"></line><line transform="translate(0,133)" x2="-5" y2="0" style="fill: none; stroke: #888; stroke-width: 1; opacity: 1;"></line><line transform="translate(0,89)" x2="-5" y2="0" style="fill: none; stroke: #888; stroke-width: 1; opacity: 1;"></line><line transform="translate(0,44)" x2="-5" y2="0" style="fill: none; stroke: #888; stroke-width: 1; opacity: 1;"></line><line transform="translate(0,0)" x2="-5" y2="0" style="fill: none; stroke: #888; stroke-width: 1; opacity: 1;"></line></g><g class="mark-text role-axis-label" style="pointer-events: none;"><text text-anchor="end" transform="translate(-7,405)" style="font-family: sans-serif; font-size: 16px; fill: #000; opacity: 1;">0.0</text><text text-anchor="end" transform="translate(-7,360.55555555555554)" style="font-family: sans-serif; font-size: 16px; fill: #000; opacity: 1;">0.5</text><text text-anchor="end" transform="translate(-7,316.11111111111114)" style="font-family: sans-serif; font-size: 16px; fill: #000; opacity: 1;">1.0</text><text text-anchor="end" transform="translate(-7,271.6666666666667)" style="font-family: sans-serif; font-size: 16px; fill: #000; opacity: 1;">1.5</text><text text-anchor="end" transform="translate(-7,227.22222222222223)" style="font-family: sans-serif; font-size: 16px; fill: #000; opacity: 1;">2.0</text><text text-anchor="end" transform="translate(-7,182.77777777777777)" style="font-family: sans-serif; font-size: 16px; fill: #000; opacity: 1;">2.5</text><text text-anchor="end" transform="translate(-7,138.33333333333334)" style="font-family: sans-serif; font-size: 16px; fill: #000; opacity: 1;">3.0</text><text text-anchor="end" transform="translate(-7,93.88888888888889)" style="font-family: sans-serif; font-size: 16px; fill: #000; opacity: 1;">3.5</text><text text-anchor="end" transform="translate(-7,49.444444444444464)" style="font-family: sans-serif; font-size: 16px; fill: #000; opacity: 1;">4.0</text><text text-anchor="end" transform="translate(-7,5)" style="font-family: sans-serif; font-size: 16px; fill: #000; opacity: 1;">4.5</text></g><g class="mark-rule role-axis-domain" style="pointer-events: none;"><line transform="translate(0,400)" x2="0" y2="-400" style="fill: none; stroke: #888; stroke-width: 1; opacity: 1;"></line></g></g><path class="foreground" d="" style="pointer-events: none; display: none; fill: none;"></path></g></g></g><path class="foreground" d="" style="display: none; fill: none;"></path></g></g></g></svg>