<svg class="marks" width="750" height="465" viewBox="0 0 750 465" version="1.1" xmlns="http://www.w3.org/2000/svg" xmlns:xlink="http://www.w3.org/1999/xlink"><rect width="750" height="465" style="fill: white;"></rect><g transform="translate(63,13)"><g class="mark-group role-frame root"><g transform="translate(0,0)"><path class="background" d="M0.5,0.5h600v400h-600Z" style="fill: none; stroke: #ddd;"></path><g><g class="mark-group role-axis"><g transform="translate(0.5,400.5)"><path class="background" d="M0,0h0v0h0Z" style="pointer-events: none; fill: none;"></path><g><g class="mark-rule role-axis-tick" style="pointer-events: none;"><line transform="translate(0,0)" x2="0" y2="5" style="fill: none; stroke: #888; stroke-width: 1; opacity: 1;"></line><line transform="translate(55,0)" x2="0" y2="5" style="fill: none; stroke: #888; stroke-width: 1; opacity: 1;"></line><line transform="translate(109,0)" x2="0" y2="5" style="fill: none; stroke: #888; stroke-width: 1; opacity: 1;"></line><line transform="translate(164,0)" x2="0" y2="5" style="fill: none; stroke: #888; stroke-width: 1; opacity: 1;"></line><line transform="translate(218,0)" x2="0" y2="5" style="fill: none; stroke: #888; stroke-width: 1; opacity: 1;"></line><line transform="translate(273,0)" x2="0" y2="5" style="fill: none; stroke: #888; stroke-width: 1; opacity: 1;"></line><line transform="translate(327,0)" x2="0" y2="5" style="fill: none; stroke: #888; stroke-width: 1; opacity: 1;"></line><line transform="translate(382,0)" x2="0" y2="5" style="fill: none; stroke: #888; stroke-width: 1; opacity: 1;"></line><line transform="translate(436,0)" x2="0" y2="5" style="fill: none; stroke: #888; stroke-width: 1; opacity: 1;"></line><line transform="translate(491,0)" x2="0" y2="5" style="fill: none; stroke: #888; stroke-width: 1; opacity: 1;"></line><line transform="translate(545,0)" x2="0" y2="5" style="fill: none; stroke: #888; stroke-width: 1; opacity: 1;"></line><line transform="translate(600,0)" x2="0" y2="5" style="fill: none; stroke: #888; stroke-width: 1; opacity: 1;"></line></g><g class="mark-text role-axis-label" style="pointer-events: none;"><text text-anchor="start" transform="translate(0,20)" style="font-family: Roboto; font-size: 16px; fill: #000; opacity: 1;">-1.0</text><text text-anchor="middle" transform="translate(54.54545454545453,20)" style="font-family: Roboto; font-size: 16px; fill: #000; opacity: 1;">-0.8</text><text text-anchor="middle" transform="translate(109.0909090909091,20)" style="font-family: Roboto; font-size: 16px; fill: #000; opacity: 1;">-0.6</text><text text-anchor="middle" transform="translate(163.63636363636363,20)" style="font-family: Roboto; font-size: 16px; fill: #000; opacity: 1;">-0.4</text><text text-anchor="middle" transform="translate(218.1818181818182,20)" style="font-family: Roboto; font-size: 16px; fill: #000; opacity: 1;">-0.2</text><text text-anchor="middle" transform="translate(272.7272727272727,20)" style="font-family: Roboto; font-size: 16px; fill: #000; opacity: 1;">0.0</text><text text-anchor="middle" transform="translate(327.27272727272725,20)" style="font-family: Roboto; font-size: 16px; fill: #000; opacity: 1;">0.2</text><text text-anchor="middle" transform="translate(381.81818181818176,20)" style="font-family: Roboto; font-size: 16px; fill: #000; opacity: 1;">0.4</text><text text-anchor="middle" transform="translate(436.3636363636364,20)" style="font-family: Roboto; font-size: 16px; fill: #000; opacity: 1;">0.6</text><text text-anchor="middle" transform="translate(490.9090909090909,20)" style="font-family: Roboto; font-size: 16px; fill: #000; opacity: 1;">0.8</text><text text-anchor="middle" transform="translate(545.4545454545454,20)" style="font-family: Roboto; font-size: 16px; fill: #000; opacity: 1;">1.0</text><text text-anchor="end" transform="translate(600,20)" style="font-family: Roboto; font-size: 16px; fill: #000; opacity: 1;">1.2</text></g><g class="mark-rule role-axis-domain" style="pointer-events: none;"><line transform="translate(0,0)" x2="600" y2="0" style="fill: none; stroke: #888; stroke-width: 1; opacity: 1;"></line></g><g class="mark-text role-axis-title" style="pointer-events: none;"><text text-anchor="middle" transform="translate(300,43)" style="font-family: Roboto; font-size: 20px; font-weight: bold; fill: #000; opacity: 1;">Orientation Order</text></g></g><path class="foreground" d="" style="pointer-events: none; display: none; fill: none;"></path></g></g><g class="mark-group role-axis"><g transform="translate(0.5,0.5)"><path class="background" d="M0,0h0v0h0Z" style="pointer-events: none; fill: none;"></path><g><g class="mark-rule role-axis-tick" style="pointer-events: none;"><line transform="translate(0,400)" x2="-5" y2="0" style="fill: none; stroke: #888; stroke-width: 1; opacity: 1;"></line><line transform="translate(0,360)" x2="-5" y2="0" style="fill: none; stroke: #888; stroke-width: 1; opacity: 1;"></line><line transform="translate(0,320)" x2="-5" y2="0" style="fill: none; stroke: #888; stroke-width: 1; opacity: 1;"></line><line transform="translate(0,280)" x2="-5" y2="0" style="fill: none; stroke: #888; stroke-width: 1; opacity: 1;"></line><line transform="translate(0,240)" x2="-5" y2="0" style="fill: none; stroke: #888; stroke-width: 1; opacity: 1;"></line><line transform="translate(0,200)" x2="-5" y2="0" style="fill: none; stroke: #888; stroke-width: 1; opacity: 1;"></line><line transform="translate(0,160)" x2="-5" y2="0" style="fill: none; stroke: #888; stroke-width: 1; opacity: 1;"></line><line transform="translate(0,120)" x2="-5" y2="0" style="fill: none; stroke: #888; stroke-width: 1; opacity: 1;"></line><line transform="translate(0,80)" x2="-5" y2="0" style="fill: none; stroke: #888; stroke-width: 1; opacity: 1;"></line><line transform="translate(0,40)" x2="-5" y2="0" style="fill: none; stroke: #888; stroke-width: 1; opacity: 1;"></line><line transform="translate(0,0)" x2="-5" y2="0" style="fill: none; stroke: #888; stroke-width: 1; opacity: 1;"></line></g><g class="mark-text role-axis-label" style="pointer-events: none;"><text text-anchor="end" transform="translate(-7,405)" style="font-family: Roboto; font-size: 16px; fill: #000; opacity: 1;">0</text><text text-anchor="end" transform="translate(-7,365)" style="font-family: Roboto; font-size: 16px; fill: #000; opacity: 1;">10</text><text text-anchor="end" transform="translate(-7,325)" style="font-family: Roboto; font-size: 16px; fill: #000; opacity: 1;">20</text><text text-anchor="end" transform="translate(-7,285)" style="font-family: Roboto; font-size: 16px; fill: #000; opacity: 1;">30</text><text text-anchor="end" transform="translate(-7,245)" style="font-family: Roboto; font-size: 16px; fill: #000; opacity: 1;">40</text><text text-anchor="end" transform="translate(-7,205)" style="font-family: Roboto; font-size: 16px; fill: #000; opacity: 1;">50</text><text text-anchor="end" transform="translate(-7,165)" style="font-family: Roboto; font-size: 16px; fill: #000; opacity: 1;">60</text><text text-anchor="end" transform="translate(-7,125.00000000000001)" style="font-family: Roboto; font-size: 16px; fill: #000; opacity: 1;">70</text><text text-anchor="end" transform="translate(-7,84.99999999999999)" style="font-family: Roboto; font-size: 16px; fill: #000; opacity: 1;">80</text><text text-anchor="end" transform="translate(-7,44.99999999999999)" style="font-family: Roboto; font-size: 16px; fill: #000; opacity: 1;">90</text><text text-anchor="end" transform="translate(-7,5)" style="font-family: Roboto; font-size: 16px; fill: #000; opacity: 1;">100</text></g><g class="mark-rule role-axis-domain" style="pointer-events: none;"><line transform="translate(0,400)" x2="0" y2="-400" style="fill: none; stroke: #888; stroke-width: 1; opacity: 1;"></line></g><g class="mark-text role-axis-title" style="pointer-events: none;"><text text-anchor="middle" transform="translate(-37.9765625,200) rotate(-90) translate(0,-4)" style="font-family: Roboto; font-size: 20px; font-weight: bold; fill: #000; opacity: 1;">Distribution</text></g></g><path class="foreground" d="" style="pointer-events: none; display: none; fill: none;"></path></g></g><g class="mark-group role-scope pathgroup"><g transform="translate(0,0)"><path class="background" d="M0,0h600v400h-600Z" style="fill: none;"></path><g><g class="mark-line role-mark marks"><path d="M129.28631393421517,399.97519841269843L130.85701183357247,399.97519841269843L136.3544544813229,399.97519841269843L137.92515238068012,399.97519841269843L142.63724607875184,399.97519841269843L156.77352717296708,399.97519841269843L157.55887612264578,399.97519841269843L160.7002719213602,399.97519841269843L161.7474038542651,399.97519841269843L162.53275280394368,399.97519841269843L162.79453578716993,399.97519841269843L164.88879965297954,399.97519841269843L166.1977145691106,399.97519841269843L176.14546793170658,399.97519841269843L186.09322129430245,399.97519841269843L188.97283410979082,399.97519841269843L199.18237045561284,399.97519841269843L199.96771940529155,399.97519841269843L341.8540963138966,399.97519841269843L343.9483601797062,399.97519841269843L352.5871986261712,399.97519841269843L353.8961135423022,399.97519841269843L358.86999022360015,399.97519841269843L424.31573603015227,399.97519841269843L425.8864339295095,399.97519841269843L427.71891481209303,399.97519841269843L428.5042637617716,399.97519841269843L434.2634893927483,399.97519841269843L438.4520171243676,399.97519841269843L440.28449800695097,399.97519841269843L440.8080639734034,399.97519841269843L441.06984695662976,399.95039682539687L441.593412923082,399.95039682539687L441.85519590630815,399.97519841269843L442.1169788895345,399.97519841269843L442.3787618727608,399.97519841269843L442.64054485598695,399.97519841269843L444.99659170502287,399.9255952380952L445.7819406547013,399.95039682539687L446.3055066211539,399.9255952380952L446.8290725876062,399.97519841269843L447.87620452051107,399.97519841269843L448.13798750373724,399.97519841269843L448.3997704869634,399.97519841269843L448.6615534701897,399.97519841269843L449.18511943664214,399.97519841269843L449.4469024198683,399.97519841269843L449.7086854030944,399.97519841269843L449.9704683863207,399.97519841269843L450.23225136954704,399.97519841269843L450.4940343527732,399.9255952380952L451.54116628567806,399.95039682539687L452.0647322521304,399.97519841269843L452.32651523535657,399.97519841269843L452.58829821858285,399.95039682539687L453.11186418503524,399.95039682539687L453.3736471682614,399.95039682539687L453.6354301514876,399.87599206349205L453.8972131347139,399.97519841269843L454.4207791011663,399.97519841269843L455.9914770005235,399.97519841269843L457.3003919166546,399.9255952380952L458.8710898160118,399.97519841269843L460.18000473214283,399.97519841269843L460.4417877153691,399.97519841269843L460.9653536818215,399.95039682539687L461.2271366650477,399.97519841269843L464.10674948053594,399.97519841269843L464.3685324637622,399.97519841269843L464.6303154469885,399.97519841269843L465.415664396667,399.97519841269843L465.9392303631196,399.97519841269843L466.2010133463457,399.97519841269843L466.46279632957186,399.97519841269843L466.724579312798,399.97519841269843L467.77171124570293,399.97519841269843L468.0334942289291,399.97519841269843L470.9131070444173,399.97519841269843L472.2220219605483,399.95039682539687L472.48380494377466,399.95039682539687L472.74558792700094,399.97519841269843L473.2691538934533,399.97519841269843L473.53093687667945,399.97519841269843L473.7927198599057,399.97519841269843L474.3162858263581,399.97519841269843L475.10163477603675,399.97519841269843L475.36341775926303,399.95039682539687L475.6252007424892,399.97519841269843L477.1958986418464,399.97519841269843L477.71946460829884,399.97519841269843L477.9812475915251,399.97519841269843L478.5048135579774,399.97519841269843L479.2901625076562,399.97519841269843L479.55194549088236,399.97519841269843L479.81372847410853,399.97519841269843L480.3372944405609,399.97519841269843L481.12264339023955,399.95039682539687L481.9079923399182,399.97519841269843L482.1697753231444,399.9255952380952L482.69334128959673,399.97519841269843L482.955124272823,399.97519841269843L483.7404732225016,399.97519841269843L484.00225620572775,399.95039682539687L484.2640391889541,399.92559523809524L484.52582217218037,399.97519841269843L484.7876051554065,399.97519841269843L485.04938813863265,399.97519841269843L485.3111711218588,399.97519841269843L485.8347370883114,399.95039682539687L486.09652007153755,399.97519841269843L486.3583030547637,399.9255952380952L487.1436520044424,399.97519841269843L487.40543498766857,399.95039682539687L487.66721797089474,399.9007936507936L488.19078393734713,399.95039682539687L488.4525669205735,399.95039682539687L488.71434990379964,399.9255952380952L489.237915870252,399.9007936507936L489.4996988534782,399.95039682539687L489.7614818367045,399.9255952380952L490.02326481993066,399.97519841269843L490.28504780315683,399.97519841269843L490.546830786383,399.9255952380952L490.8086137696093,399.95039682539687L491.0703967528355,399.97519841269843L491.3321797360617,399.9255952380952L491.59396271928784,399.9007936507936L492.1175286857403,399.95039682539687L492.37931166896664,399.95039682539687L492.64109465219275,399.95039682539687L492.9028776354189,399.87599206349205L493.16466061864503,399.9255952380952L493.42644360187137,399.92559523809524L493.68822658509765,399.9007936507936L493.9500095683238,399.95039682539687L494.21179255155,399.9007936507936L494.4735755347761,399.97519841269843L494.7353585180024,399.87599206349216L494.99714150122867,399.82638888888886L495.25892448445484,399.95039682539687L495.520707467681,399.87599206349205L495.7824904509072,399.87599206349205L496.0442734341334,399.92559523809524L496.30605641735974,399.9007936507936L496.5678394005859,399.9255952380952L496.8296223838121,399.8511904761905L497.0914053670382,399.87599206349205L497.35318835026453,399.82638888888897L497.61497133349076,399.82638888888886L497.8767543167169,399.82638888888886L498.1385372999431,399.77678571428567L498.40032028316926,399.77678571428567L498.66210326639555,399.82638888888897L498.9238862496218,399.87599206349205L499.18566923284794,399.87599206349205L499.4474522160741,399.87599206349205L499.7092351993003,399.9007936507936L499.97101818252656,399.87599206349216L500.2328011657529,399.9007936507936L500.4945841489791,399.7519841269841L500.7563671322051,399.9007936507936L501.0181501154313,399.77678571428567L501.27993309865764,399.8015873015874L501.5417160818839,399.9007936507936L501.8034990651101,399.72718253968253L502.06528204833626,399.82638888888886L502.3270650315624,399.80158730158723L502.58884801478865,399.8015873015874L502.85063099801494,399.67757936507934L503.1124139812411,399.80158730158723L503.3741969644673,399.6527777777777L503.63597994769344,399.77678571428567L503.89776293091967,399.5783730158732L504.15954591414595,399.72718253968253L504.4213288973721,399.7519841269841L504.6831118805983,399.7519841269841L504.94489486382446,399.80158730158723L505.2066778470507,399.6031746031746L505.46846083027697,399.7023809523811L505.7302438135032,399.77678571428567L505.99202679672936,399.77678571428567L506.25380977995553,399.5535714285714L506.51559276318176,399.67757936507934L506.777375746408,399.65277777777794L507.0391587296342,399.6031746031746L507.3009417128604,399.57837301587296L507.56272469608655,399.8511904761905L507.8245076793128,399.5535714285714L508.086290662539,399.4791666666669L508.3480736457653,399.7023809523809L508.60985662899145,399.6031746031746L508.87163961221756,399.47916666666663L509.1334225954438,399.4047619047618L509.39520557867,399.52876984127005L509.65698856189636,399.6527777777777L509.9187715451225,399.37996031746025L510.1805545283487,399.4047619047618L510.44233751157486,399.47916666666663L510.7041204948011,399.5783730158732L510.96590347802737,399.5039682539682L511.22768646125354,399.6031746031746L511.4894694444797,399.2063492063491L511.75125242770594,399.57837301587296L512.0130354109322,399.4295634920638L512.2748183941584,399.47916666666663L512.5366013773846,399.2807539682539L512.7983843606107,399.13194444444434L513.060167343837,399.3551587301587L513.3219503270632,399.3799603174606L513.5837333102894,399.3055555555555L513.8455162935156,399.08234126984115L514.1072992767417,399.0575396825396L514.369082259968,398.88392857142844L514.6308652431942,399.00793650793696L514.8926482264205,399.18154761904754L515.1544312096466,398.8591269841268L515.4162141928728,399.1071428571428L515.677997176099,398.8591269841268L515.9397801593253,398.80952380952436L516.2015631425515,398.8095238095237L516.4633461257778,398.7847222222221L516.7251291090039,398.7599206349205L516.9869120922301,398.6111111111109L517.2486950754563,398.5615079365086L517.5104780586826,398.38789682539664L517.7722610419088,398.5367063492062L518.0340440251349,398.487103174603L518.2958270083611,398.6111111111109L518.5576099915874,398.0902777777786L518.8193929748136,398.2142857142855L519.0811759580398,398.3134920634919L519.3429589412659,398.2390873015871L519.6047419244921,397.89186507936483L519.8665249077185,397.8670634920644L520.1283078909447,398.13988095238074L520.3900908741708,397.9166666666664L520.651873857397,397.96626984126965L520.9136568406233,397.54464285714255L521.1754398238495,397.3958333333345L521.4372228070757,397.79265873015845L521.6990057903018,397.6686507936505L521.9607887735281,397.29662698412665L522.2225717567543,397.519841269841L522.4843547399805,396.70138888889034L522.7461377232067,397.17261904761875L523.007920706433,396.35416666666623L523.2697036896591,396.552579365079L523.5314866728853,396.77579365079333L523.7932696561115,396.8501984126998L524.0550526393379,396.7261904761901L524.316835622564,395.83333333333286L524.5786186057902,396.006944444444L524.8404015890163,396.2549603174599L525.1021845722425,395.33730158730367L525.3639675554689,394.89087301587244L525.625750538695,395.23809523809473L525.8875335219212,395.3124999999995L526.1493165051475,394.7668650793645L526.4110994883736,394.4940476190501L526.6728824715999,394.8660714285709L526.934665454826,394.7668650793645L527.1964484380522,393.65079365079293L527.4582314212785,393.8988095238089L527.7200144045047,394.0476190476217L527.9817973877309,393.22916666666595L528.243580370957,393.3283730158723L528.5053633541833,392.4603174603166L528.7671463374095,392.9563492063484L529.0289293206357,392.43551587301926L529.290712303862,392.38591269841186L529.5524952870882,390.7738095238085L529.8142782703143,391.0218253968244L530.0760612535405,390.05456349206236L530.3378442367667,389.6329365079411L530.5996272199931,389.6081349206338L530.8614102032192,388.8144841269829L531.1231931864454,388.988095238094L531.3849761696715,388.69047619047495L531.6467591528977,387.5992063492119L531.9085421361241,387.177579365078L532.1703251193502,386.9791666666652L532.4321081025764,386.53273809523665L532.6938910858026,385.98710317460166L532.9556740690289,386.2103174603236L533.2174570522551,384.1765873015856L533.4792400354813,383.45734126983945L533.7410230187074,382.24206349206156L534.0028060019337,381.12599206349L534.2645889851599,381.89484126984934L534.5263719683861,380.67956349206133L534.7881549516123,378.645833333331L535.0499379348385,378.8194444444421L535.3117209180647,376.06646825396564L535.5735039012909,377.97619047620026L535.8352868845171,374.77678571428294L536.0970698677434,373.71031746031457L536.3588528509695,373.1646825396796L536.6206358341957,371.7013888888858L536.882418817422,370.1140873016006L537.1442018006483,368.52678571428225L537.4059847838745,366.3194444444407L537.6677677671006,364.1617063492024L537.9295507503268,363.4672619047579L538.191333733553,359.7470238095417L538.4531167167793,359.99503968253526L538.7148997000055,358.85416666666214L538.9766826832316,355.65476190475704L539.2384656664578,352.85218253967736L539.500248649684,350.19841269840725L539.7620316329102,346.32936507938894L540.0238146161365,345.188492063486L540.2855975993626,341.9890873015809L540.5473805825889,338.64087301586625L540.8091635658151,332.5892857142783L541.0709465490412,329.8859126984439L541.3327295322675,326.736111111103L541.5945125154938,321.23015873015004L541.85629549872,315.0793650793557L542.1180784819461,310.24305555554565L542.3798614651723,306.0763888889307L542.6416444483986,301.86011904760824L542.9034274316248,293.1795634920517L543.165210414851,289.2609126984005L543.4269933980771,284.05257936506655L543.6887763813033,273.43750000005633L543.9505593645296,262.57440476188964L544.2123423477558,261.03670634919104L544.474125330982,248.4374999999833L544.7359083142081,235.68948412696608L544.9976912974344,229.0674603175364L545.2594742806607,216.12103174601148L545.5212572638869,201.66170634918447L545.7830402471131,192.28670634918345L546.0448232303391,177.72817460315014L546.3066062135655,162.772817460423L546.5683891967917,144.81646825394017L546.830172180018,129.2410714285416L547.091955163244,109.84623015869816L547.3537381464703,94.51884920631555L547.6155211296966,79.01785714299993L547.8773041129227,54.98511904758105L548.139087096149,41.542658730119264L548.4008700793752,38.9384920634523L548.6626530626013,18.15476190471985L548.9244360458275,8.581349206523337L549.1862190290537,3.5466269840832787L549.4480020122801,4.141865079321461L549.7097849955061,21.949404761863136L549.9715679787324,38.616071428531654L550.2333509619586,82.24206349220484L550.4951339451849,134.77182539679623L550.756916928411,203.69543650791488L551.0186999116373,288.7896825396703L551.2804828948633,371.5525793650762" style="fill: none; stroke: #f58518; stroke-width: 2;"></path></g></g><path class="foreground" d="" style="display: none; fill: none;"></path></g><g transform="translate(0,0)"><path class="background" d="M0,0h600v400h-600Z" style="fill: none;"></path><g><g class="mark-line role-mark marks"><path d="M13.05466938177855,399.8046875L16.981414130171682,399.90234375L18.290329046302727,399.70703124999994L19.861026945660022,399.90234375000006L20.908158878564816,399.8046875L21.431724845017257,399.8046875000001L21.693507828243508,399.90234375L22.21707379469586,399.90234375L22.47885677792205,399.90234375L22.7406397611483,399.90234375000006L23.002422744374552,399.90234375L23.264205727600743,399.90234375L23.525988710826905,399.70703124999994L23.78777169405309,399.90234375L24.049554677279346,399.8046875000001L24.83490362695795,399.90234375L25.88203555986283,399.90234375L26.667384509541435,399.90234375000006L27.976299425672476,399.90234375000006L28.23808240889873,399.90234375L28.49986539212492,399.90234375L28.76164837535108,399.8046875L29.02343135857727,399.90234375L29.28521434180352,399.8046875000001L29.546997325029775,399.8046875L30.070563291482124,399.90234375L30.594129257934565,399.90234375000006L31.117695224387006,399.90234375L31.64126119083936,399.60937499999994L31.90304417406561,399.5117187500002L32.42661014051805,399.8046875L32.68839312374421,399.90234375L32.9501761069704,399.90234375L33.21195909019665,399.90234375000006L33.473742073422905,399.8046875L33.735525056649095,399.8046875L34.25909102310145,399.8046875L34.520874006327695,399.90234375000006L34.78265698955395,399.90234375L35.04443997278014,399.90234375L35.3062229560063,399.90234375L35.82978892245874,399.8046875000001L36.091571905684994,399.8046875L36.353354888911184,399.8046875L36.61513787213734,399.51171874999994L36.87692085536354,399.70703124999994L37.40048682181604,399.8046875L37.66226980504223,399.8046875L37.92405278826838,399.8046875L38.709401737947076,399.8046875L38.971184721173266,399.70703124999994L39.232967704399435,399.8046875L39.494750687625626,399.8046875L39.75653367085187,399.8046875000001L40.01831665407813,399.8046875L40.54188262053047,399.8046875L40.80366560375667,399.8046875L41.06544858698292,399.7070312500001L41.327231570209165,399.8046875L41.589014553435355,399.8046875L41.850797536661524,399.8046875L42.11258051988771,399.8046875L42.37436350311397,399.90234375000006L42.636146486340216,399.70703124999994L42.89792946956641,399.51171874999994L43.15971245279256,399.8046875L43.42149543601876,399.90234375L43.683278419245006,399.8046875000001L43.945061402471254,399.8046875L44.206844385697444,399.70703124999994L44.730410352149796,399.51171874999994L44.992193335376044,399.8046875000001L45.253976318602305,399.8046875L45.515759301828496,399.60937499999994L45.77754228505465,399.8046875L46.03932526828085,399.60937499999994L46.301108251507095,399.60937500000017L46.56289123473334,399.51171874999994L46.82467421795953,399.60937499999994L47.086457201185695,399.70703124999994L47.348240184411885,399.60937499999994L47.61002316763813,399.60937500000017L47.871806150864394,399.70703124999994L48.13358913409058,399.3164062499999L48.39537211731674,399.70703124999994L48.65715510054294,399.51171874999994L48.918938083769184,399.8046875000001L49.18072106699543,399.60937499999994L49.44250405022162,399.70703124999994L49.704287033447784,399.41406249999994L49.966070016673974,399.3164062499999L50.22785299990022,399.8046875000001L50.489635983126476,399.3164062499999L50.75141896635267,399.60937499999994L51.01320194957883,399.70703124999994L51.274984932805026,399.60937499999994L51.53676791603127,399.90234375000006L51.79855089925752,399.60937499999994L52.06033388248371,399.3164062499999L52.32211686570987,399.2187499999999L52.58389984893606,399.2187499999999L52.84568283216231,399.4140625000003L53.107465815388565,399.8046875L53.369248798614755,399.70703124999994L53.63103178184091,399.8046875L53.8928147650671,399.41406249999994L54.15459774829336,399.3164062500003L54.41638073151961,399.51171874999994L54.6781637147458,399.90234375L54.93994669797196,399.41406249999994L55.20172968119815,399.3164062499999L55.46351266442434,399.51171874999994L55.7252956476506,399.4140625000003L55.987078630876844,399.0234374999999L56.248861614103,398.9257812499999L56.51064459732919,399.41406249999994L56.77242758055539,399.3164062499999L57.034210563781635,399.1210937500004L57.29599354700789,399.41406249999994L57.55777653023405,399.60937499999994L57.81955951346024,399.0234374999999L58.08134249668643,399.41406249999994L58.343125479912686,399.1210937500004L58.60490846313893,399.3164062499999L58.86669144636509,398.53515624999983L59.12847442959128,398.8281249999999L59.390257412817476,399.60937499999994L59.65204039604372,399.5117187500002L59.91382337926997,399.41406249999994L60.17560636249614,399.3164062499999L60.43738934572233,399.1210937499999L60.69917232894852,399.51171874999994L60.960955312174775,399.3164062500003L61.22273829540102,399.70703124999994L61.48452127862718,399.51171874999994L61.746304261853375,399.1210937499999L62.008087245079565,399.1210937499999L62.26987022830581,399.21875000000034L62.53165321153206,399.0234374999999L62.79343619475823,399.51171874999994L63.05521917798441,399.2187499999999L63.3170021612106,399.3164062499999L63.578785144436864,398.73046875000057L63.84056812766311,398.7304687499999L64.10235111088927,399.41406249999994L64.36413409411546,399.41406249999994L64.62591707734165,399.1210937499999L64.88770006056791,399.02343750000045L65.14948304379415,399.1210937499999L65.4112660270203,399.3164062499999L65.6730490102465,399.2187499999999L65.9348319934727,399.1210937499999L66.19661497669894,399.7070312500001L66.4583979599252,399.3164062499999L66.72018094315136,398.9257812499999L66.98196392637755,399.3164062499999L67.24374690960374,398.9257812499999L67.50552989283,399.3164062500003L67.76731287605624,399.0234374999999L68.02909585928239,399.51171874999994L68.29087884250859,399.3164062499999L68.55266182573479,399.3164062499999L68.81444480896103,399.3164062500003L69.07622779218728,399.3164062499999L69.33801077541345,399.3164062499999L69.59979375863963,399.0234374999999L69.86157674186583,399.2187499999999L70.12335972509209,399.3164062500003L70.38514270831833,399.41406249999994L70.64692569154448,398.24218749999983L70.90870867477068,399.41406249999994L71.17049165799688,398.6328124999999L71.43227464122312,398.8281250000005L71.69405762444937,398.6328124999999L71.95584060767554,399.2187499999999L72.21762359090172,399.2187499999999L72.4794065741279,398.7304687499999L72.74118955735418,399.3164062500003L73.00297254058042,399.51171874999994L73.26475552380657,399.2187499999999L73.52653850703277,399.0234374999999L73.78832149025897,398.9257812499999L74.0501044734852,399.4140625000003L74.31188745671146,398.9257812499999L74.57367043993763,399.1210937499999L74.83545342316381,399.1210937499999L75.09723640639,399.41406249999994L75.35901938961625,399.5117187500002L75.6208023728425,398.33984374999983L75.88258535606866,398.9257812499999L76.14436833929484,399.3164062499999L76.40615132252105,398.8281249999999L76.6679343057473,398.4375000000007L76.92971728897355,398.9257812499999L77.19150027219972,398.8281249999999L77.4532832554259,399.51171874999994L77.7150662386521,398.7304687499999L77.97684922187835,399.4140625000003L78.2386322051046,398.7304687499999L78.50041518833075,398.9257812499999L78.76219817155695,399.1210937499999L79.02398115478313,399.3164062499999L79.28576413800938,398.4375000000007L79.54754712123565,398.8281249999999L79.8093301044618,399.51171874999994L80.07111308768799,398.8281249999999L80.33289607091417,399.0234374999999L80.59467905414043,399.02343750000045L80.85646203736668,398.6328124999999L81.11824502059284,398.8281249999999L81.38002800381902,398.8281249999999L81.64181098704523,398.53515624999983L81.90359397027147,398.8281250000005L82.16537695349773,399.0234374999999L82.4271599367239,398.6328124999999L82.68894291995008,399.3164062499999L82.95072590317628,398.7304687499999L83.21250888640253,399.3164062500003L83.47429186962877,398.9257812499999L83.73607485285493,398.53515624999983L83.99785783608112,398.6328124999999L84.25964081930731,398.53515624999983L84.52142380253356,398.73046875000057L84.7832067857598,398.6328124999999L85.04498976898597,398.9257812499999L85.30677275221215,398.7304687499999L85.56855573543835,398.8281249999999L85.8303387186646,398.6328125000006L86.09212170189086,398.7304687499999L86.35390468511702,398.9257812499999L86.6156876683432,398.8281249999999L86.87747065156941,398.7304687499999L87.13925363479565,397.9492187500009L87.4010366180219,398.9257812499999L87.66281960124806,399.0234374999999L87.92460258447426,398.24218749999983L88.18638556770044,398.43749999999983L88.44816855092668,398.4375000000007L88.70995153415295,399.1210937499999L88.9717345173791,399.3164062499999L89.2335175006053,398.8281249999999L89.49530048383149,398.8281249999999L89.75708346705774,398.4375000000007L90.01886645028398,398.9257812499999L90.28064943351015,398.8281249999999L90.54243241673633,398.0468749999998L90.80421539996253,398.24218749999983L91.06599838318868,398.1445312499998L91.32778136641495,397.85156250000097L91.5895643496412,398.8281249999999L91.85134733286738,398.8281249999999L92.11313031609359,398.7304687499999L92.37491329931973,397.6562499999997L92.63669628254598,397.9492187500009L92.89847926577224,398.6328124999999L93.16026224899844,398.9257812499999L93.42204523222462,398.7304687499999L93.68382821545079,398.9257812499999L93.94561119867703,398.73046875000057L94.20739418190328,397.9492187499998L94.46917716512948,398.7304687499999L94.73096014835566,398.53515624999983L94.99274313158183,399.2187499999999L95.25452611480809,398.5351562500007L95.51630909803433,398.7304687499999L95.77809208126051,398.43749999999983L96.03987506448671,398.9257812499999L96.30165804771286,398.24218749999983L96.56344103093912,398.5351562500007L96.82522401416537,398.53515624999983L97.08700699739155,398.6328124999999L97.34878998061774,398.33984374999983L97.61057296384391,398.9257812499999L97.87235594707016,398.4375000000007L98.13413893029642,398.43749999999983L98.39592191352261,398.0468749999998L98.6577048967488,399.2187499999999L98.91948787997497,398.1445312499998L99.1812708632012,398.5351562500007L99.44305384642746,398.8281249999999L99.70483682965364,397.4609374999997L99.96661981287984,398.24218749999983L100.22840279610601,398.9257812499999L100.49018577933226,398.2421875000008L100.7519687625585,398.6328124999999L101.01375174578469,398.43749999999983L101.27553472901089,397.8515624999998L101.53731771223704,398.1445312499998L101.7991006954633,398.0468750000009L102.06088367868954,398.1445312499998L102.32266666191575,398.9257812499999L102.58444964514192,398.43749999999983L102.84623262836809,399.1210937499999L103.10801561159434,397.9492187500009L103.3697985948206,397.8515624999998L103.63158157804679,398.24218749999983L103.89336456127297,398.6328124999999L104.15514754449914,398.1445312499998L104.41693052772538,398.8281250000005L104.67871351095164,398.43749999999983L104.94049649417782,398.6328124999999L105.20227947740402,398.0468749999998L105.46406246063017,398.6328124999999L105.72584544385641,397.9492187500009L105.98762842708268,398.53515624999983L106.24941141030887,398.7304687499999L106.51119439353505,398.1445312499998L106.77297737676122,397.7539062499997L107.03476035998747,398.73046875000057L107.29654334321371,397.1679687499997L107.55832632643992,398.1445312499998L107.8201093096661,398.43749999999983L108.08189229289226,398.8281249999999L108.34367527611852,398.33984375000074L108.60545825934477,397.7539062499997L108.86724124257096,398.43749999999983L109.12902422579715,398.53515624999983L109.39080720902332,398.6328124999999L109.65259019224956,398.0468750000009L109.91437317547582,397.9492187499998L110.176156158702,398.43749999999983L110.4379391419282,398.6328124999999L110.69972212515435,396.97265624999966L110.96150510838059,397.0703125000013L111.22328809160685,398.33984374999983L111.48507107483304,398.53515624999983L111.74685405805923,398.0468749999998L112.0086370412854,398.1445312499998L112.27042002451165,397.5585937500011L112.53220300773789,398.1445312499998L112.7939859909641,397.8515624999998L113.05576897419029,397.9492187499998L113.31755195741644,397.7539062499997L113.5793349406427,397.9492187500009L113.84111792386895,398.24218749999983L114.10290090709513,397.9492187499998L114.36468389032133,398.24218749999983L114.62646687354747,397.9492187499998L114.88824985677374,397.656250000001L115.15003284,398.53515624999983L115.41181582322618,398.1445312499998L115.67359880645238,397.6562499999997L115.93538178967853,397.8515624999998L116.19716477290477,397.753906250001L116.45894775613102,398.6328124999999L116.72073073935722,397.0703124999997L116.9825137225834,397.8515624999998L117.24429670580957,396.87499999999966L117.50607968903583,398.4375000000007L117.76786267226207,398.0468749999998L118.02964565548828,397.9492187499998L118.29142863871446,397.5585937499997L118.55321162194062,397.2656249999997L118.81499460516687,397.36328125000114L119.07677758839313,398.24218749999983L119.33856057161931,397.7539062499997L119.60034355484551,398.33984374999983L119.86212653807165,396.58203124999966L120.1239095212979,397.5585937500011L120.38569250452417,397.9492187499998L120.64747548775036,397.0703124999997L120.90925847097654,397.8515624999998L121.17104145420271,396.77734374999966L121.43282443742895,396.87500000000136L121.6946074206552,396.97265624999966L121.9563904038814,396.87499999999966L122.21817338710758,397.6562499999997L122.47995637033375,397.7539062499997L122.74173935356,397.753906250001L123.00352233678625,397.2656249999997L123.26530532001243,396.67968749999966L123.52708830323864,397.2656249999997L123.78887128646478,397.7539062499997L124.05065426969105,397.5585937500011L124.3124372529173,397.1679687499997L124.57422023614349,398.1445312499998L124.83600321936969,397.7539062499997L125.09778620259583,397.5585937499997L125.35956918582204,397.4609374999997L125.62135216904828,396.9726562500013L125.88313515227453,398.33984374999983L126.14491813550072,397.1679687499997L126.40670111872689,397.0703124999997L126.66848410195307,398.0468749999998L126.93026708517931,397.46093750000114L127.19205006840558,397.6562499999997L127.45383305163176,396.58203124999966L127.71561603485793,397.4609374999997L127.97739901808411,397.1679687499997L128.23918200131035,396.48437500000153L128.5009649845366,397.6562499999997L128.7627479677628,397.0703124999997L129.02453095098898,397.9492187499998L129.28631393421517,397.5585937499997L129.54809691744143,396.87500000000136L129.80987990066765,397.2656249999997L130.07166288389385,396.97265624999966L130.33344586712002,396.97265624999966L130.59522885034622,397.3632812499997L130.85701183357247,396.3867187500016L131.1187948167987,397.4609374999997L131.3805778000249,396.4843749999996L131.64236078325106,396.09374999999955L131.90414376647723,396.3867187499996L132.1659267497035,396.58203125000153L132.42770973292974,396.97265624999966L132.68949271615594,395.80078124999955L132.9512756993821,397.2656249999997L133.2130586826083,397.0703124999997L133.47484166583453,396.28906250000165L133.7366246490608,396.58203124999966L133.99840763228698,396.09374999999955L134.26019061551315,397.0703124999997L134.52197359873935,396.77734374999966L134.7837565819656,396.28906250000165L135.04553956519183,397.0703124999997L135.30732254841803,398.33984374999983L135.5691055316442,397.1679687499997L135.83088851487037,396.77734374999966L136.09267149809665,396.0937500000017L136.3544544813229,396.67968749999966L136.61623746454907,396.77734374999966L136.87802044777524,395.7031249999995L137.1398034310014,397.9492187499998L137.40158641422767,396.48437500000153L137.66336939745392,396.09374999999955L137.92515238068012,396.3867187499996L138.18693536390626,396.09374999999955L138.44871834713248,395.4101562499995L138.7105013303587,396.7773437500014L138.97228431358496,397.3632812499997L139.23406729681116,396.3867187499996L139.49585028003733,396.1914062499996L139.75763326326353,396.97265624999966L140.01941624648978,395.8984375000018L140.281199229716,397.8515624999998L140.5429822129422,397.0703124999997L140.80476519616838,395.7031249999995L141.06654817939454,396.67968749999966L141.3283311626208,396.28906250000165L141.59011414584705,395.99609374999955L141.85189712907325,395.4101562499995L142.11368011229942,396.2890624999996L142.3754630955256,395.99609374999955L142.63724607875184,396.28906250000165L142.8990290619781,396.3867187499996L143.1608120452043,396.77734374999966L143.42259502843044,395.5078124999995L143.68437801165666,395.1171874999995L143.9461609948829,396.9726562500013L144.20794397810914,395.99609374999955L144.46972696133534,396.09374999999955L144.7315099445615,396.67968749999966L144.99329292778768,395.80078124999955L145.25507591101396,394.9218750000023L145.5168588942402,395.1171874999995L145.77864187746638,396.4843749999996L146.04042486069255,396.1914062499996L146.30220784391872,395.80078124999955L146.56399082714498,396.1914062500017L146.82577381037123,395.5078124999995L147.08755679359743,396.87499999999966L147.34933977682357,396.58203124999966L147.61112276004977,395.99609374999955L147.87290574327602,394.33593750000256L148.13468872650228,396.58203124999966L148.39647170972847,396.67968749999966L148.6582546929546,395.3124999999995L148.92003767618084,395.80078124999955L149.18182065940707,396.0937500000017L149.44360364263332,395.7031249999995L149.70538662585952,394.62890624999943L149.9671696090857,396.09374999999955L150.22895259231186,395.99609374999955L150.49073557553814,395.99609375000176L150.75251855876436,395.7031249999995L151.01430154199056,394.72656249999943L151.27608452521673,395.89843749999955L151.53786750844293,395.4101562499995L151.79965049166915,395.21484375000216L152.06143347489544,395.89843749999955L152.32321645812158,395.5078124999995L152.58499944134775,396.1914062499996L152.84678242457395,396.2890624999996L153.1085654078002,396.6796875000015L153.37034839102645,395.5078124999995L153.63213137425265,395.1171874999995L153.89391435747882,393.8476562499993L154.155697340705,395.3124999999995L154.41748032393124,395.8007812500019L154.6792633071575,395.1171874999995L154.9410462903837,395.3124999999995L155.20282927360986,395.80078124999955L155.46461225683606,393.8476562499993L155.7263952400623,395.70312500000193L155.98817822328854,395.7031249999995L156.2499612065147,394.92187499999943L156.51174418974088,395.4101562499995L156.77352717296708,394.82421874999943L157.03531015619336,394.82421875000233L157.2970931394196,394.92187499999943L157.55887612264578,395.5078124999995L157.82065910587195,394.3359374999994L158.08244208909812,396.67968749999966L158.34422507232438,394.9218750000023L158.60600805555063,395.3124999999995L158.86779103877683,395.2148437499995L159.129574022003,395.2148437499995L159.3913570052292,394.4335937499994L159.65313998845534,395.4101562499995L159.9149229716816,394.23828125000256L160.17670595490787,395.2148437499995L160.43848893813401,393.7499999999993L160.7002719213602,395.2148437499995L160.9620549045864,394.4335937499994L161.2238378878126,395.41015625000205L161.48562087103892,394.5312499999994L161.7474038542651,395.1171874999995L162.00918683749126,395.3124999999995L162.27096982071745,394.0429687499993L162.53275280394368,393.7500000000028L162.79453578716993,394.92187499999943L163.0563187703961,393.5546874999993L163.3181017536223,394.4335937499994L163.57988473684853,393.3593749999993L163.84166772007472,394.1406250000026L164.103450703301,394.4335937499994L164.36523368652715,393.8476562499993L164.62701666975335,395.89843749999955L164.88879965297954,393.6523437499993L165.15058263620577,394.53125000000244L165.41236561943205,394.82421874999943L165.67414860265822,391.7968749999991L165.93593158588442,393.16406249999926L166.1977145691106,393.8476562499993L166.4594975523368,393.35937500000296L166.72128053556307,394.92187499999943L166.98306351878924,394.2382812499994L167.24484650201543,393.4570312499993L167.50662948524163,393.5546874999993L167.76841246846783,393.7500000000028L168.03019545169414,395.1171874999995L168.2919784349203,391.7968749999991L168.55376141814648,392.96874999999926L168.81554440137268,394.1406249999993L169.0773273845989,393.7500000000028L169.33911036782519,392.7734374999992L169.60089335105135,394.5312499999994L169.86267633427755,392.96874999999926L170.1244593175037,394.1406249999993L170.38624230072995,393.94531250000273L170.6480252839562,392.7734374999992L170.90980826718237,393.3593749999993L171.17159125040857,393.06640624999926L171.43337423363477,392.6757812499992L171.69515721686096,393.94531250000273L171.95694020008727,393.8476562499993L172.21872318331344,394.62890624999943L172.4805061665396,392.5781249999992L172.7422891497658,392.7734374999992L173.00407213299204,393.164062500003L173.2658551162183,393.5546874999993L173.52763809944446,393.9453124999993L173.78942108267066,392.96874999999926L174.05120406589683,393.26171874999926L174.31298704912308,393.94531250000273L174.57477003234933,392.8710937499992L174.8365530155755,394.62890624999943L175.0983359988017,392.7734374999992L175.3601189820279,394.62890624999943L175.6219019652541,393.5546875000029L175.8836849484804,392.7734374999992L176.14546793170658,392.6757812499992L176.40725091493275,392.7734374999992L176.66903389815894,390.722656249999L176.93081688138517,393.35937500000296L177.19259986461142,394.1406249999993L177.4543828478376,394.0429687499993L177.7161658310638,393.7499999999993L177.97794881428996,391.6015624999991L178.23973179751619,391.4062500000038L178.5015147807425,393.06640624999926L178.76329776396864,393.06640624999926L179.02508074719483,392.6757812499992L179.28686373042103,395.1171874999995L179.54864671364723,390.62500000000415L179.81042969687354,391.30859374999903L180.0722126800997,393.3593749999993L180.33399566332585,391.9921874999991L180.59577864655208,391.21093749999903L180.8575616297783,392.38281250000335L181.11934461300456,392.96874999999926L181.38112759623073,392.18749999999915L181.64291057945692,393.4570312499993L181.90469356268312,393.06640624999926L182.16647654590932,392.2851562500034L182.42825952913563,393.9453124999993L182.69004251236177,391.01562499999903L182.95182549558797,390.3320312499989L183.21360847881417,393.5546874999993L183.4753914620404,390.5273437500042L183.73717444526665,390.820312499999L183.99895742849282,391.8945312499991L184.260740411719,392.38281249999915L184.52252339494518,391.01562499999903L184.78430637817144,392.5781250000033L185.0460893613977,393.6523437499993L185.30787234462386,392.38281249999915L185.56965532785006,391.21093749999903L185.83143831107625,392.96874999999926L186.09322129430245,392.7734375000032L186.35500427752876,392.38281249999915L186.61678726075493,390.2343749999989L186.8785702439811,391.9921874999991L187.1403532272073,391.9921874999991L187.40213621043353,392.0898437500035L187.66391919365978,391.8945312499991L187.92570217688595,392.96874999999926L188.18748516011215,392.28515624999915L188.44926814333832,393.3593749999993L188.71105112656454,391.8945312500036L188.97283410979082,391.4062499999991L189.234617093017,391.9921874999991L189.4964000762432,391.6015624999991L189.7581830594694,390.03906249999886L190.0199660426956,391.8945312500036L190.2817490259219,391.7968749999991L190.54353200914807,390.820312499999L190.8053149923742,392.0898437499991L191.06709797560043,389.45312499999886L191.32888095882666,392.0898437500035L191.5906639420529,391.01562499999903L191.85244692527908,389.55078124999886L192.11422990850528,392.0898437499991L192.37601289173145,392.18749999999915L192.63779587495767,392.48046875000335L192.899578858184,391.5039062499991L193.16136184141013,391.21093749999903L193.42314482463632,390.624999999999L193.68492780786252,391.9921874999991L193.9467107910887,392.18749999999915L194.20849377431492,391.113281250004L194.47027675754117,391.7968749999991L194.73205974076734,391.7968749999991L194.99384272399354,392.18749999999915L195.2556257072197,392.38281249999915L195.517408690446,392.0898437500035L195.77919167367222,392.96874999999926L196.0409746568984,391.6992187499991L196.3027576401246,391.11328124999903L196.56454062335075,391.6992187499991L196.826323606577,390.91796875000404L197.08810658980326,391.7968749999991L197.34988957302946,390.4296874999989L197.61167255625566,390.2343749999989L197.87345553948182,391.01562499999903L198.13523852270805,391.2109375000039L198.3970215059343,391.5039062499991L198.6588044891605,390.624999999999L198.92058747238667,392.48046874999915L199.18237045561284,390.3320312499989L199.44415343883912,391.4062500000038L199.70593642206535,389.84374999999886L199.96771940529155,391.4062499999991L200.22950238851774,390.722656249999L200.49128537174388,390.917968749999L200.75306835497014,391.2109375000039L201.01485133819642,391.4062499999991L201.27663432142256,389.84374999999886L201.5384173046488,391.4062499999991L201.80020028787493,390.820312499999L202.06198327110118,393.06640625000307L202.32376625432744,388.4765624999987L202.58554923755364,392.48046874999915L202.8473322207798,389.64843749999886L203.10911520400597,389.35546874999886L203.37089818723223,389.84375000000455L203.63268117045848,391.6015624999991L203.89446415368468,391.8945312499991L204.15624713691088,392.38281249999915L204.41803012013705,391.11328124999903L204.67981310336327,390.3320312500043L204.94159608658953,392.28515624999915L205.2033790698157,388.2812499999987L205.4651620530419,389.55078124999886L205.72694503626806,391.01562499999903L205.98872801949432,391.2109375000039L206.25051100272057,391.30859374999903L206.51229398594677,389.84374999999886L206.77407696917294,391.30859374999903L207.0358599523991,391.11328124999903L207.29764293562536,391.79687500000364L207.55942591885162,390.2343749999989L207.8212089020778,389.55078124999886L208.082991885304,389.1601562499988L208.34477486853018,391.7968749999991L208.6065578517564,391.60156250000375L208.86834083498266,390.722656249999L209.13012381820883,390.820312499999L209.39190680143503,389.94140624999886L209.6536897846612,390.624999999999L209.91547276788742,391.4062500000038L210.1772557511137,389.55078124999886L210.4390387343399,391.21093749999903L210.70082171756607,390.1367187499989L210.96260470079224,388.67187499999875L211.2243876840185,391.2109375000039L211.48617066724472,389.45312499999886L211.74795365047092,390.722656249999L212.00973663369714,389.55078124999886L212.27151961692329,389.84374999999886L212.53330260014954,391.6992187500037L212.7950855833758,388.4765624999987L213.05686856660196,391.11328124999903L213.31865154982816,388.2812499999987L213.58043453305433,389.2578124999988L213.84221751628058,390.62500000000415L214.10400049950684,390.624999999999L214.36578348273304,391.30859374999903L214.62756646595923,388.76953124999875L214.88934944918537,390.4296874999989L215.15113243241163,391.8945312500036L215.41291541563785,390.3320312499989L215.67469839886405,389.55078124999886L215.93648138209025,389.0624999999988L216.19826436531642,390.2343749999989L216.46004734854267,389.55078125000466L216.72183033176893,388.3789062499987L216.98361331499513,390.722656249999L217.2453962982213,390.820312499999L217.50717928144746,391.01562499999903L217.76896226467372,388.18359375000523L218.03074524789997,390.03906249999886L218.29252823112617,390.722656249999L218.55431121435237,388.76953124999875L218.81609419757848,389.55078124999886L219.07787718080476,388.57421875000506L219.33966016403102,391.30859374999903L219.60144314725719,388.57421874999875L219.86322613048338,390.917968749999L220.12500911370955,390.03906249999886L220.38679209693578,390.72265625000415L220.64857508016206,388.67187499999875L220.91035806338826,390.1367187499989L221.17214104661443,389.45312499999886L221.4339240298406,389.55078124999886L221.69570701306685,389.2578125000048L221.95748999629308,389.2578124999988L222.2192729795193,388.67187499999875L222.4810559627455,389.74609374999886L222.74283894597164,389.2578124999988L223.0046219291979,388.67187500000506L223.26640491242415,388.86718749999875L223.52818789565032,388.76953124999875L223.78997087887652,388.9648437499988L224.0517538621027,392.18749999999915L224.3135368453289,390.72265625000415L224.5753198285552,389.84374999999886L224.8371028117814,389.94140624999886L225.09888579500756,388.76953124999875L225.36066877823373,391.21093749999903L225.62245176145998,387.7929687500054L225.8842347446862,391.5039062499991L226.1460177279124,392.28515624999915L226.4078007111386,390.624999999999L226.66958369436477,388.86718749999875L226.93136667759103,388.67187500000506L227.19314966081728,389.74609374999886L227.45493264404345,389.45312499999886L227.71671562726965,389.74609374999886L227.97849861049582,388.2812499999987L228.24028159372202,389.45312499999886L228.50206457694824,389.3554687500048L228.76384756017453,389.74609374999886L229.02563054340072,389.0624999999988L229.28741352662684,388.67187499999875L229.54919650985306,387.8906249999987L229.81097949307932,388.96484375000495L230.07276247630554,391.21093749999903L230.33454545953174,390.722656249999L230.5963284427579,388.76953124999875L230.85811142598408,390.4296874999989L231.11989440921036,389.84375000000455L231.38167739243661,388.1835937499987L231.64346037566278,387.0117187499986L231.90524335888895,389.2578124999988L232.16702634211515,389.64843749999886L232.42880932534138,386.62109375000597L232.69059230856766,388.86718749999875L232.95237529179386,389.94140624999886L233.21415827501997,387.7929687499987L233.47594125824617,390.03906249999886L233.73772424147245,389.2578125000048L233.99950722469868,389.64843749999886L234.26129020792487,390.03906249999886L234.52307319115104,388.3789062499987L234.78485617437724,389.64843749999886L235.04663915760347,388.67187500000506L235.30842214082975,388.67187499999875L235.57020512405592,390.4296874999989L235.8319881072821,390.5273437499989L236.09377109050828,388.3789062499987L236.3555540737345,388.4765625000051L236.61733705696076,388.76953124999875L236.87912004018696,389.45312499999886L237.14090302341313,389.94140624999886L237.4026860066393,389.1601562499988L237.66446898986558,389.3554687500048L237.9262519730918,389.84374999999886L238.188034956318,388.76953124999875L238.44981793954418,387.49999999999864L238.71160092277037,388.3789062499987L238.9733839059966,389.6484375000046L239.23516688922288,388.0859374999987L239.49694987244905,388.3789062499987L239.7587328556752,388.9648437499988L240.02051583890142,389.55078124999886L240.28229882212767,388.3789062500052L240.5440818053539,388.2812499999987L240.80586478858007,389.74609374999886L241.06764777180626,387.69531249999864L241.32943075503243,389.2578124999988L241.59121373825872,389.55078125000466L241.85299672148494,387.2070312499986L242.1147797047111,388.0859374999987L242.3765626879373,388.4765624999987L242.6383456711635,389.2578124999988L242.90012865438973,386.1328125000062L243.16191163761602,388.86718749999875L243.42369462084216,388.2812499999987L243.68547760406832,387.3046874999986L243.94726058729452,388.3789062499987L244.2090435705208,387.69531250000546L244.47082655374703,389.74609374999886L244.7326095369732,387.59765624999864L244.9943925201994,389.55078124999886L245.25617550342557,388.4765624999987L245.51795848665182,388.769531250005L245.77974146987808,389.2578124999988L246.04152445310424,387.1093749999986L246.30330743633044,387.7929687499987L246.56509041955664,388.9648437499988L246.82687340278287,387.10937500000574L247.08865638600912,388.67187499999875L247.3504393692353,387.3046874999986L247.61222235246146,387.2070312499986L247.87400533568766,388.9648437499988L248.13578831891394,389.4531250000047L248.39757130214016,386.32812499999847L248.65935428536633,388.3789062499987L248.92113726859253,388.76953124999875L249.1829202518187,389.55078124999886L249.44470323504495,388.0859375000053L249.70648621827124,388.67187499999875L249.96826920149735,387.9882812499987L250.23005218472355,390.5273437499989L250.49183516794977,390.03906249999886L250.753618151176,388.0859375000053L251.01540113440225,386.8164062499985L251.27718411762842,388.3789062499987L251.5389671008546,389.35546874999886L251.8007500840808,388.4765624999987L252.06253306730707,388.96484375000495L252.3243160505333,388.2812499999987L252.58609903375947,389.45312499999886L252.84788201698566,388.1835937499987L253.10966500021186,388.0859374999987L253.3714479834381,391.113281250004L253.63323096666437,389.2578124999988L253.89501394989048,389.2578124999988L254.15679693311668,390.3320312499989L254.41857991634288,389.74609374999886L254.68036289956913,387.69531250000546L254.9421458827954,390.3320312499989L255.20392886602156,387.8906249999987L255.46571184924775,388.1835937499987L255.72749483247392,390.1367187499989L255.98927781570018,388.67187500000506L256.2510607989264,387.59765624999864L256.5128437821526,388.1835937499987L256.7746267653788,388.2812499999987L257.03640974860497,386.03515624999847L257.2981927318312,389.84375000000455L257.5599757150575,387.9882812499987L257.82175869828365,387.7929687499987L258.0835416815098,388.86718749999875L258.34532466473604,388.76953124999875L258.60710764796227,387.7929687500054L258.8688906311885,388.1835937499987L259.13067361441466,388.3789062499987L259.3924565976409,388.57421874999875L259.65423958086706,389.35546874999886L259.91602256409334,385.93750000000625L260.17780554731956,388.4765624999987L260.43958853054573,387.9882812499987L260.7013715137719,386.5234374999985L260.96315449699813,387.9882812499987L261.22493748022436,389.9414062500045L261.48672046345064,386.9140624999986L261.7485034466768,389.35546874999886L262.010286429903,387.7929687499987L262.27206941312915,389.55078124999886L262.5338523963554,388.3789062500052L262.79563537958165,387.40234374999864L263.0574183628078,387.59765624999864L263.319201346034,386.32812499999847L263.58098432926016,388.4765624999987L263.84276731248633,388.0859374999987L264.1045502957126,387.69531250000546L264.36633327893884,386.32812499999847L264.62811626216507,390.3320312499989L264.88989924539123,389.2578124999988L265.1516822286174,388.2812499999987L265.41346521184363,388.3789062500052L265.6752481950699,387.0117187499986L265.9370311782961,388.0859374999987L266.1988141615223,388.9648437499988L266.4605971447484,389.74609374999886L266.7223801279747,390.62500000000415L266.9841631112009,388.9648437499988L267.24594609442715,388.67187499999875L267.5077290776533,387.7929687499987L267.7695120608795,387.49999999999864L268.0312950441057,387.7929687500054L268.293078027332,388.3789062499987L268.55486101055817,387.3046874999986L268.8166439937844,388.4765624999987L269.07842697701057,386.23046874999847L269.3402099602368,388.57421875000506L269.601992943463,388.0859374999987L269.86377592668924,388.4765624999987L270.1255589099154,387.1093749999986L270.3873418931416,388.3789062499987L270.64912487636786,389.16015625000483L270.9109078595941,388.1835937499987L271.17269084282026,389.35546874999886L271.4344738260465,387.9882812499987L271.6962568092726,388.1835937499987L271.9580397924989,388.0859375000053L272.21982277572516,387.1093749999986L272.48160575895133,388.3789062499987L272.74338874217744,388.57421874999875L273.0051717254037,386.7187499999985L273.2669547086299,387.7929687500054L273.5287376918562,387.3046874999986L273.79052067508235,386.23046874999847L274.0523036583085,387.7929687499987L274.31408664153474,388.2812499999987L274.57586962476097,386.52343750000597L274.83765260798725,390.2343749999989L275.0994355912134,387.69531249999864L275.3612185744396,388.0859374999987L275.62300155766576,389.0624999999988L275.884784540892,388.96484375000495L276.1465675241183,387.69531249999864L276.40835050734444,389.0624999999988L276.6701334905706,387.59765624999864L276.93191647379683,389.35546874999886L277.19369945702306,387.8906250000054L277.45548244024934,389.55078124999886L277.7172654234755,389.55078124999886L277.9790484067017,388.9648437499988L278.24083138992785,388.86718749999875L278.5026143731541,387.98828125000534L278.76439735638036,385.74218749999847L279.0261803396065,390.2343749999989L279.2879633228327,387.7929687499987L279.5497463060589,387.9882812499987L279.81152928928515,388.769531250005L280.07331227251143,390.1367187499989L280.33509525573754,388.86718749999875L280.5968782389637,386.8164062499985L280.85866122218994,386.03515624999847L281.1204442054162,386.62109375000597L281.38222718864245,387.3046874999986L281.6440101718686,388.2812499999987L281.9057931550948,390.1367187499989L282.167576138321,388.57421874999875L282.42935912154724,390.2343750000044L282.6911421047735,387.40234374999864L282.9529250879997,388.76953124999875L283.21470807122586,388.57421874999875L283.4764910544521,387.3046874999986L283.73827403767825,389.4531250000047L284.00005702090453,389.74609374999886L284.2618400041307,388.0859374999987L284.5236229873569,389.35546874999886L284.7854059705831,389.45312499999886L285.0471889538093,387.7929687500054L285.3089719370356,388.57421874999875L285.5707549202618,388.3789062499987L285.83253790348795,389.45312499999886L286.0943208867141,388.76953124999875L286.35610386994034,387.98828125000534L286.6178868531666,386.03515624999847L286.8796698363928,389.35546874999886L287.14145281961896,387.0117187499986L287.4032358028452,389.2578124999988L287.6650187860714,388.2812500000052L287.9268017692977,388.76953124999875L288.18858475252387,388.1835937499987L288.45036773575,388.57421874999875L288.7121507189762,388.76953124999875L288.97393370220243,388.67187500000506L289.2357166854287,387.49999999999864L289.4974996686549,388.57421874999875L289.75928265188105,389.0624999999988L290.0210656351073,387.7929687499987L290.2828486183335,389.74609375000455L290.54463160155973,386.7187499999985L290.8064145847859,387.40234374999864L291.06819756801207,387.69531249999864L291.3299805512383,387.7929687499987L291.5917635344645,385.74218750000637L291.8535465176908,390.03906249999886L292.11532950091697,389.0624999999988L292.37711248414314,387.9882812499987L292.63889546736937,390.3320312499989L292.9006784505956,388.867187500005L293.1624614338219,387.7929687499987L293.42424441704804,387.49999999999864L293.6860274002742,387.69531249999864L293.9478103835004,389.2578124999988L294.2095933667266,388.2812500000052L294.4713763499529,387.49999999999864L294.73315933317906,389.1601562499988L294.99494231640523,389.35546874999886L295.25672529963146,389.64843749999886L295.5185082828576,389.2578125000048L295.78029126608396,389.45312499999886L296.04207424931013,388.1835937499987L296.3038572325363,389.2578124999988L296.56564021576247,390.3320312499989L296.8274231989887,389.9414062500045L297.089206182215,389.45312499999886L297.35098916544115,387.9882812499987L297.6127721486673,389.74609374999886L297.87455513189354,391.21093749999903L298.13633811511966,387.8906249999987L298.39812109834594,391.30859375000387L298.65990408157217,389.45312499999886L298.92168706479833,387.7929687499987L299.18347004802456,390.820312499999L299.44525303125073,388.67187499999875L299.70703601447696,389.55078125000466L299.96881899770324,388.57421874999875L300.2306019809294,387.0117187499986L300.49238496415563,387.3046874999986L300.7541679473818,390.5273437499989L301.01595093060797,391.6992187500037L301.27773391383425,388.1835937499987L301.5395168970604,389.45312499999886L301.8012998802867,388.67187499999875L302.0630828635128,389.45312499999886L302.3248658467391,388.96484375000495L302.5866488299653,388.1835937499987L302.8484318131915,389.74609374999886L303.1102147964177,389.55078124999886L303.3719977796439,388.67187499999875L303.6337807628701,391.113281250004L303.89556374609634,389.35546874999886L304.1573467293225,390.5273437499989L304.41912971254874,388.9648437499988L304.6809126957749,387.59765624999864L304.94269567900113,390.2343750000044L305.2044786622274,387.7929687499987L305.4662616454536,388.3789062499987L305.72804462867975,390.1367187499989L305.9898276119059,387.1093749999986L306.25161059513215,388.3789062500052L306.5133935783585,389.74609374999886L306.77517656158466,389.35546874999886L307.0369595448109,386.5234374999985L307.298742528037,390.03906249999886L307.5605255112632,388.867187500005L307.8223084944895,389.74609374999886L308.0840914777157,389.55078124999886L308.3458744609419,390.820312499999L308.60765744416807,389.64843749999886L308.86944042739424,389.6484375000046L309.1312234106205,390.1367187499989L309.3930063938467,388.9648437499988L309.6547893770729,389.64843749999886L309.9165723602991,390.1367187499989L310.1783553435253,390.1367187500044L310.4401383267516,390.5273437499989L310.70192130997776,389.45312499999886L310.963704293204,389.74609374999886L311.22548727643016,390.3320312499989L311.4872702596564,388.96484375000495L311.74905324288267,390.4296874999989L312.0108362261088,388.4765624999987L312.272619209335,390.624999999999L312.5344021925612,389.45312499999886L312.7961851757874,390.8203125000041L313.0579681590137,391.01562499999903L313.31975114223985,389.94140624999886L313.581534125466,388.86718749999875L313.8433171086922,390.5273437499989L314.1051000919184,390.1367187500044L314.36688307514476,387.2070312499986L314.6286660583709,390.1367187499989L314.89044904159715,391.6015624999991L315.1522320248233,389.84374999999886L315.4140150080495,389.3554687500048L315.6757979912758,389.74609374999886L315.93758097450194,389.35546874999886L316.19936395772817,389.0624999999988L316.46114694095434,390.4296874999989L316.72292992418056,391.015625000004L316.9847129074068,389.84374999999886L317.24649589063296,389.35546874999886L317.5082788738592,390.03906249999886L317.77006185708535,391.6992187499991L318.0318448403116,390.1367187500044L318.2936278235378,390.722656249999L318.555410806764,391.6015624999991L318.81719378999026,390.3320312499989L319.07897677321637,389.35546874999886L319.34075975644265,389.4531250000047L319.60254273966893,390.722656249999L319.8643257228951,391.11328124999903L320.1261087061213,389.84374999999886L320.38789168934744,389.1601562499988L320.64967467257367,389.3554687500048L320.91145765579995,392.38281249999915L321.1732406390261,389.94140624999886L321.43502362225234,390.1367187499989L321.69680660547846,389.55078124999886L321.9585895887047,390.1367187500044L322.22037257193097,389.45312499999886L322.48215555515714,390.1367187499989L322.7439385383834,389.74609374999886L323.00572152160953,390.624999999999L323.2675045048357,391.60156250000375L323.52928748806204,393.06640624999926L323.7910704712882,390.1367187499989L324.05285345451443,389.35546874999886L324.3146364377406,389.94140624999886L324.57641942096683,390.2343750000044L324.83820240419305,392.28515624999915L325.0999853874192,391.6015624999991L325.36176837064545,388.9648437499988L325.6235513538716,390.3320312499989L325.88533433709785,390.42968750000426L326.1471173203241,389.94140624999886L326.40890030355024,390.722656249999L326.67068328677647,389.84374999999886L326.93246627000264,388.9648437499988L327.19424925322886,386.7187500000059L327.4560322364552,390.917968749999L327.71781521968137,388.57421874999875L327.97959820290754,390.03906249999886L328.2413811861337,390.624999999999L328.50316416935993,389.4531250000047L328.7649471525862,392.48046874999915L329.0267301358124,391.21093749999903L329.2885131190386,390.3320312499989L329.5502961022648,390.5273437499989L329.81207908549095,390.72265625000415L330.07386206871723,389.0624999999988L330.3356450519434,390.2343749999989L330.5974280351696,391.6992187499991L330.8592110183958,389.45312499999886L331.120994001622,389.84375000000455L331.3827769848483,390.624999999999L331.6445599680745,388.86718749999875L331.9063429513007,389.45312499999886L332.16812593452687,392.28515624999915L332.42990891775304,391.11328124999903L332.6916919009793,390.2343750000044L332.9534748842055,391.6015624999991L333.2152578674317,392.5781249999992L333.4770408506579,390.624999999999L333.73882383388406,391.30859374999903L334.00060681711034,391.4062500000038L334.26238980033656,389.45312499999886L334.52417278356273,390.917968749999L334.7859557667889,391.21093749999903L335.04773875001507,390.03906249999886L335.30952173324135,391.50390625000375L335.57130471646764,389.94140624999886L335.83308769969386,389.94140624999886L336.0948706829199,391.6992187499991L336.3566536661461,391.11328124999903L336.6184366493724,390.42968750000426L336.88021963259865,392.28515624999915L337.1420026158249,391.01562499999903L337.40378559905105,389.55078124999886L337.66556858227716,391.11328124999903L337.92735156550344,391.60156250000375L338.18913454872967,391.9921874999991L338.4509175319559,391.21093749999903L338.71270051518206,390.2343749999989L338.97448349840823,391.5039062499991L339.23626648163446,391.30859375000387L339.4980494648607,390.5273437499989L339.75983244808697,390.722656249999L340.0216154313131,389.84374999999886L340.28339841453925,391.21093749999903L340.5451813977656,390.42968750000426L340.80696438099176,390.3320312499989L341.068747364218,390.820312499999L341.33053034744415,391.4062499999991L341.5923133306703,391.6992187499991L341.8540963138966,390.8203125000041L342.11587929712283,390.820312499999L342.377662280349,390.722656249999L342.63944526357517,390.820312499999L342.90122824680134,390.820312499999L343.1630112300276,391.60156250000375L343.42479421325385,392.96874999999926L343.68657719648013,391.30859374999903L343.9483601797062,391.01562499999903L344.21014316293235,391.30859374999903L344.4719261461587,391.4062500000038L344.7337091293849,391.6015624999991L344.99549211261115,389.45312499999886L345.2572750958373,392.18749999999915L345.5190580790635,391.4062499999991L345.7808410622897,392.67578125000324L346.04262404551594,391.6992187499991L346.30440702874216,393.26171874999926L346.56619001196833,391.01562499999903L346.8279729951945,391.4062499999991L347.0897559784207,390.1367187500044L347.35153896164695,390.624999999999L347.6133219448732,389.0624999999988L347.87510492809935,390.03906249999886L348.1368879113255,392.6757812499992L348.39867089455186,391.2109375000039L348.660453877778,392.5781249999992L348.92223686100425,390.4296874999989L349.1840198442304,389.55078124999886L349.4458028274566,390.5273437499989L349.7075858106829,392.8710937500031L349.9693687939091,390.5273437499989L350.23115177713527,392.8710937499992L350.49293476036144,393.5546874999993L350.7547177435876,391.11328124999903L351.0165007268139,391.8945312500036L351.2782837100401,391.8945312499991L351.54006669326634,391.11328124999903L351.8018496764925,393.26171874999926L352.0636326597186,392.0898437499991L352.3254156429449,391.113281250004L352.5871986261712,393.3593749999993L352.8489816093974,391.4062499999991L353.1107645926236,391.6992187499991L353.37254757584975,391.6992187499991L353.634330559076,391.30859375000387L353.8961135423022,391.8945312499991L354.15789652552843,392.38281249999915L354.4196795087546,391.7968749999991L354.68146249198077,392.18749999999915L354.94324547520705,392.2851562500034L355.2050284584332,392.38281249999915L355.46681144165944,388.76953124999875L355.7285944248856,392.5781249999992L355.9903774081118,391.7968749999991L356.25216039133807,393.7500000000028L356.51394337456435,392.38281249999915L356.7757263577905,394.3359374999994L357.03750934101663,394.0429687499993L357.2992923242428,391.8945312499991L357.56107530746914,392.9687500000031L357.82285829069536,392.18749999999915L358.0846412739216,391.5039062499991L358.3464242571477,391.4062499999991L358.6082072403739,391.6015624999991L358.86999022360015,392.7734375000032L359.1317732068264,392.8710937499992L359.3935561900526,392.8710937499992L359.6553391732788,392.96874999999926L359.91712215650494,392.7734374999992L360.17890513973117,392.7734375000032L360.4406881229574,393.16406249999926L360.7024711061837,393.3593749999993L360.9642540894098,393.16406249999926L361.22603707263596,392.18749999999915L361.48782005586224,393.261718750003L361.74960303908847,391.11328124999903L362.0113860223147,390.624999999999L362.27316900554086,391.7968749999991L362.53495198876703,393.5546874999993L362.7967349719933,392.67578125000324L363.0585179552195,392.7734374999992L363.3203009384457,392.18749999999915L363.5820839216719,392.8710937499992L363.84386690489805,392.0898437499991L364.10564988812433,392.7734375000032L364.36743287135056,392.6757812499992L364.6292158545767,391.11328124999903L364.8909988378029,391.21093749999903L365.15278182102907,392.8710937499992L365.4145648042554,392.9687500000031L365.67634778748163,392.0898437499991L365.93813077070786,391.7968749999991L366.199913753934,391.5039062499991L366.46169673716014,392.8710937499992L366.72347972038636,393.5546874999993L366.9852627036126,392.48046875000335L367.2470456868389,392.28515624999915L367.50882867006504,392.28515624999915L367.7706116532912,393.06640624999926L368.0323946365174,391.9921874999991L368.2941776197436,393.261718750003L368.5559606029699,393.5546874999993L368.81774358619606,393.4570312499993L369.0795265694222,392.38281249999915L369.34130955264845,394.4335937499994L369.6030925358746,394.1406250000026L369.86487551910096,393.5546874999993L370.12665850232713,394.3359374999994L370.3884414855533,392.8710937499992L370.6502244687795,392.96874999999926L370.91200745200575,394.0429687500027L371.173790435232,393.7499999999993L371.43557341845815,392.6757812499992L371.6973564016843,392.28515624999915L371.95913938491054,393.8476562499993L372.22092236813677,393.5546875000029L372.48270535136305,393.3593749999993L372.74448833458916,393.3593749999993L373.00627131781533,393.7499999999993L373.26805430104156,391.30859374999903L373.5298372842678,392.67578125000324L373.7916202674941,393.16406249999926L374.0534032507203,395.1171874999995L374.31518623394646,392.38281249999915L374.57696921717263,393.26171874999926L374.83875220039886,392.2851562500034L375.10053518362514,394.0429687499993L375.3623181668513,393.3593749999993L375.6241011500775,394.2382812499994L375.8858841333037,394.3359374999994L376.1476671165299,392.67578125000324L376.40945009975616,394.92187499999943L376.6712330829823,394.0429687499993L376.9330160662085,394.3359374999994L377.1947990494347,393.6523437499993L377.45658203266095,392.9687500000031L377.71836501588723,393.7499999999993L377.98014799911334,394.92187499999943L378.2419309823395,394.82421874999943L378.5037139655658,394.4335937499994L378.765496948792,393.65234375000284L379.02727993201825,395.3124999999995L379.2890629152444,391.7968749999991L379.5508458984706,395.1171874999995L379.8126288816968,394.3359374999994L380.07441186492304,393.164062500003L380.3361948481493,394.2382812499994L380.5979778313755,392.8710937499992L380.8597608146016,394.0429687499993L381.1215437978278,395.2148437499995L381.38332678105405,394.23828125000256L381.6451097642804,394.82421874999943L381.9068927475065,394.82421874999943L382.1686757307327,394.2382812499994L382.43045871395884,394.62890624999943L382.6922416971851,395.3125000000021L382.9540246804114,393.4570312499993L383.2158076636376,393.7499999999993L383.47759064686375,395.1171874999995L383.73937363009,394.0429687499993L384.00115661331614,394.72656250000233L384.2629395965424,393.9453124999993L384.5247225797686,394.3359374999994L384.78650556299476,395.80078124999955L385.048288546221,393.8476562499993L385.3100715294472,393.06640625000307L385.57185451267344,393.8476562499993L385.8336374958996,392.96874999999926L386.0954204791258,394.3359374999994L386.357203462352,395.1171874999995L386.6189864455783,395.8007812500019L386.88076942880457,393.6523437499993L387.1425524120307,393.5546874999993L387.40433539525685,395.4101562499995L387.6661183784831,395.4101562499995L387.9279013617093,393.94531250000273L388.1896843449356,394.4335937499994L388.45146732816175,394.0429687499993L388.7132503113879,395.2148437499995L388.9750332946141,395.6054687499995L389.2368162778403,394.9218750000023L389.4985992610666,394.2382812499994L389.76038224429277,394.92187499999943L390.02216522751894,393.16406249999926L390.28394821074517,394.3359374999994L390.54573119397133,395.3125000000021L390.8075141771977,394.4335937499994L391.06929716042384,394.4335937499994L391.33108014365,396.1914062499996L391.59286312687624,394.0429687499993L391.85464611010246,393.94531250000273L392.1164290933287,393.9453124999993L392.37821207655486,394.4335937499994L392.63999505978103,395.6054687499995L392.90177804300725,396.2890624999996L393.1635610262335,393.7500000000028L393.4253440094597,394.5312499999994L393.6871269926859,395.0195312499995L393.94890997591204,394.92187499999943L394.21069295913827,394.82421874999943L394.4724759423645,395.3125000000021L394.73425892559084,397.1679687499997L394.996041908817,396.87499999999966L395.25782489204306,395.99609374999955L395.51960787526934,395.4101562499995L395.78139085849557,395.41015625000205L396.04317384172185,394.1406249999993L396.304956824948,395.7031249999995L396.5667398081742,395.80078124999955L396.82852279140036,395.6054687499995L397.0903057746266,396.28906250000165L397.35208875785287,394.2382812499994L397.61387174107904,395.2148437499995L397.8756547243052,395.6054687499995L398.13743770753143,395.4101562499995L398.3992206907576,395.60546875000193L398.66100367398394,395.80078124999955L398.92278665721005,394.92187499999943L399.1845696404362,396.67968749999966L399.4463526236625,395.4101562499995L399.70813560688873,394.82421875000233L399.96991859011496,395.5078124999995L400.2317015733411,396.1914062499996L400.4934845565673,395.3124999999995L400.7552675397935,395.4101562499995L401.01705052301975,395.3125000000021L401.27883350624603,395.1171874999995L401.54061648947214,394.92187499999943L401.8023994726983,397.3632812499997L402.06418245592454,394.4335937499994L402.3259654391507,395.6054687499995L402.587748422377,395.8984375000018L402.8495314056033,395.7031249999995L403.1113143888294,395.6054687499995L403.37309737205555,395.7031249999995L403.6348803552817,395.0195312499995L403.89666333850806,397.0703125000013L404.1584463217343,394.5312499999994L404.42022930496046,395.80078124999955L404.6820122881867,395.7031249999995L404.9437952714128,395.89843749999955L405.2055782546391,397.2656250000012L405.4673612378653,394.92187499999943L405.7291442210915,396.3867187499996L405.9909272043177,395.2148437499995L406.25271018754387,397.1679687499997L406.5144931707701,396.1914062500017L406.7762761539963,396.2890624999996L407.0380591372225,396.67968749999966L407.2998421204487,396.3867187499996L407.5616251036749,396.3867187499996L407.8234080869012,395.70312500000193L408.0851910701274,396.77734374999966L408.34697405335356,397.0703124999997L408.6087570365798,396.2890624999996L408.87054001980596,396.58203124999966L409.13232300303224,396.28906250000165L409.39410598625847,395.89843749999955L409.65588896948464,395.3124999999995L409.9176719527108,395.80078124999955L410.179454935937,396.2890624999996L410.44123791916326,396.7773437500014L410.7030209023895,394.72656249999943L410.96480388561577,395.7031249999995L411.2265868688418,396.3867187499996L411.488369852068,396.77734374999966L411.75015283529433,396.87500000000136L412.01193581852056,396.77734374999966L412.2737188017468,396.2890624999996L412.53550178497295,396.4843749999996L412.79728476819906,396.58203124999966L413.05906775142535,396.87500000000136L413.3208507346516,397.7539062499997L413.5826337178778,395.5078124999995L413.84441670110397,396.2890624999996L414.10619968433014,396.87499999999966L414.36798266755636,397.0703125000013L414.6297656507826,396.4843749999996L414.8915486340088,397.0703124999997L415.153331617235,396.58203124999966L415.41511460046115,396.87499999999966L415.6768975836875,396.58203125000153L415.9386805669136,397.1679687499997L416.2004635501399,397.5585937499997L416.46224653336606,396.09374999999955L416.7240295165922,396.77734374999966L416.9858124998185,397.0703125000013L417.24759548304473,397.1679687499997L417.5093784662709,397.2656249999997L417.7711614494971,396.77734374999966L418.03294443272324,396.3867187499996L418.2947274159495,397.0703125000013L418.55651039917575,396.67968749999966L418.818293382402,398.1445312499998L419.0800763656281,397.2656249999997L419.34185934885426,397.3632812499997L419.60364233208054,397.16796875000125L419.8654253153068,396.87499999999966L420.12720829853305,396.77734374999966L420.3889912817592,398.43749999999983L420.6507742649854,397.2656249999997L420.9125572482116,397.2656250000012L421.17434023143784,396.67968749999966L421.43612321466406,395.5078124999995L421.69790619789023,397.0703124999997L421.9596891811164,396.2890624999996L422.22147216434263,396.0937500000017L422.48325514756885,397.4609374999997L422.7450381307951,397.0703124999997L423.00682111402125,396.87499999999966L423.2686040972474,396.77734374999966L423.5303870804737,396.6796875000015L423.79217006369987,397.6562499999997L424.0539530469261,395.99609374999955L424.31573603015227,397.8515624999998L424.57751901337843,397.3632812499997L424.8393019966048,396.3867187500016L425.101084979831,397.2656249999997L425.36286796305717,397.0703124999997L425.62465094628334,398.0468749999998L425.8864339295095,397.8515624999998L426.1482169127358,396.0937500000017L426.409999895962,397.2656249999997L426.67178287918824,397.5585937499997L426.9335658624144,397.5585937499997L427.1953488456405,397.6562499999997L427.4571318288668,396.7773437500014L427.71891481209303,397.8515624999998L427.9806977953193,397.5585937499997L428.2424807785454,397.1679687499997L428.5042637617716,397.6562499999997L428.7660467449979,398.14453125000085L429.0278297282241,397.8515624999998L429.28961271145033,397.7539062499997L429.5513956946765,396.67968749999966L429.81317867790267,398.33984374999983L430.07496166112895,397.36328125000114L430.3367446443551,396.87499999999966L430.59852762758135,398.24218749999983L430.8603106108075,397.7539062499997L431.1220935940337,397.0703124999997L431.38387657725997,398.0468750000009L431.6456595604862,397.8515624999998L431.90744254371236,397.4609374999997L432.16922552693853,396.87499999999966L432.4310085101647,397.2656249999997L432.69279149339104,397.85156250000097L432.95457447661727,397.9492187499998L433.2163574598435,397.0703124999997L433.4781404430696,397.3632812499997L433.7399234262958,397.9492187499998L434.00170640952206,397.753906250001L434.2634893927483,397.5585937499997L434.5252723759745,397.1679687499997L434.7870553592007,398.43749999999983L435.04883834242685,397.6562499999997L435.3106213256531,398.4375000000007L435.5724043088793,397.6562499999997L435.8341872921055,397.1679687499997L436.0959702753317,397.2656249999997L436.35775325855786,397.8515624999998L436.61953624178403,398.6328124999999L436.88131922501026,397.85156250000097L437.1431022082366,397.8515624999998L437.40488519146277,397.8515624999998L437.66666817468894,398.0468749999998L437.9284511579151,398.1445312499998L438.1902341411414,398.33984375000074L438.4520171243676,398.24218749999983L438.7138001075938,398.1445312499998L438.97558309081995,398.43749999999983L439.2373660740461,397.7539062499997L439.4991490572724,397.36328125000114L439.76093204049863,398.24218749999983L440.0227150237248,397.8515624999998L440.28449800695097,398.7304687499999L440.54628099017714,397.3632812499997L440.8080639734034,398.4375000000007L441.06984695662976,397.3632812499997L441.33162993985593,397.6562499999997L441.593412923082,398.0468749999998L441.85519590630815,398.9257812499999L442.1169788895345,397.753906250001L442.3787618727608,397.8515624999998L442.64054485598695,398.6328124999999L442.9023278392131,398.33984374999983L443.1641108224393,397.8515624999998L443.4258938056655,398.14453125000085L443.6876767888918,398.1445312499998L443.94945977211796,397.4609374999997L444.21124275534413,398.0468749999998L444.4730257385703,398.33984374999983L444.7348087217965,398.14453125000085L444.99659170502287,398.43749999999983L445.258374688249,397.9492187499998L445.52015767147515,398.43749999999983L445.7819406547013,398.53515624999983L446.04372363792766,398.2421875000008L446.3055066211539,398.53515624999983L446.56728960438005,399.1210937499999L446.8290725876062,398.24218749999983L447.0908555708324,398.7304687499999L447.3526385540587,399.1210937500004L447.61442153728495,398.33984374999983L447.87620452051107,398.43749999999983L448.13798750373724,398.9257812499999L448.3997704869634,398.53515624999983L448.6615534701897,398.2421875000008L448.923336453416,398.33984374999983L449.18511943664214,398.9257812499999L449.4469024198683,398.6328124999999L449.7086854030944,398.1445312499998L449.9704683863207,398.5351562500007L450.23225136954704,398.9257812499999L450.4940343527732,398.7304687499999L450.7558173359994,399.41406249999994L451.01760031922555,398.6328124999999L451.2793833024518,398.4375000000007L451.54116628567806,398.7304687499999L451.80294926890423,398.6328124999999L452.0647322521304,398.24218749999983L452.32651523535657,398.7304687499999L452.58829821858285,398.9257812500005L452.8500812018091,398.6328124999999L453.11186418503524,399.2187499999999L453.3736471682614,398.7304687499999L453.6354301514876,399.70703124999994L453.8972131347139,399.1210937500004L454.15899611794015,399.2187499999999L454.4207791011663,398.6328124999999L454.6825620843925,398.7304687499999L454.94434506761866,398.53515624999983L455.20612805084494,398.6328125000006L455.4679110340712,399.1210937499999L455.7296940172974,398.6328124999999L455.9914770005235,398.1445312499998L456.2532599837497,399.1210937499999L456.51504296697595,398.6328125000006L456.77682595020224,399.51171874999994L457.0386089334284,398.8281249999999L457.3003919166546,399.70703124999994L457.56217489988074,398.7304687499999L457.82395788310697,398.9257812500005L458.0857408663333,399.0234374999999L458.3475238495595,399.2187499999999L458.60930683278565,399.2187499999999L458.8710898160118,399.2187499999999L459.13287279923804,399.21875000000034L459.3946557824643,398.8281249999999L459.6564387656905,398.7304687499999L459.91822174891666,398.7304687499999L460.18000473214283,398.9257812499999L460.4417877153691,398.6328125000006L460.70357069859534,399.1210937499999L460.9653536818215,399.2187499999999L461.2271366650477,399.1210937499999L461.48891964827385,398.6328124999999L461.75070263150013,398.5351562500007L462.0124856147265,399.1210937499999L462.2742685979525,398.33984374999983L462.5360515811787,398.9257812499999L462.79783456440487,399.1210937499999L463.0596175476312,398.73046875000057L463.3214005308575,399.41406249999994L463.58318351408366,398.9257812499999L463.8449664973098,399.1210937499999L464.10674948053594,399.1210937499999L464.3685324637622,398.73046875000057L464.6303154469885,399.1210937499999L464.8920984302147,398.6328124999999L465.15388141344084,398.43749999999983L465.415664396667,398.7304687499999L465.67744737989324,399.1210937500004L465.9392303631196,399.2187499999999L466.2010133463457,399.2187499999999L466.46279632957186,399.41406249999994L466.724579312798,399.0234374999999L466.98636229602437,398.8281250000005L467.2481452792506,398.43749999999983L467.50992826247676,399.2187499999999L467.77171124570293,399.3164062499999L468.0334942289291,399.0234374999999L468.2952772121554,398.6328125000006L468.5570601953816,399.1210937499999L468.8188431786078,399.2187499999999L469.08062616183395,399.2187499999999L469.3424091450601,398.7304687499999L469.6041921282864,399.3164062500003L469.86597511151274,399.0234374999999L470.12775809473885,398.6328124999999L470.38954107796496,399.2187499999999L470.65132406119113,398.7304687499999L470.9131070444173,399.60937499999994L471.1748900276436,399.60937500000017L471.4366730108699,399.41406249999994L471.6984559940961,399.60937499999994L471.96023897732226,399.51171874999994L472.2220219605483,399.3164062499999L472.48380494377466,399.5117187500002L472.74558792700094,399.41406249999994L473.0073709102271,399.0234374999999L473.2691538934533,399.1210937499999L473.53093687667945,399.70703124999994L473.7927198599057,399.21875000000034L474.05450284313196,399.41406249999994L474.3162858263581,399.0234374999999L474.5780688095843,398.9257812499999L474.83985179281046,399.41406249999994L475.10163477603675,399.21875000000034L475.36341775926303,399.1210937499999L475.6252007424892,399.51171874999994L475.88698372571537,399.2187499999999L476.1487667089415,399.1210937499999L476.4105496921678,399.4140625000003L476.67233267539405,399.0234374999999L476.9341156586202,399.70703124999994L477.1958986418464,399.51171874999994L477.45768162507255,398.7304687499999L477.71946460829884,399.21875000000034L477.9812475915251,399.41406249999994L478.2430305747513,399.60937499999994L478.5048135579774,399.3164062499999L478.76659654120357,399.41406249999994L479.02837952442985,399.7070312500001L479.2901625076562,399.3164062499999L479.55194549088236,399.51171874999994L479.81372847410853,399.3164062499999L480.07551145733464,399.3164062499999L480.3372944405609,399.7070312500001L480.5990774237872,399.51171874999994L480.8608604070134,399.2187499999999L481.12264339023955,399.51171874999994L481.3844263734657,398.9257812499999L481.64620935669194,399.60937500000017L481.9079923399182,399.2187499999999L482.1697753231444,399.41406249999994L482.43155830637056,399.51171874999994L482.69334128959673,399.3164062499999L482.955124272823,399.7070312500001L483.21690725604924,399.70703124999994L483.4786902392754,399.51171874999994L483.7404732225016,399.70703124999994L484.00225620572775,399.41406249999994L484.2640391889541,399.5117187500002L484.52582217218037,399.51171874999994L484.7876051554065,399.41406249999994L485.04938813863265,399.3164062499999L485.3111711218588,399.2187499999999L485.5729541050851,399.3164062500003L485.8347370883114,399.60937499999994L486.09652007153755,399.90234375L486.3583030547637,399.41406249999994L486.62008603798984,399.51171874999994L486.8818690212161,399.7070312500001L487.1436520044424,399.90234375L487.40543498766857,399.70703124999994L487.9290009541209,399.70703124999994L488.19078393734713,399.7070312500001L488.4525669205735,399.2187499999999L488.71434990379964,399.90234375L488.9761328870258,399.70703124999994L489.237915870252,399.70703124999994L489.4996988534782,399.60937500000017L489.7614818367045,399.60937499999994L490.02326481993066,399.70703124999994L490.28504780315683,399.60937499999994L490.546830786383,399.51171874999994L490.8086137696093,399.5117187500002L491.0703967528355,399.70703124999994L491.3321797360617,399.2187499999999L491.59396271928784,399.0234374999999L491.855745702514,399.70703124999994L492.1175286857403,399.8046875000001L492.37931166896664,399.90234375L492.64109465219275,399.90234375L492.9028776354189,399.41406249999994L493.16466061864503,399.60937499999994L493.42644360187137,399.60937500000017L493.68822658509765,399.90234375L493.9500095683238,399.70703124999994L494.21179255155,399.51171874999994L494.4735755347761,399.60937499999994L494.7353585180024,399.5117187500002L494.99714150122867,399.51171874999994L495.25892448445484,399.70703124999994L495.520707467681,399.60937499999994L495.7824904509072,399.60937499999994L496.0442734341334,399.7070312500001L496.30605641735974,399.60937499999994L496.8296223838121,399.8046875L497.0914053670382,399.51171874999994L497.35318835026453,399.90234375000006L497.61497133349076,399.70703124999994L497.8767543167169,399.8046875L498.1385372999431,399.8046875L498.40032028316926,399.3164062499999L498.66210326639555,399.90234375000006L498.9238862496218,399.8046875L499.18566923284794,399.90234375L499.4474522160741,399.90234375L499.7092351993003,399.70703124999994L499.97101818252656,399.8046875000001L500.2328011657529,399.90234375L500.7563671322051,399.90234375L501.0181501154313,399.51171874999994L501.27993309865764,399.60937500000017L501.5417160818839,399.8046875L501.8034990651101,399.8046875L502.06528204833626,399.60937499999994L502.3270650315624,399.70703124999994L502.58884801478865,399.8046875000001L502.85063099801494,399.8046875L503.1124139812411,399.8046875L503.3741969644673,399.51171874999994L503.63597994769344,399.8046875L503.89776293091967,399.90234375000006L504.15954591414595,399.70703124999994L504.4213288973721,399.51171874999994L505.2066778470507,399.70703124999994L505.46846083027697,399.60937500000017L505.7302438135032,399.90234375L506.25380977995553,399.8046875L506.51559276318176,399.90234375L506.777375746408,399.8046875000001L507.0391587296342,399.8046875L507.3009417128604,399.70703124999994L507.56272469608655,399.8046875L507.8245076793128,399.60937499999994L508.086290662539,399.90234375000006L508.3480736457653,399.90234375L508.60985662899145,399.8046875L508.87163961221756,399.90234375L509.39520557867,399.7070312500001L509.65698856189636,399.90234375L509.9187715451225,399.8046875L510.1805545283487,399.70703124999994L510.44233751157486,399.90234375L510.7041204948011,399.8046875000001L511.22768646125354,399.90234375L511.4894694444797,399.70703124999994L511.75125242770594,399.70703124999994L512.2748183941584,399.8046875L512.5366013773846,399.8046875L512.7983843606107,399.90234375L513.3219503270632,399.90234375000006L513.5837333102894,399.90234375L513.8455162935156,399.70703124999994L514.1072992767417,399.90234375L514.369082259968,399.70703124999994L514.6308652431942,399.8046875000001L515.1544312096466,399.60937499999994L515.4162141928728,399.90234375L515.9397801593253,399.90234375000006L516.4633461257778,399.70703124999994L517.7722610419088,399.8046875L518.0340440251349,399.90234375L518.2958270083611,399.8046875L518.5576099915874,399.8046875000001L518.8193929748136,399.90234375L519.3429589412659,399.51171874999994L519.6047419244921,399.8046875L519.8665249077185,399.90234375000006L520.1283078909447,399.90234375L520.3900908741708,399.90234375L520.651873857397,399.90234375L520.9136568406233,399.90234375L521.4372228070757,399.8046875L521.6990057903018,399.8046875L521.9607887735281,399.8046875L522.2225717567543,399.8046875L522.7461377232067,399.90234375L523.2697036896591,399.70703124999994L524.0550526393379,399.90234375L524.5786186057902,399.90234375L524.8404015890163,399.90234375L525.1021845722425,399.90234375000006L525.3639675554689,399.70703124999994L526.1493165051475,399.8046875L526.4110994883736,399.90234375000006L526.934665454826,399.90234375L527.9817973877309,399.90234375L528.243580370957,399.8046875L528.7671463374095,399.8046875L529.290712303862,399.90234375L530.0760612535405,399.90234375L530.3378442367667,399.90234375000006L531.1231931864454,399.8046875L531.3849761696715,399.90234375L531.6467591528977,399.90234375000006L532.4321081025764,399.90234375L532.6938910858026,399.8046875L533.4792400354813,399.90234375L534.5263719683861,399.90234375L535.3117209180647,399.90234375L536.6206358341957,399.90234375L536.882418817422,399.8046875000001L537.4059847838745,399.90234375L538.191333733553,399.8046875000001L538.4531167167793,399.90234375L539.7620316329102,399.90234375000006L540.8091635658151,399.90234375L543.4269933980771,399.90234375L543.6887763813033,399.90234375000006L546.0448232303391,399.90234375L547.6155211296966,399.90234375000006" style="fill: none; stroke: #4c78a8; stroke-width: 2;"></path></g></g><path class="foreground" d="" style="display: none; fill: none;"></path></g></g><g class="mark-group role-legend"><g transform="translate(618,0)"><path class="background" d="M0,0h64v59h-64Z" style="pointer-events: none; fill: none;"></path><g><g class="mark-group role-legend-entry"><g transform="translate(0,25)"><path class="background" d="M0,0h0v0h0Z" style="pointer-events: none; fill: none;"></path><g><g class="mark-group role-scope"><g transform="translate(0,0)"><path class="background" d="M0,0h58.609375v16h-58.609375Z" style="pointer-events: none; fill: none; opacity: 1;"></path><g><g class="mark-symbol role-legend-symbol" style="pointer-events: none;"><path transform="translate(8,8)" d="M-5,0L5,0" style="fill: none; stroke: #4c78a8; stroke-width: 1.5; opacity: 1;"></path></g><g class="mark-text role-legend-label" style="pointer-events: none;"><text text-anchor="start" transform="translate(20,13)" style="font-family: Roboto; font-size: 16px; fill: #000; opacity: 1;">liquid</text></g></g><path class="foreground" d="" style="pointer-events: none; display: none; fill: none;"></path></g><g transform="translate(0,18)"><path class="background" d="M0,0h58.609375v16h-58.609375Z" style="pointer-events: none; fill: none; opacity: 1;"></path><g><g class="mark-symbol role-legend-symbol" style="pointer-events: none;"><path transform="translate(8,8)" d="M-5,0L5,0" style="fill: none; stroke: #f58518; stroke-width: 1.5; opacity: 1;"></path></g><g class="mark-text role-legend-label" style="pointer-events: none;"><text text-anchor="start" transform="translate(20,13)" style="font-family: Roboto; font-size: 16px; fill: #000; opacity: 1;">p2</text></g></g><path class="foreground" d="" style="pointer-events: none; display: none; fill: none;"></path></g></g></g><path class="foreground" d="" style="pointer-events: none; display: none; fill: none;"></path></g></g><g class="mark-text role-legend-title" style="pointer-events: none;"><text text-anchor="start" transform="translate(0,16)" style="font-family: Roboto; font-size: 20px; font-weight: bold; fill: #000; opacity: 1;">Crystal</text></g></g><path class="foreground" d="" style="pointer-events: none; display: none; fill: none;"></path></g></g></g><path class="foreground" d="" style="display: none; fill: none;"></path></g></g></g></svg>