<svg class="marks" width="750" height="465" viewBox="0 0 750 465" version="1.1" xmlns="http://www.w3.org/2000/svg" xmlns:xlink="http://www.w3.org/1999/xlink"><rect width="750" height="465" style="fill: white;"></rect><g transform="translate(63,13)"><g class="mark-group role-frame root"><g transform="translate(0,0)"><path class="background" d="M0.5,0.5h600v400h-600Z" style="fill: none; stroke: #ddd;"></path><g><g class="mark-group role-axis"><g transform="translate(0.5,400.5)"><path class="background" d="M0,0h0v0h0Z" style="pointer-events: none; fill: none;"></path><g><g class="mark-rule role-axis-tick" style="pointer-events: none;"><line transform="translate(0,0)" x2="0" y2="5" style="fill: none; stroke: #888; stroke-width: 1; opacity: 1;"></line><line transform="translate(55,0)" x2="0" y2="5" style="fill: none; stroke: #888; stroke-width: 1; opacity: 1;"></line><line transform="translate(109,0)" x2="0" y2="5" style="fill: none; stroke: #888; stroke-width: 1; opacity: 1;"></line><line transform="translate(164,0)" x2="0" y2="5" style="fill: none; stroke: #888; stroke-width: 1; opacity: 1;"></line><line transform="translate(218,0)" x2="0" y2="5" style="fill: none; stroke: #888; stroke-width: 1; opacity: 1;"></line><line transform="translate(273,0)" x2="0" y2="5" style="fill: none; stroke: #888; stroke-width: 1; opacity: 1;"></line><line transform="translate(327,0)" x2="0" y2="5" style="fill: none; stroke: #888; stroke-width: 1; opacity: 1;"></line><line transform="translate(382,0)" x2="0" y2="5" style="fill: none; stroke: #888; stroke-width: 1; opacity: 1;"></line><line transform="translate(436,0)" x2="0" y2="5" style="fill: none; stroke: #888; stroke-width: 1; opacity: 1;"></line><line transform="translate(491,0)" x2="0" y2="5" style="fill: none; stroke: #888; stroke-width: 1; opacity: 1;"></line><line transform="translate(545,0)" x2="0" y2="5" style="fill: none; stroke: #888; stroke-width: 1; opacity: 1;"></line><line transform="translate(600,0)" x2="0" y2="5" style="fill: none; stroke: #888; stroke-width: 1; opacity: 1;"></line></g><g class="mark-text role-axis-label" style="pointer-events: none;"><text text-anchor="start" transform="translate(0,20)" style="font-family: Roboto; font-size: 16px; fill: #000; opacity: 1;">-1.0</text><text text-anchor="middle" transform="translate(54.54545454545453,20)" style="font-family: Roboto; font-size: 16px; fill: #000; opacity: 1;">-0.8</text><text text-anchor="middle" transform="translate(109.0909090909091,20)" style="font-family: Roboto; font-size: 16px; fill: #000; opacity: 1;">-0.6</text><text text-anchor="middle" transform="translate(163.63636363636363,20)" style="font-family: Roboto; font-size: 16px; fill: #000; opacity: 1;">-0.4</text><text text-anchor="middle" transform="translate(218.1818181818182,20)" style="font-family: Roboto; font-size: 16px; fill: #000; opacity: 1;">-0.2</text><text text-anchor="middle" transform="translate(272.7272727272727,20)" style="font-family: Roboto; font-size: 16px; fill: #000; opacity: 1;">0.0</text><text text-anchor="middle" transform="translate(327.27272727272725,20)" style="font-family: Roboto; font-size: 16px; fill: #000; opacity: 1;">0.2</text><text text-anchor="middle" transform="translate(381.81818181818176,20)" style="font-family: Roboto; font-size: 16px; fill: #000; opacity: 1;">0.4</text><text text-anchor="middle" transform="translate(436.3636363636364,20)" style="font-family: Roboto; font-size: 16px; fill: #000; opacity: 1;">0.6</text><text text-anchor="middle" transform="translate(490.9090909090909,20)" style="font-family: Roboto; font-size: 16px; fill: #000; opacity: 1;">0.8</text><text text-anchor="middle" transform="translate(545.4545454545454,20)" style="font-family: Roboto; font-size: 16px; fill: #000; opacity: 1;">1.0</text><text text-anchor="end" transform="translate(600,20)" style="font-family: Roboto; font-size: 16px; fill: #000; opacity: 1;">1.2</text></g><g class="mark-rule role-axis-domain" style="pointer-events: none;"><line transform="translate(0,0)" x2="600" y2="0" style="fill: none; stroke: #888; stroke-width: 1; opacity: 1;"></line></g><g class="mark-text role-axis-title" style="pointer-events: none;"><text text-anchor="middle" transform="translate(300,43)" style="font-family: Roboto; font-size: 20px; font-weight: bold; fill: #000; opacity: 1;">Orientation Order</text></g></g><path class="foreground" d="" style="pointer-events: none; display: none; fill: none;"></path></g></g><g class="mark-group role-axis"><g transform="translate(0.5,0.5)"><path class="background" d="M0,0h0v0h0Z" style="pointer-events: none; fill: none;"></path><g><g class="mark-rule role-axis-tick" style="pointer-events: none;"><line transform="translate(0,400)" x2="-5" y2="0" style="fill: none; stroke: #888; stroke-width: 1; opacity: 1;"></line><line transform="translate(0,360)" x2="-5" y2="0" style="fill: none; stroke: #888; stroke-width: 1; opacity: 1;"></line><line transform="translate(0,320)" x2="-5" y2="0" style="fill: none; stroke: #888; stroke-width: 1; opacity: 1;"></line><line transform="translate(0,280)" x2="-5" y2="0" style="fill: none; stroke: #888; stroke-width: 1; opacity: 1;"></line><line transform="translate(0,240)" x2="-5" y2="0" style="fill: none; stroke: #888; stroke-width: 1; opacity: 1;"></line><line transform="translate(0,200)" x2="-5" y2="0" style="fill: none; stroke: #888; stroke-width: 1; opacity: 1;"></line><line transform="translate(0,160)" x2="-5" y2="0" style="fill: none; stroke: #888; stroke-width: 1; opacity: 1;"></line><line transform="translate(0,120)" x2="-5" y2="0" style="fill: none; stroke: #888; stroke-width: 1; opacity: 1;"></line><line transform="translate(0,80)" x2="-5" y2="0" style="fill: none; stroke: #888; stroke-width: 1; opacity: 1;"></line><line transform="translate(0,40)" x2="-5" y2="0" style="fill: none; stroke: #888; stroke-width: 1; opacity: 1;"></line><line transform="translate(0,0)" x2="-5" y2="0" style="fill: none; stroke: #888; stroke-width: 1; opacity: 1;"></line></g><g class="mark-text role-axis-label" style="pointer-events: none;"><text text-anchor="end" transform="translate(-7,405)" style="font-family: Roboto; font-size: 16px; fill: #000; opacity: 1;">0</text><text text-anchor="end" transform="translate(-7,365)" style="font-family: Roboto; font-size: 16px; fill: #000; opacity: 1;">10</text><text text-anchor="end" transform="translate(-7,325)" style="font-family: Roboto; font-size: 16px; fill: #000; opacity: 1;">20</text><text text-anchor="end" transform="translate(-7,285)" style="font-family: Roboto; font-size: 16px; fill: #000; opacity: 1;">30</text><text text-anchor="end" transform="translate(-7,245)" style="font-family: Roboto; font-size: 16px; fill: #000; opacity: 1;">40</text><text text-anchor="end" transform="translate(-7,205)" style="font-family: Roboto; font-size: 16px; fill: #000; opacity: 1;">50</text><text text-anchor="end" transform="translate(-7,165)" style="font-family: Roboto; font-size: 16px; fill: #000; opacity: 1;">60</text><text text-anchor="end" transform="translate(-7,125.00000000000001)" style="font-family: Roboto; font-size: 16px; fill: #000; opacity: 1;">70</text><text text-anchor="end" transform="translate(-7,84.99999999999999)" style="font-family: Roboto; font-size: 16px; fill: #000; opacity: 1;">80</text><text text-anchor="end" transform="translate(-7,44.99999999999999)" style="font-family: Roboto; font-size: 16px; fill: #000; opacity: 1;">90</text><text text-anchor="end" transform="translate(-7,5)" style="font-family: Roboto; font-size: 16px; fill: #000; opacity: 1;">100</text></g><g class="mark-rule role-axis-domain" style="pointer-events: none;"><line transform="translate(0,400)" x2="0" y2="-400" style="fill: none; stroke: #888; stroke-width: 1; opacity: 1;"></line></g><g class="mark-text role-axis-title" style="pointer-events: none;"><text text-anchor="middle" transform="translate(-37.9765625,200) rotate(-90) translate(0,-4)" style="font-family: Roboto; font-size: 20px; font-weight: bold; fill: #000; opacity: 1;">Distribution</text></g></g><path class="foreground" d="" style="pointer-events: none; display: none; fill: none;"></path></g></g><g class="mark-group role-scope pathgroup"><g transform="translate(0,0)"><path class="background" d="M0,0h600v400h-600Z" style="fill: none;"></path><g><g class="mark-line role-mark marks"><path d="M123.16645003139831,399.97519841269843L124.76024545874661,399.97519841269843L130.33852945446554,399.97519841269843L131.93232488181377,399.97519841269843L136.71371116385853,399.97519841269843L151.05787000999277,399.97519841269843L151.85476772366695,399.97519841269843L155.04235857836343,399.97519841269843L156.10488886326232,399.97519841269843L156.90178657693644,399.97519841269843L157.16741914816117,399.97519841269843L159.29247971795874,399.97519841269843L160.6206425740823,399.97519841269843L170.7146802806213,399.97519841269843L180.80871798716026,399.97519841269843L183.7306762706321,399.97519841269843L194.09034654839564,399.97519841269843L194.88724426206983,399.97519841269843L338.86009786586214,399.97519841269843L340.9851584356598,399.97519841269843L349.7510332860752,399.97519841269843L351.07919614219884,399.97519841269843L356.1262149954683,399.97519841269843L422.5343578016455,399.97519841269843L424.1281532289937,399.97519841269843L425.98758122756675,399.97519841269843L426.78447894124076,399.97519841269843L432.6283955081845,399.97519841269843L436.87851664777986,399.97519841269843L438.7379446463528,399.97519841269843L439.2692097888022,399.97519841269843L439.5348423600269,399.95039682539687L440.06610750247626,399.95039682539687L440.3317400737009,399.97519841269843L440.5973726449257,399.97519841269843L440.8630052161505,399.97519841269843L441.12863778737517,399.97519841269843L443.5193309283976,399.9255952380952L444.3162286420716,399.95039682539687L444.8474937845211,399.9255952380952L445.3787589269704,399.97519841269843L446.4412892118694,399.97519841269843L446.70692178309406,399.97519841269843L446.9725543543187,399.97519841269843L447.23818692554346,399.97519841269843L447.76945206799286,399.97519841269843L448.03508463921753,399.97519841269843L448.3007172104422,399.97519841269843L448.566349781667,399.97519841269843L448.83198235289177,399.97519841269843L449.0976149241164,399.9255952380952L450.16014520901524,399.95039682539687L450.6914103514647,399.97519841269843L450.95704292268937,399.97519841269843L451.2226754939141,399.95039682539687L451.75394063636355,399.95039682539687L452.01957320758817,399.95039682539687L452.28520577881284,399.87599206349205L452.5508383500376,399.97519841269843L453.0821034924871,399.97519841269843L454.6758989198353,399.97519841269843L456.00406177595886,399.9255952380952L457.59785720330706,399.97519841269843L458.9260200594306,399.97519841269843L459.19165263065537,399.97519841269843L459.72291777310477,399.95039682539687L459.98855034432944,399.97519841269843L462.9105086278013,399.97519841269843L463.176141199026,399.97519841269843L463.44177377025073,399.97519841269843L464.23867148392475,399.97519841269843L464.7699366263743,399.97519841269843L465.03556919759905,399.97519841269843L465.3012017688237,399.97519841269843L465.56683434004833,399.97519841269843L466.6293646249472,399.97519841269843L466.8949971961719,399.97519841269843L469.81695547964364,399.97519841269843L471.1451183357672,399.95039682539687L471.41075090699195,399.95039682539687L471.6763834782168,399.97519841269843L472.207648620666,399.97519841269843L472.4732811918908,399.97519841269843L472.73891376311553,399.97519841269843L473.27017890556493,399.97519841269843L474.06707661923906,399.97519841269843L474.33270919046385,399.95039682539687L474.5983417616885,399.97519841269843L476.1921371890367,399.97519841269843L476.7234023314861,399.97519841269843L476.98903490271096,399.97519841269843L477.52030004516024,399.97519841269843L478.3171977588344,399.97519841269843L478.5828303300591,399.97519841269843L478.8484629012838,399.97519841269843L479.3797280437333,399.97519841269843L480.1766257574074,399.95039682539687L480.97352347108153,399.97519841269843L481.2391560423062,399.9255952380952L481.77042118475555,399.97519841269843L482.03605375598033,399.97519841269843L482.8329514696544,399.97519841269843L483.09858404087913,399.95039682539687L483.36421661210386,399.92559523809524L483.6298491833287,399.97519841269843L483.8954817545534,399.97519841269843L484.16111432577793,399.97519841269843L484.4267468970027,399.97519841269843L484.95801203945217,399.95039682539687L485.22364461067684,399.97519841269843L485.48927718190157,399.9255952380952L486.28617489557575,399.97519841269843L486.5518074668004,399.95039682539687L486.81744003802515,399.9007936507936L487.34870518047455,399.95039682539687L487.6143377516993,399.95039682539687L487.87997032292395,399.9255952380952L488.4112354653733,399.9007936507936L488.676868036598,399.95039682539687L488.94250060782286,399.9255952380952L489.20813317904754,399.97519841269843L489.47376575027215,399.97519841269843L489.7393983214969,399.9255952380952L490.0050308927216,399.95039682539687L490.2706634639464,399.97519841269843L490.536296035171,399.9255952380952L490.8019286063957,399.9007936507936L491.3331937488452,399.95039682539687L491.5988263200699,399.95039682539687L491.8644588912946,399.95039682539687L492.1300914625193,399.87599206349205L492.39572403374393,399.9255952380952L492.6613566049687,399.92559523809524L492.92698917619344,399.9007936507936L493.1926217474181,399.95039682539687L493.4582543186429,399.9007936507936L493.72388688986746,399.97519841269843L493.9895194610923,399.87599206349216L494.255152032317,399.82638888888886L494.5207846035417,399.95039682539687L494.78641717476637,399.87599206349205L495.05204974599104,399.87599206349205L495.31768231721577,399.92559523809524L495.5833148884406,399.9007936507936L495.8489474596653,399.9255952380952L496.11458003088984,399.8511904761905L496.3802126021146,399.87599206349205L496.64584517333935,399.82638888888897L496.9114777445641,399.82638888888886L497.17711031578875,399.82638888888886L497.4427428870135,399.77678571428567L497.70837545823815,399.77678571428567L497.9740080294629,399.82638888888897L498.23964060068766,399.87599206349205L498.50527317191234,399.87599206349205L498.77090574313706,399.87599206349205L499.0365383143617,399.9007936507936L499.30217088558646,399.87599206349216L499.5678034568112,399.9007936507936L499.83343602803586,399.7519841269841L500.09906859926053,399.9007936507936L500.3647011704852,399.77678571428567L500.63033374171005,399.8015873015874L500.8959663129348,399.9007936507936L501.16159888415945,399.72718253968253L501.4272314553841,399.82638888888886L501.6928640266088,399.80158730158723L501.9584965978335,399.8015873015874L502.2241291690583,399.67757936507934L502.489761740283,399.80158730158723L502.7553943115076,399.6527777777777L503.0210268827323,399.77678571428567L503.2866594539571,399.5783730158732L503.5522920251818,399.72718253968253L503.8179245964065,399.7519841269841L504.0835571676312,399.7519841269841L504.3491897388559,399.80158730158723L504.61482231008057,399.6031746031746L504.88045488130535,399.7023809523811L505.14608745253,399.77678571428567L505.4117200237548,399.77678571428567L505.6773525949795,399.5535714285714L505.94298516620404,399.67757936507934L506.2086177374289,399.65277777777794L506.4742503086536,399.6031746031746L506.7398828798783,399.57837301587296L507.00551545110295,399.8511904761905L507.2711480223276,399.5535714285714L507.53678059355235,399.4791666666669L507.8024131647772,399.7023809523809L508.06804573600175,399.6031746031746L508.33367830722653,399.47916666666663L508.59931087845126,399.4047619047618L508.86494344967593,399.52876984127005L509.1305760209007,399.6527777777777L509.3962085921254,399.37996031746025L509.66184116335006,399.4047619047618L509.92747373457473,399.47916666666663L510.19310630579946,399.5783730158732L510.45873887702425,399.5039682539682L510.724371448249,399.6031746031746L510.9900040194736,399.2063492063491L511.25563659069826,399.57837301587296L511.5212691619231,399.4295634920638L511.7869017331478,399.47916666666663L512.0525343043726,399.2807539682539L512.3181668755972,399.13194444444434L512.5837994468218,399.3551587301587L512.8494320180466,399.3799603174606L513.1150645892714,399.3055555555555L513.380697160496,399.08234126984115L513.6463297317207,399.0575396825396L513.9119623029454,398.88392857142844L514.17759487417,399.00793650793696L514.4432274453949,399.18154761904754L514.7088600166195,398.8591269841268L514.9744925878442,399.1071428571428L515.240125159069,398.8591269841268L515.5057577302937,398.80952380952436L515.7713903015184,398.8095238095237L516.0370228727431,398.7847222222221L516.3026554439678,398.7599206349205L516.5682880151925,398.6111111111109L516.8339205864173,398.5615079365086L517.0995531576419,398.38789682539664L517.3651857288667,398.5367063492062L517.6308183000914,398.487103174603L517.896450871316,398.6111111111109L518.1620834425407,398.0902777777786L518.4277160137655,398.2142857142855L518.6933485849902,398.3134920634919L518.9589811562148,398.2390873015871L519.2246137274395,397.89186507936483L519.4902462986643,397.8670634920644L519.7558788698891,398.13988095238074L520.0215114411137,397.9166666666664L520.2871440123384,397.96626984126965L520.5527765835632,397.54464285714255L520.8184091547878,397.3958333333345L521.0840417260126,397.79265873015845L521.3496742972374,397.6686507936505L521.615306868462,397.29662698412665L521.8809394396867,397.519841269841L522.1465720109114,396.70138888889034L522.4122045821362,397.17261904761875L522.6778371533609,396.35416666666623L522.9434697245855,396.552579365079L523.2091022958102,396.77579365079333L523.4747348670351,396.8501984126998L523.7403674382597,396.7261904761901L524.0060000094844,395.83333333333286L524.2716325807091,396.006944444444L524.5372651519338,396.2549603174599L524.8028977231585,395.33730158730367L525.0685302943832,394.89087301587244L525.3341628656079,395.23809523809473L525.5997954368326,395.3124999999995L525.8654280080573,394.7668650793645L526.131060579282,394.4940476190501L526.3966931505068,394.8660714285709L526.6623257217315,394.7668650793645L526.9279582929562,393.65079365079293L527.1935908641809,393.8988095238089L527.4592234354055,394.0476190476217L527.7248560066304,393.22916666666595L527.990488577855,393.3283730158723L528.2561211490797,392.4603174603166L528.5217537203043,392.9563492063484L528.7873862915292,392.43551587301926L529.0530188627539,392.38591269841186L529.3186514339786,390.7738095238085L529.5842840052032,391.0218253968244L529.8499165764279,390.05456349206236L530.1155491476527,389.6329365079411L530.3811817188774,389.6081349206338L530.6468142901022,388.8144841269829L530.9124468613269,388.988095238094L531.1780794325514,388.69047619047495L531.4437120037762,387.5992063492119L531.7093445750011,387.177579365078L531.9749771462257,386.9791666666652L532.2406097174503,386.53273809523665L532.506242288675,385.98710317460166L532.7718748598998,386.2103174603236L533.0375074311246,384.1765873015856L533.3031400023492,383.45734126983945L533.5687725735739,382.24206349206156L533.8344051447987,381.12599206349L534.1000377160233,381.89484126984934L534.365670287248,380.67956349206133L534.6313028584727,378.645833333331L534.8969354296975,378.8194444444421L535.1625680009221,376.06646825396564L535.4282005721469,377.97619047620026L535.6938331433716,374.77678571428294L535.9594657145964,373.71031746031457L536.225098285821,373.1646825396796L536.4907308570456,371.7013888888858L536.7563634282704,370.1140873016006L537.0219959994952,368.52678571428225L537.2876285707199,366.3194444444407L537.5532611419445,364.1617063492024L537.8188937131692,363.4672619047579L538.084526284394,359.7470238095417L538.3501588556188,359.99503968253526L538.6157914268434,358.85416666666214L538.881423998068,355.65476190475704L539.1470565692928,352.85218253967736L539.4126891405174,350.19841269840725L539.6783217117422,346.32936507938894L539.943954282967,345.188492063486L540.2095868541916,341.9890873015809L540.4752194254164,338.64087301586625L540.7408519966409,332.5892857142783L541.0064845678658,329.8859126984439L541.2721171390905,326.736111111103L541.5377497103152,321.23015873015004L541.8033822815398,315.0793650793557L542.0690148527646,310.24305555554565L542.3346474239893,306.0763888889307L542.6002799952141,301.86011904760824L542.8659125664387,293.1795634920517L543.1315451376634,289.2609126984005L543.3971777088881,284.05257936506655L543.6628102801128,273.43750000005633L543.9284428513375,262.57440476188964L544.1940754225623,261.03670634919104L544.459707993787,248.4374999999833L544.7253405650116,235.68948412696608L544.9909731362363,229.0674603175364L545.2566057074612,216.12103174601148L545.5222382786858,201.66170634918447L545.7878708499105,192.28670634918345L546.0535034211351,177.72817460315014L546.31913599236,162.772817460423L546.5847685635847,144.81646825394017L546.8504011348093,129.2410714285416L547.1160337060339,109.84623015869816L547.3816662772587,94.51884920631555L547.6472988484834,79.01785714299993L547.9129314197082,54.98511904758105L548.1785639909328,41.542658730119264L548.4441965621576,38.9384920634523L548.7098291333823,18.15476190471985L548.975461704607,8.581349206523337L549.2410942758316,3.5466269840832787L549.5067268470564,4.141865079321461L549.7723594182811,21.949404761863136L550.0379919895058,38.616071428531654L550.3036245607306,82.24206349220484L550.5692571319553,134.77182539679623L550.83488970318,203.69543650791488L551.1005222744047,288.7896825396703L551.3661548456294,371.5525793650762" style="fill: none; stroke: #f58518; stroke-width: 2;"></path></g></g><path class="foreground" d="" style="display: none; fill: none;"></path></g><g transform="translate(0,0)"><path class="background" d="M0,0h600v400h-600Z" style="fill: none;"></path><g><g class="mark-line role-mark marks"><path d="M5.225588407627485,399.8046875L7.085016406200547,399.84L8.147546691099343,399.8400000000001L9.210076975998142,399.90234375L10.538239832121683,399.70703124999994L12.132035259470001,399.90234375000006L12.928932973144112,399.84L13.194565544368768,399.8046875L13.725830686818227,399.8046875000001L13.991463258042971,399.90234375L14.257095829267657,399.84L14.522728400492339,399.90234375L14.788360971716994,399.90234375L15.053993542941768,399.90234375000006L15.319626114166514,399.90234375L15.585258685391198,399.90234375L15.850891256615883,399.70703124999994L16.116523827840567,399.90234375L16.38215639906531,399.8046875000001L16.647788970290055,399.84L17.179054112739426,399.86078125L17.444686683964107,399.84L18.24158439763828,399.90234375L18.772849540087652,399.84L19.038482111312394,399.86078125000006L19.30411468253714,399.84L20.101012396211196,399.84L20.36664496743594,399.6474479166668L20.632277538660713,399.86078125L20.897910109885366,399.90234375L21.163542681110048,399.82822916666663L21.429175252334733,399.90234375L21.69480782355948,399.8046875000001L21.960440394784253,399.72156249999995L22.22607296600894,399.84L22.491705537233592,399.86078125L23.02297067968305,399.75411458333343L23.55423582213248,399.90234375L23.819868393357165,399.67999999999995L24.08550096458182,399.60937499999994L24.351133535806593,399.5117187500002L24.61676610703134,399.84L24.88239867825602,399.82822916666663L25.148031249480706,399.7541145833333L25.41366382070539,399.90234375L25.679296391930137,399.86078125000006L25.94492896315488,399.8046875L26.210561534379565,399.8046875L26.741826676828932,399.82822916666663L27.007459248053678,399.90234375000006L27.273091819278424,399.86078125L27.53872439050311,399.90234375L27.80435696172779,399.90234375L28.33562210417722,399.82822916666674L28.601254675401965,399.8046875L28.866887246626646,399.8046875L29.132519817851332,399.51171874999994L29.398152389076017,399.70703124999994L29.929417531525537,399.72156249999995L30.19505010275019,399.8046875L30.460682673974876,399.8046875L30.72631524519956,399.84L30.991947816424304,399.8400000000001L31.257580387649078,399.82822916666663L31.523212958873764,399.70703124999994L31.788845530098417,399.8046875L32.0544781013231,399.8046875L32.32011067254788,399.82822916666674L32.58574324377262,399.6148958333333L33.11700838622199,399.8046875L33.38264095744665,399.82822916666663L33.64827352867142,399.6890104166668L33.91390609989616,399.8046875L34.179538671120845,399.8046875L34.44517124234553,399.8046875L34.710803813570216,399.82822916666663L34.97643638479496,399.90234375000006L35.24206895601971,399.70703124999994L35.50770152724439,399.51171874999994L35.77333409846907,399.82822916666663L36.03896666969376,399.90234375L36.304599240918506,399.8046875000001L36.57023181214325,399.82822916666663L36.835864383367934,399.70703124999994L37.3671295258173,399.73057291666663L37.63276209704205,399.7215625000001L37.89839466826678,399.82822916666663L38.164027239491475,399.6564583333333L38.42965981071615,399.8046875L38.695292381940845,399.60937499999994L38.96092495316559,399.76312500000006L39.226557524390365,399.62390624999995L39.492190095615015,399.76312499999995L39.7578226668397,399.70703124999994L40.023455238064386,399.60937499999994L40.28908780928913,399.6564583333335L40.554720380513906,399.7956770833333L40.820352951738585,399.66546874999995L41.08598552296324,399.70703124999994L41.35161809418792,399.51171874999994L41.617250665412705,399.7215625000001L41.88288323663745,399.76312499999995L42.14851580786213,399.70703124999994L42.41414837908681,399.5913541666666L42.67978095031147,399.3164062499999L42.945413521536246,399.8046875000001L43.21104609276099,399.3164062499999L43.47667866398567,399.76312499999995L43.74231123521035,399.70703124999994L44.007943806435044,399.60937499999994L44.27357637765978,399.86078125000006L44.53920894888453,399.60937499999994L44.80484152010922,399.5588020833333L45.0704740913339,399.2187499999999L45.33610666255858,399.52624999999995L45.60173923378333,399.6980208333335L45.86737180500807,399.82822916666663L46.133004376232755,399.7956770833333L46.39863694745744,399.82822916666663L46.66426951868212,399.41406249999994L46.92990208990687,399.55880208333355L47.19553466113164,399.4105729166666L47.461167232356296,399.86078125L47.72679980358099,399.6980208333333L47.99243237480567,399.66546874999995L48.25806494603035,399.73057291666663L48.523697517255094,399.6980208333335L48.78933008847987,399.2478124999999L49.05496265970452,399.53526041666663L49.32059523092921,399.41406249999994L49.58622780215389,399.5588020833333L49.851860373378635,399.1210937500004L50.117492944603406,399.41406249999994L50.3831255158281,399.60937499999994L50.648758087052755,399.46114583333326L50.91439065827743,399.48468749999995L51.18002322950221,399.60036458333354L51.44565580072695,399.66546874999995L51.71128837195164,399.2983854166666L51.976920943176324,399.5027083333333L52.242553514400974,399.5497916666666L52.50818608562575,399.6239062500002L52.773818656850494,399.5913541666666L53.03945122807518,399.3164062499999L53.305083799299865,399.6003645833333L53.57071637052454,399.5172395833333L53.83634894174929,399.55880208333355L54.10198151297404,399.7956770833333L54.36761408419872,399.4105729166666L54.633246655423406,399.6003645833333L54.89887922664809,399.4936979166666L55.164511797872834,399.312916666667L55.43014436909758,399.14114583333327L55.69577694032226,399.62390624999995L55.961409511546954,399.52624999999995L56.22704208277163,399.5588020833333L56.49267465399638,399.3634895833336L56.75830722522112,399.47015624999995L57.02393979644581,399.48468749999995L57.28957236767049,399.48468749999995L57.55520493889518,399.6003645833333L57.82083751011992,399.24781250000035L58.08647008134469,399.1736979166666L58.35210265256935,399.66546874999995L58.61773522379403,399.52624999999995L58.88336779501872,399.1736979166666L59.149000366243456,399.3690104166669L59.41463293746824,399.4521354166666L59.68026550869292,399.42859374999995L59.945898079917576,399.5588020833333L60.211530651142255,399.32192708333326L60.47716322236704,399.4521354166669L60.74279579359178,399.56781249999995L61.00842836481647,399.5172395833333L61.274060936041145,399.4521354166666L61.5396935072658,399.66546874999995L61.80532607849058,399.3454687500003L62.070958649715315,399.23880208333327L62.33659122094001,399.23880208333327L62.602223792164686,399.2478124999999L62.86785636338938,399.2062499999999L63.133488934614114,399.4521354166669L63.39912150583886,399.48468749999995L63.66475407706355,398.9873958333332L63.930386648288234,398.8446874999999L64.1960192195129,399.3309374999999L64.46165179073766,399.50270833333354L64.7272843619624,399.3309374999999L64.99291693318709,399.41958333333326L65.25854950441177,399.3129166666666L65.52418207563646,399.36348958333326L65.7898146468612,399.3454687500003L66.05544721808594,399.4105729166666L66.32107978931063,399.41958333333326L66.58671236053532,399.2478124999999L66.85234493176,399.32192708333326L67.11797750298474,399.48468750000023L67.38361007420951,399.2152604166666L67.64924264543417,399.38703124999995L67.91487521665886,399.28036458333327L68.18050778788354,399.2713541666666L68.44614035910828,399.51723958333355L68.71177293033307,399.2332812499999L68.97740550155774,399.1085937499999L69.2430380727824,399.4521354166666L69.50867064400708,398.9693749999999L69.77430321523185,399.26583333333366L70.03993578645661,398.89526041666653L70.30556835768128,399.2893749999999L70.57120092890598,399.62390624999995L70.83683350013062,399.04348958333327L71.10246607135541,399.3780208333336L71.36809864258015,399.1501562499999L71.63373121380484,399.2152604166666L71.89936378502951,399.1736979166666L72.16499635625419,399.0254687499999L72.43062892747895,398.94583333333384L72.69626149870369,399.2893749999999L72.96189406992838,399.4105729166666L73.22752664115305,399.0760416666665L73.49315921237775,399.03447916666653L73.75879178360248,399.24781250000035L74.02442435482723,399.3309374999999L74.29005692605192,398.8627083333332L74.5556894972766,399.0760416666665L74.82132206850129,398.3383854166665L75.08695463972603,398.54270833333396L75.35258721095077,398.9278124999999L75.61821978217546,399.3309374999999L75.88385235340013,399.1321354166666L76.14948492462482,399.04348958333327L76.41511749584957,398.9188020833338L76.68075006707434,399.32192708333326L76.946382638299,398.65838541666653L77.21201520952367,398.79760416666653L77.47764778074837,398.7650520833332L77.7432803519731,399.256822916667L78.0089129231979,398.9042708333332L78.27454549442257,399.1085937499999L78.54017806564723,399.1501562499999L78.80581063687191,398.8627083333332L79.07144320809668,398.7976041666672L79.33707577932144,398.2968229166665L79.60270835054611,399.42859374999995L79.8683409217708,398.8627083333332L80.13397349299545,399.2568229166666L80.39960606422022,398.7830729166672L80.66523863544496,399.1085937499999L80.93087120666965,398.82114583333316L81.19650377789434,398.6673958333332L81.46213634911904,399.0524999999999L81.72776892034376,398.51916666666733L81.9934014915685,399.1736979166666L82.25903406279319,399.0254687499999L82.52466663401789,399.5027083333333L82.79029920524258,398.64937499999985L83.05593177646732,398.51916666666733L83.32156434769205,398.7885937499999L83.58719691891675,397.9027083333331L83.85282949014143,399.0289583333332L84.1184620613661,398.45406249999985L84.38409463259079,398.52817708333316L84.64972720381553,398.53718750000064L84.91535977504029,398.54270833333317L85.18099234626497,398.8627083333332L85.44662491748964,398.8301562499999L85.71225748871433,398.47208333333316L85.97789005993907,398.56973958333396L86.24352263116386,399.1176041666665L86.5091552023885,398.89526041666653L86.77478777361318,398.72348958333316L87.04042034483788,398.7885937499999L87.30605291606261,398.6168229166673L87.57168548728738,398.4630729166665L87.83731805851208,399.1501562499999L88.10295062973672,398.55171874999985L88.36858320096142,398.77958333333316L88.6342157721862,398.3383854166674L88.89984834341094,398.61682291666654L89.16548091463562,398.1991666666665L89.43111348586031,399.0019270833332L89.69674605708497,398.1340624999998L89.96237862830974,398.97838541666715L90.22801119953448,399.1917187499999L90.49364377075916,399.1176041666665L90.75927634198385,398.69994791666653L91.02490891320852,399.0019270833332L91.29054148443328,398.51916666666733L91.55617405565802,398.3058333333331L91.8218066268827,398.49562499999985L92.08743919810739,398.45958333333317L92.35307176933206,398.9548437499999L92.61870434055682,398.445052083334L92.88433691178156,398.54270833333317L93.14996948300625,398.4069791666665L93.41560205423094,398.2407291666665L93.68123462545562,398.68192708333316L93.94686719668037,398.7740625000006L94.2124997679051,398.4776041666665L94.4781323391298,398.3058333333331L94.74376491035447,398.7505208333332L95.00939748157916,398.52817708333316L95.27503005280391,397.5356250000011L95.54066262402868,398.31484374999985L95.80629519525334,398.46859374999985L96.07192776647801,398.41249999999985L96.3375603377027,398.85369791666653L96.60319290892744,397.92973958333425L96.86882548015222,397.68385416666644L97.1344580513769,397.81406249999975L97.40009062260155,398.9042708333332L97.66572319382624,398.4215104166665L97.93135576505101,398.32937500000077L98.19698833627577,398.3058333333331L98.46262090750044,398.58427083333316L98.72825347872514,397.8556249999998L98.9938860499498,398.4776041666665L99.25951862117456,398.0364062500008L99.52515119239929,398.2317187499998L99.79078376362399,398.51015624999985L100.05641633484868,397.78151041666644L100.32204890607336,397.9713020833331L100.5876814772981,398.6168229166673L100.85331404852285,397.7759895833331L101.11894661974753,398.2081770833331L101.38457919097222,398.41249999999985L101.6502117621969,398.8627083333332L101.91584433342165,397.84661458333426L102.18147690464639,397.86463541666643L102.44710947587107,398.1991666666665L102.71274204709576,398.01838541666643L102.97837461832043,398.4776041666665L103.24400718954519,398.28229166666745L103.50963976076993,398.5697395833332L103.77527233199461,398.1991666666665L104.0409049032193,398.0509374999998L104.30653747444397,397.9242187499998L104.57217004566873,397.63677083333437L104.8378026168935,397.84661458333306L105.10343518811815,398.2317187499998L105.36906775934283,397.53562499999975L105.63470033056753,397.88817708333306L105.90033290179228,397.26619791666786L106.16596547301705,397.4615104166664L106.43159804424172,397.47052083333307L106.69723061546638,398.1430729166664L106.96286318669107,397.86463541666643L107.22849575791584,397.60973958333443L107.4941283291406,398.2407291666665L107.75976090036527,396.86307291666634L108.02539347158995,397.4940624999997L108.29102604281461,397.3964062499997L108.55665861403938,398.04541666666756L108.82229118526413,397.80505208333307L109.0879237564888,397.88817708333306L109.35355632771349,397.9387499999998L109.61918889893819,397.2571874999997L109.88482147016292,397.33130208333455L110.15045404138766,397.4109374999997L110.41608661261235,397.5301041666664L110.68171918383705,396.40385416666624L110.94735175506173,396.82499999999965L111.21298432628647,397.87916666666763L111.4786168975112,397.96229166666643L111.7442494687359,397.07640624999965L112.00988203996059,397.90619791666643L112.27551461118527,397.59520833333306L112.54114718241001,396.3477604166683L112.80677975363476,396.747395833333L113.07241232485944,397.2246354166664L113.33804489608413,397.63328124999975L113.6036774673088,396.83401041666633L113.86931003853356,396.7328645833348L114.13494260975833,396.86307291666634L114.40057518098298,396.78343749999965L114.66620775220767,396.83052083333297L114.93184032343234,397.3257812499997L115.1974728946571,396.61166666666816L115.46310546588187,396.85755208333296L115.72873803710657,396.3983333333329L115.99437060833121,396.97874999999965L116.26000317955588,396.79796874999965L116.52563575078067,397.22463541666787L116.79126832200541,397.38187499999975L117.05690089323011,396.4398958333329L117.32253346445478,397.275208333333L117.58816603567944,397.5446354166664L117.8537986069042,397.1595312500013L118.11943117812896,396.49598958333297L118.38506374935363,397.03484374999965L118.65069632057832,397.331302083333L118.916328891803,396.412864583333L119.18196146302766,395.9536458333329L119.44759403425243,396.217552083335L119.71322660547717,396.566614583333L119.97885917670186,396.70932291666634L120.24449174792655,396.67677083333297L120.51012431915125,396.78895833333297L120.77575689037597,396.8069791666681L121.04138946160072,396.2320833333329L121.3070220328254,395.87401041666624L121.5726546040501,396.59364583333297L121.83828717527477,395.6426562499995L122.10391974649953,396.3747916666683L122.36955231772426,396.87208333333297L122.63518488894896,396.996770833333L122.90081746017364,396.86307291666634L123.16645003139831,397.052864583333L123.43208260262307,396.8250000000014L123.69771517384784,396.63520833333297L123.9633477450725,397.2842187499997L124.22898031629717,397.3908854166664L124.49461288752185,396.98776041666633L124.76024545874661,395.488906250002L125.02587802997138,396.91364583333296L125.29151060119605,396.2681249999996L125.55714317242071,396.77791666666633L125.8227757436454,396.4489062499996L126.08840831487016,396.62067708333484L126.35404088609492,395.89755208333287L126.61967345731959,396.6802604166663L126.88530602854429,396.5285416666663L127.15093859976895,396.4634374999996L127.41657117099372,396.0963541666684L127.68220374221848,395.4473437499995L127.94783631344315,396.03124999999955L128.21346888466783,396.5701041666663L128.47910145589253,396.15244791666623L128.74473402711726,396.0963541666684L129.010366598342,396.25010416666623L129.2759991695667,397.52661458333307L129.5416317407914,396.3893229166663L129.80726431201606,396.15244791666623L130.07289688324082,396.56458333333484L130.33852945446554,395.6932291666662L130.60416202569024,395.51244791666613L130.86979459691491,396.00770833333286L131.1354271681396,396.11640624999956L131.40105973936434,396.26812500000165L131.66669231058907,395.2845833333328L131.93232488181377,395.5955729166662L132.19795745303847,396.3512499999996L132.46359002426314,395.69671874999955L132.7292225954879,395.8324479166685L132.99485516671265,395.7077604166662L133.26048773793732,396.66223958333296L133.526120309162,395.5304687499995L133.79175288038667,395.6842187499995L134.05738545161142,396.28614583333496L134.3230180228362,396.6171874999996L134.58865059406088,396.5701041666663L134.85428316528555,396.3277083333329L135.11991573651022,396.22656249999955L135.385548307735,395.0296875000022L135.65118087895974,395.99869791666623L135.91681345018443,395.2700520833328L136.1824460214091,395.2430208333328L136.44807859263378,395.4653645833328L136.71371116385853,395.98968750000176L136.9793437350833,395.70223958333287L137.24497630630796,396.3657812499996L137.51060887753263,396.1559374999996L137.77624144875733,395.27906249999944L138.0418740199821,395.36421875000207L138.30750659120685,395.35869791666613L138.57313916243152,394.4312499999994L138.8387717336562,394.8398958333327L139.10440430488086,396.6802604166663L139.37003687610562,395.2139583333355L139.6356694473304,394.42572916666603L139.90130201855504,395.6281249999995L140.16693458977974,396.1704687499996L140.43256716100444,395.1869270833328L140.69819973222917,396.3838020833349L140.9638323034539,394.9826041666661L141.22946487467863,396.2916666666663L141.4950974459033,396.3006770833329L141.76073001712797,395.25203124999945L142.02636258835273,395.2319791666688L142.29199515957748,394.80734374999946L142.55762773080215,395.6932291666662L142.82326030202685,395.4508333333328L143.0888928732515,395.82692708333286L143.35452544447628,396.244583333335L143.62015801570098,393.7677083333326L143.8857905869257,394.6896354166661L144.15142315815038,395.4979166666662L144.41705572937508,395.67869791666624L144.6826883005998,395.2520312500021L144.94832087182456,395.26104166666613L145.21395344304923,395.3621874999995L145.47958601427393,397.24614583333306L145.74521858549858,395.80338541666623L146.01085115672336,394.5649479166691L146.27648372794812,394.79281249999946L146.5421162991728,395.72927083333286L146.80774887039743,395.1038020833328L147.07338144162216,396.84302083333296L147.33901401284692,394.73322916666905L147.60464658407165,394.6626041666661L147.87027915529632,395.59906249999955L148.13591172652102,394.96255208333275L148.40154429774572,395.4508333333328L148.66717686897044,394.97359375000224L148.93280944019523,393.6790624999993L149.19844201141987,395.3441666666662L149.46407458264457,394.44026041666604L149.72970715386924,393.5758854166659L149.995339725094,394.9410416666689L150.26097229631873,395.15437499999945L150.52660486754345,394.3606249999994L150.7922374387681,395.05671874999945L151.05787000999277,395.0747395833328L151.32350258121755,394.8614062500023L151.5891351524423,394.7872916666661L151.85476772366695,395.0892708333328L152.12040029489168,394.3786458333327L152.38603286611635,396.01322916666624L152.6516654373411,394.1472916666693L152.91729800856584,394.5974999999994L153.1829305797905,395.84494791666623L153.4485631510152,394.99161458333276L153.7141957222399,393.23786458333257L153.97982829346458,393.6700520833326L154.24546086468933,394.772760416669L154.5110934359141,394.56494791666603L154.77672600713876,394.1833333333327L155.04235857836343,395.4182812499995L155.30799114958813,394.1978645833327L155.57362372081283,394.5233854166691L155.83925629203762,393.05708333333257L156.10488886326232,394.95906249999945L156.370521434487,393.8508333333326L156.63615400571166,394.17432291666603L156.90178657693644,394.2900000000026L157.16741914816117,394.6806249999994L157.43305171938584,393.58489583333267L157.69868429061054,394.94453124999944L157.96431686183521,394.69312499999944L158.22994943305997,394.5268750000024L158.4955820042847,394.30453124999934L158.7612145755094,394.6425520833327L159.02684714673407,393.619479166666L159.29247971795874,393.6174479166659L159.55811228918353,394.5504166666691L159.82374486040828,393.5814062499993L160.08937743163293,393.85229166666596L160.3550100028576,393.13468749999925L160.6206425740823,394.5358854166661L160.88627514530705,393.946458333336L161.15190771653178,393.4006249999993L161.41754028775648,393.27942708333256L161.68317285898115,393.659010416666L161.94880543020582,393.798229166666L162.21443800143058,394.39666666666915L162.48007057265536,395.27906249999944L162.74570314388,393.53229166666597L163.01133571510474,392.10958333333247L163.2769682863294,393.35354166666593L163.54260085755416,393.9700000000027L163.8082334287789,392.4711458333325L164.0738660000036,394.3370833333327L164.33949857122826,393.2829166666659L164.60513114245296,393.14020833333257L164.87076371367766,393.50177083333625L165.13639628490242,394.81781249999943L165.40202885612715,393.5197916666659L165.66766142735182,394.062135416666L165.9332939985765,393.505260416666L166.19892656980124,393.07510416666975L166.464559141026,395.1758854166661L166.73019171225067,394.1563020833327L166.99582428347537,392.9393749999992L167.26145685470004,392.5778124999992L167.52708942592477,393.988020833336L167.79272199714953,394.118229166666L168.05835456837423,393.18177083333256L168.3239871395989,393.922916666666L168.58961971082357,393.3805729166659L168.85525228204835,393.39510416666957L169.1208848532731,393.783697916666L169.38651742449775,394.26296874999935L169.65214999572243,394.81781249999943L169.91778256694712,392.66296874999915L170.1834151381719,394.2248958333359L170.4490477093966,393.3244791666659L170.7146802806213,392.7585937499992L170.98031285184598,394.1778124999994L171.24594542307065,393.06755208333254L171.5115779942954,394.05312500000264L171.7772105655202,393.24687499999925L172.04284313674484,393.10765624999925L172.30847570796954,393.86333333333266L172.5741082791942,390.907187499999L172.839740850419,393.29541666666967L173.10537342164372,393.84880208333266L173.3710059928684,393.5288020833326L173.63663856409306,393.1852604166659L173.9022711353178,393.25239583333257L174.1679037065425,393.24833333333635L174.43353627776725,393.26286458333254L174.69916884899195,394.2664583333327L174.96480142021665,392.8507291666659L175.23043399144132,392.4836458333325L175.49606656266607,393.08760416666973L175.7616991338908,393.17624999999924L176.0273317051155,392.8091666666659L176.2929642763402,393.33901041666593L176.55859684756487,393.742135416666L176.8242294187896,394.015052083336L177.08986199001433,393.18177083333256L177.35549456123906,392.5252083333325L177.62112713246373,391.76401041666577L177.8867597036884,394.01156249999934L178.15239227491315,393.1091145833364L178.41802484613794,392.88677083333255L178.68365741736258,392.28484374999914L178.94928998858728,392.2342708333325L179.21492255981195,392.31187499999913L179.4805551310367,392.7260416666699L179.74618770226144,391.8041145833324L180.01182027348617,392.9809374999992L180.2774528447108,394.1903124999993L180.54308541593548,392.74958333333257L180.80871798716026,393.7511458333361L181.07435055838502,393.0876041666659L181.33998312960966,391.3047916666657L181.60561570083436,391.8907291666658L181.87124827205903,393.2773958333326L182.13688084328382,392.24328125000346L182.40251341450855,393.0315104166659L182.66814598573322,393.3895833333326L182.9337785569579,392.73505208333256L183.1994111281826,393.5197916666659L183.46504369940732,393.99151041666937L183.7306762706321,392.6554166666659L183.99630884185677,391.99739583333246L184.26194141308144,392.50718749999913L184.52757398430612,391.7730208333324L184.7932065555309,391.85817708333695L185.05883912675563,392.46562499999914L185.3244716979803,392.35343749999913L185.59010426920503,392.9899479166659L185.8557368404297,392.53770833333255L186.12136941165443,393.41661458333624L186.38700198287916,391.5652083333324L186.65263455410386,391.5035937499991L186.91826712532855,391.8166145833324L187.18389969655325,393.02249999999924L187.44953226777798,393.12015625000305L187.71516483900277,391.94130208333246L187.9807974102274,391.5236458333324L188.2464299814521,393.781666666666L188.51206255267678,391.99739583333246L188.77769512390145,393.02249999999924L189.0433276951262,392.55776041666996L189.308960266351,392.8922916666659L189.57459283757564,392.99895833333255L189.8402254088003,391.8491666666658L190.105857980025,392.2342708333325L190.3714905512498,391.60328125000376L190.6371231224745,393.8162499999993L190.9027556936992,392.96640624999924L191.16838826492386,391.49109374999904L191.43402083614853,391.4730729166657L191.69965340737326,392.49265625000334L191.96528597859808,392.14562499999914L192.23091854982272,391.04989583333236L192.49655112104742,391.7314583333324L192.7621836922721,393.16520833333254L193.02781626349687,392.4836458333367L193.2934488347216,391.6213020833324L193.55908140594627,391.96833333333245L193.82471397717094,392.8001562499992L194.09034654839564,391.97734374999914L194.3559791196204,392.54875000000334L194.62161169084513,391.3879166666657L194.88724426206983,392.22874999999914L195.1528768332945,392.5342187499992L195.41850940451917,391.5326562499991L195.68414197574396,392.27031250000346L195.94977454696868,391.3754166666657L196.21540711819335,391.92124999999913L196.48103968941808,392.3354166666658L196.74667226064275,393.52677083333265L197.01230483186748,392.3554687500034L197.2779374030922,389.0121874999988L197.54356997431694,391.200156249999L197.8092025455416,391.74947916666576L198.07483511676628,391.5451562499991L198.34046768799104,391.9212500000036L198.60610025921582,391.6538541666657L198.87173283044046,391.32484374999905L199.13736540166516,392.2342708333325L199.40299797288984,391.70442708333246L199.6686305441146,390.80401041667074L199.93426311533932,392.8417187499992L200.19989568656405,390.76041666666566L200.4655282577887,391.7169270833324L200.73116082901336,391.7785416666658L200.99679340023812,392.27031250000346L201.2624259714629,392.6228645833325L201.52805854268755,390.641249999999L201.79369111391225,392.1961979166658L202.05932368513692,390.53109374999894L202.3249562563617,391.718958333337L202.59058882758643,391.51812499999903L202.8562213988111,391.3969270833324L203.12185397003577,390.4133854166656L203.38748654126047,392.46562499999914L203.65311911248523,391.1205208333373L203.91875168370998,391.6808854166658L204.18438425493466,390.0067708333322L204.45001682615933,391.7404687499991L204.71564939738403,391.5416666666657L204.98128196860878,391.2687500000039L205.2469145398335,391.18359374999903L205.51254711105818,392.4836458333325L205.77817968228288,391.6989062499991L206.04381225350755,391.10395833333234L206.3094448247323,390.4569791666709L206.57507739595704,391.25770833333235L206.84070996718174,391.0408854166657L207.1063425384064,390.863593749999L207.37197510963108,390.85458333333236L207.63760768085587,391.5797395833371L207.90324025208062,390.612187499999L208.16887282330526,391.91776041666577L208.43450539453,390.4404166666656L208.70013796575466,390.87260416666567L208.96577053697942,392.6083333333366L209.23140310820415,390.9016666666657L209.49703567942888,392.83619791666587L209.76266825065352,391.1365104166657L210.0283008218782,391.04989583333236L210.29393339310295,391.3248437500039L210.55956596432773,390.1640104166656L210.8251985355524,389.47692708333216L211.09083110677707,390.7008333333323L211.35646367800175,391.4114583333324L211.6220962492265,390.22359375000434L211.88772882045126,390.4729687499989L212.15336139167593,390.934218749999L212.41899396290063,391.7134374999991L212.6846265341253,391.35187499999904L212.95025910535003,390.1945312500044L213.2158916765748,390.599687499999L213.48152424779948,391.4675520833324L213.74715681902416,389.7498437499989L214.01278939024886,389.6902604166655L214.2784219614736,390.8580729166707L214.54405453269834,390.59619791666563L214.809687103923,390.85807291666566L215.0753196751477,392.06598958333245L215.34095224637238,389.21302083333217L215.60658481759714,392.85421875000316L215.87221738882187,388.65062499999874L216.13784996004657,389.8855729166656L216.40348253127124,389.65770833333215L216.66911510249594,391.07692708333235L216.9347476737207,388.5259375000051L217.20038024494545,389.0592708333321L217.4660128161701,390.99729166666566L217.7316453873948,389.2220312499988L217.99727795861946,389.0592708333321L218.26291052984425,389.1839583333382L218.52854310106898,391.4890624999991L218.79417567229368,390.17651041666556L219.05980824351832,389.28161458333216L219.325440814743,390.56916666666564L219.59107338596777,390.82755208333737L219.85670595719253,390.21458333333226L220.1223385284172,390.8871354166656L220.3879710996419,389.7498437499989L220.65360367086657,389.4969791666655L220.91923624209133,390.5976562500042L221.18486881331606,390.0213020833323L221.4505013845408,391.45505208333236L221.71613395576546,390.794999999999L221.98176652699013,390.4223958333323L222.24739909821486,389.71729166667126L222.51303166943964,390.3953645833323L222.7786642406643,388.6977083333321L223.04429681188898,390.822031249999L223.30992938311368,388.62708333333205L223.57556195433835,390.19104166666557L223.84119452556308,391.3318229166705L224.10682709678784,390.28869791666557L224.37245966801254,388.56749999999874L224.6380922392372,390.67729166666567L224.9037248104619,390.31020833333224L225.16935738168667,390.02828125000445L225.4349899529114,392.05697916666577L225.70062252413607,390.614218749999L225.96625509536076,389.32317708333215L226.23188766658544,389.87656249999884L226.4975202378102,389.3612500000047L226.76315280903492,388.167864583332L227.02878538025962,390.33723958333223L227.2944179514843,391.6192708333324L227.56005052270896,389.8294791666655L227.82568309393375,389.14036458333817L228.0913156651585,389.6757291666655L228.35694823638315,390.6738020833323L228.62258080760785,389.5309895833322L228.88821337883252,390.27968749999894L229.1538459500573,388.845937500005L229.41947852128203,390.5761458333323L229.68511109250673,388.9996874999988L229.95074366373137,389.4063020833322L230.21637623495604,391.1094791666657L230.48200880618083,390.35729166667096L230.74764137740559,390.7839583333323L231.01327394863029,389.87656249999884L231.27890651985496,388.9491145833321L231.54453909107963,389.7263020833322L231.81017166230438,387.5188541666722L232.0758042335291,390.38984374999893L232.3414368047538,391.36437499999903L232.6070693759785,390.0338020833322L232.87270194720318,388.9200520833321L233.1383345184279,390.37182291667096L233.4039670896527,389.0412499999988L233.66959966087737,390.81651041666566L233.93523223210204,389.11333333333215L234.20086480332674,387.91296874999864L234.46649737455147,389.0828125000048L234.73212994577622,388.5619791666654L234.9977625170009,387.59296874999865L235.2633950882256,387.3616145833319L235.52902765945026,389.7969270833322L235.794660230675,389.29963541667144L236.06029280189975,390.1204166666656L236.32592537312445,389.43536458333216L236.59155794434912,386.1917708333318L236.85719051557382,390.6592708333323L237.12282308679858,389.476927083338L237.38845565802333,390.0823437499989L237.65408822924798,388.9886458333321L237.9197208004727,388.1588541666654L238.18535337169735,389.37927083333216L238.45098594292213,387.9109375000054L238.71661851414686,388.60906249999874L238.98225108537156,389.90708333333225L239.2478836565962,387.3415624999986L239.51351622782087,387.91296874999864L239.7791487990457,388.2184375000052L240.0447813702704,390.28869791666557L240.31041394149509,388.7192187499988L240.57604651271976,388.94359374999874L240.84167908394443,390.3988541666656L241.1073116551692,390.1765104166711L241.37294422639394,390.12593749999894L241.63857679761864,386.74312499999854L241.90420936884334,389.74432291666557L242.169841940068,389.28161458333216L242.43547451129274,389.516458333338L242.7011070825175,389.0772916666655L242.9667396537422,387.874895833332L243.23237222496687,387.73567708333195L243.49800479619157,390.24161458333225L243.7636373674163,388.69770833333837L244.02926993864102,388.6160416666654L244.29490250986572,390.57963541666567L244.56053508109042,389.5365104166655L244.8261676523151,388.8369270833321L245.09180022353982,389.2019791666715L245.35743279476458,387.3706249999986L245.62306536598928,388.1027604166654L245.88869793721395,387.13578124999856L246.15433050843865,390.4930208333323L246.41996307966338,389.2019791666715L246.68559565088816,388.03213541666537L246.9512282221128,389.0863020833321L247.2168607933375,388.98515624999874L247.48249336456217,389.11885416666547L247.74812593578696,391.20161458333723L248.0137585070117,388.9470833333321L248.2793910782364,389.5510416666655L248.54502364946103,389.02119791666547L248.8106562206857,387.708645833332L249.0762887919105,390.9577604166707L249.34192136313524,388.7392708333321L249.6075539343599,389.9126041666656L249.87318650558458,390.1640104166656L250.13881907680928,389.43536458333216L250.40445164803404,390.245104166671L250.67008421925877,390.0573437499989L250.93571679048347,387.0035416666652L251.20134936170814,388.38119791666537L251.4669819329328,389.2455729166655L251.73261450415757,388.9706250000049L251.99824707538232,388.0792187499987L252.263879646607,389.34119791666546L252.52951221783167,390.1204166666656L252.7951447890564,387.8783854166653L253.06077736028112,390.0012500000044L253.32640993150588,386.71609374999855L253.59204250273052,388.9976562499988L253.85767507395525,388.60906249999874L254.12330764517992,387.4031770833319L254.38894021640465,386.97098958333913L254.6545727876294,388.38119791666537L254.92020535885413,389.29963541666547L255.18583793007878,388.6180729166654L255.45147050130348,388.55848958333206L255.7171030725282,388.5925000000051L255.982735643753,387.5188541666653L256.24836821497763,389.8094270833322L256.5140007862023,387.40114583333195L256.779633357427,388.6360937499988L257.04526592865176,387.15380208333903L257.3108984998765,387.5313541666653L257.5765310711012,390.37182291666556L257.8421636423259,386.43765624999855L258.10779621355056,389.37026041666553L258.37342878477534,388.76630208333836L258.63906135600007,389.18744791666546L258.90469392722474,387.8658854166653L259.17032649844947,385.4160416666651L259.43595906967414,388.26552083333206L259.70159164089876,388.7753124999988L259.96722421212354,387.7917708333388L260.2328567833483,387.762708333332L260.498489354573,387.07067708333193L260.76412192579767,389.2726041666655L261.02975449702234,388.0937499999987L261.29538706824707,386.63296875000594L261.56101963947185,387.56390624999864L261.8266522106965,387.0686458333319L262.0922847819212,389.6016145833322L262.35791735314587,388.68869791666543L262.6235499243706,390.0483333333378L262.8891824955954,387.78828124999865L263.15481506682005,388.65062499999874L263.4204476380447,385.4776562499984L263.68608020926945,387.833333333332L263.9517127804942,388.1443229166719L264.2173453517189,386.84630208333186L264.4829779229436,387.874895833332L264.7486104941683,388.9055208333321L265.014243065393,387.0901562499986L265.2798756366177,387.124739583339L265.5455082078425,387.9219791666654L265.81114077906716,388.4788541666654L266.07677335029183,385.88979166666513L266.3424059215165,386.7396354166652L266.6080384927413,387.5333854166722L266.873671063966,386.9945312499986L267.1393036351907,388.66515624999874L267.4049362064154,388.1027604166654L267.67056877764,388.0611979166654L267.9362013488648,387.7086458333388L268.20183392008954,386.63645833333186L268.46746649131427,387.91296874999864L268.73309906253894,387.764739583332L268.99873163376355,386.82624999999854L269.2643642049884,387.61098958333884L269.5299967762131,386.3815624999985L269.7956293474378,387.3034895833319L270.06126191866247,387.71765624999864L270.3268944898872,387.77374999999864L270.5925270611119,387.2944791666723L270.85815963233665,389.17145833333217L271.1237922035614,388.32510416666537L271.38942477478605,387.9219791666654L271.6550573460107,388.2474999999987L271.92068991723545,387.1482812500057L272.18632248846023,388.2184374999987L272.4519550596849,389.52749999999884L272.7175876309096,387.8658854166653L272.98322020213425,388.55848958333206L273.248852773359,386.576875000006L273.51448534458376,389.2635937499988L273.78011791580843,388.3035937499987L274.04575048703316,387.68161458333196L274.3113830582578,387.7557291666653L274.57701562948256,388.8494270833383L274.8426482007073,387.567395833332L275.108280771932,389.9181249999989L275.37391334315663,386.1176562499985L275.63954591438136,389.59609374999883L275.9051784856061,389.10984375000487L276.17081105683087,389.1389062499988L276.4364436280555,388.39572916666543L276.7020761992802,388.4588020833321L276.9677087705049,386.81171874999853L277.23334134172967,388.2870312500052L277.49897391295434,386.70156249999854L277.76460648417907,387.2404166666652L278.03023905540374,388.81890624999875L278.2958716266284,390.32473958333225L278.5615041978532,390.23812500000435L278.8271367690779,386.84078124999854L279.0927693403026,388.78984374999874L279.3584019115273,390.00473958333225L279.62403448275194,388.9415624999988L279.8896670539767,386.4577083333394L280.1552996252015,386.98203124999856L280.4209321964262,387.708645833332L280.6865647676508,388.55848958333206L280.9521973388755,388.48437499999875L281.2178299101003,387.61098958333884L281.48346248132503,388.6180729166654L281.74909505254976,387.3796354166653L282.0147276237744,389.1243749999988L282.2803601949991,389.5365104166655L282.54599276622383,388.8494270833383L282.8116253374486,387.45171874999863L283.07725790867323,389.30515624999884L283.34289047989796,388.31057291666536L283.60852305112263,388.41927083333206L283.87415562234736,389.8004166666712L284.13978819357214,388.4698437499987L284.4054207647968,387.63453124999864L284.6710533360215,389.15140624999884L284.9366859072462,389.7498437499989L285.2023184784709,388.7572916666717L285.46795104969567,387.833333333332L285.73358362092034,388.8314062499988L285.99921619214507,389.8474999999989L286.2648487633697,387.8243229166653L286.53048133459447,390.7153645833374L286.79611390581925,387.0395833333319L287.0617464770439,387.5874479166653L287.32737904826854,388.32510416666537L287.59301161949327,388.9976562499988L287.858644190718,388.84739583333834L288.1242767619428,388.4663541666654L288.3899093331674,388.3541666666654L288.6555419043921,389.16942708333215L288.9211744756168,389.52401041666553L289.1868070468416,388.7157291666717L289.4524396180663,388.4643229166654L289.718072189291,387.61999999999864L289.9837047605157,387.6851041666653L290.2493373317403,390.12593749999894L290.5149699029651,388.0937500000053L290.78060247418983,389.32666666666546L291.04623504541456,389.9867187499989L291.3118676166392,390.58515624999893L291.57750018786385,388.44281249999875L291.84313275908863,389.91260416667114L292.1087653303134,389.7643749999989L292.3743979015381,389.02119791666547L292.6400304727628,390.01927083333226L292.90566304398743,391.12401041666567L293.1712956152122,388.860468750005L293.43692818643694,389.7643749999989L293.7025607576617,387.889427083332L293.9681933288863,389.54203124999884L294.233825900111,391.84364583333246L294.4994584713357,388.28354166666537L294.7650910425604,390.0628645833378L295.03072361378514,388.057708333332L295.29635618500987,389.74432291666557L295.56198875623454,389.79343749999884L295.8276213274592,388.54395833333206L296.09325389868394,389.3702604166714L296.3588864699087,390.00473958333225L296.6245190411334,388.41723958333205L296.8901516123581,387.1282291666653L297.15578418358274,389.3757812499988L297.4214167548075,388.59307291667176L297.6870493260323,389.12786458333215L297.952681897257,390.08437499999894L298.2183144684816,390.4639583333323L298.4839470397063,389.5510416666655L298.74957961093105,387.89494791667204L299.01521218215584,388.7011979166654L299.28084475338045,390.0753645833322L299.5464773246052,390.0102604166656L299.81210989582985,389.1839583333321L300.07774246705463,388.8244270833383L300.3433750382794,390.37182291666556L300.60900760950403,389.5891145833322L300.87464018072876,389.7082812499989L301.14027275195343,390.4258854166656L301.40590532317816,389.59812500000464L301.6715378944029,389.6376562499988L301.93717046562756,388.3396354166654L302.20280303685223,389.35223958333216L302.4684356080769,388.34312499999874L302.7340681793017,388.97963541667156L302.9997007505265,387.515364583332L303.26533332175114,388.8784895833321L303.5309658929758,387.8278124999987L303.7965984642005,387.613020833332L304.06223103542527,389.7823958333379L304.32786360664994,389.54203124999884L304.5934961778747,388.19692708333207L304.8591287490994,389.47343749999885L305.12476132032407,389.5094791666655L305.3903938915488,388.54947916667174L305.6560264627735,390.2055729166656L305.9216590339982,390.88161458333235L306.1872916052229,389.40281249999884L306.4529241764476,389.1389062499988L306.7185567476723,390.31223958333766L306.9841893188971,389.1624479166654L307.2498218901218,389.2310416666655L307.51545446134645,390.3953645833323L307.7810870325712,390.697343749999L308.0467196037959,389.17494791667144L308.31235217502064,389.7698958333322L308.57798474624536,388.26552083333206L308.84361731747,388.66166666666544L309.10924988869465,390.724374999999L309.3748824599195,389.68677083333796L309.6405150311442,390.711874999999L309.9061476023689,389.6071354166655L310.17178017359356,388.7157291666654L310.43741274481823,391.29578124999904L310.703045316043,390.4189062500043L310.9686778872677,388.5890104166654L311.2343104584924,391.37890624999903L311.4999430297171,390.16052083333227L311.76557560094176,390.641249999999L312.03120817216654,390.0518229166711L312.29684074339133,389.7553645833322L312.56247331461594,390.26515624999894L312.82810588584067,389.20749999999884L313.09373845706534,390.19656249999895L313.35937102829007,389.0052083333382L313.6250035995148,389.8945833333322L313.89063617073947,389.4118229166655L314.15626874196414,389.8530208333322L314.4219013131889,390.9397395833323L314.6875338844136,391.27223958333724L314.9531664556384,389.7608854166656L315.21879902686305,387.92052083333203L315.4844315980877,391.017343749999L315.7500641693124,390.37182291666556L316.0156967405372,389.4443750000047L316.28132931176197,390.50755208333226L316.54696188298664,389.03776041666544L316.8125944542113,389.68124999999884L317.078227025436,391.16005208333235L317.3438595966607,391.54515625000374L317.60949216788543,391.48760416666573L317.8751247391101,390.46046874999894L318.14075731033483,389.1389062499988L318.4063898815595,390.7569270833323L318.67202245278423,389.88557291667115L318.9376550240091,390.40437499999894L319.2032875952337,389.9922395833322L319.4689201664584,390.28869791666557L319.7345527376831,389.0883333333322L320.0001853089078,390.90718750000406L320.26581788013254,392.24880208333246L320.5314504513573,391.2722395833324L320.7970830225819,388.23848958333207L321.06271559380656,389.8204687499989L321.3283481650314,391.51812500000375L321.5939807362561,391.8817187499991L321.8596133074808,390.37385416666564L322.12524587870547,388.8549479166654L322.39087844993014,391.017343749999L322.6565110211549,388.1698958333386L322.9221435923796,391.84713541666576L323.1877761636043,392.0008854166658L323.453408734829,389.57458333333216L323.71904130605367,390.24161458333225L323.98467387727845,388.2129166666719L324.25030644850324,389.61265624999885L324.51593901972785,389.36473958333215L324.7815715909526,389.8530208333322L325.04720416217725,391.22166666666567L325.312836733402,389.5510416666713L325.5784693046268,391.62682291666573L325.8441018758514,391.0969791666657L326.10973444707605,389.0973437499988L326.37536701830084,389.5891145833322L326.64099958952556,391.4675520833371L326.9066321607503,390.27416666666556L327.172264731975,391.09145833333235L327.43789730319963,389.44640624999886L327.7035298744243,389.9777083333322L327.9691624456491,390.7479166666708L328.2347950168739,390.0483333333322L328.50042758809855,389.8890624999989L328.7660601593233,389.7643749999989L329.0316927305479,391.6683854166657L329.29732530177256,391.17109374999905L329.56295787299734,391.1981250000039L329.8285904442221,392.6138541666659L330.09422301544674,391.019374999999L330.3598555866714,391.11499999999904L330.6254881578961,392.40953124999913L330.8911207291209,389.56208333333797L331.1567533003456,392.3243749999992L331.4223858715703,391.10598958333236L331.688018442795,390.56364583333226L331.95365101401967,389.9596874999989L332.2192835852444,390.44796875000424L332.4849161564692,390.5671354166656L332.7505487276938,390.780468749999L333.0161812989185,390.51307291666564L333.2818138701432,391.06442708333236L333.547446441368,390.62322916667085L333.81307901259277,392.3083854166658L334.0787115838174,391.4585416666657L334.34434415504205,390.11692708333226L334.6099767262668,390.42442708333226L334.87560929749145,390.6938541666708L335.14124186871624,392.21072916666577L335.4068744399409,391.31031249999904L335.6725070111656,389.2781249999988L335.93813958239025,391.30130208333236L336.2037721536151,391.23619791667056L336.4694047248398,390.655781249999L336.7350372960645,392.10755208333245L337.0006698672892,390.641249999999L337.26630243851383,392.05697916666577L337.5319350097386,389.9832291666711L337.7975675809633,390.5906770833323L338.0632001521881,390.0067708333322L338.32883272341275,391.0554166666657L338.5944652946373,392.85973958333255L338.86009786586214,391.3934375000038L339.12573043708693,391.18010416666567L339.39136300831154,391.14755208333236L339.6569955795363,390.5401041666656L339.92262815076094,391.6067708333324L340.18826072198567,391.6538541666704L340.45389329321046,391.6829166666658L340.7195258644351,391.12953124999905L340.9851584356598,391.03187499999905L341.2507910068845,391.2361979166657L341.5164235781092,390.84208333333737L341.782056149334,392.4005208333325L342.04768872055865,389.65770833333215L342.3133212917833,392.4891666666658L342.578953863008,391.6954166666657L342.84458643423284,391.691927083337L343.1102190054575,391.6864062499991L343.37585157668224,392.84723958333257L343.6414841479069,391.6718749999991L343.9071167191316,390.62874999999894L344.17274929035636,390.73890625000416L344.43838186158104,393.03499999999923L344.70401443280576,391.02083333333235L344.96964700403043,391.4530208333324L345.2352795752551,392.97192708333256L345.5009121464799,391.4169791666705L345.7665447177047,391.8727083333324L346.0321772889293,392.00989583333245L346.29780986015396,390.97026041666567L346.5634424313787,392.14911458333245L346.82907500260336,391.11703125000395L347.09470757382815,391.5091145833324L347.3603401450528,392.5036979166658L347.6259727162775,392.94489583333257L347.8916052875023,393.51776041666596L348.157237858727,391.9648437500036L348.42287042995173,392.1781770833325L348.6885030011764,390.6377604166656L348.95413557240107,391.8872395833324L349.21976814362574,391.38994791666573L349.4854007148505,391.17109375000393L349.7510332860752,392.55979166666583L350.0166658573,391.4820833333324L350.28229842852465,392.7530729166659L350.5479309997492,390.8330729166657L350.81356357097405,391.3428645833372L351.07919614219884,392.1781770833325L351.34482871342345,393.1942708333326L351.6104612846482,391.5056249999991L351.87609385587285,392.1691666666658L352.1417264270976,392.8417187500032L352.4073589983224,392.87427083333256L352.67299156954704,391.24317708333234L352.9386241407717,390.37937499999896L353.20425671199644,391.39895833333236L353.4698892832211,394.07666666666927L353.7355218544459,392.2342708333325L354.00115442567056,394.16531249999935L354.26678699689523,394.70765624999945L354.5324195681199,391.85817708333246L354.79805213934475,392.5362500000033L355.0636847105695,391.95583333333246L355.32931728179415,391.30130208333236L355.5949498530189,392.4420833333325L355.8605824242435,392.4005208333325L356.1262149954683,391.51114583333714L356.39184756669295,393.2503645833326L356.6574801379177,392.8236979166659L356.92311270914234,393.4962499999993L357.188745280367,393.0044791666659L357.4543778515918,393.85781250000275L357.7200104228166,392.38802083333246L357.9856429940412,392.7731249999992L358.2512755652659,393.13468749999925L358.5169081364906,391.52916666666573L358.7825407077153,391.35390625000383L359.04817327894006,391.06442708333236L359.31380585016484,392.07499999999914L359.5794384213894,393.74562499999934L359.8450709926142,393.2648958333326L360.1107035638389,393.71859375000275L360.37633613506364,393.644479166666L360.6419687062883,392.91583333333256L360.907601277513,392.93036458333256L361.17323384873765,392.8832812499992L361.43886641996244,393.7511458333361L361.7044989911871,393.2919270833326L361.9701315624119,392.13109374999914L362.23576413363656,392.69697916666587L362.50139670486124,393.89036458333266L362.767029276086,392.8562500000032L363.03266184731075,392.3499479166658L363.2982944185354,392.3589583333325L363.5639269897601,392.04796874999914L363.82955956098476,391.9703645833324L364.09519213220943,394.3315624999994L364.36082470343416,393.8668229166694L364.62645727465895,393.2683854166659L364.8920898458836,394.01505208333265L365.15772241710835,392.6754687499992L365.423354988333,392.7440624999992L365.68898755955775,393.16723958333637L365.95462013078253,393.6915624999993L366.22025270200714,392.91234374999925L366.4858852732319,392.6609374999992L366.75151784445654,394.091197916666L367.01715041568133,394.3135416666692L367.28278298690606,392.7315624999992L367.5484155581308,394.27197916666603L367.8140481293554,393.35703124999924L368.07968070058007,393.2829166666659L368.34531327180486,393.74765625000276L368.6109458430296,394.60999999999945L368.87657841425425,393.7185937499993L369.1422109854789,393.3750520833326L369.4078435567036,393.14921874999925L369.67347612792844,394.1182291666693L369.9391086991531,392.23979166666584L370.20474127037784,393.94645833333266L370.4703738416025,393.96999999999935L370.7360064128272,392.5161979166659L371.0016389840519,392.75859375000323L371.26727155527675,391.9613541666658L371.5329041265013,393.6790624999993L371.7985366977261,392.87427083333256L372.06416926895076,393.700572916666L372.3298018401755,394.2283854166692L372.5954344114002,393.96098958333266L372.8610669826249,393.7331249999993L373.12669955384956,392.7460937499992L373.3923321250743,392.8853124999992L373.657964696299,394.3585937500025L373.9235972675238,394.04062499999935L374.18922983874853,394.06765624999935L374.45486240997315,394.3786458333327L374.7204949811978,394.68411458333276L374.9861275524226,394.34958333333583L375.25176012364733,393.96999999999935L375.517392694872,394.147291666666L375.7830252660967,394.008072916666L376.04865783732134,393.98453124999935L376.31429040854607,394.044114583336L376.57992297977086,393.6374999999993L376.8455555509956,392.7856249999992L377.11118812222026,394.95906249999945L377.3768206934449,392.24531249999916L377.64245326466965,392.1746875000035L377.90808583589444,393.17276041666594L378.17371840711905,392.3970312499992L378.4393509783438,393.53432291666593L378.70498354956845,393.1782812499992L378.97061612079324,393.7060937500028L379.23624869201797,393.90140624999935L379.5018812632427,394.32807291666603L379.7675138344673,393.812760416666L380.03314640569204,392.8763020833325L380.29877897691676,395.45083333333537L380.5644115481415,393.0190104166659L380.8300441193663,394.1833333333327L381.09567669059084,393.89239583333267L381.3613092618155,394.06765624999935L381.62694183304035,393.76218750000277L381.8925744042651,394.24843749999934L382.15820697548975,394.4853124999994L382.4238395467144,394.01359374999936L382.6894721179391,394.10921874999934L382.9551046891638,394.5954687500024L383.22073726038866,393.3625520833326L383.4863698316132,394.66958333333275L383.752002402838,394.69864583333276L384.01763497406273,394.6390624999994L384.2832675452874,394.5469270833358L384.5489001165122,392.87078124999925L384.8145326877368,393.1582291666659L385.08016525896153,394.3100520833327L385.3457978301862,394.3100520833327L385.6114304014109,394.14177083333595L385.8770629726357,393.45119791666593L386.14269554386044,393.854322916666L386.40832811508506,394.13828124999935L386.6739606863097,394.6951562499994L386.9395932575345,393.8272916666694L387.20522582875924,394.87942708333276L387.4708583999839,395.00062499999945L387.73649097120864,394.3080208333327L388.00212354243325,394.80531249999945L388.2677561136581,394.5975000000024L388.5333886848828,395.69119791666617L388.7990212561075,393.13119791666594L389.06465382733217,394.5704687499994L389.33028639855684,393.7476562499993L389.59591896978156,394.35510416666915L389.86155154100635,394.6751041666661L390.12718411223096,393.98453124999935L390.3928166834557,394.05515624999936L390.65844925468036,393.53635416666594L390.92408182590515,395.1433333333355L391.1897143971299,394.12374999999935L391.4553469683546,394.07317708333267L391.7209795395793,394.147291666666L391.98661211080395,393.26140624999925L392.2522446820287,395.55750000000194L392.5178772532534,395.10932291666614L392.7835098244782,395.5449999999995L393.04914239570275,395.5720312499995L393.3147749669274,394.95005208333276L393.58040753815226,394.41671875000253L393.846040109377,393.88687499999935L394.11167268060166,395.15437499999945L394.37730525182633,395.1869270833328L394.642937823051,395.12182291666613L394.9085703942758,395.2430208333355L395.17420296550057,394.2394270833327L395.43983553672524,394.4582812499994L395.7054681079499,394.8018229166661L395.97110067917464,394.52338541666603L396.2367332503993,395.1218229166688L396.5023658216241,395.4002604166662L396.7679983928487,393.7206249999993L397.03363096407344,394.8398958333327L397.2992635352981,394.3100520833327L397.56489610652284,394.5414062500024L397.8305286777476,394.23593749999935L398.09616124897235,395.4238020833328L398.36179382019697,394.81083333333277L398.6274263914217,394.20338541666604L398.8930589626464,393.8508333333361L399.15869153387115,394.85239583333276L399.4243241050959,393.7206249999993L399.68995667632055,394.8544270833328L399.95558924754516,395.3711979166662L400.2212218187699,395.54848958333287L400.4868543899947,396.07281250000176L400.7524869612194,394.72770833333277L401.0181195324441,395.12182291666613L401.28375210366875,394.4077083333327L401.5493846748934,394.92651041666613L401.8150172461182,395.93010416666846L402.0806498173429,394.0170833333327L402.3462823885676,396.1469270833329L402.6119149597924,395.5810416666662L402.87754753101694,395.4328124999995L403.1431801022418,395.461875000002L403.4088126734665,395.9606249999996L403.6744452446912,395.0622395833328L403.94007781591586,395.84494791666623L404.2057103871405,397.02932291666633L404.47134295836526,394.9971354166689L404.7369755295901,395.77635416666624L405.00260810081465,395.37322916666614L405.2682406720393,394.84890624999946L405.5338732432641,395.0622395833328L405.79950581448884,395.3677083333354L406.06513838571357,395.6191145833329L406.3307709569383,396.14343749999955L406.5964035281629,396.2030208333329L406.86203609938764,395.4473437499995L407.12766867061237,395.0296875000022L407.39330124183715,395.21947916666613L407.6589338130618,395.9841666666662L407.92456638428655,394.7602604166661L408.19019895551116,394.49635416666604L408.45583152673595,395.7257812500019L408.7214640979606,394.93552083333276L408.98709666918535,394.72770833333277L409.2527292404101,396.4489062499996L409.5183618116347,395.8324479166662L409.78399438285953,395.33166666666875L410.04962695408426,396.2591145833329L410.31525952530893,395.2430208333328L410.5808920965336,396.58812499999965L410.8465246677583,394.80734374999946L411.112157238983,395.0116666666689L411.3777898102078,396.371302083333L411.64342238143246,394.5559374999994L411.9090549526571,394.92302083333277L412.1746875238818,395.4383333333328L412.4403200951066,395.503437500002L412.7059526663313,394.6681249999994L412.971585237556,395.5034374999995L413.23721780878066,395.4473437499995L413.5028503800054,396.71833333333296L413.7684829512301,395.66067708333526L414.0341155224548,396.2826562499996L414.2997480936795,395.7728645833329L414.5653806649043,396.4579166666663L414.83101323612885,396.04578124999955L415.0966458073537,396.0367708333351L415.36227837857837,396.06932291666624L415.6279109498031,397.1685416666664L415.89354352102777,396.3657812499996L416.15917609225244,395.91557291666624L416.42480866347717,395.61010416666863L416.690441234702,396.5465624999996L416.9560738059267,396.3948437499996L417.22170637715124,396.10187499999955L417.487338948376,396.5610937499996L417.75297151960075,395.5359895833353L418.01860409082553,395.5449999999995L418.2842366620502,395.7257812499995L418.5498692332748,397.025833333333L418.81550180449955,397.0618749999997L419.0811343757243,395.35520833333544L419.34676694694906,395.90656249999955L419.61239951817373,395.19593749999945L419.8780320893984,396.5701041666663L420.14366466062313,396.09635416666623L420.40929723184786,395.92458333333514L420.67492980307253,396.3803124999996L420.94056237429726,396.67677083333297L421.206194945522,396.3983333333329L421.4718275167466,395.8324479166662L421.73746008797144,396.97322916666803L422.00309265919617,396.01874999999956L422.26872523042084,396.74536458333296L422.5343578016455,396.7238541666663L422.7999903728702,396.88109374999965L423.0656229440949,395.91557291666845L423.3312555153197,396.5285416666663L423.5968880865443,396.5701041666663L423.862520657769,397.00229166666634L424.1281532289937,396.40385416666624L424.3937858002184,396.1379166666684L424.6594183714433,396.95520833333296L424.92505094266795,396.412864583333L425.19068351389257,396.30619791666624L425.4563160851173,396.76541666666634L425.721948656342,396.0457812500017L425.98758122756675,397.150520833333L426.2532137987914,396.6261979166663L426.5188463700162,396.49598958333297L426.78447894124076,397.192083333333L427.0501115124656,396.9281770833347L427.3157440836903,397.04385416666634L427.581376654915,395.9446354166662L427.84700922613973,395.90656249999955L428.11264179736435,397.09994791666634L428.37827436858913,396.4544270833349L428.6439069398139,395.6516666666662L428.9095395110386,396.85406249999966L429.17517208226326,397.11796874999965L429.44080465348793,396.0367708333329L429.70643722471266,396.4689583333349L429.97206979593744,395.65718749999957L430.2377023671621,396.80697916666634L430.50333493838673,397.358333333333L430.76896750961146,396.84854166666634L431.0346000808362,397.25718750000124L431.30023265206097,397.71640624999975L431.56586522328564,397.74343749999974L431.8314977945103,396.454427083333L432.09713036573504,398.0364062499998L432.36276293695977,397.1179687500013L432.6283955081845,397.90619791666643L432.89402807940917,396.1759895833329L433.1596606506339,396.5991666666663L433.4252932218585,396.6587499999996L433.69092579308335,396.91916666666805L433.9565583643081,397.192083333333L434.22219093553275,397.2426562499997L434.4878235067574,397.1685416666664L434.7534560779821,397.57718749999975L435.01908864920676,397.09093749999965L435.2847212204315,397.7905208333343L435.5503537916563,397.68385416666644L435.81598636288095,396.93718749999965L436.0816189341056,398.0689583333331L436.3472515053303,397.03484374999965L436.6128840765551,396.88661458333473L436.87851664777986,397.17406249999965L437.1441492190045,397.78151041666644L437.4097817902292,397.55916666666644L437.6754143614539,397.331302083333L437.9410469326786,396.77442708333473L438.20667950390333,397.70739583333307L438.4723120751281,396.93718749999965L438.7379446463528,397.65682291666644L439.00357721757746,396.98776041666633L439.2692097888022,397.6658333333344L439.5348423600269,397.73442708333306L439.80047493125164,398.3654166666665L440.06610750247626,397.96229166666643L440.3317400737009,397.29526041666634L440.5973726449257,397.8646354166676L440.8630052161505,397.68385416666644L441.12863778737517,398.1576041666665L441.39427035859984,397.63328124999975L441.6599029298245,397.57718749999975L441.92553550104924,397.1415104166679L442.191168072274,397.56817708333307L442.45680064349864,397.4469791666664L442.72243321472337,398.0689583333331L442.9880657859481,397.63328124999975L443.25369835717277,397.674843750001L443.5193309283976,398.0924999999998L443.7849634996222,397.5030729166664L444.05059607084695,397.66583333333307L444.3162286420716,398.1250520833331L444.58186121329635,397.92072916666757L444.8474937845211,398.55171874999985L445.1131263557458,398.10703124999975L445.3787589269704,398.2407291666665L445.6443914981951,398.61682291666654L445.91002406942,398.4270312500007L446.17565664064466,397.73994791666644L446.4412892118694,398.5191666666665L446.70692178309406,398.3619270833331L446.9725543543187,397.3783854166664L447.23818692554346,397.7073958333344L447.5038194967682,398.2732812499998L447.76945206799286,397.93526041666644L448.03508463921753,398.79760416666653L448.3007172104422,397.9948437499998L448.566349781667,398.6583854166673L448.83198235289177,398.3619270833331L449.0976149241164,397.87015624999975L449.3632474953411,398.52468749999986L449.62888006656584,398.58427083333316L449.8945126377905,398.51916666666733L450.16014520901524,397.97682291666644L450.42577778024,398.0509374999998L450.6914103514647,398.6673958333332L450.95704292268937,397.87015624999975L451.2226754939141,398.3619270833341L451.4883080651388,398.69093749999985L451.75394063636355,398.56624999999985L452.01957320758817,397.65682291666644L452.28520577881284,398.5156770833332L452.5508383500376,398.0003645833342L452.8164709212624,398.3529166666665L453.0821034924871,399.1176041666665L453.34773606371175,397.5501562499997L453.6133686349364,397.80505208333307L453.87900120616115,398.26427083333414L454.14463377738593,398.64036458333317L454.4102663486106,398.0509374999998L454.6758989198353,397.88817708333306L454.94153149106,398.3203645833331L455.2071640622847,398.1576041666675L455.4727966335095,398.77057291666654L455.73842920473413,398.4360416666665L456.00406177595886,399.0490104166666L456.26969434718353,398.8301562499999L456.53532691840826,398.25526041666745L456.800959489633,398.82114583333316L457.0665920608577,398.8862499999999L457.3322246320824,399.2062499999999L457.59785720330706,399.0995833333332L457.8634897745319,399.4195833333336L458.12912234575657,398.54270833333317L458.3947549169813,398.8301562499999L458.66038748820597,398.93682291666653L458.9260200594306,398.89526041666653L459.19165263065537,399.11760416666704L459.4572852018801,398.5336979166665L459.72291777310477,398.77958333333316L459.98855034432944,398.64036458333317L460.2541829155541,398.37093749999985L460.5198154867789,398.7650520833339L460.78544805800374,398.9603645833332L461.0510806292283,398.48661458333316L461.316713200453,398.7885937499999L461.58234577167775,399.4936979166666L461.8479783429024,398.8301562500005L462.11361091412726,398.63135416666654L462.37924348535194,398.1485937499998L462.6448760565766,398.64036458333317L462.9105086278013,399.1736979166666L463.176141199026,398.6168229166673L463.44177377025073,399.28036458333327L463.70740634147546,399.1176041666665L463.97303891270013,398.41249999999985L464.23867148392475,399.04348958333327L464.50430405514965,398.96036458333384L464.7699366263743,399.3129166666666L465.03556919759905,399.0995833333332L465.3012017688237,399.6980208333333L465.56683434004833,399.3544791666666L465.8324669112731,398.96937500000047L466.09809948249784,398.83916666666653L466.3637320537225,399.41958333333326L466.6293646249472,399.5588020833333L466.8949971961719,398.60781249999985L467.1606297673966,399.11760416666704L467.4262623386214,399.0670312499999L467.69189490984604,399.0995833333332L467.95752748107077,398.8862499999999L468.2231600522955,399.36348958333326L468.48879262352017,399.13213541666704L468.7544251947449,399.14114583333327L469.0200577659696,398.79760416666653L469.2856903371943,399.0995833333332L469.55132290841897,398.72348958333316L469.81695547964364,399.33645833333327L470.0825880508684,398.90979166666716L470.3482206220932,399.5913541666666L470.6138531933179,399.33645833333327L470.8794857645425,399.62390624999995L471.1451183357672,399.1321354166666L471.41075090699195,399.3039062500003L471.6763834782168,399.1646874999999L471.94201604944135,399.2478124999999L472.207648620666,398.9603645833332L472.4732811918908,399.26234374999996L472.73891376311553,399.0995833333337L473.00454633434026,399.48468749999995L473.27017890556493,399.2478124999999L473.53581147678966,399.42859374999995L473.8014440480143,399.5913541666666L474.06707661923906,399.20625000000035L474.33270919046385,399.38703124999995L474.5983417616885,399.62390624999995L474.86397433291324,399.41958333333326L475.12960690413786,398.7470312499999L475.39523947536264,399.3780208333336L475.6608720465874,398.9278124999999L475.92650461781204,399.47567708333327L476.1921371890367,399.30390624999995L476.4577697602614,398.93682291666653L476.7234023314861,399.6329166666668L476.98903490271096,399.6980208333333L477.2546674739356,399.5497916666666L477.52030004516024,399.4521354166666L477.78593261638497,399.5913541666666L478.0515651876097,399.3690104166669L478.3171977588344,399.23880208333327L478.5828303300591,398.9839062499999L478.8484629012838,399.66546874999995L479.1140954725085,399.1321354166666L479.3797280437333,399.5823437500002L479.64536061495795,399.62390624999995L479.9109931861827,399.63291666666663L480.1766257574074,399.30390624999995L480.442258328632,399.1085937499999L480.7078908998568,399.6564583333335L480.97352347108153,399.3129166666666L481.2391560423062,399.48468749999995L481.5047886135309,399.73057291666663L481.77042118475555,399.4521354166666L482.03605375598033,399.3690104166669L482.3016863272051,399.58234374999995L482.5673188984298,399.1972395833332L482.8329514696544,399.68901041666663L483.09858404087913,399.37802083333327L483.36421661210386,399.6239062500002L483.6298491833287,399.1972395833332L483.8954817545534,399.48468749999995L484.16111432577793,399.5588020833333L484.4267468970027,399.3129166666666L484.69237946822744,399.6654687500001L484.95801203945217,399.6564583333333L485.22364461067684,399.54078124999995L485.48927718190157,399.41406249999994L485.75490975312624,399.62390624999995L486.02054232435097,399.79567708333343L486.28617489557575,399.7541145833333L486.5518074668004,399.58234374999995L486.81744003802515,399.52L487.0830726092498,399.3690104166666L487.34870518047455,399.47567708333355L487.6143377516993,399.2062499999999L487.87997032292395,399.7541145833333L488.1456028941486,399.7956770833333L488.4112354653733,399.58234374999995L488.676868036598,399.33645833333367L488.94250060782286,399.44312499999995L489.20813317904754,399.47567708333327L489.47376575027215,399.6564583333333L489.7393983214969,399.30390624999995L490.0050308927216,399.7305729166668L490.2706634639464,399.47567708333327L490.536296035171,399.52624999999995L490.8019286063957,399.3544791666666L491.0675611776204,399.7956770833333L491.3331937488452,399.7215625000001L491.5988263200699,399.7541145833333L491.8644588912946,399.54078124999995L492.1300914625193,399.41406249999994L492.39572403374393,399.44312499999995L492.6613566049687,399.54979166666686L492.92698917619344,399.86078125L493.1926217474181,399.68901041666663L493.4582543186429,399.4105729166666L493.72388688986746,399.76312499999995L493.9895194610923,399.410572916667L494.255152032317,399.5172395833333L494.5207846035417,399.68901041666663L494.78641717476637,399.60937499999994L495.05204974599104,399.5497916666666L495.31768231721577,399.47567708333355L495.5833148884406,399.60937499999994L496.11458003088984,399.72156249999995L496.3802126021146,399.51171874999994L496.64584517333935,399.75411458333343L496.9114777445641,399.68901041666663L497.17711031578875,399.82822916666663L497.4427428870135,399.72156249999995L497.70837545823815,399.4521354166666L497.9740080294629,399.6474479166668L498.23964060068766,399.72156249999995L498.50527317191234,399.90234375L498.77090574313706,399.86078125L499.0365383143617,399.58234374999995L499.30217088558646,399.7215625000001L499.5678034568112,399.7541145833333L499.83343602803586,399.84L500.09906859926053,399.64744791666664L500.3647011704852,399.5172395833333L500.63033374171005,399.44312500000024L500.8959663129348,399.72156249999995L501.16159888415945,399.72156249999995L501.4272314553841,399.76312499999995L501.6928640266088,399.58234374999995L501.9584965978335,399.82822916666674L502.2241291690583,399.72156249999995L502.489761740283,399.5082291666666L502.7553943115076,399.62390624999995L503.0210268827323,399.8046875L503.2866594539571,399.6474479166668L503.5522920251818,399.7956770833333L503.8179245964065,399.73057291666663L504.0835571676312,399.52L504.3491897388559,399.52L504.61482231008057,399.70703124999994L504.88045488130535,399.76312500000006L505.14608745253,399.86078125L505.4117200237548,399.67999999999995L505.6773525949795,399.72156249999995L505.94298516620404,399.90234375L506.2086177374289,399.82822916666674L506.4742503086536,399.6148958333333L506.7398828798783,399.58234374999995L507.00551545110295,399.82822916666663L507.2711480223276,399.76312499999995L507.53678059355235,399.90234375000006L507.8024131647772,399.64744791666664L508.06804573600175,399.6148958333333L508.33367830722653,399.90234375L508.59931087845126,399.67999999999995L508.86494344967593,399.6890104166668L509.1305760209007,399.7541145833333L509.3962085921254,399.72156249999995L509.66184116335006,399.7956770833333L509.92747373457473,399.7541145833333L510.19310630579946,399.82822916666674L510.724371448249,399.64744791666664L510.9900040194736,399.58234374999995L511.25563659069826,399.7956770833333L511.5212691619231,399.8400000000001L511.7869017331478,399.82822916666663L512.0525343043726,399.82822916666663L512.3181668755972,399.64744791666664L512.8494320180466,399.86078125000006L513.1150645892714,399.86078125L513.380697160496,399.70703124999994L513.6463297317207,399.86078125L513.9119623029454,399.7956770833333L514.17759487417,399.8046875000001L514.4432274453949,399.67999999999995L514.7088600166195,399.60937499999994L514.9744925878442,399.86078125L515.240125159069,399.35999999999996L515.5057577302937,399.86078125000006L515.7713903015184,399.52L516.0370228727431,399.68901041666663L516.3026554439678,399.84L516.5682880151925,399.84L517.3651857288667,399.72156249999995L517.6308183000914,399.86078125L517.896450871316,399.72156249999995L518.1620834425407,399.8046875000001L518.4277160137655,399.54078124999995L518.9589811562148,399.51171874999994L519.2246137274395,399.72156249999995L519.4902462986643,399.90234375000006L519.7558788698891,399.90234375L520.0215114411137,399.90234375L520.2871440123384,399.86078125L520.5527765835632,399.86078125L521.0840417260126,399.82822916666663L521.3496742972374,399.82822916666663L521.615306868462,399.82822916666663L521.8809394396867,399.8046875L522.4122045821362,399.86078125L522.6778371533609,399.84L522.9434697245855,399.70703124999994L523.2091022958102,399.84L523.4747348670351,399.6800000000001L523.7403674382597,399.86078125L524.0060000094844,399.67999999999995L524.2716325807091,399.90234375L524.5372651519338,399.86078125L524.8028977231585,399.90234375000006L525.0685302943832,399.7956770833333L525.5997954368326,399.67999999999995L525.8654280080573,399.82822916666663L526.131060579282,399.90234375000006L526.3966931505068,399.84L526.6623257217315,399.86078125L527.4592234354055,399.8400000000001L527.7248560066304,399.90234375L527.990488577855,399.8046875L528.2561211490797,399.52L528.5217537203043,399.82822916666663L528.7873862915292,399.8400000000001L529.0530188627539,399.90234375L529.5842840052032,399.67999999999995L529.8499165764279,399.90234375L530.1155491476527,399.90234375000006L530.3811817188774,399.84L530.6468142901022,399.84L530.9124468613269,399.8046875L531.1780794325514,399.64744791666664L531.4437120037762,399.86078125000006L532.2406097174503,399.86078125L532.506242288675,399.82822916666663L532.7718748598998,399.6800000000001L533.0375074311246,399.84L533.3031400023492,399.90234375L534.1000377160233,399.6800000000001L534.365670287248,399.86078125L534.6313028584727,399.84L535.1625680009221,399.90234375L535.4282005721469,399.8400000000001L535.6938331433716,399.84L536.4907308570456,399.64744791666664L536.7563634282704,399.8046875000001L537.0219959994952,399.84L537.2876285707199,399.64744791666664L537.5532611419445,399.52L538.084526284394,399.8046875000001L538.3501588556188,399.7541145833333L538.881423998068,399.84L539.1470565692928,399.84L539.4126891405174,399.84L539.6783217117422,399.75411458333343L540.7408519966409,399.90234375L541.0064845678658,399.6800000000001L541.5377497103152,399.84L541.8033822815398,399.52L542.0690148527646,399.84L542.6002799952141,399.84L543.1315451376634,399.84L543.3971777088881,399.90234375L543.6628102801128,399.90234375000006L544.1940754225623,399.84L545.2566057074612,399.67999999999995L545.5222382786858,399.84L545.7878708499105,399.84L546.0535034211351,399.86078125L546.31913599236,399.6800000000001L546.5847685635847,399.52L546.8504011348093,399.84L547.6472988484834,399.86078125000006L549.2410942758316,399.84" style="fill: none; stroke: #4c78a8; stroke-width: 2;"></path></g></g><path class="foreground" d="" style="display: none; fill: none;"></path></g></g><g class="mark-group role-legend"><g transform="translate(618,0)"><path class="background" d="M0,0h64v59h-64Z" style="pointer-events: none; fill: none;"></path><g><g class="mark-group role-legend-entry"><g transform="translate(0,25)"><path class="background" d="M0,0h0v0h0Z" style="pointer-events: none; fill: none;"></path><g><g class="mark-group role-scope"><g transform="translate(0,0)"><path class="background" d="M0,0h58.609375v16h-58.609375Z" style="pointer-events: none; fill: none; opacity: 1;"></path><g><g class="mark-symbol role-legend-symbol" style="pointer-events: none;"><path transform="translate(8,8)" d="M-5,0L5,0" style="fill: none; stroke: #4c78a8; stroke-width: 1.5; opacity: 1;"></path></g><g class="mark-text role-legend-label" style="pointer-events: none;"><text text-anchor="start" transform="translate(20,13)" style="font-family: Roboto; font-size: 16px; fill: #000; opacity: 1;">liquid</text></g></g><path class="foreground" d="" style="pointer-events: none; display: none; fill: none;"></path></g><g transform="translate(0,18)"><path class="background" d="M0,0h58.609375v16h-58.609375Z" style="pointer-events: none; fill: none; opacity: 1;"></path><g><g class="mark-symbol role-legend-symbol" style="pointer-events: none;"><path transform="translate(8,8)" d="M-5,0L5,0" style="fill: none; stroke: #f58518; stroke-width: 1.5; opacity: 1;"></path></g><g class="mark-text role-legend-label" style="pointer-events: none;"><text text-anchor="start" transform="translate(20,13)" style="font-family: Roboto; font-size: 16px; fill: #000; opacity: 1;">p2</text></g></g><path class="foreground" d="" style="pointer-events: none; display: none; fill: none;"></path></g></g></g><path class="foreground" d="" style="pointer-events: none; display: none; fill: none;"></path></g></g><g class="mark-text role-legend-title" style="pointer-events: none;"><text text-anchor="start" transform="translate(0,16)" style="font-family: Roboto; font-size: 20px; font-weight: bold; fill: #000; opacity: 1;">Crystal</text></g></g><path class="foreground" d="" style="pointer-events: none; display: none; fill: none;"></path></g></g></g><path class="foreground" d="" style="display: none; fill: none;"></path></g></g></g></svg>