<svg class="marks" width="730" height="465" viewBox="0 0 730 465" version="1.1" xmlns="http://www.w3.org/2000/svg" xmlns:xlink="http://www.w3.org/1999/xlink"><rect width="730" height="465" style="fill: white;"></rect><g transform="translate(35,13)"><g class="mark-group role-frame root"><g transform="translate(0,0)"><path class="background" d="M0.5,0.5h600v400h-600Z" style="fill: none; stroke: #ddd;"></path><g><g class="mark-group role-axis"><g transform="translate(0.5,400.5)"><path class="background" d="M0,0h0v0h0Z" style="pointer-events: none; fill: none;"></path><g><g class="mark-rule role-axis-tick" style="pointer-events: none;"><line transform="translate(0,0)" x2="0" y2="5" style="fill: none; stroke: #888; stroke-width: 1; opacity: 1;"></line><line transform="translate(30,0)" x2="0" y2="5" style="fill: none; stroke: #888; stroke-width: 1; opacity: 1;"></line><line transform="translate(60,0)" x2="0" y2="5" style="fill: none; stroke: #888; stroke-width: 1; opacity: 1;"></line><line transform="translate(90,0)" x2="0" y2="5" style="fill: none; stroke: #888; stroke-width: 1; opacity: 1;"></line><line transform="translate(120,0)" x2="0" y2="5" style="fill: none; stroke: #888; stroke-width: 1; opacity: 1;"></line><line transform="translate(150,0)" x2="0" y2="5" style="fill: none; stroke: #888; stroke-width: 1; opacity: 1;"></line><line transform="translate(180,0)" x2="0" y2="5" style="fill: none; stroke: #888; stroke-width: 1; opacity: 1;"></line><line transform="translate(210,0)" x2="0" y2="5" style="fill: none; stroke: #888; stroke-width: 1; opacity: 1;"></line><line transform="translate(240,0)" x2="0" y2="5" style="fill: none; stroke: #888; stroke-width: 1; opacity: 1;"></line><line transform="translate(270,0)" x2="0" y2="5" style="fill: none; stroke: #888; stroke-width: 1; opacity: 1;"></line><line transform="translate(300,0)" x2="0" y2="5" style="fill: none; stroke: #888; stroke-width: 1; opacity: 1;"></line><line transform="translate(330,0)" x2="0" y2="5" style="fill: none; stroke: #888; stroke-width: 1; opacity: 1;"></line><line transform="translate(360,0)" x2="0" y2="5" style="fill: none; stroke: #888; stroke-width: 1; opacity: 1;"></line><line transform="translate(390,0)" x2="0" y2="5" style="fill: none; stroke: #888; stroke-width: 1; opacity: 1;"></line><line transform="translate(420,0)" x2="0" y2="5" style="fill: none; stroke: #888; stroke-width: 1; opacity: 1;"></line><line transform="translate(450,0)" x2="0" y2="5" style="fill: none; stroke: #888; stroke-width: 1; opacity: 1;"></line><line transform="translate(480,0)" x2="0" y2="5" style="fill: none; stroke: #888; stroke-width: 1; opacity: 1;"></line><line transform="translate(510,0)" x2="0" y2="5" style="fill: none; stroke: #888; stroke-width: 1; opacity: 1;"></line><line transform="translate(540,0)" x2="0" y2="5" style="fill: none; stroke: #888; stroke-width: 1; opacity: 1;"></line><line transform="translate(570,0)" x2="0" y2="5" style="fill: none; stroke: #888; stroke-width: 1; opacity: 1;"></line><line transform="translate(600,0)" x2="0" y2="5" style="fill: none; stroke: #888; stroke-width: 1; opacity: 1;"></line></g><g class="mark-text role-axis-label" style="pointer-events: none;"><text text-anchor="start" transform="translate(0,20)" style="font-family: Roboto; font-size: 16px; fill: #000; opacity: 1;">0.00</text><text text-anchor="middle" transform="translate(30,20)" style="font-family: Roboto; font-size: 16px; fill: #000; opacity: 0;">0.05</text><text text-anchor="middle" transform="translate(60,20)" style="font-family: Roboto; font-size: 16px; fill: #000; opacity: 1;">0.10</text><text text-anchor="middle" transform="translate(90,20)" style="font-family: Roboto; font-size: 16px; fill: #000; opacity: 0;">0.15</text><text text-anchor="middle" transform="translate(120,20)" style="font-family: Roboto; font-size: 16px; fill: #000; opacity: 1;">0.20</text><text text-anchor="middle" transform="translate(150,20)" style="font-family: Roboto; font-size: 16px; fill: #000; opacity: 0;">0.25</text><text text-anchor="middle" transform="translate(180,20)" style="font-family: Roboto; font-size: 16px; fill: #000; opacity: 1;">0.30</text><text text-anchor="middle" transform="translate(210,20)" style="font-family: Roboto; font-size: 16px; fill: #000; opacity: 0;">0.35</text><text text-anchor="middle" transform="translate(240,20)" style="font-family: Roboto; font-size: 16px; fill: #000; opacity: 1;">0.40</text><text text-anchor="middle" transform="translate(270,20)" style="font-family: Roboto; font-size: 16px; fill: #000; opacity: 0;">0.45</text><text text-anchor="middle" transform="translate(300,20)" style="font-family: Roboto; font-size: 16px; fill: #000; opacity: 1;">0.50</text><text text-anchor="middle" transform="translate(330,20)" style="font-family: Roboto; font-size: 16px; fill: #000; opacity: 0;">0.55</text><text text-anchor="middle" transform="translate(360,20)" style="font-family: Roboto; font-size: 16px; fill: #000; opacity: 1;">0.60</text><text text-anchor="middle" transform="translate(390,20)" style="font-family: Roboto; font-size: 16px; fill: #000; opacity: 0;">0.65</text><text text-anchor="middle" transform="translate(420,20)" style="font-family: Roboto; font-size: 16px; fill: #000; opacity: 1;">0.70</text><text text-anchor="middle" transform="translate(450,20)" style="font-family: Roboto; font-size: 16px; fill: #000; opacity: 0;">0.75</text><text text-anchor="middle" transform="translate(480,20)" style="font-family: Roboto; font-size: 16px; fill: #000; opacity: 1;">0.80</text><text text-anchor="middle" transform="translate(510,20)" style="font-family: Roboto; font-size: 16px; fill: #000; opacity: 0;">0.85</text><text text-anchor="middle" transform="translate(540,20)" style="font-family: Roboto; font-size: 16px; fill: #000; opacity: 1;">0.90</text><text text-anchor="middle" transform="translate(570,20)" style="font-family: Roboto; font-size: 16px; fill: #000; opacity: 0;">0.95</text><text text-anchor="end" transform="translate(600,20)" style="font-family: Roboto; font-size: 16px; fill: #000; opacity: 1;">1.00</text></g><g class="mark-rule role-axis-domain" style="pointer-events: none;"><line transform="translate(0,0)" x2="600" y2="0" style="fill: none; stroke: #888; stroke-width: 1; opacity: 1;"></line></g><g class="mark-text role-axis-title" style="pointer-events: none;"><text text-anchor="middle" transform="translate(300,43)" style="font-family: Roboto; font-size: 20px; font-weight: bold; fill: #000; opacity: 1;">M/Mₛ</text></g></g><path class="foreground" d="" style="pointer-events: none; display: none; fill: none;"></path></g></g><g class="mark-group role-axis"><g transform="translate(0.5,0.5)"><path class="background" d="M0,0h0v0h0Z" style="pointer-events: none; fill: none;"></path><g><g class="mark-rule role-axis-tick" style="pointer-events: none;"><line transform="translate(0,400)" x2="-5" y2="0" style="fill: none; stroke: #888; stroke-width: 1; opacity: 1;"></line><line transform="translate(0,356)" x2="-5" y2="0" style="fill: none; stroke: #888; stroke-width: 1; opacity: 1;"></line><line transform="translate(0,311)" x2="-5" y2="0" style="fill: none; stroke: #888; stroke-width: 1; opacity: 1;"></line><line transform="translate(0,267)" x2="-5" y2="0" style="fill: none; stroke: #888; stroke-width: 1; opacity: 1;"></line><line transform="translate(0,222)" x2="-5" y2="0" style="fill: none; stroke: #888; stroke-width: 1; opacity: 1;"></line><line transform="translate(0,178)" x2="-5" y2="0" style="fill: none; stroke: #888; stroke-width: 1; opacity: 1;"></line><line transform="translate(0,133)" x2="-5" y2="0" style="fill: none; stroke: #888; stroke-width: 1; opacity: 1;"></line><line transform="translate(0,89)" x2="-5" y2="0" style="fill: none; stroke: #888; stroke-width: 1; opacity: 1;"></line><line transform="translate(0,44)" x2="-5" y2="0" style="fill: none; stroke: #888; stroke-width: 1; opacity: 1;"></line><line transform="translate(0,0)" x2="-5" y2="0" style="fill: none; stroke: #888; stroke-width: 1; opacity: 1;"></line></g><g class="mark-text role-axis-label" style="pointer-events: none;"><text text-anchor="end" transform="translate(-7,405)" style="font-family: Roboto; font-size: 16px; fill: #000; opacity: 1;">0.0</text><text text-anchor="end" transform="translate(-7,360.55555555555554)" style="font-family: Roboto; font-size: 16px; fill: #000; opacity: 1;">0.5</text><text text-anchor="end" transform="translate(-7,316.11111111111114)" style="font-family: Roboto; font-size: 16px; fill: #000; opacity: 1;">1.0</text><text text-anchor="end" transform="translate(-7,271.6666666666667)" style="font-family: Roboto; font-size: 16px; fill: #000; opacity: 1;">1.5</text><text text-anchor="end" transform="translate(-7,227.22222222222223)" style="font-family: Roboto; font-size: 16px; fill: #000; opacity: 1;">2.0</text><text text-anchor="end" transform="translate(-7,182.77777777777777)" style="font-family: Roboto; font-size: 16px; fill: #000; opacity: 1;">2.5</text><text text-anchor="end" transform="translate(-7,138.33333333333334)" style="font-family: Roboto; font-size: 16px; fill: #000; opacity: 1;">3.0</text><text text-anchor="end" transform="translate(-7,93.88888888888889)" style="font-family: Roboto; font-size: 16px; fill: #000; opacity: 1;">3.5</text><text text-anchor="end" transform="translate(-7,49.444444444444464)" style="font-family: Roboto; font-size: 16px; fill: #000; opacity: 1;">4.0</text><text text-anchor="end" transform="translate(-7,5)" style="font-family: Roboto; font-size: 16px; fill: #000; opacity: 1;">4.5</text></g><g class="mark-rule role-axis-domain" style="pointer-events: none;"><line transform="translate(0,400)" x2="0" y2="-400" style="fill: none; stroke: #888; stroke-width: 1; opacity: 1;"></line></g></g><path class="foreground" d="" style="pointer-events: none; display: none; fill: none;"></path></g></g><g class="mark-group role-scope pathgroup"><g transform="translate(0,0)"><path class="background" d="M0,0h600v400h-600Z" style="fill: none;"></path><g><g class="mark-line role-mark marks"><path d="M0,400L6,399.9715124379803L12,399.88604975192123L18,399.7436119418228L24,399.5441990076849L30,399.2878109495077L36,398.97444776729105L42.00000000000001,398.604109461035L48,398.17679603073964L54,397.6925074764049L60,397.1512437980307L66,396.55300499561713L72,395.8977910691642L78,395.1856020186719L84.00000000000001,394.41643784414015L90,393.5902985455691L96,392.70718412295855L102.00000000000001,391.7670945763087L108,390.7700299056195L114,389.7159901108908L120,388.60497519212277L126,387.4369851493154L132,386.2120199824686L138,384.9300796915824L144,383.59116427665685L150,382.1952737376919L156,380.7424080746875L162,379.23256728764375L168.00000000000003,377.66575137656065L174,376.0419603414382L180,374.3611941822762L186,372.62345289907495L192,370.8287364918343L198,368.9770449605543L204.00000000000003,367.0683783052349L210.00000000000003,365.102736525876L216,363.0801196224778L222,361.00052759504024L228,358.86396044356326L234,356.6704181680469L240,354.4199007684911L245.99999999999997,352.112408244896L252,349.7479405972615L258,347.3264978255876L264,344.8480799298743L270,342.31268691012156L276,339.7203187663295L282,337.07097549849806L288,334.3646571066272L294,331.601363590717L300,328.7810949507674L306,325.9038511867784L312,322.96963229875L318,319.97843828668226L324,316.9302691505751L330,313.8251248904285L336.00000000000006,310.6630055062426L342.00000000000006,307.4439109980173L348,304.1678413657526L354,300.8347966094485L360,297.44477672910506L366,293.99778172472224L372,290.49381159629996L378,286.9328663438383L384,283.3149459673373L390,279.6400504667969L396,275.9081798422171L402,272.11933409359796L408.00000000000006,268.2735132209394L414.00000000000006,264.3707172242414L420.00000000000006,260.41094610350405L426,256.3941998587274L432,252.32047848991127L438,248.1897819970558L444,244.00211038016093L450,239.75746363922664L456,235.45584177425303L462,231.09724478523995L468,226.68167267218752L474,222.20912543509564L480,217.6796030739645L486.00000000000006,213.09310558879392L492.00000000000006,208.44963297958395L498.00000000000006,203.74918524633463L504,198.99176238904596L510,194.17736440771782L516,189.30599130235032L522,184.37764307294336L528,179.3923197194971L534,174.35002124201145L540,169.2507476404863L546,164.09449891492193L552,158.88127506531814L558,153.61107609167485L564,148.28390199399223L570,142.89975277227026L576,137.45862842650897L582,131.9605289567082L588,126.40545436286806L594,120.79340464498851L600,115.12437980306962" style="fill: none; stroke: #f58518; stroke-width: 2;"></path></g></g><path class="foreground" d="" style="display: none; fill: none;"></path></g><g transform="translate(0,0)"><path class="background" d="M0,0h600v400h-600Z" style="fill: none;"></path><g><g class="mark-line role-mark marks"><path d="M564,22.468614260440578L570,137.8254265697506L576,232.20827300463966L582,305.6171535651098L588,358.05206825115994L594,389.51301706278997L600,400" style="fill: none; stroke: #4c78a8; stroke-width: 2;"></path></g></g><path class="foreground" d="" style="display: none; fill: none;"></path></g></g><g class="mark-group role-legend"><g transform="translate(620,0)"><path class="background" d="M0,0h70v59h-70Z" style="pointer-events: none; fill: none;"></path><g><g class="mark-group role-legend-entry"><g transform="translate(0,25)"><path class="background" d="M0,0h0v0h0Z" style="pointer-events: none; fill: none;"></path><g><g class="mark-group role-scope"><g transform="translate(0,0)"><path class="background" d="M0,0h69.61666488647461v16h-69.61666488647461Z" style="pointer-events: none; fill: none; opacity: 1;"></path><g><g class="mark-symbol role-legend-symbol" style="pointer-events: none;"><path transform="translate(8,8)" d="M-5,0L5,0" style="fill: none; stroke: #4c78a8; stroke-width: 1.5; opacity: 1;"></path></g><g class="mark-text role-legend-label" style="pointer-events: none;"><text text-anchor="start" transform="translate(20,13)" style="font-family: Roboto; font-size: 16px; fill: #000; opacity: 1;">Crystal</text></g></g><path class="foreground" d="" style="pointer-events: none; display: none; fill: none;"></path></g><g transform="translate(0,18)"><path class="background" d="M0,0h69.61666488647461v16h-69.61666488647461Z" style="pointer-events: none; fill: none; opacity: 1;"></path><g><g class="mark-symbol role-legend-symbol" style="pointer-events: none;"><path transform="translate(8,8)" d="M-5,0L5,0" style="fill: none; stroke: #f58518; stroke-width: 1.5; opacity: 1;"></path></g><g class="mark-text role-legend-label" style="pointer-events: none;"><text text-anchor="start" transform="translate(20,13)" style="font-family: Roboto; font-size: 16px; fill: #000; opacity: 1;">Liquid</text></g></g><path class="foreground" d="" style="pointer-events: none; display: none; fill: none;"></path></g></g></g><path class="foreground" d="" style="pointer-events: none; display: none; fill: none;"></path></g></g><g class="mark-text role-legend-title" style="pointer-events: none;"><text text-anchor="start" transform="translate(0,16)" style="font-family: Roboto; font-size: 20px; font-weight: bold; fill: #000; opacity: 1;">Phase</text></g></g><path class="foreground" d="" style="pointer-events: none; display: none; fill: none;"></path></g></g></g><path class="foreground" d="" style="display: none; fill: none;"></path></g></g></g></svg>