<svg class="marks" width="785" height="465" viewBox="0 0 785 465" version="1.1" xmlns="http://www.w3.org/2000/svg" xmlns:xlink="http://www.w3.org/1999/xlink"><rect width="785" height="465" fill="white"></rect><g fill="none" stroke-miterlimit="10" transform="translate(81,13)"><g class="mark-group role-frame root" role="graphics-object" aria-roledescription="group mark container"><g transform="translate(0,0)"><path class="background" aria-hidden="true" d="M0.5,0.5h600v400h-600Z" stroke="#ddd"></path><g><g class="mark-group role-axis" role="graphics-symbol" aria-roledescription="axis" aria-label="X-axis titled 'T/Tm' for a linear scale with values from 0.9 to 1.6"><g transform="translate(0.5,400.5)"><path class="background" aria-hidden="true" d="M0,0h0v0h0Z" pointer-events="none"></path><g><g class="mark-rule role-axis-tick" pointer-events="none"><line transform="translate(0,0)" x2="0" y2="5" stroke="#888" stroke-width="1" opacity="1"></line><line transform="translate(43,0)" x2="0" y2="5" stroke="#888" stroke-width="1" opacity="1"></line><line transform="translate(86,0)" x2="0" y2="5" stroke="#888" stroke-width="1" opacity="1"></line><line transform="translate(129,0)" x2="0" y2="5" stroke="#888" stroke-width="1" opacity="1"></line><line transform="translate(171,0)" x2="0" y2="5" stroke="#888" stroke-width="1" opacity="1"></line><line transform="translate(214,0)" x2="0" y2="5" stroke="#888" stroke-width="1" opacity="1"></line><line transform="translate(257,0)" x2="0" y2="5" stroke="#888" stroke-width="1" opacity="1"></line><line transform="translate(300,0)" x2="0" y2="5" stroke="#888" stroke-width="1" opacity="1"></line><line transform="translate(343,0)" x2="0" y2="5" stroke="#888" stroke-width="1" opacity="1"></line><line transform="translate(386,0)" x2="0" y2="5" stroke="#888" stroke-width="1" opacity="1"></line><line transform="translate(429,0)" x2="0" y2="5" stroke="#888" stroke-width="1" opacity="1"></line><line transform="translate(471,0)" x2="0" y2="5" stroke="#888" stroke-width="1" opacity="1"></line><line transform="translate(514,0)" x2="0" y2="5" stroke="#888" stroke-width="1" opacity="1"></line><line transform="translate(557,0)" x2="0" y2="5" stroke="#888" stroke-width="1" opacity="1"></line><line transform="translate(600,0)" x2="0" y2="5" stroke="#888" stroke-width="1" opacity="1"></line></g><g class="mark-text role-axis-label" pointer-events="none"><text text-anchor="start" transform="translate(0,20)" font-family="Roboto" font-size="16px" fill="#000" opacity="1">0.95</text><text text-anchor="middle" transform="translate(42.8571428571429,20)" font-family="Roboto" font-size="16px" fill="#000" opacity="0">1.00</text><text text-anchor="middle" transform="translate(85.7142857142858,20)" font-family="Roboto" font-size="16px" fill="#000" opacity="1">1.05</text><text text-anchor="middle" transform="translate(128.5714285714287,20)" font-family="Roboto" font-size="16px" fill="#000" opacity="0">1.10</text><text text-anchor="middle" transform="translate(171.4285714285714,20)" font-family="Roboto" font-size="16px" fill="#000" opacity="1">1.15</text><text text-anchor="middle" transform="translate(214.28571428571428,20)" font-family="Roboto" font-size="16px" fill="#000" opacity="0">1.20</text><text text-anchor="middle" transform="translate(257.14285714285717,20)" font-family="Roboto" font-size="16px" fill="#000" opacity="1">1.25</text><text text-anchor="middle" transform="translate(300.00000000000006,20)" font-family="Roboto" font-size="16px" fill="#000" opacity="0">1.30</text><text text-anchor="middle" transform="translate(342.85714285714295,20)" font-family="Roboto" font-size="16px" fill="#000" opacity="1">1.35</text><text text-anchor="middle" transform="translate(385.71428571428567,20)" font-family="Roboto" font-size="16px" fill="#000" opacity="0">1.40</text><text text-anchor="middle" transform="translate(428.57142857142856,20)" font-family="Roboto" font-size="16px" fill="#000" opacity="1">1.45</text><text text-anchor="middle" transform="translate(471.4285714285715,20)" font-family="Roboto" font-size="16px" fill="#000" opacity="0">1.50</text><text text-anchor="middle" transform="translate(514.2857142857143,20)" font-family="Roboto" font-size="16px" fill="#000" opacity="1">1.55</text><text text-anchor="middle" transform="translate(557.1428571428573,20)" font-family="Roboto" font-size="16px" fill="#000" opacity="0">1.60</text><text text-anchor="end" transform="translate(600,20)" font-family="Roboto" font-size="16px" fill="#000" opacity="1">1.65</text></g><g class="mark-rule role-axis-domain" pointer-events="none"><line transform="translate(0,0)" x2="600" y2="0" stroke="#888" stroke-width="1" opacity="1"></line></g><g class="mark-text role-axis-title" pointer-events="none"><text text-anchor="middle" transform="translate(300,43)" font-family="Roboto" font-size="20px" font-weight="bold" fill="#000" opacity="1">T/Tm</text></g></g><path class="foreground" aria-hidden="true" d="" pointer-events="none" display="none"></path></g></g><g class="mark-group role-axis" role="graphics-symbol" aria-roledescription="axis" aria-label="Y-axis titled 'Melting Rate' for a linear scale with values from -0.008 to 0.001"><g transform="translate(0.5,0.5)"><path class="background" aria-hidden="true" d="M0,0h0v0h0Z" pointer-events="none"></path><g><g class="mark-rule role-axis-tick" pointer-events="none"><line transform="translate(0,400)" x2="-5" y2="0" stroke="#888" stroke-width="1" opacity="1"></line><line transform="translate(0,356)" x2="-5" y2="0" stroke="#888" stroke-width="1" opacity="1"></line><line transform="translate(0,311)" x2="-5" y2="0" stroke="#888" stroke-width="1" opacity="1"></line><line transform="translate(0,267)" x2="-5" y2="0" stroke="#888" stroke-width="1" opacity="1"></line><line transform="translate(0,222)" x2="-5" y2="0" stroke="#888" stroke-width="1" opacity="1"></line><line transform="translate(0,178)" x2="-5" y2="0" stroke="#888" stroke-width="1" opacity="1"></line><line transform="translate(0,133)" x2="-5" y2="0" stroke="#888" stroke-width="1" opacity="1"></line><line transform="translate(0,89)" x2="-5" y2="0" stroke="#888" stroke-width="1" opacity="1"></line><line transform="translate(0,44)" x2="-5" y2="0" stroke="#888" stroke-width="1" opacity="1"></line><line transform="translate(0,0)" x2="-5" y2="0" stroke="#888" stroke-width="1" opacity="1"></line></g><g class="mark-text role-axis-label" pointer-events="none"><text text-anchor="end" transform="translate(-7,405)" font-family="Roboto" font-size="16px" fill="#000" opacity="1">-0.008</text><text text-anchor="end" transform="translate(-7,360.55555555555554)" font-family="Roboto" font-size="16px" fill="#000" opacity="1">-0.007</text><text text-anchor="end" transform="translate(-7,316.11111111111114)" font-family="Roboto" font-size="16px" fill="#000" opacity="1">-0.006</text><text text-anchor="end" transform="translate(-7,271.6666666666667)" font-family="Roboto" font-size="16px" fill="#000" opacity="1">-0.005</text><text text-anchor="end" transform="translate(-7,227.22222222222223)" font-family="Roboto" font-size="16px" fill="#000" opacity="1">-0.004</text><text text-anchor="end" transform="translate(-7,182.7777777777778)" font-family="Roboto" font-size="16px" fill="#000" opacity="1">-0.003</text><text text-anchor="end" transform="translate(-7,138.33333333333334)" font-family="Roboto" font-size="16px" fill="#000" opacity="1">-0.002</text><text text-anchor="end" transform="translate(-7,93.88888888888893)" font-family="Roboto" font-size="16px" fill="#000" opacity="1">-0.001</text><text text-anchor="end" transform="translate(-7,49.444444444444464)" font-family="Roboto" font-size="16px" fill="#000" opacity="1">0.000</text><text text-anchor="end" transform="translate(-7,5)" font-family="Roboto" font-size="16px" fill="#000" opacity="1">0.001</text></g><g class="mark-rule role-axis-domain" pointer-events="none"><line transform="translate(0,400)" x2="0" y2="-400" stroke="#888" stroke-width="1" opacity="1"></line></g><g class="mark-text role-axis-title" pointer-events="none"><text text-anchor="middle" transform="translate(-55.63333511352539,200) rotate(-90) translate(0,-4)" font-family="Roboto" font-size="20px" font-weight="bold" fill="#000" opacity="1">Melting Rate</text></g></g><path class="foreground" aria-hidden="true" d="" pointer-events="none" display="none"></path></g></g><g class="mark-symbol role-mark layer_0_marks" role="graphics-symbol" aria-roledescription="symbol mark container"><path transform="translate(19.047619047619076,44.445145287461415)" d="M2.7386127875258306,0A2.7386127875258306,2.7386127875258306,0,1,1,-2.7386127875258306,0A2.7386127875258306,2.7386127875258306,0,1,1,2.7386127875258306,0" stroke="#4c78a8" stroke-width="2" opacity="0.7"></path><path transform="translate(42.8571428571429,44.44991370078522)" d="M2.7386127875258306,0A2.7386127875258306,2.7386127875258306,0,1,1,-2.7386127875258306,0A2.7386127875258306,2.7386127875258306,0,1,1,2.7386127875258306,0" stroke="#4c78a8" stroke-width="2" opacity="0.7"></path><path transform="translate(66.66666666666681,44.46180364285439)" d="M2.7386127875258306,0A2.7386127875258306,2.7386127875258306,0,1,1,-2.7386127875258306,0A2.7386127875258306,2.7386127875258306,0,1,1,2.7386127875258306,0" stroke="#4c78a8" stroke-width="2" opacity="0.7"></path><path transform="translate(90.47619047619054,44.498775251306945)" d="M2.7386127875258306,0A2.7386127875258306,2.7386127875258306,0,1,1,-2.7386127875258306,0A2.7386127875258306,2.7386127875258306,0,1,1,2.7386127875258306,0" stroke="#4c78a8" stroke-width="2" opacity="0.7"></path><path transform="translate(114.28571428571465,44.56207622119934)" d="M2.7386127875258306,0A2.7386127875258306,2.7386127875258306,0,1,1,-2.7386127875258306,0A2.7386127875258306,2.7386127875258306,0,1,1,2.7386127875258306,0" stroke="#4c78a8" stroke-width="2" opacity="0.7"></path><path transform="translate(138.0952380952382,44.72144818879982)" d="M2.7386127875258306,0A2.7386127875258306,2.7386127875258306,0,1,1,-2.7386127875258306,0A2.7386127875258306,2.7386127875258306,0,1,1,2.7386127875258306,0" stroke="#4c78a8" stroke-width="2" opacity="0.7"></path><path transform="translate(185.7142857142858,45.429459494682554)" d="M2.7386127875258306,0A2.7386127875258306,2.7386127875258306,0,1,1,-2.7386127875258306,0A2.7386127875258306,2.7386127875258306,0,1,1,2.7386127875258306,0" stroke="#4c78a8" stroke-width="2" opacity="0.7"></path><path transform="translate(257.14285714285717,49.689631149603386)" d="M2.7386127875258306,0A2.7386127875258306,2.7386127875258306,0,1,1,-2.7386127875258306,0A2.7386127875258306,2.7386127875258306,0,1,1,2.7386127875258306,0" stroke="#4c78a8" stroke-width="2" opacity="0.7"></path><path transform="translate(376.1904761904762,85.17762298424864)" d="M2.7386127875258306,0A2.7386127875258306,2.7386127875258306,0,1,1,-2.7386127875258306,0A2.7386127875258306,2.7386127875258306,0,1,1,2.7386127875258306,0" stroke="#4c78a8" stroke-width="2" opacity="0.7"></path><path transform="translate(495.2380952380954,199.8639342235508)" d="M2.7386127875258306,0A2.7386127875258306,2.7386127875258306,0,1,1,-2.7386127875258306,0A2.7386127875258306,2.7386127875258306,0,1,1,2.7386127875258306,0" stroke="#4c78a8" stroke-width="2" opacity="0.7"></path><path transform="translate(30.158730158730183,44.44945409082823)" d="M2.7386127875258306,0A2.7386127875258306,2.7386127875258306,0,1,1,-2.7386127875258306,0A2.7386127875258306,2.7386127875258306,0,1,1,2.7386127875258306,0" stroke="#f58518" stroke-width="2" opacity="0.7"></path><path transform="translate(42.8571428571429,44.45547931963216)" d="M2.7386127875258306,0A2.7386127875258306,2.7386127875258306,0,1,1,-2.7386127875258306,0A2.7386127875258306,2.7386127875258306,0,1,1,2.7386127875258306,0" stroke="#f58518" stroke-width="2" opacity="0.7"></path><path transform="translate(61.904761904761685,44.46950838625106)" d="M2.7386127875258306,0A2.7386127875258306,2.7386127875258306,0,1,1,-2.7386127875258306,0A2.7386127875258306,2.7386127875258306,0,1,1,2.7386127875258306,0" stroke="#f58518" stroke-width="2" opacity="0.7"></path><path transform="translate(74.6031746031746,44.484539185144634)" d="M2.7386127875258306,0A2.7386127875258306,2.7386127875258306,0,1,1,-2.7386127875258306,0A2.7386127875258306,2.7386127875258306,0,1,1,2.7386127875258306,0" stroke="#f58518" stroke-width="2" opacity="0.7"></path><path transform="translate(106.3492063492063,44.56714671569073)" d="M2.7386127875258306,0A2.7386127875258306,2.7386127875258306,0,1,1,-2.7386127875258306,0A2.7386127875258306,2.7386127875258306,0,1,1,2.7386127875258306,0" stroke="#f58518" stroke-width="2" opacity="0.7"></path><path transform="translate(138.095238095238,44.75706920190281)" d="M2.7386127875258306,0A2.7386127875258306,2.7386127875258306,0,1,1,-2.7386127875258306,0A2.7386127875258306,2.7386127875258306,0,1,1,2.7386127875258306,0" stroke="#f58518" stroke-width="2" opacity="0.7"></path><path transform="translate(201.5873015873016,45.83238285556752)" d="M2.7386127875258306,0A2.7386127875258306,2.7386127875258306,0,1,1,-2.7386127875258306,0A2.7386127875258306,2.7386127875258306,0,1,1,2.7386127875258306,0" stroke="#f58518" stroke-width="2" opacity="0.7"></path><path transform="translate(328.57142857142856,59.90621726788983)" d="M2.7386127875258306,0A2.7386127875258306,2.7386127875258306,0,1,1,-2.7386127875258306,0A2.7386127875258306,2.7386127875258306,0,1,1,2.7386127875258306,0" stroke="#f58518" stroke-width="2" opacity="0.7"></path><path transform="translate(455.5555555555556,126.7600946275818)" d="M2.7386127875258306,0A2.7386127875258306,2.7386127875258306,0,1,1,-2.7386127875258306,0A2.7386127875258306,2.7386127875258306,0,1,1,2.7386127875258306,0" stroke="#f58518" stroke-width="2" opacity="0.7"></path><path transform="translate(582.5396825396828,370.3313728017948)" d="M2.7386127875258306,0A2.7386127875258306,2.7386127875258306,0,1,1,-2.7386127875258306,0A2.7386127875258306,2.7386127875258306,0,1,1,2.7386127875258306,0" stroke="#f58518" stroke-width="2" opacity="0.7"></path></g><g class="mark-group role-scope layer_1_pathgroup" role="graphics-object" aria-roledescription="group mark container"><g transform="translate(0,0)"><path class="background" aria-hidden="true" d="M0,0h600v400h-600Z"></path><g><g class="mark-line role-mark layer_1_marks" role="graphics-symbol" aria-roledescription="line mark container"><path d="M19.047619047619076,44.433439952932254L23.015873015873044,44.435274034850956C26.984126984127016,44.43710811676966,34.92063492063496,44.44077628060706,42.85714285714291,44.44973680565226C50.79365079365087,44.458697330697454,58.73015873015884,44.472950216950444,66.66666666666679,44.5004338933256C74.60317460317472,44.52791756970075,82.53968253968263,44.56863203619806,90.4761904761906,44.63433879882834C98.41269841269859,44.70004556145863,106.34920634920661,44.790744620221886,114.28571428571455,44.92235348549132C122.2222222222225,45.05396235076076,130.15873015873035,45.22648102253638,142.0634920634922,45.6986619341153C153.96825396825406,46.17084284569421,169.84126984126993,46.94268599707643,189.68253968253975,48.99419696188439C209.5238095238096,51.04570792669235,233.33333333333337,54.37688670492607,265.0793650793651,63.581400176271075C296.82539682539687,72.78591364761608,336.50793650793656,87.86376181207237,376.1904761904762,113.9530346751335C415.8730158730159,140.04230753819465,455.55555555555566,177.1430050998606,475.39682539682553,195.6933538806936L495.2380952380954,214.24370266152658" stroke="#4c78a8" stroke-width="2"></path></g></g><path class="foreground" aria-hidden="true" d="" display="none"></path></g><g transform="translate(0,0)"><path class="background" aria-hidden="true" d="M0,0h600v400h-600Z"></path><g><g class="mark-line role-mark layer_1_marks" role="graphics-symbol" aria-roledescription="line mark container"><path d="M30.158730158730183,44.437445420809766L32.2751322751323,44.438611924748876C34.39153439153442,44.439778428687994,38.624338624338655,44.44211143656623,43.915343915343904,44.44686334371276C49.20634920634916,44.451615250859284,55.55555555555542,44.458786057274104,60.8465608465607,44.46780060335798C66.137566137566,44.47681514944187,70.37037037037028,44.4876734351948,77.77777777777773,44.522439160214226C85.18518518518516,44.55720488523366,95.76719576719573,44.61587804951958,106.34920634920628,44.72074559020441C116.93121693121687,44.825613130889245,127.51322751322743,44.97667504797298,143.3862433862433,45.495872785083435C159.2592592592592,46.015070522193895,180.4232804232804,46.90240407933107,212.16931216931212,51.55146291991098C243.91534391534393,56.20052176049088,286.2433862433862,64.61130588451351,328.5714285714286,81.83482552886902C370.89947089947094,99.05834517322451,413.22751322751327,125.09460033791288,455.55555555555566,171.04347812935052C497.883597883598,216.9923559207882,540.2116402116404,282.85385633897516,561.3756613756616,315.78460654806867L582.5396825396828,348.7153567571621" stroke="#f58518" stroke-width="2"></path></g></g><path class="foreground" aria-hidden="true" d="" display="none"></path></g></g><g class="mark-group role-legend" role="graphics-symbol" aria-roledescription="legend" aria-label="Symbol legend titled 'Pressure' for stroke color with 2 values: 1, 13.5"><g transform="translate(618,0)"><path class="background" aria-hidden="true" d="M0,0h81v59h-81Z" pointer-events="none"></path><g><g class="mark-group role-legend-entry"><g transform="translate(0,25)"><path class="background" aria-hidden="true" d="M0,0h0v0h0Z" pointer-events="none"></path><g><g class="mark-group role-scope" role="graphics-object" aria-roledescription="group mark container"><g transform="translate(0,0)"><path class="background" aria-hidden="true" d="M0,0h51.21666717529297v16h-51.21666717529297Z" pointer-events="none" opacity="1"></path><g><g class="mark-symbol role-legend-symbol" pointer-events="none"><path transform="translate(8,8)" d="M5,0A5,5,0,1,1,-5,0A5,5,0,1,1,5,0" stroke="#4c78a8" stroke-width="1.5" opacity="0.7"></path></g><g class="mark-text role-legend-label" pointer-events="none"><text text-anchor="start" transform="translate(20,13)" font-family="Roboto" font-size="16px" fill="#000" opacity="1">1</text></g></g><path class="foreground" aria-hidden="true" d="" pointer-events="none" display="none"></path></g><g transform="translate(0,18)"><path class="background" aria-hidden="true" d="M0,0h51.21666717529297v16h-51.21666717529297Z" pointer-events="none" opacity="1"></path><g><g class="mark-symbol role-legend-symbol" pointer-events="none"><path transform="translate(8,8)" d="M5,0A5,5,0,1,1,-5,0A5,5,0,1,1,5,0" stroke="#f58518" stroke-width="1.5" opacity="0.7"></path></g><g class="mark-text role-legend-label" pointer-events="none"><text text-anchor="start" transform="translate(20,13)" font-family="Roboto" font-size="16px" fill="#000" opacity="1">13.5</text></g></g><path class="foreground" aria-hidden="true" d="" pointer-events="none" display="none"></path></g></g></g><path class="foreground" aria-hidden="true" d="" pointer-events="none" display="none"></path></g></g><g class="mark-text role-legend-title" pointer-events="none"><text text-anchor="start" transform="translate(0,16)" font-family="Roboto" font-size="20px" font-weight="bold" fill="#000" opacity="1">Pressure</text></g></g><path class="foreground" aria-hidden="true" d="" pointer-events="none" display="none"></path></g></g></g><path class="foreground" aria-hidden="true" d="" display="none"></path></g></g></g></svg>