<svg class="marks" width="746" height="465" viewBox="0 0 746 465" version="1.1" xmlns="http://www.w3.org/2000/svg" xmlns:xlink="http://www.w3.org/1999/xlink"><rect width="746" height="465" style="fill: white;"></rect><g transform="translate(44,13)"><g class="mark-group role-frame root"><g transform="translate(0,0)"><path class="background" d="M0.5,0.5h600v400h-600Z" style="fill: none; stroke: #ddd;"></path><g><g class="mark-group role-scope pathgroup"><g transform="translate(0,0)"><path class="background" d="M0,0h600v400h-600Z" style="fill: none;"></path><g><g class="mark-line role-mark marks"><path d="M600,142.7594405416821L594,145.8885276749027L588,148.98616669623155L582,152.0523576056687L576,155.08710040321427L570,158.0903950888681L564,161.0622416626303L558,164.00264012450086L552,166.91159047447974L546,169.78909271256697L540,172.63514683876252L534,175.4497528530664L528,178.23291075547863L522,180.9846205459992L516,183.7048822246281L510,186.39369579136536L504,189.05106124621093L498.00000000000006,191.6769785891648L492.00000000000006,194.27144782022702L486.00000000000006,196.83446893939757L480,199.36604194667655L474,201.86616684206376L468,204.33484362555942L462,206.77207229716333L456,209.1778528568756L450,211.55218530469622L444,213.89506964062514L438,216.20650586466246L432,218.48649397680805L426,220.73503397706196L420.00000000000006,222.95212586542422L414.00000000000006,225.13776964189483L408.00000000000006,227.29196530647383L402,229.41471285916109L396,231.50601229995672L390,233.5658636288607L384,235.594266845873L378,237.5912219509936L372,239.55672894422258L366,241.49078782555992L360,243.39339859500555L354,245.26456125255956L348,247.10427579822186L342.00000000000006,248.91254223199252L336.00000000000006,250.6893605538715L330,252.43473076385885L324,254.1486528619545L318,255.83112684815853L312,257.48215272247086L306,259.10173048489156L300,260.6898601354206L294,262.2465416740579L288,263.77177510080355L282,265.26556041565755L276,266.7278976186199L270,268.1587867096907L264,269.5582276888697L258,270.92622055615703L252,272.2627653115527L245.99999999999997,273.56786195505674L240,274.84151048666916L234,276.08371090638985L228,277.2944632142189L222,278.47376741015626L216,279.62162349420197L210.00000000000003,280.738031466356L204.00000000000003,281.8229913266185L198,282.87650307498916L192,283.8985667114683L186,284.88918223605566L180,285.84834964875137L174,286.77606894955545L168.00000000000003,287.67234013846786L162,288.53716321548865L156,289.3705381806177L150,290.17246503385513L144,290.9429437752009L138,291.681974404655L132,292.3895569222174L126,293.0656913278882L120,293.71037762166725L114,294.32361580355473L108,294.9054058735505L102.00000000000001,295.4557478316546L96,295.97464167786706L90,296.4620874121878L84.00000000000001,296.918085034617L78,297.34263454515445L72,297.73573594380025L66,298.09738923055437L60,298.4275944054168L54,298.72635146838763L48,298.9936604194668L42.00000000000001,299.22952125865424L36,299.43393398595003L30,299.6068986013542L24,299.7484151048667L18,299.8584834964875L12,299.93710377621665L6,299.98427594405416L0,300" style="fill: none; stroke: #f58518; stroke-width: 2;"></path></g></g><path class="foreground" d="" style="display: none; fill: none;"></path></g><g transform="translate(0,0)"><path class="background" d="M0,0h600v400h-600Z" style="fill: none;"></path><g><g class="mark-line role-mark marks"><path d="M600,386.82999757510623L594,386.79583771527814L588,386.69335813579397L582,386.52255883665356L576,386.283439817857L570,385.9760010794043L564,385.6002426212954L558,385.15616444353043L552,384.64376654610925L546,384.0630489290319L540,383.41401159229844L534,382.69665453590875L528,381.91097775986293L522,381.056981264161L516,380.13466504880284L510,379.1440291137886L504,378.0850734591182L498.00000000000006,376.9577980847916L492.00000000000006,375.7622029908089L486.00000000000006,374.49828817716997L480,373.1660536438749L474,371.76549939092365L468,370.29662541831624L462,368.75943172605275L456,367.1539183141331L450,365.4800851825572L444,363.73793233132517L438,361.92745976043705L432,360.0486674698927L426,358.10155545969224L420.00000000000006,356.0861237298356L414.00000000000006,354.00237228032285L408.00000000000006,351.8503011111539L402,349.6299102223288L396,347.34119961384755L390,344.9841692857101L384,342.5588192379165L378,340.06514947046685L372,337.50315998336094L366,334.87285077659885L360,332.17422185018063L354,329.40727320410633L348,326.5720048383758L342.00000000000006,323.6684167529892L336.00000000000006,320.6965089479463L330,317.6562814232473L324,314.54773417889214L318,311.37086721488083L312,308.1256805312134L306,304.81217412788976L300,301.43034800491006L294,297.9802021622741L288,294.461736599982L282,290.87495131803377L276,287.21984631642937L270,283.4964215951688L264,279.70467715425207L258,275.8446129936792L252,271.9162291134502L245.99999999999997,267.919525513565L240,263.85450219402367L234,259.7211591548262L228,255.51949639597257L222,251.24951391746268L216,246.91121171929672L210.00000000000003,242.50458980147468L204.00000000000003,238.0296481639964L198,233.4863868068619L192,228.87480573007136L186,224.19490493362457L180,219.44668441752165L174,214.63014418176257L168.00000000000003,209.74528422634737L162,204.792104551276L156,199.77060515654844L150,194.68078604216475L144,189.52264720812488L138,184.2961886544289L132,179.00141038107668L126,173.63831238806836L120,168.20689467540387L114,162.70715724308326L108,157.13910009110643L102.00000000000001,151.50272321947352L96,145.79802662818446L90,140.02501031723918L84.00000000000001,134.18367428663777L78,128.27401853638017L72,122.29604306646644L66,116.2497478768965L60,110.13513296767047L54,103.95219833878828L48,97.70094399024991L42.00000000000001,91.38136992205541L36,84.9934761342047L30,78.5372626266979L24,72.01272939953496L18,65.41987645271573L12,58.75870378624049L6,52.02921140010894L0,45.231399294321406" style="fill: none; stroke: #4c78a8; stroke-width: 2;"></path></g></g><path class="foreground" d="" style="display: none; fill: none;"></path></g></g><g class="mark-group role-legend"><g transform="translate(620,0)"><path class="background" d="M0,0h77v59h-77Z" style="pointer-events: none; fill: none;"></path><g><g class="mark-group role-legend-entry"><g transform="translate(0,25)"><path class="background" d="M0,0h0v0h0Z" style="pointer-events: none; fill: none;"></path><g><g class="mark-group role-scope"><g transform="translate(0,0)"><path class="background" d="M0,0h76.06666564941406v16h-76.06666564941406Z" style="pointer-events: none; fill: none; opacity: 1;"></path><g><g class="mark-symbol role-legend-symbol" style="pointer-events: none;"><path transform="translate(8,8)" d="M-5,0L5,0" style="fill: none; stroke: #4c78a8; stroke-width: 1.5; opacity: 1;"></path></g><g class="mark-text role-legend-label" style="pointer-events: none;"><text text-anchor="start" transform="translate(20,13)" style="font-family: sans-serif; font-size: 16px; fill: #000; opacity: 1;">Crystal</text></g></g><path class="foreground" d="" style="pointer-events: none; display: none; fill: none;"></path></g><g transform="translate(0,18)"><path class="background" d="M0,0h76.06666564941406v16h-76.06666564941406Z" style="pointer-events: none; fill: none; opacity: 1;"></path><g><g class="mark-symbol role-legend-symbol" style="pointer-events: none;"><path transform="translate(8,8)" d="M-5,0L5,0" style="fill: none; stroke: #f58518; stroke-width: 1.5; opacity: 1;"></path></g><g class="mark-text role-legend-label" style="pointer-events: none;"><text text-anchor="start" transform="translate(20,13)" style="font-family: sans-serif; font-size: 16px; fill: #000; opacity: 1;">Liquid</text></g></g><path class="foreground" d="" style="pointer-events: none; display: none; fill: none;"></path></g></g></g><path class="foreground" d="" style="pointer-events: none; display: none; fill: none;"></path></g></g><g class="mark-text role-legend-title" style="pointer-events: none;"><text text-anchor="start" transform="translate(0,16)" style="font-family: sans-serif; font-size: 20px; font-weight: bold; fill: #000; opacity: 1;">Phase</text></g></g><path class="foreground" d="" style="pointer-events: none; display: none; fill: none;"></path></g></g><g class="mark-group role-axis"><g transform="translate(0.5,400.5)"><path class="background" d="M0,0h0v0h0Z" style="pointer-events: none; fill: none;"></path><g><g class="mark-rule role-axis-tick" style="pointer-events: none;"><line transform="translate(0,0)" x2="0" y2="5" style="fill: none; stroke: #888; stroke-width: 1; opacity: 1;"></line><line transform="translate(30,0)" x2="0" y2="5" style="fill: none; stroke: #888; stroke-width: 1; opacity: 1;"></line><line transform="translate(60,0)" x2="0" y2="5" style="fill: none; stroke: #888; stroke-width: 1; opacity: 1;"></line><line transform="translate(90,0)" x2="0" y2="5" style="fill: none; stroke: #888; stroke-width: 1; opacity: 1;"></line><line transform="translate(120,0)" x2="0" y2="5" style="fill: none; stroke: #888; stroke-width: 1; opacity: 1;"></line><line transform="translate(150,0)" x2="0" y2="5" style="fill: none; stroke: #888; stroke-width: 1; opacity: 1;"></line><line transform="translate(180,0)" x2="0" y2="5" style="fill: none; stroke: #888; stroke-width: 1; opacity: 1;"></line><line transform="translate(210,0)" x2="0" y2="5" style="fill: none; stroke: #888; stroke-width: 1; opacity: 1;"></line><line transform="translate(240,0)" x2="0" y2="5" style="fill: none; stroke: #888; stroke-width: 1; opacity: 1;"></line><line transform="translate(270,0)" x2="0" y2="5" style="fill: none; stroke: #888; stroke-width: 1; opacity: 1;"></line><line transform="translate(300,0)" x2="0" y2="5" style="fill: none; stroke: #888; stroke-width: 1; opacity: 1;"></line><line transform="translate(330,0)" x2="0" y2="5" style="fill: none; stroke: #888; stroke-width: 1; opacity: 1;"></line><line transform="translate(360,0)" x2="0" y2="5" style="fill: none; stroke: #888; stroke-width: 1; opacity: 1;"></line><line transform="translate(390,0)" x2="0" y2="5" style="fill: none; stroke: #888; stroke-width: 1; opacity: 1;"></line><line transform="translate(420,0)" x2="0" y2="5" style="fill: none; stroke: #888; stroke-width: 1; opacity: 1;"></line><line transform="translate(450,0)" x2="0" y2="5" style="fill: none; stroke: #888; stroke-width: 1; opacity: 1;"></line><line transform="translate(480,0)" x2="0" y2="5" style="fill: none; stroke: #888; stroke-width: 1; opacity: 1;"></line><line transform="translate(510,0)" x2="0" y2="5" style="fill: none; stroke: #888; stroke-width: 1; opacity: 1;"></line><line transform="translate(540,0)" x2="0" y2="5" style="fill: none; stroke: #888; stroke-width: 1; opacity: 1;"></line><line transform="translate(570,0)" x2="0" y2="5" style="fill: none; stroke: #888; stroke-width: 1; opacity: 1;"></line><line transform="translate(600,0)" x2="0" y2="5" style="fill: none; stroke: #888; stroke-width: 1; opacity: 1;"></line></g><g class="mark-text role-axis-label" style="pointer-events: none;"><text text-anchor="start" transform="translate(0,20)" style="font-family: sans-serif; font-size: 16px; fill: #000; opacity: 1;">0.00</text><text text-anchor="middle" transform="translate(30,20)" style="font-family: sans-serif; font-size: 16px; fill: #000; opacity: 0;">0.05</text><text text-anchor="middle" transform="translate(60,20)" style="font-family: sans-serif; font-size: 16px; fill: #000; opacity: 1;">0.10</text><text text-anchor="middle" transform="translate(90,20)" style="font-family: sans-serif; font-size: 16px; fill: #000; opacity: 0;">0.15</text><text text-anchor="middle" transform="translate(120,20)" style="font-family: sans-serif; font-size: 16px; fill: #000; opacity: 1;">0.20</text><text text-anchor="middle" transform="translate(150,20)" style="font-family: sans-serif; font-size: 16px; fill: #000; opacity: 0;">0.25</text><text text-anchor="middle" transform="translate(180,20)" style="font-family: sans-serif; font-size: 16px; fill: #000; opacity: 1;">0.30</text><text text-anchor="middle" transform="translate(210,20)" style="font-family: sans-serif; font-size: 16px; fill: #000; opacity: 0;">0.35</text><text text-anchor="middle" transform="translate(240,20)" style="font-family: sans-serif; font-size: 16px; fill: #000; opacity: 1;">0.40</text><text text-anchor="middle" transform="translate(270,20)" style="font-family: sans-serif; font-size: 16px; fill: #000; opacity: 0;">0.45</text><text text-anchor="middle" transform="translate(300,20)" style="font-family: sans-serif; font-size: 16px; fill: #000; opacity: 1;">0.50</text><text text-anchor="middle" transform="translate(330,20)" style="font-family: sans-serif; font-size: 16px; fill: #000; opacity: 0;">0.55</text><text text-anchor="middle" transform="translate(360,20)" style="font-family: sans-serif; font-size: 16px; fill: #000; opacity: 1;">0.60</text><text text-anchor="middle" transform="translate(390,20)" style="font-family: sans-serif; font-size: 16px; fill: #000; opacity: 0;">0.65</text><text text-anchor="middle" transform="translate(420,20)" style="font-family: sans-serif; font-size: 16px; fill: #000; opacity: 1;">0.70</text><text text-anchor="middle" transform="translate(450,20)" style="font-family: sans-serif; font-size: 16px; fill: #000; opacity: 0;">0.75</text><text text-anchor="middle" transform="translate(480,20)" style="font-family: sans-serif; font-size: 16px; fill: #000; opacity: 1;">0.80</text><text text-anchor="middle" transform="translate(510,20)" style="font-family: sans-serif; font-size: 16px; fill: #000; opacity: 0;">0.85</text><text text-anchor="middle" transform="translate(540,20)" style="font-family: sans-serif; font-size: 16px; fill: #000; opacity: 1;">0.90</text><text text-anchor="middle" transform="translate(570,20)" style="font-family: sans-serif; font-size: 16px; fill: #000; opacity: 0;">0.95</text><text text-anchor="end" transform="translate(600,20)" style="font-family: sans-serif; font-size: 16px; fill: #000; opacity: 1;">1.00</text></g><g class="mark-rule role-axis-domain" style="pointer-events: none;"><line transform="translate(0,0)" x2="600" y2="0" style="fill: none; stroke: #888; stroke-width: 1; opacity: 1;"></line></g><g class="mark-text role-axis-title" style="pointer-events: none;"><text text-anchor="middle" transform="translate(300,43)" style="font-family: sans-serif; font-size: 20px; font-weight: bold; fill: #000; opacity: 1;">M/Mₛ</text></g></g><path class="foreground" d="" style="pointer-events: none; display: none; fill: none;"></path></g></g><g class="mark-group role-axis"><g transform="translate(0.5,0.5)"><path class="background" d="M0,0h0v0h0Z" style="pointer-events: none; fill: none;"></path><g><g class="mark-rule role-axis-tick" style="pointer-events: none;"><line transform="translate(0,400)" x2="-5" y2="0" style="fill: none; stroke: #888; stroke-width: 1; opacity: 1;"></line><line transform="translate(0,350)" x2="-5" y2="0" style="fill: none; stroke: #888; stroke-width: 1; opacity: 1;"></line><line transform="translate(0,300)" x2="-5" y2="0" style="fill: none; stroke: #888; stroke-width: 1; opacity: 1;"></line><line transform="translate(0,250)" x2="-5" y2="0" style="fill: none; stroke: #888; stroke-width: 1; opacity: 1;"></line><line transform="translate(0,200)" x2="-5" y2="0" style="fill: none; stroke: #888; stroke-width: 1; opacity: 1;"></line><line transform="translate(0,150)" x2="-5" y2="0" style="fill: none; stroke: #888; stroke-width: 1; opacity: 1;"></line><line transform="translate(0,100)" x2="-5" y2="0" style="fill: none; stroke: #888; stroke-width: 1; opacity: 1;"></line><line transform="translate(0,50)" x2="-5" y2="0" style="fill: none; stroke: #888; stroke-width: 1; opacity: 1;"></line><line transform="translate(0,0)" x2="-5" y2="0" style="fill: none; stroke: #888; stroke-width: 1; opacity: 1;"></line></g><g class="mark-text role-axis-label" style="pointer-events: none;"><text text-anchor="end" transform="translate(-7,405)" style="font-family: sans-serif; font-size: 16px; fill: #000; opacity: 1;">-0.4</text><text text-anchor="end" transform="translate(-7,355)" style="font-family: sans-serif; font-size: 16px; fill: #000; opacity: 1;">-0.2</text><text text-anchor="end" transform="translate(-7,305)" style="font-family: sans-serif; font-size: 16px; fill: #000; opacity: 1;">0.0</text><text text-anchor="end" transform="translate(-7,255)" style="font-family: sans-serif; font-size: 16px; fill: #000; opacity: 1;">0.2</text><text text-anchor="end" transform="translate(-7,205)" style="font-family: sans-serif; font-size: 16px; fill: #000; opacity: 1;">0.4</text><text text-anchor="end" transform="translate(-7,155)" style="font-family: sans-serif; font-size: 16px; fill: #000; opacity: 1;">0.6</text><text text-anchor="end" transform="translate(-7,104.99999999999996)" style="font-family: sans-serif; font-size: 16px; fill: #000; opacity: 1;">0.8</text><text text-anchor="end" transform="translate(-7,55.00000000000004)" style="font-family: sans-serif; font-size: 16px; fill: #000; opacity: 1;">1.0</text><text text-anchor="end" transform="translate(-7,5)" style="font-family: sans-serif; font-size: 16px; fill: #000; opacity: 1;">1.2</text></g><g class="mark-rule role-axis-domain" style="pointer-events: none;"><line transform="translate(0,400)" x2="0" y2="-400" style="fill: none; stroke: #888; stroke-width: 1; opacity: 1;"></line></g></g><path class="foreground" d="" style="pointer-events: none; display: none; fill: none;"></path></g></g></g><path class="foreground" d="" style="display: none; fill: none;"></path></g></g></g></svg>