<svg class="marks" width="730" height="465" viewBox="0 0 730 465" version="1.1" xmlns="http://www.w3.org/2000/svg" xmlns:xlink="http://www.w3.org/1999/xlink"><rect width="730" height="465" style="fill: white;"></rect><g transform="translate(35,13)"><g class="mark-group role-frame root"><g transform="translate(0,0)"><path class="background" d="M0.5,0.5h600v400h-600Z" style="fill: none; stroke: #ddd;"></path><g><g class="mark-group role-axis"><g transform="translate(0.5,400.5)"><path class="background" d="M0,0h0v0h0Z" style="pointer-events: none; fill: none;"></path><g><g class="mark-rule role-axis-tick" style="pointer-events: none;"><line transform="translate(0,0)" x2="0" y2="5" style="fill: none; stroke: #888; stroke-width: 1; opacity: 1;"></line><line transform="translate(30,0)" x2="0" y2="5" style="fill: none; stroke: #888; stroke-width: 1; opacity: 1;"></line><line transform="translate(60,0)" x2="0" y2="5" style="fill: none; stroke: #888; stroke-width: 1; opacity: 1;"></line><line transform="translate(90,0)" x2="0" y2="5" style="fill: none; stroke: #888; stroke-width: 1; opacity: 1;"></line><line transform="translate(120,0)" x2="0" y2="5" style="fill: none; stroke: #888; stroke-width: 1; opacity: 1;"></line><line transform="translate(150,0)" x2="0" y2="5" style="fill: none; stroke: #888; stroke-width: 1; opacity: 1;"></line><line transform="translate(180,0)" x2="0" y2="5" style="fill: none; stroke: #888; stroke-width: 1; opacity: 1;"></line><line transform="translate(210,0)" x2="0" y2="5" style="fill: none; stroke: #888; stroke-width: 1; opacity: 1;"></line><line transform="translate(240,0)" x2="0" y2="5" style="fill: none; stroke: #888; stroke-width: 1; opacity: 1;"></line><line transform="translate(270,0)" x2="0" y2="5" style="fill: none; stroke: #888; stroke-width: 1; opacity: 1;"></line><line transform="translate(300,0)" x2="0" y2="5" style="fill: none; stroke: #888; stroke-width: 1; opacity: 1;"></line><line transform="translate(330,0)" x2="0" y2="5" style="fill: none; stroke: #888; stroke-width: 1; opacity: 1;"></line><line transform="translate(360,0)" x2="0" y2="5" style="fill: none; stroke: #888; stroke-width: 1; opacity: 1;"></line><line transform="translate(390,0)" x2="0" y2="5" style="fill: none; stroke: #888; stroke-width: 1; opacity: 1;"></line><line transform="translate(420,0)" x2="0" y2="5" style="fill: none; stroke: #888; stroke-width: 1; opacity: 1;"></line><line transform="translate(450,0)" x2="0" y2="5" style="fill: none; stroke: #888; stroke-width: 1; opacity: 1;"></line><line transform="translate(480,0)" x2="0" y2="5" style="fill: none; stroke: #888; stroke-width: 1; opacity: 1;"></line><line transform="translate(510,0)" x2="0" y2="5" style="fill: none; stroke: #888; stroke-width: 1; opacity: 1;"></line><line transform="translate(540,0)" x2="0" y2="5" style="fill: none; stroke: #888; stroke-width: 1; opacity: 1;"></line><line transform="translate(570,0)" x2="0" y2="5" style="fill: none; stroke: #888; stroke-width: 1; opacity: 1;"></line><line transform="translate(600,0)" x2="0" y2="5" style="fill: none; stroke: #888; stroke-width: 1; opacity: 1;"></line></g><g class="mark-text role-axis-label" style="pointer-events: none;"><text text-anchor="start" transform="translate(0,20)" style="font-family: Roboto; font-size: 16px; fill: #000; opacity: 1;">0.00</text><text text-anchor="middle" transform="translate(30,20)" style="font-family: Roboto; font-size: 16px; fill: #000; opacity: 0;">0.05</text><text text-anchor="middle" transform="translate(60,20)" style="font-family: Roboto; font-size: 16px; fill: #000; opacity: 1;">0.10</text><text text-anchor="middle" transform="translate(90,20)" style="font-family: Roboto; font-size: 16px; fill: #000; opacity: 0;">0.15</text><text text-anchor="middle" transform="translate(120,20)" style="font-family: Roboto; font-size: 16px; fill: #000; opacity: 1;">0.20</text><text text-anchor="middle" transform="translate(150,20)" style="font-family: Roboto; font-size: 16px; fill: #000; opacity: 0;">0.25</text><text text-anchor="middle" transform="translate(180,20)" style="font-family: Roboto; font-size: 16px; fill: #000; opacity: 1;">0.30</text><text text-anchor="middle" transform="translate(210,20)" style="font-family: Roboto; font-size: 16px; fill: #000; opacity: 0;">0.35</text><text text-anchor="middle" transform="translate(240,20)" style="font-family: Roboto; font-size: 16px; fill: #000; opacity: 1;">0.40</text><text text-anchor="middle" transform="translate(270,20)" style="font-family: Roboto; font-size: 16px; fill: #000; opacity: 0;">0.45</text><text text-anchor="middle" transform="translate(300,20)" style="font-family: Roboto; font-size: 16px; fill: #000; opacity: 1;">0.50</text><text text-anchor="middle" transform="translate(330,20)" style="font-family: Roboto; font-size: 16px; fill: #000; opacity: 0;">0.55</text><text text-anchor="middle" transform="translate(360,20)" style="font-family: Roboto; font-size: 16px; fill: #000; opacity: 1;">0.60</text><text text-anchor="middle" transform="translate(390,20)" style="font-family: Roboto; font-size: 16px; fill: #000; opacity: 0;">0.65</text><text text-anchor="middle" transform="translate(420,20)" style="font-family: Roboto; font-size: 16px; fill: #000; opacity: 1;">0.70</text><text text-anchor="middle" transform="translate(450,20)" style="font-family: Roboto; font-size: 16px; fill: #000; opacity: 0;">0.75</text><text text-anchor="middle" transform="translate(480,20)" style="font-family: Roboto; font-size: 16px; fill: #000; opacity: 1;">0.80</text><text text-anchor="middle" transform="translate(510,20)" style="font-family: Roboto; font-size: 16px; fill: #000; opacity: 0;">0.85</text><text text-anchor="middle" transform="translate(540,20)" style="font-family: Roboto; font-size: 16px; fill: #000; opacity: 1;">0.90</text><text text-anchor="middle" transform="translate(570,20)" style="font-family: Roboto; font-size: 16px; fill: #000; opacity: 0;">0.95</text><text text-anchor="end" transform="translate(600,20)" style="font-family: Roboto; font-size: 16px; fill: #000; opacity: 1;">1.00</text></g><g class="mark-rule role-axis-domain" style="pointer-events: none;"><line transform="translate(0,0)" x2="600" y2="0" style="fill: none; stroke: #888; stroke-width: 1; opacity: 1;"></line></g><g class="mark-text role-axis-title" style="pointer-events: none;"><text text-anchor="middle" transform="translate(300,43)" style="font-family: Roboto; font-size: 20px; font-weight: bold; fill: #000; opacity: 1;">M</text></g></g><path class="foreground" d="" style="pointer-events: none; display: none; fill: none;"></path></g></g><g class="mark-group role-axis"><g transform="translate(0.5,0.5)"><path class="background" d="M0,0h0v0h0Z" style="pointer-events: none; fill: none;"></path><g><g class="mark-rule role-axis-tick" style="pointer-events: none;"><line transform="translate(0,400)" x2="-5" y2="0" style="fill: none; stroke: #888; stroke-width: 1; opacity: 1;"></line><line transform="translate(0,360)" x2="-5" y2="0" style="fill: none; stroke: #888; stroke-width: 1; opacity: 1;"></line><line transform="translate(0,320)" x2="-5" y2="0" style="fill: none; stroke: #888; stroke-width: 1; opacity: 1;"></line><line transform="translate(0,280)" x2="-5" y2="0" style="fill: none; stroke: #888; stroke-width: 1; opacity: 1;"></line><line transform="translate(0,240)" x2="-5" y2="0" style="fill: none; stroke: #888; stroke-width: 1; opacity: 1;"></line><line transform="translate(0,200)" x2="-5" y2="0" style="fill: none; stroke: #888; stroke-width: 1; opacity: 1;"></line><line transform="translate(0,160)" x2="-5" y2="0" style="fill: none; stroke: #888; stroke-width: 1; opacity: 1;"></line><line transform="translate(0,120)" x2="-5" y2="0" style="fill: none; stroke: #888; stroke-width: 1; opacity: 1;"></line><line transform="translate(0,80)" x2="-5" y2="0" style="fill: none; stroke: #888; stroke-width: 1; opacity: 1;"></line><line transform="translate(0,40)" x2="-5" y2="0" style="fill: none; stroke: #888; stroke-width: 1; opacity: 1;"></line><line transform="translate(0,0)" x2="-5" y2="0" style="fill: none; stroke: #888; stroke-width: 1; opacity: 1;"></line></g><g class="mark-text role-axis-label" style="pointer-events: none;"><text text-anchor="end" transform="translate(-7,405)" style="font-family: Roboto; font-size: 16px; fill: #000; opacity: 1;">0.0</text><text text-anchor="end" transform="translate(-7,365)" style="font-family: Roboto; font-size: 16px; fill: #000; opacity: 1;">0.1</text><text text-anchor="end" transform="translate(-7,325)" style="font-family: Roboto; font-size: 16px; fill: #000; opacity: 1;">0.2</text><text text-anchor="end" transform="translate(-7,285)" style="font-family: Roboto; font-size: 16px; fill: #000; opacity: 1;">0.3</text><text text-anchor="end" transform="translate(-7,245)" style="font-family: Roboto; font-size: 16px; fill: #000; opacity: 1;">0.4</text><text text-anchor="end" transform="translate(-7,205)" style="font-family: Roboto; font-size: 16px; fill: #000; opacity: 1;">0.5</text><text text-anchor="end" transform="translate(-7,165)" style="font-family: Roboto; font-size: 16px; fill: #000; opacity: 1;">0.6</text><text text-anchor="end" transform="translate(-7,125.00000000000001)" style="font-family: Roboto; font-size: 16px; fill: #000; opacity: 1;">0.7</text><text text-anchor="end" transform="translate(-7,84.99999999999999)" style="font-family: Roboto; font-size: 16px; fill: #000; opacity: 1;">0.8</text><text text-anchor="end" transform="translate(-7,44.99999999999999)" style="font-family: Roboto; font-size: 16px; fill: #000; opacity: 1;">0.9</text><text text-anchor="end" transform="translate(-7,5)" style="font-family: Roboto; font-size: 16px; fill: #000; opacity: 1;">1.0</text></g><g class="mark-rule role-axis-domain" style="pointer-events: none;"><line transform="translate(0,400)" x2="0" y2="-400" style="fill: none; stroke: #888; stroke-width: 1; opacity: 1;"></line></g></g><path class="foreground" d="" style="pointer-events: none; display: none; fill: none;"></path></g></g><g class="mark-group role-scope pathgroup"><g transform="translate(0,0)"><path class="background" d="M0,0h600v400h-600Z" style="fill: none;"></path><g><g class="mark-line role-mark marks"><path d="M0,400L6,399.96L12,399.84000000000003L18,399.64L24,399.35999999999996L30,399L36,398.56L42.00000000000001,398.04L48,397.44L54,396.76L60,396L66,395.16L72,394.24L78,393.24L84.00000000000001,392.16L90,391L96,389.76L102.00000000000001,388.44L108,387.04L114,385.56L120,384L126,382.36L132,380.64L138,378.84000000000003L144,376.96L150,375L156,372.96L162,370.84000000000003L168.00000000000003,368.64L174,366.36L180,364L186,361.56L192,359.03999999999996L198,356.44L204.00000000000003,353.76L210.00000000000003,351L216,348.16L222,345.24L228,342.24L234,339.15999999999997L240,336L245.99999999999997,332.76L252,329.44L258,326.03999999999996L264,322.56L270,319L276,315.36L282,311.64L288,307.84000000000003L294,303.96000000000004L300,300L306,295.96L312,291.84000000000003L318,287.64L324,283.35999999999996L330,279L336.00000000000006,274.55999999999995L342.00000000000006,270.03999999999996L348,265.44L354,260.76L360,256L366,251.16L372,246.23999999999998L378,241.23999999999998L384,236.16000000000003L390,231L396,225.76L402,220.43999999999997L408.00000000000006,215.03999999999994L414.00000000000006,209.55999999999997L420.00000000000006,203.99999999999997L426,198.36L432,192.64000000000001L438,186.84000000000003L444,180.96L450,175L456,168.96L462,162.84L468,156.64L474,150.35999999999996L480,143.99999999999994L486.00000000000006,137.55999999999995L492.00000000000006,131.03999999999996L498.00000000000006,124.43999999999997L504,117.76000000000005L510,111.00000000000003L516,104.16000000000003L522,97.24L528,90.24000000000001L534,83.16L540,75.99999999999997L546,68.75999999999998L552,61.43999999999998L558,54.03999999999996L564,46.55999999999993L570,39.000000000000014L576,31.36000000000001L582,23.640000000000015L588,15.839999999999987L594,7.9600000000000115L600,0" style="fill: none; stroke: #f58518; stroke-width: 2;"></path></g></g><path class="foreground" d="" style="display: none; fill: none;"></path></g><g transform="translate(0,0)"><path class="background" d="M0,0h600v400h-600Z" style="fill: none;"></path><g><g class="mark-line role-mark marks"><path d="M0,0L6,7.9600000000000115L12,15.839999999999987L18,23.640000000000015L24,31.36000000000001L30,39.000000000000014L36,46.560000000000024L42.00000000000001,54.04000000000004L48,61.43999999999998L54,68.75999999999998L60,75.99999999999997L66,83.16L72,90.24000000000001L78,97.24L84.00000000000001,104.16000000000003L90,111.00000000000003L96,117.76000000000005L102.00000000000001,124.44000000000001L108,131.03999999999996L114,137.55999999999995L120,143.99999999999994L126,150.35999999999996L132,156.64L138,162.84L144,168.96L150,175L156,180.96L162,186.84000000000003L168.00000000000003,192.64000000000001L174,198.36L180,204L186,209.56L192,215.04000000000002L198,220.44000000000005L204.00000000000003,225.76000000000005L210.00000000000003,231.00000000000006L216,236.16000000000003L222,241.23999999999998L228,246.23999999999998L234,251.16L240,256L245.99999999999997,260.76L252,265.44L258,270.03999999999996L264,274.55999999999995L270,279L276,283.35999999999996L282,287.64L288,291.84000000000003L294,295.96L300,300L306,303.96000000000004L312,307.84000000000003L318,311.64L324,315.36L330,319.00000000000006L336.00000000000006,322.56L342.00000000000006,326.04L348,329.44L354,332.76L360,336L366,339.15999999999997L372,342.24L378,345.24L384,348.16L390,351L396,353.76000000000005L402,356.44L408.00000000000006,359.04L414.00000000000006,361.56L420.00000000000006,364L426,366.35999999999996L432,368.64L438,370.84000000000003L444,372.96L450,375L456,376.96L462,378.84000000000003L468,380.64L474,382.36L480,384L486.00000000000006,385.56L492.00000000000006,387.04L498.00000000000006,388.44000000000005L504,389.76L510,391L516,392.16L522,393.24L528,394.24L534,395.16L540,396L546,396.76L552,397.44L558,398.04L564,398.56L570,399L576,399.35999999999996L582,399.64L588,399.84000000000003L594,399.96L600,400" style="fill: none; stroke: #4c78a8; stroke-width: 2;"></path></g></g><path class="foreground" d="" style="display: none; fill: none;"></path></g></g><g class="mark-group role-legend"><g transform="translate(620,0)"><path class="background" d="M0,0h70v59h-70Z" style="pointer-events: none; fill: none;"></path><g><g class="mark-group role-legend-entry"><g transform="translate(0,25)"><path class="background" d="M0,0h0v0h0Z" style="pointer-events: none; fill: none;"></path><g><g class="mark-group role-scope"><g transform="translate(0,0)"><path class="background" d="M0,0h69.61666488647461v16h-69.61666488647461Z" style="pointer-events: none; fill: none; opacity: 1;"></path><g><g class="mark-symbol role-legend-symbol" style="pointer-events: none;"><path transform="translate(8,8)" d="M-5,0L5,0" style="fill: none; stroke: #4c78a8; stroke-width: 1.5; opacity: 1;"></path></g><g class="mark-text role-legend-label" style="pointer-events: none;"><text text-anchor="start" transform="translate(20,13)" style="font-family: Roboto; font-size: 16px; fill: #000; opacity: 1;">Crystal</text></g></g><path class="foreground" d="" style="pointer-events: none; display: none; fill: none;"></path></g><g transform="translate(0,18)"><path class="background" d="M0,0h69.61666488647461v16h-69.61666488647461Z" style="pointer-events: none; fill: none; opacity: 1;"></path><g><g class="mark-symbol role-legend-symbol" style="pointer-events: none;"><path transform="translate(8,8)" d="M-5,0L5,0" style="fill: none; stroke: #f58518; stroke-width: 1.5; opacity: 1;"></path></g><g class="mark-text role-legend-label" style="pointer-events: none;"><text text-anchor="start" transform="translate(20,13)" style="font-family: Roboto; font-size: 16px; fill: #000; opacity: 1;">Liquid</text></g></g><path class="foreground" d="" style="pointer-events: none; display: none; fill: none;"></path></g></g></g><path class="foreground" d="" style="pointer-events: none; display: none; fill: none;"></path></g></g><g class="mark-text role-legend-title" style="pointer-events: none;"><text text-anchor="start" transform="translate(0,16)" style="font-family: Roboto; font-size: 20px; font-weight: bold; fill: #000; opacity: 1;">Phase</text></g></g><path class="foreground" d="" style="pointer-events: none; display: none; fill: none;"></path></g></g></g><path class="foreground" d="" style="display: none; fill: none;"></path></g></g></g></svg>