<svg class="marks" width="812" height="465" viewBox="0 0 812 465" version="1.1" xmlns="http://www.w3.org/2000/svg" xmlns:xlink="http://www.w3.org/1999/xlink"><rect width="812" height="465" fill="white"></rect><g fill="none" stroke-miterlimit="10" transform="translate(108,13)"><g class="mark-group role-frame root" role="graphics-object" aria-roledescription="group mark container"><g transform="translate(0,0)"><path class="background" aria-hidden="true" d="M0.5,0.5h600v400h-600Z" stroke="#ddd"></path><g><g class="mark-group role-axis" role="graphics-symbol" aria-roledescription="axis" aria-label="X-axis titled 'T/Tm' for a linear scale with values from 0.96 to 1.20"><g transform="translate(0.5,400.5)"><path class="background" aria-hidden="true" d="M0,0h0v0h0Z" pointer-events="none"></path><g><g class="mark-rule role-axis-tick" pointer-events="none"><line transform="translate(0,0)" x2="0" y2="5" stroke="#888" stroke-width="1" opacity="1"></line><line transform="translate(50,0)" x2="0" y2="5" stroke="#888" stroke-width="1" opacity="1"></line><line transform="translate(100,0)" x2="0" y2="5" stroke="#888" stroke-width="1" opacity="1"></line><line transform="translate(150,0)" x2="0" y2="5" stroke="#888" stroke-width="1" opacity="1"></line><line transform="translate(200,0)" x2="0" y2="5" stroke="#888" stroke-width="1" opacity="1"></line><line transform="translate(250,0)" x2="0" y2="5" stroke="#888" stroke-width="1" opacity="1"></line><line transform="translate(300,0)" x2="0" y2="5" stroke="#888" stroke-width="1" opacity="1"></line><line transform="translate(350,0)" x2="0" y2="5" stroke="#888" stroke-width="1" opacity="1"></line><line transform="translate(400,0)" x2="0" y2="5" stroke="#888" stroke-width="1" opacity="1"></line><line transform="translate(450,0)" x2="0" y2="5" stroke="#888" stroke-width="1" opacity="1"></line><line transform="translate(500,0)" x2="0" y2="5" stroke="#888" stroke-width="1" opacity="1"></line><line transform="translate(550,0)" x2="0" y2="5" stroke="#888" stroke-width="1" opacity="1"></line><line transform="translate(600,0)" x2="0" y2="5" stroke="#888" stroke-width="1" opacity="1"></line></g><g class="mark-text role-axis-label" pointer-events="none"><text text-anchor="start" transform="translate(0,20)" font-family="Roboto" font-size="16px" fill="#000" opacity="1">0.96</text><text text-anchor="middle" transform="translate(50.00000000000005,20)" font-family="Roboto" font-size="16px" fill="#000" opacity="1">0.98</text><text text-anchor="middle" transform="translate(100.0000000000001,20)" font-family="Roboto" font-size="16px" fill="#000" opacity="1">1.00</text><text text-anchor="middle" transform="translate(150.00000000000014,20)" font-family="Roboto" font-size="16px" fill="#000" opacity="1">1.02</text><text text-anchor="middle" transform="translate(200.0000000000002,20)" font-family="Roboto" font-size="16px" fill="#000" opacity="1">1.04</text><text text-anchor="middle" transform="translate(250.00000000000026,20)" font-family="Roboto" font-size="16px" fill="#000" opacity="1">1.06</text><text text-anchor="middle" transform="translate(300.0000000000003,20)" font-family="Roboto" font-size="16px" fill="#000" opacity="1">1.08</text><text text-anchor="middle" transform="translate(350.00000000000034,20)" font-family="Roboto" font-size="16px" fill="#000" opacity="1">1.10</text><text text-anchor="middle" transform="translate(400.0000000000004,20)" font-family="Roboto" font-size="16px" fill="#000" opacity="1">1.12</text><text text-anchor="middle" transform="translate(449.9999999999999,20)" font-family="Roboto" font-size="16px" fill="#000" opacity="1">1.14</text><text text-anchor="middle" transform="translate(499.9999999999999,20)" font-family="Roboto" font-size="16px" fill="#000" opacity="1">1.16</text><text text-anchor="middle" transform="translate(550,20)" font-family="Roboto" font-size="16px" fill="#000" opacity="1">1.18</text><text text-anchor="end" transform="translate(600,20)" font-family="Roboto" font-size="16px" fill="#000" opacity="1">1.20</text></g><g class="mark-rule role-axis-domain" pointer-events="none"><line transform="translate(0,0)" x2="600" y2="0" stroke="#888" stroke-width="1" opacity="1"></line></g><g class="mark-text role-axis-title" pointer-events="none"><text text-anchor="middle" transform="translate(300,43)" font-family="Roboto" font-size="20px" font-weight="bold" fill="#000" opacity="1">T/Tm</text></g></g><path class="foreground" aria-hidden="true" d="" pointer-events="none" display="none"></path></g></g><g class="mark-group role-axis" role="graphics-symbol" aria-roledescription="axis" aria-label="Y-axis titled 'Melting Rate' for a linear scale with values from -0.00008 to 0.00001"><g transform="translate(0.5,0.5)"><path class="background" aria-hidden="true" d="M0,0h0v0h0Z" pointer-events="none"></path><g><g class="mark-rule role-axis-tick" pointer-events="none"><line transform="translate(0,400)" x2="-5" y2="0" stroke="#888" stroke-width="1" opacity="1"></line><line transform="translate(0,356)" x2="-5" y2="0" stroke="#888" stroke-width="1" opacity="1"></line><line transform="translate(0,311)" x2="-5" y2="0" stroke="#888" stroke-width="1" opacity="1"></line><line transform="translate(0,267)" x2="-5" y2="0" stroke="#888" stroke-width="1" opacity="1"></line><line transform="translate(0,222)" x2="-5" y2="0" stroke="#888" stroke-width="1" opacity="1"></line><line transform="translate(0,178)" x2="-5" y2="0" stroke="#888" stroke-width="1" opacity="1"></line><line transform="translate(0,133)" x2="-5" y2="0" stroke="#888" stroke-width="1" opacity="1"></line><line transform="translate(0,89)" x2="-5" y2="0" stroke="#888" stroke-width="1" opacity="1"></line><line transform="translate(0,44)" x2="-5" y2="0" stroke="#888" stroke-width="1" opacity="1"></line><line transform="translate(0,0)" x2="-5" y2="0" stroke="#888" stroke-width="1" opacity="1"></line></g><g class="mark-text role-axis-label" pointer-events="none"><text text-anchor="end" transform="translate(-7,405)" font-family="Roboto" font-size="16px" fill="#000" opacity="1">-0.000080</text><text text-anchor="end" transform="translate(-7,360.5555555555555)" font-family="Roboto" font-size="16px" fill="#000" opacity="1">-0.000070</text><text text-anchor="end" transform="translate(-7,316.1111111111111)" font-family="Roboto" font-size="16px" fill="#000" opacity="1">-0.000060</text><text text-anchor="end" transform="translate(-7,271.66666666666663)" font-family="Roboto" font-size="16px" fill="#000" opacity="1">-0.000050</text><text text-anchor="end" transform="translate(-7,227.22222222222223)" font-family="Roboto" font-size="16px" fill="#000" opacity="1">-0.000040</text><text text-anchor="end" transform="translate(-7,182.77777777777777)" font-family="Roboto" font-size="16px" fill="#000" opacity="1">-0.000030</text><text text-anchor="end" transform="translate(-7,138.33333333333331)" font-family="Roboto" font-size="16px" fill="#000" opacity="1">-0.000020</text><text text-anchor="end" transform="translate(-7,93.88888888888889)" font-family="Roboto" font-size="16px" fill="#000" opacity="1">-0.000010</text><text text-anchor="end" transform="translate(-7,49.44444444444442)" font-family="Roboto" font-size="16px" fill="#000" opacity="1">0.000000</text><text text-anchor="end" transform="translate(-7,5)" font-family="Roboto" font-size="16px" fill="#000" opacity="1">0.000010</text></g><g class="mark-rule role-axis-domain" pointer-events="none"><line transform="translate(0,400)" x2="0" y2="-400" stroke="#888" stroke-width="1" opacity="1"></line></g><g class="mark-text role-axis-title" pointer-events="none"><text text-anchor="middle" transform="translate(-82.63333129882812,200) rotate(-90) translate(0,-4)" font-family="Roboto" font-size="20px" font-weight="bold" fill="#000" opacity="1">Melting Rate</text></g></g><path class="foreground" aria-hidden="true" d="" pointer-events="none" display="none"></path></g></g><g class="mark-symbol role-mark layer_0_marks" role="graphics-symbol" aria-roledescription="symbol mark container"><path transform="translate(30.555555555555618,44.51452874613984)" d="M2.7386127875258306,0A2.7386127875258306,2.7386127875258306,0,1,1,-2.7386127875258306,0A2.7386127875258306,2.7386127875258306,0,1,1,2.7386127875258306,0" stroke="#4c78a8" stroke-width="2" opacity="0.7"></path><path transform="translate(100.0000000000001,44.9913700785141)" d="M2.7386127875258306,0A2.7386127875258306,2.7386127875258306,0,1,1,-2.7386127875258306,0A2.7386127875258306,2.7386127875258306,0,1,1,2.7386127875258306,0" stroke="#4c78a8" stroke-width="2" opacity="0.7"></path><path transform="translate(169.44444444444485,46.18036428543664)" d="M2.7386127875258306,0A2.7386127875258306,2.7386127875258306,0,1,1,-2.7386127875258306,0A2.7386127875258306,2.7386127875258306,0,1,1,2.7386127875258306,0" stroke="#4c78a8" stroke-width="2" opacity="0.7"></path><path transform="translate(238.88888888888906,49.87752513069257)" d="M2.7386127875258306,0A2.7386127875258306,2.7386127875258306,0,1,1,-2.7386127875258306,0A2.7386127875258306,2.7386127875258306,0,1,1,2.7386127875258306,0" stroke="#4c78a8" stroke-width="2" opacity="0.7"></path><path transform="translate(308.3333333333344,56.20762211992955)" d="M2.7386127875258306,0A2.7386127875258306,2.7386127875258306,0,1,1,-2.7386127875258306,0A2.7386127875258306,2.7386127875258306,0,1,1,2.7386127875258306,0" stroke="#4c78a8" stroke-width="2" opacity="0.7"></path><path transform="translate(377.777777777778,72.14481887998372)" d="M2.7386127875258306,0A2.7386127875258306,2.7386127875258306,0,1,1,-2.7386127875258306,0A2.7386127875258306,2.7386127875258306,0,1,1,2.7386127875258306,0" stroke="#4c78a8" stroke-width="2" opacity="0.7"></path><path transform="translate(516.666666666667,142.94594946825242)" d="M2.7386127875258306,0A2.7386127875258306,2.7386127875258306,0,1,1,-2.7386127875258306,0A2.7386127875258306,2.7386127875258306,0,1,1,2.7386127875258306,0" stroke="#4c78a8" stroke-width="2" opacity="0.7"></path><path transform="translate(62.962962962963005,44.94540908282274)" d="M2.7386127875258306,0A2.7386127875258306,2.7386127875258306,0,1,1,-2.7386127875258306,0A2.7386127875258306,2.7386127875258306,0,1,1,2.7386127875258306,0" stroke="#f58518" stroke-width="2" opacity="0.7"></path><path transform="translate(100.0000000000001,45.54793196321523)" d="M2.7386127875258306,0A2.7386127875258306,2.7386127875258306,0,1,1,-2.7386127875258306,0A2.7386127875258306,2.7386127875258306,0,1,1,2.7386127875258306,0" stroke="#f58518" stroke-width="2" opacity="0.7"></path><path transform="translate(155.55555555555492,46.95083862510066)" d="M2.7386127875258306,0A2.7386127875258306,2.7386127875258306,0,1,1,-2.7386127875258306,0A2.7386127875258306,2.7386127875258306,0,1,1,2.7386127875258306,0" stroke="#f58518" stroke-width="2" opacity="0.7"></path><path transform="translate(192.59259259259255,48.45391851446057)" d="M2.7386127875258306,0A2.7386127875258306,2.7386127875258306,0,1,1,-2.7386127875258306,0A2.7386127875258306,2.7386127875258306,0,1,1,2.7386127875258306,0" stroke="#f58518" stroke-width="2" opacity="0.7"></path><path transform="translate(285.185185185185,56.714671569070774)" d="M2.7386127875258306,0A2.7386127875258306,2.7386127875258306,0,1,1,-2.7386127875258306,0A2.7386127875258306,2.7386127875258306,0,1,1,2.7386127875258306,0" stroke="#f58518" stroke-width="2" opacity="0.7"></path><path transform="translate(377.77777777777743,75.70692019028212)" d="M2.7386127875258306,0A2.7386127875258306,2.7386127875258306,0,1,1,-2.7386127875258306,0A2.7386127875258306,2.7386127875258306,0,1,1,2.7386127875258306,0" stroke="#f58518" stroke-width="2" opacity="0.7"></path><path transform="translate(562.9629629629629,183.23828555674768)" d="M2.7386127875258306,0A2.7386127875258306,2.7386127875258306,0,1,1,-2.7386127875258306,0A2.7386127875258306,2.7386127875258306,0,1,1,2.7386127875258306,0" stroke="#f58518" stroke-width="2" opacity="0.7"></path></g><g class="mark-group role-scope layer_1_pathgroup" role="graphics-object" aria-roledescription="group mark container"><g transform="translate(0,0)"><path class="background" aria-hidden="true" d="M0,0h600v400h-600Z"></path><g><g class="mark-line role-mark layer_1_marks" role="graphics-symbol" aria-roledescription="line mark container"><path d="M30.555555555555618,43.34399529321695L42.1296296296297,43.52740348508819C53.70370370370378,43.710811676959445,76.85185185185195,44.07762806070193,100.00000000000016,44.97368056522337C123.14814814814834,45.86973306974482,146.29629629629662,47.295021695045214,169.44444444444477,50.04338933256031C192.59259259259292,52.791756970075404,215.740740740741,56.86320361980521,238.88888888888926,63.43387988283331C262.03703703703746,70.0045561458614,285.18518518518596,79.0744620221878,308.3333333333341,92.23534854913134C331.48148148148226,105.39623507607489,354.6296296296302,122.64810225363556,389.3518518518522,169.86619341152644C424.07407407407436,217.08428456941738,470.37037037037067,294.26859970763854,493.51851851851876,332.8607572767491L516.666666666667,371.45291484585965" stroke="#4c78a8" stroke-width="2"></path></g></g><path class="foreground" aria-hidden="true" d="" display="none"></path></g><g transform="translate(0,0)"><path class="background" aria-hidden="true" d="M0,0h600v400h-600Z"></path><g><g class="mark-line role-mark layer_1_marks" role="graphics-symbol" aria-roledescription="line mark container"><path d="M62.962962962963005,43.74454208097185L69.13580246913585,43.86119247488394C75.3086419753087,43.97784286879604,87.6543209876544,44.21114365662023,103.08641975308637,44.68633437127292C118.51851851851836,45.16152508592561,137.03703703703664,45.8786057274068,152.4691358024687,46.78006033579385C167.9012345679008,47.68151494418091,180.24691358024666,48.76734351947383,201.8518518518517,52.24391602141717C223.4567901234567,55.72048852336051,254.32098765432087,61.58780495195426,285.185185185185,72.07455902043723C316.04938271604914,82.56131308892022,346.91358024691334,97.66750479729241,393.20987654320965,149.58727850833793C439.50617283950595,201.50705221938344,501.2345679012344,290.24040793310223,532.0987654320987,334.6070857899617L562.9629629629629,378.97376364682106" stroke="#f58518" stroke-width="2"></path></g></g><path class="foreground" aria-hidden="true" d="" display="none"></path></g></g><g class="mark-group role-legend" role="graphics-symbol" aria-roledescription="legend" aria-label="Symbol legend titled 'Pressure' for stroke color with 2 values: 1, 13.5"><g transform="translate(618,0)"><path class="background" aria-hidden="true" d="M0,0h81v59h-81Z" pointer-events="none"></path><g><g class="mark-group role-legend-entry"><g transform="translate(0,25)"><path class="background" aria-hidden="true" d="M0,0h0v0h0Z" pointer-events="none"></path><g><g class="mark-group role-scope" role="graphics-object" aria-roledescription="group mark container"><g transform="translate(0,0)"><path class="background" aria-hidden="true" d="M0,0h51.21666717529297v16h-51.21666717529297Z" pointer-events="none" opacity="1"></path><g><g class="mark-symbol role-legend-symbol" pointer-events="none"><path transform="translate(8,8)" d="M5,0A5,5,0,1,1,-5,0A5,5,0,1,1,5,0" stroke="#4c78a8" stroke-width="1.5" opacity="0.7"></path></g><g class="mark-text role-legend-label" pointer-events="none"><text text-anchor="start" transform="translate(20,13)" font-family="Roboto" font-size="16px" fill="#000" opacity="1">1</text></g></g><path class="foreground" aria-hidden="true" d="" pointer-events="none" display="none"></path></g><g transform="translate(0,18)"><path class="background" aria-hidden="true" d="M0,0h51.21666717529297v16h-51.21666717529297Z" pointer-events="none" opacity="1"></path><g><g class="mark-symbol role-legend-symbol" pointer-events="none"><path transform="translate(8,8)" d="M5,0A5,5,0,1,1,-5,0A5,5,0,1,1,5,0" stroke="#f58518" stroke-width="1.5" opacity="0.7"></path></g><g class="mark-text role-legend-label" pointer-events="none"><text text-anchor="start" transform="translate(20,13)" font-family="Roboto" font-size="16px" fill="#000" opacity="1">13.5</text></g></g><path class="foreground" aria-hidden="true" d="" pointer-events="none" display="none"></path></g></g></g><path class="foreground" aria-hidden="true" d="" pointer-events="none" display="none"></path></g></g><g class="mark-text role-legend-title" pointer-events="none"><text text-anchor="start" transform="translate(0,16)" font-family="Roboto" font-size="20px" font-weight="bold" fill="#000" opacity="1">Pressure</text></g></g><path class="foreground" aria-hidden="true" d="" pointer-events="none" display="none"></path></g></g></g><path class="foreground" aria-hidden="true" d="" display="none"></path></g></g></g></svg>