<svg class="marks" width="738" height="451" viewBox="0 0 738 451" version="1.1" xmlns="http://www.w3.org/2000/svg" xmlns:xlink="http://www.w3.org/1999/xlink"><g transform="translate(60,11)"><g class="mark-group role-frame root"><g transform="translate(0,0)"><path class="background" d="M0.5,0.5h600v400h-600Z" style="fill: none; stroke: #ddd;"></path><g><g class="mark-symbol role-mark layer_0_layer_0_marks"><path transform="translate(144.4444444444444,3.37131745750645)" d="M2.7386127875258306,0A2.7386127875258306,2.7386127875258306,0,1,1,-2.7386127875258306,0A2.7386127875258306,2.7386127875258306,0,1,1,2.7386127875258306,0" style="fill: none; stroke: #4c78a8; stroke-width: 2; opacity: 0.7;"></path><path transform="translate(144.4444444444444,3.3628325411830815)" d="M2.7386127875258306,0A2.7386127875258306,2.7386127875258306,0,1,1,-2.7386127875258306,0A2.7386127875258306,2.7386127875258306,0,1,1,2.7386127875258306,0" style="fill: none; stroke: #4c78a8; stroke-width: 2; opacity: 0.7;"></path><path transform="translate(144.4444444444444,3.368966423449592)" d="M2.7386127875258306,0A2.7386127875258306,2.7386127875258306,0,1,1,-2.7386127875258306,0A2.7386127875258306,2.7386127875258306,0,1,1,2.7386127875258306,0" style="fill: none; stroke: #4c78a8; stroke-width: 2; opacity: 0.7;"></path><path transform="translate(144.4444444444444,3.37824281824777)" d="M2.7386127875258306,0A2.7386127875258306,2.7386127875258306,0,1,1,-2.7386127875258306,0A2.7386127875258306,2.7386127875258306,0,1,1,2.7386127875258306,0" style="fill: none; stroke: #4c78a8; stroke-width: 2; opacity: 0.7;"></path><path transform="translate(144.4444444444444,3.3813758797215314)" d="M2.7386127875258306,0A2.7386127875258306,2.7386127875258306,0,1,1,-2.7386127875258306,0A2.7386127875258306,2.7386127875258306,0,1,1,2.7386127875258306,0" style="fill: none; stroke: #4c78a8; stroke-width: 2; opacity: 0.7;"></path><path transform="translate(213.88888888888894,13.360895879301381)" d="M2.7386127875258306,0A2.7386127875258306,2.7386127875258306,0,1,1,-2.7386127875258306,0A2.7386127875258306,2.7386127875258306,0,1,1,2.7386127875258306,0" style="fill: none; stroke: #4c78a8; stroke-width: 2; opacity: 0.7;"></path><path transform="translate(213.88888888888894,13.513629951613154)" d="M2.7386127875258306,0A2.7386127875258306,2.7386127875258306,0,1,1,-2.7386127875258306,0A2.7386127875258306,2.7386127875258306,0,1,1,2.7386127875258306,0" style="fill: none; stroke: #4c78a8; stroke-width: 2; opacity: 0.7;"></path><path transform="translate(213.88888888888894,13.50521627637454)" d="M2.7386127875258306,0A2.7386127875258306,2.7386127875258306,0,1,1,-2.7386127875258306,0A2.7386127875258306,2.7386127875258306,0,1,1,2.7386127875258306,0" style="fill: none; stroke: #4c78a8; stroke-width: 2; opacity: 0.7;"></path><path transform="translate(213.88888888888894,13.42995040648998)" d="M2.7386127875258306,0A2.7386127875258306,2.7386127875258306,0,1,1,-2.7386127875258306,0A2.7386127875258306,2.7386127875258306,0,1,1,2.7386127875258306,0" style="fill: none; stroke: #4c78a8; stroke-width: 2; opacity: 0.7;"></path><path transform="translate(213.88888888888894,13.42732104566403)" d="M2.7386127875258306,0A2.7386127875258306,2.7386127875258306,0,1,1,-2.7386127875258306,0A2.7386127875258306,2.7386127875258306,0,1,1,2.7386127875258306,0" style="fill: none; stroke: #4c78a8; stroke-width: 2; opacity: 0.7;"></path><path transform="translate(283.33333333333337,54.10608960908809)" d="M2.7386127875258306,0A2.7386127875258306,2.7386127875258306,0,1,1,-2.7386127875258306,0A2.7386127875258306,2.7386127875258306,0,1,1,2.7386127875258306,0" style="fill: none; stroke: #4c78a8; stroke-width: 2; opacity: 0.7;"></path><path transform="translate(283.33333333333337,53.83014039601403)" d="M2.7386127875258306,0A2.7386127875258306,2.7386127875258306,0,1,1,-2.7386127875258306,0A2.7386127875258306,2.7386127875258306,0,1,1,2.7386127875258306,0" style="fill: none; stroke: #4c78a8; stroke-width: 2; opacity: 0.7;"></path><path transform="translate(283.33333333333337,53.95466101368265)" d="M2.7386127875258306,0A2.7386127875258306,2.7386127875258306,0,1,1,-2.7386127875258306,0A2.7386127875258306,2.7386127875258306,0,1,1,2.7386127875258306,0" style="fill: none; stroke: #4c78a8; stroke-width: 2; opacity: 0.7;"></path><path transform="translate(283.33333333333337,54.292937977683266)" d="M2.7386127875258306,0A2.7386127875258306,2.7386127875258306,0,1,1,-2.7386127875258306,0A2.7386127875258306,2.7386127875258306,0,1,1,2.7386127875258306,0" style="fill: none; stroke: #4c78a8; stroke-width: 2; opacity: 0.7;"></path><path transform="translate(283.33333333333337,54.51211399171075)" d="M2.7386127875258306,0A2.7386127875258306,2.7386127875258306,0,1,1,-2.7386127875258306,0A2.7386127875258306,2.7386127875258306,0,1,1,2.7386127875258306,0" style="fill: none; stroke: #4c78a8; stroke-width: 2; opacity: 0.7;"></path><path transform="translate(422.22222222222223,150.12019990075274)" d="M2.7386127875258306,0A2.7386127875258306,2.7386127875258306,0,1,1,-2.7386127875258306,0A2.7386127875258306,2.7386127875258306,0,1,1,2.7386127875258306,0" style="fill: none; stroke: #4c78a8; stroke-width: 2; opacity: 0.7;"></path><path transform="translate(422.22222222222223,150.07810797838724)" d="M2.7386127875258306,0A2.7386127875258306,2.7386127875258306,0,1,1,-2.7386127875258306,0A2.7386127875258306,2.7386127875258306,0,1,1,2.7386127875258306,0" style="fill: none; stroke: #4c78a8; stroke-width: 2; opacity: 0.7;"></path><path transform="translate(422.22222222222223,149.71060477802047)" d="M2.7386127875258306,0A2.7386127875258306,2.7386127875258306,0,1,1,-2.7386127875258306,0A2.7386127875258306,2.7386127875258306,0,1,1,2.7386127875258306,0" style="fill: none; stroke: #4c78a8; stroke-width: 2; opacity: 0.7;"></path><path transform="translate(422.22222222222223,150.12965347250238)" d="M2.7386127875258306,0A2.7386127875258306,2.7386127875258306,0,1,1,-2.7386127875258306,0A2.7386127875258306,2.7386127875258306,0,1,1,2.7386127875258306,0" style="fill: none; stroke: #4c78a8; stroke-width: 2; opacity: 0.7;"></path><path transform="translate(422.22222222222223,151.20394874140328)" d="M2.7386127875258306,0A2.7386127875258306,2.7386127875258306,0,1,1,-2.7386127875258306,0A2.7386127875258306,2.7386127875258306,0,1,1,2.7386127875258306,0" style="fill: none; stroke: #4c78a8; stroke-width: 2; opacity: 0.7;"></path><path transform="translate(491.6666666666668,340.3207083270332)" d="M2.7386127875258306,0A2.7386127875258306,2.7386127875258306,0,1,1,-2.7386127875258306,0A2.7386127875258306,2.7386127875258306,0,1,1,2.7386127875258306,0" style="fill: none; stroke: #4c78a8; stroke-width: 2; opacity: 0.7;"></path><path transform="translate(491.6666666666668,338.85976269587144)" d="M2.7386127875258306,0A2.7386127875258306,2.7386127875258306,0,1,1,-2.7386127875258306,0A2.7386127875258306,2.7386127875258306,0,1,1,2.7386127875258306,0" style="fill: none; stroke: #4c78a8; stroke-width: 2; opacity: 0.7;"></path><path transform="translate(491.6666666666668,343.19433279991733)" d="M2.7386127875258306,0A2.7386127875258306,2.7386127875258306,0,1,1,-2.7386127875258306,0A2.7386127875258306,2.7386127875258306,0,1,1,2.7386127875258306,0" style="fill: none; stroke: #4c78a8; stroke-width: 2; opacity: 0.7;"></path><path transform="translate(491.6666666666668,338.953865731928)" d="M2.7386127875258306,0A2.7386127875258306,2.7386127875258306,0,1,1,-2.7386127875258306,0A2.7386127875258306,2.7386127875258306,0,1,1,2.7386127875258306,0" style="fill: none; stroke: #4c78a8; stroke-width: 2; opacity: 0.7;"></path><path transform="translate(491.6666666666668,339.6131758497106)" d="M2.7386127875258306,0A2.7386127875258306,2.7386127875258306,0,1,1,-2.7386127875258306,0A2.7386127875258306,2.7386127875258306,0,1,1,2.7386127875258306,0" style="fill: none; stroke: #4c78a8; stroke-width: 2; opacity: 0.7;"></path><path transform="translate(42.592592592592524,3.2926095078376534)" d="M2.7386127875258306,0A2.7386127875258306,2.7386127875258306,0,1,1,-2.7386127875258306,0A2.7386127875258306,2.7386127875258306,0,1,1,2.7386127875258306,0" style="fill: none; stroke: #f58518; stroke-width: 2; opacity: 0.7;"></path><path transform="translate(42.592592592592524,3.2156359730154804)" d="M2.7386127875258306,0A2.7386127875258306,2.7386127875258306,0,1,1,-2.7386127875258306,0A2.7386127875258306,2.7386127875258306,0,1,1,2.7386127875258306,0" style="fill: none; stroke: #f58518; stroke-width: 2; opacity: 0.7;"></path><path transform="translate(42.592592592592524,3.2441965323680506)" d="M2.7386127875258306,0A2.7386127875258306,2.7386127875258306,0,1,1,-2.7386127875258306,0A2.7386127875258306,2.7386127875258306,0,1,1,2.7386127875258306,0" style="fill: none; stroke: #f58518; stroke-width: 2; opacity: 0.7;"></path><path transform="translate(42.592592592592524,3.2471379523021824)" d="M2.7386127875258306,0A2.7386127875258306,2.7386127875258306,0,1,1,-2.7386127875258306,0A2.7386127875258306,2.7386127875258306,0,1,1,2.7386127875258306,0" style="fill: none; stroke: #f58518; stroke-width: 2; opacity: 0.7;"></path><path transform="translate(42.592592592592524,3.2320834033145047)" d="M2.7386127875258306,0A2.7386127875258306,2.7386127875258306,0,1,1,-2.7386127875258306,0A2.7386127875258306,2.7386127875258306,0,1,1,2.7386127875258306,0" style="fill: none; stroke: #f58518; stroke-width: 2; opacity: 0.7;"></path><path transform="translate(116.66666666666661,13.074280981694187)" d="M2.7386127875258306,0A2.7386127875258306,2.7386127875258306,0,1,1,-2.7386127875258306,0A2.7386127875258306,2.7386127875258306,0,1,1,2.7386127875258306,0" style="fill: none; stroke: #f58518; stroke-width: 2; opacity: 0.7;"></path><path transform="translate(116.66666666666661,12.863401770161829)" d="M2.7386127875258306,0A2.7386127875258306,2.7386127875258306,0,1,1,-2.7386127875258306,0A2.7386127875258306,2.7386127875258306,0,1,1,2.7386127875258306,0" style="fill: none; stroke: #f58518; stroke-width: 2; opacity: 0.7;"></path><path transform="translate(116.66666666666661,12.931729815244637)" d="M2.7386127875258306,0A2.7386127875258306,2.7386127875258306,0,1,1,-2.7386127875258306,0A2.7386127875258306,2.7386127875258306,0,1,1,2.7386127875258306,0" style="fill: none; stroke: #f58518; stroke-width: 2; opacity: 0.7;"></path><path transform="translate(116.66666666666661,12.975528775214912)" d="M2.7386127875258306,0A2.7386127875258306,2.7386127875258306,0,1,1,-2.7386127875258306,0A2.7386127875258306,2.7386127875258306,0,1,1,2.7386127875258306,0" style="fill: none; stroke: #f58518; stroke-width: 2; opacity: 0.7;"></path><path transform="translate(116.66666666666661,12.942125917226065)" d="M2.7386127875258306,0A2.7386127875258306,2.7386127875258306,0,1,1,-2.7386127875258306,0A2.7386127875258306,2.7386127875258306,0,1,1,2.7386127875258306,0" style="fill: none; stroke: #f58518; stroke-width: 2; opacity: 0.7;"></path><path transform="translate(190.74074074074068,51.75747516310679)" d="M2.7386127875258306,0A2.7386127875258306,2.7386127875258306,0,1,1,-2.7386127875258306,0A2.7386127875258306,2.7386127875258306,0,1,1,2.7386127875258306,0" style="fill: none; stroke: #f58518; stroke-width: 2; opacity: 0.7;"></path><path transform="translate(190.74074074074068,51.45152912484747)" d="M2.7386127875258306,0A2.7386127875258306,2.7386127875258306,0,1,1,-2.7386127875258306,0A2.7386127875258306,2.7386127875258306,0,1,1,2.7386127875258306,0" style="fill: none; stroke: #f58518; stroke-width: 2; opacity: 0.7;"></path><path transform="translate(190.74074074074068,51.69368563325429)" d="M2.7386127875258306,0A2.7386127875258306,2.7386127875258306,0,1,1,-2.7386127875258306,0A2.7386127875258306,2.7386127875258306,0,1,1,2.7386127875258306,0" style="fill: none; stroke: #f58518; stroke-width: 2; opacity: 0.7;"></path><path transform="translate(190.74074074074068,52.04828875592676)" d="M2.7386127875258306,0A2.7386127875258306,2.7386127875258306,0,1,1,-2.7386127875258306,0A2.7386127875258306,2.7386127875258306,0,1,1,2.7386127875258306,0" style="fill: none; stroke: #f58518; stroke-width: 2; opacity: 0.7;"></path><path transform="translate(190.74074074074068,52.26726224229077)" d="M2.7386127875258306,0A2.7386127875258306,2.7386127875258306,0,1,1,-2.7386127875258306,0A2.7386127875258306,2.7386127875258306,0,1,1,2.7386127875258306,0" style="fill: none; stroke: #f58518; stroke-width: 2; opacity: 0.7;"></path><path transform="translate(375.92592592592587,145.56281909761867)" d="M2.7386127875258306,0A2.7386127875258306,2.7386127875258306,0,1,1,-2.7386127875258306,0A2.7386127875258306,2.7386127875258306,0,1,1,2.7386127875258306,0" style="fill: none; stroke: #f58518; stroke-width: 2; opacity: 0.7;"></path><path transform="translate(375.92592592592587,144.2392079543863)" d="M2.7386127875258306,0A2.7386127875258306,2.7386127875258306,0,1,1,-2.7386127875258306,0A2.7386127875258306,2.7386127875258306,0,1,1,2.7386127875258306,0" style="fill: none; stroke: #f58518; stroke-width: 2; opacity: 0.7;"></path><path transform="translate(375.92592592592587,146.10158360902167)" d="M2.7386127875258306,0A2.7386127875258306,2.7386127875258306,0,1,1,-2.7386127875258306,0A2.7386127875258306,2.7386127875258306,0,1,1,2.7386127875258306,0" style="fill: none; stroke: #f58518; stroke-width: 2; opacity: 0.7;"></path><path transform="translate(375.92592592592587,144.7661540321148)" d="M2.7386127875258306,0A2.7386127875258306,2.7386127875258306,0,1,1,-2.7386127875258306,0A2.7386127875258306,2.7386127875258306,0,1,1,2.7386127875258306,0" style="fill: none; stroke: #f58518; stroke-width: 2; opacity: 0.7;"></path><path transform="translate(375.92592592592587,144.49915811354242)" d="M2.7386127875258306,0A2.7386127875258306,2.7386127875258306,0,1,1,-2.7386127875258306,0A2.7386127875258306,2.7386127875258306,0,1,1,2.7386127875258306,0" style="fill: none; stroke: #f58518; stroke-width: 2; opacity: 0.7;"></path><path transform="translate(561.111111111111,326.2129031025069)" d="M2.7386127875258306,0A2.7386127875258306,2.7386127875258306,0,1,1,-2.7386127875258306,0A2.7386127875258306,2.7386127875258306,0,1,1,2.7386127875258306,0" style="fill: none; stroke: #f58518; stroke-width: 2; opacity: 0.7;"></path><path transform="translate(561.111111111111,326.93679684200777)" d="M2.7386127875258306,0A2.7386127875258306,2.7386127875258306,0,1,1,-2.7386127875258306,0A2.7386127875258306,2.7386127875258306,0,1,1,2.7386127875258306,0" style="fill: none; stroke: #f58518; stroke-width: 2; opacity: 0.7;"></path><path transform="translate(561.111111111111,326.6002706222419)" d="M2.7386127875258306,0A2.7386127875258306,2.7386127875258306,0,1,1,-2.7386127875258306,0A2.7386127875258306,2.7386127875258306,0,1,1,2.7386127875258306,0" style="fill: none; stroke: #f58518; stroke-width: 2; opacity: 0.7;"></path><path transform="translate(561.111111111111,324.875792315591)" d="M2.7386127875258306,0A2.7386127875258306,2.7386127875258306,0,1,1,-2.7386127875258306,0A2.7386127875258306,2.7386127875258306,0,1,1,2.7386127875258306,0" style="fill: none; stroke: #f58518; stroke-width: 2; opacity: 0.7;"></path><path transform="translate(561.111111111111,324.67411506355836)" d="M2.7386127875258306,0A2.7386127875258306,2.7386127875258306,0,1,1,-2.7386127875258306,0A2.7386127875258306,2.7386127875258306,0,1,1,2.7386127875258306,0" style="fill: none; stroke: #f58518; stroke-width: 2; opacity: 0.7;"></path></g><g class="mark-rule role-mark layer_0_layer_1_marks"><line transform="translate(144.4444444444444,3.611704514740495)" x2="0" y2="-0.4807741144681472" style="fill: none; stroke: #4c78a8;"></line><line transform="translate(144.4444444444444,3.602622544315466)" x2="0" y2="-0.47958000626482544" style="fill: none; stroke: #4c78a8;"></line><line transform="translate(144.4444444444444,3.6091911272279162)" x2="0" y2="-0.4804494075567618" style="fill: none; stroke: #4c78a8;"></line><line transform="translate(144.4444444444444,3.619140477648216)" x2="0" y2="-0.4817953188010051" style="fill: none; stroke: #4c78a8;"></line><line transform="translate(144.4444444444444,3.622490442194419)" x2="0" y2="-0.48222912494566117" style="fill: none; stroke: #4c78a8;"></line><line transform="translate(213.88888888888894,14.31364780926242)" x2="0" y2="-1.9055038599221348" style="fill: none; stroke: #4c78a8;"></line><line transform="translate(213.88888888888894,14.47712853838766)" x2="0" y2="-1.9269971735490117" style="fill: none; stroke: #4c78a8;"></line><line transform="translate(213.88888888888894,14.468386353439541)" x2="0" y2="-1.9263401541300027" style="fill: none; stroke: #4c78a8;"></line><line transform="translate(213.88888888888894,14.387631391893308)" x2="0" y2="-1.915361970806714" style="fill: none; stroke: #4c78a8;"></line><line transform="translate(213.88888888888894,14.384850029227039)" x2="0" y2="-1.9150579671259607" style="fill: none; stroke: #4c78a8;"></line><line transform="translate(283.33333333333337,57.964526278566495)" x2="0" y2="-7.716873338956873" style="fill: none; stroke: #4c78a8;"></line><line transform="translate(283.33333333333337,57.66917299907874)" x2="0" y2="-7.678065206129531" style="fill: none; stroke: #4c78a8;"></line><line transform="translate(283.33333333333337,57.80282914326176)" x2="0" y2="-7.696336259158272" style="fill: none; stroke: #4c78a8;"></line><line transform="translate(283.33333333333337,58.16539805687927)" x2="0" y2="-7.744920158392063" style="fill: none; stroke: #4c78a8;"></line><line transform="translate(283.33333333333337,58.40128917881498)" x2="0" y2="-7.778350374208401" style="fill: none; stroke: #4c78a8;"></line><line transform="translate(422.22222222222223,160.83494291241354)" x2="0" y2="-21.429486023321573" style="fill: none; stroke: #4c78a8;"></line><line transform="translate(422.22222222222223,160.790732681344)" x2="0" y2="-21.425249405913547" style="fill: none; stroke: #4c78a8;"></line><line transform="translate(422.22222222222223,160.39381690936372)" x2="0" y2="-21.366424262686593" style="fill: none; stroke: #4c78a8;"></line><line transform="translate(422.22222222222223,160.8509279897088)" x2="0" y2="-21.44254903441282" style="fill: none; stroke: #4c78a8;"></line><line transform="translate(422.22222222222223,162.0000309292999)" x2="0" y2="-21.592164375793175" style="fill: none; stroke: #4c78a8;"></line><line transform="translate(491.6666666666668,364.6273187606048)" x2="0" y2="-48.61322086714324" style="fill: none; stroke: #4c78a8;"></line><line transform="translate(491.6666666666668,363.0586989041664)" x2="0" y2="-48.39787241658996" style="fill: none; stroke: #4c78a8;"></line><line transform="translate(491.6666666666668,367.7017203364295)" x2="0" y2="-49.01477507302434" style="fill: none; stroke: #4c78a8;"></line><line transform="translate(491.6666666666668,363.1529618821058)" x2="0" y2="-48.39819230035562" style="fill: none; stroke: #4c78a8;"></line><line transform="translate(491.6666666666668,363.8650574591586)" x2="0" y2="-48.50376321889598" style="fill: none; stroke: #4c78a8;"></line><line transform="translate(42.592592592592524,3.527351501765395)" x2="0" y2="-0.4694839878555399" style="fill: none; stroke: #f58518;"></line><line transform="translate(42.592592592592524,3.444864236278306)" x2="0" y2="-0.4584565265255378" style="fill: none; stroke: #f58518;"></line><line transform="translate(42.592592592592524,3.4754931498146107)" x2="0" y2="-0.46259323489317694" style="fill: none; stroke: #f58518;"></line><line transform="translate(42.592592592592524,3.4786220917123956)" x2="0" y2="-0.46296827882042635" style="fill: none; stroke: #f58518;"></line><line transform="translate(42.592592592592524,3.4624833537596373)" x2="0" y2="-0.46079990089026523" style="fill: none; stroke: #f58518;"></line><line transform="translate(116.66666666666661,14.006420658017646)" x2="0" y2="-1.8642793526469177" style="fill: none; stroke: #f58518;"></line><line transform="translate(116.66666666666661,13.780516358613795)" x2="0" y2="-1.834229176903989" style="fill: none; stroke: #f58518;"></line><line transform="translate(116.66666666666661,13.853575521507423)" x2="0" y2="-1.843691412525402" style="fill: none; stroke: #f58518;"></line><line transform="translate(116.66666666666661,13.900613368534835)" x2="0" y2="-1.8501691866397891" style="fill: none; stroke: #f58518;"></line><line transform="translate(116.66666666666661,13.864811465008017)" x2="0" y2="-1.8453710955639053" style="fill: none; stroke: #f58518;"></line><line transform="translate(190.74074074074068,55.44788645237412)" x2="0" y2="-7.380822578534662" style="fill: none; stroke: #f58518;"></line><line transform="translate(190.74074074074068,55.119268230221735)" x2="0" y2="-7.3354782107485335" style="fill: none; stroke: #f58518;"></line><line transform="translate(190.74074074074068,55.37906721888817)" x2="0" y2="-7.370763171267811" style="fill: none; stroke: #f58518;"></line><line transform="translate(190.74074074074068,55.759643087398786)" x2="0" y2="-7.42270866294399" style="fill: none; stroke: #f58518;"></line><line transform="translate(190.74074074074068,55.99439338379983)" x2="0" y2="-7.454262283018295" style="fill: none; stroke: #f58518;"></line><line transform="translate(375.92592592592587,155.94783877764883)" x2="0" y2="-20.770039360060252" style="fill: none; stroke: #f58518;"></line><line transform="translate(375.92592592592587,154.52591569120457)" x2="0" y2="-20.57341547363663" style="fill: none; stroke: #f58518;"></line><line transform="translate(375.92592592592587,156.52396190920425)" x2="0" y2="-20.844756600365116" style="fill: none; stroke: #f58518;"></line><line transform="translate(375.92592592592587,155.09023446601594)" x2="0" y2="-20.64816086780229" style="fill: none; stroke: #f58518;"></line><line transform="translate(375.92592592592587,154.80688682724812)" x2="0" y2="-20.61545742741137" style="fill: none; stroke: #f58518;"></line><line transform="translate(561.111111111111,349.52991424272295)" x2="0" y2="-46.63402228043208" style="fill: none; stroke: #f58518;"></line><line transform="translate(561.111111111111,350.3173506164074)" x2="0" y2="-46.7611075487992" style="fill: none; stroke: #f58518;"></line><line transform="translate(561.111111111111,349.93422500732584)" x2="0" y2="-46.667908770167855" style="fill: none; stroke: #f58518;"></line><line transform="translate(561.111111111111,348.0914099703816)" x2="0" y2="-46.43123530958121" style="fill: none; stroke: #f58518;"></line><line transform="translate(561.111111111111,347.87420842937416)" x2="0" y2="-46.40018673163172" style="fill: none; stroke: #f58518;"></line></g><g class="mark-rule role-mark layer_1_marks"><line transform="translate(0,0)" x2="600" y2="0" style="fill: none; stroke: grey;"></line><line transform="translate(0,0)" x2="600" y2="0" style="fill: none; stroke: grey;"></line><line transform="translate(0,0)" x2="600" y2="0" style="fill: none; stroke: grey;"></line><line transform="translate(0,0)" x2="600" y2="0" style="fill: none; stroke: grey;"></line><line transform="translate(0,0)" x2="600" y2="0" style="fill: none; stroke: grey;"></line><line transform="translate(0,0)" x2="600" y2="0" style="fill: none; stroke: grey;"></line><line transform="translate(0,0)" x2="600" y2="0" style="fill: none; stroke: grey;"></line><line transform="translate(0,0)" x2="600" y2="0" style="fill: none; stroke: grey;"></line><line transform="translate(0,0)" x2="600" y2="0" style="fill: none; stroke: grey;"></line><line transform="translate(0,0)" x2="600" y2="0" style="fill: none; stroke: grey;"></line><line transform="translate(0,0)" x2="600" y2="0" style="fill: none; stroke: grey;"></line><line transform="translate(0,0)" x2="600" y2="0" style="fill: none; stroke: grey;"></line><line transform="translate(0,0)" x2="600" y2="0" style="fill: none; stroke: grey;"></line><line transform="translate(0,0)" x2="600" y2="0" style="fill: none; stroke: grey;"></line><line transform="translate(0,0)" x2="600" y2="0" style="fill: none; stroke: grey;"></line><line transform="translate(0,0)" x2="600" y2="0" style="fill: none; stroke: grey;"></line><line transform="translate(0,0)" x2="600" y2="0" style="fill: none; stroke: grey;"></line><line transform="translate(0,0)" x2="600" y2="0" style="fill: none; stroke: grey;"></line><line transform="translate(0,0)" x2="600" y2="0" style="fill: none; stroke: grey;"></line><line transform="translate(0,0)" x2="600" y2="0" style="fill: none; stroke: grey;"></line><line transform="translate(0,0)" x2="600" y2="0" style="fill: none; stroke: grey;"></line><line transform="translate(0,0)" x2="600" y2="0" style="fill: none; stroke: grey;"></line><line transform="translate(0,0)" x2="600" y2="0" style="fill: none; stroke: grey;"></line><line transform="translate(0,0)" x2="600" y2="0" style="fill: none; stroke: grey;"></line><line transform="translate(0,0)" x2="600" y2="0" style="fill: none; stroke: grey;"></line><line transform="translate(0,0)" x2="600" y2="0" style="fill: none; stroke: grey;"></line><line transform="translate(0,0)" x2="600" y2="0" style="fill: none; stroke: grey;"></line><line transform="translate(0,0)" x2="600" y2="0" style="fill: none; stroke: grey;"></line><line transform="translate(0,0)" x2="600" y2="0" style="fill: none; stroke: grey;"></line><line transform="translate(0,0)" x2="600" y2="0" style="fill: none; stroke: grey;"></line><line transform="translate(0,0)" x2="600" y2="0" style="fill: none; stroke: grey;"></line><line transform="translate(0,0)" x2="600" y2="0" style="fill: none; stroke: grey;"></line><line transform="translate(0,0)" x2="600" y2="0" style="fill: none; stroke: grey;"></line><line transform="translate(0,0)" x2="600" y2="0" style="fill: none; stroke: grey;"></line><line transform="translate(0,0)" x2="600" y2="0" style="fill: none; stroke: grey;"></line><line transform="translate(0,0)" x2="600" y2="0" style="fill: none; stroke: grey;"></line><line transform="translate(0,0)" x2="600" y2="0" style="fill: none; stroke: grey;"></line><line transform="translate(0,0)" x2="600" y2="0" style="fill: none; stroke: grey;"></line><line transform="translate(0,0)" x2="600" y2="0" style="fill: none; stroke: grey;"></line><line transform="translate(0,0)" x2="600" y2="0" style="fill: none; stroke: grey;"></line><line transform="translate(0,0)" x2="600" y2="0" style="fill: none; stroke: grey;"></line><line transform="translate(0,0)" x2="600" y2="0" style="fill: none; stroke: grey;"></line><line transform="translate(0,0)" x2="600" y2="0" style="fill: none; stroke: grey;"></line><line transform="translate(0,0)" x2="600" y2="0" style="fill: none; stroke: grey;"></line><line transform="translate(0,0)" x2="600" y2="0" style="fill: none; stroke: grey;"></line><line transform="translate(0,0)" x2="600" y2="0" style="fill: none; stroke: grey;"></line><line transform="translate(0,0)" x2="600" y2="0" style="fill: none; stroke: grey;"></line><line transform="translate(0,0)" x2="600" y2="0" style="fill: none; stroke: grey;"></line><line transform="translate(0,0)" x2="600" y2="0" style="fill: none; stroke: grey;"></line><line transform="translate(0,0)" x2="600" y2="0" style="fill: none; stroke: grey;"></line></g><g class="mark-group role-legend"><g transform="translate(618,0)"><path class="background" d="M0,0h55v45h-55Z" style="pointer-events: none; fill: none;"></path><g><g class="mark-group role-legend-entry"><g transform="translate(0,16)"><path class="background" d="M0,0h0v0h0Z" style="pointer-events: none; fill: none;"></path><g><g class="mark-group role-scope"><g transform="translate(0,0)"><path class="background" d="M0,0h38v12.5h-38Z" style="pointer-events: none; fill: none; opacity: 1;"></path><g><g class="mark-symbol role-legend-symbol" style="pointer-events: none;"><path transform="translate(6,6)" d="M5,0A5,5,0,1,1,-5,0A5,5,0,1,1,5,0" style="fill: none; stroke: #4c78a8; stroke-width: 1.5; opacity: 0.7;"></path></g><g class="mark-text role-legend-label" style="pointer-events: none;"><text text-anchor="start" transform="translate(16,9)" style="font-family: sans-serif; font-size: 10px; fill: #000; opacity: 1;">1</text></g></g></g><g transform="translate(0,16)"><path class="background" d="M0,0h38v12.5h-38Z" style="pointer-events: none; fill: none; opacity: 1;"></path><g><g class="mark-symbol role-legend-symbol" style="pointer-events: none;"><path transform="translate(6,6)" d="M5,0A5,5,0,1,1,-5,0A5,5,0,1,1,5,0" style="fill: none; stroke: #f58518; stroke-width: 1.5; opacity: 0.7;"></path></g><g class="mark-text role-legend-label" style="pointer-events: none;"><text text-anchor="start" transform="translate(16,9)" style="font-family: sans-serif; font-size: 10px; fill: #000; opacity: 1;">13.5</text></g></g></g></g></g></g></g><g class="mark-text role-legend-title" style="pointer-events: none;"><text text-anchor="start" transform="translate(0,9)" style="font-family: sans-serif; font-size: 11px; font-weight: bold; fill: #000; opacity: 1;">Pressure</text></g></g></g></g><g class="mark-group role-axis"><g transform="translate(0.5,400.5)"><path class="background" d="M0,0h0v0h0Z" style="pointer-events: none; fill: none;"></path><g><g class="mark-rule role-axis-tick" style="pointer-events: none;"><line transform="translate(0,0)" x2="0" y2="5" style="fill: none; stroke: #888; stroke-width: 1; opacity: 1;"></line><line transform="translate(50,0)" x2="0" y2="5" style="fill: none; stroke: #888; stroke-width: 1; opacity: 1;"></line><line transform="translate(100,0)" x2="0" y2="5" style="fill: none; stroke: #888; stroke-width: 1; opacity: 1;"></line><line transform="translate(150,0)" x2="0" y2="5" style="fill: none; stroke: #888; stroke-width: 1; opacity: 1;"></line><line transform="translate(200,0)" x2="0" y2="5" style="fill: none; stroke: #888; stroke-width: 1; opacity: 1;"></line><line transform="translate(250,0)" x2="0" y2="5" style="fill: none; stroke: #888; stroke-width: 1; opacity: 1;"></line><line transform="translate(300,0)" x2="0" y2="5" style="fill: none; stroke: #888; stroke-width: 1; opacity: 1;"></line><line transform="translate(350,0)" x2="0" y2="5" style="fill: none; stroke: #888; stroke-width: 1; opacity: 1;"></line><line transform="translate(400,0)" x2="0" y2="5" style="fill: none; stroke: #888; stroke-width: 1; opacity: 1;"></line><line transform="translate(450,0)" x2="0" y2="5" style="fill: none; stroke: #888; stroke-width: 1; opacity: 1;"></line><line transform="translate(500,0)" x2="0" y2="5" style="fill: none; stroke: #888; stroke-width: 1; opacity: 1;"></line><line transform="translate(550,0)" x2="0" y2="5" style="fill: none; stroke: #888; stroke-width: 1; opacity: 1;"></line><line transform="translate(600,0)" x2="0" y2="5" style="fill: none; stroke: #888; stroke-width: 1; opacity: 1;"></line></g><g class="mark-text role-axis-label" style="pointer-events: none;"><text text-anchor="start" transform="translate(0,15)" style="font-family: sans-serif; font-size: 10px; fill: #000; opacity: 1;">1.1</text><text text-anchor="middle" transform="translate(49.99999999999995,15)" style="font-family: sans-serif; font-size: 10px; fill: #000; opacity: 1;">1.2</text><text text-anchor="middle" transform="translate(100,15)" style="font-family: sans-serif; font-size: 10px; fill: #000; opacity: 1;">1.3</text><text text-anchor="middle" transform="translate(149.99999999999994,15)" style="font-family: sans-serif; font-size: 10px; fill: #000; opacity: 1;">1.4</text><text text-anchor="middle" transform="translate(200,15)" style="font-family: sans-serif; font-size: 10px; fill: #000; opacity: 1;">1.5</text><text text-anchor="middle" transform="translate(250.00000000000006,15)" style="font-family: sans-serif; font-size: 10px; fill: #000; opacity: 1;">1.6</text><text text-anchor="middle" transform="translate(300,15)" style="font-family: sans-serif; font-size: 10px; fill: #000; opacity: 1;">1.7</text><text text-anchor="middle" transform="translate(350.0000000000001,15)" style="font-family: sans-serif; font-size: 10px; fill: #000; opacity: 1;">1.8</text><text text-anchor="middle" transform="translate(400,15)" style="font-family: sans-serif; font-size: 10px; fill: #000; opacity: 1;">1.9</text><text text-anchor="middle" transform="translate(450.00000000000006,15)" style="font-family: sans-serif; font-size: 10px; fill: #000; opacity: 1;">2.0</text><text text-anchor="middle" transform="translate(500.0000000000001,15)" style="font-family: sans-serif; font-size: 10px; fill: #000; opacity: 1;">2.1</text><text text-anchor="middle" transform="translate(550.0000000000002,15)" style="font-family: sans-serif; font-size: 10px; fill: #000; opacity: 1;">2.2</text><text text-anchor="end" transform="translate(600,15)" style="font-family: sans-serif; font-size: 10px; fill: #000; opacity: 1;">2.3</text></g><g class="mark-rule role-axis-domain" style="pointer-events: none;"><line transform="translate(0,0)" x2="600" y2="0" style="fill: none; stroke: #888; stroke-width: 1; opacity: 1;"></line></g><g class="mark-text role-axis-title" style="pointer-events: none;"><text text-anchor="middle" transform="translate(300,31)" style="font-family: sans-serif; font-size: 11px; font-weight: bold; fill: #000; opacity: 1;">T/Tₘ</text></g></g></g></g><g class="mark-group role-axis"><g transform="translate(0.5,0.5)"><path class="background" d="M0,0h0v0h0Z" style="pointer-events: none; fill: none;"></path><g><g class="mark-rule role-axis-tick" style="pointer-events: none;"><line transform="translate(0,400)" x2="-5" y2="0" style="fill: none; stroke: #888; stroke-width: 1; opacity: 1;"></line><line transform="translate(0,350)" x2="-5" y2="0" style="fill: none; stroke: #888; stroke-width: 1; opacity: 1;"></line><line transform="translate(0,300)" x2="-5" y2="0" style="fill: none; stroke: #888; stroke-width: 1; opacity: 1;"></line><line transform="translate(0,250)" x2="-5" y2="0" style="fill: none; stroke: #888; stroke-width: 1; opacity: 1;"></line><line transform="translate(0,200)" x2="-5" y2="0" style="fill: none; stroke: #888; stroke-width: 1; opacity: 1;"></line><line transform="translate(0,150)" x2="-5" y2="0" style="fill: none; stroke: #888; stroke-width: 1; opacity: 1;"></line><line transform="translate(0,100)" x2="-5" y2="0" style="fill: none; stroke: #888; stroke-width: 1; opacity: 1;"></line><line transform="translate(0,50)" x2="-5" y2="0" style="fill: none; stroke: #888; stroke-width: 1; opacity: 1;"></line><line transform="translate(0,0)" x2="-5" y2="0" style="fill: none; stroke: #888; stroke-width: 1; opacity: 1;"></line></g><g class="mark-text role-axis-label" style="pointer-events: none;"><text text-anchor="end" transform="translate(-7,403)" style="font-family: sans-serif; font-size: 10px; fill: #000; opacity: 1;">-8e+7</text><text text-anchor="end" transform="translate(-7,353)" style="font-family: sans-serif; font-size: 10px; fill: #000; opacity: 1;">-7e+7</text><text text-anchor="end" transform="translate(-7,303)" style="font-family: sans-serif; font-size: 10px; fill: #000; opacity: 1;">-6e+7</text><text text-anchor="end" transform="translate(-7,253)" style="font-family: sans-serif; font-size: 10px; fill: #000; opacity: 1;">-5e+7</text><text text-anchor="end" transform="translate(-7,203)" style="font-family: sans-serif; font-size: 10px; fill: #000; opacity: 1;">-4e+7</text><text text-anchor="end" transform="translate(-7,153)" style="font-family: sans-serif; font-size: 10px; fill: #000; opacity: 1;">-3e+7</text><text text-anchor="end" transform="translate(-7,103)" style="font-family: sans-serif; font-size: 10px; fill: #000; opacity: 1;">-2e+7</text><text text-anchor="end" transform="translate(-7,53)" style="font-family: sans-serif; font-size: 10px; fill: #000; opacity: 1;">-1e+7</text><text text-anchor="end" transform="translate(-7,3)" style="font-family: sans-serif; font-size: 10px; fill: #000; opacity: 1;">0e+0</text></g><g class="mark-rule role-axis-domain" style="pointer-events: none;"><line transform="translate(0,400)" x2="0" y2="-400" style="fill: none; stroke: #888; stroke-width: 1; opacity: 1;"></line></g><g class="mark-text role-axis-title" style="pointer-events: none;"><text text-anchor="middle" transform="translate(-42,200) rotate(-90) translate(0,-2)" style="font-family: sans-serif; font-size: 11px; font-weight: bold; fill: #000; opacity: 1;">Crystal Growth Rate</text></g></g></g></g></g></g></g></g></svg>