<svg class="marks" width="818" height="465" viewBox="0 0 818 465" version="1.1" xmlns="http://www.w3.org/2000/svg" xmlns:xlink="http://www.w3.org/1999/xlink"><rect width="818" height="465" style="fill: white;"></rect><g transform="translate(94,13)"><g class="mark-group role-frame root"><g transform="translate(0,0)"><path class="background" d="M0.5,0.5h600v400h-600Z" style="fill: none; stroke: #ddd;"></path><g><g class="mark-symbol role-mark layer_0_layer_0_marks"><path transform="translate(74.99999999999999,44.48597777281225)" d="M2.7386127875258306,0A2.7386127875258306,2.7386127875258306,0,1,1,-2.7386127875258306,0A2.7386127875258306,2.7386127875258306,0,1,1,2.7386127875258306,0" style="fill: none; stroke: #4c78a8; stroke-width: 2; opacity: 0.7;"></path><path transform="translate(95.83333333333341,44.46240768147095)" d="M2.7386127875258306,0A2.7386127875258306,2.7386127875258306,0,1,1,-2.7386127875258306,0A2.7386127875258306,2.7386127875258306,0,1,1,2.7386127875258306,0" style="fill: none; stroke: #4c78a8; stroke-width: 2; opacity: 0.7;"></path><path transform="translate(116.66666666666669,44.47598891552798)" d="M2.7386127875258306,0A2.7386127875258306,2.7386127875258306,0,1,1,-2.7386127875258306,0A2.7386127875258306,2.7386127875258306,0,1,1,2.7386127875258306,0" style="fill: none; stroke: #4c78a8; stroke-width: 2; opacity: 0.7;"></path><path transform="translate(137.50000000000028,44.506068671887135)" d="M2.7386127875258306,0A2.7386127875258306,2.7386127875258306,0,1,1,-2.7386127875258306,0A2.7386127875258306,2.7386127875258306,0,1,1,2.7386127875258306,0" style="fill: none; stroke: #4c78a8; stroke-width: 2; opacity: 0.7;"></path><path transform="translate(158.33333333333337,44.545553111746244)" d="M2.7386127875258306,0A2.7386127875258306,2.7386127875258306,0,1,1,-2.7386127875258306,0A2.7386127875258306,2.7386127875258306,0,1,1,2.7386127875258306,0" style="fill: none; stroke: #4c78a8; stroke-width: 2; opacity: 0.7;"></path><path transform="translate(200.00000000000006,44.896326346126614)" d="M2.7386127875258306,0A2.7386127875258306,2.7386127875258306,0,1,1,-2.7386127875258306,0A2.7386127875258306,2.7386127875258306,0,1,1,2.7386127875258306,0" style="fill: none; stroke: #4c78a8; stroke-width: 2; opacity: 0.7;"></path><path transform="translate(262.5,47.59886764985396)" d="M2.7386127875258306,0A2.7386127875258306,2.7386127875258306,0,1,1,-2.7386127875258306,0A2.7386127875258306,2.7386127875258306,0,1,1,2.7386127875258306,0" style="fill: none; stroke: #4c78a8; stroke-width: 2; opacity: 0.7;"></path><path transform="translate(366.66666666666663,66.74835282726264)" d="M2.7386127875258306,0A2.7386127875258306,2.7386127875258306,0,1,1,-2.7386127875258306,0A2.7386127875258306,2.7386127875258306,0,1,1,2.7386127875258306,0" style="fill: none; stroke: #4c78a8; stroke-width: 2; opacity: 0.7;"></path><path transform="translate(470.8333333333335,132.3244218628309)" d="M2.7386127875258306,0A2.7386127875258306,2.7386127875258306,0,1,1,-2.7386127875258306,0A2.7386127875258306,2.7386127875258306,0,1,1,2.7386127875258306,0" style="fill: none; stroke: #4c78a8; stroke-width: 2; opacity: 0.7;"></path><path transform="translate(575.0000000000001,373.41919312168636)" d="M2.7386127875258306,0A2.7386127875258306,2.7386127875258306,0,1,1,-2.7386127875258306,0A2.7386127875258306,2.7386127875258306,0,1,1,2.7386127875258306,0" style="fill: none; stroke: #4c78a8; stroke-width: 2; opacity: 0.7;"></path><path transform="translate(63.888888888888864,44.44603456108155)" d="M2.7386127875258306,0A2.7386127875258306,2.7386127875258306,0,1,1,-2.7386127875258306,0A2.7386127875258306,2.7386127875258306,0,1,1,2.7386127875258306,0" style="fill: none; stroke: #f58518; stroke-width: 2; opacity: 0.7;"></path><path transform="translate(74.99999999999999,44.450098451493716)" d="M2.7386127875258306,0A2.7386127875258306,2.7386127875258306,0,1,1,-2.7386127875258306,0A2.7386127875258306,2.7386127875258306,0,1,1,2.7386127875258306,0" style="fill: none; stroke: #f58518; stroke-width: 2; opacity: 0.7;"></path><path transform="translate(91.66666666666643,44.455651426879285)" d="M2.7386127875258306,0A2.7386127875258306,2.7386127875258306,0,1,1,-2.7386127875258306,0A2.7386127875258306,2.7386127875258306,0,1,1,2.7386127875258306,0" style="fill: none; stroke: #f58518; stroke-width: 2; opacity: 0.7;"></path><path transform="translate(102.77777777777773,44.4661612336443)" d="M2.7386127875258306,0A2.7386127875258306,2.7386127875258306,0,1,1,-2.7386127875258306,0A2.7386127875258306,2.7386127875258306,0,1,1,2.7386127875258306,0" style="fill: none; stroke: #f58518; stroke-width: 2; opacity: 0.7;"></path><path transform="translate(130.55555555555546,44.50867359488018)" d="M2.7386127875258306,0A2.7386127875258306,2.7386127875258306,0,1,1,-2.7386127875258306,0A2.7386127875258306,2.7386127875258306,0,1,1,2.7386127875258306,0" style="fill: none; stroke: #f58518; stroke-width: 2; opacity: 0.7;"></path><path transform="translate(158.3333333333332,44.59818568549633)" d="M2.7386127875258306,0A2.7386127875258306,2.7386127875258306,0,1,1,-2.7386127875258306,0A2.7386127875258306,2.7386127875258306,0,1,1,2.7386127875258306,0" style="fill: none; stroke: #f58518; stroke-width: 2; opacity: 0.7;"></path><path transform="translate(213.88888888888883,45.165558113913505)" d="M2.7386127875258306,0A2.7386127875258306,2.7386127875258306,0,1,1,-2.7386127875258306,0A2.7386127875258306,2.7386127875258306,0,1,1,2.7386127875258306,0" style="fill: none; stroke: #f58518; stroke-width: 2; opacity: 0.7;"></path><path transform="translate(325,52.58843270159883)" d="M2.7386127875258306,0A2.7386127875258306,2.7386127875258306,0,1,1,-2.7386127875258306,0A2.7386127875258306,2.7386127875258306,0,1,1,2.7386127875258306,0" style="fill: none; stroke: #f58518; stroke-width: 2; opacity: 0.7;"></path><path transform="translate(436.11111111111103,93.52292817858046)" d="M2.7386127875258306,0A2.7386127875258306,2.7386127875258306,0,1,1,-2.7386127875258306,0A2.7386127875258306,2.7386127875258306,0,1,1,2.7386127875258306,0" style="fill: none; stroke: #f58518; stroke-width: 2; opacity: 0.7;"></path><path transform="translate(547.2222222222223,219.1006740279019)" d="M2.7386127875258306,0A2.7386127875258306,2.7386127875258306,0,1,1,-2.7386127875258306,0A2.7386127875258306,2.7386127875258306,0,1,1,2.7386127875258306,0" style="fill: none; stroke: #f58518; stroke-width: 2; opacity: 0.7;"></path></g><g class="mark-rule role-mark layer_0_layer_1_marks"><line transform="translate(95.83333333333341,44.473477982765644)" x2="0" y2="-0.022140602589388436" style="fill: none; stroke: #4c78a8;"></line><line transform="translate(116.66666666666669,44.48348585628378)" x2="0" y2="-0.014993881511600193" style="fill: none; stroke: #4c78a8;"></line><line transform="translate(137.50000000000028,44.50913920037817)" x2="0" y2="-0.006141056982130522" style="fill: none; stroke: #4c78a8;"></line><line transform="translate(158.33333333333337,44.5550713209214)" x2="0" y2="-0.019036418350367512" style="fill: none; stroke: #4c78a8;"></line><line transform="translate(200.00000000000006,44.96619758721454)" x2="0" y2="-0.13974248217590457" style="fill: none; stroke: #4c78a8;"></line><line transform="translate(262.5,47.87474222669243)" x2="0" y2="-0.5517491536769512" style="fill: none; stroke: #4c78a8;"></line><line transform="translate(366.66666666666663,68.76514069283883)" x2="0" y2="-4.033575731152439" style="fill: none; stroke: #4c78a8;"></line><line transform="translate(470.8333333333335,156.12384146883178)" x2="0" y2="-47.598839212001934" style="fill: none; stroke: #4c78a8;"></line><line transform="translate(575.0000000000001,385.38070210447154)" x2="0" y2="-23.923017965570295" style="fill: none; stroke: #4c78a8;"></line><line transform="translate(63.888888888888864,44.44830526937096)" x2="0" y2="-0.004541416578774715" style="fill: none; stroke: #f58518;"></line><line transform="translate(74.99999999999999,44.45301292532184)" x2="0" y2="-0.005828947656254968" style="fill: none; stroke: #f58518;"></line><line transform="translate(91.66666666666643,44.45986171757221)" x2="0" y2="-0.008420581385848891" style="fill: none; stroke: #f58518;"></line><line transform="translate(102.77777777777773,44.472095236476946)" x2="0" y2="-0.011868005665348846" style="fill: none; stroke: #f58518;"></line><line transform="translate(130.55555555555546,44.51197421030804)" x2="0" y2="-0.006601230855721951" style="fill: none; stroke: #f58518;"></line><line transform="translate(158.3333333333332,44.60979543942756)" x2="0" y2="-0.023219507862336286" style="fill: none; stroke: #f58518;"></line><line transform="translate(213.88888888888883,45.21833820016343)" x2="0" y2="-0.10556017249979277" style="fill: none; stroke: #f58518;"></line><line transform="translate(325,53.29078008933868)" x2="0" y2="-1.4046947754796975" style="fill: none; stroke: #f58518;"></line><line transform="translate(436.11111111111103,99.76107299138044)" x2="0" y2="-12.476289625599975" style="fill: none; stroke: #f58518;"></line><line transform="translate(547.2222222222223,241.389768078975)" x2="0" y2="-44.57818810214624" style="fill: none; stroke: #f58518;"></line></g><g class="mark-rule role-mark layer_1_marks"><line transform="translate(0,44.4444444444444)" x2="600" y2="0" style="fill: none; stroke: grey;"></line><line transform="translate(0,44.4444444444444)" x2="600" y2="0" style="fill: none; stroke: grey;"></line><line transform="translate(0,44.4444444444444)" x2="600" y2="0" style="fill: none; stroke: grey;"></line><line transform="translate(0,44.4444444444444)" x2="600" y2="0" style="fill: none; stroke: grey;"></line><line transform="translate(0,44.4444444444444)" x2="600" y2="0" style="fill: none; stroke: grey;"></line><line transform="translate(0,44.4444444444444)" x2="600" y2="0" style="fill: none; stroke: grey;"></line><line transform="translate(0,44.4444444444444)" x2="600" y2="0" style="fill: none; stroke: grey;"></line><line transform="translate(0,44.4444444444444)" x2="600" y2="0" style="fill: none; stroke: grey;"></line><line transform="translate(0,44.4444444444444)" x2="600" y2="0" style="fill: none; stroke: grey;"></line><line transform="translate(0,44.4444444444444)" x2="600" y2="0" style="fill: none; stroke: grey;"></line><line transform="translate(0,44.4444444444444)" x2="600" y2="0" style="fill: none; stroke: grey;"></line><line transform="translate(0,44.4444444444444)" x2="600" y2="0" style="fill: none; stroke: grey;"></line><line transform="translate(0,44.4444444444444)" x2="600" y2="0" style="fill: none; stroke: grey;"></line><line transform="translate(0,44.4444444444444)" x2="600" y2="0" style="fill: none; stroke: grey;"></line><line transform="translate(0,44.4444444444444)" x2="600" y2="0" style="fill: none; stroke: grey;"></line><line transform="translate(0,44.4444444444444)" x2="600" y2="0" style="fill: none; stroke: grey;"></line><line transform="translate(0,44.4444444444444)" x2="600" y2="0" style="fill: none; stroke: grey;"></line><line transform="translate(0,44.4444444444444)" x2="600" y2="0" style="fill: none; stroke: grey;"></line><line transform="translate(0,44.4444444444444)" x2="600" y2="0" style="fill: none; stroke: grey;"></line><line transform="translate(0,44.4444444444444)" x2="600" y2="0" style="fill: none; stroke: grey;"></line></g><g class="mark-group role-legend"><g transform="translate(618,0)"><path class="background" d="M0,0h101v59h-101Z" style="pointer-events: none; fill: none;"></path><g><g class="mark-group role-legend-entry"><g transform="translate(0,25)"><path class="background" d="M0,0h0v0h0Z" style="pointer-events: none; fill: none;"></path><g><g class="mark-group role-scope"><g transform="translate(0,0)"><path class="background" d="M0,0h55v16h-55Z" style="pointer-events: none; fill: none; opacity: 1;"></path><g><g class="mark-symbol role-legend-symbol" style="pointer-events: none;"><path transform="translate(8,8)" d="M5,0A5,5,0,1,1,-5,0A5,5,0,1,1,5,0" style="fill: none; stroke: #4c78a8; stroke-width: 1.5; opacity: 0.7;"></path></g><g class="mark-text role-legend-label" style="pointer-events: none;"><text text-anchor="start" transform="translate(20,13)" style="font-family: sans-serif; font-size: 16px; fill: #000; opacity: 1;">1</text></g></g></g><g transform="translate(0,18)"><path class="background" d="M0,0h55v16h-55Z" style="pointer-events: none; fill: none; opacity: 1;"></path><g><g class="mark-symbol role-legend-symbol" style="pointer-events: none;"><path transform="translate(8,8)" d="M5,0A5,5,0,1,1,-5,0A5,5,0,1,1,5,0" style="fill: none; stroke: #f58518; stroke-width: 1.5; opacity: 0.7;"></path></g><g class="mark-text role-legend-label" style="pointer-events: none;"><text text-anchor="start" transform="translate(20,13)" style="font-family: sans-serif; font-size: 16px; fill: #000; opacity: 1;">13.5</text></g></g></g></g></g></g></g><g class="mark-text role-legend-title" style="pointer-events: none;"><text text-anchor="start" transform="translate(0,16)" style="font-family: sans-serif; font-size: 20px; font-weight: bold; fill: #000; opacity: 1;">Pressure</text></g></g></g></g><g class="mark-group role-axis"><g transform="translate(0.5,400.5)"><path class="background" d="M0,0h0v0h0Z" style="pointer-events: none; fill: none;"></path><g><g class="mark-rule role-axis-tick" style="pointer-events: none;"><line transform="translate(0,0)" x2="0" y2="5" style="fill: none; stroke: #888; stroke-width: 1; opacity: 1;"></line><line transform="translate(37,0)" x2="0" y2="5" style="fill: none; stroke: #888; stroke-width: 1; opacity: 1;"></line><line transform="translate(75,0)" x2="0" y2="5" style="fill: none; stroke: #888; stroke-width: 1; opacity: 1;"></line><line transform="translate(113,0)" x2="0" y2="5" style="fill: none; stroke: #888; stroke-width: 1; opacity: 1;"></line><line transform="translate(150,0)" x2="0" y2="5" style="fill: none; stroke: #888; stroke-width: 1; opacity: 1;"></line><line transform="translate(187,0)" x2="0" y2="5" style="fill: none; stroke: #888; stroke-width: 1; opacity: 1;"></line><line transform="translate(225,0)" x2="0" y2="5" style="fill: none; stroke: #888; stroke-width: 1; opacity: 1;"></line><line transform="translate(263,0)" x2="0" y2="5" style="fill: none; stroke: #888; stroke-width: 1; opacity: 1;"></line><line transform="translate(300,0)" x2="0" y2="5" style="fill: none; stroke: #888; stroke-width: 1; opacity: 1;"></line><line transform="translate(338,0)" x2="0" y2="5" style="fill: none; stroke: #888; stroke-width: 1; opacity: 1;"></line><line transform="translate(375,0)" x2="0" y2="5" style="fill: none; stroke: #888; stroke-width: 1; opacity: 1;"></line><line transform="translate(413,0)" x2="0" y2="5" style="fill: none; stroke: #888; stroke-width: 1; opacity: 1;"></line><line transform="translate(450,0)" x2="0" y2="5" style="fill: none; stroke: #888; stroke-width: 1; opacity: 1;"></line><line transform="translate(488,0)" x2="0" y2="5" style="fill: none; stroke: #888; stroke-width: 1; opacity: 1;"></line><line transform="translate(525,0)" x2="0" y2="5" style="fill: none; stroke: #888; stroke-width: 1; opacity: 1;"></line><line transform="translate(562,0)" x2="0" y2="5" style="fill: none; stroke: #888; stroke-width: 1; opacity: 1;"></line><line transform="translate(600,0)" x2="0" y2="5" style="fill: none; stroke: #888; stroke-width: 1; opacity: 1;"></line></g><g class="mark-text role-axis-label" style="pointer-events: none;"><text text-anchor="start" transform="translate(0,20)" style="font-family: sans-serif; font-size: 16px; fill: #000; opacity: 1;">0.90</text><text text-anchor="middle" transform="translate(37.49999999999996,20)" style="font-family: sans-serif; font-size: 16px; fill: #000; opacity: 0;">0.95</text><text text-anchor="middle" transform="translate(74.99999999999999,20)" style="font-family: sans-serif; font-size: 16px; fill: #000; opacity: 1;">1.00</text><text text-anchor="middle" transform="translate(112.50000000000003,20)" style="font-family: sans-serif; font-size: 16px; fill: #000; opacity: 0;">1.05</text><text text-anchor="middle" transform="translate(150.00000000000006,20)" style="font-family: sans-serif; font-size: 16px; fill: #000; opacity: 1;">1.10</text><text text-anchor="middle" transform="translate(187.49999999999994,20)" style="font-family: sans-serif; font-size: 16px; fill: #000; opacity: 0;">1.15</text><text text-anchor="middle" transform="translate(224.99999999999997,20)" style="font-family: sans-serif; font-size: 16px; fill: #000; opacity: 1;">1.20</text><text text-anchor="middle" transform="translate(262.5,20)" style="font-family: sans-serif; font-size: 16px; fill: #000; opacity: 0;">1.25</text><text text-anchor="middle" transform="translate(300.00000000000006,20)" style="font-family: sans-serif; font-size: 16px; fill: #000; opacity: 1;">1.30</text><text text-anchor="middle" transform="translate(337.50000000000006,20)" style="font-family: sans-serif; font-size: 16px; fill: #000; opacity: 0;">1.35</text><text text-anchor="middle" transform="translate(374.99999999999994,20)" style="font-family: sans-serif; font-size: 16px; fill: #000; opacity: 1;">1.40</text><text text-anchor="middle" transform="translate(412.5,20)" style="font-family: sans-serif; font-size: 16px; fill: #000; opacity: 0;">1.45</text><text text-anchor="middle" transform="translate(450,20)" style="font-family: sans-serif; font-size: 16px; fill: #000; opacity: 1;">1.50</text><text text-anchor="middle" transform="translate(487.50000000000006,20)" style="font-family: sans-serif; font-size: 16px; fill: #000; opacity: 0;">1.55</text><text text-anchor="middle" transform="translate(525.0000000000001,20)" style="font-family: sans-serif; font-size: 16px; fill: #000; opacity: 1;">1.60</text><text text-anchor="middle" transform="translate(562.4999999999999,20)" style="font-family: sans-serif; font-size: 16px; fill: #000; opacity: 0;">1.65</text><text text-anchor="end" transform="translate(600,20)" style="font-family: sans-serif; font-size: 16px; fill: #000; opacity: 1;">1.70</text></g><g class="mark-rule role-axis-domain" style="pointer-events: none;"><line transform="translate(0,0)" x2="600" y2="0" style="fill: none; stroke: #888; stroke-width: 1; opacity: 1;"></line></g><g class="mark-text role-axis-title" style="pointer-events: none;"><text text-anchor="middle" transform="translate(300,43)" style="font-family: sans-serif; font-size: 20px; font-weight: bold; fill: #000; opacity: 1;">T/Tₘ</text></g></g></g></g><g class="mark-group role-axis"><g transform="translate(0.5,0.5)"><path class="background" d="M0,0h0v0h0Z" style="pointer-events: none; fill: none;"></path><g><g class="mark-rule role-axis-tick" style="pointer-events: none;"><line transform="translate(0,400)" x2="-5" y2="0" style="fill: none; stroke: #888; stroke-width: 1; opacity: 1;"></line><line transform="translate(0,356)" x2="-5" y2="0" style="fill: none; stroke: #888; stroke-width: 1; opacity: 1;"></line><line transform="translate(0,311)" x2="-5" y2="0" style="fill: none; stroke: #888; stroke-width: 1; opacity: 1;"></line><line transform="translate(0,267)" x2="-5" y2="0" style="fill: none; stroke: #888; stroke-width: 1; opacity: 1;"></line><line transform="translate(0,222)" x2="-5" y2="0" style="fill: none; stroke: #888; stroke-width: 1; opacity: 1;"></line><line transform="translate(0,178)" x2="-5" y2="0" style="fill: none; stroke: #888; stroke-width: 1; opacity: 1;"></line><line transform="translate(0,133)" x2="-5" y2="0" style="fill: none; stroke: #888; stroke-width: 1; opacity: 1;"></line><line transform="translate(0,89)" x2="-5" y2="0" style="fill: none; stroke: #888; stroke-width: 1; opacity: 1;"></line><line transform="translate(0,44)" x2="-5" y2="0" style="fill: none; stroke: #888; stroke-width: 1; opacity: 1;"></line><line transform="translate(0,0)" x2="-5" y2="0" style="fill: none; stroke: #888; stroke-width: 1; opacity: 1;"></line></g><g class="mark-text role-axis-label" style="pointer-events: none;"><text text-anchor="end" transform="translate(-7,405)" style="font-family: sans-serif; font-size: 16px; fill: #000; opacity: 1;">-8.0e-5</text><text text-anchor="end" transform="translate(-7,360.5555555555555)" style="font-family: sans-serif; font-size: 16px; fill: #000; opacity: 1;">-7.0e-5</text><text text-anchor="end" transform="translate(-7,316.1111111111111)" style="font-family: sans-serif; font-size: 16px; fill: #000; opacity: 1;">-6.0e-5</text><text text-anchor="end" transform="translate(-7,271.66666666666663)" style="font-family: sans-serif; font-size: 16px; fill: #000; opacity: 1;">-5.0e-5</text><text text-anchor="end" transform="translate(-7,227.2222222222222)" style="font-family: sans-serif; font-size: 16px; fill: #000; opacity: 1;">-4.0e-5</text><text text-anchor="end" transform="translate(-7,182.77777777777777)" style="font-family: sans-serif; font-size: 16px; fill: #000; opacity: 1;">-3.0e-5</text><text text-anchor="end" transform="translate(-7,138.33333333333331)" style="font-family: sans-serif; font-size: 16px; fill: #000; opacity: 1;">-2.0e-5</text><text text-anchor="end" transform="translate(-7,93.88888888888886)" style="font-family: sans-serif; font-size: 16px; fill: #000; opacity: 1;">-1.0e-5</text><text text-anchor="end" transform="translate(-7,49.4444444444444)" style="font-family: sans-serif; font-size: 16px; fill: #000; opacity: 1;">0.0e+0</text><text text-anchor="end" transform="translate(-7,5)" style="font-family: sans-serif; font-size: 16px; fill: #000; opacity: 1;">1.0e-5</text></g><g class="mark-rule role-axis-domain" style="pointer-events: none;"><line transform="translate(0,400)" x2="0" y2="-400" style="fill: none; stroke: #888; stroke-width: 1; opacity: 1;"></line></g><g class="mark-text role-axis-title" style="pointer-events: none;"><text text-anchor="middle" transform="translate(-69,200) rotate(-90) translate(0,-4)" style="font-family: sans-serif; font-size: 20px; font-weight: bold; fill: #000; opacity: 1;">Melting Rate</text></g></g></g></g></g></g></g></g></svg>