<svg class="marks" width="734" height="451" viewBox="0 0 734 451" version="1.1" xmlns="http://www.w3.org/2000/svg" xmlns:xlink="http://www.w3.org/1999/xlink"><g transform="translate(56,11)"><g class="mark-group role-frame root"><g transform="translate(0,0)"><path class="background" d="M0.5,0.5h600v400h-600Z" style="fill: none; stroke: #ddd;"></path><g><g class="mark-symbol role-mark layer_0_layer_0_marks"><path transform="translate(144.4444444444444,37.1719563138231)" d="M2.7386127875258306,0A2.7386127875258306,2.7386127875258306,0,1,1,-2.7386127875258306,0A2.7386127875258306,2.7386127875258306,0,1,1,2.7386127875258306,0" style="fill: none; stroke: #4c78a8; stroke-width: 2; opacity: 0.7;"></path><path transform="translate(144.4444444444444,36.86053485734362)" d="M2.7386127875258306,0A2.7386127875258306,2.7386127875258306,0,1,1,-2.7386127875258306,0A2.7386127875258306,2.7386127875258306,0,1,1,2.7386127875258306,0" style="fill: none; stroke: #4c78a8; stroke-width: 2; opacity: 0.7;"></path><path transform="translate(144.4444444444444,36.828026395814334)" d="M2.7386127875258306,0A2.7386127875258306,2.7386127875258306,0,1,1,-2.7386127875258306,0A2.7386127875258306,2.7386127875258306,0,1,1,2.7386127875258306,0" style="fill: none; stroke: #4c78a8; stroke-width: 2; opacity: 0.7;"></path><path transform="translate(144.4444444444444,37.11543682051541)" d="M2.7386127875258306,0A2.7386127875258306,2.7386127875258306,0,1,1,-2.7386127875258306,0A2.7386127875258306,2.7386127875258306,0,1,1,2.7386127875258306,0" style="fill: none; stroke: #4c78a8; stroke-width: 2; opacity: 0.7;"></path><path transform="translate(144.4444444444444,36.871755226513756)" d="M2.7386127875258306,0A2.7386127875258306,2.7386127875258306,0,1,1,-2.7386127875258306,0A2.7386127875258306,2.7386127875258306,0,1,1,2.7386127875258306,0" style="fill: none; stroke: #4c78a8; stroke-width: 2; opacity: 0.7;"></path><path transform="translate(213.88888888888894,40.655833186675295)" d="M2.7386127875258306,0A2.7386127875258306,2.7386127875258306,0,1,1,-2.7386127875258306,0A2.7386127875258306,2.7386127875258306,0,1,1,2.7386127875258306,0" style="fill: none; stroke: #4c78a8; stroke-width: 2; opacity: 0.7;"></path><path transform="translate(213.88888888888894,38.847900086896175)" d="M2.7386127875258306,0A2.7386127875258306,2.7386127875258306,0,1,1,-2.7386127875258306,0A2.7386127875258306,2.7386127875258306,0,1,1,2.7386127875258306,0" style="fill: none; stroke: #4c78a8; stroke-width: 2; opacity: 0.7;"></path><path transform="translate(213.88888888888894,40.26956998467472)" d="M2.7386127875258306,0A2.7386127875258306,2.7386127875258306,0,1,1,-2.7386127875258306,0A2.7386127875258306,2.7386127875258306,0,1,1,2.7386127875258306,0" style="fill: none; stroke: #4c78a8; stroke-width: 2; opacity: 0.7;"></path><path transform="translate(213.88888888888894,40.14691669342869)" d="M2.7386127875258306,0A2.7386127875258306,2.7386127875258306,0,1,1,-2.7386127875258306,0A2.7386127875258306,2.7386127875258306,0,1,1,2.7386127875258306,0" style="fill: none; stroke: #4c78a8; stroke-width: 2; opacity: 0.7;"></path><path transform="translate(213.88888888888894,40.568660983692666)" d="M2.7386127875258306,0A2.7386127875258306,2.7386127875258306,0,1,1,-2.7386127875258306,0A2.7386127875258306,2.7386127875258306,0,1,1,2.7386127875258306,0" style="fill: none; stroke: #4c78a8; stroke-width: 2; opacity: 0.7;"></path><path transform="translate(283.33333333333337,44.10962568685693)" d="M2.7386127875258306,0A2.7386127875258306,2.7386127875258306,0,1,1,-2.7386127875258306,0A2.7386127875258306,2.7386127875258306,0,1,1,2.7386127875258306,0" style="fill: none; stroke: #4c78a8; stroke-width: 2; opacity: 0.7;"></path><path transform="translate(283.33333333333337,47.52190036671743)" d="M2.7386127875258306,0A2.7386127875258306,2.7386127875258306,0,1,1,-2.7386127875258306,0A2.7386127875258306,2.7386127875258306,0,1,1,2.7386127875258306,0" style="fill: none; stroke: #4c78a8; stroke-width: 2; opacity: 0.7;"></path><path transform="translate(283.33333333333337,46.40473030699229)" d="M2.7386127875258306,0A2.7386127875258306,2.7386127875258306,0,1,1,-2.7386127875258306,0A2.7386127875258306,2.7386127875258306,0,1,1,2.7386127875258306,0" style="fill: none; stroke: #4c78a8; stroke-width: 2; opacity: 0.7;"></path><path transform="translate(283.33333333333337,47.89686382991232)" d="M2.7386127875258306,0A2.7386127875258306,2.7386127875258306,0,1,1,-2.7386127875258306,0A2.7386127875258306,2.7386127875258306,0,1,1,2.7386127875258306,0" style="fill: none; stroke: #4c78a8; stroke-width: 2; opacity: 0.7;"></path><path transform="translate(283.33333333333337,49.590984527447745)" d="M2.7386127875258306,0A2.7386127875258306,2.7386127875258306,0,1,1,-2.7386127875258306,0A2.7386127875258306,2.7386127875258306,0,1,1,2.7386127875258306,0" style="fill: none; stroke: #4c78a8; stroke-width: 2; opacity: 0.7;"></path><path transform="translate(422.22222222222223,85.49302956548843)" d="M2.7386127875258306,0A2.7386127875258306,2.7386127875258306,0,1,1,-2.7386127875258306,0A2.7386127875258306,2.7386127875258306,0,1,1,2.7386127875258306,0" style="fill: none; stroke: #4c78a8; stroke-width: 2; opacity: 0.7;"></path><path transform="translate(422.22222222222223,87.07875627297614)" d="M2.7386127875258306,0A2.7386127875258306,2.7386127875258306,0,1,1,-2.7386127875258306,0A2.7386127875258306,2.7386127875258306,0,1,1,2.7386127875258306,0" style="fill: none; stroke: #4c78a8; stroke-width: 2; opacity: 0.7;"></path><path transform="translate(422.22222222222223,80.42453442370447)" d="M2.7386127875258306,0A2.7386127875258306,2.7386127875258306,0,1,1,-2.7386127875258306,0A2.7386127875258306,2.7386127875258306,0,1,1,2.7386127875258306,0" style="fill: none; stroke: #4c78a8; stroke-width: 2; opacity: 0.7;"></path><path transform="translate(422.22222222222223,101.03696323792144)" d="M2.7386127875258306,0A2.7386127875258306,2.7386127875258306,0,1,1,-2.7386127875258306,0A2.7386127875258306,2.7386127875258306,0,1,1,2.7386127875258306,0" style="fill: none; stroke: #4c78a8; stroke-width: 2; opacity: 0.7;"></path><path transform="translate(422.22222222222223,94.19605826633762)" d="M2.7386127875258306,0A2.7386127875258306,2.7386127875258306,0,1,1,-2.7386127875258306,0A2.7386127875258306,2.7386127875258306,0,1,1,2.7386127875258306,0" style="fill: none; stroke: #4c78a8; stroke-width: 2; opacity: 0.7;"></path><path transform="translate(491.6666666666668,136.47140215107203)" d="M2.7386127875258306,0A2.7386127875258306,2.7386127875258306,0,1,1,-2.7386127875258306,0A2.7386127875258306,2.7386127875258306,0,1,1,2.7386127875258306,0" style="fill: none; stroke: #4c78a8; stroke-width: 2; opacity: 0.7;"></path><path transform="translate(491.6666666666668,148.19188264701074)" d="M2.7386127875258306,0A2.7386127875258306,2.7386127875258306,0,1,1,-2.7386127875258306,0A2.7386127875258306,2.7386127875258306,0,1,1,2.7386127875258306,0" style="fill: none; stroke: #4c78a8; stroke-width: 2; opacity: 0.7;"></path><path transform="translate(491.6666666666668,126.36467988764662)" d="M2.7386127875258306,0A2.7386127875258306,2.7386127875258306,0,1,1,-2.7386127875258306,0A2.7386127875258306,2.7386127875258306,0,1,1,2.7386127875258306,0" style="fill: none; stroke: #4c78a8; stroke-width: 2; opacity: 0.7;"></path><path transform="translate(491.6666666666668,120.99519073446527)" d="M2.7386127875258306,0A2.7386127875258306,2.7386127875258306,0,1,1,-2.7386127875258306,0A2.7386127875258306,2.7386127875258306,0,1,1,2.7386127875258306,0" style="fill: none; stroke: #4c78a8; stroke-width: 2; opacity: 0.7;"></path><path transform="translate(491.6666666666668,134.4351658765741)" d="M2.7386127875258306,0A2.7386127875258306,2.7386127875258306,0,1,1,-2.7386127875258306,0A2.7386127875258306,2.7386127875258306,0,1,1,2.7386127875258306,0" style="fill: none; stroke: #4c78a8; stroke-width: 2; opacity: 0.7;"></path><path transform="translate(42.592592592592524,36.261161591427935)" d="M2.7386127875258306,0A2.7386127875258306,2.7386127875258306,0,1,1,-2.7386127875258306,0A2.7386127875258306,2.7386127875258306,0,1,1,2.7386127875258306,0" style="fill: none; stroke: #f58518; stroke-width: 2; opacity: 0.7;"></path><path transform="translate(42.592592592592524,36.154863341901944)" d="M2.7386127875258306,0A2.7386127875258306,2.7386127875258306,0,1,1,-2.7386127875258306,0A2.7386127875258306,2.7386127875258306,0,1,1,2.7386127875258306,0" style="fill: none; stroke: #f58518; stroke-width: 2; opacity: 0.7;"></path><path transform="translate(42.592592592592524,36.3934735513497)" d="M2.7386127875258306,0A2.7386127875258306,2.7386127875258306,0,1,1,-2.7386127875258306,0A2.7386127875258306,2.7386127875258306,0,1,1,2.7386127875258306,0" style="fill: none; stroke: #f58518; stroke-width: 2; opacity: 0.7;"></path><path transform="translate(42.592592592592524,35.86559086820762)" d="M2.7386127875258306,0A2.7386127875258306,2.7386127875258306,0,1,1,-2.7386127875258306,0A2.7386127875258306,2.7386127875258306,0,1,1,2.7386127875258306,0" style="fill: none; stroke: #f58518; stroke-width: 2; opacity: 0.7;"></path><path transform="translate(42.592592592592524,36.08304291485365)" d="M2.7386127875258306,0A2.7386127875258306,2.7386127875258306,0,1,1,-2.7386127875258306,0A2.7386127875258306,2.7386127875258306,0,1,1,2.7386127875258306,0" style="fill: none; stroke: #f58518; stroke-width: 2; opacity: 0.7;"></path><path transform="translate(116.66666666666661,36.568185260617554)" d="M2.7386127875258306,0A2.7386127875258306,2.7386127875258306,0,1,1,-2.7386127875258306,0A2.7386127875258306,2.7386127875258306,0,1,1,2.7386127875258306,0" style="fill: none; stroke: #f58518; stroke-width: 2; opacity: 0.7;"></path><path transform="translate(116.66666666666661,36.005714409527)" d="M2.7386127875258306,0A2.7386127875258306,2.7386127875258306,0,1,1,-2.7386127875258306,0A2.7386127875258306,2.7386127875258306,0,1,1,2.7386127875258306,0" style="fill: none; stroke: #f58518; stroke-width: 2; opacity: 0.7;"></path><path transform="translate(116.66666666666661,36.21208520873665)" d="M2.7386127875258306,0A2.7386127875258306,2.7386127875258306,0,1,1,-2.7386127875258306,0A2.7386127875258306,2.7386127875258306,0,1,1,2.7386127875258306,0" style="fill: none; stroke: #f58518; stroke-width: 2; opacity: 0.7;"></path><path transform="translate(116.66666666666661,35.70373579660719)" d="M2.7386127875258306,0A2.7386127875258306,2.7386127875258306,0,1,1,-2.7386127875258306,0A2.7386127875258306,2.7386127875258306,0,1,1,2.7386127875258306,0" style="fill: none; stroke: #f58518; stroke-width: 2; opacity: 0.7;"></path><path transform="translate(116.66666666666661,36.88487632029262)" d="M2.7386127875258306,0A2.7386127875258306,2.7386127875258306,0,1,1,-2.7386127875258306,0A2.7386127875258306,2.7386127875258306,0,1,1,2.7386127875258306,0" style="fill: none; stroke: #f58518; stroke-width: 2; opacity: 0.7;"></path><path transform="translate(190.74074074074068,39.844631818372704)" d="M2.7386127875258306,0A2.7386127875258306,2.7386127875258306,0,1,1,-2.7386127875258306,0A2.7386127875258306,2.7386127875258306,0,1,1,2.7386127875258306,0" style="fill: none; stroke: #f58518; stroke-width: 2; opacity: 0.7;"></path><path transform="translate(190.74074074074068,37.18159208925823)" d="M2.7386127875258306,0A2.7386127875258306,2.7386127875258306,0,1,1,-2.7386127875258306,0A2.7386127875258306,2.7386127875258306,0,1,1,2.7386127875258306,0" style="fill: none; stroke: #f58518; stroke-width: 2; opacity: 0.7;"></path><path transform="translate(190.74074074074068,37.20460516913619)" d="M2.7386127875258306,0A2.7386127875258306,2.7386127875258306,0,1,1,-2.7386127875258306,0A2.7386127875258306,2.7386127875258306,0,1,1,2.7386127875258306,0" style="fill: none; stroke: #f58518; stroke-width: 2; opacity: 0.7;"></path><path transform="translate(190.74074074074068,38.27204668930324)" d="M2.7386127875258306,0A2.7386127875258306,2.7386127875258306,0,1,1,-2.7386127875258306,0A2.7386127875258306,2.7386127875258306,0,1,1,2.7386127875258306,0" style="fill: none; stroke: #f58518; stroke-width: 2; opacity: 0.7;"></path><path transform="translate(190.74074074074068,39.18714453022443)" d="M2.7386127875258306,0A2.7386127875258306,2.7386127875258306,0,1,1,-2.7386127875258306,0A2.7386127875258306,2.7386127875258306,0,1,1,2.7386127875258306,0" style="fill: none; stroke: #f58518; stroke-width: 2; opacity: 0.7;"></path><path transform="translate(375.92592592592587,68.53804673446484)" d="M2.7386127875258306,0A2.7386127875258306,2.7386127875258306,0,1,1,-2.7386127875258306,0A2.7386127875258306,2.7386127875258306,0,1,1,2.7386127875258306,0" style="fill: none; stroke: #f58518; stroke-width: 2; opacity: 0.7;"></path><path transform="translate(375.92592592592587,57.27113299025194)" d="M2.7386127875258306,0A2.7386127875258306,2.7386127875258306,0,1,1,-2.7386127875258306,0A2.7386127875258306,2.7386127875258306,0,1,1,2.7386127875258306,0" style="fill: none; stroke: #f58518; stroke-width: 2; opacity: 0.7;"></path><path transform="translate(375.92592592592587,57.15846165228987)" d="M2.7386127875258306,0A2.7386127875258306,2.7386127875258306,0,1,1,-2.7386127875258306,0A2.7386127875258306,2.7386127875258306,0,1,1,2.7386127875258306,0" style="fill: none; stroke: #f58518; stroke-width: 2; opacity: 0.7;"></path><path transform="translate(375.92592592592587,62.9412322117999)" d="M2.7386127875258306,0A2.7386127875258306,2.7386127875258306,0,1,1,-2.7386127875258306,0A2.7386127875258306,2.7386127875258306,0,1,1,2.7386127875258306,0" style="fill: none; stroke: #f58518; stroke-width: 2; opacity: 0.7;"></path><path transform="translate(375.92592592592587,61.90866976365743)" d="M2.7386127875258306,0A2.7386127875258306,2.7386127875258306,0,1,1,-2.7386127875258306,0A2.7386127875258306,2.7386127875258306,0,1,1,2.7386127875258306,0" style="fill: none; stroke: #f58518; stroke-width: 2; opacity: 0.7;"></path><path transform="translate(561.111111111111,188.2304381794043)" d="M2.7386127875258306,0A2.7386127875258306,2.7386127875258306,0,1,1,-2.7386127875258306,0A2.7386127875258306,2.7386127875258306,0,1,1,2.7386127875258306,0" style="fill: none; stroke: #f58518; stroke-width: 2; opacity: 0.7;"></path><path transform="translate(561.111111111111,200.46220666778876)" d="M2.7386127875258306,0A2.7386127875258306,2.7386127875258306,0,1,1,-2.7386127875258306,0A2.7386127875258306,2.7386127875258306,0,1,1,2.7386127875258306,0" style="fill: none; stroke: #f58518; stroke-width: 2; opacity: 0.7;"></path><path transform="translate(561.111111111111,169.48358355454073)" d="M2.7386127875258306,0A2.7386127875258306,2.7386127875258306,0,1,1,-2.7386127875258306,0A2.7386127875258306,2.7386127875258306,0,1,1,2.7386127875258306,0" style="fill: none; stroke: #f58518; stroke-width: 2; opacity: 0.7;"></path><path transform="translate(561.111111111111,185.32213430283178)" d="M2.7386127875258306,0A2.7386127875258306,2.7386127875258306,0,1,1,-2.7386127875258306,0A2.7386127875258306,2.7386127875258306,0,1,1,2.7386127875258306,0" style="fill: none; stroke: #f58518; stroke-width: 2; opacity: 0.7;"></path><path transform="translate(561.111111111111,171.3933941103826)" d="M2.7386127875258306,0A2.7386127875258306,2.7386127875258306,0,1,1,-2.7386127875258306,0A2.7386127875258306,2.7386127875258306,0,1,1,2.7386127875258306,0" style="fill: none; stroke: #f58518; stroke-width: 2; opacity: 0.7;"></path></g><g class="mark-rule role-mark layer_0_layer_1_marks"><line transform="translate(144.4444444444444,38.12240819172035)" x2="0" y2="-1.9009037557944453" style="fill: none; stroke: #4c78a8;"></line><line transform="translate(144.4444444444444,37.478088664482584)" x2="0" y2="-1.2351076142778652" style="fill: none; stroke: #4c78a8;"></line><line transform="translate(144.4444444444444,37.41640160022604)" x2="0" y2="-1.1767504088235228" style="fill: none; stroke: #4c78a8;"></line><line transform="translate(144.4444444444444,38.00132252007717)" x2="0" y2="-1.7717713991234518" style="fill: none; stroke: #4c78a8;"></line><line transform="translate(144.4444444444444,37.51011818954248)" x2="0" y2="-1.2767259260573383" style="fill: none; stroke: #4c78a8;"></line><line transform="translate(213.88888888888894,45.237584225145724)" x2="0" y2="-9.163502076940915" style="fill: none; stroke: #4c78a8;"></line><line transform="translate(213.88888888888894,41.58101799105191)" x2="0" y2="-5.46623580831141" style="fill: none; stroke: #4c78a8;"></line><line transform="translate(213.88888888888894,44.433612723725275)" x2="0" y2="-8.328085478101173" style="fill: none; stroke: #4c78a8;"></line><line transform="translate(213.88888888888894,44.22551983442537)" x2="0" y2="-8.157206281993354" style="fill: none; stroke: #4c78a8;"></line><line transform="translate(213.88888888888894,45.10853296688185)" x2="0" y2="-9.079743966378203" style="fill: none; stroke: #4c78a8;"></line><line transform="translate(283.33333333333337,52.37983850014035)" x2="0" y2="-16.54042562656673" style="fill: none; stroke: #4c78a8;"></line><line transform="translate(283.33333333333337,59.379318147065305)" x2="0" y2="-23.714835560695747" style="fill: none; stroke: #4c78a8;"></line><line transform="translate(283.33333333333337,57.02630383010967)" x2="0" y2="-21.243147046234753" style="fill: none; stroke: #4c78a8;"></line><line transform="translate(283.33333333333337,59.95594221128192)" x2="0" y2="-24.11815676273926" style="fill: none; stroke: #4c78a8;"></line><line transform="translate(283.33333333333337,63.46070055975031)" x2="0" y2="-27.739432064605126" style="fill: none; stroke: #4c78a8;"></line><line transform="translate(422.22222222222223,135.99071746747478)" x2="0" y2="-100.99537580397265" style="fill: none; stroke: #4c78a8;"></line><line transform="translate(422.22222222222223,139.7245000486394)" x2="0" y2="-105.2914875513265" style="fill: none; stroke: #4c78a8;"></line><line transform="translate(422.22222222222223,126.37042888673301)" x2="0" y2="-91.89178892605707" style="fill: none; stroke: #4c78a8;"></line><line transform="translate(422.22222222222223,167.22624122811845)" x2="0" y2="-132.37855598039408" style="fill: none; stroke: #4c78a8;"></line><line transform="translate(422.22222222222223,153.85846233049696)" x2="0" y2="-119.32480812831872" style="fill: none; stroke: #4c78a8;"></line><line transform="translate(491.6666666666668,240.01508086232045)" x2="0" y2="-207.0873574224968" style="fill: none; stroke: #4c78a8;"></line><line transform="translate(491.6666666666668,261.8352007440639)" x2="0" y2="-227.2866361941064" style="fill: none; stroke: #4c78a8;"></line><line transform="translate(491.6666666666668,219.26513464720537)" x2="0" y2="-185.80090951911748" style="fill: none; stroke: #4c78a8;"></line><line transform="translate(491.6666666666668,208.90445826166305)" x2="0" y2="-175.81853505439548" style="fill: none; stroke: #4c78a8;"></line><line transform="translate(491.6666666666668,235.64600751074806)" x2="0" y2="-202.42168326834792" style="fill: none; stroke: #4c78a8;"></line><line transform="translate(42.592592592592524,36.27380803038699)" x2="0" y2="-0.025292877918047907" style="fill: none; stroke: #f58518;"></line><line transform="translate(42.592592592592524,36.247719619760346)" x2="0" y2="-0.18571255571674783" style="fill: none; stroke: #f58518;"></line><line transform="translate(42.592592592592524,36.55516551776634)" x2="0" y2="-0.3233839328331669" style="fill: none; stroke: #f58518;"></line><line transform="translate(42.592592592592524,36.23968626598173)" x2="0" y2="-0.7481907955481688" style="fill: none; stroke: #f58518;"></line><line transform="translate(42.592592592592524,36.24944789305198)" x2="0" y2="-0.33280995639671573" style="fill: none; stroke: #f58518;"></line><line transform="translate(116.66666666666661,36.99609243485094)" x2="0" y2="-0.8558143484667653" style="fill: none; stroke: #f58518;"></line><line transform="translate(116.66666666666661,36.10974227534467)" x2="0" y2="-0.20805573163534063" style="fill: none; stroke: #f58518;"></line><line transform="translate(116.66666666666661,36.29682539186746)" x2="0" y2="-0.16948036626155272" style="fill: none; stroke: #f58518;"></line><line transform="translate(116.66666666666661,36.11059335874762)" x2="0" y2="-0.8137151242808613" style="fill: none; stroke: #f58518;"></line><line transform="translate(116.66666666666661,37.67195342763381)" x2="0" y2="-1.5741542146823804" style="fill: none; stroke: #f58518;"></line><line transform="translate(190.74074074074068,43.75697290688652)" x2="0" y2="-7.824682177027626" style="fill: none; stroke: #f58518;"></line><line transform="translate(190.74074074074068,38.46019968135005)" x2="0" y2="-2.55721518418369" style="fill: none; stroke: #f58518;"></line><line transform="translate(190.74074074074068,38.572595427489716)" x2="0" y2="-2.735980516707116" style="fill: none; stroke: #f58518;"></line><line transform="translate(190.74074074074068,40.678778055642624)" x2="0" y2="-4.813462732678602" style="fill: none; stroke: #f58518;"></line><line transform="translate(190.74074074074068,42.48726480406833)" x2="0" y2="-6.600240547687974" style="fill: none; stroke: #f58518;"></line><line transform="translate(375.92592592592587,101.92255685000305)" x2="0" y2="-66.7690202310763" style="fill: none; stroke: #f58518;"></line><line transform="translate(375.92592592592587,79.44957739539404)" x2="0" y2="-44.356888810284204" style="fill: none; stroke: #f58518;"></line><line transform="translate(375.92592592592587,78.98271421540005)" x2="0" y2="-43.648505126220414" style="fill: none; stroke: #f58518;"></line><line transform="translate(375.92592592592587,91.01727355574553)" x2="0" y2="-56.152082687891266" style="fill: none; stroke: #f58518;"></line><line transform="translate(375.92592592592587,88.46008638797753)" x2="0" y2="-53.10283324864031" style="fill: none; stroke: #f58518;"></line><line transform="translate(561.111111111111,344.29394521809644)" x2="0" y2="-312.1270140773843" style="fill: none; stroke: #f58518;"></line><line transform="translate(561.111111111111,367.71583372267236)" x2="0" y2="-334.5072541097672" style="fill: none; stroke: #f58518;"></line><line transform="translate(561.111111111111,306.3078478326457)" x2="0" y2="-273.6485285562099" style="fill: none; stroke: #f58518;"></line><line transform="translate(561.111111111111,337.8983918076225)" x2="0" y2="-305.15251500958146" style="fill: none; stroke: #f58518;"></line><line transform="translate(561.111111111111,310.4365593099472)" x2="0" y2="-278.0863303991292" style="fill: none; stroke: #f58518;"></line></g><g class="mark-rule role-mark layer_1_marks"><line transform="translate(0,36.363636363636374)" x2="600" y2="0" style="fill: none; stroke: grey;"></line><line transform="translate(0,36.363636363636374)" x2="600" y2="0" style="fill: none; stroke: grey;"></line><line transform="translate(0,36.363636363636374)" x2="600" y2="0" style="fill: none; stroke: grey;"></line><line transform="translate(0,36.363636363636374)" x2="600" y2="0" style="fill: none; stroke: grey;"></line><line transform="translate(0,36.363636363636374)" x2="600" y2="0" style="fill: none; stroke: grey;"></line><line transform="translate(0,36.363636363636374)" x2="600" y2="0" style="fill: none; stroke: grey;"></line><line transform="translate(0,36.363636363636374)" x2="600" y2="0" style="fill: none; stroke: grey;"></line><line transform="translate(0,36.363636363636374)" x2="600" y2="0" style="fill: none; stroke: grey;"></line><line transform="translate(0,36.363636363636374)" x2="600" y2="0" style="fill: none; stroke: grey;"></line><line transform="translate(0,36.363636363636374)" x2="600" y2="0" style="fill: none; stroke: grey;"></line><line transform="translate(0,36.363636363636374)" x2="600" y2="0" style="fill: none; stroke: grey;"></line><line transform="translate(0,36.363636363636374)" x2="600" y2="0" style="fill: none; stroke: grey;"></line><line transform="translate(0,36.363636363636374)" x2="600" y2="0" style="fill: none; stroke: grey;"></line><line transform="translate(0,36.363636363636374)" x2="600" y2="0" style="fill: none; stroke: grey;"></line><line transform="translate(0,36.363636363636374)" x2="600" y2="0" style="fill: none; stroke: grey;"></line><line transform="translate(0,36.363636363636374)" x2="600" y2="0" style="fill: none; stroke: grey;"></line><line transform="translate(0,36.363636363636374)" x2="600" y2="0" style="fill: none; stroke: grey;"></line><line transform="translate(0,36.363636363636374)" x2="600" y2="0" style="fill: none; stroke: grey;"></line><line transform="translate(0,36.363636363636374)" x2="600" y2="0" style="fill: none; stroke: grey;"></line><line transform="translate(0,36.363636363636374)" x2="600" y2="0" style="fill: none; stroke: grey;"></line><line transform="translate(0,36.363636363636374)" x2="600" y2="0" style="fill: none; stroke: grey;"></line><line transform="translate(0,36.363636363636374)" x2="600" y2="0" style="fill: none; stroke: grey;"></line><line transform="translate(0,36.363636363636374)" x2="600" y2="0" style="fill: none; stroke: grey;"></line><line transform="translate(0,36.363636363636374)" x2="600" y2="0" style="fill: none; stroke: grey;"></line><line transform="translate(0,36.363636363636374)" x2="600" y2="0" style="fill: none; stroke: grey;"></line><line transform="translate(0,36.363636363636374)" x2="600" y2="0" style="fill: none; stroke: grey;"></line><line transform="translate(0,36.363636363636374)" x2="600" y2="0" style="fill: none; stroke: grey;"></line><line transform="translate(0,36.363636363636374)" x2="600" y2="0" style="fill: none; stroke: grey;"></line><line transform="translate(0,36.363636363636374)" x2="600" y2="0" style="fill: none; stroke: grey;"></line><line transform="translate(0,36.363636363636374)" x2="600" y2="0" style="fill: none; stroke: grey;"></line><line transform="translate(0,36.363636363636374)" x2="600" y2="0" style="fill: none; stroke: grey;"></line><line transform="translate(0,36.363636363636374)" x2="600" y2="0" style="fill: none; stroke: grey;"></line><line transform="translate(0,36.363636363636374)" x2="600" y2="0" style="fill: none; stroke: grey;"></line><line transform="translate(0,36.363636363636374)" x2="600" y2="0" style="fill: none; stroke: grey;"></line><line transform="translate(0,36.363636363636374)" x2="600" y2="0" style="fill: none; stroke: grey;"></line><line transform="translate(0,36.363636363636374)" x2="600" y2="0" style="fill: none; stroke: grey;"></line><line transform="translate(0,36.363636363636374)" x2="600" y2="0" style="fill: none; stroke: grey;"></line><line transform="translate(0,36.363636363636374)" x2="600" y2="0" style="fill: none; stroke: grey;"></line><line transform="translate(0,36.363636363636374)" x2="600" y2="0" style="fill: none; stroke: grey;"></line><line transform="translate(0,36.363636363636374)" x2="600" y2="0" style="fill: none; stroke: grey;"></line><line transform="translate(0,36.363636363636374)" x2="600" y2="0" style="fill: none; stroke: grey;"></line><line transform="translate(0,36.363636363636374)" x2="600" y2="0" style="fill: none; stroke: grey;"></line><line transform="translate(0,36.363636363636374)" x2="600" y2="0" style="fill: none; stroke: grey;"></line><line transform="translate(0,36.363636363636374)" x2="600" y2="0" style="fill: none; stroke: grey;"></line><line transform="translate(0,36.363636363636374)" x2="600" y2="0" style="fill: none; stroke: grey;"></line><line transform="translate(0,36.363636363636374)" x2="600" y2="0" style="fill: none; stroke: grey;"></line><line transform="translate(0,36.363636363636374)" x2="600" y2="0" style="fill: none; stroke: grey;"></line><line transform="translate(0,36.363636363636374)" x2="600" y2="0" style="fill: none; stroke: grey;"></line><line transform="translate(0,36.363636363636374)" x2="600" y2="0" style="fill: none; stroke: grey;"></line><line transform="translate(0,36.363636363636374)" x2="600" y2="0" style="fill: none; stroke: grey;"></line></g><g class="mark-group role-legend"><g transform="translate(618,0)"><path class="background" d="M0,0h55v45h-55Z" style="pointer-events: none; fill: none;"></path><g><g class="mark-group role-legend-entry"><g transform="translate(0,16)"><path class="background" d="M0,0h0v0h0Z" style="pointer-events: none; fill: none;"></path><g><g class="mark-group role-scope"><g transform="translate(0,0)"><path class="background" d="M0,0h38v12.5h-38Z" style="pointer-events: none; fill: none; opacity: 1;"></path><g><g class="mark-symbol role-legend-symbol" style="pointer-events: none;"><path transform="translate(6,6)" d="M5,0A5,5,0,1,1,-5,0A5,5,0,1,1,5,0" style="fill: none; stroke: #4c78a8; stroke-width: 1.5; opacity: 0.7;"></path></g><g class="mark-text role-legend-label" style="pointer-events: none;"><text text-anchor="start" transform="translate(16,9)" style="font-family: sans-serif; font-size: 10px; fill: #000; opacity: 1;">1</text></g></g></g><g transform="translate(0,16)"><path class="background" d="M0,0h38v12.5h-38Z" style="pointer-events: none; fill: none; opacity: 1;"></path><g><g class="mark-symbol role-legend-symbol" style="pointer-events: none;"><path transform="translate(6,6)" d="M5,0A5,5,0,1,1,-5,0A5,5,0,1,1,5,0" style="fill: none; stroke: #f58518; stroke-width: 1.5; opacity: 0.7;"></path></g><g class="mark-text role-legend-label" style="pointer-events: none;"><text text-anchor="start" transform="translate(16,9)" style="font-family: sans-serif; font-size: 10px; fill: #000; opacity: 1;">13.5</text></g></g></g></g></g></g></g><g class="mark-text role-legend-title" style="pointer-events: none;"><text text-anchor="start" transform="translate(0,9)" style="font-family: sans-serif; font-size: 11px; font-weight: bold; fill: #000; opacity: 1;">Pressure</text></g></g></g></g><g class="mark-group role-axis"><g transform="translate(0.5,400.5)"><path class="background" d="M0,0h0v0h0Z" style="pointer-events: none; fill: none;"></path><g><g class="mark-rule role-axis-tick" style="pointer-events: none;"><line transform="translate(0,0)" x2="0" y2="5" style="fill: none; stroke: #888; stroke-width: 1; opacity: 1;"></line><line transform="translate(50,0)" x2="0" y2="5" style="fill: none; stroke: #888; stroke-width: 1; opacity: 1;"></line><line transform="translate(100,0)" x2="0" y2="5" style="fill: none; stroke: #888; stroke-width: 1; opacity: 1;"></line><line transform="translate(150,0)" x2="0" y2="5" style="fill: none; stroke: #888; stroke-width: 1; opacity: 1;"></line><line transform="translate(200,0)" x2="0" y2="5" style="fill: none; stroke: #888; stroke-width: 1; opacity: 1;"></line><line transform="translate(250,0)" x2="0" y2="5" style="fill: none; stroke: #888; stroke-width: 1; opacity: 1;"></line><line transform="translate(300,0)" x2="0" y2="5" style="fill: none; stroke: #888; stroke-width: 1; opacity: 1;"></line><line transform="translate(350,0)" x2="0" y2="5" style="fill: none; stroke: #888; stroke-width: 1; opacity: 1;"></line><line transform="translate(400,0)" x2="0" y2="5" style="fill: none; stroke: #888; stroke-width: 1; opacity: 1;"></line><line transform="translate(450,0)" x2="0" y2="5" style="fill: none; stroke: #888; stroke-width: 1; opacity: 1;"></line><line transform="translate(500,0)" x2="0" y2="5" style="fill: none; stroke: #888; stroke-width: 1; opacity: 1;"></line><line transform="translate(550,0)" x2="0" y2="5" style="fill: none; stroke: #888; stroke-width: 1; opacity: 1;"></line><line transform="translate(600,0)" x2="0" y2="5" style="fill: none; stroke: #888; stroke-width: 1; opacity: 1;"></line></g><g class="mark-text role-axis-label" style="pointer-events: none;"><text text-anchor="start" transform="translate(0,15)" style="font-family: sans-serif; font-size: 10px; fill: #000; opacity: 1;">1.1</text><text text-anchor="middle" transform="translate(49.99999999999995,15)" style="font-family: sans-serif; font-size: 10px; fill: #000; opacity: 1;">1.2</text><text text-anchor="middle" transform="translate(100,15)" style="font-family: sans-serif; font-size: 10px; fill: #000; opacity: 1;">1.3</text><text text-anchor="middle" transform="translate(149.99999999999994,15)" style="font-family: sans-serif; font-size: 10px; fill: #000; opacity: 1;">1.4</text><text text-anchor="middle" transform="translate(200,15)" style="font-family: sans-serif; font-size: 10px; fill: #000; opacity: 1;">1.5</text><text text-anchor="middle" transform="translate(250.00000000000006,15)" style="font-family: sans-serif; font-size: 10px; fill: #000; opacity: 1;">1.6</text><text text-anchor="middle" transform="translate(300,15)" style="font-family: sans-serif; font-size: 10px; fill: #000; opacity: 1;">1.7</text><text text-anchor="middle" transform="translate(350.0000000000001,15)" style="font-family: sans-serif; font-size: 10px; fill: #000; opacity: 1;">1.8</text><text text-anchor="middle" transform="translate(400,15)" style="font-family: sans-serif; font-size: 10px; fill: #000; opacity: 1;">1.9</text><text text-anchor="middle" transform="translate(450.00000000000006,15)" style="font-family: sans-serif; font-size: 10px; fill: #000; opacity: 1;">2.0</text><text text-anchor="middle" transform="translate(500.0000000000001,15)" style="font-family: sans-serif; font-size: 10px; fill: #000; opacity: 1;">2.1</text><text text-anchor="middle" transform="translate(550.0000000000002,15)" style="font-family: sans-serif; font-size: 10px; fill: #000; opacity: 1;">2.2</text><text text-anchor="end" transform="translate(600,15)" style="font-family: sans-serif; font-size: 10px; fill: #000; opacity: 1;">2.3</text></g><g class="mark-rule role-axis-domain" style="pointer-events: none;"><line transform="translate(0,0)" x2="600" y2="0" style="fill: none; stroke: #888; stroke-width: 1; opacity: 1;"></line></g><g class="mark-text role-axis-title" style="pointer-events: none;"><text text-anchor="middle" transform="translate(300,31)" style="font-family: sans-serif; font-size: 11px; font-weight: bold; fill: #000; opacity: 1;">T/Tₘ</text></g></g></g></g><g class="mark-group role-axis"><g transform="translate(0.5,0.5)"><path class="background" d="M0,0h0v0h0Z" style="pointer-events: none; fill: none;"></path><g><g class="mark-rule role-axis-tick" style="pointer-events: none;"><line transform="translate(0,400)" x2="-5" y2="0" style="fill: none; stroke: #888; stroke-width: 1; opacity: 1;"></line><line transform="translate(0,364)" x2="-5" y2="0" style="fill: none; stroke: #888; stroke-width: 1; opacity: 1;"></line><line transform="translate(0,327)" x2="-5" y2="0" style="fill: none; stroke: #888; stroke-width: 1; opacity: 1;"></line><line transform="translate(0,291)" x2="-5" y2="0" style="fill: none; stroke: #888; stroke-width: 1; opacity: 1;"></line><line transform="translate(0,255)" x2="-5" y2="0" style="fill: none; stroke: #888; stroke-width: 1; opacity: 1;"></line><line transform="translate(0,218)" x2="-5" y2="0" style="fill: none; stroke: #888; stroke-width: 1; opacity: 1;"></line><line transform="translate(0,182)" x2="-5" y2="0" style="fill: none; stroke: #888; stroke-width: 1; opacity: 1;"></line><line transform="translate(0,145)" x2="-5" y2="0" style="fill: none; stroke: #888; stroke-width: 1; opacity: 1;"></line><line transform="translate(0,109)" x2="-5" y2="0" style="fill: none; stroke: #888; stroke-width: 1; opacity: 1;"></line><line transform="translate(0,73)" x2="-5" y2="0" style="fill: none; stroke: #888; stroke-width: 1; opacity: 1;"></line><line transform="translate(0,36)" x2="-5" y2="0" style="fill: none; stroke: #888; stroke-width: 1; opacity: 1;"></line><line transform="translate(0,0)" x2="-5" y2="0" style="fill: none; stroke: #888; stroke-width: 1; opacity: 1;"></line></g><g class="mark-text role-axis-label" style="pointer-events: none;"><text text-anchor="end" transform="translate(-7,403)" style="font-family: sans-serif; font-size: 10px; fill: #000; opacity: 1;">-1e-3</text><text text-anchor="end" transform="translate(-7,366.6363636363636)" style="font-family: sans-serif; font-size: 10px; fill: #000; opacity: 1;">-9e-4</text><text text-anchor="end" transform="translate(-7,330.27272727272725)" style="font-family: sans-serif; font-size: 10px; fill: #000; opacity: 1;">-8e-4</text><text text-anchor="end" transform="translate(-7,293.9090909090909)" style="font-family: sans-serif; font-size: 10px; fill: #000; opacity: 1;">-7e-4</text><text text-anchor="end" transform="translate(-7,257.5454545454545)" style="font-family: sans-serif; font-size: 10px; fill: #000; opacity: 1;">-6e-4</text><text text-anchor="end" transform="translate(-7,221.1818181818182)" style="font-family: sans-serif; font-size: 10px; fill: #000; opacity: 1;">-5e-4</text><text text-anchor="end" transform="translate(-7,184.81818181818178)" style="font-family: sans-serif; font-size: 10px; fill: #000; opacity: 1;">-4e-4</text><text text-anchor="end" transform="translate(-7,148.4545454545454)" style="font-family: sans-serif; font-size: 10px; fill: #000; opacity: 1;">-3e-4</text><text text-anchor="end" transform="translate(-7,112.09090909090907)" style="font-family: sans-serif; font-size: 10px; fill: #000; opacity: 1;">-2e-4</text><text text-anchor="end" transform="translate(-7,75.72727272727275)" style="font-family: sans-serif; font-size: 10px; fill: #000; opacity: 1;">-1e-4</text><text text-anchor="end" transform="translate(-7,39.363636363636374)" style="font-family: sans-serif; font-size: 10px; fill: #000; opacity: 1;">0e+0</text><text text-anchor="end" transform="translate(-7,3)" style="font-family: sans-serif; font-size: 10px; fill: #000; opacity: 1;">1e-4</text></g><g class="mark-rule role-axis-domain" style="pointer-events: none;"><line transform="translate(0,400)" x2="0" y2="-400" style="fill: none; stroke: #888; stroke-width: 1; opacity: 1;"></line></g><g class="mark-text role-axis-title" style="pointer-events: none;"><text text-anchor="middle" transform="translate(-38,200) rotate(-90) translate(0,-2)" style="font-family: sans-serif; font-size: 11px; font-weight: bold; fill: #000; opacity: 1;">Crystal Growth Rate</text></g></g></g></g></g></g></g></g></svg>