<svg class="marks" width="818" height="465" viewBox="0 0 818 465" version="1.1" xmlns="http://www.w3.org/2000/svg" xmlns:xlink="http://www.w3.org/1999/xlink"><rect width="818" height="465" style="fill: white;"></rect><g transform="translate(94,13)"><g class="mark-group role-frame root"><g transform="translate(0,0)"><path class="background" d="M0.5,0.5h600v400h-600Z" style="fill: none; stroke: #ddd;"></path><g><g class="mark-symbol role-mark layer_0_layer_0_marks"><path transform="translate(47.61904761904764,0.02872159094727067)" d="M2.7386127875258306,0A2.7386127875258306,2.7386127875258306,0,1,1,-2.7386127875258306,0A2.7386127875258306,2.7386127875258306,0,1,1,2.7386127875258306,0" style="fill: none; stroke: #4c78a8; stroke-width: 2; opacity: 0.7;"></path><path transform="translate(71.42857142857174,0.06970060847220338)" d="M2.7386127875258306,0A2.7386127875258306,2.7386127875258306,0,1,1,-2.7386127875258306,0A2.7386127875258306,2.7386127875258306,0,1,1,2.7386127875258306,0" style="fill: none; stroke: #4c78a8; stroke-width: 2; opacity: 0.7;"></path><path transform="translate(95.23809523809528,0.11188061864362453)" d="M2.7386127875258306,0A2.7386127875258306,2.7386127875258306,0,1,1,-2.7386127875258306,0A2.7386127875258306,2.7386127875258306,0,1,1,2.7386127875258306,0" style="fill: none; stroke: #4c78a8; stroke-width: 2; opacity: 0.7;"></path><path transform="translate(214.28571428571428,3.4508763275095475)" d="M2.7386127875258306,0A2.7386127875258306,2.7386127875258306,0,1,1,-2.7386127875258306,0A2.7386127875258306,2.7386127875258306,0,1,1,2.7386127875258306,0" style="fill: none; stroke: #4c78a8; stroke-width: 2; opacity: 0.7;"></path><path transform="translate(333.33333333333326,22.980446437904902)" d="M2.7386127875258306,0A2.7386127875258306,2.7386127875258306,0,1,1,-2.7386127875258306,0A2.7386127875258306,2.7386127875258306,0,1,1,2.7386127875258306,0" style="fill: none; stroke: #4c78a8; stroke-width: 2; opacity: 0.7;"></path><path transform="translate(452.3809523809525,96.33106741578399)" d="M2.7386127875258306,0A2.7386127875258306,2.7386127875258306,0,1,1,-2.7386127875258306,0A2.7386127875258306,2.7386127875258306,0,1,1,2.7386127875258306,0" style="fill: none; stroke: #4c78a8; stroke-width: 2; opacity: 0.7;"></path><path transform="translate(571.4285714285716,338.7739877908596)" d="M2.7386127875258306,0A2.7386127875258306,2.7386127875258306,0,1,1,-2.7386127875258306,0A2.7386127875258306,2.7386127875258306,0,1,1,2.7386127875258306,0" style="fill: none; stroke: #4c78a8; stroke-width: 2; opacity: 0.7;"></path><path transform="translate(31.746031746031697,0.025739032757314817)" d="M2.7386127875258306,0A2.7386127875258306,2.7386127875258306,0,1,1,-2.7386127875258306,0A2.7386127875258306,2.7386127875258306,0,1,1,2.7386127875258306,0" style="fill: none; stroke: #f58518; stroke-width: 2; opacity: 0.7;"></path><path transform="translate(63.492063492063394,0.07232961753970812)" d="M2.7386127875258306,0A2.7386127875258306,2.7386127875258306,0,1,1,-2.7386127875258306,0A2.7386127875258306,2.7386127875258306,0,1,1,2.7386127875258306,0" style="fill: none; stroke: #f58518; stroke-width: 2; opacity: 0.7;"></path><path transform="translate(95.2380952380951,0.1662686171482619)" d="M2.7386127875258306,0A2.7386127875258306,2.7386127875258306,0,1,1,-2.7386127875258306,0A2.7386127875258306,2.7386127875258306,0,1,1,2.7386127875258306,0" style="fill: none; stroke: #f58518; stroke-width: 2; opacity: 0.7;"></path><path transform="translate(158.73015873015868,0.7951767191732415)" d="M2.7386127875258306,0A2.7386127875258306,2.7386127875258306,0,1,1,-2.7386127875258306,0A2.7386127875258306,2.7386127875258306,0,1,1,2.7386127875258306,0" style="fill: none; stroke: #f58518; stroke-width: 2; opacity: 0.7;"></path><path transform="translate(285.71428571428567,8.521691455761925)" d="M2.7386127875258306,0A2.7386127875258306,2.7386127875258306,0,1,1,-2.7386127875258306,0A2.7386127875258306,2.7386127875258306,0,1,1,2.7386127875258306,0" style="fill: none; stroke: #f58518; stroke-width: 2; opacity: 0.7;"></path><path transform="translate(412.69841269841265,48.31232651544826)" d="M2.7386127875258306,0A2.7386127875258306,2.7386127875258306,0,1,1,-2.7386127875258306,0A2.7386127875258306,2.7386127875258306,0,1,1,2.7386127875258306,0" style="fill: none; stroke: #f58518; stroke-width: 2; opacity: 0.7;"></path><path transform="translate(539.6825396825399,196.35191632091957)" d="M2.7386127875258306,0A2.7386127875258306,2.7386127875258306,0,1,1,-2.7386127875258306,0A2.7386127875258306,2.7386127875258306,0,1,1,2.7386127875258306,0" style="fill: none; stroke: #f58518; stroke-width: 2; opacity: 0.7;"></path></g><g class="mark-rule role-mark layer_0_layer_1_marks"><line transform="translate(47.61904761904764,0.04002696817195783)" x2="0" y2="-0.022610754449488013" style="fill: none; stroke: #4c78a8;"></line><line transform="translate(71.42857142857174,0.07373589287089999)" x2="0" y2="-0.008070568797393207" style="fill: none; stroke: #4c78a8;"></line><line transform="translate(95.23809523809528,0.12450085744927719)" x2="0" y2="-0.02524047761124848" style="fill: none; stroke: #4c78a8;"></line><line transform="translate(214.28571428571428,3.8132997175630408)" x2="0" y2="-0.7248467801068728" style="fill: none; stroke: #4c78a8;"></line><line transform="translate(333.33333333333326,24.164665788566708)" x2="0" y2="-2.368438701323555" style="fill: none; stroke: #4c78a8;"></line><line transform="translate(452.3809523809525,101.32907641832219)" x2="0" y2="-9.99601800507645" style="fill: none; stroke: #4c78a8;"></line><line transform="translate(571.4285714285716,351.34336506140784)" x2="0" y2="-25.138754541096432" style="fill: none; stroke: #4c78a8;"></line><line transform="translate(31.746031746031697,0.03217775428964842)" x2="0" y2="-0.012877443064610361" style="fill: none; stroke: #f58518;"></line><line transform="translate(63.492063492063394,0.0762567365084692)" x2="0" y2="-0.007854237937635844" style="fill: none; stroke: #f58518;"></line><line transform="translate(95.2380952380951,0.17716650269329648)" x2="0" y2="-0.02179577108995545" style="fill: none; stroke: #f58518;"></line><line transform="translate(158.73015873015868,0.8456403523454696)" x2="0" y2="-0.10092726634445626" style="fill: none; stroke: #f58518;"></line><line transform="translate(285.71428571428567,9.332307062594282)" x2="0" y2="-1.6212312136646574" style="fill: none; stroke: #f58518;"></line><line transform="translate(412.69841269841265,53.64872266177696)" x2="0" y2="-10.672792292657448" style="fill: none; stroke: #f58518;"></line><line transform="translate(539.6825396825399,221.05998853927355)" x2="0" y2="-49.41614443670798" style="fill: none; stroke: #f58518;"></line></g><g class="mark-rule role-mark layer_1_marks"><line transform="translate(0,0)" x2="600" y2="0" style="fill: none; stroke: grey;"></line><line transform="translate(0,0)" x2="600" y2="0" style="fill: none; stroke: grey;"></line><line transform="translate(0,0)" x2="600" y2="0" style="fill: none; stroke: grey;"></line><line transform="translate(0,0)" x2="600" y2="0" style="fill: none; stroke: grey;"></line><line transform="translate(0,0)" x2="600" y2="0" style="fill: none; stroke: grey;"></line><line transform="translate(0,0)" x2="600" y2="0" style="fill: none; stroke: grey;"></line><line transform="translate(0,0)" x2="600" y2="0" style="fill: none; stroke: grey;"></line><line transform="translate(0,0)" x2="600" y2="0" style="fill: none; stroke: grey;"></line><line transform="translate(0,0)" x2="600" y2="0" style="fill: none; stroke: grey;"></line><line transform="translate(0,0)" x2="600" y2="0" style="fill: none; stroke: grey;"></line><line transform="translate(0,0)" x2="600" y2="0" style="fill: none; stroke: grey;"></line><line transform="translate(0,0)" x2="600" y2="0" style="fill: none; stroke: grey;"></line><line transform="translate(0,0)" x2="600" y2="0" style="fill: none; stroke: grey;"></line><line transform="translate(0,0)" x2="600" y2="0" style="fill: none; stroke: grey;"></line></g><g class="mark-group role-legend"><g transform="translate(618,0)"><path class="background" d="M0,0h101v59h-101Z" style="pointer-events: none; fill: none;"></path><g><g class="mark-group role-legend-entry"><g transform="translate(0,25)"><path class="background" d="M0,0h0v0h0Z" style="pointer-events: none; fill: none;"></path><g><g class="mark-group role-scope"><g transform="translate(0,0)"><path class="background" d="M0,0h55v16h-55Z" style="pointer-events: none; fill: none; opacity: 1;"></path><g><g class="mark-symbol role-legend-symbol" style="pointer-events: none;"><path transform="translate(8,8)" d="M5,0A5,5,0,1,1,-5,0A5,5,0,1,1,5,0" style="fill: none; stroke: #4c78a8; stroke-width: 1.5; opacity: 0.7;"></path></g><g class="mark-text role-legend-label" style="pointer-events: none;"><text text-anchor="start" transform="translate(20,13)" style="font-family: sans-serif; font-size: 16px; fill: #000; opacity: 1;">1</text></g></g></g><g transform="translate(0,18)"><path class="background" d="M0,0h55v16h-55Z" style="pointer-events: none; fill: none; opacity: 1;"></path><g><g class="mark-symbol role-legend-symbol" style="pointer-events: none;"><path transform="translate(8,8)" d="M5,0A5,5,0,1,1,-5,0A5,5,0,1,1,5,0" style="fill: none; stroke: #f58518; stroke-width: 1.5; opacity: 0.7;"></path></g><g class="mark-text role-legend-label" style="pointer-events: none;"><text text-anchor="start" transform="translate(20,13)" style="font-family: sans-serif; font-size: 16px; fill: #000; opacity: 1;">13.5</text></g></g></g></g></g></g></g><g class="mark-text role-legend-title" style="pointer-events: none;"><text text-anchor="start" transform="translate(0,16)" style="font-family: sans-serif; font-size: 20px; font-weight: bold; fill: #000; opacity: 1;">Pressure</text></g></g></g></g><g class="mark-group role-axis"><g transform="translate(0.5,400.5)"><path class="background" d="M0,0h0v0h0Z" style="pointer-events: none; fill: none;"></path><g><g class="mark-rule role-axis-tick" style="pointer-events: none;"><line transform="translate(0,0)" x2="0" y2="5" style="fill: none; stroke: #888; stroke-width: 1; opacity: 1;"></line><line transform="translate(43,0)" x2="0" y2="5" style="fill: none; stroke: #888; stroke-width: 1; opacity: 1;"></line><line transform="translate(86,0)" x2="0" y2="5" style="fill: none; stroke: #888; stroke-width: 1; opacity: 1;"></line><line transform="translate(129,0)" x2="0" y2="5" style="fill: none; stroke: #888; stroke-width: 1; opacity: 1;"></line><line transform="translate(171,0)" x2="0" y2="5" style="fill: none; stroke: #888; stroke-width: 1; opacity: 1;"></line><line transform="translate(214,0)" x2="0" y2="5" style="fill: none; stroke: #888; stroke-width: 1; opacity: 1;"></line><line transform="translate(257,0)" x2="0" y2="5" style="fill: none; stroke: #888; stroke-width: 1; opacity: 1;"></line><line transform="translate(300,0)" x2="0" y2="5" style="fill: none; stroke: #888; stroke-width: 1; opacity: 1;"></line><line transform="translate(343,0)" x2="0" y2="5" style="fill: none; stroke: #888; stroke-width: 1; opacity: 1;"></line><line transform="translate(386,0)" x2="0" y2="5" style="fill: none; stroke: #888; stroke-width: 1; opacity: 1;"></line><line transform="translate(429,0)" x2="0" y2="5" style="fill: none; stroke: #888; stroke-width: 1; opacity: 1;"></line><line transform="translate(471,0)" x2="0" y2="5" style="fill: none; stroke: #888; stroke-width: 1; opacity: 1;"></line><line transform="translate(514,0)" x2="0" y2="5" style="fill: none; stroke: #888; stroke-width: 1; opacity: 1;"></line><line transform="translate(557,0)" x2="0" y2="5" style="fill: none; stroke: #888; stroke-width: 1; opacity: 1;"></line><line transform="translate(600,0)" x2="0" y2="5" style="fill: none; stroke: #888; stroke-width: 1; opacity: 1;"></line></g><g class="mark-text role-axis-label" style="pointer-events: none;"><text text-anchor="start" transform="translate(0,20)" style="font-family: sans-serif; font-size: 16px; fill: #000; opacity: 1;">1.00</text><text text-anchor="middle" transform="translate(42.8571428571429,20)" style="font-family: sans-serif; font-size: 16px; fill: #000; opacity: 0;">1.05</text><text text-anchor="middle" transform="translate(85.7142857142858,20)" style="font-family: sans-serif; font-size: 16px; fill: #000; opacity: 1;">1.10</text><text text-anchor="middle" transform="translate(128.5714285714285,20)" style="font-family: sans-serif; font-size: 16px; fill: #000; opacity: 0;">1.15</text><text text-anchor="middle" transform="translate(171.4285714285714,20)" style="font-family: sans-serif; font-size: 16px; fill: #000; opacity: 1;">1.20</text><text text-anchor="middle" transform="translate(214.28571428571428,20)" style="font-family: sans-serif; font-size: 16px; fill: #000; opacity: 0;">1.25</text><text text-anchor="middle" transform="translate(257.14285714285717,20)" style="font-family: sans-serif; font-size: 16px; fill: #000; opacity: 1;">1.30</text><text text-anchor="middle" transform="translate(300.00000000000006,20)" style="font-family: sans-serif; font-size: 16px; fill: #000; opacity: 0;">1.35</text><text text-anchor="middle" transform="translate(342.8571428571428,20)" style="font-family: sans-serif; font-size: 16px; fill: #000; opacity: 1;">1.40</text><text text-anchor="middle" transform="translate(385.71428571428567,20)" style="font-family: sans-serif; font-size: 16px; fill: #000; opacity: 0;">1.45</text><text text-anchor="middle" transform="translate(428.57142857142856,20)" style="font-family: sans-serif; font-size: 16px; fill: #000; opacity: 1;">1.50</text><text text-anchor="middle" transform="translate(471.4285714285715,20)" style="font-family: sans-serif; font-size: 16px; fill: #000; opacity: 0;">1.55</text><text text-anchor="middle" transform="translate(514.2857142857143,20)" style="font-family: sans-serif; font-size: 16px; fill: #000; opacity: 1;">1.60</text><text text-anchor="middle" transform="translate(557.1428571428571,20)" style="font-family: sans-serif; font-size: 16px; fill: #000; opacity: 0;">1.65</text><text text-anchor="end" transform="translate(600,20)" style="font-family: sans-serif; font-size: 16px; fill: #000; opacity: 1;">1.70</text></g><g class="mark-rule role-axis-domain" style="pointer-events: none;"><line transform="translate(0,0)" x2="600" y2="0" style="fill: none; stroke: #888; stroke-width: 1; opacity: 1;"></line></g><g class="mark-text role-axis-title" style="pointer-events: none;"><text text-anchor="middle" transform="translate(300,43)" style="font-family: sans-serif; font-size: 20px; font-weight: bold; fill: #000; opacity: 1;">T/Tₘ</text></g></g></g></g><g class="mark-group role-axis"><g transform="translate(0.5,0.5)"><path class="background" d="M0,0h0v0h0Z" style="pointer-events: none; fill: none;"></path><g><g class="mark-rule role-axis-tick" style="pointer-events: none;"><line transform="translate(0,400)" x2="-5" y2="0" style="fill: none; stroke: #888; stroke-width: 1; opacity: 1;"></line><line transform="translate(0,350)" x2="-5" y2="0" style="fill: none; stroke: #888; stroke-width: 1; opacity: 1;"></line><line transform="translate(0,300)" x2="-5" y2="0" style="fill: none; stroke: #888; stroke-width: 1; opacity: 1;"></line><line transform="translate(0,250)" x2="-5" y2="0" style="fill: none; stroke: #888; stroke-width: 1; opacity: 1;"></line><line transform="translate(0,200)" x2="-5" y2="0" style="fill: none; stroke: #888; stroke-width: 1; opacity: 1;"></line><line transform="translate(0,150)" x2="-5" y2="0" style="fill: none; stroke: #888; stroke-width: 1; opacity: 1;"></line><line transform="translate(0,100)" x2="-5" y2="0" style="fill: none; stroke: #888; stroke-width: 1; opacity: 1;"></line><line transform="translate(0,50)" x2="-5" y2="0" style="fill: none; stroke: #888; stroke-width: 1; opacity: 1;"></line><line transform="translate(0,0)" x2="-5" y2="0" style="fill: none; stroke: #888; stroke-width: 1; opacity: 1;"></line></g><g class="mark-text role-axis-label" style="pointer-events: none;"><text text-anchor="end" transform="translate(-7,405)" style="font-family: sans-serif; font-size: 16px; fill: #000; opacity: 1;">-8.0e-5</text><text text-anchor="end" transform="translate(-7,354.99999999999994)" style="font-family: sans-serif; font-size: 16px; fill: #000; opacity: 1;">-7.0e-5</text><text text-anchor="end" transform="translate(-7,305)" style="font-family: sans-serif; font-size: 16px; fill: #000; opacity: 1;">-6.0e-5</text><text text-anchor="end" transform="translate(-7,255)" style="font-family: sans-serif; font-size: 16px; fill: #000; opacity: 1;">-5.0e-5</text><text text-anchor="end" transform="translate(-7,205)" style="font-family: sans-serif; font-size: 16px; fill: #000; opacity: 1;">-4.0e-5</text><text text-anchor="end" transform="translate(-7,154.99999999999994)" style="font-family: sans-serif; font-size: 16px; fill: #000; opacity: 1;">-3.0e-5</text><text text-anchor="end" transform="translate(-7,105)" style="font-family: sans-serif; font-size: 16px; fill: #000; opacity: 1;">-2.0e-5</text><text text-anchor="end" transform="translate(-7,55)" style="font-family: sans-serif; font-size: 16px; fill: #000; opacity: 1;">-1.0e-5</text><text text-anchor="end" transform="translate(-7,5)" style="font-family: sans-serif; font-size: 16px; fill: #000; opacity: 1;">0.0e+0</text></g><g class="mark-rule role-axis-domain" style="pointer-events: none;"><line transform="translate(0,400)" x2="0" y2="-400" style="fill: none; stroke: #888; stroke-width: 1; opacity: 1;"></line></g><g class="mark-text role-axis-title" style="pointer-events: none;"><text text-anchor="middle" transform="translate(-69,200) rotate(-90) translate(0,-4)" style="font-family: sans-serif; font-size: 20px; font-weight: bold; fill: #000; opacity: 1;">Melting Rate</text></g></g></g></g></g></g></g></g></svg>