<svg class="marks" width="705" height="465" viewBox="0 0 705 465" version="1.1" xmlns="http://www.w3.org/2000/svg" xmlns:xlink="http://www.w3.org/1999/xlink"><rect width="705" height="465" style="fill: white;"></rect><g transform="translate(95,13)"><g class="mark-group role-frame root"><g transform="translate(0,0)"><path class="background" d="M0.5,0.5h600v400h-600Z" style="fill: none; stroke: #ddd;"></path><g><g class="mark-symbol role-mark layer_0_marks"><path transform="translate(0,30.769216964990107)" d="M2.7386127875258306,0A2.7386127875258306,2.7386127875258306,0,1,1,-2.7386127875258306,0A2.7386127875258306,2.7386127875258306,0,1,1,2.7386127875258306,0" style="fill: none; stroke: #4c78a8; stroke-width: 2; opacity: 0.7;"></path><path transform="translate(15.000000000000014,30.769594092008255)" d="M2.7386127875258306,0A2.7386127875258306,2.7386127875258306,0,1,1,-2.7386127875258306,0A2.7386127875258306,2.7386127875258306,0,1,1,2.7386127875258306,0" style="fill: none; stroke: #4c78a8; stroke-width: 2; opacity: 0.7;"></path><path transform="translate(30.00000000000003,30.769575138610385)" d="M2.7386127875258306,0A2.7386127875258306,2.7386127875258306,0,1,1,-2.7386127875258306,0A2.7386127875258306,2.7386127875258306,0,1,1,2.7386127875258306,0" style="fill: none; stroke: #4c78a8; stroke-width: 2; opacity: 0.7;"></path><path transform="translate(45.00000000000004,30.771065222839677)" d="M2.7386127875258306,0A2.7386127875258306,2.7386127875258306,0,1,1,-2.7386127875258306,0A2.7386127875258306,2.7386127875258306,0,1,1,2.7386127875258306,0" style="fill: none; stroke: #4c78a8; stroke-width: 2; opacity: 0.7;"></path><path transform="translate(60.00000000000006,30.773237163418443)" d="M2.7386127875258306,0A2.7386127875258306,2.7386127875258306,0,1,1,-2.7386127875258306,0A2.7386127875258306,2.7386127875258306,0,1,1,2.7386127875258306,0" style="fill: none; stroke: #4c78a8; stroke-width: 2; opacity: 0.7;"></path><path transform="translate(75.00000000000007,30.77617990741612)" d="M2.7386127875258306,0A2.7386127875258306,2.7386127875258306,0,1,1,-2.7386127875258306,0A2.7386127875258306,2.7386127875258306,0,1,1,2.7386127875258306,0" style="fill: none; stroke: #4c78a8; stroke-width: 2; opacity: 0.7;"></path><path transform="translate(105.00000000000001,30.797830686307304)" d="M2.7386127875258306,0A2.7386127875258306,2.7386127875258306,0,1,1,-2.7386127875258306,0A2.7386127875258306,2.7386127875258306,0,1,1,2.7386127875258306,0" style="fill: none; stroke: #4c78a8; stroke-width: 2; opacity: 0.7;"></path><path transform="translate(150.00000000000003,30.963716325377042)" d="M2.7386127875258306,0A2.7386127875258306,2.7386127875258306,0,1,1,-2.7386127875258306,0A2.7386127875258306,2.7386127875258306,0,1,1,2.7386127875258306,0" style="fill: none; stroke: #4c78a8; stroke-width: 2; opacity: 0.7;"></path><path transform="translate(225.00000000000003,32.13758024999889)" d="M2.7386127875258306,0A2.7386127875258306,2.7386127875258306,0,1,1,-2.7386127875258306,0A2.7386127875258306,2.7386127875258306,0,1,1,2.7386127875258306,0" style="fill: none; stroke: #4c78a8; stroke-width: 2; opacity: 0.7;"></path><path transform="translate(300.00000000000006,36.55756181342387)" d="M2.7386127875258306,0A2.7386127875258306,2.7386127875258306,0,1,1,-2.7386127875258306,0A2.7386127875258306,2.7386127875258306,0,1,1,2.7386127875258306,0" style="fill: none; stroke: #4c78a8; stroke-width: 2; opacity: 0.7;"></path><path transform="translate(375,51.26783343433266)" d="M2.7386127875258306,0A2.7386127875258306,2.7386127875258306,0,1,1,-2.7386127875258306,0A2.7386127875258306,2.7386127875258306,0,1,1,2.7386127875258306,0" style="fill: none; stroke: #4c78a8; stroke-width: 2; opacity: 0.7;"></path><path transform="translate(524.9999999999999,131.60478779562362)" d="M2.7386127875258306,0A2.7386127875258306,2.7386127875258306,0,1,1,-2.7386127875258306,0A2.7386127875258306,2.7386127875258306,0,1,1,2.7386127875258306,0" style="fill: none; stroke: #4c78a8; stroke-width: 2; opacity: 0.7;"></path><path transform="translate(600,194.75191806279008)" d="M2.7386127875258306,0A2.7386127875258306,2.7386127875258306,0,1,1,-2.7386127875258306,0A2.7386127875258306,2.7386127875258306,0,1,1,2.7386127875258306,0" style="fill: none; stroke: #4c78a8; stroke-width: 2; opacity: 0.7;"></path></g><g class="mark-rule role-mark layer_1_layer_0_marks"><line transform="translate(0,30.770927715846774)" x2="0" y2="-0.0034215017132837033" style="fill: none; stroke: black;"></line><line transform="translate(15.000000000000014,30.773253544817834)" x2="0" y2="-0.0073189056191118596" style="fill: none; stroke: black;"></line><line transform="translate(30.00000000000003,30.773650853500012)" x2="0" y2="-0.008151429779168495" style="fill: none; stroke: black;"></line><line transform="translate(45.00000000000004,30.775888186809432)" x2="0" y2="-0.00964592793946295" style="fill: none; stroke: black;"></line><line transform="translate(60.00000000000006,30.77877328590377)" x2="0" y2="-0.011072244970655731" style="fill: none; stroke: black;"></line><line transform="translate(75.00000000000007,30.798459359940324)" x2="0" y2="-0.044558905048397435" style="fill: none; stroke: black;"></line><line transform="translate(105.00000000000001,30.85254371789361)" x2="0" y2="-0.10942606317261294" style="fill: none; stroke: black;"></line><line transform="translate(150.00000000000003,31.069269346810422)" x2="0" y2="-0.21110604286675994" style="fill: none; stroke: black;"></line><line transform="translate(225.00000000000003,32.86055383570798)" x2="0" y2="-1.4459471714181475" style="fill: none; stroke: black;"></line><line transform="translate(300.00000000000006,38.247099235717826)" x2="0" y2="-3.379074844587876" style="fill: none; stroke: black;"></line><line transform="translate(375,67.03958100991483)" x2="0" y2="-31.5434951511643" style="fill: none; stroke: black;"></line><line transform="translate(524.9999999999999,219.55019447849847)" x2="0" y2="-175.89081336574966" style="fill: none; stroke: black;"></line><line transform="translate(600,374.0848252517141)" x2="0" y2="-358.6658143778481" style="fill: none; stroke: black;"></line></g><g class="mark-group role-axis"><g transform="translate(0.5,400.5)"><path class="background" d="M0,0h0v0h0Z" style="pointer-events: none; fill: none;"></path><g><g class="mark-rule role-axis-tick" style="pointer-events: none;"><line transform="translate(15,0)" x2="0" y2="5" style="fill: none; stroke: #888; stroke-width: 1; opacity: 1;"></line><line transform="translate(45,0)" x2="0" y2="5" style="fill: none; stroke: #888; stroke-width: 1; opacity: 1;"></line><line transform="translate(75,0)" x2="0" y2="5" style="fill: none; stroke: #888; stroke-width: 1; opacity: 1;"></line><line transform="translate(105,0)" x2="0" y2="5" style="fill: none; stroke: #888; stroke-width: 1; opacity: 1;"></line><line transform="translate(135,0)" x2="0" y2="5" style="fill: none; stroke: #888; stroke-width: 1; opacity: 1;"></line><line transform="translate(165,0)" x2="0" y2="5" style="fill: none; stroke: #888; stroke-width: 1; opacity: 1;"></line><line transform="translate(195,0)" x2="0" y2="5" style="fill: none; stroke: #888; stroke-width: 1; opacity: 1;"></line><line transform="translate(225,0)" x2="0" y2="5" style="fill: none; stroke: #888; stroke-width: 1; opacity: 1;"></line><line transform="translate(255,0)" x2="0" y2="5" style="fill: none; stroke: #888; stroke-width: 1; opacity: 1;"></line><line transform="translate(285,0)" x2="0" y2="5" style="fill: none; stroke: #888; stroke-width: 1; opacity: 1;"></line><line transform="translate(315,0)" x2="0" y2="5" style="fill: none; stroke: #888; stroke-width: 1; opacity: 1;"></line><line transform="translate(345,0)" x2="0" y2="5" style="fill: none; stroke: #888; stroke-width: 1; opacity: 1;"></line><line transform="translate(375,0)" x2="0" y2="5" style="fill: none; stroke: #888; stroke-width: 1; opacity: 1;"></line><line transform="translate(405,0)" x2="0" y2="5" style="fill: none; stroke: #888; stroke-width: 1; opacity: 1;"></line><line transform="translate(435,0)" x2="0" y2="5" style="fill: none; stroke: #888; stroke-width: 1; opacity: 1;"></line><line transform="translate(465,0)" x2="0" y2="5" style="fill: none; stroke: #888; stroke-width: 1; opacity: 1;"></line><line transform="translate(495,0)" x2="0" y2="5" style="fill: none; stroke: #888; stroke-width: 1; opacity: 1;"></line><line transform="translate(525,0)" x2="0" y2="5" style="fill: none; stroke: #888; stroke-width: 1; opacity: 1;"></line><line transform="translate(555,0)" x2="0" y2="5" style="fill: none; stroke: #888; stroke-width: 1; opacity: 1;"></line><line transform="translate(585,0)" x2="0" y2="5" style="fill: none; stroke: #888; stroke-width: 1; opacity: 1;"></line></g><g class="mark-text role-axis-label" style="pointer-events: none;"><text text-anchor="middle" transform="translate(15.000000000000014,20)" style="font-family: sans-serif; font-size: 16px; fill: #000; opacity: 1;">0.36</text><text text-anchor="middle" transform="translate(45.00000000000004,20)" style="font-family: sans-serif; font-size: 16px; fill: #000; opacity: 0;">0.38</text><text text-anchor="middle" transform="translate(75.00000000000007,20)" style="font-family: sans-serif; font-size: 16px; fill: #000; opacity: 1;">0.40</text><text text-anchor="middle" transform="translate(105.00000000000001,20)" style="font-family: sans-serif; font-size: 16px; fill: #000; opacity: 0;">0.42</text><text text-anchor="middle" transform="translate(135.00000000000003,20)" style="font-family: sans-serif; font-size: 16px; fill: #000; opacity: 1;">0.44</text><text text-anchor="middle" transform="translate(165.00000000000006,20)" style="font-family: sans-serif; font-size: 16px; fill: #000; opacity: 0;">0.46</text><text text-anchor="middle" transform="translate(195,20)" style="font-family: sans-serif; font-size: 16px; fill: #000; opacity: 1;">0.48</text><text text-anchor="middle" transform="translate(225.00000000000003,20)" style="font-family: sans-serif; font-size: 16px; fill: #000; opacity: 0;">0.50</text><text text-anchor="middle" transform="translate(255.00000000000006,20)" style="font-family: sans-serif; font-size: 16px; fill: #000; opacity: 1;">0.52</text><text text-anchor="middle" transform="translate(285.0000000000001,20)" style="font-family: sans-serif; font-size: 16px; fill: #000; opacity: 0;">0.54</text><text text-anchor="middle" transform="translate(315.00000000000006,20)" style="font-family: sans-serif; font-size: 16px; fill: #000; opacity: 1;">0.56</text><text text-anchor="middle" transform="translate(345,20)" style="font-family: sans-serif; font-size: 16px; fill: #000; opacity: 0;">0.58</text><text text-anchor="middle" transform="translate(375,20)" style="font-family: sans-serif; font-size: 16px; fill: #000; opacity: 1;">0.60</text><text text-anchor="middle" transform="translate(405,20)" style="font-family: sans-serif; font-size: 16px; fill: #000; opacity: 0;">0.62</text><text text-anchor="middle" transform="translate(435.00000000000006,20)" style="font-family: sans-serif; font-size: 16px; fill: #000; opacity: 1;">0.64</text><text text-anchor="middle" transform="translate(465.00000000000006,20)" style="font-family: sans-serif; font-size: 16px; fill: #000; opacity: 0;">0.66</text><text text-anchor="middle" transform="translate(495.0000000000001,20)" style="font-family: sans-serif; font-size: 16px; fill: #000; opacity: 1;">0.68</text><text text-anchor="middle" transform="translate(524.9999999999999,20)" style="font-family: sans-serif; font-size: 16px; fill: #000; opacity: 0;">0.70</text><text text-anchor="middle" transform="translate(555,20)" style="font-family: sans-serif; font-size: 16px; fill: #000; opacity: 1;">0.72</text><text text-anchor="middle" transform="translate(585,20)" style="font-family: sans-serif; font-size: 16px; fill: #000; opacity: 0;">0.74</text></g><g class="mark-rule role-axis-domain" style="pointer-events: none;"><line transform="translate(0,0)" x2="600" y2="0" style="fill: none; stroke: #888; stroke-width: 1; opacity: 1;"></line></g><g class="mark-text role-axis-title" style="pointer-events: none;"><text text-anchor="middle" transform="translate(300,43)" style="font-family: sans-serif; font-size: 20px; font-weight: bold; fill: #000; opacity: 1;">temperature</text></g></g><path class="foreground" d="" style="pointer-events: none; display: none; fill: none;"></path></g></g><g class="mark-group role-axis"><g transform="translate(0.5,0.5)"><path class="background" d="M0,0h0v0h0Z" style="pointer-events: none; fill: none;"></path><g><g class="mark-rule role-axis-tick" style="pointer-events: none;"><line transform="translate(0,400)" x2="-5" y2="0" style="fill: none; stroke: #888; stroke-width: 1; opacity: 1;"></line><line transform="translate(0,369)" x2="-5" y2="0" style="fill: none; stroke: #888; stroke-width: 1; opacity: 1;"></line><line transform="translate(0,338)" x2="-5" y2="0" style="fill: none; stroke: #888; stroke-width: 1; opacity: 1;"></line><line transform="translate(0,308)" x2="-5" y2="0" style="fill: none; stroke: #888; stroke-width: 1; opacity: 1;"></line><line transform="translate(0,277)" x2="-5" y2="0" style="fill: none; stroke: #888; stroke-width: 1; opacity: 1;"></line><line transform="translate(0,246)" x2="-5" y2="0" style="fill: none; stroke: #888; stroke-width: 1; opacity: 1;"></line><line transform="translate(0,215)" x2="-5" y2="0" style="fill: none; stroke: #888; stroke-width: 1; opacity: 1;"></line><line transform="translate(0,185)" x2="-5" y2="0" style="fill: none; stroke: #888; stroke-width: 1; opacity: 1;"></line><line transform="translate(0,154)" x2="-5" y2="0" style="fill: none; stroke: #888; stroke-width: 1; opacity: 1;"></line><line transform="translate(0,123)" x2="-5" y2="0" style="fill: none; stroke: #888; stroke-width: 1; opacity: 1;"></line><line transform="translate(0,92)" x2="-5" y2="0" style="fill: none; stroke: #888; stroke-width: 1; opacity: 1;"></line><line transform="translate(0,62)" x2="-5" y2="0" style="fill: none; stroke: #888; stroke-width: 1; opacity: 1;"></line><line transform="translate(0,31)" x2="-5" y2="0" style="fill: none; stroke: #888; stroke-width: 1; opacity: 1;"></line><line transform="translate(0,0)" x2="-5" y2="0" style="fill: none; stroke: #888; stroke-width: 1; opacity: 1;"></line></g><g class="mark-text role-axis-label" style="pointer-events: none;"><text text-anchor="end" transform="translate(-7,405)" style="font-family: sans-serif; font-size: 16px; fill: #000; opacity: 1;">-2.4e-1</text><text text-anchor="end" transform="translate(-7,374.2307692307692)" style="font-family: sans-serif; font-size: 16px; fill: #000; opacity: 1;">-2.2e-1</text><text text-anchor="end" transform="translate(-7,343.4615384615385)" style="font-family: sans-serif; font-size: 16px; fill: #000; opacity: 1;">-2.0e-1</text><text text-anchor="end" transform="translate(-7,312.69230769230774)" style="font-family: sans-serif; font-size: 16px; fill: #000; opacity: 1;">-1.8e-1</text><text text-anchor="end" transform="translate(-7,281.9230769230769)" style="font-family: sans-serif; font-size: 16px; fill: #000; opacity: 1;">-1.6e-1</text><text text-anchor="end" transform="translate(-7,251.15384615384616)" style="font-family: sans-serif; font-size: 16px; fill: #000; opacity: 1;">-1.4e-1</text><text text-anchor="end" transform="translate(-7,220.38461538461542)" style="font-family: sans-serif; font-size: 16px; fill: #000; opacity: 1;">-1.2e-1</text><text text-anchor="end" transform="translate(-7,189.6153846153846)" style="font-family: sans-serif; font-size: 16px; fill: #000; opacity: 1;">-1.0e-1</text><text text-anchor="end" transform="translate(-7,158.84615384615387)" style="font-family: sans-serif; font-size: 16px; fill: #000; opacity: 1;">-8.0e-2</text><text text-anchor="end" transform="translate(-7,128.0769230769231)" style="font-family: sans-serif; font-size: 16px; fill: #000; opacity: 1;">-6.0e-2</text><text text-anchor="end" transform="translate(-7,97.30769230769234)" style="font-family: sans-serif; font-size: 16px; fill: #000; opacity: 1;">-4.0e-2</text><text text-anchor="end" transform="translate(-7,66.53846153846155)" style="font-family: sans-serif; font-size: 16px; fill: #000; opacity: 1;">-2.0e-2</text><text text-anchor="end" transform="translate(-7,35.769230769230795)" style="font-family: sans-serif; font-size: 16px; fill: #000; opacity: 1;">0.0e+0</text><text text-anchor="end" transform="translate(-7,5)" style="font-family: sans-serif; font-size: 16px; fill: #000; opacity: 1;">2.0e-2</text></g><g class="mark-rule role-axis-domain" style="pointer-events: none;"><line transform="translate(0,400)" x2="0" y2="-400" style="fill: none; stroke: #888; stroke-width: 1; opacity: 1;"></line></g><g class="mark-text role-axis-title" style="pointer-events: none;"><text text-anchor="middle" transform="translate(-69.88333511352539,200) rotate(-90) translate(0,-4)" style="font-family: sans-serif; font-size: 20px; font-weight: bold; fill: #000; opacity: 1;">mean</text></g></g><path class="foreground" d="" style="pointer-events: none; display: none; fill: none;"></path></g></g></g><path class="foreground" d="" style="display: none; fill: none;"></path></g></g></g></svg>