<svg class="marks" width="825" height="944" viewBox="0 0 825 944" version="1.1" xmlns="http://www.w3.org/2000/svg" xmlns:xlink="http://www.w3.org/1999/xlink"><rect width="825" height="944" style="fill: white;"></rect><g transform="translate(95,14)"><g class="mark-group role-frame root"><g transform="translate(0,0)"><path class="background" d="M0,0h600v0h-600Z" style="fill: none;"></path><g><g class="mark-group role-scope concat_0_group"><g transform="translate(0,0)"><path class="background" d="M0.5,0.5h600v400h-600Z" style="fill: none; stroke: #ddd;"></path><g><g class="mark-symbol role-mark concat_0_layer_0_layer_0_marks"><path transform="translate(0,28.759875489037938)" d="M2.7386127875258306,0A2.7386127875258306,2.7386127875258306,0,1,1,-2.7386127875258306,0A2.7386127875258306,2.7386127875258306,0,1,1,2.7386127875258306,0" style="fill: none; stroke: #4c78a8; stroke-width: 2; opacity: 0.7;"></path><path transform="translate(150,53.55964015467083)" d="M2.7386127875258306,0A2.7386127875258306,2.7386127875258306,0,1,1,-2.7386127875258306,0A2.7386127875258306,2.7386127875258306,0,1,1,2.7386127875258306,0" style="fill: none; stroke: #4c78a8; stroke-width: 2; opacity: 0.7;"></path><path transform="translate(300,54.31609788639065)" d="M2.7386127875258306,0A2.7386127875258306,2.7386127875258306,0,1,1,-2.7386127875258306,0A2.7386127875258306,2.7386127875258306,0,1,1,2.7386127875258306,0" style="fill: none; stroke: #4c78a8; stroke-width: 2; opacity: 0.7;"></path><path transform="translate(450,187.53894284164997)" d="M2.7386127875258306,0A2.7386127875258306,2.7386127875258306,0,1,1,-2.7386127875258306,0A2.7386127875258306,2.7386127875258306,0,1,1,2.7386127875258306,0" style="fill: none; stroke: #4c78a8; stroke-width: 2; opacity: 0.7;"></path><path transform="translate(600,366.3985917381382)" d="M2.7386127875258306,0A2.7386127875258306,2.7386127875258306,0,1,1,-2.7386127875258306,0A2.7386127875258306,2.7386127875258306,0,1,1,2.7386127875258306,0" style="fill: none; stroke: #4c78a8; stroke-width: 2; opacity: 0.7;"></path></g><g class="mark-rule role-mark concat_0_layer_0_layer_1_marks"><line transform="translate(0,34.66648320572199)" x2="0" y2="-11.813215433368214" style="fill: none; stroke: #4c78a8;"></line><line transform="translate(150,59.776341654740975)" x2="0" y2="-12.433403000140288" style="fill: none; stroke: #4c78a8;"></line><line transform="translate(300,70.3381006271394)" x2="0" y2="-32.04400548149749" style="fill: none; stroke: #4c78a8;"></line><line transform="translate(450,225.13387173569933)" x2="0" y2="-75.18985778809872" style="fill: none; stroke: #4c78a8;"></line><line transform="translate(600,385.1282887514151)" x2="0" y2="-37.45939402655392" style="fill: none; stroke: #4c78a8;"></line></g><g class="mark-rule role-mark concat_0_layer_1_marks"><line transform="translate(0,26.666666666666686)" x2="600" y2="0" style="fill: none; stroke: grey;"></line><line transform="translate(0,26.666666666666686)" x2="600" y2="0" style="fill: none; stroke: grey;"></line><line transform="translate(0,26.666666666666686)" x2="600" y2="0" style="fill: none; stroke: grey;"></line><line transform="translate(0,26.666666666666686)" x2="600" y2="0" style="fill: none; stroke: grey;"></line><line transform="translate(0,26.666666666666686)" x2="600" y2="0" style="fill: none; stroke: grey;"></line></g><g class="mark-group role-axis"><g transform="translate(0.5,400.5)"><path class="background" d="M0,0h0v0h0Z" style="pointer-events: none; fill: none;"></path><g><g class="mark-rule role-axis-tick" style="pointer-events: none;"><line transform="translate(0,0)" x2="0" y2="5" style="fill: none; stroke: #888; stroke-width: 1; opacity: 1;"></line><line transform="translate(30,0)" x2="0" y2="5" style="fill: none; stroke: #888; stroke-width: 1; opacity: 1;"></line><line transform="translate(60,0)" x2="0" y2="5" style="fill: none; stroke: #888; stroke-width: 1; opacity: 1;"></line><line transform="translate(90,0)" x2="0" y2="5" style="fill: none; stroke: #888; stroke-width: 1; opacity: 1;"></line><line transform="translate(120,0)" x2="0" y2="5" style="fill: none; stroke: #888; stroke-width: 1; opacity: 1;"></line><line transform="translate(150,0)" x2="0" y2="5" style="fill: none; stroke: #888; stroke-width: 1; opacity: 1;"></line><line transform="translate(180,0)" x2="0" y2="5" style="fill: none; stroke: #888; stroke-width: 1; opacity: 1;"></line><line transform="translate(210,0)" x2="0" y2="5" style="fill: none; stroke: #888; stroke-width: 1; opacity: 1;"></line><line transform="translate(240,0)" x2="0" y2="5" style="fill: none; stroke: #888; stroke-width: 1; opacity: 1;"></line><line transform="translate(270,0)" x2="0" y2="5" style="fill: none; stroke: #888; stroke-width: 1; opacity: 1;"></line><line transform="translate(300,0)" x2="0" y2="5" style="fill: none; stroke: #888; stroke-width: 1; opacity: 1;"></line><line transform="translate(330,0)" x2="0" y2="5" style="fill: none; stroke: #888; stroke-width: 1; opacity: 1;"></line><line transform="translate(360,0)" x2="0" y2="5" style="fill: none; stroke: #888; stroke-width: 1; opacity: 1;"></line><line transform="translate(390,0)" x2="0" y2="5" style="fill: none; stroke: #888; stroke-width: 1; opacity: 1;"></line><line transform="translate(420,0)" x2="0" y2="5" style="fill: none; stroke: #888; stroke-width: 1; opacity: 1;"></line><line transform="translate(450,0)" x2="0" y2="5" style="fill: none; stroke: #888; stroke-width: 1; opacity: 1;"></line><line transform="translate(480,0)" x2="0" y2="5" style="fill: none; stroke: #888; stroke-width: 1; opacity: 1;"></line><line transform="translate(510,0)" x2="0" y2="5" style="fill: none; stroke: #888; stroke-width: 1; opacity: 1;"></line><line transform="translate(540,0)" x2="0" y2="5" style="fill: none; stroke: #888; stroke-width: 1; opacity: 1;"></line><line transform="translate(570,0)" x2="0" y2="5" style="fill: none; stroke: #888; stroke-width: 1; opacity: 1;"></line><line transform="translate(600,0)" x2="0" y2="5" style="fill: none; stroke: #888; stroke-width: 1; opacity: 1;"></line></g><g class="mark-text role-axis-label" style="pointer-events: none;"><text text-anchor="start" transform="translate(0,20)" style="font-family: sans-serif; font-size: 16px; fill: #000; opacity: 1;">0.350</text><text text-anchor="middle" transform="translate(30,20)" style="font-family: sans-serif; font-size: 16px; fill: #000; opacity: 0;">0.352</text><text text-anchor="middle" transform="translate(60,20)" style="font-family: sans-serif; font-size: 16px; fill: #000; opacity: 0;">0.354</text><text text-anchor="middle" transform="translate(90,20)" style="font-family: sans-serif; font-size: 16px; fill: #000; opacity: 0;">0.356</text><text text-anchor="middle" transform="translate(120,20)" style="font-family: sans-serif; font-size: 16px; fill: #000; opacity: 1;">0.358</text><text text-anchor="middle" transform="translate(150,20)" style="font-family: sans-serif; font-size: 16px; fill: #000; opacity: 0;">0.360</text><text text-anchor="middle" transform="translate(180,20)" style="font-family: sans-serif; font-size: 16px; fill: #000; opacity: 0;">0.362</text><text text-anchor="middle" transform="translate(210,20)" style="font-family: sans-serif; font-size: 16px; fill: #000; opacity: 0;">0.364</text><text text-anchor="middle" transform="translate(240,20)" style="font-family: sans-serif; font-size: 16px; fill: #000; opacity: 1;">0.366</text><text text-anchor="middle" transform="translate(270,20)" style="font-family: sans-serif; font-size: 16px; fill: #000; opacity: 0;">0.368</text><text text-anchor="middle" transform="translate(300,20)" style="font-family: sans-serif; font-size: 16px; fill: #000; opacity: 0;">0.370</text><text text-anchor="middle" transform="translate(330,20)" style="font-family: sans-serif; font-size: 16px; fill: #000; opacity: 0;">0.372</text><text text-anchor="middle" transform="translate(360,20)" style="font-family: sans-serif; font-size: 16px; fill: #000; opacity: 1;">0.374</text><text text-anchor="middle" transform="translate(390,20)" style="font-family: sans-serif; font-size: 16px; fill: #000; opacity: 0;">0.376</text><text text-anchor="middle" transform="translate(420,20)" style="font-family: sans-serif; font-size: 16px; fill: #000; opacity: 0;">0.378</text><text text-anchor="middle" transform="translate(450,20)" style="font-family: sans-serif; font-size: 16px; fill: #000; opacity: 0;">0.380</text><text text-anchor="middle" transform="translate(480,20)" style="font-family: sans-serif; font-size: 16px; fill: #000; opacity: 1;">0.382</text><text text-anchor="middle" transform="translate(510,20)" style="font-family: sans-serif; font-size: 16px; fill: #000; opacity: 0;">0.384</text><text text-anchor="middle" transform="translate(540,20)" style="font-family: sans-serif; font-size: 16px; fill: #000; opacity: 0;">0.386</text><text text-anchor="middle" transform="translate(570,20)" style="font-family: sans-serif; font-size: 16px; fill: #000; opacity: 0;">0.388</text><text text-anchor="end" transform="translate(600,20)" style="font-family: sans-serif; font-size: 16px; fill: #000; opacity: 1;">0.390</text></g><g class="mark-rule role-axis-domain" style="pointer-events: none;"><line transform="translate(0,0)" x2="600" y2="0" style="fill: none; stroke: #888; stroke-width: 1; opacity: 1;"></line></g><g class="mark-text role-axis-title" style="pointer-events: none;"><text text-anchor="middle" transform="translate(300,43)" style="font-family: sans-serif; font-size: 20px; font-weight: bold; fill: #000; opacity: 1;">Temperature</text></g></g></g></g><g class="mark-group role-axis"><g transform="translate(0.5,0.5)"><path class="background" d="M0,0h0v0h0Z" style="pointer-events: none; fill: none;"></path><g><g class="mark-rule role-axis-tick" style="pointer-events: none;"><line transform="translate(0,400)" x2="-5" y2="0" style="fill: none; stroke: #888; stroke-width: 1; opacity: 1;"></line><line transform="translate(0,373)" x2="-5" y2="0" style="fill: none; stroke: #888; stroke-width: 1; opacity: 1;"></line><line transform="translate(0,347)" x2="-5" y2="0" style="fill: none; stroke: #888; stroke-width: 1; opacity: 1;"></line><line transform="translate(0,320)" x2="-5" y2="0" style="fill: none; stroke: #888; stroke-width: 1; opacity: 1;"></line><line transform="translate(0,293)" x2="-5" y2="0" style="fill: none; stroke: #888; stroke-width: 1; opacity: 1;"></line><line transform="translate(0,267)" x2="-5" y2="0" style="fill: none; stroke: #888; stroke-width: 1; opacity: 1;"></line><line transform="translate(0,240)" x2="-5" y2="0" style="fill: none; stroke: #888; stroke-width: 1; opacity: 1;"></line><line transform="translate(0,213)" x2="-5" y2="0" style="fill: none; stroke: #888; stroke-width: 1; opacity: 1;"></line><line transform="translate(0,187)" x2="-5" y2="0" style="fill: none; stroke: #888; stroke-width: 1; opacity: 1;"></line><line transform="translate(0,160)" x2="-5" y2="0" style="fill: none; stroke: #888; stroke-width: 1; opacity: 1;"></line><line transform="translate(0,133)" x2="-5" y2="0" style="fill: none; stroke: #888; stroke-width: 1; opacity: 1;"></line><line transform="translate(0,107)" x2="-5" y2="0" style="fill: none; stroke: #888; stroke-width: 1; opacity: 1;"></line><line transform="translate(0,80)" x2="-5" y2="0" style="fill: none; stroke: #888; stroke-width: 1; opacity: 1;"></line><line transform="translate(0,53)" x2="-5" y2="0" style="fill: none; stroke: #888; stroke-width: 1; opacity: 1;"></line><line transform="translate(0,27)" x2="-5" y2="0" style="fill: none; stroke: #888; stroke-width: 1; opacity: 1;"></line><line transform="translate(0,0)" x2="-5" y2="0" style="fill: none; stroke: #888; stroke-width: 1; opacity: 1;"></line></g><g class="mark-text role-axis-label" style="pointer-events: none;"><text text-anchor="end" transform="translate(-7,405)" style="font-family: sans-serif; font-size: 16px; fill: #000; opacity: 1;">-2.8e-6</text><text text-anchor="end" transform="translate(-7,378.33333333333337)" style="font-family: sans-serif; font-size: 16px; fill: #000; opacity: 1;">-2.6e-6</text><text text-anchor="end" transform="translate(-7,351.6666666666667)" style="font-family: sans-serif; font-size: 16px; fill: #000; opacity: 1;">-2.4e-6</text><text text-anchor="end" transform="translate(-7,325)" style="font-family: sans-serif; font-size: 16px; fill: #000; opacity: 1;">-2.2e-6</text><text text-anchor="end" transform="translate(-7,298.3333333333333)" style="font-family: sans-serif; font-size: 16px; fill: #000; opacity: 1;">-2.0e-6</text><text text-anchor="end" transform="translate(-7,271.6666666666667)" style="font-family: sans-serif; font-size: 16px; fill: #000; opacity: 1;">-1.8e-6</text><text text-anchor="end" transform="translate(-7,245)" style="font-family: sans-serif; font-size: 16px; fill: #000; opacity: 1;">-1.6e-6</text><text text-anchor="end" transform="translate(-7,218.33333333333334)" style="font-family: sans-serif; font-size: 16px; fill: #000; opacity: 1;">-1.4e-6</text><text text-anchor="end" transform="translate(-7,191.66666666666666)" style="font-family: sans-serif; font-size: 16px; fill: #000; opacity: 1;">-1.2e-6</text><text text-anchor="end" transform="translate(-7,165)" style="font-family: sans-serif; font-size: 16px; fill: #000; opacity: 1;">-1.0e-6</text><text text-anchor="end" transform="translate(-7,138.33333333333337)" style="font-family: sans-serif; font-size: 16px; fill: #000; opacity: 1;">-8.0e-7</text><text text-anchor="end" transform="translate(-7,111.66666666666663)" style="font-family: sans-serif; font-size: 16px; fill: #000; opacity: 1;">-6.0e-7</text><text text-anchor="end" transform="translate(-7,85)" style="font-family: sans-serif; font-size: 16px; fill: #000; opacity: 1;">-4.0e-7</text><text text-anchor="end" transform="translate(-7,58.33333333333337)" style="font-family: sans-serif; font-size: 16px; fill: #000; opacity: 1;">-2.0e-7</text><text text-anchor="end" transform="translate(-7,31.666666666666686)" style="font-family: sans-serif; font-size: 16px; fill: #000; opacity: 1;">0.0e+0</text><text text-anchor="end" transform="translate(-7,5)" style="font-family: sans-serif; font-size: 16px; fill: #000; opacity: 1;">2.0e-7</text></g><g class="mark-rule role-axis-domain" style="pointer-events: none;"><line transform="translate(0,400)" x2="0" y2="-400" style="fill: none; stroke: #888; stroke-width: 1; opacity: 1;"></line></g><g class="mark-text role-axis-title" style="pointer-events: none;"><text text-anchor="middle" transform="translate(-69,200) rotate(-90) translate(0,-4)" style="font-family: sans-serif; font-size: 20px; font-weight: bold; fill: #000; opacity: 1;">Melting Rate</text></g></g></g></g></g></g></g><g class="mark-group role-scope concat_1_group"><g transform="translate(0,477)"><path class="background" d="M0.5,0.5h600v400h-600Z" style="fill: none; stroke: #ddd;"></path><g><g class="mark-symbol role-mark concat_1_layer_0_layer_0_marks"><path transform="translate(0,15.005717475379186)" d="M2.7386127875258306,0A2.7386127875258306,2.7386127875258306,0,1,1,-2.7386127875258306,0A2.7386127875258306,2.7386127875258306,0,1,1,2.7386127875258306,0" style="fill: none; stroke: #f58518; stroke-width: 2; opacity: 0.7;"></path><path transform="translate(100.00000000000017,31.425188553852877)" d="M2.7386127875258306,0A2.7386127875258306,2.7386127875258306,0,1,1,-2.7386127875258306,0A2.7386127875258306,2.7386127875258306,0,1,1,2.7386127875258306,0" style="fill: none; stroke: #f58518; stroke-width: 2; opacity: 0.7;"></path><path transform="translate(249.99999999999935,58.36119932753985)" d="M2.7386127875258306,0A2.7386127875258306,2.7386127875258306,0,1,1,-2.7386127875258306,0A2.7386127875258306,2.7386127875258306,0,1,1,2.7386127875258306,0" style="fill: none; stroke: #f58518; stroke-width: 2; opacity: 0.7;"></path><path transform="translate(349.99999999999955,124.91924067433564)" d="M2.7386127875258306,0A2.7386127875258306,2.7386127875258306,0,1,1,-2.7386127875258306,0A2.7386127875258306,2.7386127875258306,0,1,1,2.7386127875258306,0" style="fill: none; stroke: #f58518; stroke-width: 2; opacity: 0.7;"></path><path transform="translate(600,365.84492632663597)" d="M2.7386127875258306,0A2.7386127875258306,2.7386127875258306,0,1,1,-2.7386127875258306,0A2.7386127875258306,2.7386127875258306,0,1,1,2.7386127875258306,0" style="fill: none; stroke: #f58518; stroke-width: 2; opacity: 0.7;"></path></g><g class="mark-rule role-mark concat_1_layer_0_layer_1_marks"><line transform="translate(0,18.81596451737863)" x2="0" y2="-7.620494083998949" style="fill: none; stroke: #f58518;"></line><line transform="translate(100.00000000000017,42.67419745702608)" x2="0" y2="-22.498017806346468" style="fill: none; stroke: #f58518;"></line><line transform="translate(249.99999999999935,82.19290404683568)" x2="0" y2="-47.6634094385916" style="fill: none; stroke: #f58518;"></line><line transform="translate(349.99999999999955,163.1944596192791)" x2="0" y2="-76.5504378898869" style="fill: none; stroke: #f58518;"></line><line transform="translate(600,382.5092331193875)" x2="0" y2="-33.32861358550298" style="fill: none; stroke: #f58518;"></line></g><g class="mark-rule role-mark concat_1_layer_1_marks"><line transform="translate(0,0)" x2="600" y2="0" style="fill: none; stroke: grey;"></line><line transform="translate(0,0)" x2="600" y2="0" style="fill: none; stroke: grey;"></line><line transform="translate(0,0)" x2="600" y2="0" style="fill: none; stroke: grey;"></line><line transform="translate(0,0)" x2="600" y2="0" style="fill: none; stroke: grey;"></line><line transform="translate(0,0)" x2="600" y2="0" style="fill: none; stroke: grey;"></line></g><g class="mark-group role-axis"><g transform="translate(0.5,400.5)"><path class="background" d="M0,0h0v0h0Z" style="pointer-events: none; fill: none;"></path><g><g class="mark-rule role-axis-tick" style="pointer-events: none;"><line transform="translate(0,0)" x2="0" y2="5" style="fill: none; stroke: #888; stroke-width: 1; opacity: 1;"></line><line transform="translate(50,0)" x2="0" y2="5" style="fill: none; stroke: #888; stroke-width: 1; opacity: 1;"></line><line transform="translate(100,0)" x2="0" y2="5" style="fill: none; stroke: #888; stroke-width: 1; opacity: 1;"></line><line transform="translate(150,0)" x2="0" y2="5" style="fill: none; stroke: #888; stroke-width: 1; opacity: 1;"></line><line transform="translate(200,0)" x2="0" y2="5" style="fill: none; stroke: #888; stroke-width: 1; opacity: 1;"></line><line transform="translate(250,0)" x2="0" y2="5" style="fill: none; stroke: #888; stroke-width: 1; opacity: 1;"></line><line transform="translate(300,0)" x2="0" y2="5" style="fill: none; stroke: #888; stroke-width: 1; opacity: 1;"></line><line transform="translate(350,0)" x2="0" y2="5" style="fill: none; stroke: #888; stroke-width: 1; opacity: 1;"></line><line transform="translate(400,0)" x2="0" y2="5" style="fill: none; stroke: #888; stroke-width: 1; opacity: 1;"></line><line transform="translate(450,0)" x2="0" y2="5" style="fill: none; stroke: #888; stroke-width: 1; opacity: 1;"></line><line transform="translate(500,0)" x2="0" y2="5" style="fill: none; stroke: #888; stroke-width: 1; opacity: 1;"></line><line transform="translate(550,0)" x2="0" y2="5" style="fill: none; stroke: #888; stroke-width: 1; opacity: 1;"></line><line transform="translate(600,0)" x2="0" y2="5" style="fill: none; stroke: #888; stroke-width: 1; opacity: 1;"></line></g><g class="mark-text role-axis-label" style="pointer-events: none;"><text text-anchor="start" transform="translate(0,20)" style="font-family: sans-serif; font-size: 16px; fill: #000; opacity: 1;">1.33</text><text text-anchor="middle" transform="translate(50.000000000000085,20)" style="font-family: sans-serif; font-size: 16px; fill: #000; opacity: 0;">1.34</text><text text-anchor="middle" transform="translate(100.00000000000017,20)" style="font-family: sans-serif; font-size: 16px; fill: #000; opacity: 1;">1.35</text><text text-anchor="middle" transform="translate(150.00000000000026,20)" style="font-family: sans-serif; font-size: 16px; fill: #000; opacity: 0;">1.36</text><text text-anchor="middle" transform="translate(200.00000000000034,20)" style="font-family: sans-serif; font-size: 16px; fill: #000; opacity: 1;">1.37</text><text text-anchor="middle" transform="translate(249.99999999999935,20)" style="font-family: sans-serif; font-size: 16px; fill: #000; opacity: 0;">1.38</text><text text-anchor="middle" transform="translate(299.99999999999943,20)" style="font-family: sans-serif; font-size: 16px; fill: #000; opacity: 1;">1.39</text><text text-anchor="middle" transform="translate(349.99999999999955,20)" style="font-family: sans-serif; font-size: 16px; fill: #000; opacity: 0;">1.40</text><text text-anchor="middle" transform="translate(399.99999999999966,20)" style="font-family: sans-serif; font-size: 16px; fill: #000; opacity: 1;">1.41</text><text text-anchor="middle" transform="translate(449.9999999999997,20)" style="font-family: sans-serif; font-size: 16px; fill: #000; opacity: 0;">1.42</text><text text-anchor="middle" transform="translate(499.99999999999983,20)" style="font-family: sans-serif; font-size: 16px; fill: #000; opacity: 1;">1.43</text><text text-anchor="middle" transform="translate(549.9999999999999,20)" style="font-family: sans-serif; font-size: 16px; fill: #000; opacity: 0;">1.44</text><text text-anchor="end" transform="translate(600,20)" style="font-family: sans-serif; font-size: 16px; fill: #000; opacity: 1;">1.45</text></g><g class="mark-rule role-axis-domain" style="pointer-events: none;"><line transform="translate(0,0)" x2="600" y2="0" style="fill: none; stroke: #888; stroke-width: 1; opacity: 1;"></line></g><g class="mark-text role-axis-title" style="pointer-events: none;"><text text-anchor="middle" transform="translate(300,43)" style="font-family: sans-serif; font-size: 20px; font-weight: bold; fill: #000; opacity: 1;">Temperature</text></g></g></g></g><g class="mark-group role-axis"><g transform="translate(0.5,0.5)"><path class="background" d="M0,0h0v0h0Z" style="pointer-events: none; fill: none;"></path><g><g class="mark-rule role-axis-tick" style="pointer-events: none;"><line transform="translate(0,400)" x2="-5" y2="0" style="fill: none; stroke: #888; stroke-width: 1; opacity: 1;"></line><line transform="translate(0,373)" x2="-5" y2="0" style="fill: none; stroke: #888; stroke-width: 1; opacity: 1;"></line><line transform="translate(0,347)" x2="-5" y2="0" style="fill: none; stroke: #888; stroke-width: 1; opacity: 1;"></line><line transform="translate(0,320)" x2="-5" y2="0" style="fill: none; stroke: #888; stroke-width: 1; opacity: 1;"></line><line transform="translate(0,293)" x2="-5" y2="0" style="fill: none; stroke: #888; stroke-width: 1; opacity: 1;"></line><line transform="translate(0,267)" x2="-5" y2="0" style="fill: none; stroke: #888; stroke-width: 1; opacity: 1;"></line><line transform="translate(0,240)" x2="-5" y2="0" style="fill: none; stroke: #888; stroke-width: 1; opacity: 1;"></line><line transform="translate(0,213)" x2="-5" y2="0" style="fill: none; stroke: #888; stroke-width: 1; opacity: 1;"></line><line transform="translate(0,187)" x2="-5" y2="0" style="fill: none; stroke: #888; stroke-width: 1; opacity: 1;"></line><line transform="translate(0,160)" x2="-5" y2="0" style="fill: none; stroke: #888; stroke-width: 1; opacity: 1;"></line><line transform="translate(0,133)" x2="-5" y2="0" style="fill: none; stroke: #888; stroke-width: 1; opacity: 1;"></line><line transform="translate(0,107)" x2="-5" y2="0" style="fill: none; stroke: #888; stroke-width: 1; opacity: 1;"></line><line transform="translate(0,80)" x2="-5" y2="0" style="fill: none; stroke: #888; stroke-width: 1; opacity: 1;"></line><line transform="translate(0,53)" x2="-5" y2="0" style="fill: none; stroke: #888; stroke-width: 1; opacity: 1;"></line><line transform="translate(0,27)" x2="-5" y2="0" style="fill: none; stroke: #888; stroke-width: 1; opacity: 1;"></line><line transform="translate(0,0)" x2="-5" y2="0" style="fill: none; stroke: #888; stroke-width: 1; opacity: 1;"></line></g><g class="mark-text role-axis-label" style="pointer-events: none;"><text text-anchor="end" transform="translate(-7,405)" style="font-family: sans-serif; font-size: 16px; fill: #000; opacity: 1;">-3.0e-6</text><text text-anchor="end" transform="translate(-7,378.3333333333333)" style="font-family: sans-serif; font-size: 16px; fill: #000; opacity: 1;">-2.8e-6</text><text text-anchor="end" transform="translate(-7,351.6666666666667)" style="font-family: sans-serif; font-size: 16px; fill: #000; opacity: 1;">-2.6e-6</text><text text-anchor="end" transform="translate(-7,325)" style="font-family: sans-serif; font-size: 16px; fill: #000; opacity: 1;">-2.4e-6</text><text text-anchor="end" transform="translate(-7,298.3333333333333)" style="font-family: sans-serif; font-size: 16px; fill: #000; opacity: 1;">-2.2e-6</text><text text-anchor="end" transform="translate(-7,271.66666666666663)" style="font-family: sans-serif; font-size: 16px; fill: #000; opacity: 1;">-2.0e-6</text><text text-anchor="end" transform="translate(-7,245)" style="font-family: sans-serif; font-size: 16px; fill: #000; opacity: 1;">-1.8e-6</text><text text-anchor="end" transform="translate(-7,218.33333333333331)" style="font-family: sans-serif; font-size: 16px; fill: #000; opacity: 1;">-1.6e-6</text><text text-anchor="end" transform="translate(-7,191.66666666666666)" style="font-family: sans-serif; font-size: 16px; fill: #000; opacity: 1;">-1.4e-6</text><text text-anchor="end" transform="translate(-7,165)" style="font-family: sans-serif; font-size: 16px; fill: #000; opacity: 1;">-1.2e-6</text><text text-anchor="end" transform="translate(-7,138.33333333333331)" style="font-family: sans-serif; font-size: 16px; fill: #000; opacity: 1;">-1.0e-6</text><text text-anchor="end" transform="translate(-7,111.66666666666663)" style="font-family: sans-serif; font-size: 16px; fill: #000; opacity: 1;">-8.0e-7</text><text text-anchor="end" transform="translate(-7,85)" style="font-family: sans-serif; font-size: 16px; fill: #000; opacity: 1;">-6.0e-7</text><text text-anchor="end" transform="translate(-7,58.333333333333314)" style="font-family: sans-serif; font-size: 16px; fill: #000; opacity: 1;">-4.0e-7</text><text text-anchor="end" transform="translate(-7,31.66666666666663)" style="font-family: sans-serif; font-size: 16px; fill: #000; opacity: 1;">-2.0e-7</text><text text-anchor="end" transform="translate(-7,5)" style="font-family: sans-serif; font-size: 16px; fill: #000; opacity: 1;">0.0e+0</text></g><g class="mark-rule role-axis-domain" style="pointer-events: none;"><line transform="translate(0,400)" x2="0" y2="-400" style="fill: none; stroke: #888; stroke-width: 1; opacity: 1;"></line></g><g class="mark-text role-axis-title" style="pointer-events: none;"><text text-anchor="middle" transform="translate(-69,200) rotate(-90) translate(0,-4)" style="font-family: sans-serif; font-size: 20px; font-weight: bold; fill: #000; opacity: 1;">Melting Rate</text></g></g></g></g></g></g></g><g class="mark-group role-legend"><g transform="translate(624,0)"><path class="background" d="M0,0h101v59h-101Z" style="pointer-events: none; fill: none;"></path><g><g class="mark-group role-legend-entry"><g transform="translate(0,25)"><path class="background" d="M0,0h0v0h0Z" style="pointer-events: none; fill: none;"></path><g><g class="mark-group role-scope"><g transform="translate(0,0)"><path class="background" d="M0,0h55v16h-55Z" style="pointer-events: none; fill: none; opacity: 1;"></path><g><g class="mark-symbol role-legend-symbol" style="pointer-events: none;"><path transform="translate(8,8)" d="M5,0A5,5,0,1,1,-5,0A5,5,0,1,1,5,0" style="fill: none; stroke: #4c78a8; stroke-width: 1.5; opacity: 0.7;"></path></g><g class="mark-text role-legend-label" style="pointer-events: none;"><text text-anchor="start" transform="translate(20,13)" style="font-family: sans-serif; font-size: 16px; fill: #000; opacity: 1;">1</text></g></g></g><g transform="translate(0,18)"><path class="background" d="M0,0h55v16h-55Z" style="pointer-events: none; fill: none; opacity: 1;"></path><g><g class="mark-symbol role-legend-symbol" style="pointer-events: none;"><path transform="translate(8,8)" d="M5,0A5,5,0,1,1,-5,0A5,5,0,1,1,5,0" style="fill: none; stroke: #f58518; stroke-width: 1.5; opacity: 0.7;"></path></g><g class="mark-text role-legend-label" style="pointer-events: none;"><text text-anchor="start" transform="translate(20,13)" style="font-family: sans-serif; font-size: 16px; fill: #000; opacity: 1;">13.5</text></g></g></g></g></g></g></g><g class="mark-text role-legend-title" style="pointer-events: none;"><text text-anchor="start" transform="translate(0,16)" style="font-family: sans-serif; font-size: 20px; font-weight: bold; fill: #000; opacity: 1;">Pressure</text></g></g></g></g></g></g></g></g></svg>