<svg class="marks" width="695" height="465" viewBox="0 0 695 465" version="1.1" xmlns="http://www.w3.org/2000/svg" xmlns:xlink="http://www.w3.org/1999/xlink"><rect width="695" height="465" style="fill: white;"></rect><g transform="translate(85,13)"><g class="mark-group role-frame root"><g transform="translate(0,0)"><path class="background" d="M0.5,0.5h600v400h-600Z" style="fill: none; stroke: #ddd;"></path><g><g class="mark-symbol role-mark layer_0_marks"><path transform="translate(0,57.142844324633614)" d="M2.7386127875258306,0A2.7386127875258306,2.7386127875258306,0,1,1,-2.7386127875258306,0A2.7386127875258306,2.7386127875258306,0,1,1,2.7386127875258306,0" style="fill: none; stroke: #4c78a8; stroke-width: 2; opacity: 0.7;"></path><path transform="translate(15.000000000000014,57.14303755117793)" d="M2.7386127875258306,0A2.7386127875258306,2.7386127875258306,0,1,1,-2.7386127875258306,0A2.7386127875258306,2.7386127875258306,0,1,1,2.7386127875258306,0" style="fill: none; stroke: #4c78a8; stroke-width: 2; opacity: 0.7;"></path><path transform="translate(30.00000000000003,57.14340929115846)" d="M2.7386127875258306,0A2.7386127875258306,2.7386127875258306,0,1,1,-2.7386127875258306,0A2.7386127875258306,2.7386127875258306,0,1,1,2.7386127875258306,0" style="fill: none; stroke: #4c78a8; stroke-width: 2; opacity: 0.7;"></path><path transform="translate(45.00000000000004,57.14458340042236)" d="M2.7386127875258306,0A2.7386127875258306,2.7386127875258306,0,1,1,-2.7386127875258306,0A2.7386127875258306,2.7386127875258306,0,1,1,2.7386127875258306,0" style="fill: none; stroke: #4c78a8; stroke-width: 2; opacity: 0.7;"></path><path transform="translate(60.00000000000006,57.14653595944084)" d="M2.7386127875258306,0A2.7386127875258306,2.7386127875258306,0,1,1,-2.7386127875258306,0A2.7386127875258306,2.7386127875258306,0,1,1,2.7386127875258306,0" style="fill: none; stroke: #4c78a8; stroke-width: 2; opacity: 0.7;"></path><path transform="translate(75.00000000000007,57.15180301042837)" d="M2.7386127875258306,0A2.7386127875258306,2.7386127875258306,0,1,1,-2.7386127875258306,0A2.7386127875258306,2.7386127875258306,0,1,1,2.7386127875258306,0" style="fill: none; stroke: #4c78a8; stroke-width: 2; opacity: 0.7;"></path><path transform="translate(105.00000000000001,57.17485254866666)" d="M2.7386127875258306,0A2.7386127875258306,2.7386127875258306,0,1,1,-2.7386127875258306,0A2.7386127875258306,2.7386127875258306,0,1,1,2.7386127875258306,0" style="fill: none; stroke: #4c78a8; stroke-width: 2; opacity: 0.7;"></path><path transform="translate(150.00000000000003,57.30450167536407)" d="M2.7386127875258306,0A2.7386127875258306,2.7386127875258306,0,1,1,-2.7386127875258306,0A2.7386127875258306,2.7386127875258306,0,1,1,2.7386127875258306,0" style="fill: none; stroke: #4c78a8; stroke-width: 2; opacity: 0.7;"></path><path transform="translate(225.00000000000003,58.450761361305936)" d="M2.7386127875258306,0A2.7386127875258306,2.7386127875258306,0,1,1,-2.7386127875258306,0A2.7386127875258306,2.7386127875258306,0,1,1,2.7386127875258306,0" style="fill: none; stroke: #4c78a8; stroke-width: 2; opacity: 0.7;"></path><path transform="translate(300.00000000000006,62.445077741620516)" d="M2.7386127875258306,0A2.7386127875258306,2.7386127875258306,0,1,1,-2.7386127875258306,0A2.7386127875258306,2.7386127875258306,0,1,1,2.7386127875258306,0" style="fill: none; stroke: #4c78a8; stroke-width: 2; opacity: 0.7;"></path><path transform="translate(375,75.96304903566646)" d="M2.7386127875258306,0A2.7386127875258306,2.7386127875258306,0,1,1,-2.7386127875258306,0A2.7386127875258306,2.7386127875258306,0,1,1,2.7386127875258306,0" style="fill: none; stroke: #4c78a8; stroke-width: 2; opacity: 0.7;"></path><path transform="translate(524.9999999999999,159.88762314411028)" d="M2.7386127875258306,0A2.7386127875258306,2.7386127875258306,0,1,1,-2.7386127875258306,0A2.7386127875258306,2.7386127875258306,0,1,1,2.7386127875258306,0" style="fill: none; stroke: #4c78a8; stroke-width: 2; opacity: 0.7;"></path><path transform="translate(600,209.41249534401933)" d="M2.7386127875258306,0A2.7386127875258306,2.7386127875258306,0,1,1,-2.7386127875258306,0A2.7386127875258306,2.7386127875258306,0,1,1,2.7386127875258306,0" style="fill: none; stroke: #4c78a8; stroke-width: 2; opacity: 0.7;"></path></g><g class="mark-rule role-mark layer_1_layer_0_marks"><line transform="translate(0,57.144432879000504)" x2="0" y2="-0.0031771087337375548" style="fill: none; stroke: black;"></line><line transform="translate(15.000000000000014,57.146253741533656)" x2="0" y2="-0.006432380711402175" style="fill: none; stroke: black;"></line><line transform="translate(30.00000000000003,57.14728705824648)" x2="0" y2="-0.00775553417607" style="fill: none; stroke: black;"></line><line transform="translate(45.00000000000004,57.14920593195676)" x2="0" y2="-0.009245063068782144" style="fill: none; stroke: black;"></line><line transform="translate(60.00000000000006,57.15138062981988)" x2="0" y2="-0.009689340758136211" style="fill: none; stroke: black;"></line><line transform="translate(75.00000000000007,57.17801716065991)" x2="0" y2="-0.052428300463127187" style="fill: none; stroke: black;"></line><line transform="translate(105.00000000000001,57.228748485326044)" x2="0" y2="-0.10779187331868911" style="fill: none; stroke: black;"></line><line transform="translate(150.00000000000003,57.56233838145355)" x2="0" y2="-0.5156734121789057" style="fill: none; stroke: black;"></line><line transform="translate(225.00000000000003,59.46686063905009)" x2="0" y2="-2.0321985554882644" style="fill: none; stroke: black;"></line><line transform="translate(300.00000000000006,71.01901789515397)" x2="0" y2="-17.147880307066863" style="fill: none; stroke: black;"></line><line transform="translate(375,122.37857462337227)" x2="0" y2="-92.83105117541166" style="fill: none; stroke: black;"></line><line transform="translate(524.9999999999999,308.0664532129985)" x2="0" y2="-296.3576601377764" style="fill: none; stroke: black;"></line><line transform="translate(600,375.93590916230596)" x2="0" y2="-333.04682763657325" style="fill: none; stroke: black;"></line></g><g class="mark-group role-axis"><g transform="translate(0.5,400.5)"><path class="background" d="M0,0h0v0h0Z" style="pointer-events: none; fill: none;"></path><g><g class="mark-rule role-axis-tick" style="pointer-events: none;"><line transform="translate(15,0)" x2="0" y2="5" style="fill: none; stroke: #888; stroke-width: 1; opacity: 1;"></line><line transform="translate(45,0)" x2="0" y2="5" style="fill: none; stroke: #888; stroke-width: 1; opacity: 1;"></line><line transform="translate(75,0)" x2="0" y2="5" style="fill: none; stroke: #888; stroke-width: 1; opacity: 1;"></line><line transform="translate(105,0)" x2="0" y2="5" style="fill: none; stroke: #888; stroke-width: 1; opacity: 1;"></line><line transform="translate(135,0)" x2="0" y2="5" style="fill: none; stroke: #888; stroke-width: 1; opacity: 1;"></line><line transform="translate(165,0)" x2="0" y2="5" style="fill: none; stroke: #888; stroke-width: 1; opacity: 1;"></line><line transform="translate(195,0)" x2="0" y2="5" style="fill: none; stroke: #888; stroke-width: 1; opacity: 1;"></line><line transform="translate(225,0)" x2="0" y2="5" style="fill: none; stroke: #888; stroke-width: 1; opacity: 1;"></line><line transform="translate(255,0)" x2="0" y2="5" style="fill: none; stroke: #888; stroke-width: 1; opacity: 1;"></line><line transform="translate(285,0)" x2="0" y2="5" style="fill: none; stroke: #888; stroke-width: 1; opacity: 1;"></line><line transform="translate(315,0)" x2="0" y2="5" style="fill: none; stroke: #888; stroke-width: 1; opacity: 1;"></line><line transform="translate(345,0)" x2="0" y2="5" style="fill: none; stroke: #888; stroke-width: 1; opacity: 1;"></line><line transform="translate(375,0)" x2="0" y2="5" style="fill: none; stroke: #888; stroke-width: 1; opacity: 1;"></line><line transform="translate(405,0)" x2="0" y2="5" style="fill: none; stroke: #888; stroke-width: 1; opacity: 1;"></line><line transform="translate(435,0)" x2="0" y2="5" style="fill: none; stroke: #888; stroke-width: 1; opacity: 1;"></line><line transform="translate(465,0)" x2="0" y2="5" style="fill: none; stroke: #888; stroke-width: 1; opacity: 1;"></line><line transform="translate(495,0)" x2="0" y2="5" style="fill: none; stroke: #888; stroke-width: 1; opacity: 1;"></line><line transform="translate(525,0)" x2="0" y2="5" style="fill: none; stroke: #888; stroke-width: 1; opacity: 1;"></line><line transform="translate(555,0)" x2="0" y2="5" style="fill: none; stroke: #888; stroke-width: 1; opacity: 1;"></line><line transform="translate(585,0)" x2="0" y2="5" style="fill: none; stroke: #888; stroke-width: 1; opacity: 1;"></line></g><g class="mark-text role-axis-label" style="pointer-events: none;"><text text-anchor="middle" transform="translate(15.000000000000014,20)" style="font-family: Roboto; font-size: 16px; fill: #000; opacity: 1;">0.36</text><text text-anchor="middle" transform="translate(45.00000000000004,20)" style="font-family: Roboto; font-size: 16px; fill: #000; opacity: 0;">0.38</text><text text-anchor="middle" transform="translate(75.00000000000007,20)" style="font-family: Roboto; font-size: 16px; fill: #000; opacity: 1;">0.40</text><text text-anchor="middle" transform="translate(105.00000000000001,20)" style="font-family: Roboto; font-size: 16px; fill: #000; opacity: 0;">0.42</text><text text-anchor="middle" transform="translate(135.00000000000003,20)" style="font-family: Roboto; font-size: 16px; fill: #000; opacity: 1;">0.44</text><text text-anchor="middle" transform="translate(165.00000000000006,20)" style="font-family: Roboto; font-size: 16px; fill: #000; opacity: 0;">0.46</text><text text-anchor="middle" transform="translate(195,20)" style="font-family: Roboto; font-size: 16px; fill: #000; opacity: 1;">0.48</text><text text-anchor="middle" transform="translate(225.00000000000003,20)" style="font-family: Roboto; font-size: 16px; fill: #000; opacity: 0;">0.50</text><text text-anchor="middle" transform="translate(255.00000000000006,20)" style="font-family: Roboto; font-size: 16px; fill: #000; opacity: 1;">0.52</text><text text-anchor="middle" transform="translate(285.0000000000001,20)" style="font-family: Roboto; font-size: 16px; fill: #000; opacity: 0;">0.54</text><text text-anchor="middle" transform="translate(315.00000000000006,20)" style="font-family: Roboto; font-size: 16px; fill: #000; opacity: 1;">0.56</text><text text-anchor="middle" transform="translate(345,20)" style="font-family: Roboto; font-size: 16px; fill: #000; opacity: 0;">0.58</text><text text-anchor="middle" transform="translate(375,20)" style="font-family: Roboto; font-size: 16px; fill: #000; opacity: 1;">0.60</text><text text-anchor="middle" transform="translate(405,20)" style="font-family: Roboto; font-size: 16px; fill: #000; opacity: 0;">0.62</text><text text-anchor="middle" transform="translate(435.00000000000006,20)" style="font-family: Roboto; font-size: 16px; fill: #000; opacity: 1;">0.64</text><text text-anchor="middle" transform="translate(465.00000000000006,20)" style="font-family: Roboto; font-size: 16px; fill: #000; opacity: 0;">0.66</text><text text-anchor="middle" transform="translate(495.0000000000001,20)" style="font-family: Roboto; font-size: 16px; fill: #000; opacity: 1;">0.68</text><text text-anchor="middle" transform="translate(524.9999999999999,20)" style="font-family: Roboto; font-size: 16px; fill: #000; opacity: 0;">0.70</text><text text-anchor="middle" transform="translate(555,20)" style="font-family: Roboto; font-size: 16px; fill: #000; opacity: 1;">0.72</text><text text-anchor="middle" transform="translate(585,20)" style="font-family: Roboto; font-size: 16px; fill: #000; opacity: 0;">0.74</text></g><g class="mark-rule role-axis-domain" style="pointer-events: none;"><line transform="translate(0,0)" x2="600" y2="0" style="fill: none; stroke: #888; stroke-width: 1; opacity: 1;"></line></g><g class="mark-text role-axis-title" style="pointer-events: none;"><text text-anchor="middle" transform="translate(300,43)" style="font-family: Roboto; font-size: 20px; font-weight: bold; fill: #000; opacity: 1;">temperature</text></g></g><path class="foreground" d="" style="pointer-events: none; display: none; fill: none;"></path></g></g><g class="mark-group role-axis"><g transform="translate(0.5,0.5)"><path class="background" d="M0,0h0v0h0Z" style="pointer-events: none; fill: none;"></path><g><g class="mark-rule role-axis-tick" style="pointer-events: none;"><line transform="translate(0,400)" x2="-5" y2="0" style="fill: none; stroke: #888; stroke-width: 1; opacity: 1;"></line><line transform="translate(0,371)" x2="-5" y2="0" style="fill: none; stroke: #888; stroke-width: 1; opacity: 1;"></line><line transform="translate(0,343)" x2="-5" y2="0" style="fill: none; stroke: #888; stroke-width: 1; opacity: 1;"></line><line transform="translate(0,314)" x2="-5" y2="0" style="fill: none; stroke: #888; stroke-width: 1; opacity: 1;"></line><line transform="translate(0,286)" x2="-5" y2="0" style="fill: none; stroke: #888; stroke-width: 1; opacity: 1;"></line><line transform="translate(0,257)" x2="-5" y2="0" style="fill: none; stroke: #888; stroke-width: 1; opacity: 1;"></line><line transform="translate(0,229)" x2="-5" y2="0" style="fill: none; stroke: #888; stroke-width: 1; opacity: 1;"></line><line transform="translate(0,200)" x2="-5" y2="0" style="fill: none; stroke: #888; stroke-width: 1; opacity: 1;"></line><line transform="translate(0,171)" x2="-5" y2="0" style="fill: none; stroke: #888; stroke-width: 1; opacity: 1;"></line><line transform="translate(0,143)" x2="-5" y2="0" style="fill: none; stroke: #888; stroke-width: 1; opacity: 1;"></line><line transform="translate(0,114)" x2="-5" y2="0" style="fill: none; stroke: #888; stroke-width: 1; opacity: 1;"></line><line transform="translate(0,86)" x2="-5" y2="0" style="fill: none; stroke: #888; stroke-width: 1; opacity: 1;"></line><line transform="translate(0,57)" x2="-5" y2="0" style="fill: none; stroke: #888; stroke-width: 1; opacity: 1;"></line><line transform="translate(0,29)" x2="-5" y2="0" style="fill: none; stroke: #888; stroke-width: 1; opacity: 1;"></line><line transform="translate(0,0)" x2="-5" y2="0" style="fill: none; stroke: #888; stroke-width: 1; opacity: 1;"></line></g><g class="mark-text role-axis-label" style="pointer-events: none;"><text text-anchor="end" transform="translate(-7,405)" style="font-family: Roboto; font-size: 16px; fill: #000; opacity: 1;">-2.4e-1</text><text text-anchor="end" transform="translate(-7,376.42857142857144)" style="font-family: Roboto; font-size: 16px; fill: #000; opacity: 1;">-2.2e-1</text><text text-anchor="end" transform="translate(-7,347.8571428571429)" style="font-family: Roboto; font-size: 16px; fill: #000; opacity: 1;">-2.0e-1</text><text text-anchor="end" transform="translate(-7,319.2857142857143)" style="font-family: Roboto; font-size: 16px; fill: #000; opacity: 1;">-1.8e-1</text><text text-anchor="end" transform="translate(-7,290.7142857142857)" style="font-family: Roboto; font-size: 16px; fill: #000; opacity: 1;">-1.6e-1</text><text text-anchor="end" transform="translate(-7,262.14285714285717)" style="font-family: Roboto; font-size: 16px; fill: #000; opacity: 1;">-1.4e-1</text><text text-anchor="end" transform="translate(-7,233.57142857142856)" style="font-family: Roboto; font-size: 16px; fill: #000; opacity: 1;">-1.2e-1</text><text text-anchor="end" transform="translate(-7,205)" style="font-family: Roboto; font-size: 16px; fill: #000; opacity: 1;">-1.0e-1</text><text text-anchor="end" transform="translate(-7,176.42857142857144)" style="font-family: Roboto; font-size: 16px; fill: #000; opacity: 1;">-8.0e-2</text><text text-anchor="end" transform="translate(-7,147.85714285714283)" style="font-family: Roboto; font-size: 16px; fill: #000; opacity: 1;">-6.0e-2</text><text text-anchor="end" transform="translate(-7,119.28571428571428)" style="font-family: Roboto; font-size: 16px; fill: #000; opacity: 1;">-4.0e-2</text><text text-anchor="end" transform="translate(-7,90.71428571428568)" style="font-family: Roboto; font-size: 16px; fill: #000; opacity: 1;">-2.0e-2</text><text text-anchor="end" transform="translate(-7,62.14285714285712)" style="font-family: Roboto; font-size: 16px; fill: #000; opacity: 1;">0.0e+0</text><text text-anchor="end" transform="translate(-7,33.57142857142851)" style="font-family: Roboto; font-size: 16px; fill: #000; opacity: 1;">2.0e-2</text><text text-anchor="end" transform="translate(-7,5)" style="font-family: Roboto; font-size: 16px; fill: #000; opacity: 1;">4.0e-2</text></g><g class="mark-rule role-axis-domain" style="pointer-events: none;"><line transform="translate(0,400)" x2="0" y2="-400" style="fill: none; stroke: #888; stroke-width: 1; opacity: 1;"></line></g><g class="mark-text role-axis-title" style="pointer-events: none;"><text text-anchor="middle" transform="translate(-59.78333282470703,200) rotate(-90) translate(0,-4)" style="font-family: Roboto; font-size: 20px; font-weight: bold; fill: #000; opacity: 1;">mean</text></g></g><path class="foreground" d="" style="pointer-events: none; display: none; fill: none;"></path></g></g></g><path class="foreground" d="" style="display: none; fill: none;"></path></g></g></g></svg>