<svg class="marks" width="695" height="465" viewBox="0 0 695 465" version="1.1" xmlns="http://www.w3.org/2000/svg" xmlns:xlink="http://www.w3.org/1999/xlink"><rect width="695" height="465" style="fill: white;"></rect><g transform="translate(85,13)"><g class="mark-group role-frame root"><g transform="translate(0,0)"><path class="background" d="M0.5,0.5h600v400h-600Z" style="fill: none; stroke: #ddd;"></path><g><g class="mark-group role-axis"><g transform="translate(0.5,400.5)"><path class="background" d="M0,0h0v0h0Z" style="pointer-events: none; fill: none;"></path><g><g class="mark-rule role-axis-tick" style="pointer-events: none;"><line transform="translate(0,0)" x2="0" y2="5" style="fill: none; stroke: #888; stroke-width: 1; opacity: 1;"></line><line transform="translate(30,0)" x2="0" y2="5" style="fill: none; stroke: #888; stroke-width: 1; opacity: 1;"></line><line transform="translate(60,0)" x2="0" y2="5" style="fill: none; stroke: #888; stroke-width: 1; opacity: 1;"></line><line transform="translate(90,0)" x2="0" y2="5" style="fill: none; stroke: #888; stroke-width: 1; opacity: 1;"></line><line transform="translate(120,0)" x2="0" y2="5" style="fill: none; stroke: #888; stroke-width: 1; opacity: 1;"></line><line transform="translate(150,0)" x2="0" y2="5" style="fill: none; stroke: #888; stroke-width: 1; opacity: 1;"></line><line transform="translate(180,0)" x2="0" y2="5" style="fill: none; stroke: #888; stroke-width: 1; opacity: 1;"></line><line transform="translate(210,0)" x2="0" y2="5" style="fill: none; stroke: #888; stroke-width: 1; opacity: 1;"></line><line transform="translate(240,0)" x2="0" y2="5" style="fill: none; stroke: #888; stroke-width: 1; opacity: 1;"></line><line transform="translate(270,0)" x2="0" y2="5" style="fill: none; stroke: #888; stroke-width: 1; opacity: 1;"></line><line transform="translate(300,0)" x2="0" y2="5" style="fill: none; stroke: #888; stroke-width: 1; opacity: 1;"></line><line transform="translate(330,0)" x2="0" y2="5" style="fill: none; stroke: #888; stroke-width: 1; opacity: 1;"></line><line transform="translate(360,0)" x2="0" y2="5" style="fill: none; stroke: #888; stroke-width: 1; opacity: 1;"></line><line transform="translate(390,0)" x2="0" y2="5" style="fill: none; stroke: #888; stroke-width: 1; opacity: 1;"></line><line transform="translate(420,0)" x2="0" y2="5" style="fill: none; stroke: #888; stroke-width: 1; opacity: 1;"></line><line transform="translate(450,0)" x2="0" y2="5" style="fill: none; stroke: #888; stroke-width: 1; opacity: 1;"></line><line transform="translate(480,0)" x2="0" y2="5" style="fill: none; stroke: #888; stroke-width: 1; opacity: 1;"></line><line transform="translate(510,0)" x2="0" y2="5" style="fill: none; stroke: #888; stroke-width: 1; opacity: 1;"></line><line transform="translate(540,0)" x2="0" y2="5" style="fill: none; stroke: #888; stroke-width: 1; opacity: 1;"></line><line transform="translate(570,0)" x2="0" y2="5" style="fill: none; stroke: #888; stroke-width: 1; opacity: 1;"></line><line transform="translate(600,0)" x2="0" y2="5" style="fill: none; stroke: #888; stroke-width: 1; opacity: 1;"></line></g><g class="mark-text role-axis-label" style="pointer-events: none;"><text text-anchor="start" transform="translate(0,20)" style="font-family: Roboto; font-size: 16px; fill: #000; opacity: 1;">0.350</text><text text-anchor="middle" transform="translate(30,20)" style="font-family: Roboto; font-size: 16px; fill: #000; opacity: 0;">0.352</text><text text-anchor="middle" transform="translate(60,20)" style="font-family: Roboto; font-size: 16px; fill: #000; opacity: 0;">0.354</text><text text-anchor="middle" transform="translate(90,20)" style="font-family: Roboto; font-size: 16px; fill: #000; opacity: 0;">0.356</text><text text-anchor="middle" transform="translate(120,20)" style="font-family: Roboto; font-size: 16px; fill: #000; opacity: 1;">0.358</text><text text-anchor="middle" transform="translate(150,20)" style="font-family: Roboto; font-size: 16px; fill: #000; opacity: 0;">0.360</text><text text-anchor="middle" transform="translate(180,20)" style="font-family: Roboto; font-size: 16px; fill: #000; opacity: 0;">0.362</text><text text-anchor="middle" transform="translate(210,20)" style="font-family: Roboto; font-size: 16px; fill: #000; opacity: 0;">0.364</text><text text-anchor="middle" transform="translate(240,20)" style="font-family: Roboto; font-size: 16px; fill: #000; opacity: 1;">0.366</text><text text-anchor="middle" transform="translate(270,20)" style="font-family: Roboto; font-size: 16px; fill: #000; opacity: 0;">0.368</text><text text-anchor="middle" transform="translate(300,20)" style="font-family: Roboto; font-size: 16px; fill: #000; opacity: 0;">0.370</text><text text-anchor="middle" transform="translate(330,20)" style="font-family: Roboto; font-size: 16px; fill: #000; opacity: 0;">0.372</text><text text-anchor="middle" transform="translate(360,20)" style="font-family: Roboto; font-size: 16px; fill: #000; opacity: 1;">0.374</text><text text-anchor="middle" transform="translate(390,20)" style="font-family: Roboto; font-size: 16px; fill: #000; opacity: 0;">0.376</text><text text-anchor="middle" transform="translate(420,20)" style="font-family: Roboto; font-size: 16px; fill: #000; opacity: 0;">0.378</text><text text-anchor="middle" transform="translate(450,20)" style="font-family: Roboto; font-size: 16px; fill: #000; opacity: 0;">0.380</text><text text-anchor="middle" transform="translate(480,20)" style="font-family: Roboto; font-size: 16px; fill: #000; opacity: 1;">0.382</text><text text-anchor="middle" transform="translate(510,20)" style="font-family: Roboto; font-size: 16px; fill: #000; opacity: 0;">0.384</text><text text-anchor="middle" transform="translate(540,20)" style="font-family: Roboto; font-size: 16px; fill: #000; opacity: 0;">0.386</text><text text-anchor="middle" transform="translate(570,20)" style="font-family: Roboto; font-size: 16px; fill: #000; opacity: 0;">0.388</text><text text-anchor="end" transform="translate(600,20)" style="font-family: Roboto; font-size: 16px; fill: #000; opacity: 1;">0.390</text></g><g class="mark-rule role-axis-domain" style="pointer-events: none;"><line transform="translate(0,0)" x2="600" y2="0" style="fill: none; stroke: #888; stroke-width: 1; opacity: 1;"></line></g><g class="mark-text role-axis-title" style="pointer-events: none;"><text text-anchor="middle" transform="translate(300,43)" style="font-family: Roboto; font-size: 20px; font-weight: bold; fill: #000; opacity: 1;">Temperature</text></g></g><path class="foreground" d="" style="pointer-events: none; display: none; fill: none;"></path></g></g><g class="mark-group role-axis"><g transform="translate(0.5,0.5)"><path class="background" d="M0,0h0v0h0Z" style="pointer-events: none; fill: none;"></path><g><g class="mark-rule role-axis-tick" style="pointer-events: none;"><line transform="translate(0,400)" x2="-5" y2="0" style="fill: none; stroke: #888; stroke-width: 1; opacity: 1;"></line><line transform="translate(0,343)" x2="-5" y2="0" style="fill: none; stroke: #888; stroke-width: 1; opacity: 1;"></line><line transform="translate(0,286)" x2="-5" y2="0" style="fill: none; stroke: #888; stroke-width: 1; opacity: 1;"></line><line transform="translate(0,229)" x2="-5" y2="0" style="fill: none; stroke: #888; stroke-width: 1; opacity: 1;"></line><line transform="translate(0,171)" x2="-5" y2="0" style="fill: none; stroke: #888; stroke-width: 1; opacity: 1;"></line><line transform="translate(0,114)" x2="-5" y2="0" style="fill: none; stroke: #888; stroke-width: 1; opacity: 1;"></line><line transform="translate(0,57)" x2="-5" y2="0" style="fill: none; stroke: #888; stroke-width: 1; opacity: 1;"></line><line transform="translate(0,0)" x2="-5" y2="0" style="fill: none; stroke: #888; stroke-width: 1; opacity: 1;"></line></g><g class="mark-text role-axis-label" style="pointer-events: none;"><text text-anchor="end" transform="translate(-7,405)" style="font-family: Roboto; font-size: 16px; fill: #000; opacity: 1;">-3.0e-6</text><text text-anchor="end" transform="translate(-7,347.8571428571429)" style="font-family: Roboto; font-size: 16px; fill: #000; opacity: 1;">-2.5e-6</text><text text-anchor="end" transform="translate(-7,290.71428571428567)" style="font-family: Roboto; font-size: 16px; fill: #000; opacity: 1;">-2.0e-6</text><text text-anchor="end" transform="translate(-7,233.57142857142856)" style="font-family: Roboto; font-size: 16px; fill: #000; opacity: 1;">-1.5e-6</text><text text-anchor="end" transform="translate(-7,176.4285714285714)" style="font-family: Roboto; font-size: 16px; fill: #000; opacity: 1;">-1.0e-6</text><text text-anchor="end" transform="translate(-7,119.28571428571428)" style="font-family: Roboto; font-size: 16px; fill: #000; opacity: 1;">-5.0e-7</text><text text-anchor="end" transform="translate(-7,62.14285714285712)" style="font-family: Roboto; font-size: 16px; fill: #000; opacity: 1;">0.0e+0</text><text text-anchor="end" transform="translate(-7,5)" style="font-family: Roboto; font-size: 16px; fill: #000; opacity: 1;">5.0e-7</text></g><g class="mark-rule role-axis-domain" style="pointer-events: none;"><line transform="translate(0,400)" x2="0" y2="-400" style="fill: none; stroke: #888; stroke-width: 1; opacity: 1;"></line></g><g class="mark-text role-axis-title" style="pointer-events: none;"><text text-anchor="middle" transform="translate(-59.78333282470703,200) rotate(-90) translate(0,-4)" style="font-family: Roboto; font-size: 20px; font-weight: bold; fill: #000; opacity: 1;">Melting Rate</text></g></g><path class="foreground" d="" style="pointer-events: none; display: none; fill: none;"></path></g></g><g class="mark-symbol role-mark layer_0_layer_0_marks"><path transform="translate(0,58.94502490074003)" d="M2.7386127875258306,0A2.7386127875258306,2.7386127875258306,0,1,1,-2.7386127875258306,0A2.7386127875258306,2.7386127875258306,0,1,1,2.7386127875258306,0" style="fill: none; stroke: #4c78a8; stroke-width: 2; opacity: 0.7;"></path><path transform="translate(150,71.20665916179098)" d="M2.7386127875258306,0A2.7386127875258306,2.7386127875258306,0,1,1,-2.7386127875258306,0A2.7386127875258306,2.7386127875258306,0,1,1,2.7386127875258306,0" style="fill: none; stroke: #4c78a8; stroke-width: 2; opacity: 0.7;"></path><path transform="translate(300,101.78079591122815)" d="M2.7386127875258306,0A2.7386127875258306,2.7386127875258306,0,1,1,-2.7386127875258306,0A2.7386127875258306,2.7386127875258306,0,1,1,2.7386127875258306,0" style="fill: none; stroke: #4c78a8; stroke-width: 2; opacity: 0.7;"></path><path transform="translate(450,196.85064621780884)" d="M2.7386127875258306,0A2.7386127875258306,2.7386127875258306,0,1,1,-2.7386127875258306,0A2.7386127875258306,2.7386127875258306,0,1,1,2.7386127875258306,0" style="fill: none; stroke: #4c78a8; stroke-width: 2; opacity: 0.7;"></path><path transform="translate(600,359.6245687981896)" d="M2.7386127875258306,0A2.7386127875258306,2.7386127875258306,0,1,1,-2.7386127875258306,0A2.7386127875258306,2.7386127875258306,0,1,1,2.7386127875258306,0" style="fill: none; stroke: #4c78a8; stroke-width: 2; opacity: 0.7;"></path></g><g class="mark-rule role-mark layer_0_layer_1_layer_0_marks"><line transform="translate(0,61.47536008975343)" x2="0" y2="-5.060670378026799" style="fill: none; stroke: #4c78a8;"></line><line transform="translate(150,76.0078500995784)" x2="0" y2="-9.602381875574835" style="fill: none; stroke: #4c78a8;"></line><line transform="translate(300,105.5661506437601)" x2="0" y2="-7.5707094650638425" style="fill: none; stroke: #4c78a8;"></line><line transform="translate(450,210.54035939870852)" x2="0" y2="-27.379426361799375" style="fill: none; stroke: #4c78a8;"></line><line transform="translate(600,383.44937019405745)" x2="0" y2="-47.64960279173562" style="fill: none; stroke: #4c78a8;"></line></g><g class="mark-rule role-mark layer_1_marks"><line transform="translate(0,57.14285714285712)" x2="600" y2="0" style="fill: none; stroke: grey;"></line><line transform="translate(0,57.14285714285712)" x2="600" y2="0" style="fill: none; stroke: grey;"></line><line transform="translate(0,57.14285714285712)" x2="600" y2="0" style="fill: none; stroke: grey;"></line><line transform="translate(0,57.14285714285712)" x2="600" y2="0" style="fill: none; stroke: grey;"></line><line transform="translate(0,57.14285714285712)" x2="600" y2="0" style="fill: none; stroke: grey;"></line></g></g><path class="foreground" d="" style="display: none; fill: none;"></path></g></g></g></svg>