<svg class="marks" width="704" height="465" viewBox="0 0 704 465" version="1.1" xmlns="http://www.w3.org/2000/svg" xmlns:xlink="http://www.w3.org/1999/xlink"><rect width="704" height="465" style="fill: white;"></rect><g transform="translate(94,13)"><g class="mark-group role-frame root"><g transform="translate(0,0)"><path class="background" d="M0.5,0.5h600v400h-600Z" style="fill: none; stroke: #ddd;"></path><g><g class="mark-symbol role-mark layer_0_marks"><path transform="translate(0,30.7692194937286)" d="M2.7386127875258306,0A2.7386127875258306,2.7386127875258306,0,1,1,-2.7386127875258306,0A2.7386127875258306,2.7386127875258306,0,1,1,2.7386127875258306,0" style="fill: none; stroke: #4c78a8; stroke-width: 2; opacity: 0.7;"></path><path transform="translate(15.000000000000014,30.76959903454565)" d="M2.7386127875258306,0A2.7386127875258306,2.7386127875258306,0,1,1,-2.7386127875258306,0A2.7386127875258306,2.7386127875258306,0,1,1,2.7386127875258306,0" style="fill: none; stroke: #4c78a8; stroke-width: 2; opacity: 0.7;"></path><path transform="translate(30.00000000000003,30.769570269021756)" d="M2.7386127875258306,0A2.7386127875258306,2.7386127875258306,0,1,1,-2.7386127875258306,0A2.7386127875258306,2.7386127875258306,0,1,1,2.7386127875258306,0" style="fill: none; stroke: #4c78a8; stroke-width: 2; opacity: 0.7;"></path><path transform="translate(45.00000000000004,30.77106752001049)" d="M2.7386127875258306,0A2.7386127875258306,2.7386127875258306,0,1,1,-2.7386127875258306,0A2.7386127875258306,2.7386127875258306,0,1,1,2.7386127875258306,0" style="fill: none; stroke: #4c78a8; stroke-width: 2; opacity: 0.7;"></path><path transform="translate(60.00000000000006,30.773240705030616)" d="M2.7386127875258306,0A2.7386127875258306,2.7386127875258306,0,1,1,-2.7386127875258306,0A2.7386127875258306,2.7386127875258306,0,1,1,2.7386127875258306,0" style="fill: none; stroke: #4c78a8; stroke-width: 2; opacity: 0.7;"></path><path transform="translate(75.00000000000007,30.776193511490987)" d="M2.7386127875258306,0A2.7386127875258306,2.7386127875258306,0,1,1,-2.7386127875258306,0A2.7386127875258306,2.7386127875258306,0,1,1,2.7386127875258306,0" style="fill: none; stroke: #4c78a8; stroke-width: 2; opacity: 0.7;"></path><path transform="translate(105.00000000000001,30.797839025848134)" d="M2.7386127875258306,0A2.7386127875258306,2.7386127875258306,0,1,1,-2.7386127875258306,0A2.7386127875258306,2.7386127875258306,0,1,1,2.7386127875258306,0" style="fill: none; stroke: #4c78a8; stroke-width: 2; opacity: 0.7;"></path><path transform="translate(150.00000000000003,30.964142677481107)" d="M2.7386127875258306,0A2.7386127875258306,2.7386127875258306,0,1,1,-2.7386127875258306,0A2.7386127875258306,2.7386127875258306,0,1,1,2.7386127875258306,0" style="fill: none; stroke: #4c78a8; stroke-width: 2; opacity: 0.7;"></path><path transform="translate(225.00000000000003,32.159195314595024)" d="M2.7386127875258306,0A2.7386127875258306,2.7386127875258306,0,1,1,-2.7386127875258306,0A2.7386127875258306,2.7386127875258306,0,1,1,2.7386127875258306,0" style="fill: none; stroke: #4c78a8; stroke-width: 2; opacity: 0.7;"></path><path transform="translate(300.00000000000006,36.55874634938493)" d="M2.7386127875258306,0A2.7386127875258306,2.7386127875258306,0,1,1,-2.7386127875258306,0A2.7386127875258306,2.7386127875258306,0,1,1,2.7386127875258306,0" style="fill: none; stroke: #4c78a8; stroke-width: 2; opacity: 0.7;"></path><path transform="translate(375,51.264689016797206)" d="M2.7386127875258306,0A2.7386127875258306,2.7386127875258306,0,1,1,-2.7386127875258306,0A2.7386127875258306,2.7386127875258306,0,1,1,2.7386127875258306,0" style="fill: none; stroke: #4c78a8; stroke-width: 2; opacity: 0.7;"></path><path transform="translate(524.9999999999999,131.60580053007556)" d="M2.7386127875258306,0A2.7386127875258306,2.7386127875258306,0,1,1,-2.7386127875258306,0A2.7386127875258306,2.7386127875258306,0,1,1,2.7386127875258306,0" style="fill: none; stroke: #4c78a8; stroke-width: 2; opacity: 0.7;"></path><path transform="translate(600,194.5668939727287)" d="M2.7386127875258306,0A2.7386127875258306,2.7386127875258306,0,1,1,-2.7386127875258306,0A2.7386127875258306,2.7386127875258306,0,1,1,2.7386127875258306,0" style="fill: none; stroke: #4c78a8; stroke-width: 2; opacity: 0.7;"></path></g><g class="mark-rule role-mark layer_1_layer_0_marks"><line transform="translate(0,30.770920371931936)" x2="0" y2="-0.003401756406617551" style="fill: none; stroke: black;"></line><line transform="translate(15.000000000000014,30.773247634070458)" x2="0" y2="-0.00729719904961712" style="fill: none; stroke: black;"></line><line transform="translate(30.00000000000003,30.773631299536476)" x2="0" y2="-0.008122061029382621" style="fill: none; stroke: black;"></line><line transform="translate(45.00000000000004,30.775861878180365)" x2="0" y2="-0.00958871633980607" style="fill: none; stroke: black;"></line><line transform="translate(60.00000000000006,30.77876625209359)" x2="0" y2="-0.01105109412605998" style="fill: none; stroke: black;"></line><line transform="translate(75.00000000000007,30.798397371264514)" x2="0" y2="-0.04440771954699585" style="fill: none; stroke: black;"></line><line transform="translate(105.00000000000001,30.85249648275601)" x2="0" y2="-0.10931491381569458" style="fill: none; stroke: black;"></line><line transform="translate(150.00000000000003,31.068764639133917)" x2="0" y2="-0.20924392330562114" style="fill: none; stroke: black;"></line><line transform="translate(225.00000000000003,32.82796342175851)" x2="0" y2="-1.3375362143269172" style="fill: none; stroke: black;"></line><line transform="translate(300.00000000000006,38.24140079384921)" x2="0" y2="-3.3653088889286664" style="fill: none; stroke: black;"></line><line transform="translate(375,66.98065692198594)" x2="0" y2="-31.431935810377524" style="fill: none; stroke: black;"></line><line transform="translate(524.9999999999999,219.24694809612177)" x2="0" y2="-175.2822951320924" style="fill: none; stroke: black;"></line><line transform="translate(600,372.9074669551212)" x2="0" y2="-356.681145964785" style="fill: none; stroke: black;"></line></g><g class="mark-group role-axis"><g transform="translate(0.5,400.5)"><path class="background" d="M0,0h0v0h0Z" style="pointer-events: none; fill: none;"></path><g><g class="mark-rule role-axis-tick" style="pointer-events: none;"><line transform="translate(15,0)" x2="0" y2="5" style="fill: none; stroke: #888; stroke-width: 1; opacity: 1;"></line><line transform="translate(45,0)" x2="0" y2="5" style="fill: none; stroke: #888; stroke-width: 1; opacity: 1;"></line><line transform="translate(75,0)" x2="0" y2="5" style="fill: none; stroke: #888; stroke-width: 1; opacity: 1;"></line><line transform="translate(105,0)" x2="0" y2="5" style="fill: none; stroke: #888; stroke-width: 1; opacity: 1;"></line><line transform="translate(135,0)" x2="0" y2="5" style="fill: none; stroke: #888; stroke-width: 1; opacity: 1;"></line><line transform="translate(165,0)" x2="0" y2="5" style="fill: none; stroke: #888; stroke-width: 1; opacity: 1;"></line><line transform="translate(195,0)" x2="0" y2="5" style="fill: none; stroke: #888; stroke-width: 1; opacity: 1;"></line><line transform="translate(225,0)" x2="0" y2="5" style="fill: none; stroke: #888; stroke-width: 1; opacity: 1;"></line><line transform="translate(255,0)" x2="0" y2="5" style="fill: none; stroke: #888; stroke-width: 1; opacity: 1;"></line><line transform="translate(285,0)" x2="0" y2="5" style="fill: none; stroke: #888; stroke-width: 1; opacity: 1;"></line><line transform="translate(315,0)" x2="0" y2="5" style="fill: none; stroke: #888; stroke-width: 1; opacity: 1;"></line><line transform="translate(345,0)" x2="0" y2="5" style="fill: none; stroke: #888; stroke-width: 1; opacity: 1;"></line><line transform="translate(375,0)" x2="0" y2="5" style="fill: none; stroke: #888; stroke-width: 1; opacity: 1;"></line><line transform="translate(405,0)" x2="0" y2="5" style="fill: none; stroke: #888; stroke-width: 1; opacity: 1;"></line><line transform="translate(435,0)" x2="0" y2="5" style="fill: none; stroke: #888; stroke-width: 1; opacity: 1;"></line><line transform="translate(465,0)" x2="0" y2="5" style="fill: none; stroke: #888; stroke-width: 1; opacity: 1;"></line><line transform="translate(495,0)" x2="0" y2="5" style="fill: none; stroke: #888; stroke-width: 1; opacity: 1;"></line><line transform="translate(525,0)" x2="0" y2="5" style="fill: none; stroke: #888; stroke-width: 1; opacity: 1;"></line><line transform="translate(555,0)" x2="0" y2="5" style="fill: none; stroke: #888; stroke-width: 1; opacity: 1;"></line><line transform="translate(585,0)" x2="0" y2="5" style="fill: none; stroke: #888; stroke-width: 1; opacity: 1;"></line></g><g class="mark-text role-axis-label" style="pointer-events: none;"><text text-anchor="middle" transform="translate(15.000000000000014,20)" style="font-family: sans-serif; font-size: 16px; fill: #000; opacity: 1;">0.36</text><text text-anchor="middle" transform="translate(45.00000000000004,20)" style="font-family: sans-serif; font-size: 16px; fill: #000; opacity: 0;">0.38</text><text text-anchor="middle" transform="translate(75.00000000000007,20)" style="font-family: sans-serif; font-size: 16px; fill: #000; opacity: 1;">0.40</text><text text-anchor="middle" transform="translate(105.00000000000001,20)" style="font-family: sans-serif; font-size: 16px; fill: #000; opacity: 0;">0.42</text><text text-anchor="middle" transform="translate(135.00000000000003,20)" style="font-family: sans-serif; font-size: 16px; fill: #000; opacity: 1;">0.44</text><text text-anchor="middle" transform="translate(165.00000000000006,20)" style="font-family: sans-serif; font-size: 16px; fill: #000; opacity: 0;">0.46</text><text text-anchor="middle" transform="translate(195,20)" style="font-family: sans-serif; font-size: 16px; fill: #000; opacity: 1;">0.48</text><text text-anchor="middle" transform="translate(225.00000000000003,20)" style="font-family: sans-serif; font-size: 16px; fill: #000; opacity: 0;">0.50</text><text text-anchor="middle" transform="translate(255.00000000000006,20)" style="font-family: sans-serif; font-size: 16px; fill: #000; opacity: 1;">0.52</text><text text-anchor="middle" transform="translate(285.0000000000001,20)" style="font-family: sans-serif; font-size: 16px; fill: #000; opacity: 0;">0.54</text><text text-anchor="middle" transform="translate(315.00000000000006,20)" style="font-family: sans-serif; font-size: 16px; fill: #000; opacity: 1;">0.56</text><text text-anchor="middle" transform="translate(345,20)" style="font-family: sans-serif; font-size: 16px; fill: #000; opacity: 0;">0.58</text><text text-anchor="middle" transform="translate(375,20)" style="font-family: sans-serif; font-size: 16px; fill: #000; opacity: 1;">0.60</text><text text-anchor="middle" transform="translate(405,20)" style="font-family: sans-serif; font-size: 16px; fill: #000; opacity: 0;">0.62</text><text text-anchor="middle" transform="translate(435.00000000000006,20)" style="font-family: sans-serif; font-size: 16px; fill: #000; opacity: 1;">0.64</text><text text-anchor="middle" transform="translate(465.00000000000006,20)" style="font-family: sans-serif; font-size: 16px; fill: #000; opacity: 0;">0.66</text><text text-anchor="middle" transform="translate(495.0000000000001,20)" style="font-family: sans-serif; font-size: 16px; fill: #000; opacity: 1;">0.68</text><text text-anchor="middle" transform="translate(524.9999999999999,20)" style="font-family: sans-serif; font-size: 16px; fill: #000; opacity: 0;">0.70</text><text text-anchor="middle" transform="translate(555,20)" style="font-family: sans-serif; font-size: 16px; fill: #000; opacity: 1;">0.72</text><text text-anchor="middle" transform="translate(585,20)" style="font-family: sans-serif; font-size: 16px; fill: #000; opacity: 0;">0.74</text></g><g class="mark-rule role-axis-domain" style="pointer-events: none;"><line transform="translate(0,0)" x2="600" y2="0" style="fill: none; stroke: #888; stroke-width: 1; opacity: 1;"></line></g><g class="mark-text role-axis-title" style="pointer-events: none;"><text text-anchor="middle" transform="translate(300,43)" style="font-family: sans-serif; font-size: 20px; font-weight: bold; fill: #000; opacity: 1;">temperature</text></g></g></g></g><g class="mark-group role-axis"><g transform="translate(0.5,0.5)"><path class="background" d="M0,0h0v0h0Z" style="pointer-events: none; fill: none;"></path><g><g class="mark-rule role-axis-tick" style="pointer-events: none;"><line transform="translate(0,369)" x2="-5" y2="0" style="fill: none; stroke: #888; stroke-width: 1; opacity: 1;"></line><line transform="translate(0,338)" x2="-5" y2="0" style="fill: none; stroke: #888; stroke-width: 1; opacity: 1;"></line><line transform="translate(0,308)" x2="-5" y2="0" style="fill: none; stroke: #888; stroke-width: 1; opacity: 1;"></line><line transform="translate(0,277)" x2="-5" y2="0" style="fill: none; stroke: #888; stroke-width: 1; opacity: 1;"></line><line transform="translate(0,246)" x2="-5" y2="0" style="fill: none; stroke: #888; stroke-width: 1; opacity: 1;"></line><line transform="translate(0,215)" x2="-5" y2="0" style="fill: none; stroke: #888; stroke-width: 1; opacity: 1;"></line><line transform="translate(0,185)" x2="-5" y2="0" style="fill: none; stroke: #888; stroke-width: 1; opacity: 1;"></line><line transform="translate(0,154)" x2="-5" y2="0" style="fill: none; stroke: #888; stroke-width: 1; opacity: 1;"></line><line transform="translate(0,123)" x2="-5" y2="0" style="fill: none; stroke: #888; stroke-width: 1; opacity: 1;"></line><line transform="translate(0,92)" x2="-5" y2="0" style="fill: none; stroke: #888; stroke-width: 1; opacity: 1;"></line><line transform="translate(0,62)" x2="-5" y2="0" style="fill: none; stroke: #888; stroke-width: 1; opacity: 1;"></line><line transform="translate(0,31)" x2="-5" y2="0" style="fill: none; stroke: #888; stroke-width: 1; opacity: 1;"></line><line transform="translate(0,0)" x2="-5" y2="0" style="fill: none; stroke: #888; stroke-width: 1; opacity: 1;"></line></g><g class="mark-text role-axis-label" style="pointer-events: none;"><text text-anchor="end" transform="translate(-7,374.2307692307693)" style="font-family: sans-serif; font-size: 16px; fill: #000; opacity: 1;">-1.1e-3</text><text text-anchor="end" transform="translate(-7,343.4615384615385)" style="font-family: sans-serif; font-size: 16px; fill: #000; opacity: 1;">-1.0e-3</text><text text-anchor="end" transform="translate(-7,312.69230769230774)" style="font-family: sans-serif; font-size: 16px; fill: #000; opacity: 1;">-9.0e-4</text><text text-anchor="end" transform="translate(-7,281.92307692307696)" style="font-family: sans-serif; font-size: 16px; fill: #000; opacity: 1;">-8.0e-4</text><text text-anchor="end" transform="translate(-7,251.15384615384616)" style="font-family: sans-serif; font-size: 16px; fill: #000; opacity: 1;">-7.0e-4</text><text text-anchor="end" transform="translate(-7,220.3846153846154)" style="font-family: sans-serif; font-size: 16px; fill: #000; opacity: 1;">-6.0e-4</text><text text-anchor="end" transform="translate(-7,189.6153846153846)" style="font-family: sans-serif; font-size: 16px; fill: #000; opacity: 1;">-5.0e-4</text><text text-anchor="end" transform="translate(-7,158.84615384615387)" style="font-family: sans-serif; font-size: 16px; fill: #000; opacity: 1;">-4.0e-4</text><text text-anchor="end" transform="translate(-7,128.0769230769231)" style="font-family: sans-serif; font-size: 16px; fill: #000; opacity: 1;">-3.0e-4</text><text text-anchor="end" transform="translate(-7,97.30769230769232)" style="font-family: sans-serif; font-size: 16px; fill: #000; opacity: 1;">-2.0e-4</text><text text-anchor="end" transform="translate(-7,66.5384615384616)" style="font-family: sans-serif; font-size: 16px; fill: #000; opacity: 1;">-1.0e-4</text><text text-anchor="end" transform="translate(-7,35.769230769230774)" style="font-family: sans-serif; font-size: 16px; fill: #000; opacity: 1;">0.0e+0</text><text text-anchor="end" transform="translate(-7,5)" style="font-family: sans-serif; font-size: 16px; fill: #000; opacity: 1;">1.0e-4</text></g><g class="mark-rule role-axis-domain" style="pointer-events: none;"><line transform="translate(0,400)" x2="0" y2="-400" style="fill: none; stroke: #888; stroke-width: 1; opacity: 1;"></line></g><g class="mark-text role-axis-title" style="pointer-events: none;"><text text-anchor="middle" transform="translate(-69,200) rotate(-90) translate(0,-4)" style="font-family: sans-serif; font-size: 20px; font-weight: bold; fill: #000; opacity: 1;">mean</text></g></g></g></g></g></g></g></g></svg>