<svg class="marks" width="791" height="470" viewBox="0 0 791 470" version="1.1" xmlns="http://www.w3.org/2000/svg" xmlns:xlink="http://www.w3.org/1999/xlink"><rect width="791" height="470" style="fill: white;"></rect><g transform="translate(67,18)"><g class="mark-group role-frame root"><g transform="translate(0,0)"><path class="background" d="M0.5,0.5h600v400h-600Z" style="fill: none; stroke: #ddd;"></path><g><g class="mark-symbol role-mark layer_0_layer_0_marks"><path transform="translate(47.61904761904764,2.8424035265015846)" d="M2.7386127875258306,0A2.7386127875258306,2.7386127875258306,0,1,1,-2.7386127875258306,0A2.7386127875258306,2.7386127875258306,0,1,1,2.7386127875258306,0" style="fill: none; stroke: #4c78a8; stroke-width: 2; opacity: 0.7;"></path><path transform="translate(71.42857142857174,4.203295200886828)" d="M2.7386127875258306,0A2.7386127875258306,2.7386127875258306,0,1,1,-2.7386127875258306,0A2.7386127875258306,2.7386127875258306,0,1,1,2.7386127875258306,0" style="fill: none; stroke: #4c78a8; stroke-width: 2; opacity: 0.7;"></path><path transform="translate(95.23809523809528,3.6671110372826092)" d="M2.7386127875258306,0A2.7386127875258306,2.7386127875258306,0,1,1,-2.7386127875258306,0A2.7386127875258306,2.7386127875258306,0,1,1,2.7386127875258306,0" style="fill: none; stroke: #4c78a8; stroke-width: 2; opacity: 0.7;"></path><path transform="translate(214.28571428571428,27.091968190914827)" d="M2.7386127875258306,0A2.7386127875258306,2.7386127875258306,0,1,1,-2.7386127875258306,0A2.7386127875258306,2.7386127875258306,0,1,1,2.7386127875258306,0" style="fill: none; stroke: #4c78a8; stroke-width: 2; opacity: 0.7;"></path><path transform="translate(333.33333333333326,67.10749968796995)" d="M2.7386127875258306,0A2.7386127875258306,2.7386127875258306,0,1,1,-2.7386127875258306,0A2.7386127875258306,2.7386127875258306,0,1,1,2.7386127875258306,0" style="fill: none; stroke: #4c78a8; stroke-width: 2; opacity: 0.7;"></path><path transform="translate(452.3809523809525,171.7582932023428)" d="M2.7386127875258306,0A2.7386127875258306,2.7386127875258306,0,1,1,-2.7386127875258306,0A2.7386127875258306,2.7386127875258306,0,1,1,2.7386127875258306,0" style="fill: none; stroke: #4c78a8; stroke-width: 2; opacity: 0.7;"></path><path transform="translate(571.4285714285716,374.00648252110904)" d="M2.7386127875258306,0A2.7386127875258306,2.7386127875258306,0,1,1,-2.7386127875258306,0A2.7386127875258306,2.7386127875258306,0,1,1,2.7386127875258306,0" style="fill: none; stroke: #4c78a8; stroke-width: 2; opacity: 0.7;"></path><path transform="translate(31.746031746031697,3.9020373660116547)" d="M2.7386127875258306,0A2.7386127875258306,2.7386127875258306,0,1,1,-2.7386127875258306,0A2.7386127875258306,2.7386127875258306,0,1,1,2.7386127875258306,0" style="fill: none; stroke: #f58518; stroke-width: 2; opacity: 0.7;"></path><path transform="translate(63.492063492063394,7.243087914886132)" d="M2.7386127875258306,0A2.7386127875258306,2.7386127875258306,0,1,1,-2.7386127875258306,0A2.7386127875258306,2.7386127875258306,0,1,1,2.7386127875258306,0" style="fill: none; stroke: #f58518; stroke-width: 2; opacity: 0.7;"></path><path transform="translate(95.2380952380951,9.454366108286479)" d="M2.7386127875258306,0A2.7386127875258306,2.7386127875258306,0,1,1,-2.7386127875258306,0A2.7386127875258306,2.7386127875258306,0,1,1,2.7386127875258306,0" style="fill: none; stroke: #f58518; stroke-width: 2; opacity: 0.7;"></path><path transform="translate(158.73015873015868,14.654892021735805)" d="M2.7386127875258306,0A2.7386127875258306,2.7386127875258306,0,1,1,-2.7386127875258306,0A2.7386127875258306,2.7386127875258306,0,1,1,2.7386127875258306,0" style="fill: none; stroke: #f58518; stroke-width: 2; opacity: 0.7;"></path><path transform="translate(285.71428571428567,45.09492341590192)" d="M2.7386127875258306,0A2.7386127875258306,2.7386127875258306,0,1,1,-2.7386127875258306,0A2.7386127875258306,2.7386127875258306,0,1,1,2.7386127875258306,0" style="fill: none; stroke: #f58518; stroke-width: 2; opacity: 0.7;"></path><path transform="translate(412.69841269841265,111.32248757644135)" d="M2.7386127875258306,0A2.7386127875258306,2.7386127875258306,0,1,1,-2.7386127875258306,0A2.7386127875258306,2.7386127875258306,0,1,1,2.7386127875258306,0" style="fill: none; stroke: #f58518; stroke-width: 2; opacity: 0.7;"></path><path transform="translate(539.6825396825399,225.60835185273658)" d="M2.7386127875258306,0A2.7386127875258306,2.7386127875258306,0,1,1,-2.7386127875258306,0A2.7386127875258306,2.7386127875258306,0,1,1,2.7386127875258306,0" style="fill: none; stroke: #f58518; stroke-width: 2; opacity: 0.7;"></path></g><g class="mark-rule role-mark layer_0_layer_1_marks"><line transform="translate(47.61904761904764,1.6139650951415092)" x2="0" y2="2.456876862720037" style="fill: none; stroke: #4c78a8;"></line><line transform="translate(71.42857142857174,3.792038595768588)" x2="0" y2="0.8225132102363659" style="fill: none; stroke: #4c78a8;"></line><line transform="translate(95.23809523809528,3.1491623572524077)" x2="0" y2="1.03589736006046" style="fill: none; stroke: #4c78a8;"></line><line transform="translate(214.28571428571428,23.107626392482302)" x2="0" y2="7.968683596865162" style="fill: none; stroke: #4c78a8;"></line><line transform="translate(333.33333333333326,62.46332149950712)" x2="0" y2="9.28835637692572" style="fill: none; stroke: #4c78a8;"></line><line transform="translate(452.3809523809525,159.37892472384888)" x2="0" y2="24.75873695698786" style="fill: none; stroke: #4c78a8;"></line><line transform="translate(571.4285714285716,350.6442183562798)" x2="0" y2="46.72452832965854" style="fill: none; stroke: #4c78a8;"></line><line transform="translate(31.746031746031697,2.813704998896924)" x2="0" y2="2.176664734229348" style="fill: none; stroke: #f58518;"></line><line transform="translate(63.492063492063394,6.595153638657109)" x2="0" y2="1.2958685524579892" style="fill: none; stroke: #f58518;"></line><line transform="translate(95.2380952380951,8.480787788825296)" x2="0" y2="1.9471566389223085" style="fill: none; stroke: #f58518;"></line><line transform="translate(158.73015873015868,13.126651604483413)" x2="0" y2="3.056480834504839" style="fill: none; stroke: #f58518;"></line><line transform="translate(285.71428571428567,39.54457990026407)" x2="0" y2="11.100687031275697" style="fill: none; stroke: #f58518;"></line><line transform="translate(412.69841269841265,96.44049813562327)" x2="0" y2="29.763978881636035" style="fill: none; stroke: #f58518;"></line><line transform="translate(539.6825396825399,191.13186746789933)" x2="0" y2="68.95296876967444" style="fill: none; stroke: #f58518;"></line></g><g class="mark-group role-scope layer_0_layer_2_pathgroup"><g transform="translate(0,0)"><path class="background" d="M0,0h600v400h-600Z" style="fill: none;"></path><g><g class="mark-line role-mark layer_0_layer_2_marks"><path d="M571.4285714285716,26.67371342316926L452.3809523809525,22.922098837852673L333.33333333333326,18.468605237148267L214.28571428571428,13.096357746679814L95.23809523809528,6.489133540527803L71.42857142857174,4.981237233625848L47.61904761904764,3.4007431298429083" style="fill: none; stroke: #4c78a8; stroke-width: 2;"></path></g></g></g><g transform="translate(0,0)"><path class="background" d="M0,0h600v400h-600Z" style="fill: none;"></path><g><g class="mark-line role-mark layer_0_layer_2_marks"><path d="M539.6825396825399,42.07131905494202L412.69841269841265,35.31794997857662L285.71428571428567,27.10067555090319L158.73015873015868,16.88578846492186L95.2380952380951,10.786950899114231L63.492063492063394,7.43169859517252L31.746031746031697,3.8443595437243516" style="fill: none; stroke: #f58518; stroke-width: 2;"></path></g></g></g></g><g class="mark-rule role-mark layer_1_marks"><line transform="translate(0,0)" x2="600" y2="0" style="fill: none; stroke: grey;"></line><line transform="translate(0,0)" x2="600" y2="0" style="fill: none; stroke: grey;"></line><line transform="translate(0,0)" x2="600" y2="0" style="fill: none; stroke: grey;"></line><line transform="translate(0,0)" x2="600" y2="0" style="fill: none; stroke: grey;"></line><line transform="translate(0,0)" x2="600" y2="0" style="fill: none; stroke: grey;"></line><line transform="translate(0,0)" x2="600" y2="0" style="fill: none; stroke: grey;"></line><line transform="translate(0,0)" x2="600" y2="0" style="fill: none; stroke: grey;"></line><line transform="translate(0,0)" x2="600" y2="0" style="fill: none; stroke: grey;"></line><line transform="translate(0,0)" x2="600" y2="0" style="fill: none; stroke: grey;"></line><line transform="translate(0,0)" x2="600" y2="0" style="fill: none; stroke: grey;"></line><line transform="translate(0,0)" x2="600" y2="0" style="fill: none; stroke: grey;"></line><line transform="translate(0,0)" x2="600" y2="0" style="fill: none; stroke: grey;"></line><line transform="translate(0,0)" x2="600" y2="0" style="fill: none; stroke: grey;"></line><line transform="translate(0,0)" x2="600" y2="0" style="fill: none; stroke: grey;"></line></g><g class="mark-group role-legend"><g transform="translate(618,0)"><path class="background" d="M0,0h101v59h-101Z" style="pointer-events: none; fill: none;"></path><g><g class="mark-group role-legend-entry"><g transform="translate(0,25)"><path class="background" d="M0,0h0v0h0Z" style="pointer-events: none; fill: none;"></path><g><g class="mark-group role-scope"><g transform="translate(0,0)"><path class="background" d="M0,0h55v16h-55Z" style="pointer-events: none; fill: none; opacity: 1;"></path><g><g class="mark-symbol role-legend-symbol" style="pointer-events: none;"><path transform="translate(8,8)" d="M5,0A5,5,0,1,1,-5,0A5,5,0,1,1,5,0" style="fill: none; stroke: #4c78a8; stroke-width: 1.5; opacity: 0.7;"></path></g><g class="mark-text role-legend-label" style="pointer-events: none;"><text text-anchor="start" transform="translate(20,13)" style="font-family: sans-serif; font-size: 16px; fill: #000; opacity: 1;">1</text></g></g></g><g transform="translate(0,18)"><path class="background" d="M0,0h55v16h-55Z" style="pointer-events: none; fill: none; opacity: 1;"></path><g><g class="mark-symbol role-legend-symbol" style="pointer-events: none;"><path transform="translate(8,8)" d="M5,0A5,5,0,1,1,-5,0A5,5,0,1,1,5,0" style="fill: none; stroke: #f58518; stroke-width: 1.5; opacity: 0.7;"></path></g><g class="mark-text role-legend-label" style="pointer-events: none;"><text text-anchor="start" transform="translate(20,13)" style="font-family: sans-serif; font-size: 16px; fill: #000; opacity: 1;">13.5</text></g></g></g></g></g></g></g><g class="mark-text role-legend-title" style="pointer-events: none;"><text text-anchor="start" transform="translate(0,16)" style="font-family: sans-serif; font-size: 20px; font-weight: bold; fill: #000; opacity: 1;">Pressure</text></g></g></g></g><g class="mark-group role-axis"><g transform="translate(0.5,400.5)"><path class="background" d="M0,0h0v0h0Z" style="pointer-events: none; fill: none;"></path><g><g class="mark-rule role-axis-tick" style="pointer-events: none;"><line transform="translate(0,0)" x2="0" y2="5" style="fill: none; stroke: #888; stroke-width: 1; opacity: 1;"></line><line transform="translate(43,0)" x2="0" y2="5" style="fill: none; stroke: #888; stroke-width: 1; opacity: 1;"></line><line transform="translate(86,0)" x2="0" y2="5" style="fill: none; stroke: #888; stroke-width: 1; opacity: 1;"></line><line transform="translate(129,0)" x2="0" y2="5" style="fill: none; stroke: #888; stroke-width: 1; opacity: 1;"></line><line transform="translate(171,0)" x2="0" y2="5" style="fill: none; stroke: #888; stroke-width: 1; opacity: 1;"></line><line transform="translate(214,0)" x2="0" y2="5" style="fill: none; stroke: #888; stroke-width: 1; opacity: 1;"></line><line transform="translate(257,0)" x2="0" y2="5" style="fill: none; stroke: #888; stroke-width: 1; opacity: 1;"></line><line transform="translate(300,0)" x2="0" y2="5" style="fill: none; stroke: #888; stroke-width: 1; opacity: 1;"></line><line transform="translate(343,0)" x2="0" y2="5" style="fill: none; stroke: #888; stroke-width: 1; opacity: 1;"></line><line transform="translate(386,0)" x2="0" y2="5" style="fill: none; stroke: #888; stroke-width: 1; opacity: 1;"></line><line transform="translate(429,0)" x2="0" y2="5" style="fill: none; stroke: #888; stroke-width: 1; opacity: 1;"></line><line transform="translate(471,0)" x2="0" y2="5" style="fill: none; stroke: #888; stroke-width: 1; opacity: 1;"></line><line transform="translate(514,0)" x2="0" y2="5" style="fill: none; stroke: #888; stroke-width: 1; opacity: 1;"></line><line transform="translate(557,0)" x2="0" y2="5" style="fill: none; stroke: #888; stroke-width: 1; opacity: 1;"></line><line transform="translate(600,0)" x2="0" y2="5" style="fill: none; stroke: #888; stroke-width: 1; opacity: 1;"></line></g><g class="mark-text role-axis-label" style="pointer-events: none;"><text text-anchor="start" transform="translate(0,20)" style="font-family: sans-serif; font-size: 16px; fill: #000; opacity: 1;">1.00</text><text text-anchor="middle" transform="translate(42.8571428571429,20)" style="font-family: sans-serif; font-size: 16px; fill: #000; opacity: 0;">1.05</text><text text-anchor="middle" transform="translate(85.7142857142858,20)" style="font-family: sans-serif; font-size: 16px; fill: #000; opacity: 1;">1.10</text><text text-anchor="middle" transform="translate(128.5714285714285,20)" style="font-family: sans-serif; font-size: 16px; fill: #000; opacity: 0;">1.15</text><text text-anchor="middle" transform="translate(171.4285714285714,20)" style="font-family: sans-serif; font-size: 16px; fill: #000; opacity: 1;">1.20</text><text text-anchor="middle" transform="translate(214.28571428571428,20)" style="font-family: sans-serif; font-size: 16px; fill: #000; opacity: 0;">1.25</text><text text-anchor="middle" transform="translate(257.14285714285717,20)" style="font-family: sans-serif; font-size: 16px; fill: #000; opacity: 1;">1.30</text><text text-anchor="middle" transform="translate(300.00000000000006,20)" style="font-family: sans-serif; font-size: 16px; fill: #000; opacity: 0;">1.35</text><text text-anchor="middle" transform="translate(342.8571428571428,20)" style="font-family: sans-serif; font-size: 16px; fill: #000; opacity: 1;">1.40</text><text text-anchor="middle" transform="translate(385.71428571428567,20)" style="font-family: sans-serif; font-size: 16px; fill: #000; opacity: 0;">1.45</text><text text-anchor="middle" transform="translate(428.57142857142856,20)" style="font-family: sans-serif; font-size: 16px; fill: #000; opacity: 1;">1.50</text><text text-anchor="middle" transform="translate(471.4285714285715,20)" style="font-family: sans-serif; font-size: 16px; fill: #000; opacity: 0;">1.55</text><text text-anchor="middle" transform="translate(514.2857142857143,20)" style="font-family: sans-serif; font-size: 16px; fill: #000; opacity: 1;">1.60</text><text text-anchor="middle" transform="translate(557.1428571428571,20)" style="font-family: sans-serif; font-size: 16px; fill: #000; opacity: 0;">1.65</text><text text-anchor="end" transform="translate(600,20)" style="font-family: sans-serif; font-size: 16px; fill: #000; opacity: 1;">1.70</text></g><g class="mark-rule role-axis-domain" style="pointer-events: none;"><line transform="translate(0,0)" x2="600" y2="0" style="fill: none; stroke: #888; stroke-width: 1; opacity: 1;"></line></g><g class="mark-text role-axis-title" style="pointer-events: none;"><text text-anchor="middle" transform="translate(300,43)" style="font-family: sans-serif; font-size: 20px; font-weight: bold; fill: #000; opacity: 1;">T/Tₘ</text></g></g></g></g><g class="mark-group role-axis"><g transform="translate(0.5,0.5)"><path class="background" d="M0,0h0v0h0Z" style="pointer-events: none; fill: none;"></path><g><g class="mark-rule role-axis-tick" style="pointer-events: none;"><line transform="translate(0,400)" x2="-5" y2="0" style="fill: none; stroke: #888; stroke-width: 1; opacity: 1;"></line><line transform="translate(0,350)" x2="-5" y2="0" style="fill: none; stroke: #888; stroke-width: 1; opacity: 1;"></line><line transform="translate(0,300)" x2="-5" y2="0" style="fill: none; stroke: #888; stroke-width: 1; opacity: 1;"></line><line transform="translate(0,250)" x2="-5" y2="0" style="fill: none; stroke: #888; stroke-width: 1; opacity: 1;"></line><line transform="translate(0,200)" x2="-5" y2="0" style="fill: none; stroke: #888; stroke-width: 1; opacity: 1;"></line><line transform="translate(0,150)" x2="-5" y2="0" style="fill: none; stroke: #888; stroke-width: 1; opacity: 1;"></line><line transform="translate(0,100)" x2="-5" y2="0" style="fill: none; stroke: #888; stroke-width: 1; opacity: 1;"></line><line transform="translate(0,50)" x2="-5" y2="0" style="fill: none; stroke: #888; stroke-width: 1; opacity: 1;"></line><line transform="translate(0,0)" x2="-5" y2="0" style="fill: none; stroke: #888; stroke-width: 1; opacity: 1;"></line></g><g class="mark-text role-axis-label" style="pointer-events: none;"><text text-anchor="end" transform="translate(-7,405)" style="font-family: sans-serif; font-size: 16px; fill: #000; opacity: 1;">-1.6</text><text text-anchor="end" transform="translate(-7,354.99999999999994)" style="font-family: sans-serif; font-size: 16px; fill: #000; opacity: 1;">-1.4</text><text text-anchor="end" transform="translate(-7,305)" style="font-family: sans-serif; font-size: 16px; fill: #000; opacity: 1;">-1.2</text><text text-anchor="end" transform="translate(-7,254.99999999999997)" style="font-family: sans-serif; font-size: 16px; fill: #000; opacity: 1;">-1.0</text><text text-anchor="end" transform="translate(-7,205)" style="font-family: sans-serif; font-size: 16px; fill: #000; opacity: 1;">-0.8</text><text text-anchor="end" transform="translate(-7,155)" style="font-family: sans-serif; font-size: 16px; fill: #000; opacity: 1;">-0.6</text><text text-anchor="end" transform="translate(-7,104.99999999999994)" style="font-family: sans-serif; font-size: 16px; fill: #000; opacity: 1;">-0.4</text><text text-anchor="end" transform="translate(-7,55)" style="font-family: sans-serif; font-size: 16px; fill: #000; opacity: 1;">-0.2</text><text text-anchor="end" transform="translate(-7,5)" style="font-family: sans-serif; font-size: 16px; fill: #000; opacity: 1;">0.0</text></g><g class="mark-rule role-axis-domain" style="pointer-events: none;"><line transform="translate(0,400)" x2="0" y2="-400" style="fill: none; stroke: #888; stroke-width: 1; opacity: 1;"></line></g><g class="mark-text role-axis-title" style="pointer-events: none;"><text text-anchor="middle" transform="translate(-42,200) rotate(-90) translate(0,-4)" style="font-family: sans-serif; font-size: 20px; font-weight: bold; fill: #000; opacity: 1;">Rotational Relaxation × Melting Rate</text></g></g></g></g></g></g></g></g></svg>