<svg class="marks" width="776" height="465" viewBox="0 0 776 465" version="1.1" xmlns="http://www.w3.org/2000/svg" xmlns:xlink="http://www.w3.org/1999/xlink"><rect width="776" height="465" style="fill: white;"></rect><g transform="translate(72,13)"><g class="mark-group role-frame root"><g transform="translate(0,0)"><path class="background" d="M0.5,0.5h600v400h-600Z" style="fill: none; stroke: #ddd;"></path><g><g class="mark-symbol role-mark layer_0_layer_0_marks"><path transform="translate(54.16666666666665,36.76862933219378)" d="M2.7386127875258306,0A2.7386127875258306,2.7386127875258306,0,1,1,-2.7386127875258306,0A2.7386127875258306,2.7386127875258306,0,1,1,2.7386127875258306,0" style="fill: none; stroke: #4c78a8; stroke-width: 2; opacity: 0.7;"></path><path transform="translate(74.99999999999999,37.917034437725896)" d="M2.7386127875258306,0A2.7386127875258306,2.7386127875258306,0,1,1,-2.7386127875258306,0A2.7386127875258306,2.7386127875258306,0,1,1,2.7386127875258306,0" style="fill: none; stroke: #4c78a8; stroke-width: 2; opacity: 0.7;"></path><path transform="translate(95.83333333333341,39.003743194097225)" d="M2.7386127875258306,0A2.7386127875258306,2.7386127875258306,0,1,1,-2.7386127875258306,0A2.7386127875258306,2.7386127875258306,0,1,1,2.7386127875258306,0" style="fill: none; stroke: #4c78a8; stroke-width: 2; opacity: 0.7;"></path><path transform="translate(116.66666666666669,40.65009994520166)" d="M2.7386127875258306,0A2.7386127875258306,2.7386127875258306,0,1,1,-2.7386127875258306,0A2.7386127875258306,2.7386127875258306,0,1,1,2.7386127875258306,0" style="fill: none; stroke: #4c78a8; stroke-width: 2; opacity: 0.7;"></path><path transform="translate(137.50000000000028,41.75639031237735)" d="M2.7386127875258306,0A2.7386127875258306,2.7386127875258306,0,1,1,-2.7386127875258306,0A2.7386127875258306,2.7386127875258306,0,1,1,2.7386127875258306,0" style="fill: none; stroke: #4c78a8; stroke-width: 2; opacity: 0.7;"></path><path transform="translate(158.33333333333337,44.0172498201759)" d="M2.7386127875258306,0A2.7386127875258306,2.7386127875258306,0,1,1,-2.7386127875258306,0A2.7386127875258306,2.7386127875258306,0,1,1,2.7386127875258306,0" style="fill: none; stroke: #4c78a8; stroke-width: 2; opacity: 0.7;"></path><path transform="translate(200.00000000000006,48.26628959024512)" d="M2.7386127875258306,0A2.7386127875258306,2.7386127875258306,0,1,1,-2.7386127875258306,0A2.7386127875258306,2.7386127875258306,0,1,1,2.7386127875258306,0" style="fill: none; stroke: #4c78a8; stroke-width: 2; opacity: 0.7;"></path><path transform="translate(262.5,59.54984114324486)" d="M2.7386127875258306,0A2.7386127875258306,2.7386127875258306,0,1,1,-2.7386127875258306,0A2.7386127875258306,2.7386127875258306,0,1,1,2.7386127875258306,0" style="fill: none; stroke: #4c78a8; stroke-width: 2; opacity: 0.7;"></path><path transform="translate(366.66666666666663,99.70187748491641)" d="M2.7386127875258306,0A2.7386127875258306,2.7386127875258306,0,1,1,-2.7386127875258306,0A2.7386127875258306,2.7386127875258306,0,1,1,2.7386127875258306,0" style="fill: none; stroke: #4c78a8; stroke-width: 2; opacity: 0.7;"></path><path transform="translate(470.8333333333335,148.74888232736075)" d="M2.7386127875258306,0A2.7386127875258306,2.7386127875258306,0,1,1,-2.7386127875258306,0A2.7386127875258306,2.7386127875258306,0,1,1,2.7386127875258306,0" style="fill: none; stroke: #4c78a8; stroke-width: 2; opacity: 0.7;"></path><path transform="translate(575.0000000000001,286.535242647108)" d="M2.7386127875258306,0A2.7386127875258306,2.7386127875258306,0,1,1,-2.7386127875258306,0A2.7386127875258306,2.7386127875258306,0,1,1,2.7386127875258306,0" style="fill: none; stroke: #4c78a8; stroke-width: 2; opacity: 0.7;"></path><path transform="translate(63.888888888888864,38.94653717153113)" d="M2.7386127875258306,0A2.7386127875258306,2.7386127875258306,0,1,1,-2.7386127875258306,0A2.7386127875258306,2.7386127875258306,0,1,1,2.7386127875258306,0" style="fill: none; stroke: #f58518; stroke-width: 2; opacity: 0.7;"></path><path transform="translate(74.99999999999999,40.154537322212214)" d="M2.7386127875258306,0A2.7386127875258306,2.7386127875258306,0,1,1,-2.7386127875258306,0A2.7386127875258306,2.7386127875258306,0,1,1,2.7386127875258306,0" style="fill: none; stroke: #f58518; stroke-width: 2; opacity: 0.7;"></path><path transform="translate(91.66666666666643,42.25566780352295)" d="M2.7386127875258306,0A2.7386127875258306,2.7386127875258306,0,1,1,-2.7386127875258306,0A2.7386127875258306,2.7386127875258306,0,1,1,2.7386127875258306,0" style="fill: none; stroke: #f58518; stroke-width: 2; opacity: 0.7;"></path><path transform="translate(102.77777777777773,43.00437517679416)" d="M2.7386127875258306,0A2.7386127875258306,2.7386127875258306,0,1,1,-2.7386127875258306,0A2.7386127875258306,2.7386127875258306,0,1,1,2.7386127875258306,0" style="fill: none; stroke: #f58518; stroke-width: 2; opacity: 0.7;"></path><path transform="translate(130.55555555555546,45.78770624352067)" d="M2.7386127875258306,0A2.7386127875258306,2.7386127875258306,0,1,1,-2.7386127875258306,0A2.7386127875258306,2.7386127875258306,0,1,1,2.7386127875258306,0" style="fill: none; stroke: #f58518; stroke-width: 2; opacity: 0.7;"></path><path transform="translate(158.3333333333332,48.10820957010273)" d="M2.7386127875258306,0A2.7386127875258306,2.7386127875258306,0,1,1,-2.7386127875258306,0A2.7386127875258306,2.7386127875258306,0,1,1,2.7386127875258306,0" style="fill: none; stroke: #f58518; stroke-width: 2; opacity: 0.7;"></path><path transform="translate(213.88888888888883,54.48622578535205)" d="M2.7386127875258306,0A2.7386127875258306,2.7386127875258306,0,1,1,-2.7386127875258306,0A2.7386127875258306,2.7386127875258306,0,1,1,2.7386127875258306,0" style="fill: none; stroke: #f58518; stroke-width: 2; opacity: 0.7;"></path><path transform="translate(325,78.64933605062143)" d="M2.7386127875258306,0A2.7386127875258306,2.7386127875258306,0,1,1,-2.7386127875258306,0A2.7386127875258306,2.7386127875258306,0,1,1,2.7386127875258306,0" style="fill: none; stroke: #f58518; stroke-width: 2; opacity: 0.7;"></path><path transform="translate(436.11111111111103,123.4663157669694)" d="M2.7386127875258306,0A2.7386127875258306,2.7386127875258306,0,1,1,-2.7386127875258306,0A2.7386127875258306,2.7386127875258306,0,1,1,2.7386127875258306,0" style="fill: none; stroke: #f58518; stroke-width: 2; opacity: 0.7;"></path><path transform="translate(547.2222222222223,205.11677569239123)" d="M2.7386127875258306,0A2.7386127875258306,2.7386127875258306,0,1,1,-2.7386127875258306,0A2.7386127875258306,2.7386127875258306,0,1,1,2.7386127875258306,0" style="fill: none; stroke: #f58518; stroke-width: 2; opacity: 0.7;"></path></g><g class="mark-rule role-mark layer_0_layer_1_layer_0_marks"><line transform="translate(54.16666666666665,38.173043280054266)" x2="0" y2="-2.8088278957209667" style="fill: none; stroke: #4c78a8;"></line><line transform="translate(74.99999999999999,39.965659328164406)" x2="0" y2="-4.097249780877064" style="fill: none; stroke: #4c78a8;"></line><line transform="translate(95.83333333333341,41.47878114732557)" x2="0" y2="-4.9500759064566395" style="fill: none; stroke: #4c78a8;"></line><line transform="translate(116.66666666666669,44.04270807489499)" x2="0" y2="-6.785216259386615" style="fill: none; stroke: #4c78a8;"></line><line transform="translate(137.50000000000028,46.28210222797673)" x2="0" y2="-9.051423831198768" style="fill: none; stroke: #4c78a8;"></line><line transform="translate(158.33333333333337,48.78574354262777)" x2="0" y2="-9.536987444903787" style="fill: none; stroke: #4c78a8;"></line><line transform="translate(200.00000000000006,55.639253771457795)" x2="0" y2="-14.745928362425381" style="fill: none; stroke: #4c78a8;"></line><line transform="translate(262.5,72.17600147291262)" x2="0" y2="-25.252320659335496" style="fill: none; stroke: #4c78a8;"></line><line transform="translate(366.66666666666663,121.85589111124271)" x2="0" y2="-44.30802725265255" style="fill: none; stroke: #4c78a8;"></line><line transform="translate(470.8333333333335,193.13203924549032)" x2="0" y2="-88.76631383625924" style="fill: none; stroke: #4c78a8;"></line><line transform="translate(575.0000000000001,380.91735740952305)" x2="0" y2="-188.7642295248301" style="fill: none; stroke: #4c78a8;"></line><line transform="translate(63.888888888888864,41.41937998636678)" x2="0" y2="-4.9456856296712814" style="fill: none; stroke: #f58518;"></line><line transform="translate(74.99999999999999,43.55568188133696)" x2="0" y2="-6.80228911824954" style="fill: none; stroke: #f58518;"></line><line transform="translate(91.66666666666643,47.31318119559593)" x2="0" y2="-10.115026784145925" style="fill: none; stroke: #f58518;"></line><line transform="translate(102.77777777777773,49.125480798090535)" x2="0" y2="-12.242211242592703" style="fill: none; stroke: #f58518;"></line><line transform="translate(130.55555555555546,52.88912858610875)" x2="0" y2="-14.202844685176117" style="fill: none; stroke: #f58518;"></line><line transform="translate(158.3333333333332,55.91066902047657)" x2="0" y2="-15.604918900747712" style="fill: none; stroke: #f58518;"></line><line transform="translate(213.88888888888883,65.43793245696664)" x2="0" y2="-21.903413343229168" style="fill: none; stroke: #f58518;"></line><line transform="translate(325,99.2279663855153)" x2="0" y2="-41.15726066978769" style="fill: none; stroke: #f58518;"></line><line transform="translate(436.11111111111103,166.22633509339968)" x2="0" y2="-85.5200386528605" style="fill: none; stroke: #f58518;"></line><line transform="translate(547.2222222222223,265.7219341580475)" x2="0" y2="-121.21031693131249" style="fill: none; stroke: #f58518;"></line></g><g class="mark-group role-scope layer_0_layer_2_pathgroup"><g transform="translate(0,0)"><path class="background" d="M0,0h600v400h-600Z" style="fill: none;"></path><g><g class="mark-line role-mark layer_0_layer_2_marks"><path d="M575.0000000000001,197.47969014929626L470.8333333333335,147.43614333435323L366.66666666666663,103.18046965520358L262.5,67.223506195187L200.00000000000006,51.09686438032357L158.33333333333337,43.24777457768021L137.50000000000028,40.33710019493944L116.66666666666669,38.176718237707206L95.83333333333341,36.82925740598013L74.99999999999999,36.363636363636374L54.16666666666665,36.855862235134616" style="fill: none; stroke: #4c78a8; stroke-width: 2;"></path></g></g><path class="foreground" d="" style="display: none; fill: none;"></path></g><g transform="translate(0,0)"><path class="background" d="M0,0h600v400h-600Z" style="fill: none;"></path><g><g class="mark-line role-mark layer_0_layer_2_marks"><path d="M547.2222222222223,187.57723084324965L436.11111111111103,134.48287494706764L325,89.00245963596612L213.88888888888883,54.74152978781337L158.3333333333332,43.433457126216666L130.55555555555546,39.616099735092014L102.77777777777773,37.206114157330596L91.66666666666643,36.671350004534986L74.99999999999999,36.363636363636374L63.888888888888864,36.50554312759154" style="fill: none; stroke: #f58518; stroke-width: 2;"></path></g></g><path class="foreground" d="" style="display: none; fill: none;"></path></g></g><g class="mark-rule role-mark layer_1_marks"><line transform="translate(0,36.363636363636374)" x2="600" y2="0" style="fill: none; stroke: grey;"></line><line transform="translate(0,36.363636363636374)" x2="600" y2="0" style="fill: none; stroke: grey;"></line><line transform="translate(0,36.363636363636374)" x2="600" y2="0" style="fill: none; stroke: grey;"></line><line transform="translate(0,36.363636363636374)" x2="600" y2="0" style="fill: none; stroke: grey;"></line><line transform="translate(0,36.363636363636374)" x2="600" y2="0" style="fill: none; stroke: grey;"></line><line transform="translate(0,36.363636363636374)" x2="600" y2="0" style="fill: none; stroke: grey;"></line><line transform="translate(0,36.363636363636374)" x2="600" y2="0" style="fill: none; stroke: grey;"></line><line transform="translate(0,36.363636363636374)" x2="600" y2="0" style="fill: none; stroke: grey;"></line><line transform="translate(0,36.363636363636374)" x2="600" y2="0" style="fill: none; stroke: grey;"></line><line transform="translate(0,36.363636363636374)" x2="600" y2="0" style="fill: none; stroke: grey;"></line><line transform="translate(0,36.363636363636374)" x2="600" y2="0" style="fill: none; stroke: grey;"></line><line transform="translate(0,36.363636363636374)" x2="600" y2="0" style="fill: none; stroke: grey;"></line><line transform="translate(0,36.363636363636374)" x2="600" y2="0" style="fill: none; stroke: grey;"></line><line transform="translate(0,36.363636363636374)" x2="600" y2="0" style="fill: none; stroke: grey;"></line><line transform="translate(0,36.363636363636374)" x2="600" y2="0" style="fill: none; stroke: grey;"></line><line transform="translate(0,36.363636363636374)" x2="600" y2="0" style="fill: none; stroke: grey;"></line><line transform="translate(0,36.363636363636374)" x2="600" y2="0" style="fill: none; stroke: grey;"></line><line transform="translate(0,36.363636363636374)" x2="600" y2="0" style="fill: none; stroke: grey;"></line><line transform="translate(0,36.363636363636374)" x2="600" y2="0" style="fill: none; stroke: grey;"></line><line transform="translate(0,36.363636363636374)" x2="600" y2="0" style="fill: none; stroke: grey;"></line><line transform="translate(0,36.363636363636374)" x2="600" y2="0" style="fill: none; stroke: grey;"></line></g><g class="mark-group role-legend"><g transform="translate(618,0)"><path class="background" d="M0,0h81v59h-81Z" style="pointer-events: none; fill: none;"></path><g><g class="mark-group role-legend-entry"><g transform="translate(0,25)"><path class="background" d="M0,0h0v0h0Z" style="pointer-events: none; fill: none;"></path><g><g class="mark-group role-scope"><g transform="translate(0,0)"><path class="background" d="M0,0h51.21666717529297v16h-51.21666717529297Z" style="pointer-events: none; fill: none; opacity: 1;"></path><g><g class="mark-symbol role-legend-symbol" style="pointer-events: none;"><path transform="translate(8,8)" d="M5,0A5,5,0,1,1,-5,0A5,5,0,1,1,5,0" style="fill: none; stroke: #4c78a8; stroke-width: 1.5; opacity: 0.7;"></path></g><g class="mark-text role-legend-label" style="pointer-events: none;"><text text-anchor="start" transform="translate(20,13)" style="font-family: Roboto; font-size: 16px; fill: #000; opacity: 1;">1</text></g></g><path class="foreground" d="" style="pointer-events: none; display: none; fill: none;"></path></g><g transform="translate(0,18)"><path class="background" d="M0,0h51.21666717529297v16h-51.21666717529297Z" style="pointer-events: none; fill: none; opacity: 1;"></path><g><g class="mark-symbol role-legend-symbol" style="pointer-events: none;"><path transform="translate(8,8)" d="M5,0A5,5,0,1,1,-5,0A5,5,0,1,1,5,0" style="fill: none; stroke: #f58518; stroke-width: 1.5; opacity: 0.7;"></path></g><g class="mark-text role-legend-label" style="pointer-events: none;"><text text-anchor="start" transform="translate(20,13)" style="font-family: Roboto; font-size: 16px; fill: #000; opacity: 1;">13.5</text></g></g><path class="foreground" d="" style="pointer-events: none; display: none; fill: none;"></path></g></g></g><path class="foreground" d="" style="pointer-events: none; display: none; fill: none;"></path></g></g><g class="mark-text role-legend-title" style="pointer-events: none;"><text text-anchor="start" transform="translate(0,16)" style="font-family: Roboto; font-size: 20px; font-weight: bold; fill: #000; opacity: 1;">Pressure</text></g></g><path class="foreground" d="" style="pointer-events: none; display: none; fill: none;"></path></g></g><g class="mark-group role-axis"><g transform="translate(0.5,400.5)"><path class="background" d="M0,0h0v0h0Z" style="pointer-events: none; fill: none;"></path><g><g class="mark-rule role-axis-tick" style="pointer-events: none;"><line transform="translate(0,0)" x2="0" y2="5" style="fill: none; stroke: #888; stroke-width: 1; opacity: 1;"></line><line transform="translate(37,0)" x2="0" y2="5" style="fill: none; stroke: #888; stroke-width: 1; opacity: 1;"></line><line transform="translate(75,0)" x2="0" y2="5" style="fill: none; stroke: #888; stroke-width: 1; opacity: 1;"></line><line transform="translate(113,0)" x2="0" y2="5" style="fill: none; stroke: #888; stroke-width: 1; opacity: 1;"></line><line transform="translate(150,0)" x2="0" y2="5" style="fill: none; stroke: #888; stroke-width: 1; opacity: 1;"></line><line transform="translate(187,0)" x2="0" y2="5" style="fill: none; stroke: #888; stroke-width: 1; opacity: 1;"></line><line transform="translate(225,0)" x2="0" y2="5" style="fill: none; stroke: #888; stroke-width: 1; opacity: 1;"></line><line transform="translate(263,0)" x2="0" y2="5" style="fill: none; stroke: #888; stroke-width: 1; opacity: 1;"></line><line transform="translate(300,0)" x2="0" y2="5" style="fill: none; stroke: #888; stroke-width: 1; opacity: 1;"></line><line transform="translate(338,0)" x2="0" y2="5" style="fill: none; stroke: #888; stroke-width: 1; opacity: 1;"></line><line transform="translate(375,0)" x2="0" y2="5" style="fill: none; stroke: #888; stroke-width: 1; opacity: 1;"></line><line transform="translate(413,0)" x2="0" y2="5" style="fill: none; stroke: #888; stroke-width: 1; opacity: 1;"></line><line transform="translate(450,0)" x2="0" y2="5" style="fill: none; stroke: #888; stroke-width: 1; opacity: 1;"></line><line transform="translate(488,0)" x2="0" y2="5" style="fill: none; stroke: #888; stroke-width: 1; opacity: 1;"></line><line transform="translate(525,0)" x2="0" y2="5" style="fill: none; stroke: #888; stroke-width: 1; opacity: 1;"></line><line transform="translate(562,0)" x2="0" y2="5" style="fill: none; stroke: #888; stroke-width: 1; opacity: 1;"></line><line transform="translate(600,0)" x2="0" y2="5" style="fill: none; stroke: #888; stroke-width: 1; opacity: 1;"></line></g><g class="mark-text role-axis-label" style="pointer-events: none;"><text text-anchor="start" transform="translate(0,20)" style="font-family: Roboto; font-size: 16px; fill: #000; opacity: 1;">0.90</text><text text-anchor="middle" transform="translate(37.49999999999996,20)" style="font-family: Roboto; font-size: 16px; fill: #000; opacity: 0;">0.95</text><text text-anchor="middle" transform="translate(74.99999999999999,20)" style="font-family: Roboto; font-size: 16px; fill: #000; opacity: 1;">1.00</text><text text-anchor="middle" transform="translate(112.50000000000003,20)" style="font-family: Roboto; font-size: 16px; fill: #000; opacity: 0;">1.05</text><text text-anchor="middle" transform="translate(150.00000000000006,20)" style="font-family: Roboto; font-size: 16px; fill: #000; opacity: 1;">1.10</text><text text-anchor="middle" transform="translate(187.49999999999994,20)" style="font-family: Roboto; font-size: 16px; fill: #000; opacity: 0;">1.15</text><text text-anchor="middle" transform="translate(224.99999999999997,20)" style="font-family: Roboto; font-size: 16px; fill: #000; opacity: 1;">1.20</text><text text-anchor="middle" transform="translate(262.5,20)" style="font-family: Roboto; font-size: 16px; fill: #000; opacity: 0;">1.25</text><text text-anchor="middle" transform="translate(300.00000000000006,20)" style="font-family: Roboto; font-size: 16px; fill: #000; opacity: 1;">1.30</text><text text-anchor="middle" transform="translate(337.50000000000006,20)" style="font-family: Roboto; font-size: 16px; fill: #000; opacity: 0;">1.35</text><text text-anchor="middle" transform="translate(374.99999999999994,20)" style="font-family: Roboto; font-size: 16px; fill: #000; opacity: 1;">1.40</text><text text-anchor="middle" transform="translate(412.5,20)" style="font-family: Roboto; font-size: 16px; fill: #000; opacity: 0;">1.45</text><text text-anchor="middle" transform="translate(450,20)" style="font-family: Roboto; font-size: 16px; fill: #000; opacity: 1;">1.50</text><text text-anchor="middle" transform="translate(487.50000000000006,20)" style="font-family: Roboto; font-size: 16px; fill: #000; opacity: 0;">1.55</text><text text-anchor="middle" transform="translate(525.0000000000001,20)" style="font-family: Roboto; font-size: 16px; fill: #000; opacity: 1;">1.60</text><text text-anchor="middle" transform="translate(562.4999999999999,20)" style="font-family: Roboto; font-size: 16px; fill: #000; opacity: 0;">1.65</text><text text-anchor="end" transform="translate(600,20)" style="font-family: Roboto; font-size: 16px; fill: #000; opacity: 1;">1.70</text></g><g class="mark-rule role-axis-domain" style="pointer-events: none;"><line transform="translate(0,0)" x2="600" y2="0" style="fill: none; stroke: #888; stroke-width: 1; opacity: 1;"></line></g><g class="mark-text role-axis-title" style="pointer-events: none;"><text text-anchor="middle" transform="translate(300,43)" style="font-family: Roboto; font-size: 20px; font-weight: bold; fill: #000; opacity: 1;">T/Tₘ</text></g></g><path class="foreground" d="" style="pointer-events: none; display: none; fill: none;"></path></g></g><g class="mark-group role-axis"><g transform="translate(0.5,0.5)"><path class="background" d="M0,0h0v0h0Z" style="pointer-events: none; fill: none;"></path><g><g class="mark-rule role-axis-tick" style="pointer-events: none;"><line transform="translate(0,400)" x2="-5" y2="0" style="fill: none; stroke: #888; stroke-width: 1; opacity: 1;"></line><line transform="translate(0,364)" x2="-5" y2="0" style="fill: none; stroke: #888; stroke-width: 1; opacity: 1;"></line><line transform="translate(0,327)" x2="-5" y2="0" style="fill: none; stroke: #888; stroke-width: 1; opacity: 1;"></line><line transform="translate(0,291)" x2="-5" y2="0" style="fill: none; stroke: #888; stroke-width: 1; opacity: 1;"></line><line transform="translate(0,255)" x2="-5" y2="0" style="fill: none; stroke: #888; stroke-width: 1; opacity: 1;"></line><line transform="translate(0,218)" x2="-5" y2="0" style="fill: none; stroke: #888; stroke-width: 1; opacity: 1;"></line><line transform="translate(0,182)" x2="-5" y2="0" style="fill: none; stroke: #888; stroke-width: 1; opacity: 1;"></line><line transform="translate(0,145)" x2="-5" y2="0" style="fill: none; stroke: #888; stroke-width: 1; opacity: 1;"></line><line transform="translate(0,109)" x2="-5" y2="0" style="fill: none; stroke: #888; stroke-width: 1; opacity: 1;"></line><line transform="translate(0,73)" x2="-5" y2="0" style="fill: none; stroke: #888; stroke-width: 1; opacity: 1;"></line><line transform="translate(0,36)" x2="-5" y2="0" style="fill: none; stroke: #888; stroke-width: 1; opacity: 1;"></line><line transform="translate(0,0)" x2="-5" y2="0" style="fill: none; stroke: #888; stroke-width: 1; opacity: 1;"></line></g><g class="mark-text role-axis-label" style="pointer-events: none;"><text text-anchor="end" transform="translate(-7,405)" style="font-family: Roboto; font-size: 16px; fill: #000; opacity: 1;">-0.50</text><text text-anchor="end" transform="translate(-7,368.6363636363637)" style="font-family: Roboto; font-size: 16px; fill: #000; opacity: 1;">-0.45</text><text text-anchor="end" transform="translate(-7,332.2727272727273)" style="font-family: Roboto; font-size: 16px; fill: #000; opacity: 1;">-0.40</text><text text-anchor="end" transform="translate(-7,295.90909090909093)" style="font-family: Roboto; font-size: 16px; fill: #000; opacity: 1;">-0.35</text><text text-anchor="end" transform="translate(-7,259.5454545454545)" style="font-family: Roboto; font-size: 16px; fill: #000; opacity: 1;">-0.30</text><text text-anchor="end" transform="translate(-7,223.18181818181816)" style="font-family: Roboto; font-size: 16px; fill: #000; opacity: 1;">-0.25</text><text text-anchor="end" transform="translate(-7,186.81818181818184)" style="font-family: Roboto; font-size: 16px; fill: #000; opacity: 1;">-0.20</text><text text-anchor="end" transform="translate(-7,150.4545454545455)" style="font-family: Roboto; font-size: 16px; fill: #000; opacity: 1;">-0.15</text><text text-anchor="end" transform="translate(-7,114.09090909090908)" style="font-family: Roboto; font-size: 16px; fill: #000; opacity: 1;">-0.10</text><text text-anchor="end" transform="translate(-7,77.72727272727275)" style="font-family: Roboto; font-size: 16px; fill: #000; opacity: 1;">-0.05</text><text text-anchor="end" transform="translate(-7,41.363636363636374)" style="font-family: Roboto; font-size: 16px; fill: #000; opacity: 1;">0.00</text><text text-anchor="end" transform="translate(-7,5)" style="font-family: Roboto; font-size: 16px; fill: #000; opacity: 1;">0.05</text></g><g class="mark-rule role-axis-domain" style="pointer-events: none;"><line transform="translate(0,400)" x2="0" y2="-400" style="fill: none; stroke: #888; stroke-width: 1; opacity: 1;"></line></g><g class="mark-text role-axis-title" style="pointer-events: none;"><text text-anchor="middle" transform="translate(-46.63333511352539,200) rotate(-90) translate(0,-4)" style="font-family: Roboto; font-size: 20px; font-weight: bold; fill: #000; opacity: 1;">Rotational Relaxation × Melting Rate</text></g></g><path class="foreground" d="" style="pointer-events: none; display: none; fill: none;"></path></g></g></g><path class="foreground" d="" style="display: none; fill: none;"></path></g></g></g></svg>