<svg class="marks" width="811" height="467" viewBox="0 0 811 467" version="1.1" xmlns="http://www.w3.org/2000/svg" xmlns:xlink="http://www.w3.org/1999/xlink"><rect width="811" height="467" style="fill: white;"></rect><g transform="translate(88,15)"><g class="mark-group role-frame root"><g transform="translate(0,0)"><path class="background" d="M0.5,0.5h600v400h-600Z" style="fill: none; stroke: #ddd;"></path><g><g class="mark-symbol role-mark layer_0_layer_0_marks"><path transform="translate(30.555555555555618,49.39435850459035)" d="M2.7386127875258306,0A2.7386127875258306,2.7386127875258306,0,1,1,-2.7386127875258306,0A2.7386127875258306,2.7386127875258306,0,1,1,2.7386127875258306,0" style="fill: none; stroke: #4c78a8; stroke-width: 2; opacity: 0.7;"></path><path transform="translate(100.0000000000001,75.49353718445668)" d="M2.7386127875258306,0A2.7386127875258306,2.7386127875258306,0,1,1,-2.7386127875258306,0A2.7386127875258306,2.7386127875258306,0,1,1,2.7386127875258306,0" style="fill: none; stroke: #4c78a8; stroke-width: 2; opacity: 0.7;"></path><path transform="translate(169.44444444444485,61.628268996980175)" d="M2.7386127875258306,0A2.7386127875258306,2.7386127875258306,0,1,1,-2.7386127875258306,0A2.7386127875258306,2.7386127875258306,0,1,1,2.7386127875258306,0" style="fill: none; stroke: #4c78a8; stroke-width: 2; opacity: 0.7;"></path><path transform="translate(238.88888888888906,96.15019879701316)" d="M2.7386127875258306,0A2.7386127875258306,2.7386127875258306,0,1,1,-2.7386127875258306,0A2.7386127875258306,2.7386127875258306,0,1,1,2.7386127875258306,0" style="fill: none; stroke: #4c78a8; stroke-width: 2; opacity: 0.7;"></path><path transform="translate(308.3333333333344,107.91206416634616)" d="M2.7386127875258306,0A2.7386127875258306,2.7386127875258306,0,1,1,-2.7386127875258306,0A2.7386127875258306,2.7386127875258306,0,1,1,2.7386127875258306,0" style="fill: none; stroke: #4c78a8; stroke-width: 2; opacity: 0.7;"></path><path transform="translate(377.777777777778,107.67860514264002)" d="M2.7386127875258306,0A2.7386127875258306,2.7386127875258306,0,1,1,-2.7386127875258306,0A2.7386127875258306,2.7386127875258306,0,1,1,2.7386127875258306,0" style="fill: none; stroke: #4c78a8; stroke-width: 2; opacity: 0.7;"></path><path transform="translate(516.666666666667,168.55161044305302)" d="M2.7386127875258306,0A2.7386127875258306,2.7386127875258306,0,1,1,-2.7386127875258306,0A2.7386127875258306,2.7386127875258306,0,1,1,2.7386127875258306,0" style="fill: none; stroke: #4c78a8; stroke-width: 2; opacity: 0.7;"></path><path transform="translate(62.962962962963005,76.01323209649138)" d="M2.7386127875258306,0A2.7386127875258306,2.7386127875258306,0,1,1,-2.7386127875258306,0A2.7386127875258306,2.7386127875258306,0,1,1,2.7386127875258306,0" style="fill: none; stroke: #f58518; stroke-width: 2; opacity: 0.7;"></path><path transform="translate(100.0000000000001,88.55568980969828)" d="M2.7386127875258306,0A2.7386127875258306,2.7386127875258306,0,1,1,-2.7386127875258306,0A2.7386127875258306,2.7386127875258306,0,1,1,2.7386127875258306,0" style="fill: none; stroke: #f58518; stroke-width: 2; opacity: 0.7;"></path><path transform="translate(155.55555555555492,100.34918954394598)" d="M2.7386127875258306,0A2.7386127875258306,2.7386127875258306,0,1,1,-2.7386127875258306,0A2.7386127875258306,2.7386127875258306,0,1,1,2.7386127875258306,0" style="fill: none; stroke: #f58518; stroke-width: 2; opacity: 0.7;"></path><path transform="translate(192.59259259259255,128.69199861169017)" d="M2.7386127875258306,0A2.7386127875258306,2.7386127875258306,0,1,1,-2.7386127875258306,0A2.7386127875258306,2.7386127875258306,0,1,1,2.7386127875258306,0" style="fill: none; stroke: #f58518; stroke-width: 2; opacity: 0.7;"></path><path transform="translate(285.185185185185,158.88686989913765)" d="M2.7386127875258306,0A2.7386127875258306,2.7386127875258306,0,1,1,-2.7386127875258306,0A2.7386127875258306,2.7386127875258306,0,1,1,2.7386127875258306,0" style="fill: none; stroke: #f58518; stroke-width: 2; opacity: 0.7;"></path><path transform="translate(377.77777777777743,187.98922807903287)" d="M2.7386127875258306,0A2.7386127875258306,2.7386127875258306,0,1,1,-2.7386127875258306,0A2.7386127875258306,2.7386127875258306,0,1,1,2.7386127875258306,0" style="fill: none; stroke: #f58518; stroke-width: 2; opacity: 0.7;"></path><path transform="translate(562.9629629629629,265.94275959874693)" d="M2.7386127875258306,0A2.7386127875258306,2.7386127875258306,0,1,1,-2.7386127875258306,0A2.7386127875258306,2.7386127875258306,0,1,1,2.7386127875258306,0" style="fill: none; stroke: #f58518; stroke-width: 2; opacity: 0.7;"></path></g><g class="mark-rule role-mark layer_0_layer_1_layer_0_marks"><line transform="translate(30.555555555555618,66.5594178673293)" x2="0" y2="-34.33011872547786" style="fill: none; stroke: #4c78a8;"></line><line transform="translate(100.0000000000001,102.52771572599282)" x2="0" y2="-54.068357083072364" style="fill: none; stroke: #4c78a8;"></line><line transform="translate(169.44444444444485,84.70992980491067)" x2="0" y2="-46.16332161586096" style="fill: none; stroke: #4c78a8;"></line><line transform="translate(238.88888888888906,139.05523623270633)" x2="0" y2="-85.81007487138635" style="fill: none; stroke: #4c78a8;"></line><line transform="translate(308.3333333333344,154.67062422318682)" x2="0" y2="-93.51712011368141" style="fill: none; stroke: #4c78a8;"></line><line transform="translate(377.777777777778,155.3521711087726)" x2="0" y2="-95.34713193226511" style="fill: none; stroke: #4c78a8;"></line><line transform="translate(516.666666666667,251.9929154482379)" x2="0" y2="-166.88261001036972" style="fill: none; stroke: #4c78a8;"></line><line transform="translate(62.962962962963005,106.2368665000378)" x2="0" y2="-60.44726880709295" style="fill: none; stroke: #f58518;"></line><line transform="translate(100.0000000000001,132.99095578183642)" x2="0" y2="-88.87053194427624" style="fill: none; stroke: #f58518;"></line><line transform="translate(155.55555555555492,162.2615723672123)" x2="0" y2="-123.82476564653261" style="fill: none; stroke: #f58518;"></line><line transform="translate(192.59259259259255,216.50183006184247)" x2="0" y2="-175.61966290030466" style="fill: none; stroke: #f58518;"></line><line transform="translate(285.185185185185,243.8638572593713)" x2="0" y2="-169.95397472046733" style="fill: none; stroke: #f58518;"></line><line transform="translate(377.77777777777743,283.35262136138005)" x2="0" y2="-190.72678656469435" style="fill: none; stroke: #f58518;"></line><line transform="translate(562.9629629629629,399.796952251814)" x2="0" y2="-267.7083853061341" style="fill: none; stroke: #f58518;"></line></g><g class="mark-group role-scope layer_0_layer_2_pathgroup"><g transform="translate(0,0)"><path class="background" d="M0,0h600v400h-600Z" style="fill: none;"></path><g><g class="mark-line role-mark layer_0_layer_2_marks"><path d="M516.666666666667,129.50072676626516L377.777777777778,104.23562602755054L308.3333333333344,90.54240354006508L238.88888888888906,76.0608266904125L169.44444444444485,60.72097859264232L100.0000000000001,44.44444444444442L30.555555555555618,27.142983282022737" style="fill: none; stroke: #4c78a8; stroke-width: 2;"></path></g></g><path class="foreground" d="" style="display: none; fill: none;"></path></g><g transform="translate(0,0)"><path class="background" d="M0,0h600v400h-600Z" style="fill: none;"></path><g><g class="mark-line role-mark layer_0_layer_2_marks"><path d="M562.9629629629629,247.67739679055575L377.77777777777743,175.25152505960034L285.185185185185,134.93868136355997L192.59259259259255,91.46493113252436L155.55555555555492,73.1060057593096L100.0000000000001,44.44444444444442L62.962962962963005,24.544616697421873" style="fill: none; stroke: #f58518; stroke-width: 2;"></path></g></g><path class="foreground" d="" style="display: none; fill: none;"></path></g></g><g class="mark-rule role-mark layer_1_marks"><line transform="translate(0,44.44444444444442)" x2="600" y2="0" style="fill: none; stroke: grey;"></line><line transform="translate(0,44.44444444444442)" x2="600" y2="0" style="fill: none; stroke: grey;"></line><line transform="translate(0,44.44444444444442)" x2="600" y2="0" style="fill: none; stroke: grey;"></line><line transform="translate(0,44.44444444444442)" x2="600" y2="0" style="fill: none; stroke: grey;"></line><line transform="translate(0,44.44444444444442)" x2="600" y2="0" style="fill: none; stroke: grey;"></line><line transform="translate(0,44.44444444444442)" x2="600" y2="0" style="fill: none; stroke: grey;"></line><line transform="translate(0,44.44444444444442)" x2="600" y2="0" style="fill: none; stroke: grey;"></line><line transform="translate(0,44.44444444444442)" x2="600" y2="0" style="fill: none; stroke: grey;"></line><line transform="translate(0,44.44444444444442)" x2="600" y2="0" style="fill: none; stroke: grey;"></line><line transform="translate(0,44.44444444444442)" x2="600" y2="0" style="fill: none; stroke: grey;"></line><line transform="translate(0,44.44444444444442)" x2="600" y2="0" style="fill: none; stroke: grey;"></line><line transform="translate(0,44.44444444444442)" x2="600" y2="0" style="fill: none; stroke: grey;"></line><line transform="translate(0,44.44444444444442)" x2="600" y2="0" style="fill: none; stroke: grey;"></line><line transform="translate(0,44.44444444444442)" x2="600" y2="0" style="fill: none; stroke: grey;"></line></g><g class="mark-group role-legend"><g transform="translate(618,0)"><path class="background" d="M0,0h100v59h-100Z" style="pointer-events: none; fill: none;"></path><g><g class="mark-group role-legend-entry"><g transform="translate(0,25)"><path class="background" d="M0,0h0v0h0Z" style="pointer-events: none; fill: none;"></path><g><g class="mark-group role-scope"><g transform="translate(0,0)"><path class="background" d="M0,0h55.63333511352539v16h-55.63333511352539Z" style="pointer-events: none; fill: none; opacity: 1;"></path><g><g class="mark-symbol role-legend-symbol" style="pointer-events: none;"><path transform="translate(8,8)" d="M5,0A5,5,0,1,1,-5,0A5,5,0,1,1,5,0" style="fill: none; stroke: #4c78a8; stroke-width: 1.5; opacity: 0.7;"></path></g><g class="mark-text role-legend-label" style="pointer-events: none;"><text text-anchor="start" transform="translate(20,13)" style="font-family: sans-serif; font-size: 16px; fill: #000; opacity: 1;">1</text></g></g><path class="foreground" d="" style="pointer-events: none; display: none; fill: none;"></path></g><g transform="translate(0,18)"><path class="background" d="M0,0h55.63333511352539v16h-55.63333511352539Z" style="pointer-events: none; fill: none; opacity: 1;"></path><g><g class="mark-symbol role-legend-symbol" style="pointer-events: none;"><path transform="translate(8,8)" d="M5,0A5,5,0,1,1,-5,0A5,5,0,1,1,5,0" style="fill: none; stroke: #f58518; stroke-width: 1.5; opacity: 0.7;"></path></g><g class="mark-text role-legend-label" style="pointer-events: none;"><text text-anchor="start" transform="translate(20,13)" style="font-family: sans-serif; font-size: 16px; fill: #000; opacity: 1;">13.5</text></g></g><path class="foreground" d="" style="pointer-events: none; display: none; fill: none;"></path></g></g></g><path class="foreground" d="" style="pointer-events: none; display: none; fill: none;"></path></g></g><g class="mark-text role-legend-title" style="pointer-events: none;"><text text-anchor="start" transform="translate(0,16)" style="font-family: sans-serif; font-size: 20px; font-weight: bold; fill: #000; opacity: 1;">Pressure</text></g></g><path class="foreground" d="" style="pointer-events: none; display: none; fill: none;"></path></g></g><g class="mark-group role-axis"><g transform="translate(0.5,400.5)"><path class="background" d="M0,0h0v0h0Z" style="pointer-events: none; fill: none;"></path><g><g class="mark-rule role-axis-tick" style="pointer-events: none;"><line transform="translate(0,0)" x2="0" y2="5" style="fill: none; stroke: #888; stroke-width: 1; opacity: 1;"></line><line transform="translate(50,0)" x2="0" y2="5" style="fill: none; stroke: #888; stroke-width: 1; opacity: 1;"></line><line transform="translate(100,0)" x2="0" y2="5" style="fill: none; stroke: #888; stroke-width: 1; opacity: 1;"></line><line transform="translate(150,0)" x2="0" y2="5" style="fill: none; stroke: #888; stroke-width: 1; opacity: 1;"></line><line transform="translate(200,0)" x2="0" y2="5" style="fill: none; stroke: #888; stroke-width: 1; opacity: 1;"></line><line transform="translate(250,0)" x2="0" y2="5" style="fill: none; stroke: #888; stroke-width: 1; opacity: 1;"></line><line transform="translate(300,0)" x2="0" y2="5" style="fill: none; stroke: #888; stroke-width: 1; opacity: 1;"></line><line transform="translate(350,0)" x2="0" y2="5" style="fill: none; stroke: #888; stroke-width: 1; opacity: 1;"></line><line transform="translate(400,0)" x2="0" y2="5" style="fill: none; stroke: #888; stroke-width: 1; opacity: 1;"></line><line transform="translate(450,0)" x2="0" y2="5" style="fill: none; stroke: #888; stroke-width: 1; opacity: 1;"></line><line transform="translate(500,0)" x2="0" y2="5" style="fill: none; stroke: #888; stroke-width: 1; opacity: 1;"></line><line transform="translate(550,0)" x2="0" y2="5" style="fill: none; stroke: #888; stroke-width: 1; opacity: 1;"></line><line transform="translate(600,0)" x2="0" y2="5" style="fill: none; stroke: #888; stroke-width: 1; opacity: 1;"></line></g><g class="mark-text role-axis-label" style="pointer-events: none;"><text text-anchor="start" transform="translate(0,20)" style="font-family: sans-serif; font-size: 16px; fill: #000; opacity: 1;">0.96</text><text text-anchor="middle" transform="translate(50.00000000000005,20)" style="font-family: sans-serif; font-size: 16px; fill: #000; opacity: 0;">0.98</text><text text-anchor="middle" transform="translate(100.0000000000001,20)" style="font-family: sans-serif; font-size: 16px; fill: #000; opacity: 1;">1.00</text><text text-anchor="middle" transform="translate(150.00000000000014,20)" style="font-family: sans-serif; font-size: 16px; fill: #000; opacity: 0;">1.02</text><text text-anchor="middle" transform="translate(200.0000000000002,20)" style="font-family: sans-serif; font-size: 16px; fill: #000; opacity: 1;">1.04</text><text text-anchor="middle" transform="translate(250.00000000000026,20)" style="font-family: sans-serif; font-size: 16px; fill: #000; opacity: 0;">1.06</text><text text-anchor="middle" transform="translate(300.0000000000003,20)" style="font-family: sans-serif; font-size: 16px; fill: #000; opacity: 1;">1.08</text><text text-anchor="middle" transform="translate(350.00000000000034,20)" style="font-family: sans-serif; font-size: 16px; fill: #000; opacity: 0;">1.10</text><text text-anchor="middle" transform="translate(400.0000000000004,20)" style="font-family: sans-serif; font-size: 16px; fill: #000; opacity: 1;">1.12</text><text text-anchor="middle" transform="translate(449.9999999999999,20)" style="font-family: sans-serif; font-size: 16px; fill: #000; opacity: 0;">1.14</text><text text-anchor="middle" transform="translate(499.9999999999999,20)" style="font-family: sans-serif; font-size: 16px; fill: #000; opacity: 1;">1.16</text><text text-anchor="middle" transform="translate(550,20)" style="font-family: sans-serif; font-size: 16px; fill: #000; opacity: 0;">1.18</text><text text-anchor="end" transform="translate(600,20)" style="font-family: sans-serif; font-size: 16px; fill: #000; opacity: 1;">1.20</text></g><g class="mark-rule role-axis-domain" style="pointer-events: none;"><line transform="translate(0,0)" x2="600" y2="0" style="fill: none; stroke: #888; stroke-width: 1; opacity: 1;"></line></g><g class="mark-text role-axis-title" style="pointer-events: none;"><text text-anchor="middle" transform="translate(300,43)" style="font-family: sans-serif; font-size: 20px; font-weight: bold; fill: #000; opacity: 1;">T/Tₘ</text></g></g><path class="foreground" d="" style="pointer-events: none; display: none; fill: none;"></path></g></g><g class="mark-group role-axis"><g transform="translate(0.5,0.5)"><path class="background" d="M0,0h0v0h0Z" style="pointer-events: none; fill: none;"></path><g><g class="mark-rule role-axis-tick" style="pointer-events: none;"><line transform="translate(0,400)" x2="-5" y2="0" style="fill: none; stroke: #888; stroke-width: 1; opacity: 1;"></line><line transform="translate(0,356)" x2="-5" y2="0" style="fill: none; stroke: #888; stroke-width: 1; opacity: 1;"></line><line transform="translate(0,311)" x2="-5" y2="0" style="fill: none; stroke: #888; stroke-width: 1; opacity: 1;"></line><line transform="translate(0,267)" x2="-5" y2="0" style="fill: none; stroke: #888; stroke-width: 1; opacity: 1;"></line><line transform="translate(0,222)" x2="-5" y2="0" style="fill: none; stroke: #888; stroke-width: 1; opacity: 1;"></line><line transform="translate(0,178)" x2="-5" y2="0" style="fill: none; stroke: #888; stroke-width: 1; opacity: 1;"></line><line transform="translate(0,133)" x2="-5" y2="0" style="fill: none; stroke: #888; stroke-width: 1; opacity: 1;"></line><line transform="translate(0,89)" x2="-5" y2="0" style="fill: none; stroke: #888; stroke-width: 1; opacity: 1;"></line><line transform="translate(0,44)" x2="-5" y2="0" style="fill: none; stroke: #888; stroke-width: 1; opacity: 1;"></line><line transform="translate(0,0)" x2="-5" y2="0" style="fill: none; stroke: #888; stroke-width: 1; opacity: 1;"></line></g><g class="mark-text role-axis-label" style="pointer-events: none;"><text text-anchor="end" transform="translate(-7,405)" style="font-family: sans-serif; font-size: 16px; fill: #000; opacity: 1;">-0.040</text><text text-anchor="end" transform="translate(-7,360.5555555555556)" style="font-family: sans-serif; font-size: 16px; fill: #000; opacity: 1;">-0.035</text><text text-anchor="end" transform="translate(-7,316.1111111111111)" style="font-family: sans-serif; font-size: 16px; fill: #000; opacity: 1;">-0.030</text><text text-anchor="end" transform="translate(-7,271.6666666666667)" style="font-family: sans-serif; font-size: 16px; fill: #000; opacity: 1;">-0.025</text><text text-anchor="end" transform="translate(-7,227.22222222222223)" style="font-family: sans-serif; font-size: 16px; fill: #000; opacity: 1;">-0.020</text><text text-anchor="end" transform="translate(-7,182.77777777777777)" style="font-family: sans-serif; font-size: 16px; fill: #000; opacity: 1;">-0.015</text><text text-anchor="end" transform="translate(-7,138.33333333333334)" style="font-family: sans-serif; font-size: 16px; fill: #000; opacity: 1;">-0.010</text><text text-anchor="end" transform="translate(-7,93.88888888888884)" style="font-family: sans-serif; font-size: 16px; fill: #000; opacity: 1;">-0.005</text><text text-anchor="end" transform="translate(-7,49.44444444444442)" style="font-family: sans-serif; font-size: 16px; fill: #000; opacity: 1;">0.000</text><text text-anchor="end" transform="translate(-7,5)" style="font-family: sans-serif; font-size: 16px; fill: #000; opacity: 1;">0.005</text></g><g class="mark-rule role-axis-domain" style="pointer-events: none;"><line transform="translate(0,400)" x2="0" y2="-400" style="fill: none; stroke: #888; stroke-width: 1; opacity: 1;"></line></g><g class="mark-text role-axis-title" style="pointer-events: none;"><text text-anchor="middle" transform="translate(-62.58333206176758,200) rotate(-90) translate(0,-4)" style="font-family: sans-serif; font-size: 20px; font-weight: bold; fill: #000; opacity: 1;">Rotational Relaxation × Melting Rate</text></g></g><path class="foreground" d="" style="pointer-events: none; display: none; fill: none;"></path></g></g></g><path class="foreground" d="" style="display: none; fill: none;"></path></g></g></g></svg>