<svg class="marks" width="801" height="470" viewBox="0 0 801 470" version="1.1" xmlns="http://www.w3.org/2000/svg" xmlns:xlink="http://www.w3.org/1999/xlink"><rect width="801" height="470" style="fill: white;"></rect><g transform="translate(77,18)"><g class="mark-group role-frame root"><g transform="translate(0,0)"><path class="background" d="M0.5,0.5h600v400h-600Z" style="fill: none; stroke: #ddd;"></path><g><g class="mark-symbol role-mark layer_0_layer_0_marks"><path transform="translate(33.3333333333334,30.1873783065534)" d="M2.7386127875258306,0A2.7386127875258306,2.7386127875258306,0,1,1,-2.7386127875258306,0A2.7386127875258306,2.7386127875258306,0,1,1,2.7386127875258306,0" style="fill: none; stroke: #4c78a8; stroke-width: 2; opacity: 0.7;"></path><path transform="translate(109.0909090909092,41.18070817816488)" d="M2.7386127875258306,0A2.7386127875258306,2.7386127875258306,0,1,1,-2.7386127875258306,0A2.7386127875258306,2.7386127875258306,0,1,1,2.7386127875258306,0" style="fill: none; stroke: #4c78a8; stroke-width: 2; opacity: 0.7;"></path><path transform="translate(184.8484848484853,33.406721603946494)" d="M2.7386127875258306,0A2.7386127875258306,2.7386127875258306,0,1,1,-2.7386127875258306,0A2.7386127875258306,2.7386127875258306,0,1,1,2.7386127875258306,0" style="fill: none; stroke: #4c78a8; stroke-width: 2; opacity: 0.7;"></path><path transform="translate(260.6060606060608,105.64513950159682)" d="M2.7386127875258306,0A2.7386127875258306,2.7386127875258306,0,1,1,-2.7386127875258306,0A2.7386127875258306,2.7386127875258306,0,1,1,2.7386127875258306,0" style="fill: none; stroke: #4c78a8; stroke-width: 2; opacity: 0.7;"></path><path transform="translate(336.3636363636375,145.84699289420362)" d="M2.7386127875258306,0A2.7386127875258306,2.7386127875258306,0,1,1,-2.7386127875258306,0A2.7386127875258306,2.7386127875258306,0,1,1,2.7386127875258306,0" style="fill: none; stroke: #4c78a8; stroke-width: 2; opacity: 0.7;"></path><path transform="translate(412.12121212121235,78.00644503569589)" d="M2.7386127875258306,0A2.7386127875258306,2.7386127875258306,0,1,1,-2.7386127875258306,0A2.7386127875258306,2.7386127875258306,0,1,1,2.7386127875258306,0" style="fill: none; stroke: #4c78a8; stroke-width: 2; opacity: 0.7;"></path><path transform="translate(563.636363636364,78.11925883612753)" d="M2.7386127875258306,0A2.7386127875258306,2.7386127875258306,0,1,1,-2.7386127875258306,0A2.7386127875258306,2.7386127875258306,0,1,1,2.7386127875258306,0" style="fill: none; stroke: #4c78a8; stroke-width: 2; opacity: 0.7;"></path><path transform="translate(68.68686868686873,38.16024281374024)" d="M2.7386127875258306,0A2.7386127875258306,2.7386127875258306,0,1,1,-2.7386127875258306,0A2.7386127875258306,2.7386127875258306,0,1,1,2.7386127875258306,0" style="fill: none; stroke: #f58518; stroke-width: 2; opacity: 0.7;"></path><path transform="translate(109.0909090909092,40.67728072097367)" d="M2.7386127875258306,0A2.7386127875258306,2.7386127875258306,0,1,1,-2.7386127875258306,0A2.7386127875258306,2.7386127875258306,0,1,1,2.7386127875258306,0" style="fill: none; stroke: #f58518; stroke-width: 2; opacity: 0.7;"></path><path transform="translate(169.69696969696898,44.97175931388625)" d="M2.7386127875258306,0A2.7386127875258306,2.7386127875258306,0,1,1,-2.7386127875258306,0A2.7386127875258306,2.7386127875258306,0,1,1,2.7386127875258306,0" style="fill: none; stroke: #f58518; stroke-width: 2; opacity: 0.7;"></path><path transform="translate(210.10101010101008,89.08874916415755)" d="M2.7386127875258306,0A2.7386127875258306,2.7386127875258306,0,1,1,-2.7386127875258306,0A2.7386127875258306,2.7386127875258306,0,1,1,2.7386127875258306,0" style="fill: none; stroke: #f58518; stroke-width: 2; opacity: 0.7;"></path><path transform="translate(311.111111111111,203.35382330909698)" d="M2.7386127875258306,0A2.7386127875258306,2.7386127875258306,0,1,1,-2.7386127875258306,0A2.7386127875258306,2.7386127875258306,0,1,1,2.7386127875258306,0" style="fill: none; stroke: #f58518; stroke-width: 2; opacity: 0.7;"></path><path transform="translate(412.1212121212118,329.24738676115294)" d="M2.7386127875258306,0A2.7386127875258306,2.7386127875258306,0,1,1,-2.7386127875258306,0A2.7386127875258306,2.7386127875258306,0,1,1,2.7386127875258306,0" style="fill: none; stroke: #f58518; stroke-width: 2; opacity: 0.7;"></path></g><g class="mark-rule role-mark layer_0_layer_1_layer_0_marks"><line transform="translate(33.3333333333334,34.82908414439618)" x2="0" y2="-9.283411675685613" style="fill: none; stroke: #4c78a8;"></line><line transform="translate(109.0909090909092,44.4730119020021)" x2="0" y2="-6.584607447674557" style="fill: none; stroke: #4c78a8;"></line><line transform="translate(184.8484848484853,36.41430869855742)" x2="0" y2="-6.015174189221909" style="fill: none; stroke: #4c78a8;"></line><line transform="translate(260.6060606060608,125.1551898719722)" x2="0" y2="-39.02010074075065" style="fill: none; stroke: #4c78a8;"></line><line transform="translate(336.3636363636375,162.83874316160723)" x2="0" y2="-33.98350053480715" style="fill: none; stroke: #4c78a8;"></line><line transform="translate(412.12121212121235,98.92159172949357)" x2="0" y2="-41.830293387595304" style="fill: none; stroke: #4c78a8;"></line><line transform="translate(563.636363636364,88.88201289150697)" x2="0" y2="-21.525508110759006" style="fill: none; stroke: #4c78a8;"></line><line transform="translate(68.68686868686873,41.033402096957275)" x2="0" y2="-5.746318566434127" style="fill: none; stroke: #f58518;"></line><line transform="translate(109.0909090909092,46.009559411433884)" x2="0" y2="-10.664557380920485" style="fill: none; stroke: #f58518;"></line><line transform="translate(169.69696969696898,52.243020464459505)" x2="0" y2="-14.542522301146505" style="fill: none; stroke: #f58518;"></line><line transform="translate(210.10101010101008,108.12517294572046)" x2="0" y2="-38.07284756312583" style="fill: none; stroke: #f58518;"></line><line transform="translate(311.111111111111,214.91785214252107)" x2="0" y2="-23.128057666848235" style="fill: none; stroke: #f58518;"></line><line transform="translate(412.1212121212118,387.4885136654991)" x2="0" y2="-116.48225380869223" style="fill: none; stroke: #f58518;"></line></g><g class="mark-group role-scope layer_0_layer_2_pathgroup"><g transform="translate(0,0)"><path class="background" d="M0,0h600v400h-600Z" style="fill: none;"></path><g><g class="mark-line role-mark layer_0_layer_2_marks"><path d="M563.636363636364,80.56547458211122L412.12121212121235,65.11934410873158L336.3636363636375,56.74847337922046L260.6060606060608,47.896163655024L184.8484848484853,38.51976010940257L109.0909090909092,28.571428571428612L33.3333333333334,17.997346755635817" style="fill: none; stroke: #4c78a8; stroke-width: 2;"></path></g></g></g><g transform="translate(0,0)"><path class="background" d="M0,0h600v400h-600Z" style="fill: none;"></path><g><g class="mark-line role-mark layer_0_layer_2_marks"><path d="M412.1212121212118,147.47084642132603L311.111111111111,110.82386325016L210.10101010101008,71.3073234612284L169.69696969696898,54.62073711801787L109.0909090909092,28.571428571428612L68.68686868686873,10.486321448214483" style="fill: none; stroke: #f58518; stroke-width: 2;"></path></g></g></g></g><g class="mark-rule role-mark layer_1_marks"><line transform="translate(0,28.571428571428612)" x2="600" y2="0" style="fill: none; stroke: grey;"></line><line transform="translate(0,28.571428571428612)" x2="600" y2="0" style="fill: none; stroke: grey;"></line><line transform="translate(0,28.571428571428612)" x2="600" y2="0" style="fill: none; stroke: grey;"></line><line transform="translate(0,28.571428571428612)" x2="600" y2="0" style="fill: none; stroke: grey;"></line><line transform="translate(0,28.571428571428612)" x2="600" y2="0" style="fill: none; stroke: grey;"></line><line transform="translate(0,28.571428571428612)" x2="600" y2="0" style="fill: none; stroke: grey;"></line><line transform="translate(0,28.571428571428612)" x2="600" y2="0" style="fill: none; stroke: grey;"></line><line transform="translate(0,28.571428571428612)" x2="600" y2="0" style="fill: none; stroke: grey;"></line><line transform="translate(0,28.571428571428612)" x2="600" y2="0" style="fill: none; stroke: grey;"></line><line transform="translate(0,28.571428571428612)" x2="600" y2="0" style="fill: none; stroke: grey;"></line><line transform="translate(0,28.571428571428612)" x2="600" y2="0" style="fill: none; stroke: grey;"></line><line transform="translate(0,28.571428571428612)" x2="600" y2="0" style="fill: none; stroke: grey;"></line><line transform="translate(0,28.571428571428612)" x2="600" y2="0" style="fill: none; stroke: grey;"></line></g><g class="mark-group role-legend"><g transform="translate(618,0)"><path class="background" d="M0,0h101v59h-101Z" style="pointer-events: none; fill: none;"></path><g><g class="mark-group role-legend-entry"><g transform="translate(0,25)"><path class="background" d="M0,0h0v0h0Z" style="pointer-events: none; fill: none;"></path><g><g class="mark-group role-scope"><g transform="translate(0,0)"><path class="background" d="M0,0h55v16h-55Z" style="pointer-events: none; fill: none; opacity: 1;"></path><g><g class="mark-symbol role-legend-symbol" style="pointer-events: none;"><path transform="translate(8,8)" d="M5,0A5,5,0,1,1,-5,0A5,5,0,1,1,5,0" style="fill: none; stroke: #4c78a8; stroke-width: 1.5; opacity: 0.7;"></path></g><g class="mark-text role-legend-label" style="pointer-events: none;"><text text-anchor="start" transform="translate(20,13)" style="font-family: sans-serif; font-size: 16px; fill: #000; opacity: 1;">1</text></g></g></g><g transform="translate(0,18)"><path class="background" d="M0,0h55v16h-55Z" style="pointer-events: none; fill: none; opacity: 1;"></path><g><g class="mark-symbol role-legend-symbol" style="pointer-events: none;"><path transform="translate(8,8)" d="M5,0A5,5,0,1,1,-5,0A5,5,0,1,1,5,0" style="fill: none; stroke: #f58518; stroke-width: 1.5; opacity: 0.7;"></path></g><g class="mark-text role-legend-label" style="pointer-events: none;"><text text-anchor="start" transform="translate(20,13)" style="font-family: sans-serif; font-size: 16px; fill: #000; opacity: 1;">13.5</text></g></g></g></g></g></g></g><g class="mark-text role-legend-title" style="pointer-events: none;"><text text-anchor="start" transform="translate(0,16)" style="font-family: sans-serif; font-size: 20px; font-weight: bold; fill: #000; opacity: 1;">Pressure</text></g></g></g></g><g class="mark-group role-axis"><g transform="translate(0.5,400.5)"><path class="background" d="M0,0h0v0h0Z" style="pointer-events: none; fill: none;"></path><g><g class="mark-rule role-axis-tick" style="pointer-events: none;"><line transform="translate(0,0)" x2="0" y2="5" style="fill: none; stroke: #888; stroke-width: 1; opacity: 1;"></line><line transform="translate(55,0)" x2="0" y2="5" style="fill: none; stroke: #888; stroke-width: 1; opacity: 1;"></line><line transform="translate(109,0)" x2="0" y2="5" style="fill: none; stroke: #888; stroke-width: 1; opacity: 1;"></line><line transform="translate(164,0)" x2="0" y2="5" style="fill: none; stroke: #888; stroke-width: 1; opacity: 1;"></line><line transform="translate(218,0)" x2="0" y2="5" style="fill: none; stroke: #888; stroke-width: 1; opacity: 1;"></line><line transform="translate(273,0)" x2="0" y2="5" style="fill: none; stroke: #888; stroke-width: 1; opacity: 1;"></line><line transform="translate(327,0)" x2="0" y2="5" style="fill: none; stroke: #888; stroke-width: 1; opacity: 1;"></line><line transform="translate(382,0)" x2="0" y2="5" style="fill: none; stroke: #888; stroke-width: 1; opacity: 1;"></line><line transform="translate(436,0)" x2="0" y2="5" style="fill: none; stroke: #888; stroke-width: 1; opacity: 1;"></line><line transform="translate(491,0)" x2="0" y2="5" style="fill: none; stroke: #888; stroke-width: 1; opacity: 1;"></line><line transform="translate(545,0)" x2="0" y2="5" style="fill: none; stroke: #888; stroke-width: 1; opacity: 1;"></line><line transform="translate(600,0)" x2="0" y2="5" style="fill: none; stroke: #888; stroke-width: 1; opacity: 1;"></line></g><g class="mark-text role-axis-label" style="pointer-events: none;"><text text-anchor="start" transform="translate(0,20)" style="font-family: sans-serif; font-size: 16px; fill: #000; opacity: 1;">0.96</text><text text-anchor="middle" transform="translate(54.5454545454546,20)" style="font-family: sans-serif; font-size: 16px; fill: #000; opacity: 1;">0.98</text><text text-anchor="middle" transform="translate(109.0909090909092,20)" style="font-family: sans-serif; font-size: 16px; fill: #000; opacity: 1;">1.00</text><text text-anchor="middle" transform="translate(163.6363636363638,20)" style="font-family: sans-serif; font-size: 16px; fill: #000; opacity: 1;">1.02</text><text text-anchor="middle" transform="translate(218.1818181818184,20)" style="font-family: sans-serif; font-size: 16px; fill: #000; opacity: 1;">1.04</text><text text-anchor="middle" transform="translate(272.72727272727303,20)" style="font-family: sans-serif; font-size: 16px; fill: #000; opacity: 1;">1.06</text><text text-anchor="middle" transform="translate(327.2727272727276,20)" style="font-family: sans-serif; font-size: 16px; fill: #000; opacity: 1;">1.08</text><text text-anchor="middle" transform="translate(381.8181818181822,20)" style="font-family: sans-serif; font-size: 16px; fill: #000; opacity: 1;">1.10</text><text text-anchor="middle" transform="translate(436.3636363636368,20)" style="font-family: sans-serif; font-size: 16px; fill: #000; opacity: 1;">1.12</text><text text-anchor="middle" transform="translate(490.9090909090908,20)" style="font-family: sans-serif; font-size: 16px; fill: #000; opacity: 1;">1.14</text><text text-anchor="middle" transform="translate(545.4545454545454,20)" style="font-family: sans-serif; font-size: 16px; fill: #000; opacity: 1;">1.16</text><text text-anchor="end" transform="translate(600,20)" style="font-family: sans-serif; font-size: 16px; fill: #000; opacity: 1;">1.18</text></g><g class="mark-rule role-axis-domain" style="pointer-events: none;"><line transform="translate(0,0)" x2="600" y2="0" style="fill: none; stroke: #888; stroke-width: 1; opacity: 1;"></line></g><g class="mark-text role-axis-title" style="pointer-events: none;"><text text-anchor="middle" transform="translate(300,43)" style="font-family: sans-serif; font-size: 20px; font-weight: bold; fill: #000; opacity: 1;">T/Tₘ</text></g></g></g></g><g class="mark-group role-axis"><g transform="translate(0.5,0.5)"><path class="background" d="M0,0h0v0h0Z" style="pointer-events: none; fill: none;"></path><g><g class="mark-rule role-axis-tick" style="pointer-events: none;"><line transform="translate(0,400)" x2="-5" y2="0" style="fill: none; stroke: #888; stroke-width: 1; opacity: 1;"></line><line transform="translate(0,371)" x2="-5" y2="0" style="fill: none; stroke: #888; stroke-width: 1; opacity: 1;"></line><line transform="translate(0,343)" x2="-5" y2="0" style="fill: none; stroke: #888; stroke-width: 1; opacity: 1;"></line><line transform="translate(0,314)" x2="-5" y2="0" style="fill: none; stroke: #888; stroke-width: 1; opacity: 1;"></line><line transform="translate(0,286)" x2="-5" y2="0" style="fill: none; stroke: #888; stroke-width: 1; opacity: 1;"></line><line transform="translate(0,257)" x2="-5" y2="0" style="fill: none; stroke: #888; stroke-width: 1; opacity: 1;"></line><line transform="translate(0,229)" x2="-5" y2="0" style="fill: none; stroke: #888; stroke-width: 1; opacity: 1;"></line><line transform="translate(0,200)" x2="-5" y2="0" style="fill: none; stroke: #888; stroke-width: 1; opacity: 1;"></line><line transform="translate(0,171)" x2="-5" y2="0" style="fill: none; stroke: #888; stroke-width: 1; opacity: 1;"></line><line transform="translate(0,143)" x2="-5" y2="0" style="fill: none; stroke: #888; stroke-width: 1; opacity: 1;"></line><line transform="translate(0,114)" x2="-5" y2="0" style="fill: none; stroke: #888; stroke-width: 1; opacity: 1;"></line><line transform="translate(0,86)" x2="-5" y2="0" style="fill: none; stroke: #888; stroke-width: 1; opacity: 1;"></line><line transform="translate(0,57)" x2="-5" y2="0" style="fill: none; stroke: #888; stroke-width: 1; opacity: 1;"></line><line transform="translate(0,29)" x2="-5" y2="0" style="fill: none; stroke: #888; stroke-width: 1; opacity: 1;"></line><line transform="translate(0,0)" x2="-5" y2="0" style="fill: none; stroke: #888; stroke-width: 1; opacity: 1;"></line></g><g class="mark-text role-axis-label" style="pointer-events: none;"><text text-anchor="end" transform="translate(-7,405)" style="font-family: sans-serif; font-size: 16px; fill: #000; opacity: 1;">-0.26</text><text text-anchor="end" transform="translate(-7,376.4285714285714)" style="font-family: sans-serif; font-size: 16px; fill: #000; opacity: 1;">-0.24</text><text text-anchor="end" transform="translate(-7,347.85714285714283)" style="font-family: sans-serif; font-size: 16px; fill: #000; opacity: 1;">-0.22</text><text text-anchor="end" transform="translate(-7,319.28571428571433)" style="font-family: sans-serif; font-size: 16px; fill: #000; opacity: 1;">-0.20</text><text text-anchor="end" transform="translate(-7,290.71428571428567)" style="font-family: sans-serif; font-size: 16px; fill: #000; opacity: 1;">-0.18</text><text text-anchor="end" transform="translate(-7,262.1428571428571)" style="font-family: sans-serif; font-size: 16px; fill: #000; opacity: 1;">-0.16</text><text text-anchor="end" transform="translate(-7,233.5714285714286)" style="font-family: sans-serif; font-size: 16px; fill: #000; opacity: 1;">-0.14</text><text text-anchor="end" transform="translate(-7,205)" style="font-family: sans-serif; font-size: 16px; fill: #000; opacity: 1;">-0.12</text><text text-anchor="end" transform="translate(-7,176.42857142857144)" style="font-family: sans-serif; font-size: 16px; fill: #000; opacity: 1;">-0.10</text><text text-anchor="end" transform="translate(-7,147.8571428571429)" style="font-family: sans-serif; font-size: 16px; fill: #000; opacity: 1;">-0.08</text><text text-anchor="end" transform="translate(-7,119.28571428571428)" style="font-family: sans-serif; font-size: 16px; fill: #000; opacity: 1;">-0.06</text><text text-anchor="end" transform="translate(-7,90.71428571428572)" style="font-family: sans-serif; font-size: 16px; fill: #000; opacity: 1;">-0.04</text><text text-anchor="end" transform="translate(-7,62.14285714285717)" style="font-family: sans-serif; font-size: 16px; fill: #000; opacity: 1;">-0.02</text><text text-anchor="end" transform="translate(-7,33.57142857142861)" style="font-family: sans-serif; font-size: 16px; fill: #000; opacity: 1;">0.00</text><text text-anchor="end" transform="translate(-7,5)" style="font-family: sans-serif; font-size: 16px; fill: #000; opacity: 1;">0.02</text></g><g class="mark-rule role-axis-domain" style="pointer-events: none;"><line transform="translate(0,400)" x2="0" y2="-400" style="fill: none; stroke: #888; stroke-width: 1; opacity: 1;"></line></g><g class="mark-text role-axis-title" style="pointer-events: none;"><text text-anchor="middle" transform="translate(-52,200) rotate(-90) translate(0,-4)" style="font-family: sans-serif; font-size: 20px; font-weight: bold; fill: #000; opacity: 1;">Rotational Relaxation × Melting Rate</text></g></g></g></g></g></g></g></g></svg>