<svg class="marks" width="801" height="467" viewBox="0 0 801 467" version="1.1" xmlns="http://www.w3.org/2000/svg" xmlns:xlink="http://www.w3.org/1999/xlink"><rect width="801" height="467" style="fill: white;"></rect><g transform="translate(78,15)"><g class="mark-group role-frame root"><g transform="translate(0,0)"><path class="background" d="M0.5,0.5h600v400h-600Z" style="fill: none; stroke: #ddd;"></path><g><g class="mark-symbol role-mark layer_0_layer_0_marks"><path transform="translate(571.4285714285716,40.44549226541312)" d="M2.7386127875258306,0A2.7386127875258306,2.7386127875258306,0,1,1,-2.7386127875258306,0A2.7386127875258306,2.7386127875258306,0,1,1,2.7386127875258306,0" style="fill: none; stroke: #4c78a8; stroke-width: 2; opacity: 0.7;"></path><path transform="translate(533.3333333333333,42.79441834660109)" d="M2.7386127875258306,0A2.7386127875258306,2.7386127875258306,0,1,1,-2.7386127875258306,0A2.7386127875258306,2.7386127875258306,0,1,1,2.7386127875258306,0" style="fill: none; stroke: #4c78a8; stroke-width: 2; opacity: 0.7;"></path><path transform="translate(497.297297297297,41.54654420972821)" d="M2.7386127875258306,0A2.7386127875258306,2.7386127875258306,0,1,1,-2.7386127875258306,0A2.7386127875258306,2.7386127875258306,0,1,1,2.7386127875258306,0" style="fill: none; stroke: #4c78a8; stroke-width: 2; opacity: 0.7;"></path><path transform="translate(463.15789473684214,44.653517891731155)" d="M2.7386127875258306,0A2.7386127875258306,2.7386127875258306,0,1,1,-2.7386127875258306,0A2.7386127875258306,2.7386127875258306,0,1,1,2.7386127875258306,0" style="fill: none; stroke: #4c78a8; stroke-width: 2; opacity: 0.7;"></path><path transform="translate(430.7692307692304,45.71208577497114)" d="M2.7386127875258306,0A2.7386127875258306,2.7386127875258306,0,1,1,-2.7386127875258306,0A2.7386127875258306,2.7386127875258306,0,1,1,2.7386127875258306,0" style="fill: none; stroke: #4c78a8; stroke-width: 2; opacity: 0.7;"></path><path transform="translate(399.99999999999983,45.6910744628376)" d="M2.7386127875258306,0A2.7386127875258306,2.7386127875258306,0,1,1,-2.7386127875258306,0A2.7386127875258306,2.7386127875258306,0,1,1,2.7386127875258306,0" style="fill: none; stroke: #4c78a8; stroke-width: 2; opacity: 0.7;"></path><path transform="translate(342.8571428571428,51.16964493987477)" d="M2.7386127875258306,0A2.7386127875258306,2.7386127875258306,0,1,1,-2.7386127875258306,0A2.7386127875258306,2.7386127875258306,0,1,1,2.7386127875258306,0" style="fill: none; stroke: #4c78a8; stroke-width: 2; opacity: 0.7;"></path><path transform="translate(266.66666666666674,66.88091437183763)" d="M2.7386127875258306,0A2.7386127875258306,2.7386127875258306,0,1,1,-2.7386127875258306,0A2.7386127875258306,2.7386127875258306,0,1,1,2.7386127875258306,0" style="fill: none; stroke: #4c78a8; stroke-width: 2; opacity: 0.7;"></path><path transform="translate(159.99999999999997,109.8121050893269)" d="M2.7386127875258306,0A2.7386127875258306,2.7386127875258306,0,1,1,-2.7386127875258306,0A2.7386127875258306,2.7386127875258306,0,1,1,2.7386127875258306,0" style="fill: none; stroke: #4c78a8; stroke-width: 2; opacity: 0.7;"></path><path transform="translate(72.72727272727273,175.62519372860868)" d="M2.7386127875258306,0A2.7386127875258306,2.7386127875258306,0,1,1,-2.7386127875258306,0A2.7386127875258306,2.7386127875258306,0,1,1,2.7386127875258306,0" style="fill: none; stroke: #4c78a8; stroke-width: 2; opacity: 0.7;"></path><path transform="translate(0,319.4239518393603)" d="M2.7386127875258306,0A2.7386127875258306,2.7386127875258306,0,1,1,-2.7386127875258306,0A2.7386127875258306,2.7386127875258306,0,1,1,2.7386127875258306,0" style="fill: none; stroke: #4c78a8; stroke-width: 2; opacity: 0.7;"></path><path transform="translate(553.3834586466163,42.84119088868423)" d="M2.7386127875258306,0A2.7386127875258306,2.7386127875258306,0,1,1,-2.7386127875258306,0A2.7386127875258306,2.7386127875258306,0,1,1,2.7386127875258306,0" style="fill: none; stroke: #f58518; stroke-width: 2; opacity: 0.7;"></path><path transform="translate(533.3333333333333,43.970012082872856)" d="M2.7386127875258306,0A2.7386127875258306,2.7386127875258306,0,1,1,-2.7386127875258306,0A2.7386127875258306,2.7386127875258306,0,1,1,2.7386127875258306,0" style="fill: none; stroke: #f58518; stroke-width: 2; opacity: 0.7;"></path><path transform="translate(504.3478260869568,45.03142705895513)" d="M2.7386127875258306,0A2.7386127875258306,2.7386127875258306,0,1,1,-2.7386127875258306,0A2.7386127875258306,2.7386127875258306,0,1,1,2.7386127875258306,0" style="fill: none; stroke: #f58518; stroke-width: 2; opacity: 0.7;"></path><path transform="translate(485.71428571428584,47.58227987505212)" d="M2.7386127875258306,0A2.7386127875258306,2.7386127875258306,0,1,1,-2.7386127875258306,0A2.7386127875258306,2.7386127875258306,0,1,1,2.7386127875258306,0" style="fill: none; stroke: #f58518; stroke-width: 2; opacity: 0.7;"></path><path transform="translate(441.3793103448277,50.29981829092236)" d="M2.7386127875258306,0A2.7386127875258306,2.7386127875258306,0,1,1,-2.7386127875258306,0A2.7386127875258306,2.7386127875258306,0,1,1,2.7386127875258306,0" style="fill: none; stroke: #f58518; stroke-width: 2; opacity: 0.7;"></path><path transform="translate(400.00000000000017,52.91903052711295)" d="M2.7386127875258306,0A2.7386127875258306,2.7386127875258306,0,1,1,-2.7386127875258306,0A2.7386127875258306,2.7386127875258306,0,1,1,2.7386127875258306,0" style="fill: none; stroke: #f58518; stroke-width: 2; opacity: 0.7;"></path><path transform="translate(325,59.934848363887205)" d="M2.7386127875258306,0A2.7386127875258306,2.7386127875258306,0,1,1,-2.7386127875258306,0A2.7386127875258306,2.7386127875258306,0,1,1,2.7386127875258306,0" style="fill: none; stroke: #f58518; stroke-width: 2; opacity: 0.7;"></path><path transform="translate(200,86.51426965568359)" d="M2.7386127875258306,0A2.7386127875258306,2.7386127875258306,0,1,1,-2.7386127875258306,0A2.7386127875258306,2.7386127875258306,0,1,1,2.7386127875258306,0" style="fill: none; stroke: #f58518; stroke-width: 2; opacity: 0.7;"></path><path transform="translate(100.00000000000007,135.8129473436663)" d="M2.7386127875258306,0A2.7386127875258306,2.7386127875258306,0,1,1,-2.7386127875258306,0A2.7386127875258306,2.7386127875258306,0,1,1,2.7386127875258306,0" style="fill: none; stroke: #f58518; stroke-width: 2; opacity: 0.7;"></path><path transform="translate(18.181818181818073,225.6284532616303)" d="M2.7386127875258306,0A2.7386127875258306,2.7386127875258306,0,1,1,-2.7386127875258306,0A2.7386127875258306,2.7386127875258306,0,1,1,2.7386127875258306,0" style="fill: none; stroke: #f58518; stroke-width: 2; opacity: 0.7;"></path></g><g class="mark-rule role-mark layer_0_layer_1_layer_0_marks"><line transform="translate(571.4285714285716,41.99034760805964)" x2="0" y2="-3.0897106852930065" style="fill: none; stroke: #4c78a8;"></line><line transform="translate(533.3333333333333,45.22749441533933)" x2="0" y2="-4.866152137476476" style="fill: none; stroke: #4c78a8;"></line><line transform="translate(497.297297297297,43.623893682441974)" x2="0" y2="-4.154698945427484" style="fill: none; stroke: #4c78a8;"></line><line transform="translate(463.15789473684214,48.514971260943575)" x2="0" y2="-7.722906738424797" style="fill: none; stroke: #4c78a8;"></line><line transform="translate(430.7692307692304,49.92035618008681)" x2="0" y2="-8.416540810231332" style="fill: none; stroke: #4c78a8;"></line><line transform="translate(399.99999999999983,49.98169539978954)" x2="0" y2="-8.581241873903878" style="fill: none; stroke: #4c78a8;"></line><line transform="translate(342.8571428571428,58.679362390341396)" x2="0" y2="-15.019434900933248" style="fill: none; stroke: #4c78a8;"></line><line transform="translate(266.66666666666674,79.38208302726592)" x2="0" y2="-25.00233731085659" style="fill: none; stroke: #4c78a8;"></line><line transform="translate(159.99999999999997,134.26658795417092)" x2="0" y2="-48.908965729687964" style="fill: none; stroke: #4c78a8;"></line><line transform="translate(72.72727272727273,219.90516290545642)" x2="0" y2="-88.55993835369554" style="fill: none; stroke: #4c78a8;"></line><line transform="translate(0,388.09121108818647)" x2="0" y2="-137.33451849765228" style="fill: none; stroke: #4c78a8;"></line><line transform="translate(553.3834586466163,45.5613179850034)" x2="0" y2="-5.440254192638378" style="fill: none; stroke: #f58518;"></line><line transform="translate(533.3333333333333,47.969186020365264)" x2="0" y2="-7.998347874984859" style="fill: none; stroke: #f58518;"></line><line transform="translate(504.3478260869568,50.60354151304911)" x2="0" y2="-11.144228908187955" style="fill: none; stroke: #f58518;"></line><line transform="translate(485.71428571428584,55.485164705565815)" x2="0" y2="-15.805769661027426" style="fill: none; stroke: #f58518;"></line><line transform="translate(441.3793103448277,57.94774715334343)" x2="0" y2="-15.295857724842094" style="fill: none; stroke: #f58518;"></line><line transform="translate(400.00000000000017,61.50173592252419)" x2="0" y2="-17.165410790822477" style="fill: none; stroke: #f58518;"></line><line transform="translate(325,71.98172570266324)" x2="0" y2="-24.093754677552063" style="fill: none; stroke: #f58518;"></line><line transform="translate(200,109.1507630240668)" x2="0" y2="-45.27298673676649" style="fill: none; stroke: #f58518;"></line><line transform="translate(100.00000000000007,182.8489686027396)" x2="0" y2="-94.07204251814653" style="fill: none; stroke: #f58518;"></line><line transform="translate(18.181818181818073,292.2941275738522)" x2="0" y2="-133.33134862444376" style="fill: none; stroke: #f58518;"></line></g><g class="mark-group role-scope layer_0_layer_2_pathgroup"><g transform="translate(0,0)"><path class="background" d="M0,0h600v400h-600Z" style="fill: none;"></path><g><g class="mark-line role-mark layer_0_layer_2_marks"><path d="M571.4285714285716,38.44286849538206L533.3333333333333,39.99999999999999L497.297297297297,41.46488807333779L463.15789473684214,42.84547440213711L430.7692307692304,44.14881631860585L399.99999999999983,45.38120634247953L342.8571428571428,47.65506540896385L266.66666666666674,50.657059353121745L159.99999999999997,54.80327479919729L72.72727272727273,58.147189051328674L0,60.90091543303018" style="fill: none; stroke: #4c78a8; stroke-width: 2;"></path></g></g><path class="foreground" d="" style="display: none; fill: none;"></path></g><g transform="translate(0,0)"><path class="background" d="M0,0h600v400h-600Z" style="fill: none;"></path><g><g class="mark-line role-mark layer_0_layer_2_marks"><path d="M553.3834586466163,38.20901550276798L533.3333333333333,39.99999999999999L504.3478260869568,42.57954051833788L485.71428571428584,44.23184380192717L441.3793103448277,48.1444813227204L400.00000000000017,51.772637255364L325,58.29096571115002L200,68.99157102720449L100.00000000000007,77.40731658036432L18.181818181818073,84.19870394261264" style="fill: none; stroke: #f58518; stroke-width: 2;"></path></g></g><path class="foreground" d="" style="display: none; fill: none;"></path></g></g><g class="mark-rule role-mark layer_1_marks"><line transform="translate(0,39.99999999999999)" x2="600" y2="0" style="fill: none; stroke: grey;"></line><line transform="translate(0,39.99999999999999)" x2="600" y2="0" style="fill: none; stroke: grey;"></line><line transform="translate(0,39.99999999999999)" x2="600" y2="0" style="fill: none; stroke: grey;"></line><line transform="translate(0,39.99999999999999)" x2="600" y2="0" style="fill: none; stroke: grey;"></line><line transform="translate(0,39.99999999999999)" x2="600" y2="0" style="fill: none; stroke: grey;"></line><line transform="translate(0,39.99999999999999)" x2="600" y2="0" style="fill: none; stroke: grey;"></line><line transform="translate(0,39.99999999999999)" x2="600" y2="0" style="fill: none; stroke: grey;"></line><line transform="translate(0,39.99999999999999)" x2="600" y2="0" style="fill: none; stroke: grey;"></line><line transform="translate(0,39.99999999999999)" x2="600" y2="0" style="fill: none; stroke: grey;"></line><line transform="translate(0,39.99999999999999)" x2="600" y2="0" style="fill: none; stroke: grey;"></line><line transform="translate(0,39.99999999999999)" x2="600" y2="0" style="fill: none; stroke: grey;"></line><line transform="translate(0,39.99999999999999)" x2="600" y2="0" style="fill: none; stroke: grey;"></line><line transform="translate(0,39.99999999999999)" x2="600" y2="0" style="fill: none; stroke: grey;"></line><line transform="translate(0,39.99999999999999)" x2="600" y2="0" style="fill: none; stroke: grey;"></line><line transform="translate(0,39.99999999999999)" x2="600" y2="0" style="fill: none; stroke: grey;"></line><line transform="translate(0,39.99999999999999)" x2="600" y2="0" style="fill: none; stroke: grey;"></line><line transform="translate(0,39.99999999999999)" x2="600" y2="0" style="fill: none; stroke: grey;"></line><line transform="translate(0,39.99999999999999)" x2="600" y2="0" style="fill: none; stroke: grey;"></line><line transform="translate(0,39.99999999999999)" x2="600" y2="0" style="fill: none; stroke: grey;"></line><line transform="translate(0,39.99999999999999)" x2="600" y2="0" style="fill: none; stroke: grey;"></line><line transform="translate(0,39.99999999999999)" x2="600" y2="0" style="fill: none; stroke: grey;"></line></g><g class="mark-group role-legend"><g transform="translate(618,0)"><path class="background" d="M0,0h100v59h-100Z" style="pointer-events: none; fill: none;"></path><g><g class="mark-group role-legend-entry"><g transform="translate(0,25)"><path class="background" d="M0,0h0v0h0Z" style="pointer-events: none; fill: none;"></path><g><g class="mark-group role-scope"><g transform="translate(0,0)"><path class="background" d="M0,0h55.63333511352539v16h-55.63333511352539Z" style="pointer-events: none; fill: none; opacity: 1;"></path><g><g class="mark-symbol role-legend-symbol" style="pointer-events: none;"><path transform="translate(8,8)" d="M5,0A5,5,0,1,1,-5,0A5,5,0,1,1,5,0" style="fill: none; stroke: #4c78a8; stroke-width: 1.5; opacity: 0.7;"></path></g><g class="mark-text role-legend-label" style="pointer-events: none;"><text text-anchor="start" transform="translate(20,13)" style="font-family: sans-serif; font-size: 16px; fill: #000; opacity: 1;">1</text></g></g><path class="foreground" d="" style="pointer-events: none; display: none; fill: none;"></path></g><g transform="translate(0,18)"><path class="background" d="M0,0h55.63333511352539v16h-55.63333511352539Z" style="pointer-events: none; fill: none; opacity: 1;"></path><g><g class="mark-symbol role-legend-symbol" style="pointer-events: none;"><path transform="translate(8,8)" d="M5,0A5,5,0,1,1,-5,0A5,5,0,1,1,5,0" style="fill: none; stroke: #f58518; stroke-width: 1.5; opacity: 0.7;"></path></g><g class="mark-text role-legend-label" style="pointer-events: none;"><text text-anchor="start" transform="translate(20,13)" style="font-family: sans-serif; font-size: 16px; fill: #000; opacity: 1;">13.5</text></g></g><path class="foreground" d="" style="pointer-events: none; display: none; fill: none;"></path></g></g></g><path class="foreground" d="" style="pointer-events: none; display: none; fill: none;"></path></g></g><g class="mark-text role-legend-title" style="pointer-events: none;"><text text-anchor="start" transform="translate(0,16)" style="font-family: sans-serif; font-size: 20px; font-weight: bold; fill: #000; opacity: 1;">Pressure</text></g></g><path class="foreground" d="" style="pointer-events: none; display: none; fill: none;"></path></g></g><g class="mark-group role-axis"><g transform="translate(0.5,400.5)"><path class="background" d="M0,0h0v0h0Z" style="pointer-events: none; fill: none;"></path><g><g class="mark-rule role-axis-tick" style="pointer-events: none;"><line transform="translate(0,0)" x2="0" y2="5" style="fill: none; stroke: #888; stroke-width: 1; opacity: 1;"></line><line transform="translate(27,0)" x2="0" y2="5" style="fill: none; stroke: #888; stroke-width: 1; opacity: 1;"></line><line transform="translate(53,0)" x2="0" y2="5" style="fill: none; stroke: #888; stroke-width: 1; opacity: 1;"></line><line transform="translate(80,0)" x2="0" y2="5" style="fill: none; stroke: #888; stroke-width: 1; opacity: 1;"></line><line transform="translate(107,0)" x2="0" y2="5" style="fill: none; stroke: #888; stroke-width: 1; opacity: 1;"></line><line transform="translate(133,0)" x2="0" y2="5" style="fill: none; stroke: #888; stroke-width: 1; opacity: 1;"></line><line transform="translate(160,0)" x2="0" y2="5" style="fill: none; stroke: #888; stroke-width: 1; opacity: 1;"></line><line transform="translate(187,0)" x2="0" y2="5" style="fill: none; stroke: #888; stroke-width: 1; opacity: 1;"></line><line transform="translate(213,0)" x2="0" y2="5" style="fill: none; stroke: #888; stroke-width: 1; opacity: 1;"></line><line transform="translate(240,0)" x2="0" y2="5" style="fill: none; stroke: #888; stroke-width: 1; opacity: 1;"></line><line transform="translate(267,0)" x2="0" y2="5" style="fill: none; stroke: #888; stroke-width: 1; opacity: 1;"></line><line transform="translate(293,0)" x2="0" y2="5" style="fill: none; stroke: #888; stroke-width: 1; opacity: 1;"></line><line transform="translate(320,0)" x2="0" y2="5" style="fill: none; stroke: #888; stroke-width: 1; opacity: 1;"></line><line transform="translate(347,0)" x2="0" y2="5" style="fill: none; stroke: #888; stroke-width: 1; opacity: 1;"></line><line transform="translate(373,0)" x2="0" y2="5" style="fill: none; stroke: #888; stroke-width: 1; opacity: 1;"></line><line transform="translate(400,0)" x2="0" y2="5" style="fill: none; stroke: #888; stroke-width: 1; opacity: 1;"></line><line transform="translate(427,0)" x2="0" y2="5" style="fill: none; stroke: #888; stroke-width: 1; opacity: 1;"></line><line transform="translate(453,0)" x2="0" y2="5" style="fill: none; stroke: #888; stroke-width: 1; opacity: 1;"></line><line transform="translate(480,0)" x2="0" y2="5" style="fill: none; stroke: #888; stroke-width: 1; opacity: 1;"></line><line transform="translate(507,0)" x2="0" y2="5" style="fill: none; stroke: #888; stroke-width: 1; opacity: 1;"></line><line transform="translate(533,0)" x2="0" y2="5" style="fill: none; stroke: #888; stroke-width: 1; opacity: 1;"></line><line transform="translate(560,0)" x2="0" y2="5" style="fill: none; stroke: #888; stroke-width: 1; opacity: 1;"></line><line transform="translate(587,0)" x2="0" y2="5" style="fill: none; stroke: #888; stroke-width: 1; opacity: 1;"></line></g><g class="mark-text role-axis-label" style="pointer-events: none;"><text text-anchor="start" transform="translate(0,20)" style="font-family: sans-serif; font-size: 16px; fill: #000; opacity: 1;">0.60</text><text text-anchor="middle" transform="translate(26.666666666666686,20)" style="font-family: sans-serif; font-size: 16px; fill: #000; opacity: 0;">0.62</text><text text-anchor="middle" transform="translate(53.33333333333337,20)" style="font-family: sans-serif; font-size: 16px; fill: #000; opacity: 0;">0.64</text><text text-anchor="middle" transform="translate(80.00000000000007,20)" style="font-family: sans-serif; font-size: 16px; fill: #000; opacity: 0;">0.66</text><text text-anchor="middle" transform="translate(106.66666666666674,20)" style="font-family: sans-serif; font-size: 16px; fill: #000; opacity: 1;">0.68</text><text text-anchor="middle" transform="translate(133.3333333333333,20)" style="font-family: sans-serif; font-size: 16px; fill: #000; opacity: 0;">0.70</text><text text-anchor="middle" transform="translate(159.99999999999997,20)" style="font-family: sans-serif; font-size: 16px; fill: #000; opacity: 0;">0.72</text><text text-anchor="middle" transform="translate(186.66666666666666,20)" style="font-family: sans-serif; font-size: 16px; fill: #000; opacity: 0;">0.74</text><text text-anchor="middle" transform="translate(213.33333333333334,20)" style="font-family: sans-serif; font-size: 16px; fill: #000; opacity: 1;">0.76</text><text text-anchor="middle" transform="translate(240,20)" style="font-family: sans-serif; font-size: 16px; fill: #000; opacity: 0;">0.78</text><text text-anchor="middle" transform="translate(266.66666666666674,20)" style="font-family: sans-serif; font-size: 16px; fill: #000; opacity: 0;">0.80</text><text text-anchor="middle" transform="translate(293.33333333333326,20)" style="font-family: sans-serif; font-size: 16px; fill: #000; opacity: 0;">0.82</text><text text-anchor="middle" transform="translate(319.99999999999994,20)" style="font-family: sans-serif; font-size: 16px; fill: #000; opacity: 1;">0.84</text><text text-anchor="middle" transform="translate(346.66666666666663,20)" style="font-family: sans-serif; font-size: 16px; fill: #000; opacity: 0;">0.86</text><text text-anchor="middle" transform="translate(373.3333333333333,20)" style="font-family: sans-serif; font-size: 16px; fill: #000; opacity: 0;">0.88</text><text text-anchor="middle" transform="translate(400,20)" style="font-family: sans-serif; font-size: 16px; fill: #000; opacity: 0;">0.90</text><text text-anchor="middle" transform="translate(426.6666666666667,20)" style="font-family: sans-serif; font-size: 16px; fill: #000; opacity: 1;">0.92</text><text text-anchor="middle" transform="translate(453.33333333333326,20)" style="font-family: sans-serif; font-size: 16px; fill: #000; opacity: 0;">0.94</text><text text-anchor="middle" transform="translate(479.9999999999999,20)" style="font-family: sans-serif; font-size: 16px; fill: #000; opacity: 0;">0.96</text><text text-anchor="middle" transform="translate(506.6666666666666,20)" style="font-family: sans-serif; font-size: 16px; fill: #000; opacity: 0;">0.98</text><text text-anchor="middle" transform="translate(533.3333333333333,20)" style="font-family: sans-serif; font-size: 16px; fill: #000; opacity: 1;">1.00</text><text text-anchor="middle" transform="translate(559.9999999999999,20)" style="font-family: sans-serif; font-size: 16px; fill: #000; opacity: 0;">1.02</text><text text-anchor="middle" transform="translate(586.6666666666666,20)" style="font-family: sans-serif; font-size: 16px; fill: #000; opacity: 0;">1.04</text></g><g class="mark-rule role-axis-domain" style="pointer-events: none;"><line transform="translate(0,0)" x2="600" y2="0" style="fill: none; stroke: #888; stroke-width: 1; opacity: 1;"></line></g><g class="mark-text role-axis-title" style="pointer-events: none;"><text text-anchor="middle" transform="translate(300,43)" style="font-family: sans-serif; font-size: 20px; font-weight: bold; fill: #000; opacity: 1;">T/Tₘ</text></g></g><path class="foreground" d="" style="pointer-events: none; display: none; fill: none;"></path></g></g><g class="mark-group role-axis"><g transform="translate(0.5,0.5)"><path class="background" d="M0,0h0v0h0Z" style="pointer-events: none; fill: none;"></path><g><g class="mark-rule role-axis-tick" style="pointer-events: none;"><line transform="translate(0,400)" x2="-5" y2="0" style="fill: none; stroke: #888; stroke-width: 1; opacity: 1;"></line><line transform="translate(0,360)" x2="-5" y2="0" style="fill: none; stroke: #888; stroke-width: 1; opacity: 1;"></line><line transform="translate(0,320)" x2="-5" y2="0" style="fill: none; stroke: #888; stroke-width: 1; opacity: 1;"></line><line transform="translate(0,280)" x2="-5" y2="0" style="fill: none; stroke: #888; stroke-width: 1; opacity: 1;"></line><line transform="translate(0,240)" x2="-5" y2="0" style="fill: none; stroke: #888; stroke-width: 1; opacity: 1;"></line><line transform="translate(0,200)" x2="-5" y2="0" style="fill: none; stroke: #888; stroke-width: 1; opacity: 1;"></line><line transform="translate(0,160)" x2="-5" y2="0" style="fill: none; stroke: #888; stroke-width: 1; opacity: 1;"></line><line transform="translate(0,120)" x2="-5" y2="0" style="fill: none; stroke: #888; stroke-width: 1; opacity: 1;"></line><line transform="translate(0,80)" x2="-5" y2="0" style="fill: none; stroke: #888; stroke-width: 1; opacity: 1;"></line><line transform="translate(0,40)" x2="-5" y2="0" style="fill: none; stroke: #888; stroke-width: 1; opacity: 1;"></line><line transform="translate(0,0)" x2="-5" y2="0" style="fill: none; stroke: #888; stroke-width: 1; opacity: 1;"></line></g><g class="mark-text role-axis-label" style="pointer-events: none;"><text text-anchor="end" transform="translate(-7,405)" style="font-family: sans-serif; font-size: 16px; fill: #000; opacity: 1;">-0.45</text><text text-anchor="end" transform="translate(-7,365)" style="font-family: sans-serif; font-size: 16px; fill: #000; opacity: 1;">-0.40</text><text text-anchor="end" transform="translate(-7,325)" style="font-family: sans-serif; font-size: 16px; fill: #000; opacity: 1;">-0.35</text><text text-anchor="end" transform="translate(-7,285)" style="font-family: sans-serif; font-size: 16px; fill: #000; opacity: 1;">-0.30</text><text text-anchor="end" transform="translate(-7,245)" style="font-family: sans-serif; font-size: 16px; fill: #000; opacity: 1;">-0.25</text><text text-anchor="end" transform="translate(-7,205)" style="font-family: sans-serif; font-size: 16px; fill: #000; opacity: 1;">-0.20</text><text text-anchor="end" transform="translate(-7,164.99999999999997)" style="font-family: sans-serif; font-size: 16px; fill: #000; opacity: 1;">-0.15</text><text text-anchor="end" transform="translate(-7,125.00000000000001)" style="font-family: sans-serif; font-size: 16px; fill: #000; opacity: 1;">-0.10</text><text text-anchor="end" transform="translate(-7,84.99999999999999)" style="font-family: sans-serif; font-size: 16px; fill: #000; opacity: 1;">-0.05</text><text text-anchor="end" transform="translate(-7,44.99999999999999)" style="font-family: sans-serif; font-size: 16px; fill: #000; opacity: 1;">0.00</text><text text-anchor="end" transform="translate(-7,5)" style="font-family: sans-serif; font-size: 16px; fill: #000; opacity: 1;">0.05</text></g><g class="mark-rule role-axis-domain" style="pointer-events: none;"><line transform="translate(0,400)" x2="0" y2="-400" style="fill: none; stroke: #888; stroke-width: 1; opacity: 1;"></line></g><g class="mark-text role-axis-title" style="pointer-events: none;"><text text-anchor="middle" transform="translate(-52.400001525878906,200) rotate(-90) translate(0,-4)" style="font-family: sans-serif; font-size: 20px; font-weight: bold; fill: #000; opacity: 1;">Rotational Relaxation × Melting Rate</text></g></g><path class="foreground" d="" style="pointer-events: none; display: none; fill: none;"></path></g></g></g><path class="foreground" d="" style="display: none; fill: none;"></path></g></g></g></svg>