<svg class="marks" width="801" height="470" viewBox="0 0 801 470" version="1.1" xmlns="http://www.w3.org/2000/svg" xmlns:xlink="http://www.w3.org/1999/xlink"><rect width="801" height="470" style="fill: white;"></rect><g transform="translate(77,18)"><g class="mark-group role-frame root"><g transform="translate(0,0)"><path class="background" d="M0.5,0.5h600v400h-600Z" style="fill: none; stroke: #ddd;"></path><g><g class="mark-symbol role-mark layer_0_layer_0_marks"><path transform="translate(33.3333333333334,49.47184362038814)" d="M2.7386127875258306,0A2.7386127875258306,2.7386127875258306,0,1,1,-2.7386127875258306,0A2.7386127875258306,2.7386127875258306,0,1,1,2.7386127875258306,0" style="fill: none; stroke: #4c78a8; stroke-width: 2; opacity: 0.7;"></path><path transform="translate(109.0909090909092,71.27018549872855)" d="M2.7386127875258306,0A2.7386127875258306,2.7386127875258306,0,1,1,-2.7386127875258306,0A2.7386127875258306,2.7386127875258306,0,1,1,2.7386127875258306,0" style="fill: none; stroke: #4c78a8; stroke-width: 2; opacity: 0.7;"></path><path transform="translate(184.8484848484853,59.48757832338896)" d="M2.7386127875258306,0A2.7386127875258306,2.7386127875258306,0,1,1,-2.7386127875258306,0A2.7386127875258306,2.7386127875258306,0,1,1,2.7386127875258306,0" style="fill: none; stroke: #4c78a8; stroke-width: 2; opacity: 0.7;"></path><path transform="translate(260.6060606060608,94.39528619677674)" d="M2.7386127875258306,0A2.7386127875258306,2.7386127875258306,0,1,1,-2.7386127875258306,0A2.7386127875258306,2.7386127875258306,0,1,1,2.7386127875258306,0" style="fill: none; stroke: #4c78a8; stroke-width: 2; opacity: 0.7;"></path><path transform="translate(336.3636363636375,112.73622369580534)" d="M2.7386127875258306,0A2.7386127875258306,2.7386127875258306,0,1,1,-2.7386127875258306,0A2.7386127875258306,2.7386127875258306,0,1,1,2.7386127875258306,0" style="fill: none; stroke: #4c78a8; stroke-width: 2; opacity: 0.7;"></path><path transform="translate(412.12121212121235,115.04984143078605)" d="M2.7386127875258306,0A2.7386127875258306,2.7386127875258306,0,1,1,-2.7386127875258306,0A2.7386127875258306,2.7386127875258306,0,1,1,2.7386127875258306,0" style="fill: none; stroke: #4c78a8; stroke-width: 2; opacity: 0.7;"></path><path transform="translate(563.636363636364,197.01194929895172)" d="M2.7386127875258306,0A2.7386127875258306,2.7386127875258306,0,1,1,-2.7386127875258306,0A2.7386127875258306,2.7386127875258306,0,1,1,2.7386127875258306,0" style="fill: none; stroke: #4c78a8; stroke-width: 2; opacity: 0.7;"></path><path transform="translate(68.68686868686873,74.27631097608065)" d="M2.7386127875258306,0A2.7386127875258306,2.7386127875258306,0,1,1,-2.7386127875258306,0A2.7386127875258306,2.7386127875258306,0,1,1,2.7386127875258306,0" style="fill: none; stroke: #f58518; stroke-width: 2; opacity: 0.7;"></path><path transform="translate(109.0909090909092,86.09015182229541)" d="M2.7386127875258306,0A2.7386127875258306,2.7386127875258306,0,1,1,-2.7386127875258306,0A2.7386127875258306,2.7386127875258306,0,1,1,2.7386127875258306,0" style="fill: none; stroke: #f58518; stroke-width: 2; opacity: 0.7;"></path><path transform="translate(169.69696969696898,95.46769564320164)" d="M2.7386127875258306,0A2.7386127875258306,2.7386127875258306,0,1,1,-2.7386127875258306,0A2.7386127875258306,2.7386127875258306,0,1,1,2.7386127875258306,0" style="fill: none; stroke: #f58518; stroke-width: 2; opacity: 0.7;"></path><path transform="translate(210.10101010101008,125.02984660345834)" d="M2.7386127875258306,0A2.7386127875258306,2.7386127875258306,0,1,1,-2.7386127875258306,0A2.7386127875258306,2.7386127875258306,0,1,1,2.7386127875258306,0" style="fill: none; stroke: #f58518; stroke-width: 2; opacity: 0.7;"></path><path transform="translate(311.111111111111,166.56348109617213)" d="M2.7386127875258306,0A2.7386127875258306,2.7386127875258306,0,1,1,-2.7386127875258306,0A2.7386127875258306,2.7386127875258306,0,1,1,2.7386127875258306,0" style="fill: none; stroke: #f58518; stroke-width: 2; opacity: 0.7;"></path><path transform="translate(412.1212121212118,222.84378351312623)" d="M2.7386127875258306,0A2.7386127875258306,2.7386127875258306,0,1,1,-2.7386127875258306,0A2.7386127875258306,2.7386127875258306,0,1,1,2.7386127875258306,0" style="fill: none; stroke: #f58518; stroke-width: 2; opacity: 0.7;"></path></g><g class="mark-rule role-mark layer_0_layer_1_layer_0_marks"><line transform="translate(33.3333333333334,67.16081143386174)" x2="0" y2="-35.377935626947135" style="fill: none; stroke: #4c78a8;"></line><line transform="translate(109.0909090909092,94.95219257452351)" x2="0" y2="-47.364014151589856" style="fill: none; stroke: #4c78a8;"></line><line transform="translate(184.8484848484853,77.09205472902687)" x2="0" y2="-35.20895281127588" style="fill: none; stroke: #4c78a8;"></line><line transform="translate(260.6060606060608,131.33016330209063)" x2="0" y2="-73.86975421062783" style="fill: none; stroke: #4c78a8;"></line><line transform="translate(336.3636363636375,155.02767534299937)" x2="0" y2="-84.58290329438802" style="fill: none; stroke: #4c78a8;"></line><line transform="translate(412.12121212121235,164.57164976514042)" x2="0" y2="-99.0436166687087" style="fill: none; stroke: #4c78a8;"></line><line transform="translate(563.636363636364,283.033096484243)" x2="0" y2="-172.04229437058257" style="fill: none; stroke: #4c78a8;"></line><line transform="translate(68.68686868686873,100.65996113516888)" x2="0" y2="-52.76730031817641" style="fill: none; stroke: #f58518;"></line><line transform="translate(109.0909090909092,131.9551062220106)" x2="0" y2="-91.72990879943052" style="fill: none; stroke: #f58518;"></line><line transform="translate(169.69696969696898,140.07050266429326)" x2="0" y2="-89.2056140421833" style="fill: none; stroke: #f58518;"></line><line transform="translate(210.10101010101008,198.54573117416314)" x2="0" y2="-147.0317691414095" style="fill: none; stroke: #f58518;"></line><line transform="translate(311.111111111111,226.80924375916467)" x2="0" y2="-120.49152532598507" style="fill: none; stroke: #f58518;"></line><line transform="translate(412.1212121212118,339.1068262237348)" x2="0" y2="-232.52608542121715" style="fill: none; stroke: #f58518;"></line></g><g class="mark-group role-scope layer_0_layer_2_pathgroup"><g transform="translate(0,0)"><path class="background" d="M0,0h600v400h-600Z" style="fill: none;"></path><g><g class="mark-line role-mark layer_0_layer_2_marks"><path d="M563.636363636364,139.6765225971069L412.12121212121235,111.38597719404999L336.3636363636375,96.0540229960132L260.6060606060608,79.84013167153125L184.8484848484853,62.6661526328715L109.0909090909092,44.4444444444444L33.3333333333334,25.07639257667347" style="fill: none; stroke: #4c78a8; stroke-width: 2;"></path></g></g></g><g transform="translate(0,0)"><path class="background" d="M0,0h600v400h-600Z" style="fill: none;"></path><g><g class="mark-line role-mark layer_0_layer_2_marks"><path d="M412.1212121212118,186.99577670706137L311.111111111111,143.0674051432601L210.10101010101008,95.69075224617649L169.69696969696898,75.68243064551774L109.0909090909092,44.4444444444444L68.68686868686873,22.75477860307234" style="fill: none; stroke: #f58518; stroke-width: 2;"></path></g></g></g></g><g class="mark-rule role-mark layer_1_marks"><line transform="translate(0,44.4444444444444)" x2="600" y2="0" style="fill: none; stroke: grey;"></line><line transform="translate(0,44.4444444444444)" x2="600" y2="0" style="fill: none; stroke: grey;"></line><line transform="translate(0,44.4444444444444)" x2="600" y2="0" style="fill: none; stroke: grey;"></line><line transform="translate(0,44.4444444444444)" x2="600" y2="0" style="fill: none; stroke: grey;"></line><line transform="translate(0,44.4444444444444)" x2="600" y2="0" style="fill: none; stroke: grey;"></line><line transform="translate(0,44.4444444444444)" x2="600" y2="0" style="fill: none; stroke: grey;"></line><line transform="translate(0,44.4444444444444)" x2="600" y2="0" style="fill: none; stroke: grey;"></line><line transform="translate(0,44.4444444444444)" x2="600" y2="0" style="fill: none; stroke: grey;"></line><line transform="translate(0,44.4444444444444)" x2="600" y2="0" style="fill: none; stroke: grey;"></line><line transform="translate(0,44.4444444444444)" x2="600" y2="0" style="fill: none; stroke: grey;"></line><line transform="translate(0,44.4444444444444)" x2="600" y2="0" style="fill: none; stroke: grey;"></line><line transform="translate(0,44.4444444444444)" x2="600" y2="0" style="fill: none; stroke: grey;"></line><line transform="translate(0,44.4444444444444)" x2="600" y2="0" style="fill: none; stroke: grey;"></line></g><g class="mark-group role-legend"><g transform="translate(618,0)"><path class="background" d="M0,0h101v59h-101Z" style="pointer-events: none; fill: none;"></path><g><g class="mark-group role-legend-entry"><g transform="translate(0,25)"><path class="background" d="M0,0h0v0h0Z" style="pointer-events: none; fill: none;"></path><g><g class="mark-group role-scope"><g transform="translate(0,0)"><path class="background" d="M0,0h55v16h-55Z" style="pointer-events: none; fill: none; opacity: 1;"></path><g><g class="mark-symbol role-legend-symbol" style="pointer-events: none;"><path transform="translate(8,8)" d="M5,0A5,5,0,1,1,-5,0A5,5,0,1,1,5,0" style="fill: none; stroke: #4c78a8; stroke-width: 1.5; opacity: 0.7;"></path></g><g class="mark-text role-legend-label" style="pointer-events: none;"><text text-anchor="start" transform="translate(20,13)" style="font-family: sans-serif; font-size: 16px; fill: #000; opacity: 1;">1</text></g></g></g><g transform="translate(0,18)"><path class="background" d="M0,0h55v16h-55Z" style="pointer-events: none; fill: none; opacity: 1;"></path><g><g class="mark-symbol role-legend-symbol" style="pointer-events: none;"><path transform="translate(8,8)" d="M5,0A5,5,0,1,1,-5,0A5,5,0,1,1,5,0" style="fill: none; stroke: #f58518; stroke-width: 1.5; opacity: 0.7;"></path></g><g class="mark-text role-legend-label" style="pointer-events: none;"><text text-anchor="start" transform="translate(20,13)" style="font-family: sans-serif; font-size: 16px; fill: #000; opacity: 1;">13.5</text></g></g></g></g></g></g></g><g class="mark-text role-legend-title" style="pointer-events: none;"><text text-anchor="start" transform="translate(0,16)" style="font-family: sans-serif; font-size: 20px; font-weight: bold; fill: #000; opacity: 1;">Pressure</text></g></g></g></g><g class="mark-group role-axis"><g transform="translate(0.5,400.5)"><path class="background" d="M0,0h0v0h0Z" style="pointer-events: none; fill: none;"></path><g><g class="mark-rule role-axis-tick" style="pointer-events: none;"><line transform="translate(0,0)" x2="0" y2="5" style="fill: none; stroke: #888; stroke-width: 1; opacity: 1;"></line><line transform="translate(55,0)" x2="0" y2="5" style="fill: none; stroke: #888; stroke-width: 1; opacity: 1;"></line><line transform="translate(109,0)" x2="0" y2="5" style="fill: none; stroke: #888; stroke-width: 1; opacity: 1;"></line><line transform="translate(164,0)" x2="0" y2="5" style="fill: none; stroke: #888; stroke-width: 1; opacity: 1;"></line><line transform="translate(218,0)" x2="0" y2="5" style="fill: none; stroke: #888; stroke-width: 1; opacity: 1;"></line><line transform="translate(273,0)" x2="0" y2="5" style="fill: none; stroke: #888; stroke-width: 1; opacity: 1;"></line><line transform="translate(327,0)" x2="0" y2="5" style="fill: none; stroke: #888; stroke-width: 1; opacity: 1;"></line><line transform="translate(382,0)" x2="0" y2="5" style="fill: none; stroke: #888; stroke-width: 1; opacity: 1;"></line><line transform="translate(436,0)" x2="0" y2="5" style="fill: none; stroke: #888; stroke-width: 1; opacity: 1;"></line><line transform="translate(491,0)" x2="0" y2="5" style="fill: none; stroke: #888; stroke-width: 1; opacity: 1;"></line><line transform="translate(545,0)" x2="0" y2="5" style="fill: none; stroke: #888; stroke-width: 1; opacity: 1;"></line><line transform="translate(600,0)" x2="0" y2="5" style="fill: none; stroke: #888; stroke-width: 1; opacity: 1;"></line></g><g class="mark-text role-axis-label" style="pointer-events: none;"><text text-anchor="start" transform="translate(0,20)" style="font-family: sans-serif; font-size: 16px; fill: #000; opacity: 1;">0.96</text><text text-anchor="middle" transform="translate(54.5454545454546,20)" style="font-family: sans-serif; font-size: 16px; fill: #000; opacity: 1;">0.98</text><text text-anchor="middle" transform="translate(109.0909090909092,20)" style="font-family: sans-serif; font-size: 16px; fill: #000; opacity: 1;">1.00</text><text text-anchor="middle" transform="translate(163.6363636363638,20)" style="font-family: sans-serif; font-size: 16px; fill: #000; opacity: 1;">1.02</text><text text-anchor="middle" transform="translate(218.1818181818184,20)" style="font-family: sans-serif; font-size: 16px; fill: #000; opacity: 1;">1.04</text><text text-anchor="middle" transform="translate(272.72727272727303,20)" style="font-family: sans-serif; font-size: 16px; fill: #000; opacity: 1;">1.06</text><text text-anchor="middle" transform="translate(327.2727272727276,20)" style="font-family: sans-serif; font-size: 16px; fill: #000; opacity: 1;">1.08</text><text text-anchor="middle" transform="translate(381.8181818181822,20)" style="font-family: sans-serif; font-size: 16px; fill: #000; opacity: 1;">1.10</text><text text-anchor="middle" transform="translate(436.3636363636368,20)" style="font-family: sans-serif; font-size: 16px; fill: #000; opacity: 1;">1.12</text><text text-anchor="middle" transform="translate(490.9090909090908,20)" style="font-family: sans-serif; font-size: 16px; fill: #000; opacity: 1;">1.14</text><text text-anchor="middle" transform="translate(545.4545454545454,20)" style="font-family: sans-serif; font-size: 16px; fill: #000; opacity: 1;">1.16</text><text text-anchor="end" transform="translate(600,20)" style="font-family: sans-serif; font-size: 16px; fill: #000; opacity: 1;">1.18</text></g><g class="mark-rule role-axis-domain" style="pointer-events: none;"><line transform="translate(0,0)" x2="600" y2="0" style="fill: none; stroke: #888; stroke-width: 1; opacity: 1;"></line></g><g class="mark-text role-axis-title" style="pointer-events: none;"><text text-anchor="middle" transform="translate(300,43)" style="font-family: sans-serif; font-size: 20px; font-weight: bold; fill: #000; opacity: 1;">T/Tₘ</text></g></g></g></g><g class="mark-group role-axis"><g transform="translate(0.5,0.5)"><path class="background" d="M0,0h0v0h0Z" style="pointer-events: none; fill: none;"></path><g><g class="mark-rule role-axis-tick" style="pointer-events: none;"><line transform="translate(0,400)" x2="-5" y2="0" style="fill: none; stroke: #888; stroke-width: 1; opacity: 1;"></line><line transform="translate(0,356)" x2="-5" y2="0" style="fill: none; stroke: #888; stroke-width: 1; opacity: 1;"></line><line transform="translate(0,311)" x2="-5" y2="0" style="fill: none; stroke: #888; stroke-width: 1; opacity: 1;"></line><line transform="translate(0,267)" x2="-5" y2="0" style="fill: none; stroke: #888; stroke-width: 1; opacity: 1;"></line><line transform="translate(0,222)" x2="-5" y2="0" style="fill: none; stroke: #888; stroke-width: 1; opacity: 1;"></line><line transform="translate(0,178)" x2="-5" y2="0" style="fill: none; stroke: #888; stroke-width: 1; opacity: 1;"></line><line transform="translate(0,133)" x2="-5" y2="0" style="fill: none; stroke: #888; stroke-width: 1; opacity: 1;"></line><line transform="translate(0,89)" x2="-5" y2="0" style="fill: none; stroke: #888; stroke-width: 1; opacity: 1;"></line><line transform="translate(0,44)" x2="-5" y2="0" style="fill: none; stroke: #888; stroke-width: 1; opacity: 1;"></line><line transform="translate(0,0)" x2="-5" y2="0" style="fill: none; stroke: #888; stroke-width: 1; opacity: 1;"></line></g><g class="mark-text role-axis-label" style="pointer-events: none;"><text text-anchor="end" transform="translate(-7,405)" style="font-family: sans-serif; font-size: 16px; fill: #000; opacity: 1;">-0.08</text><text text-anchor="end" transform="translate(-7,360.55555555555554)" style="font-family: sans-serif; font-size: 16px; fill: #000; opacity: 1;">-0.07</text><text text-anchor="end" transform="translate(-7,316.1111111111111)" style="font-family: sans-serif; font-size: 16px; fill: #000; opacity: 1;">-0.06</text><text text-anchor="end" transform="translate(-7,271.6666666666667)" style="font-family: sans-serif; font-size: 16px; fill: #000; opacity: 1;">-0.05</text><text text-anchor="end" transform="translate(-7,227.2222222222222)" style="font-family: sans-serif; font-size: 16px; fill: #000; opacity: 1;">-0.04</text><text text-anchor="end" transform="translate(-7,182.77777777777777)" style="font-family: sans-serif; font-size: 16px; fill: #000; opacity: 1;">-0.03</text><text text-anchor="end" transform="translate(-7,138.33333333333337)" style="font-family: sans-serif; font-size: 16px; fill: #000; opacity: 1;">-0.02</text><text text-anchor="end" transform="translate(-7,93.88888888888886)" style="font-family: sans-serif; font-size: 16px; fill: #000; opacity: 1;">-0.01</text><text text-anchor="end" transform="translate(-7,49.4444444444444)" style="font-family: sans-serif; font-size: 16px; fill: #000; opacity: 1;">0.00</text><text text-anchor="end" transform="translate(-7,5)" style="font-family: sans-serif; font-size: 16px; fill: #000; opacity: 1;">0.01</text></g><g class="mark-rule role-axis-domain" style="pointer-events: none;"><line transform="translate(0,400)" x2="0" y2="-400" style="fill: none; stroke: #888; stroke-width: 1; opacity: 1;"></line></g><g class="mark-text role-axis-title" style="pointer-events: none;"><text text-anchor="middle" transform="translate(-52,200) rotate(-90) translate(0,-4)" style="font-family: sans-serif; font-size: 20px; font-weight: bold; fill: #000; opacity: 1;">Rotational Relaxation × Melting Rate</text></g></g></g></g></g></g></g></g></svg>