<svg class="marks" width="801" height="470" viewBox="0 0 801 470" version="1.1" xmlns="http://www.w3.org/2000/svg" xmlns:xlink="http://www.w3.org/1999/xlink"><rect width="801" height="470" style="fill: white;"></rect><g transform="translate(77,18)"><g class="mark-group role-frame root"><g transform="translate(0,0)"><path class="background" d="M0.5,0.5h600v400h-600Z" style="fill: none; stroke: #ddd;"></path><g><g class="mark-symbol role-mark layer_0_layer_0_marks"><path transform="translate(126.66666666666674,97.65269800826667)" d="M2.7386127875258306,0A2.7386127875258306,2.7386127875258306,0,1,1,-2.7386127875258306,0A2.7386127875258306,2.7386127875258306,0,1,1,2.7386127875258306,0" style="fill: none; stroke: #4c78a8; stroke-width: 2; opacity: 0.7;"></path><path transform="translate(160.0000000000005,137.45438305465672)" d="M2.7386127875258306,0A2.7386127875258306,2.7386127875258306,0,1,1,-2.7386127875258306,0A2.7386127875258306,2.7386127875258306,0,1,1,2.7386127875258306,0" style="fill: none; stroke: #4c78a8; stroke-width: 2; opacity: 0.7;"></path><path transform="translate(193.33333333333346,57.541175413930716)" d="M2.7386127875258306,0A2.7386127875258306,2.7386127875258306,0,1,1,-2.7386127875258306,0A2.7386127875258306,2.7386127875258306,0,1,1,2.7386127875258306,0" style="fill: none; stroke: #4c78a8; stroke-width: 2; opacity: 0.7;"></path><path transform="translate(260.0000000000001,57.3818512595127)" d="M2.7386127875258306,0A2.7386127875258306,2.7386127875258306,0,1,1,-2.7386127875258306,0A2.7386127875258306,2.7386127875258306,0,1,1,2.7386127875258306,0" style="fill: none; stroke: #4c78a8; stroke-width: 2; opacity: 0.7;"></path><path transform="translate(360.00000000000006,172.86009086868543)" d="M2.7386127875258306,0A2.7386127875258306,2.7386127875258306,0,1,1,-2.7386127875258306,0A2.7386127875258306,2.7386127875258306,0,1,1,2.7386127875258306,0" style="fill: none; stroke: #4c78a8; stroke-width: 2; opacity: 0.7;"></path><path transform="translate(60.00000000000006,14.07374742609693)" d="M2.7386127875258306,0A2.7386127875258306,2.7386127875258306,0,1,1,-2.7386127875258306,0A2.7386127875258306,2.7386127875258306,0,1,1,2.7386127875258306,0" style="fill: none; stroke: #f58518; stroke-width: 2; opacity: 0.7;"></path><path transform="translate(104.44444444444443,22.792605526369982)" d="M2.7386127875258306,0A2.7386127875258306,2.7386127875258306,0,1,1,-2.7386127875258306,0A2.7386127875258306,2.7386127875258306,0,1,1,2.7386127875258306,0" style="fill: none; stroke: #f58518; stroke-width: 2; opacity: 0.7;"></path><path transform="translate(148.8888888888888,198.2753660513508)" d="M2.7386127875258306,0A2.7386127875258306,2.7386127875258306,0,1,1,-2.7386127875258306,0A2.7386127875258306,2.7386127875258306,0,1,1,2.7386127875258306,0" style="fill: none; stroke: #f58518; stroke-width: 2; opacity: 0.7;"></path><path transform="translate(193.33333333333317,318.5847048283449)" d="M2.7386127875258306,0A2.7386127875258306,2.7386127875258306,0,1,1,-2.7386127875258306,0A2.7386127875258306,2.7386127875258306,0,1,1,2.7386127875258306,0" style="fill: none; stroke: #f58518; stroke-width: 2; opacity: 0.7;"></path></g><g class="mark-rule role-mark layer_0_layer_1_marks"><line transform="translate(126.66666666666674,72.6108508876975)" x2="0" y2="50.083694241138346" style="fill: none; stroke: #4c78a8;"></line><line transform="translate(160.0000000000005,118.53124431749688)" x2="0" y2="37.84627747431966" style="fill: none; stroke: #4c78a8;"></line><line transform="translate(193.33333333333346,39.439962917267906)" x2="0" y2="36.20242499332562" style="fill: none; stroke: #4c78a8;"></line><line transform="translate(260.0000000000001,46.839335525499905)" x2="0" y2="21.085031468025477" style="fill: none; stroke: #4c78a8;"></line><line transform="translate(360.00000000000006,153.4177234196075)" x2="0" y2="38.8847348981559" style="fill: none; stroke: #4c78a8;"></line><line transform="translate(60.00000000000006,5.7139305119883375)" x2="0" y2="16.719633828217127" style="fill: none; stroke: #f58518;"></line><line transform="translate(104.44444444444443,15.88792946591559)" x2="0" y2="13.80935212090884" style="fill: none; stroke: #f58518;"></line><line transform="translate(148.8888888888888,184.0399317342196)" x2="0" y2="28.47086863426236" style="fill: none; stroke: #f58518;"></line><line transform="translate(193.33333333333317,262.22265505886656)" x2="0" y2="112.7240995389567" style="fill: none; stroke: #f58518;"></line></g><g class="mark-group role-scope layer_0_layer_2_pathgroup"><g transform="translate(0,0)"><path class="background" d="M0,0h600v400h-600Z" style="fill: none;"></path><g><g class="mark-line role-mark layer_0_layer_2_marks"><path d="M360.00000000000006,129.90403607524985L260.0000000000001,92.30925990870276L193.33333333333346,64.36634168454611L160.0000000000005,49.40937272886919L126.66666666666674,33.732299221421044" style="fill: none; stroke: #4c78a8; stroke-width: 2;"></path></g></g></g><g transform="translate(0,0)"><path class="background" d="M0,0h600v400h-600Z" style="fill: none;"></path><g><g class="mark-line role-mark layer_0_layer_2_marks"><path d="M193.33333333333317,177.5452179016726L148.8888888888888,122.32025145936376L104.44444444444443,63.27530914588357L60.00000000000006,0" style="fill: none; stroke: #f58518; stroke-width: 2;"></path></g></g></g></g><g class="mark-rule role-mark layer_1_marks"><line transform="translate(0,0)" x2="600" y2="0" style="fill: none; stroke: grey;"></line><line transform="translate(0,0)" x2="600" y2="0" style="fill: none; stroke: grey;"></line><line transform="translate(0,0)" x2="600" y2="0" style="fill: none; stroke: grey;"></line><line transform="translate(0,0)" x2="600" y2="0" style="fill: none; stroke: grey;"></line><line transform="translate(0,0)" x2="600" y2="0" style="fill: none; stroke: grey;"></line><line transform="translate(0,0)" x2="600" y2="0" style="fill: none; stroke: grey;"></line><line transform="translate(0,0)" x2="600" y2="0" style="fill: none; stroke: grey;"></line><line transform="translate(0,0)" x2="600" y2="0" style="fill: none; stroke: grey;"></line><line transform="translate(0,0)" x2="600" y2="0" style="fill: none; stroke: grey;"></line><line transform="translate(0,0)" x2="600" y2="0" style="fill: none; stroke: grey;"></line><line transform="translate(0,0)" x2="600" y2="0" style="fill: none; stroke: grey;"></line></g><g class="mark-group role-legend"><g transform="translate(618,0)"><path class="background" d="M0,0h101v59h-101Z" style="pointer-events: none; fill: none;"></path><g><g class="mark-group role-legend-entry"><g transform="translate(0,25)"><path class="background" d="M0,0h0v0h0Z" style="pointer-events: none; fill: none;"></path><g><g class="mark-group role-scope"><g transform="translate(0,0)"><path class="background" d="M0,0h55v16h-55Z" style="pointer-events: none; fill: none; opacity: 1;"></path><g><g class="mark-symbol role-legend-symbol" style="pointer-events: none;"><path transform="translate(8,8)" d="M5,0A5,5,0,1,1,-5,0A5,5,0,1,1,5,0" style="fill: none; stroke: #4c78a8; stroke-width: 1.5; opacity: 0.7;"></path></g><g class="mark-text role-legend-label" style="pointer-events: none;"><text text-anchor="start" transform="translate(20,13)" style="font-family: sans-serif; font-size: 16px; fill: #000; opacity: 1;">1</text></g></g></g><g transform="translate(0,18)"><path class="background" d="M0,0h55v16h-55Z" style="pointer-events: none; fill: none; opacity: 1;"></path><g><g class="mark-symbol role-legend-symbol" style="pointer-events: none;"><path transform="translate(8,8)" d="M5,0A5,5,0,1,1,-5,0A5,5,0,1,1,5,0" style="fill: none; stroke: #f58518; stroke-width: 1.5; opacity: 0.7;"></path></g><g class="mark-text role-legend-label" style="pointer-events: none;"><text text-anchor="start" transform="translate(20,13)" style="font-family: sans-serif; font-size: 16px; fill: #000; opacity: 1;">13.5</text></g></g></g></g></g></g></g><g class="mark-text role-legend-title" style="pointer-events: none;"><text text-anchor="start" transform="translate(0,16)" style="font-family: sans-serif; font-size: 20px; font-weight: bold; fill: #000; opacity: 1;">Pressure</text></g></g></g></g><g class="mark-group role-axis"><g transform="translate(0.5,400.5)"><path class="background" d="M0,0h0v0h0Z" style="pointer-events: none; fill: none;"></path><g><g class="mark-rule role-axis-tick" style="pointer-events: none;"><line transform="translate(0,0)" x2="0" y2="5" style="fill: none; stroke: #888; stroke-width: 1; opacity: 1;"></line><line transform="translate(60,0)" x2="0" y2="5" style="fill: none; stroke: #888; stroke-width: 1; opacity: 1;"></line><line transform="translate(120,0)" x2="0" y2="5" style="fill: none; stroke: #888; stroke-width: 1; opacity: 1;"></line><line transform="translate(180,0)" x2="0" y2="5" style="fill: none; stroke: #888; stroke-width: 1; opacity: 1;"></line><line transform="translate(240,0)" x2="0" y2="5" style="fill: none; stroke: #888; stroke-width: 1; opacity: 1;"></line><line transform="translate(300,0)" x2="0" y2="5" style="fill: none; stroke: #888; stroke-width: 1; opacity: 1;"></line><line transform="translate(360,0)" x2="0" y2="5" style="fill: none; stroke: #888; stroke-width: 1; opacity: 1;"></line><line transform="translate(420,0)" x2="0" y2="5" style="fill: none; stroke: #888; stroke-width: 1; opacity: 1;"></line><line transform="translate(480,0)" x2="0" y2="5" style="fill: none; stroke: #888; stroke-width: 1; opacity: 1;"></line><line transform="translate(540,0)" x2="0" y2="5" style="fill: none; stroke: #888; stroke-width: 1; opacity: 1;"></line><line transform="translate(600,0)" x2="0" y2="5" style="fill: none; stroke: #888; stroke-width: 1; opacity: 1;"></line></g><g class="mark-text role-axis-label" style="pointer-events: none;"><text text-anchor="start" transform="translate(0,20)" style="font-family: sans-serif; font-size: 16px; fill: #000; opacity: 1;">0.95</text><text text-anchor="middle" transform="translate(60.00000000000006,20)" style="font-family: sans-serif; font-size: 16px; fill: #000; opacity: 1;">1.00</text><text text-anchor="middle" transform="translate(120.00000000000011,20)" style="font-family: sans-serif; font-size: 16px; fill: #000; opacity: 1;">1.05</text><text text-anchor="middle" transform="translate(180.00000000000017,20)" style="font-family: sans-serif; font-size: 16px; fill: #000; opacity: 1;">1.10</text><text text-anchor="middle" transform="translate(239.99999999999994,20)" style="font-family: sans-serif; font-size: 16px; fill: #000; opacity: 1;">1.15</text><text text-anchor="middle" transform="translate(300,20)" style="font-family: sans-serif; font-size: 16px; fill: #000; opacity: 1;">1.20</text><text text-anchor="middle" transform="translate(360.00000000000006,20)" style="font-family: sans-serif; font-size: 16px; fill: #000; opacity: 1;">1.25</text><text text-anchor="middle" transform="translate(420.0000000000001,20)" style="font-family: sans-serif; font-size: 16px; fill: #000; opacity: 1;">1.30</text><text text-anchor="middle" transform="translate(480.00000000000017,20)" style="font-family: sans-serif; font-size: 16px; fill: #000; opacity: 1;">1.35</text><text text-anchor="middle" transform="translate(540,20)" style="font-family: sans-serif; font-size: 16px; fill: #000; opacity: 1;">1.40</text><text text-anchor="end" transform="translate(600,20)" style="font-family: sans-serif; font-size: 16px; fill: #000; opacity: 1;">1.45</text></g><g class="mark-rule role-axis-domain" style="pointer-events: none;"><line transform="translate(0,0)" x2="600" y2="0" style="fill: none; stroke: #888; stroke-width: 1; opacity: 1;"></line></g><g class="mark-text role-axis-title" style="pointer-events: none;"><text text-anchor="middle" transform="translate(300,43)" style="font-family: sans-serif; font-size: 20px; font-weight: bold; fill: #000; opacity: 1;">T/Tₘ</text></g></g></g></g><g class="mark-group role-axis"><g transform="translate(0.5,0.5)"><path class="background" d="M0,0h0v0h0Z" style="pointer-events: none; fill: none;"></path><g><g class="mark-rule role-axis-tick" style="pointer-events: none;"><line transform="translate(0,400)" x2="-5" y2="0" style="fill: none; stroke: #888; stroke-width: 1; opacity: 1;"></line><line transform="translate(0,369)" x2="-5" y2="0" style="fill: none; stroke: #888; stroke-width: 1; opacity: 1;"></line><line transform="translate(0,338)" x2="-5" y2="0" style="fill: none; stroke: #888; stroke-width: 1; opacity: 1;"></line><line transform="translate(0,308)" x2="-5" y2="0" style="fill: none; stroke: #888; stroke-width: 1; opacity: 1;"></line><line transform="translate(0,277)" x2="-5" y2="0" style="fill: none; stroke: #888; stroke-width: 1; opacity: 1;"></line><line transform="translate(0,246)" x2="-5" y2="0" style="fill: none; stroke: #888; stroke-width: 1; opacity: 1;"></line><line transform="translate(0,215)" x2="-5" y2="0" style="fill: none; stroke: #888; stroke-width: 1; opacity: 1;"></line><line transform="translate(0,185)" x2="-5" y2="0" style="fill: none; stroke: #888; stroke-width: 1; opacity: 1;"></line><line transform="translate(0,154)" x2="-5" y2="0" style="fill: none; stroke: #888; stroke-width: 1; opacity: 1;"></line><line transform="translate(0,123)" x2="-5" y2="0" style="fill: none; stroke: #888; stroke-width: 1; opacity: 1;"></line><line transform="translate(0,92)" x2="-5" y2="0" style="fill: none; stroke: #888; stroke-width: 1; opacity: 1;"></line><line transform="translate(0,62)" x2="-5" y2="0" style="fill: none; stroke: #888; stroke-width: 1; opacity: 1;"></line><line transform="translate(0,31)" x2="-5" y2="0" style="fill: none; stroke: #888; stroke-width: 1; opacity: 1;"></line><line transform="translate(0,0)" x2="-5" y2="0" style="fill: none; stroke: #888; stroke-width: 1; opacity: 1;"></line></g><g class="mark-text role-axis-label" style="pointer-events: none;"><text text-anchor="end" transform="translate(-7,405)" style="font-family: sans-serif; font-size: 16px; fill: #000; opacity: 1;">-0.26</text><text text-anchor="end" transform="translate(-7,374.2307692307692)" style="font-family: sans-serif; font-size: 16px; fill: #000; opacity: 1;">-0.24</text><text text-anchor="end" transform="translate(-7,343.46153846153845)" style="font-family: sans-serif; font-size: 16px; fill: #000; opacity: 1;">-0.22</text><text text-anchor="end" transform="translate(-7,312.6923076923077)" style="font-family: sans-serif; font-size: 16px; fill: #000; opacity: 1;">-0.20</text><text text-anchor="end" transform="translate(-7,281.9230769230769)" style="font-family: sans-serif; font-size: 16px; fill: #000; opacity: 1;">-0.18</text><text text-anchor="end" transform="translate(-7,251.15384615384613)" style="font-family: sans-serif; font-size: 16px; fill: #000; opacity: 1;">-0.16</text><text text-anchor="end" transform="translate(-7,220.3846153846154)" style="font-family: sans-serif; font-size: 16px; fill: #000; opacity: 1;">-0.14</text><text text-anchor="end" transform="translate(-7,189.61538461538458)" style="font-family: sans-serif; font-size: 16px; fill: #000; opacity: 1;">-0.12</text><text text-anchor="end" transform="translate(-7,158.84615384615384)" style="font-family: sans-serif; font-size: 16px; fill: #000; opacity: 1;">-0.10</text><text text-anchor="end" transform="translate(-7,128.0769230769231)" style="font-family: sans-serif; font-size: 16px; fill: #000; opacity: 1;">-0.08</text><text text-anchor="end" transform="translate(-7,97.30769230769226)" style="font-family: sans-serif; font-size: 16px; fill: #000; opacity: 1;">-0.06</text><text text-anchor="end" transform="translate(-7,66.53846153846155)" style="font-family: sans-serif; font-size: 16px; fill: #000; opacity: 1;">-0.04</text><text text-anchor="end" transform="translate(-7,35.769230769230774)" style="font-family: sans-serif; font-size: 16px; fill: #000; opacity: 1;">-0.02</text><text text-anchor="end" transform="translate(-7,5)" style="font-family: sans-serif; font-size: 16px; fill: #000; opacity: 1;">0.00</text></g><g class="mark-rule role-axis-domain" style="pointer-events: none;"><line transform="translate(0,400)" x2="0" y2="-400" style="fill: none; stroke: #888; stroke-width: 1; opacity: 1;"></line></g><g class="mark-text role-axis-title" style="pointer-events: none;"><text text-anchor="middle" transform="translate(-52,200) rotate(-90) translate(0,-4)" style="font-family: sans-serif; font-size: 20px; font-weight: bold; fill: #000; opacity: 1;">Rotational Relaxation × Melting Rate</text></g></g></g></g></g></g></g></g></svg>