<svg version="1.1" xmlns="http://www.w3.org/2000/svg" xmlns:xlink="http://www.w3.org/1999/xlink" width="920" height="600" style="width: 920px; height: 600px;"><defs><clipPath id="MJlvQQKFXXTl"><path fill="none" stroke="none" d=" M 5 5 L 915 5 L 915 595 L 5 595 L 5 5 Z"/></clipPath><clipPath id="vBUWVeeMUMvR"><path fill="none" stroke="none" d=" M 5 5 L 915 5 L 915 595 L 5 595 L 5 5 Z"/></clipPath><clipPath id="abqvitVfHpuc"><path fill="none" stroke="none" d=" M 5 5 L 915 5 L 915 595 L 5 595 L 5 5 Z"/></clipPath><clipPath id="EkOVbCBOTETe"><path fill="none" stroke="none" d=" M 5 5 L 915 5 L 915 595 L 5 595 L 5 5 Z"/></clipPath></defs><g><g transform="scale(1,1) translate(0.5,0.5)"><rect fill="#FFFFFF" stroke="none" x="0" y="0" width="920" height="600"/><rect fill="#ffffff" stroke="none" x="0" y="0" width="920" height="600"/><rect fill="#FFFFFF" stroke="none" x="5" y="5" width="910" height="590"/><rect fill="#ffffff" stroke="none" x="5" y="5" width="910" height="590"/><g><rect fill="none" stroke="#e5e5e5" x="5" y="5" width="910" height="590" stroke-linejoin="bevel" stroke-miterlimit="10"/></g><g clip-path="url(#MJlvQQKFXXTl)"><g/></g><g clip-path="url(#vBUWVeeMUMvR)"><g/></g><g clip-path="url(#abqvitVfHpuc)"><g><g><path fill="none" stroke="none"/><path fill="rgb(145, 208, 229)" stroke="none" paint-order="stroke fill markers" d=" M 887.7776917307074 607.1052001554895 A 29.726666666666688 29.726666666666688 0 1 1 887.7776768673752 607.0754734937772"/><path fill="rgb(145, 208, 229)" stroke="none" paint-order="stroke fill markers" d=" M 907.0944258369998 603.3836331395003 A 18.952414693333367 18.952414693333367 0 1 1 907.0944163607933 603.3646807279656"/><path fill="rgb(142, 209, 227)" stroke="none" paint-order="stroke fill markers" d=" M 963.8245533488132 609.2073020812563 A 29.726666666666688 29.726666666666688 0 1 1 963.8245384854811 609.177575419544"/><path fill="rgb(189, 131, 107)" stroke="none" paint-order="stroke fill markers" d=" M 818.1720631097842 560.0957528333288 A 18.952414693333367 18.952414693333367 0 1 1 818.1720536335777 560.0768004217941"/><path fill="rgb(29, 159, 171)" stroke="none" paint-order="stroke fill markers" d=" M 827.2649892056538 616.0206066753219 A 18.952414693333367 18.952414693333367 0 1 1 827.2649797294473 616.0016542637873"/><path fill="rgb(29, 159, 171)" stroke="none" paint-order="stroke fill markers" d=" M 807.8903553112368 612.77234393126 A 29.72666666666646 29.72666666666646 0 1 1 807.8903404479047 612.7426172695477"/><path fill="rgb(46, 158, 177)" stroke="none" paint-order="stroke fill markers" d=" M 747.4614158226914 610.4351227967718 A 18.95241469333314 18.95241469333314 0 1 1 747.4614063464849 610.4161703852371"/><path fill="rgb(238, 188, 169)" stroke="none" paint-order="stroke fill markers" d=" M 943.814777188684 532.5532511842155 A 18.95241469333314 18.95241469333314 0 1 1 943.8147677124775 532.5342987726808"/><path fill="rgb(238, 188, 169)" stroke="none" paint-order="stroke fill markers" d=" M 940.0348193619814 558.4357532721472 A 29.72666666666646 29.72666666666646 0 1 1 940.0348044986492 558.4060266104349"/><path fill="rgb(238, 188, 169)" stroke="none" paint-order="stroke fill markers" d=" M 898.9353685883611 559.1189612514163 A 18.952414693333367 18.952414693333367 0 1 1 898.9353591121546 559.1000088398816"/><path fill="rgb(189, 131, 107)" stroke="none" paint-order="stroke fill markers" d=" M 859.2674928003441 559.2606368618752 A 29.72666666666646 29.72666666666646 0 1 1 859.267477937012 559.230910200163"/><path fill="rgb(189, 131, 107)" stroke="none" paint-order="stroke fill markers" d=" M 862.9101675296793 533.3055675687424 A 18.95241469333314 18.95241469333314 0 1 1 862.9101580534727 533.2866151572077"/><path fill="rgb(46, 158, 177)" stroke="none" paint-order="stroke fill markers" d=" M 863.8868034022848 492.11164286428277 A 18.952414693333367 18.952414693333367 0 1 1 863.8867939260783 492.0926904527482"/><path fill="rgb(46, 158, 177)" stroke="none" paint-order="stroke fill markers" d=" M 899.4286616121526 516.6613323855154 A 18.95241469333314 18.95241469333314 0 1 1 899.4286521359461 516.6423799739807"/><path fill="rgb(46, 158, 177)" stroke="none" paint-order="stroke fill markers" d=" M 844.3325190158212 492.6361551560511 A 29.72666666666646 29.72666666666646 0 1 1 844.332504152489 492.60642849433884"/><path fill="rgb(46, 158, 177)" stroke="none" paint-order="stroke fill markers" d=" M 818.8610719506569 518.4421209745697 A 18.95241469333314 18.95241469333314 0 1 1 818.8610624744504 518.423168563035"/><path fill="rgb(197, 122, 157)" stroke="none" paint-order="stroke fill markers" d=" M 730.8812799534751 448.79009376425836 A 29.726666666666688 29.726666666666688 0 1 1 730.881265090143 448.7603671025461"/><path fill="rgb(42, 158, 175)" stroke="none" paint-order="stroke fill markers" d=" M 762.2151585818397 496.93345650104794 A 29.72666666666646 29.72666666666646 0 1 1 762.2151437185075 496.9037298393357"/><path fill="rgb(42, 158, 175)" stroke="none" paint-order="stroke fill markers" d=" M 781.7742343292612 496.95261846419993 A 18.95241469333314 18.95241469333314 0 1 1 781.7742248530546 496.93366605266533"/><path fill="rgb(190, 130, 111)" stroke="none" paint-order="stroke fill markers" d=" M 781.8466862007799 537.5192623609507 A 18.952414693333367 18.952414693333367 0 1 1 781.8466767245734 537.5003099494161"/><path fill="rgb(42, 158, 175)" stroke="none" paint-order="stroke fill markers" d=" M 736.2571811146443 522.4716220447924 A 18.952414693333367 18.952414693333367 0 1 1 736.2571716384377 522.4526696332578"/><path fill="rgb(190, 130, 111)" stroke="none" paint-order="stroke fill markers" d=" M 735.3957489153461 561.3936438640353 A 18.952414693333367 18.952414693333367 0 1 1 735.3957394391396 561.3746914525007"/><path fill="rgb(190, 130, 111)" stroke="none" paint-order="stroke fill markers" d=" M 776.4820975888185 562.497298185567 A 29.72666666666646 29.72666666666646 0 1 1 776.4820827254864 562.4675715238548"/><path fill="rgb(195, 122, 164)" stroke="none" paint-order="stroke fill markers" d=" M 863.4596991037652 419.85160477559003 A 18.952414693333367 18.952414693333367 0 1 1 863.4596896275586 419.83265236405543"/><path fill="rgb(195, 122, 164)" stroke="none" paint-order="stroke fill markers" d=" M 890.7286343477092 444.60881183604005 A 29.72666666666646 29.72666666666646 0 1 1 890.7286194843771 444.5790851743278"/><path fill="rgb(67, 161, 120)" stroke="none" paint-order="stroke fill markers" d=" M 905.2717501180389 402.4744408215213 A 18.952414693333367 18.952414693333367 0 1 1 905.2717406418324 402.4554884099867"/><path fill="rgb(67, 161, 120)" stroke="none" paint-order="stroke fill markers" d=" M 900.8975771644766 376.91645777149563 A 29.726666666666688 29.726666666666688 0 1 1 900.8975623011445 376.8867311097834"/><path fill="rgb(67, 161, 120)" stroke="none" paint-order="stroke fill markers" d=" M 859.7900000391285 376.89597808544994 A 18.952414693333367 18.952414693333367 0 1 1 859.789990562922 376.87702567391534"/><path fill="rgb(195, 122, 165)" stroke="none" paint-order="stroke fill markers" d=" M 872.2666609840674 331.9151492751713 A 18.952414693333367 18.952414693333367 0 1 1 872.2666515078608 331.8961968636367"/><path fill="rgb(236, 188, 167)" stroke="none" paint-order="stroke fill markers" d=" M 912.7187524525302 336.5352688768375 A 18.952414693333367 18.952414693333367 0 1 1 912.7187429763237 336.5163164653029"/><path fill="rgb(142, 209, 227)" stroke="none" paint-order="stroke fill markers" d=" M 907.540695045155 301.2292367692422 A 18.952414693333367 18.952414693333367 0 1 1 907.5406855689484 301.2102843577076"/><path fill="rgb(236, 188, 167)" stroke="none" paint-order="stroke fill markers" d=" M 955.7819566023672 307.2640750526493 A 18.952414693333367 18.952414693333367 0 1 1 955.7819471261607 307.2451226411147"/><path fill="rgb(236, 188, 167)" stroke="none" paint-order="stroke fill markers" d=" M 953.7131692005844 333.9894296071953 A 29.726666666666688 29.726666666666688 0 1 1 953.7131543372523 333.95970294548306"/><path fill="rgb(55, 162, 127)" stroke="none" paint-order="stroke fill markers" d=" M 950.738990432134 381.855133504659 A 18.952414693333367 18.952414693333367 0 1 1 950.7389809559274 381.8361810931244"/><path fill="rgb(195, 122, 164)" stroke="none" paint-order="stroke fill markers" d=" M 910.2477547344272 443.09504050354326 A 18.95241469333314 18.95241469333314 0 1 1 910.2477452582207 443.07608809200866"/><path fill="rgb(197, 122, 160)" stroke="none" paint-order="stroke fill markers" d=" M 940.5048028992289 420.4934059357416 A 18.952414693333367 18.952414693333367 0 1 1 940.5047934230224 420.474453524207"/><path fill="rgb(197, 122, 160)" stroke="none" paint-order="stroke fill markers" d=" M 969.5724170932288 444.02503181689485 A 29.726666666666688 29.726666666666688 0 1 1 969.5724022298966 443.9953051551826"/><path fill="rgb(46, 158, 177)" stroke="none" paint-order="stroke fill markers" d=" M 924.4578274345574 490.62176623579865 A 29.72666666666646 29.72666666666646 0 1 1 924.4578125712253 490.5920395740864"/><path fill="rgb(46, 158, 177)" stroke="none" paint-order="stroke fill markers" d=" M 943.9989895505685 489.6079507637568 A 18.952414693333367 18.952414693333367 0 1 1 943.998980074362 489.5889983522222"/><path fill="rgb(51, 162, 129)" stroke="none" paint-order="stroke fill markers" d=" M 790.4793187134653 292.38401601612196 A 18.952414693333367 18.952414693333367 0 1 1 790.4793092372588 292.36506360458736"/><path fill="rgb(143, 213, 180)" stroke="none" paint-order="stroke fill markers" d=" M 818.7648689390462 264.89239479007506 A 18.952414693333367 18.952414693333367 0 1 1 818.7648594628397 264.87344237854046"/><path fill="rgb(195, 122, 165)" stroke="none" paint-order="stroke fill markers" d=" M 826.1516801881139 307.4325198884936 A 18.952414693333367 18.952414693333367 0 1 1 826.1516707119074 307.413567476959"/><path fill="rgb(195, 122, 165)" stroke="none" paint-order="stroke fill markers" d=" M 852.7162486006346 332.62036176590055 A 29.72666666666646 29.72666666666646 0 1 1 852.7162337373024 332.5906351041883"/><path fill="rgb(196, 122, 162)" stroke="none" paint-order="stroke fill markers" d=" M 792.6307836842193 332.27548210945713 A 18.952414693333367 18.952414693333367 0 1 1 792.6307742080128 332.25652969792253"/><path fill="rgb(196, 122, 162)" stroke="none" paint-order="stroke fill markers" d=" M 744.8175357148104 311.09700476889344 A 18.95241469333314 18.95241469333314 0 1 1 744.8175262386039 311.07805235735884"/><path fill="rgb(196, 122, 162)" stroke="none" paint-order="stroke fill markers" d=" M 773.212008136237 335.1095497122256 A 29.72666666666646 29.72666666666646 0 1 1 773.2119932729049 335.07982305051337"/><path fill="rgb(60, 162, 124)" stroke="none" paint-order="stroke fill markers" d=" M 779.2801706307648 379.5699476315407 A 18.95241469333314 18.95241469333314 0 1 1 779.2801611545583 379.5509952200061"/><path fill="rgb(53, 162, 128)" stroke="none" paint-order="stroke fill markers" d=" M 736.8873000482299 380.94569105153215 A 29.726666666666688 29.726666666666688 0 1 1 736.8872851848978 380.9159643898199"/><path fill="rgb(53, 162, 128)" stroke="none" paint-order="stroke fill markers" d=" M 744.7690051588647 404.20651409347767 A 18.952414693333367 18.952414693333367 0 1 1 744.7689956826582 404.18756168194307"/><path fill="rgb(197, 122, 157)" stroke="none" paint-order="stroke fill markers" d=" M 749.9155789830511 443.3264773529934 A 18.952414693333367 18.952414693333367 0 1 1 749.9155695068446 443.3075249414588"/><path fill="rgb(195, 122, 165)" stroke="none" paint-order="stroke fill markers" d=" M 812.854785951947 445.2867301967672 A 29.726666666666688 29.726666666666688 0 1 1 812.8547710886148 445.257003535055"/><path fill="rgb(195, 122, 165)" stroke="none" paint-order="stroke fill markers" d=" M 786.1733946238796 420.16850924324626 A 18.952414693333367 18.952414693333367 0 1 1 786.1733851476731 420.14955683171166"/><path fill="rgb(60, 162, 124)" stroke="none" paint-order="stroke fill markers" d=" M 820.3260106454209 377.6886871595956 A 29.72666666666646 29.72666666666646 0 1 1 820.3259957820887 377.65896049788336"/><path fill="rgb(60, 162, 124)" stroke="none" paint-order="stroke fill markers" d=" M 826.3627934148428 402.24380423092794 A 18.952414693333367 18.952414693333367 0 1 1 826.3627839386363 402.22485181939334"/><path fill="rgb(195, 122, 165)" stroke="none" paint-order="stroke fill markers" d=" M 832.4016133595871 444.44831499953125 A 18.952414693333367 18.952414693333367 0 1 1 832.4016038833806 444.42936258799665"/><path fill="rgb(143, 213, 180)" stroke="none" paint-order="stroke fill markers" d=" M 859.8657476947888 264.27202447271526 A 29.72666666666646 29.72666666666646 0 1 1 859.8657328314566 264.242297811003"/><path fill="rgb(244, 181, 209)" stroke="none" paint-order="stroke fill markers" d=" M 866.3967192056232 202.66684136443382 A 18.952414693333367 18.952414693333367 0 1 1 866.3967097294167 202.64788895289922"/><path fill="rgb(57, 162, 126)" stroke="none" paint-order="stroke fill markers" d=" M 903.7565184335997 157.91057083891883 A 29.726666666666688 29.726666666666688 0 1 1 903.7565035702676 157.8808441772066"/><path fill="rgb(57, 162, 126)" stroke="none" paint-order="stroke fill markers" d=" M 862.7754336280859 160.60193554921818 A 18.95241469333314 18.95241469333314 0 1 1 862.7754241518794 160.58298313768358"/><path fill="rgb(57, 162, 126)" stroke="none" paint-order="stroke fill markers" d=" M 825.2989029426669 155.07128891576872 A 29.72666666666646 29.72666666666646 0 1 1 825.2988880793348 155.0415622540565"/><path fill="rgb(57, 162, 126)" stroke="none" paint-order="stroke fill markers" d=" M 832.196161667523 179.0481620648278 A 18.952414693333367 18.952414693333367 0 1 1 832.1961521913165 179.0292096532932"/><path fill="rgb(194, 122, 168)" stroke="none" paint-order="stroke fill markers" d=" M 833.5603654024071 221.0536854025603 A 18.95241469333314 18.95241469333314 0 1 1 833.5603559262006 221.0347329910257"/><path fill="rgb(194, 122, 168)" stroke="none" paint-order="stroke fill markers" d=" M 814.0072695122444 220.46763838467666 A 29.72666666666646 29.72666666666646 0 1 1 814.0072546489123 220.43791172296443"/><path fill="rgb(194, 122, 168)" stroke="none" paint-order="stroke fill markers" d=" M 788.5912125180762 194.6319068798772 A 18.952414693333367 18.952414693333367 0 1 1 788.5912030418697 194.6129544683426"/><path fill="rgb(57, 162, 126)" stroke="none" paint-order="stroke fill markers" d=" M 784.3377444619423 157.96639115197172 A 18.952414693333367 18.952414693333367 0 1 1 784.3377349857358 157.94743874043712"/><path fill="rgb(58, 162, 125)" stroke="none" paint-order="stroke fill markers" d=" M 743.9157868115808 156.0321982938275 A 29.726666666666688 29.726666666666688 0 1 1 743.9157719482487 156.00247163211526"/><path fill="rgb(58, 162, 125)" stroke="none" paint-order="stroke fill markers" d=" M 750.3391020229403 180.33283246134647 A 18.95241469333314 18.95241469333314 0 1 1 750.3390925467338 180.31388004981187"/><path fill="rgb(195, 122, 164)" stroke="none" paint-order="stroke fill markers" d=" M 756.3587933195859 221.20491810211672 A 18.952414693333367 18.952414693333367 0 1 1 756.3587838433793 221.18596569058212"/><path fill="rgb(195, 122, 164)" stroke="none" paint-order="stroke fill markers" d=" M 736.824735519443 222.4029713430117 A 29.726666666666688 29.726666666666688 0 1 1 736.8247206561109 222.37324468129947"/><path fill="rgb(51, 162, 129)" stroke="none" paint-order="stroke fill markers" d=" M 741.7530921886096 273.27470399389574 A 18.952414693333367 18.952414693333367 0 1 1 741.753082712403 273.25575158236114"/><path fill="rgb(51, 162, 129)" stroke="none" paint-order="stroke fill markers" d=" M 782.5626708141003 269.1497392719037 A 29.726666666666688 29.726666666666688 0 1 1 782.5626559507682 269.12001261019145"/><path fill="rgb(74, 154, 186)" stroke="none" paint-order="stroke fill markers" d=" M 964.2010622112941 168.81615235086554 A 29.72666666666646 29.72666666666646 0 1 1 964.201047347962 168.7864256891533"/><path fill="rgb(57, 162, 126)" stroke="none" paint-order="stroke fill markers" d=" M 910.4823145299777 182.0060950294045 A 18.952414693333367 18.952414693333367 0 1 1 910.4823050537711 181.9871426178699"/><path fill="rgb(244, 181, 209)" stroke="none" paint-order="stroke fill markers" d=" M 915.9069438900308 219.76428354423354 A 18.95241469333314 18.95241469333314 0 1 1 915.9069344138243 219.74533113269894"/><path fill="rgb(74, 154, 186)" stroke="none" paint-order="stroke fill markers" d=" M 945.908488120311 197.3956547777052 A 18.952414693333367 18.952414693333367 0 1 1 945.9084786441044 197.3767023661706"/><path fill="rgb(233, 190, 162)" stroke="none" paint-order="stroke fill markers" d=" M 950.6038466526063 237.38687790111737 A 18.952414693333367 18.952414693333367 0 1 1 950.6038371763998 237.36792548958277"/><path fill="rgb(142, 209, 227)" stroke="none" paint-order="stroke fill markers" d=" M 951.1308032588306 272.70522870719446 A 18.952414693333367 18.952414693333367 0 1 1 951.1307937826241 272.68627629565987"/><path fill="rgb(142, 209, 227)" stroke="none" paint-order="stroke fill markers" d=" M 931.6432252884101 274.72954886301034 A 29.72666666666646 29.72666666666646 0 1 1 931.643210425078 274.6998222012981"/><path fill="rgb(244, 181, 209)" stroke="none" paint-order="stroke fill markers" d=" M 896.8510530199351 225.11528565194055 A 29.72666666666646 29.72666666666646 0 1 1 896.851038156603 225.08555899022832"/><path fill="rgb(143, 213, 180)" stroke="none" paint-order="stroke fill markers" d=" M 864.8072415715981 289.5039409705166 A 18.95241469333314 18.95241469333314 0 1 1 864.8072320953916 289.484988558982"/><path fill="rgb(194, 122, 169)" stroke="none" paint-order="stroke fill markers" d=" M 894.6849998167443 -0.9448630663649737 A 29.72666666666646 29.72666666666646 0 1 1 894.6849849534121 -0.9745897280772132"/><path fill="rgb(138, 210, 224)" stroke="none" paint-order="stroke fill markers" d=" M 908.4543851782951 72.44444538907646 A 18.952414693333367 18.952414693333367 0 1 1 908.4543757020886 72.42549297754185"/><path fill="rgb(138, 210, 224)" stroke="none" paint-order="stroke fill markers" d=" M 935.1292875122595 47.32233534780585 A 29.72666666666646 29.72666666666646 0 1 1 935.1292726489273 47.29260868609361"/><path fill="rgb(194, 122, 169)" stroke="none" paint-order="stroke fill markers" d=" M 914.2126497476852 0.39777704991001883 A 18.952414693333367 18.952414693333367 0 1 1 914.2126402714787 0.37882463837541014"/><path fill="rgb(138, 210, 224)" stroke="none" paint-order="stroke fill markers" d=" M 954.676332884263 48.15334236339845 A 18.952414693333367 18.952414693333367 0 1 1 954.6763234080565 48.134389951863845"/><path fill="rgb(194, 127, 122)" stroke="none" paint-order="stroke fill markers" d=" M 952.7850960957448 94.36568136098765 A 18.95241469333314 18.95241469333314 0 1 1 952.7850866195383 94.34672894945304"/><path fill="rgb(194, 127, 122)" stroke="none" paint-order="stroke fill markers" d=" M 942.7017053194616 115.78492165066791 A 29.726666666666688 29.726666666666688 0 1 1 942.7016904561294 115.75519498895567"/><path fill="rgb(197, 122, 157)" stroke="none" paint-order="stroke fill markers" d=" M 836.1197663039022 -6.81259531582009 A 18.952414693333367 18.952414693333367 0 1 1 836.1197568276957 -6.831547727354699"/><path fill="rgb(18, 160, 167)" stroke="none" paint-order="stroke fill markers" d=" M 824.7325598152836 64.80020888769809 A 18.952414693333367 18.952414693333367 0 1 1 824.7325503390771 64.78125647616348"/><path fill="rgb(40, 159, 175)" stroke="none" paint-order="stroke fill markers" d=" M 790.4349112786517 45.42286854494603 A 18.95241469333314 18.95241469333314 0 1 1 790.4349018024452 45.40391613341142"/><path fill="rgb(40, 159, 175)" stroke="none" paint-order="stroke fill markers" d=" M 744.4804684507992 70.18935447230456 A 18.952414693333367 18.952414693333367 0 1 1 744.4804589745927 70.17040206076994"/><path fill="rgb(40, 159, 175)" stroke="none" paint-order="stroke fill markers" d=" M 770.8805107025444 44.904654157126856 A 29.726666666666688 29.726666666666688 0 1 1 770.8804958392122 44.87492749541462"/><path fill="rgb(193, 129, 117)" stroke="none" paint-order="stroke fill markers" d=" M 741.6576867223089 107.12570328117818 A 18.952414693333367 18.952414693333367 0 1 1 741.6576772461024 107.10675086964356"/><path fill="rgb(193, 129, 117)" stroke="none" paint-order="stroke fill markers" d=" M 782.4672167233618 111.25100077694708 A 29.726666666666688 29.726666666666688 0 1 1 782.4672018600297 111.22127411523483"/><path fill="rgb(193, 129, 117)" stroke="none" paint-order="stroke fill markers" d=" M 790.3841370107386 88.01693264536596 A 18.95241469333314 18.95241469333314 0 1 1 790.3841275345321 87.99798023383134"/><path fill="rgb(189, 131, 107)" stroke="none" paint-order="stroke fill markers" d=" M 821.4940523639484 111.33182042453689 A 18.95241469333314 18.95241469333314 0 1 1 821.4940428877419 111.31286801300227"/><path fill="rgb(194, 127, 122)" stroke="none" paint-order="stroke fill markers" d=" M 902.4250252960858 108.92753629345918 A 18.95241469333314 18.95241469333314 0 1 1 902.4250158198793 108.90858388192457"/><path fill="rgb(189, 131, 107)" stroke="none" paint-order="stroke fill markers" d=" M 866.2028880405794 84.4954692324036 A 18.952414693333367 18.952414693333367 0 1 1 866.2028785643729 84.47651682086898"/><path fill="rgb(189, 131, 107)" stroke="none" paint-order="stroke fill markers" d=" M 862.5885511627214 110.4654044348564 A 29.72666666666646 29.72666666666646 0 1 1 862.5885362993893 110.43567777314415"/><path fill="rgb(18, 160, 167)" stroke="none" paint-order="stroke fill markers" d=" M 874.6281601490195 48.79742018772038 A 18.952414693333367 18.952414693333367 0 1 1 874.628150672813 48.77846777618577"/><path fill="rgb(18, 160, 167)" stroke="none" paint-order="stroke fill markers" d=" M 855.7045071681318 42.79089784108544 A 29.726666666666688 29.726666666666688 0 1 1 855.7044923047997 42.7611711793732"/><path fill="rgb(196, 122, 162)" stroke="none" paint-order="stroke fill markers" d=" M 735.0983219210082 -2.893204130957315 A 29.726666666666688 29.726666666666688 0 1 1 735.098307057676 -2.922930792669555"/><path fill="rgb(196, 122, 162)" stroke="none" paint-order="stroke fill markers" d=" M 754.5328032616376 -5.564306889349382 A 18.952414693333367 18.952414693333367 0 1 1 754.5327937854311 -5.583259300883991"/><path fill="rgb(197, 122, 157)" stroke="none" paint-order="stroke fill markers" d=" M 817.035736089734 -1.6121482187305674 A 29.726666666666688 29.726666666666688 0 1 1 817.0357212264018 -1.6418748804428072"/><path fill="rgb(241, 181, 218)" stroke="none" paint-order="stroke fill markers" d=" M 972.8842350744342 -2.6524608377233108 A 29.726666666666688 29.726666666666688 0 1 1 972.884220211102 -2.6821874994355506"/><path fill="rgb(196, 122, 163)" stroke="none" paint-order="stroke fill markers" d=" M 20.076048151477607 -10.777418095876556 A 18.95241469333331 18.95241469333331 0 1 1 20.07603867527105 -10.796370507411163"/><path fill="rgb(197, 122, 160)" stroke="none" paint-order="stroke fill markers" d=" M 83.11428631102433 -8.929529895379687 A 29.726666666666688 29.726666666666688 0 1 1 83.11427144769223 -8.959256557091926"/><path fill="rgb(191, 130, 112)" stroke="none" paint-order="stroke fill markers" d=" M 176.13189345767887 104.92994892844604 A 18.95241469333331 18.95241469333331 0 1 1 176.1318839814723 104.91099651691142"/><path fill="rgb(190, 130, 110)" stroke="none" paint-order="stroke fill markers" d=" M 141.45610963199738 76.27800583613111 A 18.95241469333331 18.95241469333331 0 1 1 141.4561001557908 76.2590534245965"/><path fill="rgb(190, 130, 110)" stroke="none" paint-order="stroke fill markers" d=" M 136.20017886269812 101.3221340208811 A 29.726666666666688 29.726666666666688 0 1 1 136.20016399936603 101.29240735916885"/><path fill="rgb(190, 130, 110)" stroke="none" paint-order="stroke fill markers" d=" M 95.109304657942 100.34304118089074 A 18.95241469333331 18.95241469333331 0 1 1 95.10929518173545 100.32408876935612"/><path fill="rgb(34, 159, 172)" stroke="none" paint-order="stroke fill markers" d=" M 120.79740170048342 37.600310789017385 A 29.726666666666688 29.726666666666688 0 1 1 120.79738683715132 37.570584127305146"/><path fill="rgb(34, 159, 172)" stroke="none" paint-order="stroke fill markers" d=" M 140.2555458357424 40.00487887619602 A 18.95241469333331 18.95241469333331 0 1 1 140.25553635953582 39.98592646466141"/><path fill="rgb(40, 159, 175)" stroke="none" paint-order="stroke fill markers" d=" M 43.49008615217463 38.29793137759498 A 29.726666666666688 29.726666666666688 0 1 1 43.49007128884253 38.26820471588274"/><path fill="rgb(40, 159, 175)" stroke="none" paint-order="stroke fill markers" d=" M 63.041004116850445 38.982310055831704 A 18.95241469333331 18.95241469333331 0 1 1 63.04099464064389 38.9633576442971"/><path fill="rgb(34, 159, 172)" stroke="none" paint-order="stroke fill markers" d=" M 92.76570996272517 61.860764161690895 A 18.95241469333331 18.95241469333331 0 1 1 92.76570048651861 61.84181175015629"/><path fill="rgb(191, 130, 113)" stroke="none" paint-order="stroke fill markers" d=" M 55.10395537312036 105.84444580952447 A 29.726666666666688 29.726666666666688 0 1 1 55.10394050978826 105.81471914781223"/><path fill="rgb(191, 130, 113)" stroke="none" paint-order="stroke fill markers" d=" M 61.357888132515825 81.43125414593817 A 18.95241469333331 18.95241469333331 0 1 1 61.35787865630927 81.41230173440356"/><path fill="rgb(191, 130, 113)" stroke="none" paint-order="stroke fill markers" d=" M 14.07592257485777 103.70933403349011 A 18.95241469333331 18.95241469333331 0 1 1 14.075913098651213 103.6903816219555"/><path fill="rgb(40, 159, 175)" stroke="none" paint-order="stroke fill markers" d=" M 16.943817229925912 63.49661594267195 A 18.95241469333331 18.95241469333331 0 1 1 16.943807753719355 63.477663531137345"/><path fill="rgb(197, 122, 160)" stroke="none" paint-order="stroke fill markers" d=" M 102.41920637256999 -12.740373129384693 A 18.95241469333331 18.95241469333331 0 1 1 102.41919689636343 -12.759325540919301"/><path fill="rgb(196, 122, 162)" stroke="none" paint-order="stroke fill markers" d=" M 169.54197437275133 -5.2816254867882435 A 29.726666666666688 29.726666666666688 0 1 1 169.54195950941923 -5.311352148500483"/><path fill="rgb(196, 122, 162)" stroke="none" paint-order="stroke fill markers" d=" M 188.98349513303566 -7.876335481488809 A 18.95241469333331 18.95241469333331 0 1 1 188.9834856568291 -7.895287893023418"/><path fill="rgb(34, 159, 172)" stroke="none" paint-order="stroke fill markers" d=" M 179.52107808431515 63.15730144993552 A 18.95241469333331 18.95241469333331 0 1 1 179.52106860810858 63.13834903840091"/><path fill="rgb(34, 159, 172)" stroke="none" paint-order="stroke fill markers" d=" M 207.45757729395444 38.83306094475802 A 29.72666666666663 29.72666666666663 0 1 1 207.45756243062235 38.80333428304578"/><path fill="rgb(191, 130, 112)" stroke="none" paint-order="stroke fill markers" d=" M 217.1916527390867 106.58586702359662 A 29.726666666666688 29.726666666666688 0 1 1 217.1916378757546 106.55614036188437"/><path fill="rgb(196, 122, 163)" stroke="none" paint-order="stroke fill markers" d=" M 508.4432481821014 -4.198457997977016 A 18.952414693333367 18.952414693333367 0 1 1 508.4432387058948 -4.217410409511625"/><path fill="rgb(196, 122, 163)" stroke="none" paint-order="stroke fill markers" d=" M 488.95521552768565 -2.180566656230667 A 29.726666666666688 29.726666666666688 0 1 1 488.9552006643536 -2.2102933179429067"/><path fill="rgb(196, 122, 162)" stroke="none" paint-order="stroke fill markers" d=" M 675.3503930069696 -2.995831865357218 A 18.952414693333367 18.952414693333367 0 1 1 675.3503835307631 -3.0147842768918265"/><path fill="rgb(196, 122, 163)" stroke="none" paint-order="stroke fill markers" d=" M 592.5373548968323 -5.627561958892898 A 18.952414693333367 18.952414693333367 0 1 1 592.5373454206258 -5.646514370427506"/><path fill="rgb(196, 122, 163)" stroke="none" paint-order="stroke fill markers" d=" M 573.0559650268551 -3.5175346259793514 A 29.726666666666688 29.726666666666688 0 1 1 573.055950163523 -3.547261287691591"/><path fill="rgb(190, 130, 111)" stroke="none" paint-order="stroke fill markers" d=" M 548.3643503310152 86.77052052552676 A 18.952414693333367 18.952414693333367 0 1 1 548.3643408548087 86.75156811399215"/><path fill="rgb(188, 132, 106)" stroke="none" paint-order="stroke fill markers" d=" M 581.7924048322038 114.22157129160257 A 18.952414693333367 18.952414693333367 0 1 1 581.7923953559973 114.20261888006796"/><path fill="rgb(188, 132, 106)" stroke="none" paint-order="stroke fill markers" d=" M 622.8672654560071 112.851657002769 A 29.726666666666688 29.726666666666688 0 1 1 622.867250592675 112.82193034105676"/><path fill="rgb(188, 132, 106)" stroke="none" paint-order="stroke fill markers" d=" M 626.0234233603371 86.64651257324329 A 18.95241469333314 18.95241469333314 0 1 1 626.0234138841306 86.62756016170867"/><path fill="rgb(190, 130, 110)" stroke="none" paint-order="stroke fill markers" d=" M 660.0653989983207 112.23687691712189 A 18.952414693333367 18.952414693333367 0 1 1 660.0653895221142 112.21792450558728"/><path fill="rgb(190, 130, 110)" stroke="none" paint-order="stroke fill markers" d=" M 701.1678524382803 112.77944406101767 A 29.726666666666688 29.726666666666688 0 1 1 701.1678375749482 112.74971739930542"/><path fill="rgb(190, 130, 110)" stroke="none" paint-order="stroke fill markers" d=" M 706.0408513519617 87.50730058100339 A 18.952414693333367 18.952414693333367 0 1 1 706.0408418757552 87.48834816946878"/><path fill="rgb(34, 159, 172)" stroke="none" paint-order="stroke fill markers" d=" M 663.4724000460983 68.48756109832243 A 18.952414693333367 18.952414693333367 0 1 1 663.4723905698918 68.46860868678782"/><path fill="rgb(34, 159, 172)" stroke="none" paint-order="stroke fill markers" d=" M 691.6142492732788 44.30156848452111 A 29.726666666666688 29.726666666666688 0 1 1 691.6142344099467 44.271841822808874"/><path fill="rgb(34, 159, 172)" stroke="none" paint-order="stroke fill markers" d=" M 711.0611660088584 46.836144121685265 A 18.952414693333367 18.952414693333367 0 1 1 711.0611565326519 46.81719171015066"/><path fill="rgb(196, 122, 162)" stroke="none" paint-order="stroke fill markers" d=" M 655.912821634699 -0.3579988857571834 A 29.726666666666688 29.726666666666688 0 1 1 655.9128067713668 -0.3877255474694231"/><path fill="rgb(44, 158, 176)" stroke="none" paint-order="stroke fill markers" d=" M 630.4320358794796 44.88534996604244 A 18.95241469333314 18.95241469333314 0 1 1 630.4320264032731 44.866397554507834"/><path fill="rgb(44, 158, 176)" stroke="none" paint-order="stroke fill markers" d=" M 610.8734373900263 45.05193033664716 A 29.726666666666688 29.726666666666688 0 1 1 610.8734225266942 45.02220367493492"/><path fill="rgb(44, 158, 176)" stroke="none" paint-order="stroke fill markers" d=" M 468.9955799055098 46.55053314553504 A 18.952414693333253 18.952414693333253 0 1 1 468.99557042930326 46.531580734000435"/><path fill="rgb(44, 158, 176)" stroke="none" paint-order="stroke fill markers" d=" M 449.43881105094255 46.91472568805307 A 29.726666666666688 29.726666666666688 0 1 1 449.4387961876105 46.88499902634083"/><path fill="rgb(44, 158, 176)" stroke="none" paint-order="stroke fill markers" d=" M 423.82335822493263 72.6426236661066 A 18.952414693333367 18.952414693333367 0 1 1 423.82334874872606 72.62367125457199"/><path fill="rgb(50, 157, 178)" stroke="none" paint-order="stroke fill markers" d=" M 366.37452228610647 46.52194691637226 A 29.726666666666688 29.726666666666688 0 1 1 366.3745074227744 46.49222025466002"/><path fill="rgb(50, 157, 178)" stroke="none" paint-order="stroke fill markers" d=" M 385.86056477401104 44.47600742470138 A 18.952414693333367 18.952414693333367 0 1 1 385.86055529780447 44.45705501316677"/><path fill="rgb(190, 130, 111)" stroke="none" paint-order="stroke fill markers" d=" M 386.910260985354 85.69658669379646 A 18.952414693333253 18.952414693333253 0 1 1 386.91025150914743 85.67763428226185"/><path fill="rgb(190, 130, 111)" stroke="none" paint-order="stroke fill markers" d=" M 381.4015635136256 110.586005750656 A 29.726666666666688 29.726666666666688 0 1 1 381.40154865029353 110.55627908894375"/><path fill="rgb(188, 132, 106)" stroke="none" paint-order="stroke fill markers" d=" M 421.2754996707503 115.07748023514671 A 18.952414693333367 18.952414693333367 0 1 1 421.27549019454375 115.0585278236121"/><path fill="rgb(188, 132, 106)" stroke="none" paint-order="stroke fill markers" d=" M 465.65213117432705 87.72458527727701 A 18.952414693333367 18.952414693333367 0 1 1 465.6521216981205 87.7056328657424"/><path fill="rgb(188, 132, 106)" stroke="none" paint-order="stroke fill markers" d=" M 462.35722176038 113.85952792477099 A 29.726666666666688 29.726666666666688 0 1 1 462.35720689704794 113.82980126305874"/><path fill="rgb(190, 130, 111)" stroke="none" paint-order="stroke fill markers" d=" M 542.6213912400653 111.51351491117953 A 29.726666666666688 29.726666666666688 0 1 1 542.6213763767332 111.48378824946728"/><path fill="rgb(190, 130, 111)" stroke="none" paint-order="stroke fill markers" d=" M 501.5551592368916 109.97366357605006 A 18.952414693333367 18.952414693333367 0 1 1 501.555149760685 109.95471116451544"/><path fill="rgb(46, 158, 177)" stroke="none" paint-order="stroke fill markers" d=" M 529.8959282687235 44.21743409208386 A 29.72666666666663 29.72666666666663 0 1 1 529.8959134053914 44.187707430371624"/><path fill="rgb(46, 158, 177)" stroke="none" paint-order="stroke fill markers" d=" M 504.4825127680792 70.05458070105578 A 18.952414693333367 18.952414693333367 0 1 1 504.4825032918726 70.03562828952117"/><path fill="rgb(46, 158, 177)" stroke="none" paint-order="stroke fill markers" d=" M 549.4489626093039 43.62845689417736 A 18.952414693333367 18.952414693333367 0 1 1 549.4489531330973 43.609504482642755"/><path fill="rgb(44, 158, 176)" stroke="none" paint-order="stroke fill markers" d=" M 585.0811001458878 70.68256508763034 A 18.952414693333367 18.952414693333367 0 1 1 585.0810906696813 70.66361267609572"/><path fill="rgb(196, 122, 162)" stroke="none" paint-order="stroke fill markers" d=" M 300.59291345871185 -23.42516225201723 A 18.952414693333367 18.952414693333367 0 1 1 300.5929039825053 -23.44411466355184"/><path fill="rgb(196, 122, 162)" stroke="none" paint-order="stroke fill markers" d=" M 348.5539662493829 -2.565168070172149 A 18.952414693333253 18.952414693333253 0 1 1 348.5539567731763 -2.5841204817067576"/><path fill="rgb(195, 122, 165)" stroke="none" paint-order="stroke fill markers" d=" M 407.2199285791755 -4.976416061921896 A 29.726666666666688 29.726666666666688 0 1 1 407.2199137158434 -5.006142723634135"/><path fill="rgb(195, 122, 165)" stroke="none" paint-order="stroke fill markers" d=" M 426.76761040173966 -5.785094292387839 A 18.952414693333253 18.952414693333253 0 1 1 426.7676009255331 -5.804046703922448"/><path fill="rgb(196, 122, 162)" stroke="none" paint-order="stroke fill markers" d=" M 329.1558237732169 0.4696365431976801 A 29.726666666666688 29.726666666666688 0 1 1 329.15580890988485 0.4399098814854404"/><path fill="rgb(38, 159, 174)" stroke="none" paint-order="stroke fill markers" d=" M 286.43076404005734 45.436550843625355 A 29.726666666666688 29.726666666666688 0 1 1 286.43074917672527 45.406824181913116"/><path fill="rgb(38, 159, 174)" stroke="none" paint-order="stroke fill markers" d=" M 259.1819930178431 70.20645079485212 A 18.952414693333253 18.952414693333253 0 1 1 259.18198354163655 70.1874983833175"/><path fill="rgb(34, 159, 172)" stroke="none" paint-order="stroke fill markers" d=" M 226.92492681855737 41.12556148683734 A 18.952414693333367 18.952414693333367 0 1 1 226.9249173423508 41.106609075302735"/><path fill="rgb(194, 122, 168)" stroke="none" paint-order="stroke fill markers" d=" M 249.6923215898742 -3.5055036339902017 A 29.726666666666688 29.726666666666688 0 1 1 249.6923067265421 -3.5352302957024415"/><path fill="rgb(194, 122, 168)" stroke="none" paint-order="stroke fill markers" d=" M 269.23426091902496 -2.5138946217099374 A 18.952414693333253 18.952414693333253 0 1 1 269.2342514428184 -2.532847033244546"/><path fill="rgb(23, 160, 169)" stroke="none" paint-order="stroke fill markers" d=" M 336.33963682533425 290.2147534249762 A 18.952414693333253 18.952414693333253 0 1 1 336.3396273491277 290.1958010134416"/><path fill="rgb(196, 122, 162)" stroke="none" paint-order="stroke fill markers" d=" M 326.1308141845969 222.80341438499192 A 29.726666666666688 29.726666666666688 0 1 1 326.1307993212648 222.7736877232797"/><path fill="rgb(196, 122, 162)" stroke="none" paint-order="stroke fill markers" d=" M 297.718588954435 198.80319591895818 A 18.952414693333367 18.952414693333367 0 1 1 297.71857947822843 198.78424350742358"/><path fill="rgb(65, 161, 121)" stroke="none" paint-order="stroke fill markers" d=" M 342.813060406749 178.80959967551826 A 18.952414693333253 18.952414693333253 0 1 1 342.81305093054243 178.79064726398366"/><path fill="rgb(65, 161, 121)" stroke="none" paint-order="stroke fill markers" d=" M 338.22790787179275 153.37099300659224 A 29.726666666666688 29.726666666666688 0 1 1 338.2278930084607 153.34126634488"/><path fill="rgb(65, 161, 121)" stroke="none" paint-order="stroke fill markers" d=" M 297.1211445350454 153.58789620186167 A 18.952414693333367 18.952414693333367 0 1 1 297.12113505883883 153.56894379032707"/><path fill="rgb(63, 162, 122)" stroke="none" paint-order="stroke fill markers" d=" M 260.0163508700952 180.1547867477858 A 18.952414693333367 18.952414693333367 0 1 1 260.01634139388864 180.1358343362512"/><path fill="rgb(195, 122, 165)" stroke="none" paint-order="stroke fill markers" d=" M 262.42587162315016 221.62839355008816 A 18.952414693333253 18.952414693333253 0 1 1 262.4258621469436 221.60944113855356"/><path fill="rgb(63, 162, 122)" stroke="none" paint-order="stroke fill markers" d=" M 254.80953782727846 155.08098532116162 A 29.726666666666574 29.726666666666574 0 1 1 254.80952296394636 155.0512586594494"/><path fill="rgb(191, 130, 112)" stroke="none" paint-order="stroke fill markers" d=" M 223.0347317016604 81.90635754801849 A 18.952414693333253 18.952414693333253 0 1 1 223.03472222545383 81.88740513648388"/><path fill="rgb(193, 129, 117)" stroke="none" paint-order="stroke fill markers" d=" M 256.1994388155625 105.78963234216621 A 18.952414693333367 18.952414693333367 0 1 1 256.1994293393559 105.7706799306316"/><path fill="rgb(190, 130, 111)" stroke="none" paint-order="stroke fill markers" d=" M 340.32207290628236 109.31666979309637 A 18.952414693333367 18.952414693333367 0 1 1 340.3220634300758 109.29771738156175"/><path fill="rgb(193, 129, 117)" stroke="none" paint-order="stroke fill markers" d=" M 305.1013311512376 87.10955787284763 A 18.952414693333367 18.952414693333367 0 1 1 305.10132167503104 87.09060546131302"/><path fill="rgb(193, 129, 117)" stroke="none" paint-order="stroke fill markers" d=" M 296.9694399232031 110.17853233442452 A 29.726666666666688 29.726666666666688 0 1 1 296.969425059871 110.14880567271227"/><path fill="rgb(38, 159, 174)" stroke="none" paint-order="stroke fill markers" d=" M 305.95110441291325 46.92699424164948 A 18.952414693333253 18.952414693333253 0 1 1 305.9510949367067 46.908041830114875"/><path fill="rgb(50, 157, 178)" stroke="none" paint-order="stroke fill markers" d=" M 342.2920121731474 73.03115179906308 A 18.952414693333253 18.952414693333253 0 1 1 342.2920026969408 73.01219938752847"/><path fill="rgb(192, 129, 114)" stroke="none" paint-order="stroke fill markers" d=" M 332.0009551271556 330.402045678391 A 18.952414693333253 18.952414693333253 0 1 1 332.000945650949 330.3830932668564"/><path fill="rgb(192, 129, 116)" stroke="none" paint-order="stroke fill markers" d=" M 299.8695729882933 308.2128424995995 A 18.952414693333253 18.952414693333253 0 1 1 299.86956351208676 308.1938900880649"/><path fill="rgb(60, 162, 124)" stroke="none" paint-order="stroke fill markers" d=" M 332.95188077445135 379.0461581562583 A 29.726666666666688 29.726666666666688 0 1 1 332.9518659111193 379.01643149454605"/><path fill="rgb(60, 162, 124)" stroke="none" paint-order="stroke fill markers" d=" M 338.94001529840654 403.63271131217243 A 18.952414693333253 18.952414693333253 0 1 1 338.94000582219996 403.61375890063783"/><path fill="rgb(195, 122, 165)" stroke="none" paint-order="stroke fill markers" d=" M 294.1665994427114 423.28896459755947 A 18.952414693333253 18.952414693333253 0 1 1 294.16658996650483 423.27001218602487"/><path fill="rgb(60, 162, 124)" stroke="none" paint-order="stroke fill markers" d=" M 291.90237120545095 380.87072684123115 A 18.952414693333367 18.952414693333367 0 1 1 291.9023617292444 380.85177442969655"/><path fill="rgb(58, 162, 125)" stroke="none" paint-order="stroke fill markers" d=" M 259.1270761236195 401.7402764237219 A 18.952414693333253 18.952414693333253 0 1 1 259.1270666474129 401.7213240121873"/><path fill="rgb(196, 122, 163)" stroke="none" paint-order="stroke fill markers" d=" M 260.70607813887256 441.5090614444825 A 18.952414693333367 18.952414693333367 0 1 1 260.706068662666 441.4901090329479"/><path fill="rgb(196, 122, 163)" stroke="none" paint-order="stroke fill markers" d=" M 241.24611813732173 443.89195814008326 A 29.726666666666745 29.726666666666745 0 1 1 241.24610327398963 443.86223147837103"/><path fill="rgb(58, 162, 125)" stroke="none" paint-order="stroke fill markers" d=" M 252.8709090650977 377.3285594204815 A 29.726666666666688 29.726666666666688 0 1 1 252.8708942017656 377.29883275876927"/><path fill="rgb(192, 129, 116)" stroke="none" paint-order="stroke fill markers" d=" M 251.42342345427556 327.98420843673733 A 18.952414693333367 18.952414693333367 0 1 1 251.423413978069 327.96525602520273"/><path fill="rgb(192, 129, 116)" stroke="none" paint-order="stroke fill markers" d=" M 292.2894807509013 331.6995154546544 A 29.726666666666688 29.726666666666688 0 1 1 292.28946588756924 331.66978879294214"/><path fill="rgb(195, 122, 165)" stroke="none" paint-order="stroke fill markers" d=" M 242.8838454096918 222.6175092104031 A 29.72666666666663 29.72666666666663 0 1 1 242.8838305463597 222.58778254869088"/><path fill="rgb(27, 160, 170)" stroke="none" paint-order="stroke fill markers" d=" M 285.6525357307722 267.2482311975019 A 29.726666666666688 29.726666666666688 0 1 1 285.6525208674401 267.2185045357897"/><path fill="rgb(27, 160, 170)" stroke="none" paint-order="stroke fill markers" d=" M 256.47541986316463 290.69896557111167 A 18.952414693333367 18.952414693333367 0 1 1 256.47541038695806 290.6800131595771"/><path fill="rgb(27, 160, 170)" stroke="none" paint-order="stroke fill markers" d=" M 304.9623455436251 271.0223738681357 A 18.952414693333253 18.952414693333253 0 1 1 304.9623360674185 271.0034214566011"/><path fill="rgb(23, 160, 169)" stroke="none" paint-order="stroke fill markers" d=" M 385.67968144742866 272.65818476566034 A 18.952414693333367 18.952414693333367 0 1 1 385.6796719712221 272.63923235412574"/><path fill="rgb(40, 159, 175)" stroke="none" paint-order="stroke fill markers" d=" M 419.6791301574987 295.70185332657775 A 18.952414693333253 18.952414693333253 0 1 1 419.67912068129215 295.68290091504315"/><path fill="rgb(40, 159, 175)" stroke="none" paint-order="stroke fill markers" d=" M 446.50802833777817 270.6725521331975 A 29.726666666666574 29.726666666666574 0 1 1 446.5080134744461 270.64282547148525"/><path fill="rgb(196, 122, 163)" stroke="none" paint-order="stroke fill markers" d=" M 423.3094338395237 222.2242509232675 A 18.952414693333367 18.952414693333367 0 1 1 423.30942436331713 222.2052985117329"/><path fill="rgb(40, 159, 175)" stroke="none" paint-order="stroke fill markers" d=" M 466.04942674567843 271.67966262875626 A 18.952414693333367 18.952414693333367 0 1 1 466.04941726947186 271.66071021722166"/><path fill="rgb(192, 129, 116)" stroke="none" paint-order="stroke fill markers" d=" M 462.99631476247697 317.26944363957045 A 18.952414693333367 18.952414693333367 0 1 1 462.9963052862704 317.25049122803586"/><path fill="rgb(192, 129, 116)" stroke="none" paint-order="stroke fill markers" d=" M 414.6262513615812 337.2162304243348 A 18.952414693333367 18.952414693333367 0 1 1 414.6262418853746 337.1972780128002"/><path fill="rgb(192, 129, 116)" stroke="none" paint-order="stroke fill markers" d=" M 455.5063359351346 340.8224662139573 A 29.726666666666688 29.726666666666688 0 1 1 455.5063210718025 340.79273955224505"/><path fill="rgb(48, 162, 131)" stroke="none" paint-order="stroke fill markers" d=" M 449.4520114281922 389.9884614730554 A 18.952414693333367 18.952414693333367 0 1 1 449.4520019519856 389.9695090615208"/><path fill="rgb(197, 122, 160)" stroke="none" paint-order="stroke fill markers" d=" M 450.3859333190091 428.2133693485662 A 18.952414693333253 18.952414693333253 0 1 1 450.3859238428025 428.1944169370316"/><path fill="rgb(73, 161, 116)" stroke="none" paint-order="stroke fill markers" d=" M 412.3544663037972 409.8489656492918 A 18.952414693333367 18.952414693333367 0 1 1 412.35445682759064 409.8300132377572"/><path fill="rgb(73, 161, 116)" stroke="none" paint-order="stroke fill markers" d=" M 410.14061682981213 383.189994571047 A 29.726666666666688 29.726666666666688 0 1 1 410.14060196648006 383.1602679093348"/><path fill="rgb(194, 122, 168)" stroke="none" paint-order="stroke fill markers" d=" M 372.40709535684465 423.1728441880934 A 18.952414693333367 18.952414693333367 0 1 1 372.4070858806381 423.1538917765588"/><path fill="rgb(73, 161, 116)" stroke="none" paint-order="stroke fill markers" d=" M 369.13278323527567 380.7995240669232 A 18.952414693333367 18.952414693333367 0 1 1 369.1327737590691 380.7805716553886"/><path fill="rgb(192, 129, 114)" stroke="none" paint-order="stroke fill markers" d=" M 379.892314910681 309.3911518899072 A 18.952414693333367 18.952414693333367 0 1 1 379.89230543447445 309.3721994783726"/><path fill="rgb(192, 129, 114)" stroke="none" paint-order="stroke fill markers" d=" M 372.95754631273786 333.34183460867325 A 29.726666666666688 29.726666666666688 0 1 1 372.9575314494058 333.312107946961"/><path fill="rgb(27, 160, 170)" stroke="none" paint-order="stroke fill markers" d=" M 544.838549767592 278.11117609216626 A 18.952414693333367 18.952414693333367 0 1 1 544.8385402913855 278.09222368063166"/><path fill="rgb(196, 122, 163)" stroke="none" paint-order="stroke fill markers" d=" M 570.4121760420269 227.46685890896356 A 29.726666666666688 29.726666666666688 0 1 1 570.4121611786948 227.43713224725133"/><path fill="rgb(196, 122, 163)" stroke="none" paint-order="stroke fill markers" d=" M 511.029967349631 223.7057504286464 A 18.952414693333253 18.952414693333253 0 1 1 511.02995787342445 223.6867980171118"/><path fill="rgb(27, 160, 170)" stroke="none" paint-order="stroke fill markers" d=" M 525.5467128531748 274.2039255326809 A 29.726666666666745 29.726666666666745 0 1 1 525.5466979898426 274.17419887096867"/><path fill="rgb(196, 122, 163)" stroke="none" paint-order="stroke fill markers" d=" M 491.58629817838784 226.276692441038 A 29.726666666666688 29.726666666666688 0 1 1 491.58628331505577 226.24696577932576"/><path fill="rgb(62, 162, 123)" stroke="none" paint-order="stroke fill markers" d=" M 507.7550746295357 186.19993718829585 A 18.952414693333367 18.952414693333367 0 1 1 507.75506515332916 186.18098477676125"/><path fill="rgb(62, 162, 123)" stroke="none" paint-order="stroke fill markers" d=" M 502.0822473495337 161.41279455054462 A 29.726666666666688 29.726666666666688 0 1 1 502.08223248620163 161.3830678888324"/><path fill="rgb(62, 162, 123)" stroke="none" paint-order="stroke fill markers" d=" M 461.01176822099234 162.87150497838377 A 18.952414693333253 18.952414693333253 0 1 1 461.01175874478577 162.85255256684917"/><path fill="rgb(196, 122, 163)" stroke="none" paint-order="stroke fill markers" d=" M 463.41368900614935 202.11161802814274 A 18.952414693333253 18.952414693333253 0 1 1 463.4136795299428 202.09266561660814"/><path fill="rgb(60, 162, 124)" stroke="none" paint-order="stroke fill markers" d=" M 426.2330572034237 184.33096094545692 A 18.952414693333253 18.952414693333253 0 1 1 426.2330477272171 184.31200853392232"/><path fill="rgb(60, 162, 124)" stroke="none" paint-order="stroke fill markers" d=" M 420.4201822539514 159.63223955572562 A 29.726666666666688 29.726666666666688 0 1 1 420.4201673906193 159.6025128940134"/><path fill="rgb(60, 162, 124)" stroke="none" paint-order="stroke fill markers" d=" M 379.35841788135855 161.25311476828767 A 18.952414693333367 18.952414693333367 0 1 1 379.358408405152 161.23416235675307"/><path fill="rgb(196, 122, 162)" stroke="none" paint-order="stroke fill markers" d=" M 345.54748903246553 219.94823169128915 A 18.952414693333367 18.952414693333367 0 1 1 345.54747955625896 219.92927927975455"/><path fill="rgb(196, 122, 163)" stroke="none" paint-order="stroke fill markers" d=" M 376.4080842374113 199.19778719287046 A 18.952414693333253 18.952414693333253 0 1 1 376.4080747612047 199.17883478133587"/><path fill="rgb(196, 122, 163)" stroke="none" paint-order="stroke fill markers" d=" M 403.7980703073309 223.87831493409396 A 29.726666666666688 29.726666666666688 0 1 1 403.7980554439988 223.84858827238173"/><path fill="rgb(23, 160, 169)" stroke="none" paint-order="stroke fill markers" d=" M 366.57259838909084 267.5845231664801 A 29.726666666666688 29.726666666666688 0 1 1 366.5725835257588 267.55479650476786"/><path fill="rgb(197, 122, 159)" stroke="none" paint-order="stroke fill markers" d=" M 656.5073532133686 226.8367049624958 A 29.726666666666688 29.726666666666688 0 1 1 656.5073383500364 226.80697830078356"/><path fill="rgb(63, 162, 122)" stroke="none" paint-order="stroke fill markers" d=" M 661.1316857610695 276.01945696831365 A 18.952414693333367 18.952414693333367 0 1 1 661.131676284863 276.00050455677905"/><path fill="rgb(63, 162, 122)" stroke="none" paint-order="stroke fill markers" d=" M 702.2338111973017 275.4597767993606 A 29.726666666666688 29.726666666666688 0 1 1 702.2337963339696 275.4300501376484"/><path fill="rgb(197, 122, 159)" stroke="none" paint-order="stroke fill markers" d=" M 675.700266262083 222.26684170446447 A 18.952414693333367 18.952414693333367 0 1 1 675.7002567858765 222.24788929292987"/><path fill="rgb(195, 122, 164)" stroke="none" paint-order="stroke fill markers" d=" M 709.8294750878395 197.47532436102392 A 18.952414693333367 18.952414693333367 0 1 1 709.8294656116329 197.45637194948932"/><path fill="rgb(58, 162, 125)" stroke="none" paint-order="stroke fill markers" d=" M 702.9032948408824 158.36625052534373 A 18.95241469333314 18.95241469333314 0 1 1 702.9032853646759 158.34729811380913"/><path fill="rgb(48, 162, 131)" stroke="none" paint-order="stroke fill markers" d=" M 670.3846805607816 180.87639895718087 A 18.952414693333367 18.952414693333367 0 1 1 670.3846710845751 180.85744654564627"/><path fill="rgb(48, 162, 131)" stroke="none" paint-order="stroke fill markers" d=" M 661.3722436034177 158.5167663085657 A 29.726666666666688 29.726666666666688 0 1 1 661.3722287400856 158.48703964685348"/><path fill="rgb(197, 122, 159)" stroke="none" paint-order="stroke fill markers" d=" M 626.6801040711678 203.88228650106953 A 18.952414693333367 18.952414693333367 0 1 1 626.6800945949612 203.86333408953493"/><path fill="rgb(48, 162, 131)" stroke="none" paint-order="stroke fill markers" d=" M 620.7936316425521 164.0019629843755 A 18.952414693333367 18.952414693333367 0 1 1 620.7936221663456 163.9830105728409"/><path fill="rgb(73, 161, 116)" stroke="none" paint-order="stroke fill markers" d=" M 582.588089502086 160.42592215602838 A 29.726666666666688 29.726666666666688 0 1 1 582.5880746387538 160.39619549431615"/><path fill="rgb(73, 161, 116)" stroke="none" paint-order="stroke fill markers" d=" M 541.5653199350177 158.22140015328682 A 18.95241469333314 18.95241469333314 0 1 1 541.5653104588112 158.20244774175222"/><path fill="rgb(196, 122, 163)" stroke="none" paint-order="stroke fill markers" d=" M 542.6954411704808 202.99733683529905 A 18.952414693333367 18.952414693333367 0 1 1 542.6954316942742 202.97838442376445"/><path fill="rgb(73, 161, 116)" stroke="none" paint-order="stroke fill markers" d=" M 584.9749928967472 187.0044978734852 A 18.95241469333314 18.95241469333314 0 1 1 584.9749834205406 186.9855454619506"/><path fill="rgb(196, 122, 163)" stroke="none" paint-order="stroke fill markers" d=" M 589.8990161699273 225.43209312750253 A 18.952414693333367 18.952414693333367 0 1 1 589.8990066937208 225.41314071596793"/><path fill="rgb(68, 161, 119)" stroke="none" paint-order="stroke fill markers" d=" M 582.197169351077 271.32480874061855 A 18.952414693333367 18.952414693333367 0 1 1 582.1971598748705 271.30585632908395"/><path fill="rgb(195, 122, 164)" stroke="none" paint-order="stroke fill markers" d=" M 534.2957998095835 423.7653410309465 A 18.952414693333367 18.952414693333367 0 1 1 534.295790333377 423.7463886194119"/><path fill="rgb(65, 161, 121)" stroke="none" paint-order="stroke fill markers" d=" M 576.1436228972775 408.3752649155902 A 18.952414693333367 18.952414693333367 0 1 1 576.143613421071 408.3563125040556"/><path fill="rgb(197, 122, 157)" stroke="none" paint-order="stroke fill markers" d=" M 614.0629595445175 428.5891016464055 A 18.952414693333367 18.952414693333367 0 1 1 614.062950068311 428.5701492348709"/><path fill="rgb(51, 162, 129)" stroke="none" paint-order="stroke fill markers" d=" M 610.1619020028072 386.9615844823888 A 18.952414693333367 18.952414693333367 0 1 1 610.1618925266007 386.9426320708542"/><path fill="rgb(51, 162, 129)" stroke="none" paint-order="stroke fill markers" d=" M 650.9513735376308 382.7004407114777 A 29.726666666666688 29.726666666666688 0 1 1 650.9513586742987 382.6707140497655"/><path fill="rgb(197, 122, 157)" stroke="none" paint-order="stroke fill markers" d=" M 700.3374599927834 426.4161418191496 A 18.952414693333367 18.952414693333367 0 1 1 700.3374505165768 426.397189407615"/><path fill="rgb(53, 162, 128)" stroke="none" paint-order="stroke fill markers" d=" M 696.0715539138653 385.0279534701025 A 18.95241469333314 18.95241469333314 0 1 1 696.0715444376588 385.0090010585679"/><path fill="rgb(51, 162, 129)" stroke="none" paint-order="stroke fill markers" d=" M 658.9792343068405 405.84969260245913 A 18.95241469333314 18.95241469333314 0 1 1 658.9792248306339 405.83074019092453"/><path fill="rgb(197, 122, 158)" stroke="none" paint-order="stroke fill markers" d=" M 690.2584578862693 342.342040271756 A 29.726666666666688 29.726666666666688 0 1 1 690.2584430229372 342.31231361004376"/><path fill="rgb(197, 122, 158)" stroke="none" paint-order="stroke fill markers" d=" M 709.4436811900173 337.7247428958734 A 18.95241469333314 18.95241469333314 0 1 1 709.4436717138108 337.7057904843388"/><path fill="rgb(63, 162, 122)" stroke="none" paint-order="stroke fill markers" d=" M 707.1218836469639 300.72308919222564 A 18.952414693333367 18.952414693333367 0 1 1 707.1218741707573 300.70413678069104"/><path fill="rgb(197, 122, 158)" stroke="none" paint-order="stroke fill markers" d=" M 660.3928140845906 319.4178154689978 A 18.952414693333367 18.952414693333367 0 1 1 660.392804608384 319.3988630574632"/><path fill="rgb(68, 161, 119)" stroke="none" paint-order="stroke fill markers" d=" M 627.0339106762422 297.9585730865099 A 18.95241469333314 18.95241469333314 0 1 1 627.0339012000356 297.9396206749753"/><path fill="rgb(194, 122, 168)" stroke="none" paint-order="stroke fill markers" d=" M 625.6278004300636 336.63724378774737 A 18.952414693333367 18.952414693333367 0 1 1 625.6277909538571 336.61829137621277"/><path fill="rgb(194, 122, 168)" stroke="none" paint-order="stroke fill markers" d=" M 606.0794214531345 335.85370784712177 A 29.726666666666688 29.726666666666688 0 1 1 606.0794065898024 335.82398118540954"/><path fill="rgb(68, 161, 119)" stroke="none" paint-order="stroke fill markers" d=" M 623.2954870556771 272.05402194713304 A 29.726666666666688 29.726666666666688 0 1 1 623.295472192345 272.0242952854208"/><path fill="rgb(192, 129, 114)" stroke="none" paint-order="stroke fill markers" d=" M 573.0900064849404 558.7776825955127 A 18.952414693333367 18.952414693333367 0 1 1 573.0899970087339 558.7587301839781"/><path fill="rgb(192, 129, 114)" stroke="none" paint-order="stroke fill markers" d=" M 537.6503277305701 536.590244616715 A 18.952414693333367 18.952414693333367 0 1 1 537.6503182543636 536.5712922051804"/><path fill="rgb(192, 129, 114)" stroke="none" paint-order="stroke fill markers" d=" M 530.9124885553153 560.6774913999409 A 29.72666666666663 29.72666666666663 0 1 1 530.9124736919832 560.6477647382286"/><path fill="rgb(192, 129, 114)" stroke="none" paint-order="stroke fill markers" d=" M 489.9327525671304 557.9718448530188 A 18.952414693333253 18.952414693333253 0 1 1 489.93274309092385 557.9528924414841"/><path fill="rgb(40, 159, 175)" stroke="none" paint-order="stroke fill markers" d=" M 489.3478718885047 522.1436149003302 A 18.952414693333367 18.952414693333367 0 1 1 489.3478624122981 522.1246624887956"/><path fill="rgb(40, 159, 175)" stroke="none" paint-order="stroke fill markers" d=" M 516.0479395225532 497.03658824200244 A 29.72666666666663 29.72666666666663 0 1 1 516.047924659221 497.0068615802902"/><path fill="rgb(197, 122, 160)" stroke="none" paint-order="stroke fill markers" d=" M 498.9482857442695 447.71323927750626 A 18.952414693333253 18.952414693333253 0 1 1 498.94827626806295 447.69428686597166"/><path fill="rgb(65, 161, 121)" stroke="none" paint-order="stroke fill markers" d=" M 530.429786062087 383.1911486642424 A 18.952414693333424 18.952414693333424 0 1 1 530.4297765858805 383.1721962527078"/><path fill="rgb(48, 162, 131)" stroke="none" paint-order="stroke fill markers" d=" M 498.8255778071106 407.4556669783887 A 18.952414693333253 18.952414693333253 0 1 1 498.82556833090405 407.4367145668541"/><path fill="rgb(48, 162, 131)" stroke="none" paint-order="stroke fill markers" d=" M 490.09783381998346 384.86070639123784 A 29.726666666666688 29.726666666666688 0 1 1 490.0978189566514 384.8309797295256"/><path fill="rgb(190, 130, 110)" stroke="none" paint-order="stroke fill markers" d=" M 494.86638085854355 337.40628496313093 A 18.952414693333367 18.952414693333367 0 1 1 494.866371382337 337.38733255159633"/><path fill="rgb(27, 160, 170)" stroke="none" paint-order="stroke fill markers" d=" M 496.26005217341134 297.5729684816592 A 18.952414693333253 18.952414693333253 0 1 1 496.26004269720477 297.5540160701246"/><path fill="rgb(190, 130, 110)" stroke="none" paint-order="stroke fill markers" d=" M 535.9645779649657 338.1401490179109 A 29.72666666666663 29.72666666666663 0 1 1 535.9645631016335 338.1104223561987"/><path fill="rgb(190, 130, 110)" stroke="none" paint-order="stroke fill markers" d=" M 541.005796552944 312.9672388476324 A 18.95241469333314 18.95241469333314 0 1 1 541.0057870767375 312.9482864360978"/><path fill="rgb(194, 122, 168)" stroke="none" paint-order="stroke fill markers" d=" M 580.841584884857 309.923204802051 A 18.95241469333314 18.95241469333314 0 1 1 580.8415754086504 309.9042523905164"/><path fill="rgb(65, 161, 121)" stroke="none" paint-order="stroke fill markers" d=" M 571.536352856298 382.949297727693 A 29.726666666666688 29.726666666666688 0 1 1 571.5363379929659 382.9195710659808"/><path fill="rgb(192, 129, 114)" stroke="none" paint-order="stroke fill markers" d=" M 614.0626241449759 561.5574496824928 A 29.726666666666688 29.726666666666688 0 1 1 614.0626092816437 561.5277230207805"/><path fill="rgb(192, 129, 114)" stroke="none" paint-order="stroke fill markers" d=" M 620.8629081632853 537.5132580627997 A 18.952414693333367 18.952414693333367 0 1 1 620.8628986870788 537.494305651265"/><path fill="rgb(189, 131, 109)" stroke="none" paint-order="stroke fill markers" d=" M 654.78959129914 559.3967868278708 A 18.952414693333367 18.952414693333367 0 1 1 654.7895818229335 559.3778344163361"/><path fill="rgb(189, 131, 109)" stroke="none" paint-order="stroke fill markers" d=" M 695.8970620335563 559.4775940382923 A 29.726666666666688 29.726666666666688 0 1 1 695.8970471702241 559.44786737658"/><path fill="rgb(189, 131, 109)" stroke="none" paint-order="stroke fill markers" d=" M 700.3613771444652 533.9703449810812 A 18.95241469333314 18.95241469333314 0 1 1 700.3613676682587 533.9513925695466"/><path fill="rgb(42, 158, 175)" stroke="none" paint-order="stroke fill markers" d=" M 660.9435819838864 517.9125636428761 A 18.952414693333367 18.952414693333367 0 1 1 660.9435725076798 517.8936112313414"/><path fill="rgb(42, 158, 175)" stroke="none" paint-order="stroke fill markers" d=" M 687.042492539282 492.4541442399197 A 29.726666666666688 29.726666666666688 0 1 1 687.0424776759498 492.42441757820745"/><path fill="rgb(42, 158, 175)" stroke="none" paint-order="stroke fill markers" d=" M 706.6010222686903 492.6318759108444 A 18.95241469333314 18.95241469333314 0 1 1 706.6010127924837 492.61292349930983"/><path fill="rgb(197, 122, 157)" stroke="none" paint-order="stroke fill markers" d=" M 663.6358051114116 445.5140550020305 A 18.952414693333367 18.952414693333367 0 1 1 663.6357956352051 445.4951025904959"/><path fill="rgb(197, 122, 157)" stroke="none" paint-order="stroke fill markers" d=" M 644.5998036935466 450.9688820020767 A 29.726666666666688 29.726666666666688 0 1 1 644.5997888302145 450.9391553403645"/><path fill="rgb(40, 159, 175)" stroke="none" paint-order="stroke fill markers" d=" M 623.968924583168 497.0853965379429 A 18.95241469333314 18.95241469333314 0 1 1 623.9689151069615 497.0664441264083"/><path fill="rgb(195, 122, 164)" stroke="none" paint-order="stroke fill markers" d=" M 580.9932348569544 447.1804962243507 A 18.952414693333367 18.952414693333367 0 1 1 580.9932253807478 447.1615438128161"/><path fill="rgb(195, 122, 164)" stroke="none" paint-order="stroke fill markers" d=" M 561.4684532080846 448.5829665700813 A 29.726666666666688 29.726666666666688 0 1 1 561.4684383447525 448.55323990836905"/><path fill="rgb(40, 159, 175)" stroke="none" paint-order="stroke fill markers" d=" M 535.5941364855369 497.89633017523323 A 18.95241469333314 18.95241469333314 0 1 1 535.5941270093304 497.87737776369863"/><path fill="rgb(40, 159, 175)" stroke="none" paint-order="stroke fill markers" d=" M 604.4161442150876 496.484219196982 A 29.726666666666688 29.726666666666688 0 1 1 604.4161293517554 496.45449253526976"/><path fill="rgb(40, 159, 175)" stroke="none" paint-order="stroke fill markers" d=" M 577.9430348447993 521.7260738478998 A 18.952414693333367 18.952414693333367 0 1 1 577.9430253685928 521.7071214363651"/><path fill="rgb(46, 158, 177)" stroke="none" paint-order="stroke fill markers" d=" M 727.9111512168063 611.1463803471097 A 29.72666666666646 29.72666666666646 0 1 1 727.9111363534741 611.1166536853974"/><path fill="rgb(32, 159, 172)" stroke="none" paint-order="stroke fill markers" d=" M 672.0934906006269 608.6020545247515 A 18.95241469333314 18.95241469333314 0 1 1 672.0934811244204 608.5831021132168"/><path fill="rgb(32, 159, 172)" stroke="none" paint-order="stroke fill markers" d=" M 652.6840940805328 605.6750071823129 A 29.726666666666688 29.726666666666688 0 1 1 652.6840792172006 605.6452805206006"/><path fill="rgb(27, 160, 170)" stroke="none" paint-order="stroke fill markers" d=" M 481.27895797168054 607.2864672671344 A 29.726666666666688 29.726666666666688 0 1 1 481.27894310834847 607.2567406054221"/><path fill="rgb(27, 160, 170)" stroke="none" paint-order="stroke fill markers" d=" M 500.58980017246387 611.0528242046454 A 18.952414693333367 18.952414693333367 0 1 1 500.5897906962573 611.0338717931107"/><path fill="rgb(42, 158, 175)" stroke="none" paint-order="stroke fill markers" d=" M 569.0935728585068 605.8700704620265 A 29.726666666666688 29.726666666666688 0 1 1 569.0935579951747 605.8403438003143"/><path fill="rgb(42, 158, 175)" stroke="none" paint-order="stroke fill markers" d=" M 588.6510410995063 606.1742792655579 A 18.952414693333367 18.952414693333367 0 1 1 588.6510316232998 606.1553268540232"/><path fill="rgb(29, 159, 171)" stroke="none" paint-order="stroke fill markers" d=" M 357.8566263444679 496.53175724244267 A 29.726666666666688 29.726666666666688 0 1 1 357.8566114811358 496.50203058073043"/><path fill="rgb(194, 122, 168)" stroke="none" paint-order="stroke fill markers" d=" M 397.54317635655906 449.1567861080645 A 29.726666666666688 29.726666666666688 0 1 1 397.543161493227 449.1270594463523"/><path fill="rgb(29, 159, 171)" stroke="none" paint-order="stroke fill markers" d=" M 377.19257398246174 500.10332018944837 A 18.952414693333367 18.952414693333367 0 1 1 377.19256450625517 500.08436777791377"/><path fill="rgb(27, 160, 170)" stroke="none" paint-order="stroke fill markers" d=" M 437.52595504097354 499.1440311679944 A 29.726666666666688 29.726666666666688 0 1 1 437.5259401776415 499.11430450628217"/><path fill="rgb(194, 122, 168)" stroke="none" paint-order="stroke fill markers" d=" M 417.08826398226364 450.05274351365654 A 18.952414693333253 18.952414693333253 0 1 1 417.08825450605707 450.03379110212194"/><path fill="rgb(197, 122, 160)" stroke="none" paint-order="stroke fill markers" d=" M 479.65321876251545 451.596917565639 A 29.726666666666688 29.726666666666688 0 1 1 479.6532038991834 451.56719090392676"/><path fill="rgb(27, 160, 170)" stroke="none" paint-order="stroke fill markers" d=" M 456.85050851053467 502.80532406192594 A 18.952414693333253 18.952414693333253 0 1 1 456.8504990343281 502.78637165039135"/><path fill="rgb(191, 130, 112)" stroke="none" paint-order="stroke fill markers" d=" M 452.93425375175747 539.1692761581357 A 18.952414693333367 18.952414693333367 0 1 1 452.9342442755509 539.1503237466011"/><path fill="rgb(27, 160, 170)" stroke="none" paint-order="stroke fill markers" d=" M 408.44195838988657 522.6636074928581 A 18.952414693333367 18.952414693333367 0 1 1 408.44194891368 522.6446550813234"/><path fill="rgb(191, 130, 112)" stroke="none" paint-order="stroke fill markers" d=" M 446.99597645625914 563.7879093812562 A 29.726666666666688 29.726666666666688 0 1 1 446.9959615929271 563.7581827195439"/><path fill="rgb(38, 159, 174)" stroke="none" paint-order="stroke fill markers" d=" M 421.1106585445588 607.4608088997023 A 18.952414693333367 18.952414693333367 0 1 1 421.11064906835225 607.4418564881677"/><path fill="rgb(38, 159, 174)" stroke="none" paint-order="stroke fill markers" d=" M 401.5823518487825 606.1322812642637 A 29.726666666666574 29.726666666666574 0 1 1 401.5823369854504 606.1025546025514"/><path fill="rgb(34, 159, 172)" stroke="none" paint-order="stroke fill markers" d=" M 262.1745920558199 605.7406027102613 A 18.952414693333253 18.952414693333253 0 1 1 262.17458257961334 605.7216502987267"/><path fill="rgb(34, 159, 172)" stroke="none" paint-order="stroke fill markers" d=" M 242.71061549660936 603.4063826141972 A 29.726666666666745 29.726666666666745 0 1 1 242.71060063327727 603.376655952485"/><path fill="rgb(191, 130, 112)" stroke="none" paint-order="stroke fill markers" d=" M 286.4799919322583 558.3670975985353 A 29.726666666666688 29.726666666666688 0 1 1 286.47997706892625 558.337370936823"/><path fill="rgb(191, 130, 112)" stroke="none" paint-order="stroke fill markers" d=" M 245.44520972054164 556.3244378663246 A 18.952414693333253 18.952414693333253 0 1 1 245.44520024433507 556.30548545479"/><path fill="rgb(29, 159, 171)" stroke="none" paint-order="stroke fill markers" d=" M 248.91089418338169 516.1327854565372 A 18.952414693333253 18.952414693333253 0 1 1 248.91088470717511 516.1138330450026"/><path fill="rgb(29, 159, 171)" stroke="none" paint-order="stroke fill markers" d=" M 277.89350326319453 492.5388852968074 A 29.726666666666688 29.726666666666688 0 1 1 277.89348839986246 492.50915863509516"/><path fill="rgb(29, 159, 171)" stroke="none" paint-order="stroke fill markers" d=" M 297.23354697101496 496.0776259118471 A 18.952414693333253 18.952414693333253 0 1 1 297.2335374948084 496.0586735003125"/><path fill="rgb(195, 122, 165)" stroke="none" paint-order="stroke fill markers" d=" M 320.8272176499343 448.4196186087381 A 29.726666666666688 29.726666666666688 0 1 1 320.82720278660224 448.3898919470259"/><path fill="rgb(195, 122, 165)" stroke="none" paint-order="stroke fill markers" d=" M 340.3747299708194 447.60491576754885 A 18.952414693333367 18.952414693333367 0 1 1 340.3747204946128 447.58596335601425"/><path fill="rgb(29, 159, 171)" stroke="none" paint-order="stroke fill markers" d=" M 328.8468373523804 520.1057963817382 A 18.952414693333367 18.952414693333367 0 1 1 328.84682787617385 520.0868439702035"/><path fill="rgb(191, 130, 112)" stroke="none" paint-order="stroke fill markers" d=" M 292.65497146352146 533.9019956668844 A 18.952414693333253 18.952414693333253 0 1 1 292.6549619873149 533.8830432553498"/><path fill="rgb(189, 131, 109)" stroke="none" paint-order="stroke fill markers" d=" M 327.7589777996365 562.6668410286854 A 18.952414693333367 18.952414693333367 0 1 1 327.75896832342994 562.6478886171508"/><path fill="rgb(189, 131, 109)" stroke="none" paint-order="stroke fill markers" d=" M 368.86655395687154 562.69063221192 A 29.726666666666688 29.726666666666688 0 1 1 368.8665390935395 562.6609055502078"/><path fill="rgb(191, 130, 112)" stroke="none" paint-order="stroke fill markers" d=" M 405.9428277349651 562.0213739546267 A 18.952414693333253 18.952414693333253 0 1 1 405.9428182587585 562.002421543092"/><path fill="rgb(189, 131, 109)" stroke="none" paint-order="stroke fill markers" d=" M 373.2801494774894 537.1547864811505 A 18.952414693333367 18.952414693333367 0 1 1 373.2801400012828 537.1358340696158"/><path fill="rgb(36, 159, 173)" stroke="none" paint-order="stroke fill markers" d=" M 341.4734913828881 608.0247006519884 A 18.952414693333253 18.952414693333253 0 1 1 341.4734819066815 608.0057482404537"/><path fill="rgb(36, 159, 173)" stroke="none" paint-order="stroke fill markers" d=" M 321.97450194861227 606.1687410757809 A 29.726666666666688 29.726666666666688 0 1 1 321.9744870852802 606.1390144140686"/><path fill="rgb(44, 158, 176)" stroke="none" paint-order="stroke fill markers" d=" M 98.74614703508541 602.6822504243798 A 18.952414693333253 18.952414693333253 0 1 1 98.74613755887886 602.6632980128452"/><path fill="rgb(46, 158, 177)" stroke="none" paint-order="stroke fill markers" d=" M 161.83646026398804 605.1760728555945 A 29.726666666666688 29.726666666666688 0 1 1 161.83644540065595 605.1463461938822"/><path fill="rgb(46, 158, 177)" stroke="none" paint-order="stroke fill markers" d=" M 181.38570539752345 604.4247992052567 A 18.95241469333331 18.95241469333331 0 1 1 181.38569592131688 604.405846793722"/><path fill="rgb(25, 160, 169)" stroke="none" paint-order="stroke fill markers" d=" M 88.72933992920247 513.6878788799257 A 18.95241469333331 18.95241469333331 0 1 1 88.72933045299591 513.6689264683911"/><path fill="rgb(38, 159, 174)" stroke="none" paint-order="stroke fill markers" d=" M 51.92746270446122 494.35791825611125 A 18.95241469333331 18.95241469333331 0 1 1 51.92745322825466 494.33896584457665"/><path fill="rgb(38, 159, 174)" stroke="none" paint-order="stroke fill markers" d=" M 5.11953839305653 517.5634769460304 A 18.95241469333331 18.95241469333331 0 1 1 5.119528916849973 517.5445245344957"/><path fill="rgb(38, 159, 174)" stroke="none" paint-order="stroke fill markers" d=" M 32.409651167668585 492.8196302457038 A 29.726666666666688 29.726666666666688 0 1 1 32.40963630433649 492.7899035839916"/><path fill="rgb(190, 130, 110)" stroke="none" paint-order="stroke fill markers" d=" M 7.897391046952521 556.428067791591 A 18.95241469333331 18.95241469333331 0 1 1 7.897381570745964 556.4091153800564"/><path fill="rgb(190, 130, 110)" stroke="none" paint-order="stroke fill markers" d=" M 48.990354626277224 557.3438696459231 A 29.726666666666688 29.726666666666688 0 1 1 48.990339762945126 557.3141429842108"/><path fill="rgb(190, 130, 110)" stroke="none" paint-order="stroke fill markers" d=" M 54.190970228736376 532.2663361354078 A 18.95241469333331 18.95241469333331 0 1 1 54.19096075252982 532.2473837238731"/><path fill="rgb(190, 130, 110)" stroke="none" paint-order="stroke fill markers" d=" M 87.71792965260289 556.4421662958847 A 18.95241469333331 18.95241469333331 0 1 1 87.71792017639633 556.42321388435"/><path fill="rgb(44, 158, 176)" stroke="none" paint-order="stroke fill markers" d=" M 79.18980688780692 603.0788746671377 A 29.726666666666688 29.726666666666688 0 1 1 79.18979202447483 603.0491480054254"/><path fill="rgb(36, 159, 173)" stroke="none" paint-order="stroke fill markers" d=" M 16.838864402504612 600.6974721071851 A 18.95241469333331 18.95241469333331 0 1 1 16.838854926298055 600.6785196956505"/><path fill="rgb(197, 122, 157)" stroke="none" paint-order="stroke fill markers" d=" M 178.70635525042024 439.9467377618947 A 18.95241469333331 18.95241469333331 0 1 1 178.70634577421367 439.9277853503601"/><path fill="rgb(55, 162, 127)" stroke="none" paint-order="stroke fill markers" d=" M 167.97259290842243 378.16944806013095 A 29.72666666666663 29.72666666666663 0 1 1 167.97257804509033 378.1397213984187"/><path fill="rgb(55, 162, 127)" stroke="none" paint-order="stroke fill markers" d=" M 175.13132451379516 401.96199449077693 A 18.95241469333331 18.95241469333331 0 1 1 175.1313150375886 401.94304207924233"/><path fill="rgb(58, 162, 125)" stroke="none" paint-order="stroke fill markers" d=" M 211.84307316625188 379.4662927492414 A 18.95241469333331 18.95241469333331 0 1 1 211.8430636900453 379.4473403377068"/><path fill="rgb(196, 122, 163)" stroke="none" paint-order="stroke fill markers" d=" M 213.23281616507853 419.619140613646 A 18.95241469333331 18.95241469333331 0 1 1 213.23280668887196 419.6001882021114"/><path fill="rgb(38, 159, 174)" stroke="none" paint-order="stroke fill markers" d=" M 197.24642251684236 490.08746292376145 A 29.726666666666688 29.726666666666688 0 1 1 197.24640765351026 490.0577362620492"/><path fill="rgb(38, 159, 174)" stroke="none" paint-order="stroke fill markers" d=" M 170.31528956595258 515.0544670175311 A 18.95241469333331 18.95241469333331 0 1 1 170.315280089746 515.0355146059965"/><path fill="rgb(38, 159, 174)" stroke="none" paint-order="stroke fill markers" d=" M 216.78346328419792 491.2118279169838 A 18.952414693333253 18.952414693333253 0 1 1 216.78345380799135 491.1928755054492"/><path fill="rgb(188, 132, 106)" stroke="none" paint-order="stroke fill markers" d=" M 211.21542853920005 533.2662749222793 A 18.95241469333331 18.95241469333331 0 1 1 211.21541906299348 533.2473225107447"/><path fill="rgb(188, 132, 106)" stroke="none" paint-order="stroke fill markers" d=" M 208.1291277648799 559.5064335737325 A 29.726666666666688 29.726666666666688 0 1 1 208.1291129015478 559.4767069120202"/><path fill="rgb(188, 132, 106)" stroke="none" paint-order="stroke fill markers" d=" M 167.05801595164587 560.9526909981593 A 18.95241469333331 18.95241469333331 0 1 1 167.0580064754393 560.9337385866246"/><path fill="rgb(190, 130, 110)" stroke="none" paint-order="stroke fill markers" d=" M 133.73511870884676 531.7861162690191 A 18.95241469333331 18.95241469333331 0 1 1 133.73510923264018 531.7671638574844"/><path fill="rgb(190, 130, 110)" stroke="none" paint-order="stroke fill markers" d=" M 128.81942650505505 557.0332139789805 A 29.726666666666688 29.726666666666688 0 1 1 128.81941164172295 557.0034873172682"/><path fill="rgb(25, 160, 169)" stroke="none" paint-order="stroke fill markers" d=" M 118.38200233651463 490.597429415198 A 29.726666666666688 29.726666666666688 0 1 1 118.38198747318253 490.5677027534858"/><path fill="rgb(25, 160, 169)" stroke="none" paint-order="stroke fill markers" d=" M 137.60875585365625 494.9522348109554 A 18.95241469333331 18.95241469333331 0 1 1 137.60874637744968 494.9332823994208"/><path fill="rgb(193, 122, 170)" stroke="none" paint-order="stroke fill markers" d=" M 94.04378293027088 445.9678198645233 A 18.95241469333331 18.95241469333331 0 1 1 94.04377345406432 445.9488674529887"/><path fill="rgb(197, 122, 160)" stroke="none" paint-order="stroke fill markers" d=" M 179.78216890621394 212.96916326747862 A 18.95241469333331 18.95241469333331 0 1 1 179.78215943000737 212.95021085594402"/><path fill="rgb(58, 162, 125)" stroke="none" paint-order="stroke fill markers" d=" M 175.400077643823 152.68059356057347 A 29.726666666666688 29.726666666666688 0 1 1 175.4000627804909 152.65086689886124"/><path fill="rgb(58, 162, 125)" stroke="none" paint-order="stroke fill markers" d=" M 181.9436383961867 176.90032327237589 A 18.95241469333331 18.95241469333331 0 1 1 181.94362891998014 176.8813708608413"/><path fill="rgb(63, 162, 122)" stroke="none" paint-order="stroke fill markers" d=" M 213.7167992962672 156.00387388899935 A 18.95241469333331 18.95241469333331 0 1 1 213.71678982006063 155.98492147746475"/><path fill="rgb(195, 122, 165)" stroke="none" paint-order="stroke fill markers" d=" M 216.0706574994952 197.5786822004461 A 18.95241469333331 18.95241469333331 0 1 1 216.07064802328864 197.5597297889115"/><path fill="rgb(42, 158, 175)" stroke="none" paint-order="stroke fill markers" d=" M 195.45905001173594 265.73872388463013 A 29.72666666666663 29.72666666666663 0 1 1 195.45903514840384 265.7089972229179"/><path fill="rgb(42, 158, 175)" stroke="none" paint-order="stroke fill markers" d=" M 169.3390778083574 291.18514319164535 A 18.95241469333331 18.95241469333331 0 1 1 169.33906833215082 291.16619078011075"/><path fill="rgb(42, 158, 175)" stroke="none" paint-order="stroke fill markers" d=" M 215.0174245152835 265.9401947561525 A 18.95241469333331 18.95241469333331 0 1 1 215.01741503907692 265.9212423446179"/><path fill="rgb(192, 129, 116)" stroke="none" paint-order="stroke fill markers" d=" M 218.7295480676582 309.02529027070057 A 18.95241469333331 18.95241469333331 0 1 1 218.72953859145161 309.00633785916597"/><path fill="rgb(192, 129, 116)" stroke="none" paint-order="stroke fill markers" d=" M 211.05342808735998 332.44069069848194 A 29.726666666666688 29.726666666666688 0 1 1 211.05341322402788 332.4109640367697"/><path fill="rgb(192, 129, 116)" stroke="none" paint-order="stroke fill markers" d=" M 170.20282421197481 328.60886959005205 A 18.95241469333331 18.95241469333331 0 1 1 170.20281473576824 328.58991717851745"/><path fill="rgb(190, 130, 111)" stroke="none" paint-order="stroke fill markers" d=" M 133.17264253264926 308.29079702570664 A 18.95241469333331 18.95241469333331 0 1 1 133.1726330564427 308.27184461417204"/><path fill="rgb(190, 130, 111)" stroke="none" paint-order="stroke fill markers" d=" M 127.75723865995559 333.237713916341 A 29.726666666666688 29.726666666666688 0 1 1 127.75722379662349 333.2079872546288"/><path fill="rgb(55, 162, 127)" stroke="none" paint-order="stroke fill markers" d=" M 127.0448391825683 381.37693547796175 A 18.95241469333331 18.95241469333331 0 1 1 127.04482970636174 381.35798306642715"/><path fill="rgb(197, 122, 157)" stroke="none" paint-order="stroke fill markers" d=" M 129.3331197758426 422.4786400933123 A 18.95241469333331 18.95241469333331 0 1 1 129.33311029963602 422.4596876817777"/><path fill="rgb(197, 122, 157)" stroke="none" paint-order="stroke fill markers" d=" M 159.608937302095 445.07395314226 A 29.726666666666688 29.726666666666688 0 1 1 159.6089224387629 445.04422648054776"/><path fill="rgb(70, 161, 118)" stroke="none" paint-order="stroke fill markers" d=" M 13.521020097291455 150.6536799541849 A 29.726666666666688 29.726666666666688 0 1 1 13.521005233959361 150.62395329247266"/><path fill="rgb(70, 161, 118)" stroke="none" paint-order="stroke fill markers" d=" M 16.611507293823706 176.8917447382869 A 18.95241469333331 18.95241469333331 0 1 1 16.61149781761715 176.8727923267523"/><path fill="rgb(195, 122, 166)" stroke="none" paint-order="stroke fill markers" d=" M 21.319065074871844 217.726993259609 A 18.95241469333331 18.95241469333331 0 1 1 21.319055598665287 217.7080408480744"/><path fill="rgb(195, 122, 164)" stroke="none" paint-order="stroke fill markers" d=" M 53.002329436974094 193.83197169816242 A 18.95241469333331 18.95241469333331 0 1 1 53.00231996076754 193.81301928662782"/><path fill="rgb(65, 161, 121)" stroke="none" paint-order="stroke fill markers" d=" M 50.01827619623896 153.2346348726287 A 18.95241469333331 18.95241469333331 0 1 1 50.0182667200324 153.2156824610941"/><path fill="rgb(65, 161, 121)" stroke="none" paint-order="stroke fill markers" d=" M 91.12577862353578 153.16652205161563 A 29.726666666666688 29.726666666666688 0 1 1 91.12576376020368 153.1367953899034"/><path fill="rgb(195, 122, 164)" stroke="none" paint-order="stroke fill markers" d=" M 80.06796474465409 218.71617151275336 A 29.726666666666688 29.726666666666688 0 1 1 80.067949881322 218.68644485104113"/><path fill="rgb(27, 160, 170)" stroke="none" paint-order="stroke fill markers" d=" M 57.21750912201219 270.3434967824691 A 18.95241469333331 18.95241469333331 0 1 1 57.21749964580563 270.3245443709345"/><path fill="rgb(44, 158, 176)" stroke="none" paint-order="stroke fill markers" d=" M 88.33020950999418 293.4371051229443 A 18.95241469333331 18.95241469333331 0 1 1 88.33020003378762 293.4181527114097"/><path fill="rgb(44, 158, 176)" stroke="none" paint-order="stroke fill markers" d=" M 114.07858801527351 267.7821590166805 A 29.726666666666688 29.726666666666688 0 1 1 114.07857315194141 267.7524323549683"/><path fill="rgb(44, 158, 176)" stroke="none" paint-order="stroke fill markers" d=" M 133.63685639549726 267.5663985114372 A 18.95241469333331 18.95241469333331 0 1 1 133.6368469192907 267.54744609990263"/><path fill="rgb(195, 122, 164)" stroke="none" paint-order="stroke fill markers" d=" M 99.59852105505473 217.43712252089563 A 18.95241469333331 18.95241469333331 0 1 1 99.59851157884817 217.41817010936103"/><path fill="rgb(65, 161, 121)" stroke="none" paint-order="stroke fill markers" d=" M 95.57880514041898 178.68014571857793 A 18.95241469333331 18.95241469333331 0 1 1 95.57879566421242 178.66119330704333"/><path fill="rgb(58, 162, 125)" stroke="none" paint-order="stroke fill markers" d=" M 134.39950677418784 155.15637068841318 A 18.95241469333331 18.95241469333331 0 1 1 134.39949729798127 155.13741827687858"/><path fill="rgb(197, 122, 160)" stroke="none" paint-order="stroke fill markers" d=" M 131.32304928662847 193.22788821257086 A 18.95241469333331 18.95241469333331 0 1 1 131.3230398104219 193.20893580103626"/><path fill="rgb(197, 122, 160)" stroke="none" paint-order="stroke fill markers" d=" M 160.4670623148366 216.70315699315609 A 29.72666666666663 29.72666666666663 0 1 1 160.4670474515045 216.67343033144385"/><path fill="rgb(193, 122, 170)" stroke="none" paint-order="stroke fill markers" d=" M 50.50087461097428 417.3757028836656 A 18.95241469333331 18.95241469333331 0 1 1 50.50086513476772 417.356750472131"/><path fill="rgb(193, 122, 170)" stroke="none" paint-order="stroke fill markers" d=" M 74.55958822217116 443.89619330482014 A 29.726666666666688 29.726666666666688 0 1 1 74.55957335883906 443.8664666431079"/><path fill="rgb(55, 162, 127)" stroke="none" paint-order="stroke fill markers" d=" M 91.47293646886686 402.1185884027285 A 18.95241469333331 18.95241469333331 0 1 1 91.4729269926603 402.0996359911939"/><path fill="rgb(55, 162, 127)" stroke="none" paint-order="stroke fill markers" d=" M 84.1732553473048 378.4271309753125 A 29.726666666666688 29.726666666666688 0 1 1 84.1732404839727 378.39740431360025"/><path fill="rgb(55, 162, 127)" stroke="none" paint-order="stroke fill markers" d=" M 43.265045524393145 381.8038752150071 A 18.95241469333331 18.95241469333331 0 1 1 43.26503604818659 381.7849228034725"/><path fill="rgb(190, 130, 111)" stroke="none" paint-order="stroke fill markers" d=" M 86.67319345875092 332.0757018188776 A 18.95241469333331 18.95241469333331 0 1 1 86.67318398254436 332.056749407343"/><path fill="rgb(190, 130, 111)" stroke="none" paint-order="stroke fill markers" d=" M 53.23978284063185 306.9026925866461 A 18.95241469333331 18.95241469333331 0 1 1 53.23977336442529 306.8837401751115"/><path fill="rgb(190, 130, 111)" stroke="none" paint-order="stroke fill markers" d=" M 47.77491245241055 331.8191825210612 A 29.726666666666688 29.726666666666688 0 1 1 47.77489758907845 331.78945585934895"/><path fill="rgb(190, 130, 111)" stroke="none" paint-order="stroke fill markers" d=" M 6.6932291736820275 330.6002946730239 A 18.95241469333331 18.95241469333331 0 1 1 6.69321969747547 330.5813422614893"/><path fill="rgb(27, 160, 170)" stroke="none" paint-order="stroke fill markers" d=" M 8.81737985655775 290.22118234270516 A 18.95241469333331 18.95241469333331 0 1 1 8.817370380351193 290.20222993117056"/><path fill="rgb(27, 160, 170)" stroke="none" paint-order="stroke fill markers" d=" M 37.891406879450926 266.69426872409935 A 29.726666666666688 29.726666666666688 0 1 1 37.89139201611883 266.6645420623871"/><path fill="rgb(55, 162, 127)" stroke="none" paint-order="stroke fill markers" d=" M 10.855355497742892 402.4176407034302 A 18.95241469333331 18.95241469333331 0 1 1 10.855346021536334 402.3986882918956"/><path fill="rgb(197, 122, 160)" stroke="none" paint-order="stroke fill markers" d=" M 11.914573973425945 438.8242052409947 A 18.95241469333331 18.95241469333331 0 1 1 11.914564497219388 438.8052528294601"/></g></g></g><g/><g/><g/><g clip-path="url(#EkOVbCBOTETe)"><g/></g></g></g></svg>