<svg version="1.1" xmlns="http://www.w3.org/2000/svg" xmlns:xlink="http://www.w3.org/1999/xlink" width="920" height="600" style="width: 920px; height: 600px;"><defs><clipPath id="uqiNNlNhflxE"><path fill="none" stroke="none" d=" M 5 5 L 915 5 L 915 595 L 5 595 L 5 5 Z"/></clipPath><clipPath id="iPyitrOdhHqC"><path fill="none" stroke="none" d=" M 5 5 L 915 5 L 915 595 L 5 595 L 5 5 Z"/></clipPath><clipPath id="FqhAaeZHTlvt"><path fill="none" stroke="none" d=" M 5 5 L 915 5 L 915 595 L 5 595 L 5 5 Z"/></clipPath><clipPath id="kCPbtMgeqTxO"><path fill="none" stroke="none" d=" M 5 5 L 915 5 L 915 595 L 5 595 L 5 5 Z"/></clipPath></defs><g><g transform="scale(1,1) translate(0.5,0.5)"><rect fill="#FFFFFF" stroke="none" x="0" y="0" width="920" height="600"/><rect fill="#ffffff" stroke="none" x="0" y="0" width="920" height="600"/><rect fill="#FFFFFF" stroke="none" x="5" y="5" width="910" height="590"/><rect fill="#ffffff" stroke="none" x="5" y="5" width="910" height="590"/><g><rect fill="none" stroke="#e5e5e5" x="5" y="5" width="910" height="590" stroke-linejoin="bevel" stroke-miterlimit="10"/></g><g clip-path="url(#uqiNNlNhflxE)"><g/></g><g clip-path="url(#iPyitrOdhHqC)"><g/></g><g clip-path="url(#FqhAaeZHTlvt)"><g><g><path fill="none" stroke="none"/><path fill="rgb(38, 159, 174)" stroke="none" paint-order="stroke fill markers" d=" M 899.106867429603 603.5725207170337 A 29.72666666666646 29.72666666666646 0 1 1 899.1068525662708 603.5427940553215"/><path fill="rgb(38, 159, 174)" stroke="none" paint-order="stroke fill markers" d=" M 918.6377569827625 604.8440398201593 A 18.952414693333367 18.952414693333367 0 1 1 918.637747506556 604.8250874086247"/><path fill="rgb(23, 160, 169)" stroke="none" paint-order="stroke fill markers" d=" M 769.4660680395509 488.96300602494546 A 29.72666666666646 29.72666666666646 0 1 1 769.4660531762188 488.9332793632332"/><path fill="rgb(192, 129, 115)" stroke="none" paint-order="stroke fill markers" d=" M 780.1826612377367 555.7166614624877 A 29.726666666666688 29.726666666666688 0 1 1 780.1826463744046 555.6869348007754"/><path fill="rgb(192, 129, 115)" stroke="none" paint-order="stroke fill markers" d=" M 739.2862494493427 552.2417842011497 A 18.952414693333367 18.952414693333367 0 1 1 739.2862399731362 552.222831789615"/><path fill="rgb(192, 129, 115)" stroke="none" paint-order="stroke fill markers" d=" M 787.5638304834415 532.0842081354197 A 18.952414693333367 18.952414693333367 0 1 1 787.563821007235 532.065255723885"/><path fill="rgb(188, 132, 106)" stroke="none" paint-order="stroke fill markers" d=" M 822.125953784464 556.8124350940701 A 18.952414693333367 18.952414693333367 0 1 1 822.1259443082574 556.7934826825355"/><path fill="rgb(32, 159, 172)" stroke="none" paint-order="stroke fill markers" d=" M 837.600127942198 606.4041237355134 A 18.952414693333367 18.952414693333367 0 1 1 837.6001184659915 606.3851713239787"/><path fill="rgb(32, 159, 172)" stroke="none" paint-order="stroke fill markers" d=" M 818.1617820454353 603.7746869995082 A 29.726666666666688 29.726666666666688 0 1 1 818.1617671821032 603.7449603377959"/><path fill="rgb(23, 160, 169)" stroke="none" paint-order="stroke fill markers" d=" M 753.3787827197291 606.0100026775225 A 18.95241469333314 18.95241469333314 0 1 1 753.3787732435226 605.9910502659878"/><path fill="rgb(23, 160, 169)" stroke="none" paint-order="stroke fill markers" d=" M 734.2240066512954 601.2095825040763 A 29.72666666666646 29.72666666666646 0 1 1 734.2239917879633 601.179855842364"/><path fill="rgb(195, 122, 165)" stroke="none" paint-order="stroke fill markers" d=" M 943.9479232129477 420.3259427235579 A 18.952414693333367 18.952414693333367 0 1 1 943.9479137367412 420.3069903120233"/><path fill="rgb(195, 122, 165)" stroke="none" paint-order="stroke fill markers" d=" M 970.6309362381992 445.4431919789063 A 29.72666666666646 29.72666666666646 0 1 1 970.6309213748671 445.4134653171941"/><path fill="rgb(23, 160, 169)" stroke="none" paint-order="stroke fill markers" d=" M 932.1372726762283 489.9742522985364 A 29.726666666666688 29.726666666666688 0 1 1 932.1372578128962 489.94452563682415"/><path fill="rgb(23, 160, 169)" stroke="none" paint-order="stroke fill markers" d=" M 951.2418999273934 495.0615687020089 A 18.95241469333314 18.95241469333314 0 1 1 951.2418904511869 495.0426162904743"/><path fill="rgb(241, 186, 177)" stroke="none" paint-order="stroke fill markers" d=" M 949.7714396772869 533.9496613396034 A 18.95241469333314 18.95241469333314 0 1 1 949.7714302010804 533.9307089280687"/><path fill="rgb(241, 186, 177)" stroke="none" paint-order="stroke fill markers" d=" M 941.6414823640705 557.0201362172686 A 29.72666666666646 29.72666666666646 0 1 1 941.6414675007384 556.9904095555563"/><path fill="rgb(241, 186, 177)" stroke="none" paint-order="stroke fill markers" d=" M 900.8711123115363 552.6336153097204 A 18.952414693333367 18.952414693333367 0 1 1 900.8711028353298 552.6146628981858"/><path fill="rgb(188, 132, 106)" stroke="none" paint-order="stroke fill markers" d=" M 863.1996397889645 555.4181639203912 A 29.726666666666688 29.726666666666688 0 1 1 863.1996249256324 555.3884372586789"/><path fill="rgb(188, 132, 106)" stroke="none" paint-order="stroke fill markers" d=" M 866.3335208881081 529.2018302991984 A 18.952414693333367 18.952414693333367 0 1 1 866.3335114119016 529.1828778876637"/><path fill="rgb(60, 156, 181)" stroke="none" paint-order="stroke fill markers" d=" M 865.3799391811103 487.1396930330752 A 18.95241469333314 18.95241469333314 0 1 1 865.3799297049038 487.1207406215406"/><path fill="rgb(23, 160, 169)" stroke="none" paint-order="stroke fill markers" d=" M 901.8933795105024 512.5955867371866 A 18.95241469333314 18.95241469333314 0 1 1 901.8933700342959 512.576634325652"/><path fill="rgb(60, 156, 181)" stroke="none" paint-order="stroke fill markers" d=" M 846.12420963714 491.3013129207793 A 29.726666666666688 29.726666666666688 0 1 1 846.1241947738079 491.2715862590671"/><path fill="rgb(60, 156, 181)" stroke="none" paint-order="stroke fill markers" d=" M 824.0408451598876 518.6743791016876 A 18.95241469333314 18.95241469333314 0 1 1 824.040835683681 518.6554266901529"/><path fill="rgb(23, 160, 169)" stroke="none" paint-order="stroke fill markers" d=" M 788.6015779181384 493.87570131312197 A 18.952414693333367 18.952414693333367 0 1 1 788.6015684419319 493.85674890158737"/><path fill="rgb(196, 122, 162)" stroke="none" paint-order="stroke fill markers" d=" M 809.7931042071141 445.59826751417035 A 29.726666666666688 29.726666666666688 0 1 1 809.793089343782 445.5685408524581"/><path fill="rgb(23, 160, 169)" stroke="none" paint-order="stroke fill markers" d=" M 739.3622319010638 511.6976615088259 A 18.952414693333367 18.952414693333367 0 1 1 739.3622224248572 511.6787090972913"/><path fill="rgb(198, 122, 154)" stroke="none" paint-order="stroke fill markers" d=" M 746.1961849142167 436.7513671598758 A 18.95241469333314 18.95241469333314 0 1 1 746.1961754380102 436.7324147483412"/><path fill="rgb(196, 122, 162)" stroke="none" paint-order="stroke fill markers" d=" M 781.2983145810858 421.65564199857835 A 18.952414693333367 18.952414693333367 0 1 1 781.2983051048793 421.63668958704375"/><path fill="rgb(55, 162, 127)" stroke="none" paint-order="stroke fill markers" d=" M 819.9737019686754 376.4018261733924 A 29.72666666666646 29.72666666666646 0 1 1 819.9736871053433 376.3720995116802"/><path fill="rgb(55, 162, 127)" stroke="none" paint-order="stroke fill markers" d=" M 827.2387735362138 400.11821973023297 A 18.95241469333314 18.95241469333314 0 1 1 827.2387640600073 400.09926731869837"/><path fill="rgb(196, 122, 162)" stroke="none" paint-order="stroke fill markers" d=" M 829.1997757514616 442.6447497165298 A 18.952414693333367 18.952414693333367 0 1 1 829.1997662752551 442.6257973049952"/><path fill="rgb(193, 122, 169)" stroke="none" paint-order="stroke fill markers" d=" M 865.0436550301176 416.895650053643 A 18.952414693333367 18.952414693333367 0 1 1 865.0436455539111 416.8766976421084"/><path fill="rgb(193, 122, 169)" stroke="none" paint-order="stroke fill markers" d=" M 889.3628149534636 443.29124372933035 A 29.72666666666646 29.72666666666646 0 1 1 889.3628000901315 443.2615170676181"/><path fill="rgb(62, 162, 123)" stroke="none" paint-order="stroke fill markers" d=" M 907.2983782277013 375.9550736917874 A 29.72666666666646 29.72666666666646 0 1 1 907.2983633643692 375.92534703007516"/><path fill="rgb(62, 162, 123)" stroke="none" paint-order="stroke fill markers" d=" M 866.2291581877873 377.43828676978785 A 18.952414693333367 18.952414693333367 0 1 1 866.2291487115808 377.41933435825325"/><path fill="rgb(197, 122, 159)" stroke="none" paint-order="stroke fill markers" d=" M 872.7046245326105 326.5287774608947 A 18.952414693333367 18.952414693333367 0 1 1 872.704615056404 326.5098250493601"/><path fill="rgb(238, 187, 170)" stroke="none" paint-order="stroke fill markers" d=" M 916.1583021514025 330.5698892130176 A 18.952414693333367 18.952414693333367 0 1 1 916.158292675196 330.550936801483"/><path fill="rgb(238, 187, 170)" stroke="none" paint-order="stroke fill markers" d=" M 957.2634665559458 330.1971273746085 A 29.72666666666646 29.72666666666646 0 1 1 957.2634516926137 330.16740071289627"/><path fill="rgb(238, 187, 170)" stroke="none" paint-order="stroke fill markers" d=" M 961.3227301230845 304.4650362154136 A 18.952414693333367 18.952414693333367 0 1 1 961.322720646878 304.446083803879"/><path fill="rgb(67, 161, 120)" stroke="none" paint-order="stroke fill markers" d=" M 947.3588950223623 382.0923846699161 A 18.952414693333367 18.952414693333367 0 1 1 947.3588855461558 382.0734322583815"/><path fill="rgb(62, 162, 123)" stroke="none" paint-order="stroke fill markers" d=" M 912.9923950016143 400.72890487732246 A 18.95241469333314 18.95241469333314 0 1 1 912.9923855254078 400.70995246578786"/><path fill="rgb(193, 122, 169)" stroke="none" paint-order="stroke fill markers" d=" M 908.8660134659922 445.0810653349161 A 18.95241469333314 18.95241469333314 0 1 1 908.8660039897857 445.0621129233815"/><path fill="rgb(72, 161, 117)" stroke="none" paint-order="stroke fill markers" d=" M 744.7978599493488 154.34835448286856 A 29.726666666666688 29.726666666666688 0 1 1 744.7978450860167 154.31862782115633"/><path fill="rgb(72, 161, 117)" stroke="none" paint-order="stroke fill markers" d=" M 747.5197622823136 180.76755989979722 A 18.952414693333367 18.952414693333367 0 1 1 747.5197528061071 180.74860748826262"/><path fill="rgb(193, 122, 170)" stroke="none" paint-order="stroke fill markers" d=" M 747.3166158802417 220.0949522667363 A 18.952414693333367 18.952414693333367 0 1 1 747.3166064040352 220.0759998552017"/><path fill="rgb(22, 162, 144)" stroke="none" paint-order="stroke fill markers" d=" M 735.7718717616158 280.80181899227983 A 18.952414693333367 18.952414693333367 0 1 1 735.7718622854093 280.78286658074524"/><path fill="rgb(22, 162, 144)" stroke="none" paint-order="stroke fill markers" d=" M 774.2902135701383 268.8758960166823 A 29.72666666666646 29.72666666666646 0 1 1 774.2901987068062 268.8461693549701"/><path fill="rgb(22, 162, 144)" stroke="none" paint-order="stroke fill markers" d=" M 788.0079139869599 286.2799370830179 A 18.95241469333314 18.95241469333314 0 1 1 788.0079045107534 286.2609846714833"/><path fill="rgb(197, 122, 159)" stroke="none" paint-order="stroke fill markers" d=" M 811.2614823103511 223.37579875068843 A 29.726666666666688 29.726666666666688 0 1 1 811.261467447019 223.3460720889762"/><path fill="rgb(50, 162, 130)" stroke="none" paint-order="stroke fill markers" d=" M 821.6868837071313 267.5753406263087 A 18.952414693333367 18.952414693333367 0 1 1 821.6868742309248 267.5563882147741"/><path fill="rgb(197, 122, 159)" stroke="none" paint-order="stroke fill markers" d=" M 823.9654582265232 307.4507051940049 A 18.952414693333367 18.952414693333367 0 1 1 823.9654487503167 307.4317527824703"/><path fill="rgb(197, 122, 159)" stroke="none" paint-order="stroke fill markers" d=" M 853.4463528693948 330.67299413266755 A 29.72666666666646 29.72666666666646 0 1 1 853.4463380060627 330.6432674709553"/><path fill="rgb(198, 122, 148)" stroke="none" paint-order="stroke fill markers" d=" M 790.3289337424212 325.15162504634003 A 18.952414693333367 18.952414693333367 0 1 1 790.3289242662147 325.13267263480543"/><path fill="rgb(198, 122, 148)" stroke="none" paint-order="stroke fill markers" d=" M 738.5018311347226 316.76954537430345 A 18.952414693333367 18.952414693333367 0 1 1 738.5018216585161 316.75059296276885"/><path fill="rgb(198, 122, 148)" stroke="none" paint-order="stroke fill markers" d=" M 772.7015833795588 335.5107591676744 A 29.726666666666688 29.726666666666688 0 1 1 772.7015685162266 335.48103250596216"/><path fill="rgb(55, 162, 127)" stroke="none" paint-order="stroke fill markers" d=" M 779.0605915933659 379.7369531121827 A 18.952414693333367 18.952414693333367 0 1 1 779.0605821171594 379.7180007006481"/><path fill="rgb(42, 162, 134)" stroke="none" paint-order="stroke fill markers" d=" M 735.0205627679086 374.5212646757641 A 29.72666666666646 29.72666666666646 0 1 1 735.0205479045765 374.49153801405186"/><path fill="rgb(42, 162, 134)" stroke="none" paint-order="stroke fill markers" d=" M 745.1105934011064 395.93438827259934 A 18.952414693333367 18.952414693333367 0 1 1 745.1105839248999 395.91543586106474"/><path fill="rgb(144, 208, 228)" stroke="none" paint-order="stroke fill markers" d=" M 947.9986270061888 189.34864687005688 A 18.952414693333367 18.952414693333367 0 1 1 947.9986175299823 189.32969445852228"/><path fill="rgb(235, 189, 165)" stroke="none" paint-order="stroke fill markers" d=" M 951.5491051632926 227.71919049874248 A 18.952414693333367 18.952414693333367 0 1 1 951.549095687086 227.70023808720788"/><path fill="rgb(142, 209, 227)" stroke="none" paint-order="stroke fill markers" d=" M 950.6741407204665 265.7594193902356 A 18.95241469333314 18.95241469333314 0 1 1 950.67413124426 265.740466978701"/><path fill="rgb(142, 209, 227)" stroke="none" paint-order="stroke fill markers" d=" M 907.0780466426206 294.2747817927856 A 18.952414693333367 18.952414693333367 0 1 1 907.0780371664141 294.255829381251"/><path fill="rgb(142, 209, 227)" stroke="none" paint-order="stroke fill markers" d=" M 931.186136235412 267.77773662596934 A 29.72666666666646 29.72666666666646 0 1 1 931.1861213720799 267.7480099642571"/><path fill="rgb(50, 162, 130)" stroke="none" paint-order="stroke fill markers" d=" M 870.8723169919529 285.5375447292073 A 18.952414693333367 18.952414693333367 0 1 1 870.8723075157463 285.5185923176727"/><path fill="rgb(50, 162, 130)" stroke="none" paint-order="stroke fill markers" d=" M 862.385569737794 262.74790298982094 A 29.72666666666646 29.72666666666646 0 1 1 862.3855548744618 262.7181763281087"/><path fill="rgb(244, 181, 210)" stroke="none" paint-order="stroke fill markers" d=" M 868.9897559383455 192.7000768664211 A 18.952414693333367 18.952414693333367 0 1 1 868.989746462139 192.68112445488651"/><path fill="rgb(244, 181, 210)" stroke="none" paint-order="stroke fill markers" d=" M 898.4990715998017 215.90068727555138 A 29.72666666666646 29.72666666666646 0 1 1 898.4990567364696 215.87096061383915"/><path fill="rgb(57, 162, 126)" stroke="none" paint-order="stroke fill markers" d=" M 904.6768428508785 153.02694873998507 A 29.726666666666688 29.726666666666688 0 1 1 904.6768279875464 152.99722207827284"/><path fill="rgb(57, 162, 126)" stroke="none" paint-order="stroke fill markers" d=" M 863.7012388677945 155.77583767832448 A 18.952414693333367 18.952414693333367 0 1 1 863.701229391588 155.75688526678988"/><path fill="rgb(63, 162, 122)" stroke="none" paint-order="stroke fill markers" d=" M 827.5854046233908 181.81954660118674 A 18.952414693333367 18.952414693333367 0 1 1 827.5853951471843 181.80059418965214"/><path fill="rgb(197, 122, 159)" stroke="none" paint-order="stroke fill markers" d=" M 830.5243789545386 219.26340161028133 A 18.95241469333314 18.95241469333314 0 1 1 830.5243694783321 219.24444919874674"/><path fill="rgb(197, 122, 159)" stroke="none" paint-order="stroke fill markers" d=" M 781.8066104354161 200.13370498876168 A 18.952414693333367 18.952414693333367 0 1 1 781.8066009592096 200.11475257722708"/><path fill="rgb(63, 162, 122)" stroke="none" paint-order="stroke fill markers" d=" M 822.6413107332787 156.58916231847002 A 29.72666666666646 29.72666666666646 0 1 1 822.6412958699466 156.55943565675778"/><path fill="rgb(63, 162, 122)" stroke="none" paint-order="stroke fill markers" d=" M 781.5404961812828 157.21248782716953 A 18.95241469333314 18.95241469333314 0 1 1 781.5404867050763 157.19353541563493"/><path fill="rgb(144, 208, 228)" stroke="none" paint-order="stroke fill markers" d=" M 970.6364316468316 162.19845122728793 A 29.726666666666688 29.726666666666688 0 1 1 970.6364167834995 162.1687245655757"/><path fill="rgb(57, 162, 126)" stroke="none" paint-order="stroke fill markers" d=" M 911.451122464543 177.08909552443947 A 18.95241469333314 18.95241469333314 0 1 1 911.4511129883365 177.07014311290487"/><path fill="rgb(244, 181, 210)" stroke="none" paint-order="stroke fill markers" d=" M 917.7522495088385 211.7216941252393 A 18.952414693333367 18.952414693333367 0 1 1 917.752240032632 211.7027417137047"/><path fill="rgb(193, 128, 119)" stroke="none" paint-order="stroke fill markers" d=" M 740.622468623598 103.83845161814622 A 18.952414693333367 18.952414693333367 0 1 1 740.6224591473915 103.81949920661161"/><path fill="rgb(193, 128, 119)" stroke="none" paint-order="stroke fill markers" d=" M 790.2527893118177 87.07356412602076 A 18.952414693333367 18.952414693333367 0 1 1 790.2527798356111 87.05461171448614"/><path fill="rgb(191, 130, 113)" stroke="none" paint-order="stroke fill markers" d=" M 825.4522012059115 106.84672580620929 A 18.952414693333367 18.952414693333367 0 1 1 825.452191729705 106.82777339467468"/><path fill="rgb(243, 184, 182)" stroke="none" paint-order="stroke fill markers" d=" M 905.5419646482194 104.19439634435332 A 18.952414693333367 18.952414693333367 0 1 1 905.5419551720129 104.17544393281871"/><path fill="rgb(191, 130, 113)" stroke="none" paint-order="stroke fill markers" d=" M 872.949479939304 85.00614054445543 A 18.952414693333367 18.952414693333367 0 1 1 872.9494704630974 84.98718813292082"/><path fill="rgb(191, 130, 113)" stroke="none" paint-order="stroke fill markers" d=" M 866.458029172034 109.2610328802923 A 29.726666666666688 29.726666666666688 0 1 1 866.4580143087019 109.23130621858006"/><path fill="rgb(42, 158, 175)" stroke="none" paint-order="stroke fill markers" d=" M 859.5709367632255 43.02756055730117 A 29.726666666666688 29.726666666666688 0 1 1 859.5709218998934 42.99783389558893"/><path fill="rgb(42, 158, 175)" stroke="none" paint-order="stroke fill markers" d=" M 879.129789889982 43.141455579786566 A 18.952414693333367 18.952414693333367 0 1 1 879.1297804137755 43.12250316825196"/><path fill="rgb(133, 211, 218)" stroke="none" paint-order="stroke fill markers" d=" M 912.1146324643214 65.66157994649996 A 18.95241469333314 18.95241469333314 0 1 1 912.1146229881149 65.64262753496534"/><path fill="rgb(133, 211, 218)" stroke="none" paint-order="stroke fill markers" d=" M 942.644103990187 43.27564540508001 A 29.72666666666646 29.72666666666646 0 1 1 942.6440891268549 43.245918743367774"/><path fill="rgb(133, 211, 218)" stroke="none" paint-order="stroke fill markers" d=" M 961.6818988505338 48.721186628095325 A 18.952414693333367 18.952414693333367 0 1 1 961.6818893743273 48.70223421656072"/><path fill="rgb(243, 184, 182)" stroke="none" paint-order="stroke fill markers" d=" M 956.060826444937 90.16240709066255 A 18.952414693333367 18.952414693333367 0 1 1 956.0608169687305 90.14345467912794"/><path fill="rgb(243, 184, 182)" stroke="none" paint-order="stroke fill markers" d=" M 945.7407601664759 111.3612942517517 A 29.726666666666688 29.726666666666688 0 1 1 945.7407453031437 111.33156759003946"/><path fill="rgb(196, 122, 161)" stroke="none" paint-order="stroke fill markers" d=" M 734.2959526607606 -6.346144720270104 A 29.726666666666688 29.726666666666688 0 1 1 734.2959377974285 -6.375871381982344"/><path fill="rgb(196, 122, 161)" stroke="none" paint-order="stroke fill markers" d=" M 753.6523096020358 -9.751023951427669 A 18.95241469333314 18.95241469333314 0 1 1 753.6523001258292 -9.769976362962277"/><path fill="rgb(196, 122, 162)" stroke="none" paint-order="stroke fill markers" d=" M 817.998427999262 -3.4317822501581077 A 29.726666666666688 29.726666666666688 0 1 1 817.9984131359299 -3.4615089118703475"/><path fill="rgb(196, 122, 162)" stroke="none" paint-order="stroke fill markers" d=" M 837.424186412326 -6.194597142614612 A 18.95241469333314 18.95241469333314 0 1 1 837.4241769361195 -6.21354955414922"/><path fill="rgb(42, 158, 175)" stroke="none" paint-order="stroke fill markers" d=" M 833.528711752421 68.5181720114108 A 18.952414693333367 18.952414693333367 0 1 1 833.5287022762145 68.49921959987618"/><path fill="rgb(13, 161, 165)" stroke="none" paint-order="stroke fill markers" d=" M 796.1131586724762 48.49040776032177 A 18.952414693333367 18.952414693333367 0 1 1 796.1131491962697 48.47145534878717"/><path fill="rgb(13, 161, 165)" stroke="none" paint-order="stroke fill markers" d=" M 745.8331339253516 63.3115633472471 A 18.952414693333367 18.952414693333367 0 1 1 745.8331244491451 63.292610935712496"/><path fill="rgb(13, 161, 165)" stroke="none" paint-order="stroke fill markers" d=" M 777.3480376229861 41.78514513388632 A 29.726666666666688 29.726666666666688 0 1 1 777.348022759654 41.75541847217408"/><path fill="rgb(193, 128, 119)" stroke="none" paint-order="stroke fill markers" d=" M 781.1881991774878 109.38944738296925 A 29.72666666666646 29.72666666666646 0 1 1 781.1881843141557 109.359720721257"/><path fill="rgb(195, 122, 165)" stroke="none" paint-order="stroke fill markers" d=" M 919.3898809585276 -5.941762494825298 A 18.95241469333314 18.95241469333314 0 1 1 919.389871482321 -5.9607149063599065"/><path fill="rgb(195, 122, 165)" stroke="none" paint-order="stroke fill markers" d=" M 899.8354639772413 -5.42436699424627 A 29.72666666666646 29.72666666666646 0 1 1 899.8354491139091 -5.45409365595851"/><path fill="rgb(23, 160, 169)" stroke="none" paint-order="stroke fill markers" d=" M 9.918735271757953 59.149583500502786 A 18.95241469333331 18.95241469333331 0 1 1 9.918725795551396 59.13063108896818"/><path fill="rgb(23, 160, 169)" stroke="none" paint-order="stroke fill markers" d=" M 39.866176949945384 36.290018444774546 A 29.726666666666688 29.726666666666688 0 1 1 39.866162086613286 36.26029178306231"/><path fill="rgb(197, 122, 160)" stroke="none" paint-order="stroke fill markers" d=" M 19.90252135764962 -11.717262272424591 A 18.95241469333331 18.95241469333331 0 1 1 19.90251188144306 -11.736214683959199"/><path fill="rgb(196, 122, 163)" stroke="none" paint-order="stroke fill markers" d=" M 78.38354114095455 -7.648056686410996 A 29.726666666666688 29.726666666666688 0 1 1 78.38352627762245 -7.677783348123236"/><path fill="rgb(27, 160, 170)" stroke="none" paint-order="stroke fill markers" d=" M 172.55489148940745 62.399051581668346 A 18.95241469333331 18.95241469333331 0 1 1 172.55488201320088 62.38009917013374"/><path fill="rgb(27, 160, 170)" stroke="none" paint-order="stroke fill markers" d=" M 201.65530660521745 38.89157481062466 A 29.72666666666663 29.72666666666663 0 1 1 201.65529174188535 38.86184814891242"/><path fill="rgb(193, 128, 118)" stroke="none" paint-order="stroke fill markers" d=" M 211.27909389115604 103.63729044772049 A 29.726666666666688 29.726666666666688 0 1 1 211.27907902782394 103.60756378600824"/><path fill="rgb(193, 128, 118)" stroke="none" paint-order="stroke fill markers" d=" M 170.54988849185816 98.99232174821066 A 18.95241469333331 18.95241469333331 0 1 1 170.54987901565158 98.97336933667604"/><path fill="rgb(190, 130, 111)" stroke="none" paint-order="stroke fill markers" d=" M 138.49977476063577 80.79885169074339 A 18.95241469333331 18.95241469333331 0 1 1 138.4997652844292 80.77989927920878"/><path fill="rgb(190, 130, 111)" stroke="none" paint-order="stroke fill markers" d=" M 132.8270590884324 105.58606174258102 A 29.726666666666688 29.726666666666688 0 1 1 132.8270442251003 105.55633508086878"/><path fill="rgb(27, 160, 170)" stroke="none" paint-order="stroke fill markers" d=" M 121.20387352818057 39.10237915642108 A 29.726666666666688 29.726666666666688 0 1 1 121.20385866484847 39.07265249470884"/><path fill="rgb(27, 160, 170)" stroke="none" paint-order="stroke fill markers" d=" M 140.4771202130865 43.14264805400546 A 18.95241469333331 18.95241469333331 0 1 1 140.47711073687992 43.12369564247086"/><path fill="rgb(23, 160, 169)" stroke="none" paint-order="stroke fill markers" d=" M 59.03471993239896 41.00853915274536 A 18.952414693333253 18.952414693333253 0 1 1 59.0347104561924 40.98958674121075"/><path fill="rgb(27, 160, 170)" stroke="none" paint-order="stroke fill markers" d=" M 91.80805674779623 62.38925585536947 A 18.95241469333331 18.95241469333331 0 1 1 91.80804727158967 62.370303443834864"/><path fill="rgb(190, 130, 111)" stroke="none" paint-order="stroke fill markers" d=" M 91.75657508420898 104.12747956441729 A 18.95241469333331 18.95241469333331 0 1 1 91.75656560800242 104.10852715288267"/><path fill="rgb(191, 130, 112)" stroke="none" paint-order="stroke fill markers" d=" M 51.98342056916198 102.70713525076735 A 29.726666666666688 29.726666666666688 0 1 1 51.98340570582988 102.6774085890551"/><path fill="rgb(191, 130, 112)" stroke="none" paint-order="stroke fill markers" d=" M 58.02192982814438 78.15313428699778 A 18.95241469333331 18.95241469333331 0 1 1 58.02192035193782 78.13418187546317"/><path fill="rgb(191, 130, 112)" stroke="none" paint-order="stroke fill markers" d=" M 10.937710101522555 100.82386494557215 A 18.95241469333331 18.95241469333331 0 1 1 10.937700625315998 100.80491253403754"/><path fill="rgb(196, 122, 163)" stroke="none" paint-order="stroke fill markers" d=" M 97.8793353278752 -9.552664514765183 A 18.95241469333331 18.95241469333331 0 1 1 97.87932585166864 -9.571616926299791"/><path fill="rgb(197, 122, 160)" stroke="none" paint-order="stroke fill markers" d=" M 163.32216320076873 -6.2557410101912865 A 29.726666666666688 29.726666666666688 0 1 1 163.32214833743663 -6.285467671903526"/><path fill="rgb(197, 122, 160)" stroke="none" paint-order="stroke fill markers" d=" M 182.5945657894904 -10.301923370417171 A 18.95241469333331 18.95241469333331 0 1 1 182.59455631328382 -10.320875781951779"/><path fill="rgb(194, 122, 167)" stroke="none" paint-order="stroke fill markers" d=" M 569.5763804992778 -5.8558580316123425 A 29.726666666666688 29.726666666666688 0 1 1 569.5763656359456 -5.885584693324582"/><path fill="rgb(197, 122, 159)" stroke="none" paint-order="stroke fill markers" d=" M 507.316498529332 -9.43498194822746 A 18.952414693333367 18.952414693333367 0 1 1 507.31648905312545 -9.45393435976207"/><path fill="rgb(197, 122, 159)" stroke="none" paint-order="stroke fill markers" d=" M 488.0834849091096 -5.1211649923595814 A 29.726666666666688 29.726666666666688 0 1 1 488.0834700457775 -5.150891654071821"/><path fill="rgb(194, 122, 169)" stroke="none" paint-order="stroke fill markers" d=" M 648.7604761034188 -8.237803621417811 A 29.726666666666688 29.726666666666688 0 1 1 648.7604612400867 -8.26753028313005"/><path fill="rgb(194, 122, 169)" stroke="none" paint-order="stroke fill markers" d=" M 668.2834803333817 -6.799480047703014 A 18.95241469333314 18.95241469333314 0 1 1 668.2834708571752 -6.818432459237623"/><path fill="rgb(194, 122, 167)" stroke="none" paint-order="stroke fill markers" d=" M 589.1310669468917 -5.353696833416734 A 18.952414693333367 18.952414693333367 0 1 1 589.1310574706852 -5.372649244951343"/><path fill="rgb(20, 160, 168)" stroke="none" paint-order="stroke fill markers" d=" M 527.653333403447 37.802681846030964 A 29.726666666666517 29.726666666666517 0 1 1 527.6533185401149 37.772955184318725"/><path fill="rgb(20, 160, 168)" stroke="none" paint-order="stroke fill markers" d=" M 546.7156015464527 43.11993353582784 A 18.952414693333367 18.952414693333367 0 1 1 546.7155920702462 43.100981124293234"/><path fill="rgb(32, 159, 172)" stroke="none" paint-order="stroke fill markers" d=" M 582.3474051988094 64.04978353529759 A 18.95241469333314 18.95241469333314 0 1 1 582.3473957226029 64.03083112376298"/><path fill="rgb(193, 129, 117)" stroke="none" paint-order="stroke fill markers" d=" M 579.9827075195112 102.39738702004979 A 18.95241469333314 18.95241469333314 0 1 1 579.9826980433047 102.37843460851518"/><path fill="rgb(194, 127, 121)" stroke="none" paint-order="stroke fill markers" d=" M 547.9202251820761 83.77613530095505 A 18.95241469333314 18.95241469333314 0 1 1 547.9202157058696 83.75718288942043"/><path fill="rgb(193, 129, 117)" stroke="none" paint-order="stroke fill markers" d=" M 620.7359379840696 106.89336835795973 A 29.726666666666688 29.726666666666688 0 1 1 620.7359231207374 106.86364169624748"/><path fill="rgb(193, 129, 117)" stroke="none" paint-order="stroke fill markers" d=" M 628.9547988682339 83.89205922007397 A 18.952414693333367 18.952414693333367 0 1 1 628.9547893920274 83.87310680853936"/><path fill="rgb(190, 130, 111)" stroke="none" paint-order="stroke fill markers" d=" M 703.2291209990715 103.84043740500579 A 29.72666666666646 29.72666666666646 0 1 1 703.2291061357394 103.81071074329354"/><path fill="rgb(190, 130, 111)" stroke="none" paint-order="stroke fill markers" d=" M 708.8504540155313 79.02105028092012 A 18.952414693333367 18.952414693333367 0 1 1 708.8504445393248 79.00209786938551"/><path fill="rgb(190, 130, 111)" stroke="none" paint-order="stroke fill markers" d=" M 662.1556750823095 102.44121998619346 A 18.952414693333367 18.952414693333367 0 1 1 662.155665606103 102.42226757465885"/><path fill="rgb(38, 159, 174)" stroke="none" paint-order="stroke fill markers" d=" M 664.6428683850575 63.64694641645701 A 18.95241469333314 18.95241469333314 0 1 1 664.6428589088509 63.62799400492241"/><path fill="rgb(38, 159, 174)" stroke="none" paint-order="stroke fill markers" d=" M 691.6257037933776 38.71165698902939 A 29.72666666666646 29.72666666666646 0 1 1 691.6256889300455 38.681930327317154"/><path fill="rgb(38, 159, 174)" stroke="none" paint-order="stroke fill markers" d=" M 711.1603539133503 39.89542586850041 A 18.952414693333367 18.952414693333367 0 1 1 711.1603444371437 39.876473456965805"/><path fill="rgb(32, 159, 172)" stroke="none" paint-order="stroke fill markers" d=" M 630.1732948601057 42.89831631873437 A 18.95241469333314 18.95241469333314 0 1 1 630.1732853838992 42.87936390719977"/><path fill="rgb(32, 159, 172)" stroke="none" paint-order="stroke fill markers" d=" M 610.756216068881 40.047193763216455 A 29.726666666666688 29.726666666666688 0 1 1 610.7562012055489 40.01746710150422"/><path fill="rgb(196, 122, 163)" stroke="none" paint-order="stroke fill markers" d=" M 428.3631795692432 -5.568918811558774 A 18.952414693333367 18.952414693333367 0 1 1 428.3631700930366 -5.587871223093383"/><path fill="rgb(38, 159, 174)" stroke="none" paint-order="stroke fill markers" d=" M 466.9678493309246 42.47770115924254 A 18.952414693333367 18.952414693333367 0 1 1 466.967839854718 42.458748747707936"/><path fill="rgb(38, 159, 174)" stroke="none" paint-order="stroke fill markers" d=" M 447.4314020761564 41.338334310243 A 29.726666666666574 29.726666666666574 0 1 1 447.43138721282435 41.30860764853076"/><path fill="rgb(38, 159, 174)" stroke="none" paint-order="stroke fill markers" d=" M 420.48720756739493 66.29733828692315 A 18.952414693333367 18.952414693333367 0 1 1 420.48719809118836 66.27838587538854"/><path fill="rgb(32, 159, 172)" stroke="none" paint-order="stroke fill markers" d=" M 367.63136060597327 41.0574028524851 A 29.726666666666688 29.726666666666688 0 1 1 367.6313457426412 41.02767619077286"/><path fill="rgb(32, 159, 172)" stroke="none" paint-order="stroke fill markers" d=" M 387.06600764391095 43.726703967683534 A 18.952414693333367 18.952414693333367 0 1 1 387.0659981677044 43.70775155614893"/><path fill="rgb(191, 130, 112)" stroke="none" paint-order="stroke fill markers" d=" M 384.3578730343435 83.35161794029568 A 18.952414693333253 18.952414693333253 0 1 1 384.35786355813696 83.33266552876107"/><path fill="rgb(191, 130, 112)" stroke="none" paint-order="stroke fill markers" d=" M 378.59869836853744 108.08436733827648 A 29.726666666666574 29.726666666666574 0 1 1 378.5986835052054 108.05464067656423"/><path fill="rgb(189, 131, 107)" stroke="none" paint-order="stroke fill markers" d=" M 418.98941030370435 108.52337720064656 A 18.952414693333367 18.952414693333367 0 1 1 418.9894008274978 108.50442478911195"/><path fill="rgb(189, 131, 107)" stroke="none" paint-order="stroke fill markers" d=" M 460.09023056374457 107.90033937292742 A 29.726666666666688 29.726666666666688 0 1 1 460.0902157004125 107.87061271121517"/><path fill="rgb(189, 131, 107)" stroke="none" paint-order="stroke fill markers" d=" M 463.92445383395574 82.04676911368199 A 18.952414693333367 18.952414693333367 0 1 1 463.92444435774917 82.02781670214738"/><path fill="rgb(194, 127, 121)" stroke="none" paint-order="stroke fill markers" d=" M 538.1821573535342 105.50849620438419 A 29.726666666666745 29.726666666666745 0 1 1 538.1821424902021 105.47876954267194"/><path fill="rgb(194, 127, 121)" stroke="none" paint-order="stroke fill markers" d=" M 497.79930852504714 99.09851382699719 A 18.952414693333367 18.952414693333367 0 1 1 497.79929904884057 99.07956141546258"/><path fill="rgb(20, 160, 168)" stroke="none" paint-order="stroke fill markers" d=" M 497.2258656230868 60.27337327323153 A 18.952414693333253 18.952414693333253 0 1 1 497.22585614688023 60.25442086169692"/><path fill="rgb(195, 122, 166)" stroke="none" paint-order="stroke fill markers" d=" M 326.06735542903556 -6.828470514458559 A 29.726666666666688 29.726666666666688 0 1 1 326.0673405657035 -6.8581971761707985"/><path fill="rgb(195, 122, 166)" stroke="none" paint-order="stroke fill markers" d=" M 345.6263169830991 -6.911013873042521 A 18.952414693333253 18.952414693333253 0 1 1 345.62630750689254 -6.929966284577129"/><path fill="rgb(196, 122, 163)" stroke="none" paint-order="stroke fill markers" d=" M 408.8590680924694 -3.7937146104573003 A 29.726666666666574 29.726666666666574 0 1 1 408.8590532291373 -3.82344127216954"/><path fill="rgb(191, 130, 112)" stroke="none" paint-order="stroke fill markers" d=" M 337.5334813978887 106.52573614171592 A 18.952414693333253 18.952414693333253 0 1 1 337.5334719216821 106.50678373018131"/><path fill="rgb(193, 129, 117)" stroke="none" paint-order="stroke fill markers" d=" M 304.54185794226265 82.747600997483 A 18.952414693333253 18.952414693333253 0 1 1 304.5418484660561 82.72864858594839"/><path fill="rgb(193, 129, 117)" stroke="none" paint-order="stroke fill markers" d=" M 296.33247548480193 105.75630774047397 A 29.726666666666688 29.726666666666688 0 1 1 296.33246062146986 105.72658107876173"/><path fill="rgb(32, 159, 172)" stroke="none" paint-order="stroke fill markers" d=" M 306.6356577831927 40.27756665794675 A 18.952414693333367 18.952414693333367 0 1 1 306.6356483069861 40.258614246412144"/><path fill="rgb(32, 159, 172)" stroke="none" paint-order="stroke fill markers" d=" M 339.375675197248 65.16569939321028 A 18.952414693333367 18.952414693333367 0 1 1 339.3756657210414 65.14674698167566"/><path fill="rgb(32, 159, 172)" stroke="none" paint-order="stroke fill markers" d=" M 287.23937859885547 37.225300788352 A 29.726666666666688 29.726666666666688 0 1 1 287.2393637355234 37.19557412663976"/><path fill="rgb(32, 159, 172)" stroke="none" paint-order="stroke fill markers" d=" M 258.66185136440043 61.10980059111591 A 18.952414693333367 18.952414693333367 0 1 1 258.66184188819386 61.09084817958131"/><path fill="rgb(27, 160, 170)" stroke="none" paint-order="stroke fill markers" d=" M 220.97729485354483 42.57274545676705 A 18.952414693333367 18.952414693333367 0 1 1 220.97728537733826 42.553793045232446"/><path fill="rgb(195, 122, 165)" stroke="none" paint-order="stroke fill markers" d=" M 243.4287548000422 -5.906063338776789 A 29.726666666666688 29.726666666666688 0 1 1 243.42873993671012 -5.935790000489029"/><path fill="rgb(195, 122, 165)" stroke="none" paint-order="stroke fill markers" d=" M 262.9824248410377 -6.463226027498877 A 18.952414693333367 18.952414693333367 0 1 1 262.9824153648311 -6.482178439033485"/><path fill="rgb(32, 159, 172)" stroke="none" paint-order="stroke fill markers" d=" M 219.3510175042066 263.3360651796148 A 18.95241469333331 18.95241469333331 0 1 1 219.35100802800002 263.3171127680802"/><path fill="rgb(20, 160, 168)" stroke="none" paint-order="stroke fill markers" d=" M 279.36471877537355 262.4528943095049 A 29.726666666666688 29.726666666666688 0 1 1 279.3647039120415 262.4231676477927"/><path fill="rgb(20, 160, 168)" stroke="none" paint-order="stroke fill markers" d=" M 298.4513791425608 267.6390238817887 A 18.952414693333367 18.952414693333367 0 1 1 298.45136966635425 267.6200714702541"/><path fill="rgb(20, 160, 168)" stroke="none" paint-order="stroke fill markers" d=" M 332.7599636246434 288.17541662555095 A 18.952414693333253 18.952414693333253 0 1 1 332.7599541484368 288.15646421401635"/><path fill="rgb(194, 122, 169)" stroke="none" paint-order="stroke fill markers" d=" M 296.35844972904266 192.97487987957072 A 18.952414693333367 18.952414693333367 0 1 1 296.3584402528361 192.95592746803612"/><path fill="rgb(194, 122, 169)" stroke="none" paint-order="stroke fill markers" d=" M 320.989888363655 219.21671788443746 A 29.726666666666688 29.726666666666688 0 1 1 320.9898735003229 219.18699122272523"/><path fill="rgb(194, 122, 169)" stroke="none" paint-order="stroke fill markers" d=" M 340.51230873273033 220.66664999294983 A 18.952414693333253 18.952414693333253 0 1 1 340.51229925652376 220.64769758141523"/><path fill="rgb(70, 161, 118)" stroke="none" paint-order="stroke fill markers" d=" M 337.60835304170183 179.70982801778598 A 18.952414693333367 18.952414693333367 0 1 1 337.60834356549526 179.69087560625138"/><path fill="rgb(70, 161, 118)" stroke="none" paint-order="stroke fill markers" d=" M 334.36919925377873 153.54656915798603 A 29.726666666666688 29.726666666666688 0 1 1 334.36918439044666 153.5168424962738"/><path fill="rgb(70, 161, 118)" stroke="none" paint-order="stroke fill markers" d=" M 293.2901398943274 152.2674999952485 A 18.952414693333367 18.952414693333367 0 1 1 293.29013041812084 152.2485475837139"/><path fill="rgb(57, 162, 126)" stroke="none" paint-order="stroke fill markers" d=" M 260.5159353396455 174.59133347408624 A 18.952414693333367 18.952414693333367 0 1 1 260.51592586343895 174.57238106255164"/><path fill="rgb(196, 122, 163)" stroke="none" paint-order="stroke fill markers" d=" M 260.66275186358627 213.7504108731033 A 18.952414693333253 18.952414693333253 0 1 1 260.6627423873797 213.7314584615687"/><path fill="rgb(196, 122, 163)" stroke="none" paint-order="stroke fill markers" d=" M 241.15449794266777 215.4574506582726 A 29.72666666666663 29.72666666666663 0 1 1 241.15448307933568 215.42772399656036"/><path fill="rgb(57, 162, 126)" stroke="none" paint-order="stroke fill markers" d=" M 253.49596294025463 150.70045264848045 A 29.726666666666688 29.726666666666688 0 1 1 253.49594807692253 150.67072598676822"/><path fill="rgb(193, 128, 118)" stroke="none" paint-order="stroke fill markers" d=" M 219.61861379086355 80.73070980266505 A 18.95241469333331 18.95241469333331 0 1 1 219.61860431465698 80.71175739113043"/><path fill="rgb(193, 129, 117)" stroke="none" paint-order="stroke fill markers" d=" M 255.57739692497483 101.27200831526568 A 18.952414693333367 18.952414693333367 0 1 1 255.57738744876826 101.25305590373107"/><path fill="rgb(193, 128, 119)" stroke="none" paint-order="stroke fill markers" d=" M 371.0561992115342 332.10653968719663 A 29.726666666666688 29.726666666666688 0 1 1 371.0561843482021 332.0768130254844"/><path fill="rgb(193, 128, 119)" stroke="none" paint-order="stroke fill markers" d=" M 330.4235198184644 326.9068786636312 A 18.952414693333367 18.952414693333367 0 1 1 330.4235103422578 326.8879262520966"/><path fill="rgb(189, 131, 109)" stroke="none" paint-order="stroke fill markers" d=" M 296.8288949183033 301.9684359201723 A 18.952414693333253 18.952414693333253 0 1 1 296.82888544209675 301.9494835086377"/><path fill="rgb(189, 131, 109)" stroke="none" paint-order="stroke fill markers" d=" M 292.4361573354243 327.5160041400306 A 29.726666666666688 29.726666666666688 0 1 1 292.43614247209223 327.48627747831836"/><path fill="rgb(62, 162, 123)" stroke="none" paint-order="stroke fill markers" d=" M 329.5776477454554 375.4398979517771 A 29.726666666666688 29.726666666666688 0 1 1 329.57763288212334 375.41017129006485"/><path fill="rgb(62, 162, 123)" stroke="none" paint-order="stroke fill markers" d=" M 334.9654512742181 400.4037336243137 A 18.952414693333253 18.952414693333253 0 1 1 334.9654417980115 400.3847812127791"/><path fill="rgb(194, 122, 167)" stroke="none" paint-order="stroke fill markers" d=" M 337.71506486735626 440.5706933997734 A 18.952414693333253 18.952414693333253 0 1 1 337.7150553911497 440.5517409882388"/><path fill="rgb(194, 122, 167)" stroke="none" paint-order="stroke fill markers" d=" M 318.1559889562671 440.55217983216954 A 29.726666666666688 29.726666666666688 0 1 1 318.155974092935 440.5224531704573"/><path fill="rgb(194, 122, 167)" stroke="none" paint-order="stroke fill markers" d=" M 292.2315592493632 414.9951782969877 A 18.952414693333253 18.952414693333253 0 1 1 292.23154977315664 414.9762258854531"/><path fill="rgb(62, 162, 123)" stroke="none" paint-order="stroke fill markers" d=" M 288.4923372344654 376.5702053799334 A 18.952414693333367 18.952414693333367 0 1 1 288.49232775825885 376.5512529683988"/><path fill="rgb(60, 162, 124)" stroke="none" paint-order="stroke fill markers" d=" M 257.2158274310356 398.25919911399427 A 18.952414693333367 18.952414693333367 0 1 1 257.21581795482905 398.2402467024597"/><path fill="rgb(196, 122, 163)" stroke="none" paint-order="stroke fill markers" d=" M 259.55083823622425 438.70919591716176 A 18.952414693333253 18.952414693333253 0 1 1 259.5508287600177 438.69024350562717"/><path fill="rgb(196, 122, 163)" stroke="none" paint-order="stroke fill markers" d=" M 240.0564768276467 440.63523002971317 A 29.726666666666688 29.726666666666688 0 1 1 240.0564619643146 440.60550336800094"/><path fill="rgb(60, 162, 124)" stroke="none" paint-order="stroke fill markers" d=" M 251.31320701372323 373.6177040694977 A 29.726666666666688 29.726666666666688 0 1 1 251.31319215039113 373.58797740778544"/><path fill="rgb(189, 131, 109)" stroke="none" paint-order="stroke fill markers" d=" M 251.32857148515262 327.5156414789512 A 18.952414693333367 18.952414693333367 0 1 1 251.32856200894605 327.4966890674166"/><path fill="rgb(20, 160, 168)" stroke="none" paint-order="stroke fill markers" d=" M 249.04181758425153 285.0096905619107 A 18.952414693333367 18.952414693333367 0 1 1 249.04180810804496 284.9907381503761"/><path fill="rgb(20, 160, 168)" stroke="none" paint-order="stroke fill markers" d=" M 382.35467776108675 271.31116871865345 A 18.952414693333367 18.952414693333367 0 1 1 382.3546682848802 271.29221630711885"/><path fill="rgb(23, 160, 169)" stroke="none" paint-order="stroke fill markers" d=" M 415.70203426770576 289.01186796498433 A 18.952414693333367 18.952414693333367 0 1 1 415.7020247914992 288.99291555344973"/><path fill="rgb(23, 160, 169)" stroke="none" paint-order="stroke fill markers" d=" M 445.70582985468644 266.1971162001424 A 29.726666666666688 29.726666666666688 0 1 1 445.7058149913544 266.16738953843014"/><path fill="rgb(23, 160, 169)" stroke="none" paint-order="stroke fill markers" d=" M 464.8626433139977 270.98550865179834 A 18.952414693333253 18.952414693333253 0 1 1 464.8626338377911 270.96655624026374"/><path fill="rgb(193, 129, 117)" stroke="none" paint-order="stroke fill markers" d=" M 465.9280369706709 307.2246795952952 A 18.952414693333253 18.952414693333253 0 1 1 465.92802749446435 307.2057271837606"/><path fill="rgb(193, 129, 117)" stroke="none" paint-order="stroke fill markers" d=" M 457.9062294430168 330.37858285900495 A 29.726666666666688 29.726666666666688 0 1 1 457.90621457968473 330.3488561972927"/><path fill="rgb(193, 129, 117)" stroke="none" paint-order="stroke fill markers" d=" M 417.11564242040737 326.1248635947416 A 18.952414693333367 18.952414693333367 0 1 1 417.1156329442008 326.105911183207"/><path fill="rgb(58, 162, 125)" stroke="none" paint-order="stroke fill markers" d=" M 450.9098075345759 379.7405927215983 A 18.952414693333253 18.952414693333253 0 1 1 450.90979805836935 379.7216403100637"/><path fill="rgb(197, 122, 160)" stroke="none" paint-order="stroke fill markers" d=" M 452.5024056774652 420.5217327036781 A 18.952414693333253 18.952414693333253 0 1 1 452.50239620125865 420.5027802921435"/><path fill="rgb(196, 122, 163)" stroke="none" paint-order="stroke fill markers" d=" M 418.17064379199866 438.0523805396688 A 18.952414693333367 18.952414693333367 0 1 1 418.1706343157921 438.0334281281342"/><path fill="rgb(60, 162, 124)" stroke="none" paint-order="stroke fill markers" d=" M 413.1574249097816 400.2329576035304 A 18.952414693333367 18.952414693333367 0 1 1 413.157415433575 400.2140051919958"/><path fill="rgb(60, 162, 124)" stroke="none" paint-order="stroke fill markers" d=" M 407.0461583944138 375.72622446405836 A 29.726666666666688 29.726666666666688 0 1 1 407.0461435310817 375.69649780234613"/><path fill="rgb(196, 122, 163)" stroke="none" paint-order="stroke fill markers" d=" M 398.6762573188582 439.9780675932979 A 29.726666666666688 29.726666666666688 0 1 1 398.6762424555261 439.9483409315857"/><path fill="rgb(196, 122, 163)" stroke="none" paint-order="stroke fill markers" d=" M 371.0528826011678 415.4476502595199 A 18.952414693333253 18.952414693333253 0 1 1 371.05287312496125 415.4286978479853"/><path fill="rgb(60, 162, 124)" stroke="none" paint-order="stroke fill markers" d=" M 366.0061617267991 377.6944090884171 A 18.952414693333367 18.952414693333367 0 1 1 366.00615225059255 377.6754566768825"/><path fill="rgb(193, 128, 119)" stroke="none" paint-order="stroke fill markers" d=" M 379.84140371706036 309.55860265671004 A 18.952414693333253 18.952414693333253 0 1 1 379.8413942408538 309.53965024517544"/><path fill="rgb(34, 159, 172)" stroke="none" paint-order="stroke fill markers" d=" M 546.3288562235825 267.3019884173995 A 18.952414693333367 18.952414693333367 0 1 1 546.328846747376 267.2830360058649"/><path fill="rgb(34, 159, 172)" stroke="none" paint-order="stroke fill markers" d=" M 526.8441080724472 265.23800258175004 A 29.726666666666745 29.726666666666745 0 1 1 526.844093209115 265.2082759200378"/><path fill="rgb(34, 159, 172)" stroke="none" paint-order="stroke fill markers" d=" M 499.10239924997944 289.69115390594084 A 18.952414693333253 18.952414693333253 0 1 1 499.10238977377287 289.67220149440624"/><path fill="rgb(197, 122, 160)" stroke="none" paint-order="stroke fill markers" d=" M 482.9151037494816 218.6429683762177 A 29.726666666666688 29.726666666666688 0 1 1 482.91508888614953 218.61324171450548"/><path fill="rgb(197, 122, 160)" stroke="none" paint-order="stroke fill markers" d=" M 502.2152386775609 214.79657011919733 A 18.952414693333253 18.952414693333253 0 1 1 502.2152292013543 214.77761770766273"/><path fill="rgb(51, 162, 129)" stroke="none" paint-order="stroke fill markers" d=" M 503.6603908243073 177.55921380708105 A 18.952414693333253 18.952414693333253 0 1 1 503.6603813481007 177.54026139554645"/><path fill="rgb(51, 162, 129)" stroke="none" paint-order="stroke fill markers" d=" M 495.7037549229905 154.35541235273467 A 29.726666666666688 29.726666666666688 0 1 1 495.70374005965846 154.32568569102244"/><path fill="rgb(51, 162, 129)" stroke="none" paint-order="stroke fill markers" d=" M 454.90132056665556 158.52929492935675 A 18.952414693333367 18.952414693333367 0 1 1 454.901311090449 158.51034251782215"/><path fill="rgb(197, 122, 160)" stroke="none" paint-order="stroke fill markers" d=" M 453.678481736032 195.2365116907422 A 18.952414693333253 18.952414693333253 0 1 1 453.6784722598254 195.2175592792076"/><path fill="rgb(194, 122, 168)" stroke="none" paint-order="stroke fill markers" d=" M 419.1490492670261 218.07524172729973 A 18.952414693333253 18.952414693333253 0 1 1 419.14903979081953 218.05628931576513"/><path fill="rgb(60, 162, 124)" stroke="none" paint-order="stroke fill markers" d=" M 420.9139371844839 178.08866054472003 A 18.952414693333367 18.952414693333367 0 1 1 420.91392770827736 178.06970813318543"/><path fill="rgb(60, 162, 124)" stroke="none" paint-order="stroke fill markers" d=" M 414.8404218681192 153.55736567137433 A 29.726666666666688 29.726666666666688 0 1 1 414.84040700478715 153.5276390096621"/><path fill="rgb(60, 162, 124)" stroke="none" paint-order="stroke fill markers" d=" M 373.797428901365 155.48147431796315 A 18.952414693333253 18.952414693333253 0 1 1 373.7974194251584 155.46252190642855"/><path fill="rgb(194, 122, 168)" stroke="none" paint-order="stroke fill markers" d=" M 374.3002200723268 191.46074200537953 A 18.952414693333253 18.952414693333253 0 1 1 374.3002105961202 191.44178959384493"/><path fill="rgb(194, 122, 168)" stroke="none" paint-order="stroke fill markers" d=" M 399.59890991100184 217.35905391838253 A 29.726666666666688 29.726666666666688 0 1 1 399.59889504766977 217.3293272566703"/><path fill="rgb(20, 160, 168)" stroke="none" paint-order="stroke fill markers" d=" M 363.3257612227789 265.81984881030615 A 29.726666666666688 29.726666666666688 0 1 1 363.32574635944684 265.7901221485939"/><path fill="rgb(197, 122, 159)" stroke="none" paint-order="stroke fill markers" d=" M 664.9882693468894 214.70935181902007 A 18.952414693333367 18.952414693333367 0 1 1 664.9882598706829 214.69039940748547"/><path fill="rgb(193, 122, 170)" stroke="none" paint-order="stroke fill markers" d=" M 727.8474889277659 217.82475690034528 A 29.726666666666688 29.726666666666688 0 1 1 727.8474740644338 217.79503023863305"/><path fill="rgb(193, 122, 170)" stroke="none" paint-order="stroke fill markers" d=" M 703.9731323647106 191.21767238656844 A 18.952414693333367 18.952414693333367 0 1 1 703.9731228885041 191.19871997503384"/><path fill="rgb(72, 161, 117)" stroke="none" paint-order="stroke fill markers" d=" M 703.7495084347081 152.50566478756127 A 18.952414693333367 18.952414693333367 0 1 1 703.7494989585016 152.48671237602667"/><path fill="rgb(58, 162, 125)" stroke="none" paint-order="stroke fill markers" d=" M 665.128186338379 177.75091855734433 A 18.952414693333367 18.952414693333367 0 1 1 665.1281768621725 177.73196614580974"/><path fill="rgb(58, 162, 125)" stroke="none" paint-order="stroke fill markers" d=" M 658.6533463266801 153.48484918951567 A 29.726666666666688 29.726666666666688 0 1 1 658.653331463348 153.45512252780344"/><path fill="rgb(197, 122, 159)" stroke="none" paint-order="stroke fill markers" d=" M 645.7567857209381 219.0332220029643 A 29.72666666666646 29.72666666666646 0 1 1 645.7567708576059 219.00349534125206"/><path fill="rgb(197, 122, 159)" stroke="none" paint-order="stroke fill markers" d=" M 616.1293055942704 195.92332164005154 A 18.952414693333367 18.952414693333367 0 1 1 616.1292961180638 195.90436922851694"/><path fill="rgb(58, 162, 125)" stroke="none" paint-order="stroke fill markers" d=" M 617.6458713625175 155.87957916170933 A 18.952414693333367 18.952414693333367 0 1 1 617.645861886311 155.86062675017473"/><path fill="rgb(68, 161, 119)" stroke="none" paint-order="stroke fill markers" d=" M 580.0986703890765 179.3094068949655 A 18.952414693333367 18.952414693333367 0 1 1 580.09866091287 179.2904544834309"/><path fill="rgb(68, 161, 119)" stroke="none" paint-order="stroke fill markers" d=" M 576.4495959099561 153.35769951250518 A 29.726666666666688 29.726666666666688 0 1 1 576.449581046624 153.32797285079295"/><path fill="rgb(68, 161, 119)" stroke="none" paint-order="stroke fill markers" d=" M 535.3539607265907 152.52965567749027 A 18.952414693333367 18.952414693333367 0 1 1 535.3539512503842 152.51070326595567"/><path fill="rgb(195, 122, 166)" stroke="none" paint-order="stroke fill markers" d=" M 536.9643620791808 194.89325571945062 A 18.95241469333314 18.95241469333314 0 1 1 536.9643526029743 194.87430330791602"/><path fill="rgb(195, 122, 166)" stroke="none" paint-order="stroke fill markers" d=" M 563.1625837677341 220.29488767535793 A 29.726666666666688 29.726666666666688 0 1 1 563.162568904402 220.2651610136457"/><path fill="rgb(195, 122, 166)" stroke="none" paint-order="stroke fill markers" d=" M 582.72020076489 220.0051196590855 A 18.952414693333367 18.952414693333367 0 1 1 582.7201912886835 219.9861672475509"/><path fill="rgb(54, 157, 180)" stroke="none" paint-order="stroke fill markers" d=" M 582.2131630713557 293.92336495952924 A 18.952414693333367 18.952414693333367 0 1 1 582.2131535951492 293.90441254799464"/><path fill="rgb(58, 162, 125)" stroke="none" paint-order="stroke fill markers" d=" M 612.563182990184 380.70875103751496 A 18.952414693333367 18.952414693333367 0 1 1 612.5631735139775 380.68979862598036"/><path fill="rgb(58, 162, 125)" stroke="none" paint-order="stroke fill markers" d=" M 653.5611254544456 378.2028039302884 A 29.726666666666688 29.726666666666688 0 1 1 653.5611105911134 378.17307726857615"/><path fill="rgb(198, 122, 154)" stroke="none" paint-order="stroke fill markers" d=" M 727.5255997062843 443.83899286021 A 29.726666666666688 29.726666666666688 0 1 1 727.5255848429522 443.80926619849777"/><path fill="rgb(198, 122, 154)" stroke="none" paint-order="stroke fill markers" d=" M 695.7174735788283 422.5833775058542 A 18.952414693333367 18.952414693333367 0 1 1 695.7174641026218 422.5644250943196"/><path fill="rgb(42, 162, 134)" stroke="none" paint-order="stroke fill markers" d=" M 694.746010202922 381.38730121041954 A 18.952414693333367 18.952414693333367 0 1 1 694.7460007267155 381.36834879888494"/><path fill="rgb(58, 162, 125)" stroke="none" paint-order="stroke fill markers" d=" M 660.1302382984011 402.40523465927185 A 18.952414693333367 18.952414693333367 0 1 1 660.1302288221946 402.38628224773726"/><path fill="rgb(188, 132, 105)" stroke="none" paint-order="stroke fill markers" d=" M 699.5259161668487 304.61402589696286 A 18.95241469333314 18.95241469333314 0 1 1 699.5259066906422 304.59507348542826"/><path fill="rgb(188, 132, 105)" stroke="none" paint-order="stroke fill markers" d=" M 696.7850737048268 331.0240726094341 A 29.72666666666646 29.72666666666646 0 1 1 696.7850588414947 330.99434594772185"/><path fill="rgb(188, 132, 105)" stroke="none" paint-order="stroke fill markers" d=" M 655.7354079150562 332.8462307172359 A 18.952414693333367 18.952414693333367 0 1 1 655.7353984388496 332.8272783057013"/><path fill="rgb(185, 133, 100)" stroke="none" paint-order="stroke fill markers" d=" M 618.0719343470328 332.62921228164015 A 29.726666666666688 29.726666666666688 0 1 1 618.0719194837006 332.5994856199279"/><path fill="rgb(185, 133, 100)" stroke="none" paint-order="stroke fill markers" d=" M 618.5514070612096 305.2345654665113 A 18.952414693333367 18.952414693333367 0 1 1 618.5513975850031 305.2156130549767"/><path fill="rgb(54, 157, 180)" stroke="none" paint-order="stroke fill markers" d=" M 605.6263815223954 267.1061475326922 A 29.726666666666688 29.726666666666688 0 1 1 605.6263666590633 267.07642087098"/><path fill="rgb(54, 157, 180)" stroke="none" paint-order="stroke fill markers" d=" M 625.0520604073363 264.34250059981963 A 18.952414693333367 18.952414693333367 0 1 1 625.0520509311298 264.32354818828503"/><path fill="rgb(44, 158, 176)" stroke="none" paint-order="stroke fill markers" d=" M 660.9626147376555 286.5841300013202 A 18.952414693333367 18.952414693333367 0 1 1 660.962605261449 286.5651775897856"/><path fill="rgb(44, 158, 176)" stroke="none" paint-order="stroke fill markers" d=" M 686.6024590482778 260.8695540157563 A 29.726666666666688 29.726666666666688 0 1 1 686.6024441849456 260.8398273540441"/><path fill="rgb(44, 158, 176)" stroke="none" paint-order="stroke fill markers" d=" M 706.1595600084888 260.5325678139781 A 18.952414693333367 18.952414693333367 0 1 1 706.1595505322823 260.5136154024435"/><path fill="rgb(20, 160, 168)" stroke="none" paint-order="stroke fill markers" d=" M 491.8169001860313 514.1428924833376 A 18.952414693333367 18.952414693333367 0 1 1 491.81689070982475 514.123940071803"/><path fill="rgb(20, 160, 168)" stroke="none" paint-order="stroke fill markers" d=" M 522.3868503942274 491.79080569976577 A 29.726666666666745 29.726666666666745 0 1 1 522.3868355308953 491.76107903805354"/><path fill="rgb(197, 122, 160)" stroke="none" paint-order="stroke fill markers" d=" M 481.59003130729894 444.0386331728917 A 29.726666666666688 29.726666666666688 0 1 1 481.5900164439669 444.0089065111795"/><path fill="rgb(197, 122, 160)" stroke="none" paint-order="stroke fill markers" d=" M 500.91401710689917 440.37294653950687 A 18.952414693333367 18.952414693333367 0 1 1 500.9140076306926 440.35399412797227"/><path fill="rgb(58, 162, 125)" stroke="none" paint-order="stroke fill markers" d=" M 498.3442199049255 401.7100232496193 A 18.952414693333367 18.952414693333367 0 1 1 498.34421042871895 401.6910708380847"/><path fill="rgb(58, 162, 125)" stroke="none" paint-order="stroke fill markers" d=" M 491.9224477092908 377.4083561013836 A 29.726666666666574 29.726666666666574 0 1 1 491.9224328459587 377.3786294396714"/><path fill="rgb(188, 132, 105)" stroke="none" paint-order="stroke fill markers" d=" M 498.71789937223645 334.3584427076696 A 18.952414693333367 18.952414693333367 0 1 1 498.7178898960299 334.339490296135"/><path fill="rgb(188, 132, 105)" stroke="none" paint-order="stroke fill markers" d=" M 539.7672708520483 332.5316783985102 A 29.72666666666663 29.72666666666663 0 1 1 539.7672559887162 332.501951736798"/><path fill="rgb(188, 132, 105)" stroke="none" paint-order="stroke fill markers" d=" M 542.5038640523151 306.11957680794376 A 18.952414693333367 18.952414693333367 0 1 1 542.5038545761086 306.10062439640916"/><path fill="rgb(185, 133, 100)" stroke="none" paint-order="stroke fill markers" d=" M 577.2761771823223 336.8482717361015 A 18.952414693333367 18.952414693333367 0 1 1 577.2761677061158 336.8293193245669"/><path fill="rgb(60, 162, 124)" stroke="none" paint-order="stroke fill markers" d=" M 580.6279417796522 405.0481092548418 A 18.95241469333314 18.95241469333314 0 1 1 580.6279323034457 405.0291568433072"/><path fill="rgb(60, 162, 124)" stroke="none" paint-order="stroke fill markers" d=" M 574.6497894956094 380.45512026945937 A 29.726666666666688 29.726666666666688 0 1 1 574.6497746322773 380.42539360774714"/><path fill="rgb(60, 162, 124)" stroke="none" paint-order="stroke fill markers" d=" M 533.5995400008499 382.26806363899834 A 18.952414693333367 18.952414693333367 0 1 1 533.5995305246433 382.24911122746374"/><path fill="rgb(196, 122, 162)" stroke="none" paint-order="stroke fill markers" d=" M 535.7132236642367 423.0401923805124 A 18.952414693333367 18.952414693333367 0 1 1 535.7132141880302 423.0212399689778"/><path fill="rgb(196, 122, 162)" stroke="none" paint-order="stroke fill markers" d=" M 583.5285771790814 444.2141731319901 A 18.952414693333367 18.952414693333367 0 1 1 583.5285677028749 444.1952207204555"/><path fill="rgb(196, 122, 163)" stroke="none" paint-order="stroke fill markers" d=" M 614.4144273831944 423.43803966966425 A 18.95241469333314 18.95241469333314 0 1 1 614.4144179069879 423.41908725812965"/><path fill="rgb(192, 129, 116)" stroke="none" paint-order="stroke fill markers" d=" M 696.7408943760981 557.324127904262 A 29.726666666666688 29.726666666666688 0 1 1 696.740879512766 557.2944012425497"/><path fill="rgb(192, 129, 116)" stroke="none" paint-order="stroke fill markers" d=" M 704.4613547608756 533.9418352185868 A 18.952414693333367 18.952414693333367 0 1 1 704.461345284669 533.9228828070521"/><path fill="rgb(32, 159, 172)" stroke="none" paint-order="stroke fill markers" d=" M 658.3432879909456 513.8502606143234 A 18.952414693333367 18.952414693333367 0 1 1 658.343278514739 513.8313082027887"/><path fill="rgb(32, 159, 172)" stroke="none" paint-order="stroke fill markers" d=" M 686.5567071202142 489.71302642057117 A 29.726666666666688 29.726666666666688 0 1 1 686.5566922568821 489.68329975885894"/><path fill="rgb(32, 159, 172)" stroke="none" paint-order="stroke fill markers" d=" M 705.9959891623885 492.3322622624382 A 18.95241469333314 18.95241469333314 0 1 1 705.995979686182 492.3133098509036"/><path fill="rgb(196, 122, 163)" stroke="none" paint-order="stroke fill markers" d=" M 661.5849672507713 445.93842060340296 A 18.952414693333367 18.952414693333367 0 1 1 661.5849577745648 445.91946819186836"/><path fill="rgb(196, 122, 163)" stroke="none" paint-order="stroke fill markers" d=" M 642.0951656130928 447.9310996939738 A 29.726666666666688 29.726666666666688 0 1 1 642.0951507497607 447.9013730322616"/><path fill="rgb(38, 159, 174)" stroke="none" paint-order="stroke fill markers" d=" M 623.4673331374247 493.4765650717628 A 18.952414693333367 18.952414693333367 0 1 1 623.4673236612182 493.4576126602282"/><path fill="rgb(196, 122, 162)" stroke="none" paint-order="stroke fill markers" d=" M 564.110083622491 447.0510801585791 A 29.726666666666688 29.726666666666688 0 1 1 564.1100687591588 447.0213534968669"/><path fill="rgb(20, 160, 168)" stroke="none" paint-order="stroke fill markers" d=" M 541.4147430774447 497.28736447711395 A 18.952414693333367 18.952414693333367 0 1 1 541.4147336012381 497.26841206557935"/><path fill="rgb(38, 159, 174)" stroke="none" paint-order="stroke fill markers" d=" M 576.8840401642092 517.1057819552265 A 18.952414693333367 18.952414693333367 0 1 1 576.8840306880027 517.0868295436918"/><path fill="rgb(38, 159, 174)" stroke="none" paint-order="stroke fill markers" d=" M 603.9360828347073 492.2131699407841 A 29.726666666666688 29.726666666666688 0 1 1 603.9360679713752 492.18344327907187"/><path fill="rgb(191, 130, 113)" stroke="none" paint-order="stroke fill markers" d=" M 574.310847711716 553.8053625903553 A 18.952414693333367 18.952414693333367 0 1 1 574.3108382355094 553.7864101788207"/><path fill="rgb(191, 130, 112)" stroke="none" paint-order="stroke fill markers" d=" M 537.0510772661976 534.1273731113225 A 18.952414693333367 18.952414693333367 0 1 1 537.0510677899911 534.1084206997879"/><path fill="rgb(191, 130, 112)" stroke="none" paint-order="stroke fill markers" d=" M 531.1122009942169 558.7456236670035 A 29.72666666666663 29.72666666666663 0 1 1 531.1121861308848 558.7158970052913"/><path fill="rgb(191, 130, 112)" stroke="none" paint-order="stroke fill markers" d=" M 490.05909341852924 556.9783923913669 A 18.952414693333367 18.952414693333367 0 1 1 490.0590839423227 556.9594399798323"/><path fill="rgb(34, 159, 172)" stroke="none" paint-order="stroke fill markers" d=" M 670.3118456171844 601.6809108841105 A 18.952414693333367 18.952414693333367 0 1 1 670.3118361409779 601.6619584725759"/><path fill="rgb(34, 159, 172)" stroke="none" paint-order="stroke fill markers" d=" M 650.8302279429181 599.5739803778123 A 29.726666666666688 29.726666666666688 0 1 1 650.830213079586 599.5442537161"/><path fill="rgb(191, 130, 113)" stroke="none" paint-order="stroke fill markers" d=" M 615.3245085253191 556.125045021184 A 29.726666666666688 29.726666666666688 0 1 1 615.3244936619869 556.0953183594717"/><path fill="rgb(191, 130, 113)" stroke="none" paint-order="stroke fill markers" d=" M 621.7356131591939 531.8162435610988 A 18.952414693333367 18.952414693333367 0 1 1 621.7356036829874 531.7972911495641"/><path fill="rgb(192, 129, 116)" stroke="none" paint-order="stroke fill markers" d=" M 655.8976020951927 553.4384078526455 A 18.952414693333367 18.952414693333367 0 1 1 655.8975926189862 553.4194554411108"/><path fill="rgb(16, 160, 166)" stroke="none" paint-order="stroke fill markers" d=" M 491.4257572086529 600.8723999011546 A 29.726666666666688 29.726666666666688 0 1 1 491.4257423453208 600.8426732394423"/><path fill="rgb(16, 160, 166)" stroke="none" paint-order="stroke fill markers" d=" M 510.22376669989734 607.4391199404473 A 18.952414693333367 18.952414693333367 0 1 1 510.22375722369077 607.4201675289127"/><path fill="rgb(52, 157, 179)" stroke="none" paint-order="stroke fill markers" d=" M 571.708258016741 601.9931700605513 A 29.72666666666646 29.72666666666646 0 1 1 571.7082431534088 601.963443398839"/><path fill="rgb(52, 157, 179)" stroke="none" paint-order="stroke fill markers" d=" M 591.1911226088484 599.9032304578857 A 18.952414693333367 18.952414693333367 0 1 1 591.1911131326419 599.884278046351"/><path fill="rgb(190, 130, 110)" stroke="none" paint-order="stroke fill markers" d=" M 454.58611606014273 527.7708549888407 A 18.952414693333367 18.952414693333367 0 1 1 454.58610658393616 527.751902577306"/><path fill="rgb(190, 130, 110)" stroke="none" paint-order="stroke fill markers" d=" M 449.6881879638358 553.0283842291701 A 29.726666666666688 29.726666666666688 0 1 1 449.6881731005037 552.9986575674578"/><path fill="rgb(190, 130, 110)" stroke="none" paint-order="stroke fill markers" d=" M 408.58628367364196 552.4575137498235 A 18.952414693333367 18.952414693333367 0 1 1 408.5862741974354 552.4385613382889"/><path fill="rgb(16, 160, 166)" stroke="none" paint-order="stroke fill markers" d=" M 460.01778070801555 622.4957900243495 A 18.952414693333253 18.952414693333253 0 1 1 460.017771231809 622.4768376128148"/><path fill="rgb(46, 158, 177)" stroke="none" paint-order="stroke fill markers" d=" M 428.26067075592044 600.0803441144484 A 18.952414693333253 18.952414693333253 0 1 1 428.2606612797139 600.0613917029137"/><path fill="rgb(46, 158, 177)" stroke="none" paint-order="stroke fill markers" d=" M 408.7156033421982 600.9769593734367 A 29.726666666666688 29.726666666666688 0 1 1 408.71558847886615 600.9472327117244"/><path fill="rgb(16, 160, 166)" stroke="none" paint-order="stroke fill markers" d=" M 349.346232947803 605.6096503918208 A 18.952414693333253 18.952414693333253 0 1 1 349.34622347159643 605.5906979802861"/><path fill="rgb(34, 159, 172)" stroke="none" paint-order="stroke fill markers" d=" M 246.6427486022954 600.3095625102585 A 29.726666666666688 29.726666666666688 0 1 1 246.6427337389633 600.2798358485462"/><path fill="rgb(192, 129, 115)" stroke="none" paint-order="stroke fill markers" d=" M 291.3413111838726 557.1293642490232 A 29.726666666666688 29.726666666666688 0 1 1 291.34129632054055 557.0996375873109"/><path fill="rgb(192, 129, 115)" stroke="none" paint-order="stroke fill markers" d=" M 250.40018110050715 554.043115534321 A 18.952414693333367 18.952414693333367 0 1 1 250.40017162430058 554.0241631227864"/><path fill="rgb(40, 159, 175)" stroke="none" paint-order="stroke fill markers" d=" M 281.5320228491742 486.92370492189787 A 29.726666666666574 29.726666666666574 0 1 1 281.53200798584214 486.89397826018563"/><path fill="rgb(40, 159, 175)" stroke="none" paint-order="stroke fill markers" d=" M 254.71756781475864 511.96176418042694 A 18.952414693333253 18.952414693333253 0 1 1 254.71755833855207 511.94281176889234"/><path fill="rgb(40, 159, 175)" stroke="none" paint-order="stroke fill markers" d=" M 301.0739982849082 487.91427311950747 A 18.952414693333367 18.952414693333367 0 1 1 301.07398880870164 487.89532070797287"/><path fill="rgb(38, 159, 174)" stroke="none" paint-order="stroke fill markers" d=" M 332.079535618806 513.6896008318715 A 18.952414693333367 18.952414693333367 0 1 1 332.07952614259943 513.6706484203369"/><path fill="rgb(189, 131, 107)" stroke="none" paint-order="stroke fill markers" d=" M 330.5836246703837 554.7483055091996 A 18.952414693333367 18.952414693333367 0 1 1 330.5836151941771 554.7293530976649"/><path fill="rgb(192, 129, 115)" stroke="none" paint-order="stroke fill markers" d=" M 298.3987699432699 533.264933432293 A 18.952414693333253 18.952414693333253 0 1 1 298.3987604670633 533.2459810207583"/><path fill="rgb(189, 131, 107)" stroke="none" paint-order="stroke fill markers" d=" M 375.4859660099723 528.2192788326703 A 18.952414693333367 18.952414693333367 0 1 1 375.4859565337657 528.2003264211356"/><path fill="rgb(189, 131, 107)" stroke="none" paint-order="stroke fill markers" d=" M 371.68365334355843 554.0898773967166 A 29.726666666666688 29.726666666666688 0 1 1 371.68363848022636 554.0601507350043"/><path fill="rgb(38, 159, 174)" stroke="none" paint-order="stroke fill markers" d=" M 359.2907307066495 488.89610167120657 A 29.726666666666688 29.726666666666688 0 1 1 359.29071584331746 488.86637500949433"/><path fill="rgb(38, 159, 174)" stroke="none" paint-order="stroke fill markers" d=" M 378.81329843820487 490.343096172459 A 18.952414693333253 18.952414693333253 0 1 1 378.8132889619983 490.3241437609244"/><path fill="rgb(36, 159, 173)" stroke="none" paint-order="stroke fill markers" d=" M 414.41724176421525 512.0384108240339 A 18.952414693333253 18.952414693333253 0 1 1 414.4172322880087 512.0194584124993"/><path fill="rgb(36, 159, 173)" stroke="none" paint-order="stroke fill markers" d=" M 441.81166240221984 487.36070988707235 A 29.726666666666688 29.726666666666688 0 1 1 441.81164753888777 487.3309832253601"/><path fill="rgb(36, 159, 173)" stroke="none" paint-order="stroke fill markers" d=" M 461.3227254775963 489.0199233066854 A 18.952414693333367 18.952414693333367 0 1 1 461.3227160013897 489.00097089515083"/><path fill="rgb(34, 159, 172)" stroke="none" paint-order="stroke fill markers" d=" M 183.33465168522224 604.993961886322 A 18.95241469333331 18.95241469333331 0 1 1 183.33464220901567 604.9750094747874"/><path fill="rgb(16, 160, 166)" stroke="none" paint-order="stroke fill markers" d=" M 330.5026184107174 599.2402851285221 A 29.726666666666688 29.726666666666688 0 1 1 330.5026035473853 599.2105584668099"/><path fill="rgb(16, 160, 166)" stroke="none" paint-order="stroke fill markers" d=" M 299.24758190489587 621.0007629507264 A 18.952414693333253 18.952414693333253 0 1 1 299.2475724286893 620.9818105391918"/><path fill="rgb(34, 159, 172)" stroke="none" paint-order="stroke fill markers" d=" M 266.1046770176187 602.6687226320332 A 18.952414693333253 18.952414693333253 0 1 1 266.10466754141214 602.6497702204986"/><path fill="rgb(34, 159, 172)" stroke="none" paint-order="stroke fill markers" d=" M 103.35140960933336 604.0208537886629 A 18.95241469333331 18.95241469333331 0 1 1 103.3514001331268 604.0019013771282"/><path fill="rgb(34, 159, 172)" stroke="none" paint-order="stroke fill markers" d=" M 163.8798188466567 602.5503269169444 A 29.726666666666688 29.726666666666688 0 1 1 163.8798039833246 602.5206002552321"/><path fill="rgb(40, 159, 175)" stroke="none" paint-order="stroke fill markers" d=" M 11.505628703247908 512.0894260496686 A 18.95241469333331 18.95241469333331 0 1 1 11.50561922704135 512.070473638134"/><path fill="rgb(40, 159, 175)" stroke="none" paint-order="stroke fill markers" d=" M 38.32646769195998 487.0552346836882 A 29.726666666666688 29.726666666666688 0 1 1 38.32645282862788 487.02550802197595"/><path fill="rgb(193, 129, 117)" stroke="none" paint-order="stroke fill markers" d=" M 4.6029848121237364 552.7183784327847 A 18.95241469333331 18.95241469333331 0 1 1 4.602975335917179 552.69942602125"/><path fill="rgb(193, 129, 117)" stroke="none" paint-order="stroke fill markers" d=" M 45.36824526694784 557.1378191219418 A 29.726666666666688 29.726666666666688 0 1 1 45.36823040361574 557.1080924602295"/><path fill="rgb(193, 129, 117)" stroke="none" paint-order="stroke fill markers" d=" M 53.52496247694728 534.0881076267767 A 18.95241469333331 18.95241469333331 0 1 1 53.52495300074072 534.0691552152421"/><path fill="rgb(190, 130, 110)" stroke="none" paint-order="stroke fill markers" d=" M 85.57071075164941 553.5095988307955 A 18.95241469333331 18.95241469333331 0 1 1 85.57070127544286 553.4906464192609"/><path fill="rgb(34, 159, 172)" stroke="none" paint-order="stroke fill markers" d=" M 83.89747686201156 601.5666877105565 A 29.726666666666688 29.726666666666688 0 1 1 83.89746199867946 601.5369610488442"/><path fill="rgb(36, 159, 173)" stroke="none" paint-order="stroke fill markers" d=" M 21.42000841351239 604.7798423297677 A 18.95241469333331 18.95241469333331 0 1 1 21.419998937305834 604.760889918233"/><path fill="rgb(51, 162, 129)" stroke="none" paint-order="stroke fill markers" d=" M 170.06640391656163 375.7277257002092 A 29.726666666666688 29.726666666666688 0 1 1 170.06638905322953 375.69799903849696"/><path fill="rgb(51, 162, 129)" stroke="none" paint-order="stroke fill markers" d=" M 178.06441218551515 398.8998805892307 A 18.95241469333331 18.95241469333331 0 1 1 178.06440270930858 398.8809281776961"/><path fill="rgb(60, 162, 124)" stroke="none" paint-order="stroke fill markers" d=" M 210.25752905242211 375.342778079478 A 18.95241469333331 18.95241469333331 0 1 1 210.25751957621554 375.3238256679434"/><path fill="rgb(196, 122, 163)" stroke="none" paint-order="stroke fill markers" d=" M 212.43280563851016 416.10500737984626 A 18.95241469333331 18.95241469333331 0 1 1 212.4327961623036 416.08605496831166"/><path fill="rgb(40, 159, 175)" stroke="none" paint-order="stroke fill markers" d=" M 195.72537026764542 492.5020686255282 A 29.726666666666688 29.726666666666688 0 1 1 195.72535540431332 492.47234196381595"/><path fill="rgb(40, 159, 175)" stroke="none" paint-order="stroke fill markers" d=" M 168.91242388830756 517.541042652281 A 18.95241469333331 18.95241469333331 0 1 1 168.912414412101 517.5220902407464"/><path fill="rgb(40, 159, 175)" stroke="none" paint-order="stroke fill markers" d=" M 215.26740642618898 493.4909072387313 A 18.952414693333253 18.952414693333253 0 1 1 215.2673969499824 493.4719548271967"/><path fill="rgb(192, 129, 114)" stroke="none" paint-order="stroke fill markers" d=" M 212.49493965244284 533.626459447249 A 18.95241469333331 18.95241469333331 0 1 1 212.49493017623627 533.6075070357143"/><path fill="rgb(192, 129, 114)" stroke="none" paint-order="stroke fill markers" d=" M 205.49673622669837 557.5326604338421 A 29.72666666666663 29.72666666666663 0 1 1 205.49672136336628 557.5029337721298"/><path fill="rgb(192, 129, 114)" stroke="none" paint-order="stroke fill markers" d=" M 164.54803760430678 554.5172035327578 A 18.95241469333331 18.95241469333331 0 1 1 164.5480281281002 554.4982511212231"/><path fill="rgb(190, 130, 110)" stroke="none" paint-order="stroke fill markers" d=" M 131.6981067858361 529.0490969717794 A 18.95241469333331 18.95241469333331 0 1 1 131.69809730962953 529.0301445602447"/><path fill="rgb(190, 130, 110)" stroke="none" paint-order="stroke fill markers" d=" M 126.66926668876039 554.2293605710213 A 29.726666666666688 29.726666666666688 0 1 1 126.66925182542829 554.199633909309"/><path fill="rgb(29, 159, 171)" stroke="none" paint-order="stroke fill markers" d=" M 119.33480022881798 485.1377056191847 A 29.726666666666688 29.726666666666688 0 1 1 119.33478536548589 485.1079789574725"/><path fill="rgb(29, 159, 171)" stroke="none" paint-order="stroke fill markers" d=" M 138.6967464594465 488.49549196263916 A 18.95241469333331 18.95241469333331 0 1 1 138.69673698323993 488.47653955110457"/><path fill="rgb(29, 159, 171)" stroke="none" paint-order="stroke fill markers" d=" M 90.50237703840867 508.8405291675963 A 18.95241469333331 18.95241469333331 0 1 1 90.50236756220211 508.8215767560617"/><path fill="rgb(40, 159, 175)" stroke="none" paint-order="stroke fill markers" d=" M 57.86819104759081 488.0531127232167 A 18.95241469333331 18.95241469333331 0 1 1 57.868181571384255 488.0341603116821"/><path fill="rgb(60, 162, 124)" stroke="none" paint-order="stroke fill markers" d=" M 176.2746774520237 175.20394841855398 A 18.95241469333331 18.95241469333331 0 1 1 176.27466797581712 175.18499600701938"/><path fill="rgb(57, 162, 126)" stroke="none" paint-order="stroke fill markers" d=" M 212.5500234173541 153.74190623735763 A 18.95241469333331 18.95241469333331 0 1 1 212.55001394114754 153.72295382582303"/><path fill="rgb(196, 122, 163)" stroke="none" paint-order="stroke fill markers" d=" M 213.71889216687902 190.80602968871676 A 18.95241469333331 18.95241469333331 0 1 1 213.71888269067244 190.78707727718216"/><path fill="rgb(32, 159, 172)" stroke="none" paint-order="stroke fill markers" d=" M 171.53435930614376 284.50726591560345 A 18.95241469333331 18.95241469333331 0 1 1 171.53434982993718 284.48831350406886"/><path fill="rgb(32, 159, 172)" stroke="none" paint-order="stroke fill markers" d=" M 199.932697039919 260.4974014792447 A 29.72666666666663 29.72666666666663 0 1 1 199.9326821765869 260.46767481753244"/><path fill="rgb(192, 129, 114)" stroke="none" paint-order="stroke fill markers" d=" M 215.8784525770498 304.37332352012487 A 18.95241469333331 18.95241469333331 0 1 1 215.87844310084324 304.35437110859027"/><path fill="rgb(192, 129, 114)" stroke="none" paint-order="stroke fill markers" d=" M 209.24201020306367 328.5299914064815 A 29.726666666666688 29.726666666666688 0 1 1 209.24199533973157 328.50026474476925"/><path fill="rgb(192, 129, 114)" stroke="none" paint-order="stroke fill markers" d=" M 168.25115416097617 325.94445528747445 A 18.95241469333331 18.95241469333331 0 1 1 168.2511446847696 325.92550287593986"/><path fill="rgb(193, 128, 118)" stroke="none" paint-order="stroke fill markers" d=" M 137.02153304144724 306.41329320669433 A 18.95241469333331 18.95241469333331 0 1 1 137.02152356524067 306.39434079515974"/><path fill="rgb(193, 128, 118)" stroke="none" paint-order="stroke fill markers" d=" M 128.65197204637258 329.2961347425843 A 29.726666666666688 29.726666666666688 0 1 1 128.65195718304048 329.26640808087205"/><path fill="rgb(51, 162, 129)" stroke="none" paint-order="stroke fill markers" d=" M 129.27146432930823 379.9522768091624 A 18.95241469333331 18.95241469333331 0 1 1 129.27145485310166 379.9333243976278"/><path fill="rgb(46, 162, 132)" stroke="none" paint-order="stroke fill markers" d=" M 95.3903317766302 394.426342427649 A 18.95241469333331 18.95241469333331 0 1 1 95.39032230042365 394.4073900161144"/><path fill="rgb(197, 122, 160)" stroke="none" paint-order="stroke fill markers" d=" M 102.92136719108623 436.2287326749354 A 18.95241469333331 18.95241469333331 0 1 1 102.92135771487968 436.2097802634008"/><path fill="rgb(194, 122, 167)" stroke="none" paint-order="stroke fill markers" d=" M 136.9436149188267 416.5611588085631 A 18.95241469333331 18.95241469333331 0 1 1 136.94360544262014 416.5422063970285"/><path fill="rgb(194, 122, 167)" stroke="none" paint-order="stroke fill markers" d=" M 162.4842441317365 442.32974614719643 A 29.726666666666688 29.726666666666688 0 1 1 162.4842292684044 442.3000194854842"/><path fill="rgb(194, 122, 167)" stroke="none" paint-order="stroke fill markers" d=" M 182.03983485585843 442.77730221281956 A 18.95241469333331 18.95241469333331 0 1 1 182.03982537965186 442.75834980128496"/><path fill="rgb(196, 122, 161)" stroke="none" paint-order="stroke fill markers" d=" M 13.805022692189084 209.45300860634904 A 18.95241469333331 18.95241469333331 0 1 1 13.805013215982527 209.43405619481445"/><path fill="rgb(196, 122, 163)" stroke="none" paint-order="stroke fill markers" d=" M 49.62752317050217 191.40706731270848 A 18.95241469333331 18.95241469333331 0 1 1 49.627513694295615 191.38811490117388"/><path fill="rgb(65, 161, 121)" stroke="none" paint-order="stroke fill markers" d=" M 51.33925604068776 151.34648006786801 A 18.95241469333331 18.95241469333331 0 1 1 51.3392465644812 151.32752765633342"/><path fill="rgb(65, 161, 121)" stroke="none" paint-order="stroke fill markers" d=" M 92.44549561395979 151.06881681862058 A 29.726666666666688 29.726666666666688 0 1 1 92.4454807506277 151.03909015690834"/><path fill="rgb(196, 122, 163)" stroke="none" paint-order="stroke fill markers" d=" M 77.50880281730946 215.76806900259896 A 29.726666666666688 29.726666666666688 0 1 1 77.50878795397736 215.73834234088673"/><path fill="rgb(34, 159, 172)" stroke="none" paint-order="stroke fill markers" d=" M 54.71520226681554 261.3357790012232 A 18.95241469333331 18.95241469333331 0 1 1 54.71519279060898 261.3168265896886"/><path fill="rgb(27, 160, 170)" stroke="none" paint-order="stroke fill markers" d=" M 89.42779428260604 286.3649609681673 A 18.95241469333331 18.95241469333331 0 1 1 89.42778480639949 286.3460085566327"/><path fill="rgb(27, 160, 170)" stroke="none" paint-order="stroke fill markers" d=" M 118.66218955509663 262.95684500993497 A 29.72666666666663 29.72666666666663 0 1 1 118.66217469176453 262.92711834822273"/><path fill="rgb(27, 160, 170)" stroke="none" paint-order="stroke fill markers" d=" M 137.9626881723567 266.8005385157637 A 18.95241469333331 18.95241469333331 0 1 1 137.96267869615014 266.7815861042291"/><path fill="rgb(196, 122, 163)" stroke="none" paint-order="stroke fill markers" d=" M 96.9812788454289 213.54045797637968 A 18.95241469333331 18.95241469333331 0 1 1 96.98126936922235 213.52150556484509"/><path fill="rgb(65, 161, 121)" stroke="none" paint-order="stroke fill markers" d=" M 97.08449159106857 176.47660317607256 A 18.95241469333331 18.95241469333331 0 1 1 97.08448211486201 176.45765076453796"/><path fill="rgb(60, 162, 124)" stroke="none" paint-order="stroke fill markers" d=" M 129.19233579669003 152.52953962424408 A 18.95241469333331 18.95241469333331 0 1 1 129.19232632048346 152.51058721270948"/><path fill="rgb(196, 122, 163)" stroke="none" paint-order="stroke fill markers" d=" M 130.2740401736453 191.99900949012078 A 18.95241469333331 18.95241469333331 0 1 1 130.27403069743872 191.98005707858619"/><path fill="rgb(196, 122, 163)" stroke="none" paint-order="stroke fill markers" d=" M 157.9093343100048 216.52167946185216 A 29.726666666666688 29.726666666666688 0 1 1 157.9093194466727 216.49195280013993"/><path fill="rgb(196, 122, 163)" stroke="none" paint-order="stroke fill markers" d=" M 177.40278103165826 214.5820799460373 A 18.95241469333331 18.95241469333331 0 1 1 177.4027715554517 214.5631275345027"/><path fill="rgb(60, 162, 124)" stroke="none" paint-order="stroke fill markers" d=" M 170.23819896825478 150.64863495067118 A 29.726666666666688 29.726666666666688 0 1 1 170.23818410492268 150.61890828895895"/><path fill="rgb(197, 122, 160)" stroke="none" paint-order="stroke fill markers" d=" M 54.4302893375376 416.56182280944284 A 18.95241469333331 18.95241469333331 0 1 1 54.430279861331044 416.54287039790825"/><path fill="rgb(197, 122, 160)" stroke="none" paint-order="stroke fill markers" d=" M 83.61235524126221 440.00888108483565 A 29.726666666666688 29.726666666666688 0 1 1 83.61234037793011 439.9791544231234"/><path fill="rgb(46, 162, 132)" stroke="none" paint-order="stroke fill markers" d=" M 86.13150308355944 372.2751904898781 A 29.726666666666688 29.726666666666688 0 1 1 86.13148822022734 372.2454638281659"/><path fill="rgb(46, 162, 132)" stroke="none" paint-order="stroke fill markers" d=" M 45.61534509206945 378.0721468157492 A 18.95241469333331 18.95241469333331 0 1 1 45.61533561586289 378.0531944042146"/><path fill="rgb(193, 128, 118)" stroke="none" paint-order="stroke fill markers" d=" M 87.92888577905114 324.6139949595042 A 18.95241469333331 18.95241469333331 0 1 1 87.92887630284459 324.5950425479696"/><path fill="rgb(192, 129, 116)" stroke="none" paint-order="stroke fill markers" d=" M 52.845341914166 302.63090421121984 A 18.95241469333331 18.95241469333331 0 1 1 52.84533243795944 302.61195179968524"/><path fill="rgb(192, 129, 116)" stroke="none" paint-order="stroke fill markers" d=" M 45.29290564838675 326.13799296481443 A 29.726666666666688 29.726666666666688 0 1 1 45.29289078505465 326.1082663031022"/><path fill="rgb(192, 129, 116)" stroke="none" paint-order="stroke fill markers" d=" M 4.422496346920752 322.45618665193814 A 18.95241469333331 18.95241469333331 0 1 1 4.422486870714195 322.43723424040354"/><path fill="rgb(34, 159, 172)" stroke="none" paint-order="stroke fill markers" d=" M 7.305001863389236 283.3545853238352 A 18.95241469333331 18.95241469333331 0 1 1 7.304992387182679 283.3356329123006"/><path fill="rgb(34, 159, 172)" stroke="none" paint-order="stroke fill markers" d=" M 35.24851612051623 259.0350289702297 A 29.726666666666688 29.726666666666688 0 1 1 35.24850125718413 259.00530230851746"/><path fill="rgb(46, 162, 132)" stroke="none" paint-order="stroke fill markers" d=" M 10.060716208173403 147.4874406435207 A 29.726666666666688 29.726666666666688 0 1 1 10.06070134484131 147.45771398180847"/><path fill="rgb(46, 162, 132)" stroke="none" paint-order="stroke fill markers" d=" M 19.534039583787262 169.45336527857341 A 18.95241469333331 18.95241469333331 0 1 1 19.534030107580705 169.43441286703882"/><path fill="rgb(53, 162, 128)" stroke="none" paint-order="stroke fill markers" d=" M 12.32970300932584 397.12460170369127 A 18.95241469333331 18.95241469333331 0 1 1 12.329693533119283 397.10564929215667"/><path fill="rgb(197, 122, 159)" stroke="none" paint-order="stroke fill markers" d=" M 18.743017067267886 435.71805712667833 A 18.95241469333331 18.95241469333331 0 1 1 18.74300759106133 435.69910471514373"/></g></g></g><g/><g/><g/><g clip-path="url(#kCPbtMgeqTxO)"><g/></g></g></g></svg>