<svg version="1.1" xmlns="http://www.w3.org/2000/svg" xmlns:xlink="http://www.w3.org/1999/xlink" width="920" height="600" style="width: 920px; height: 600px;"><defs><clipPath id="vZvXAQMXXQMa"><path fill="none" stroke="none" d=" M 5 5 L 915 5 L 915 595 L 5 595 L 5 5 Z"/></clipPath><clipPath id="HuPpfTVFzIvM"><path fill="none" stroke="none" d=" M 5 5 L 915 5 L 915 595 L 5 595 L 5 5 Z"/></clipPath><clipPath id="vNiTtMOBiQWX"><path fill="none" stroke="none" d=" M 5 5 L 915 5 L 915 595 L 5 595 L 5 5 Z"/></clipPath><clipPath id="dRKBWdICzBNC"><path fill="none" stroke="none" d=" M 5 5 L 915 5 L 915 595 L 5 595 L 5 5 Z"/></clipPath></defs><g><g transform="scale(1,1) translate(0.5,0.5)"><rect fill="#FFFFFF" stroke="none" x="0" y="0" width="920" height="600"/><rect fill="#ffffff" stroke="none" x="0" y="0" width="920" height="600"/><rect fill="#FFFFFF" stroke="none" x="5" y="5" width="910" height="590"/><rect fill="#ffffff" stroke="none" x="5" y="5" width="910" height="590"/><g><rect fill="none" stroke="#e5e5e5" x="5" y="5" width="910" height="590" stroke-linejoin="bevel" stroke-miterlimit="10"/></g><g clip-path="url(#vZvXAQMXXQMa)"><g/></g><g clip-path="url(#HuPpfTVFzIvM)"><g/></g><g clip-path="url(#vNiTtMOBiQWX)"><g><g><path fill="none" stroke="none"/><path fill="rgb(44, 158, 176)" stroke="none" paint-order="stroke fill markers" d=" M 894.9334359849581 609.0323112718174 A 29.72666666666646 29.72666666666646 0 1 1 894.933421121626 609.0025846101051"/><path fill="rgb(44, 158, 176)" stroke="none" paint-order="stroke fill markers" d=" M 914.4880678931688 608.5269723822104 A 18.95241469333314 18.95241469333314 0 1 1 914.4880584169623 608.5080199706757"/><path fill="rgb(27, 160, 170)" stroke="none" paint-order="stroke fill markers" d=" M 834.778140210675 611.6181709676546 A 18.952414693333367 18.952414693333367 0 1 1 834.7781307344685 611.5992185561199"/><path fill="rgb(27, 160, 170)" stroke="none" paint-order="stroke fill markers" d=" M 815.4461988850214 608.0147988545749 A 29.72666666666646 29.72666666666646 0 1 1 815.4461840216893 607.9850721928626"/><path fill="rgb(42, 158, 175)" stroke="none" paint-order="stroke fill markers" d=" M 751.5476659501767 610.4812814276763 A 18.952414693333367 18.952414693333367 0 1 1 751.5476564739702 610.4623290161417"/><path fill="rgb(42, 158, 175)" stroke="none" paint-order="stroke fill markers" d=" M 731.9907764353086 610.1267057154062 A 29.726666666666688 29.726666666666688 0 1 1 731.9907615719765 610.0969790536939"/><path fill="rgb(191, 130, 113)" stroke="none" paint-order="stroke fill markers" d=" M 859.6249435075631 562.861381184899 A 29.726666666666688 29.726666666666688 0 1 1 859.624928644231 562.8316545231867"/><path fill="rgb(191, 130, 113)" stroke="none" paint-order="stroke fill markers" d=" M 866.2043870318337 538.665951721625 A 18.952414693333367 18.952414693333367 0 1 1 866.2043775556272 538.6469993100903"/><path fill="rgb(27, 160, 170)" stroke="none" paint-order="stroke fill markers" d=" M 866.3750156600056 498.6150551329698 A 18.952414693333367 18.952414693333367 0 1 1 866.3750061837991 498.5961027214352"/><path fill="rgb(196, 122, 163)" stroke="none" paint-order="stroke fill markers" d=" M 888.0026641920542 449.65932339717205 A 29.72666666666646 29.72666666666646 0 1 1 888.0026493287221 449.6295967354598"/><path fill="rgb(197, 122, 158)" stroke="none" paint-order="stroke fill markers" d=" M 828.7951787233046 444.02765576397934 A 18.952414693333367 18.952414693333367 0 1 1 828.7951692470981 444.00870335244474"/><path fill="rgb(27, 160, 170)" stroke="none" paint-order="stroke fill markers" d=" M 847.0428961445755 495.01309184685186 A 29.72666666666646 29.72666666666646 0 1 1 847.0428812812434 494.98336518513963"/><path fill="rgb(52, 157, 179)" stroke="none" paint-order="stroke fill markers" d=" M 784.4394539054124 496.77075820107416 A 18.952414693333367 18.952414693333367 0 1 1 784.4394444292059 496.75180578953956"/><path fill="rgb(197, 122, 158)" stroke="none" paint-order="stroke fill markers" d=" M 809.6504593148645 448.8870189069931 A 29.726666666666688 29.726666666666688 0 1 1 809.6504444515324 448.85729224528086"/><path fill="rgb(194, 122, 167)" stroke="none" paint-order="stroke fill markers" d=" M 745.2535560559318 452.274008389891 A 18.952414693333367 18.952414693333367 0 1 1 745.2535465797253 452.2550559783564"/><path fill="rgb(52, 157, 179)" stroke="none" paint-order="stroke fill markers" d=" M 764.9956327665352 499.3399931453956 A 29.72666666666646 29.72666666666646 0 1 1 764.9956179032031 499.3102664836834"/><path fill="rgb(52, 157, 179)" stroke="none" paint-order="stroke fill markers" d=" M 741.4002210268934 526.0752842866174 A 18.952414693333367 18.952414693333367 0 1 1 741.4002115506869 526.0563318750827"/><path fill="rgb(190, 130, 110)" stroke="none" paint-order="stroke fill markers" d=" M 738.060123135808 561.5637545350763 A 18.952414693333367 18.952414693333367 0 1 1 738.0601136596015 561.5448021235417"/><path fill="rgb(190, 130, 110)" stroke="none" paint-order="stroke fill markers" d=" M 779.1585723571736 562.28773220193 A 29.72666666666646 29.72666666666646 0 1 1 779.1585574938415 562.2580055402177"/><path fill="rgb(190, 130, 110)" stroke="none" paint-order="stroke fill markers" d=" M 784.1911132434573 537.1096665318078 A 18.952414693333367 18.952414693333367 0 1 1 784.1911037672508 537.0907141202731"/><path fill="rgb(27, 160, 170)" stroke="none" paint-order="stroke fill markers" d=" M 818.0079491779516 518.5687057041993 A 18.952414693333367 18.952414693333367 0 1 1 818.007939701745 518.5497532926646"/><path fill="rgb(191, 130, 113)" stroke="none" paint-order="stroke fill markers" d=" M 818.628070360128 560.3432322694862 A 18.952414693333367 18.952414693333367 0 1 1 818.6280608839215 560.3242798579515"/><path fill="rgb(195, 122, 166)" stroke="none" paint-order="stroke fill markers" d=" M 871.5108655398667 332.7237376416078 A 18.952414693333367 18.952414693333367 0 1 1 871.5108560636602 332.7047852300732"/><path fill="rgb(67, 161, 120)" stroke="none" paint-order="stroke fill markers" d=" M 865.1529781136528 294.9310125717047 A 18.95241469333314 18.95241469333314 0 1 1 865.1529686374463 294.9120601601701"/><path fill="rgb(150, 207, 232)" stroke="none" paint-order="stroke fill markers" d=" M 904.0895258253395 303.23713612250054 A 18.95241469333314 18.95241469333314 0 1 1 904.089516349133 303.21818371096595"/><path fill="rgb(232, 191, 161)" stroke="none" paint-order="stroke fill markers" d=" M 912.7497069199285 339.7315811851072 A 18.952414693333367 18.952414693333367 0 1 1 912.749697443722 339.7126287735726"/><path fill="rgb(232, 191, 161)" stroke="none" paint-order="stroke fill markers" d=" M 950.9116155397712 304.6126741711793 A 18.952414693333367 18.952414693333367 0 1 1 950.9116060635647 304.5937217596447"/><path fill="rgb(232, 191, 161)" stroke="none" paint-order="stroke fill markers" d=" M 953.0292518101865 332.8858734088197 A 29.726666666666688 29.726666666666688 0 1 1 953.0292369468543 332.85614674710746"/><path fill="rgb(57, 162, 126)" stroke="none" paint-order="stroke fill markers" d=" M 940.4475072866946 382.91862029442 A 18.95241469333314 18.95241469333314 0 1 1 940.4474978104881 382.8996678828854"/><path fill="rgb(245, 181, 207)" stroke="none" paint-order="stroke fill markers" d=" M 938.7785630710257 427.32929916981055 A 18.952414693333367 18.952414693333367 0 1 1 938.7785535948192 427.31034675827595"/><path fill="rgb(245, 181, 207)" stroke="none" paint-order="stroke fill markers" d=" M 970.4054582327788 448.7531390675281 A 29.726666666666688 29.726666666666688 0 1 1 970.4054433694466 448.72341240581585"/><path fill="rgb(196, 122, 163)" stroke="none" paint-order="stroke fill markers" d=" M 907.4789510855007 447.4812188372318 A 18.952414693333367 18.952414693333367 0 1 1 907.4789416092942 447.4622664256972"/><path fill="rgb(36, 159, 173)" stroke="none" paint-order="stroke fill markers" d=" M 927.6764002130751 499.01899384633373 A 29.726666666666688 29.726666666666688 0 1 1 927.676385349743 498.9892671846215"/><path fill="rgb(36, 159, 173)" stroke="none" paint-order="stroke fill markers" d=" M 947.1875323134911 500.67705941171494 A 18.952414693333367 18.952414693333367 0 1 1 947.1875228372846 500.65810700018034"/><path fill="rgb(192, 129, 115)" stroke="none" paint-order="stroke fill markers" d=" M 946.2715889617843 540.8156925032529 A 18.95241469333314 18.95241469333314 0 1 1 946.2715794855778 540.7967400917182"/><path fill="rgb(192, 129, 115)" stroke="none" paint-order="stroke fill markers" d=" M 938.944352177964 564.4872446359605 A 29.726666666666688 29.726666666666688 0 1 1 938.9443373146319 564.4575179742482"/><path fill="rgb(36, 159, 173)" stroke="none" paint-order="stroke fill markers" d=" M 900.282967274326 523.6973269070513 A 18.952414693333367 18.952414693333367 0 1 1 900.2829577981195 523.6783744955167"/><path fill="rgb(192, 129, 115)" stroke="none" paint-order="stroke fill markers" d=" M 898.0400895205187 561.0773404944537 A 18.952414693333367 18.952414693333367 0 1 1 898.0400800443122 561.058388082919"/><path fill="rgb(67, 161, 120)" stroke="none" paint-order="stroke fill markers" d=" M 819.6977728809293 269.3079528245729 A 18.952414693333367 18.952414693333367 0 1 1 819.6977634047228 269.2890004130383"/><path fill="rgb(195, 122, 166)" stroke="none" paint-order="stroke fill markers" d=" M 825.7619941442733 307.599868143046 A 18.952414693333367 18.952414693333367 0 1 1 825.7619846680668 307.5809157315114"/><path fill="rgb(195, 122, 166)" stroke="none" paint-order="stroke fill markers" d=" M 851.9531683821326 333.00554679942206 A 29.72666666666646 29.72666666666646 0 1 1 851.9531535188005 332.97582013770983"/><path fill="rgb(195, 122, 166)" stroke="none" paint-order="stroke fill markers" d=" M 789.5738322394232 334.393194640732 A 18.952414693333367 18.952414693333367 0 1 1 789.5738227632166 334.3742422291974"/><path fill="rgb(195, 122, 166)" stroke="none" paint-order="stroke fill markers" d=" M 743.6663300129869 309.5445019972145 A 18.952414693333367 18.952414693333367 0 1 1 743.6663205367804 309.5255495856799"/><path fill="rgb(195, 122, 166)" stroke="none" paint-order="stroke fill markers" d=" M 770.01850054897 334.857127008599 A 29.726666666666688 29.726666666666688 0 1 1 770.0184856856379 334.82740034688675"/><path fill="rgb(63, 162, 122)" stroke="none" paint-order="stroke fill markers" d=" M 776.2545384000593 381.2538942184811 A 18.95241469333314 18.95241469333314 0 1 1 776.2545289238528 381.2349418069465"/><path fill="rgb(72, 161, 117)" stroke="none" paint-order="stroke fill markers" d=" M 739.8882945054631 388.4674953029414 A 29.726666666666688 29.726666666666688 0 1 1 739.888279642131 388.4377686412292"/><path fill="rgb(72, 161, 117)" stroke="none" paint-order="stroke fill markers" d=" M 742.5425581892712 414.9192798090179 A 18.952414693333367 18.952414693333367 0 1 1 742.5425487130647 414.9003273974833"/><path fill="rgb(197, 122, 158)" stroke="none" paint-order="stroke fill markers" d=" M 779.5895102063264 426.1179405138114 A 18.952414693333367 18.952414693333367 0 1 1 779.5895007301199 426.0989881022768"/><path fill="rgb(63, 162, 122)" stroke="none" paint-order="stroke fill markers" d=" M 817.3504771163402 380.4364570845699 A 29.72666666666646 29.72666666666646 0 1 1 817.3504622530081 380.40673042285766"/><path fill="rgb(63, 162, 122)" stroke="none" paint-order="stroke fill markers" d=" M 822.4649876170117 405.56567877965165 A 18.952414693333367 18.952414693333367 0 1 1 822.4649781408052 405.54672636811705"/><path fill="rgb(196, 122, 163)" stroke="none" paint-order="stroke fill markers" d=" M 860.1635640948698 425.2703588352373 A 18.95241469333314 18.95241469333314 0 1 1 860.1635546186633 425.2514064237027"/><path fill="rgb(62, 162, 123)" stroke="none" paint-order="stroke fill markers" d=" M 903.6426049517609 405.9234108521462 A 18.952414693333367 18.952414693333367 0 1 1 903.6425954755543 405.9044584406116"/><path fill="rgb(62, 162, 123)" stroke="none" paint-order="stroke fill markers" d=" M 898.0597104792726 381.0800486321585 A 29.72666666666646 29.72666666666646 0 1 1 898.0596956159404 381.05032197044625"/><path fill="rgb(62, 162, 123)" stroke="none" paint-order="stroke fill markers" d=" M 856.9841351511084 382.4349059751374 A 18.95241469333314 18.95241469333314 0 1 1 856.9841256749019 382.4159535636028"/><path fill="rgb(76, 161, 114)" stroke="none" paint-order="stroke fill markers" d=" M 904.6037536608858 183.7434202373165 A 18.95241469333314 18.95241469333314 0 1 1 904.6037441846793 183.72446782578191"/><path fill="rgb(76, 161, 114)" stroke="none" paint-order="stroke fill markers" d=" M 903.1719067137244 156.73721906394178 A 29.72666666666646 29.72666666666646 0 1 1 903.1718918503923 156.70749240222955"/><path fill="rgb(76, 161, 114)" stroke="none" paint-order="stroke fill markers" d=" M 862.2458694006468 153.51450363544825 A 18.952414693333367 18.952414693333367 0 1 1 862.2458599244403 153.49555122391365"/><path fill="rgb(63, 162, 122)" stroke="none" paint-order="stroke fill markers" d=" M 829.5077921115085 178.64881755371005 A 18.952414693333367 18.952414693333367 0 1 1 829.507782635302 178.62986514217545"/><path fill="rgb(195, 122, 164)" stroke="none" paint-order="stroke fill markers" d=" M 833.9463321707995 218.9294050886532 A 18.952414693333367 18.952414693333367 0 1 1 833.9463226945929 218.9104526771186"/><path fill="rgb(195, 122, 164)" stroke="none" paint-order="stroke fill markers" d=" M 787.4020047030408 195.227667260629 A 18.95241469333314 18.95241469333314 0 1 1 787.4019952268343 195.2087148490944"/><path fill="rgb(63, 162, 122)" stroke="none" paint-order="stroke fill markers" d=" M 824.4992432424431 153.45652144052747 A 29.726666666666688 29.726666666666688 0 1 1 824.499228379111 153.42679477881524"/><path fill="rgb(63, 162, 122)" stroke="none" paint-order="stroke fill markers" d=" M 783.4001183531905 154.1531773174081 A 18.952414693333367 18.952414693333367 0 1 1 783.400108876984 154.1342249058735"/><path fill="rgb(57, 162, 126)" stroke="none" paint-order="stroke fill markers" d=" M 742.7500165073434 157.36607852696739 A 29.72666666666646 29.72666666666646 0 1 1 742.7500016440113 157.33635186525515"/><path fill="rgb(57, 162, 126)" stroke="none" paint-order="stroke fill markers" d=" M 749.7370748064916 181.28010933109476 A 18.95241469333314 18.95241469333314 0 1 1 749.7370653302851 181.26115691956016"/><path fill="rgb(197, 122, 159)" stroke="none" paint-order="stroke fill markers" d=" M 752.9257114189325 218.21406132263894 A 18.952414693333367 18.952414693333367 0 1 1 752.9257019427259 218.19510891110434"/><path fill="rgb(197, 122, 159)" stroke="none" paint-order="stroke fill markers" d=" M 733.6868885853223 222.48946942497957 A 29.72666666666646 29.72666666666646 0 1 1 733.6868737219902 222.45974276326734"/><path fill="rgb(53, 162, 128)" stroke="none" paint-order="stroke fill markers" d=" M 736.9352795553505 270.07785684524674 A 18.952414693333367 18.952414693333367 0 1 1 736.935270079144 270.05890443371214"/><path fill="rgb(53, 162, 128)" stroke="none" paint-order="stroke fill markers" d=" M 777.808153846916 266.41513973931666 A 29.72666666666646 29.72666666666646 0 1 1 777.8081389835838 266.3854130776044"/><path fill="rgb(53, 162, 128)" stroke="none" paint-order="stroke fill markers" d=" M 785.3448230575609 289.9338499196479 A 18.952414693333367 18.952414693333367 0 1 1 785.3448135813544 289.9148975081133"/><path fill="rgb(195, 122, 164)" stroke="none" paint-order="stroke fill markers" d=" M 814.4130381772957 220.14560003688712 A 29.72666666666646 29.72666666666646 0 1 1 814.4130233139635 220.11587337517489"/><path fill="rgb(56, 157, 180)" stroke="none" paint-order="stroke fill markers" d=" M 966.0133946407143 167.16448653426357 A 29.726666666666688 29.726666666666688 0 1 1 966.0133797773822 167.13475987255134"/><path fill="rgb(56, 157, 180)" stroke="none" paint-order="stroke fill markers" d=" M 943.2232324110453 194.25123502803228 A 18.95241469333314 18.95241469333314 0 1 1 943.2232229348388 194.23228261649768"/><path fill="rgb(236, 188, 167)" stroke="none" paint-order="stroke fill markers" d=" M 946.5447273795176 229.9353619505431 A 18.952414693333367 18.952414693333367 0 1 1 946.544717903311 229.9164095390085"/><path fill="rgb(150, 207, 232)" stroke="none" paint-order="stroke fill markers" d=" M 942.0840088207592 267.94695248108076 A 18.952414693333367 18.952414693333367 0 1 1 942.0839993445527 267.92800006954616"/><path fill="rgb(150, 207, 232)" stroke="none" paint-order="stroke fill markers" d=" M 923.3858407407304 274.9253011783706 A 29.72666666666646 29.72666666666646 0 1 1 923.3858258773982 274.89557451665837"/><path fill="rgb(243, 181, 214)" stroke="none" paint-order="stroke fill markers" d=" M 912.4991903629934 221.08803670369912 A 18.952414693333367 18.952414693333367 0 1 1 912.4991808867869 221.06908429216452"/><path fill="rgb(243, 181, 214)" stroke="none" paint-order="stroke fill markers" d=" M 892.9948050155635 222.85881063120928 A 29.72666666666646 29.72666666666646 0 1 1 892.9947901522314 222.82908396949705"/><path fill="rgb(67, 161, 120)" stroke="none" paint-order="stroke fill markers" d=" M 860.805315523839 269.3581825453118 A 29.726666666666688 29.726666666666688 0 1 1 860.8053006605069 269.3284558835996"/><path fill="rgb(243, 181, 214)" stroke="none" paint-order="stroke fill markers" d=" M 865.5043791842977 198.24251519103166 A 18.952414693333367 18.952414693333367 0 1 1 865.5043697080912 198.22356277949706"/><path fill="rgb(192, 129, 116)" stroke="none" paint-order="stroke fill markers" d=" M 869.1747972238466 84.90532058459894 A 18.952414693333367 18.952414693333367 0 1 1 869.17478774764 84.88636817306433"/><path fill="rgb(32, 159, 172)" stroke="none" paint-order="stroke fill markers" d=" M 868.532611376053 46.06117943260949 A 18.95241469333314 18.95241469333314 0 1 1 868.5326018998464 46.042227021074886"/><path fill="rgb(34, 159, 172)" stroke="none" paint-order="stroke fill markers" d=" M 905.929764353571 70.56060601390425 A 18.95241469333314 18.95241469333314 0 1 1 905.9297548773645 70.54165360236964"/><path fill="rgb(34, 159, 172)" stroke="none" paint-order="stroke fill markers" d=" M 933.9446828724342 46.28887537820356 A 29.72666666666646 29.72666666666646 0 1 1 933.9446680091021 46.25914871649132"/><path fill="rgb(244, 181, 210)" stroke="none" paint-order="stroke fill markers" d=" M 973.772528178936 -2.0707600421844745 A 29.72666666666646 29.72666666666646 0 1 1 973.7725133156039 -2.100486703896714"/><path fill="rgb(34, 159, 172)" stroke="none" paint-order="stroke fill markers" d=" M 953.4044830619471 48.673676681317374 A 18.952414693333367 18.952414693333367 0 1 1 953.4044735857406 48.65472426978277"/><path fill="rgb(241, 186, 176)" stroke="none" paint-order="stroke fill markers" d=" M 950.4852563518655 90.05337565263824 A 18.95241469333314 18.95241469333314 0 1 1 950.485246875659 90.03442324110362"/><path fill="rgb(241, 186, 176)" stroke="none" paint-order="stroke fill markers" d=" M 942.9815518506939 113.59632264616585 A 29.726666666666688 29.726666666666688 0 1 1 942.9815369873618 113.5665959844536"/><path fill="rgb(198, 122, 153)" stroke="none" paint-order="stroke fill markers" d=" M 828.2419916329522 -10.346110972425777 A 18.952414693333367 18.952414693333367 0 1 1 828.2419821567457 -10.365063383960386"/><path fill="rgb(32, 159, 172)" stroke="none" paint-order="stroke fill markers" d=" M 849.1294201183453 43.07423251344062 A 29.726666666666688 29.726666666666688 0 1 1 849.1294052550131 43.04450585172838"/><path fill="rgb(32, 159, 172)" stroke="none" paint-order="stroke fill markers" d=" M 820.6066029256342 66.99721363378387 A 18.95241469333314 18.95241469333314 0 1 1 820.6065934494277 66.97826122224926"/><path fill="rgb(27, 160, 170)" stroke="none" paint-order="stroke fill markers" d=" M 789.868837576928 43.35678988627751 A 18.952414693333367 18.952414693333367 0 1 1 789.8688281007214 43.337837474742905"/><path fill="rgb(198, 122, 153)" stroke="none" paint-order="stroke fill markers" d=" M 809.6452086145271 -2.9745411484512942 A 29.726666666666688 29.726666666666688 0 1 1 809.6451937511949 -3.004267810163534"/><path fill="rgb(27, 160, 170)" stroke="none" paint-order="stroke fill markers" d=" M 741.3123840447611 62.87053896283987 A 18.952414693333367 18.952414693333367 0 1 1 741.3123745685546 62.85158655130527"/><path fill="rgb(27, 160, 170)" stroke="none" paint-order="stroke fill markers" d=" M 770.5726003288612 39.4817060706215 A 29.726666666666688 29.726666666666688 0 1 1 770.5725854655291 39.45197940890926"/><path fill="rgb(188, 132, 106)" stroke="none" paint-order="stroke fill markers" d=" M 738.9844093509146 109.52626503317549 A 18.952414693333367 18.952414693333367 0 1 1 738.9843998747081 109.50731262164088"/><path fill="rgb(188, 132, 106)" stroke="none" paint-order="stroke fill markers" d=" M 780.0605657531037 108.18367447163325 A 29.726666666666688 29.726666666666688 0 1 1 780.0605508897715 108.15394780992101"/><path fill="rgb(188, 132, 106)" stroke="none" paint-order="stroke fill markers" d=" M 783.2417028340806 81.99110076313559 A 18.952414693333367 18.952414693333367 0 1 1 783.241693357874 81.97214835160098"/><path fill="rgb(192, 129, 116)" stroke="none" paint-order="stroke fill markers" d=" M 820.7711581263127 104.7749236588786 A 18.95241469333314 18.95241469333314 0 1 1 820.7711486501062 104.755971247344"/><path fill="rgb(192, 129, 116)" stroke="none" paint-order="stroke fill markers" d=" M 861.6451201709474 108.42917748656373 A 29.72666666666646 29.72666666666646 0 1 1 861.6451053076153 108.39945082485148"/><path fill="rgb(241, 186, 176)" stroke="none" paint-order="stroke fill markers" d=" M 902.1035764005785 109.97348876632043 A 18.952414693333367 18.952414693333367 0 1 1 902.103566924372 109.95453635478582"/><path fill="rgb(195, 122, 165)" stroke="none" paint-order="stroke fill markers" d=" M 911.1931767729507 -4.539857915059429 A 18.952414693333367 18.952414693333367 0 1 1 911.1931672967442 -4.558810326594037"/><path fill="rgb(195, 122, 165)" stroke="none" paint-order="stroke fill markers" d=" M 891.6388532357826 -4.017451118799386 A 29.726666666666688 29.726666666666688 0 1 1 891.6388383724504 -4.047177780511626"/><path fill="rgb(193, 122, 169)" stroke="none" paint-order="stroke fill markers" d=" M 748.0560403009406 -5.5981421010011445 A 18.952414693333367 18.952414693333367 0 1 1 748.0560308247341 -5.617094512535753"/><path fill="rgb(192, 129, 115)" stroke="none" paint-order="stroke fill markers" d=" M 60.25732838510487 80.37823238186195 A 18.95241469333331 18.95241469333331 0 1 1 60.25731890889831 80.35927997032734"/><path fill="rgb(192, 129, 115)" stroke="none" paint-order="stroke fill markers" d=" M 12.129967746500881 100.87274104576159 A 18.95241469333331 18.95241469333331 0 1 1 12.129958270294324 100.85378863422697"/><path fill="rgb(23, 160, 169)" stroke="none" paint-order="stroke fill markers" d=" M 15.926398428130653 61.4612075868381 A 18.95241469333331 18.95241469333331 0 1 1 15.926388951924096 61.442255175303494"/><path fill="rgb(195, 122, 164)" stroke="none" paint-order="stroke fill markers" d=" M 24.417011711993155 -5.242018820868566 A 18.95241469333331 18.95241469333331 0 1 1 24.417002235786597 -5.2609712324031745"/><path fill="rgb(196, 122, 161)" stroke="none" paint-order="stroke fill markers" d=" M 86.03549799808007 -5.158876867664958 A 29.726666666666688 29.726666666666688 0 1 1 86.03548313474798 -5.188603529377198"/><path fill="rgb(46, 158, 177)" stroke="none" paint-order="stroke fill markers" d=" M 179.85817492547812 67.9988473684449 A 18.95241469333331 18.95241469333331 0 1 1 179.85816544927155 67.97989495691029"/><path fill="rgb(46, 158, 177)" stroke="none" paint-order="stroke fill markers" d=" M 205.20101517916322 42.123998318541794 A 29.726666666666688 29.726666666666688 0 1 1 205.20100031583112 42.094271656829555"/><path fill="rgb(192, 129, 116)" stroke="none" paint-order="stroke fill markers" d=" M 215.3911203903802 109.20129596387335 A 29.72666666666663 29.72666666666663 0 1 1 215.3911055270481 109.1715693021611"/><path fill="rgb(192, 129, 116)" stroke="none" paint-order="stroke fill markers" d=" M 174.5513717054909 105.28973485954975 A 18.95241469333331 18.95241469333331 0 1 1 174.55136222928434 105.27078244801514"/><path fill="rgb(192, 129, 115)" stroke="none" paint-order="stroke fill markers" d=" M 140.37174960780146 81.55482980979684 A 18.95241469333331 18.95241469333331 0 1 1 140.3717401315949 81.53587739826223"/><path fill="rgb(192, 129, 115)" stroke="none" paint-order="stroke fill markers" d=" M 133.05783094465 105.23600729737302 A 29.726666666666688 29.726666666666688 0 1 1 133.0578160813179 105.20628063566078"/><path fill="rgb(29, 159, 171)" stroke="none" paint-order="stroke fill markers" d=" M 98.81673119572093 63.39742839371684 A 18.95241469333331 18.95241469333331 0 1 1 98.81672171951438 63.37847598218223"/><path fill="rgb(29, 159, 171)" stroke="none" paint-order="stroke fill markers" d=" M 127.7206236713252 39.7462638225619 A 29.726666666666688 29.726666666666688 0 1 1 127.7206088079931 39.71653716084966"/><path fill="rgb(29, 159, 171)" stroke="none" paint-order="stroke fill markers" d=" M 147.0723029981158 43.1900728136286 A 18.95241469333331 18.95241469333331 0 1 1 147.07229352190922 43.171120402094"/><path fill="rgb(23, 160, 169)" stroke="none" paint-order="stroke fill markers" d=" M 45.956718493737014 38.667623146907204 A 29.726666666666688 29.726666666666688 0 1 1 45.95670363040492 38.637896485194965"/><path fill="rgb(23, 160, 169)" stroke="none" paint-order="stroke fill markers" d=" M 65.1079458200033 43.48893660023907 A 18.95241469333331 18.95241469333331 0 1 1 65.10793634379674 43.469984188704466"/><path fill="rgb(192, 129, 115)" stroke="none" paint-order="stroke fill markers" d=" M 92.15165591073293 101.84213274909234 A 18.95241469333331 18.95241469333331 0 1 1 92.15164643452637 101.82318033755773"/><path fill="rgb(192, 129, 115)" stroke="none" paint-order="stroke fill markers" d=" M 53.051281144261736 104.13697842326758 A 29.726666666666688 29.726666666666688 0 1 1 53.05126628092964 104.10725176155533"/><path fill="rgb(196, 122, 161)" stroke="none" paint-order="stroke fill markers" d=" M 105.37694498823458 -8.686332822582699 A 18.95241469333331 18.95241469333331 0 1 1 105.37693551202803 -8.705285234117307"/><path fill="rgb(194, 122, 169)" stroke="none" paint-order="stroke fill markers" d=" M 165.74166433689857 -5.0254818793828235 A 29.726666666666688 29.726666666666688 0 1 1 165.74164947356647 -5.055208541095063"/><path fill="rgb(194, 122, 169)" stroke="none" paint-order="stroke fill markers" d=" M 185.2713393165103 -3.726797816331782 A 18.95241469333331 18.95241469333331 0 1 1 185.27132984030374 -3.745750227866391"/><path fill="rgb(195, 122, 165)" stroke="none" paint-order="stroke fill markers" d=" M 571.4583286442248 -7.793929892282904 A 29.726666666666688 29.726666666666688 0 1 1 571.4583137808927 -7.823656553995144"/><path fill="rgb(196, 122, 162)" stroke="none" paint-order="stroke fill markers" d=" M 511.3666407280255 -8.321180177278961 A 18.952414693333253 18.952414693333253 0 1 1 511.36663125181894 -8.34013258881357"/><path fill="rgb(196, 122, 162)" stroke="none" paint-order="stroke fill markers" d=" M 491.95642727087574 -5.40211819669355 A 29.726666666666688 29.726666666666688 0 1 1 491.95641240754367 -5.43184485840579"/><path fill="rgb(194, 122, 169)" stroke="none" paint-order="stroke fill markers" d=" M 648.8350267760259 -7.905048293548134 A 29.726666666666688 29.726666666666688 0 1 1 648.8350119126937 -7.934774955260374"/><path fill="rgb(194, 122, 169)" stroke="none" paint-order="stroke fill markers" d=" M 668.3668380835884 -6.654411372701475 A 18.952414693333367 18.952414693333367 0 1 1 668.3668286073819 -6.673363784236083"/><path fill="rgb(193, 122, 169)" stroke="none" paint-order="stroke fill markers" d=" M 728.5562939538231 -7.44238281358912 A 29.726666666666688 29.726666666666688 0 1 1 728.556279090491 -7.47210947530136"/><path fill="rgb(195, 122, 165)" stroke="none" paint-order="stroke fill markers" d=" M 591.0006919439345 -8.77321287011955 A 18.952414693333367 18.952414693333367 0 1 1 591.000682467728 -8.79216528165416"/><path fill="rgb(25, 160, 169)" stroke="none" paint-order="stroke fill markers" d=" M 578.8837122865423 62.50844734841951 A 18.952414693333367 18.952414693333367 0 1 1 578.8837028103358 62.4894949368849"/><path fill="rgb(192, 129, 115)" stroke="none" paint-order="stroke fill markers" d=" M 579.1994696000631 102.62966796933563 A 18.952414693333367 18.952414693333367 0 1 1 579.1994601238566 102.61071555780102"/><path fill="rgb(189, 131, 108)" stroke="none" paint-order="stroke fill markers" d=" M 546.0878949523228 83.99925819173302 A 18.952414693333367 18.952414693333367 0 1 1 546.0878854761163 83.9803057801984"/><path fill="rgb(192, 129, 115)" stroke="none" paint-order="stroke fill markers" d=" M 620.1140477245381 105.95220601797496 A 29.726666666666688 29.726666666666688 0 1 1 620.1140328612059 105.92247935626271"/><path fill="rgb(192, 129, 115)" stroke="none" paint-order="stroke fill markers" d=" M 627.3686436304654 82.228282834894 A 18.95241469333314 18.95241469333314 0 1 1 627.3686341542589 82.20933042335939"/><path fill="rgb(191, 130, 113)" stroke="none" paint-order="stroke fill markers" d=" M 702.4165971084906 107.74316651051492 A 29.726666666666688 29.726666666666688 0 1 1 702.4165822451585 107.71343984880268"/><path fill="rgb(191, 130, 113)" stroke="none" paint-order="stroke fill markers" d=" M 708.7895122956372 83.40887230085139 A 18.952414693333367 18.952414693333367 0 1 1 708.7895028194307 83.38991988931677"/><path fill="rgb(191, 130, 113)" stroke="none" paint-order="stroke fill markers" d=" M 661.3993303595325 105.46839499600674 A 18.952414693333367 18.952414693333367 0 1 1 661.399320883326 105.44944258447212"/><path fill="rgb(46, 158, 177)" stroke="none" paint-order="stroke fill markers" d=" M 662.4070002186324 67.11939709077922 A 18.95241469333314 18.95241469333314 0 1 1 662.4069907424259 67.1004446792446"/><path fill="rgb(46, 158, 177)" stroke="none" paint-order="stroke fill markers" d=" M 687.6545354287505 41.19401106428688 A 29.726666666666688 29.726666666666688 0 1 1 687.6545205654184 41.164284402574644"/><path fill="rgb(46, 158, 177)" stroke="none" paint-order="stroke fill markers" d=" M 707.2032058740897 40.421204309838686 A 18.95241469333314 18.95241469333314 0 1 1 707.2031963978832 40.40225189830408"/><path fill="rgb(25, 160, 169)" stroke="none" paint-order="stroke fill markers" d=" M 627.7465672201663 43.732002761240324 A 18.952414693333367 18.952414693333367 0 1 1 627.7465577439598 43.71305034970572"/><path fill="rgb(25, 160, 169)" stroke="none" paint-order="stroke fill markers" d=" M 608.5159832397399 39.402246270955516 A 29.726666666666688 29.726666666666688 0 1 1 608.5159683764077 39.37251960924328"/><path fill="rgb(36, 159, 173)" stroke="none" paint-order="stroke fill markers" d=" M 467.4260244150998 42.7468086896323 A 18.952414693333367 18.952414693333367 0 1 1 467.4260149388932 42.7278562780977"/><path fill="rgb(36, 159, 173)" stroke="none" paint-order="stroke fill markers" d=" M 447.9242499290927 40.93428598468529 A 29.726666666666688 29.726666666666688 0 1 1 447.9242350657606 40.90455932297305"/><path fill="rgb(36, 159, 173)" stroke="none" paint-order="stroke fill markers" d=" M 420.39795335281764 65.52750918463016 A 18.952414693333367 18.952414693333367 0 1 1 420.39794387661107 65.50855677309555"/><path fill="rgb(38, 159, 174)" stroke="none" paint-order="stroke fill markers" d=" M 368.843970727363 39.896611310037315 A 29.726666666666688 29.726666666666688 0 1 1 368.84395586403093 39.866884648325076"/><path fill="rgb(38, 159, 174)" stroke="none" paint-order="stroke fill markers" d=" M 388.37000365783655 41.27329669372307 A 18.952414693333253 18.952414693333253 0 1 1 388.36999418163 41.25434428218846"/><path fill="rgb(192, 129, 115)" stroke="none" paint-order="stroke fill markers" d=" M 384.636636298027 83.94085081735716 A 18.952414693333253 18.952414693333253 0 1 1 384.6366268218204 83.92189840582255"/><path fill="rgb(192, 129, 115)" stroke="none" paint-order="stroke fill markers" d=" M 377.42497412657025 107.69557734447301 A 29.726666666666688 29.726666666666688 0 1 1 377.4249592632382 107.66585068276076"/><path fill="rgb(192, 129, 115)" stroke="none" paint-order="stroke fill markers" d=" M 418.60531551009996 106.13190281903326 A 18.952414693333367 18.952414693333367 0 1 1 418.6053060338934 106.11295040749864"/><path fill="rgb(192, 129, 115)" stroke="none" paint-order="stroke fill markers" d=" M 466.62032873626043 85.38965539422895 A 18.952414693333367 18.952414693333367 0 1 1 466.62031926005386 85.37070298269434"/><path fill="rgb(192, 129, 115)" stroke="none" paint-order="stroke fill markers" d=" M 459.5439915317044 109.24072988030468 A 29.726666666666688 29.726666666666688 0 1 1 459.54397666837235 109.21100321859244"/><path fill="rgb(189, 131, 108)" stroke="none" paint-order="stroke fill markers" d=" M 500.68249466132164 109.70570362519129 A 18.952414693333253 18.952414693333253 0 1 1 500.68248518511507 109.68675121365668"/><path fill="rgb(189, 131, 108)" stroke="none" paint-order="stroke fill markers" d=" M 541.7898860417397 109.59979720864942 A 29.726666666666688 29.726666666666688 0 1 1 541.7898711784076 109.57007054693717"/><path fill="rgb(48, 158, 178)" stroke="none" paint-order="stroke fill markers" d=" M 526.7547881110802 40.337255540551155 A 29.726666666666745 29.726666666666745 0 1 1 526.7547732477481 40.307528878838916"/><path fill="rgb(48, 158, 178)" stroke="none" paint-order="stroke fill markers" d=" M 502.1055817810514 66.57021275050704 A 18.952414693333367 18.952414693333367 0 1 1 502.1055723048448 66.55126033897243"/><path fill="rgb(48, 158, 178)" stroke="none" paint-order="stroke fill markers" d=" M 546.2781833511431 38.90672924922501 A 18.95241469333314 18.95241469333314 0 1 1 546.2781738749366 38.8877768376904"/><path fill="rgb(196, 122, 163)" stroke="none" paint-order="stroke fill markers" d=" M 325.96414427390135 -4.644470921364132 A 29.726666666666688 29.726666666666688 0 1 1 325.9641294105693 -4.674197583076372"/><path fill="rgb(196, 122, 163)" stroke="none" paint-order="stroke fill markers" d=" M 345.44723860367793 -6.731220859929749 A 18.952414693333367 18.952414693333367 0 1 1 345.44722912747136 -6.750173271464358"/><path fill="rgb(194, 122, 167)" stroke="none" paint-order="stroke fill markers" d=" M 406.9986484707318 -4.400876720643282 A 29.726666666666688 29.726666666666688 0 1 1 406.9986336073997 -4.430603382355522"/><path fill="rgb(194, 122, 167)" stroke="none" paint-order="stroke fill markers" d=" M 426.55316946640477 -3.8894126587796336 A 18.952414693333367 18.952414693333367 0 1 1 426.5531599901982 -3.9083650703142423"/><path fill="rgb(191, 130, 113)" stroke="none" paint-order="stroke fill markers" d=" M 302.78488457873397 84.54095907482406 A 18.952414693333253 18.952414693333253 0 1 1 302.7848751025274 84.52200666328945"/><path fill="rgb(36, 159, 173)" stroke="none" paint-order="stroke fill markers" d=" M 306.8689133772363 45.16170926328937 A 18.952414693333367 18.952414693333367 0 1 1 306.86890390102974 45.14275685175476"/><path fill="rgb(38, 159, 174)" stroke="none" paint-order="stroke fill markers" d=" M 341.69365234440335 64.72818331246287 A 18.952414693333367 18.952414693333367 0 1 1 341.6936428681968 64.70923090092826"/><path fill="rgb(36, 159, 173)" stroke="none" paint-order="stroke fill markers" d=" M 287.3609181765134 43.450345177688405 A 29.726666666666688 29.726666666666688 0 1 1 287.3609033131813 43.420618515976166"/><path fill="rgb(36, 159, 173)" stroke="none" paint-order="stroke fill markers" d=" M 259.9215924780994 68.0993875527356 A 18.952414693333367 18.952414693333367 0 1 1 259.9215830018928 68.080435141201"/><path fill="rgb(46, 158, 177)" stroke="none" paint-order="stroke fill markers" d=" M 224.75233581777155 41.45672794429993 A 18.95241469333331 18.95241469333331 0 1 1 224.75232634156498 41.43777553276532"/><path fill="rgb(196, 122, 162)" stroke="none" paint-order="stroke fill markers" d=" M 246.44726995145453 -4.696122735593576 A 29.726666666666688 29.726666666666688 0 1 1 246.44725508812243 -4.725849397305816"/><path fill="rgb(196, 122, 162)" stroke="none" paint-order="stroke fill markers" d=" M 265.8576396031223 -7.613667250657841 A 18.952414693333367 18.952414693333367 0 1 1 265.85763012691575 -7.632619662192449"/><path fill="rgb(36, 159, 173)" stroke="none" paint-order="stroke fill markers" d=" M 280.2604969432662 266.33660776729664 A 29.726666666666688 29.726666666666688 0 1 1 280.26048207993415 266.3068811055844"/><path fill="rgb(36, 159, 173)" stroke="none" paint-order="stroke fill markers" d=" M 252.74069536586802 290.9340106159097 A 18.952414693333253 18.952414693333253 0 1 1 252.74068588966145 290.9150582043751"/><path fill="rgb(36, 159, 173)" stroke="none" paint-order="stroke fill markers" d=" M 299.76274621856425 268.1415691930876 A 18.952414693333367 18.952414693333367 0 1 1 299.7627367423577 268.122616781553"/><path fill="rgb(195, 122, 165)" stroke="none" paint-order="stroke fill markers" d=" M 327.3258427666005 222.87268708099703 A 29.726666666666688 29.726666666666688 0 1 1 327.3258279032684 222.8429604192848"/><path fill="rgb(195, 122, 165)" stroke="none" paint-order="stroke fill markers" d=" M 300.8811751014537 197.61412133928025 A 18.952414693333367 18.952414693333367 0 1 1 300.88116562524715 197.59516892774565"/><path fill="rgb(63, 162, 122)" stroke="none" paint-order="stroke fill markers" d=" M 341.64337834962663 181.14392074262264 A 18.952414693333367 18.952414693333367 0 1 1 341.64336887342006 181.12496833108804"/><path fill="rgb(63, 162, 122)" stroke="none" paint-order="stroke fill markers" d=" M 336.5928990499663 155.97651367409605 A 29.726666666666688 29.726666666666688 0 1 1 336.59288418663425 155.94678701238382"/><path fill="rgb(63, 162, 122)" stroke="none" paint-order="stroke fill markers" d=" M 295.4949729872365 156.7209313974903 A 18.952414693333253 18.952414693333253 0 1 1 295.49496351102994 156.7019789859557"/><path fill="rgb(60, 162, 124)" stroke="none" paint-order="stroke fill markers" d=" M 262.8895010066762 175.702433998439 A 18.952414693333253 18.952414693333253 0 1 1 262.8894915304696 175.6834815869044"/><path fill="rgb(196, 122, 162)" stroke="none" paint-order="stroke fill markers" d=" M 265.85813727475085 212.06572337598845 A 18.952414693333367 18.952414693333367 0 1 1 265.8581277985443 212.04677096445386"/><path fill="rgb(196, 122, 162)" stroke="none" paint-order="stroke fill markers" d=" M 246.45037213977008 215.0086296821321 A 29.726666666666688 29.726666666666688 0 1 1 246.45035727643798 214.97890302041986"/><path fill="rgb(60, 162, 124)" stroke="none" paint-order="stroke fill markers" d=" M 256.804340673569 151.17870510427747 A 29.726666666666688 29.726666666666688 0 1 1 256.80432581023695 151.14897844256524"/><path fill="rgb(192, 129, 116)" stroke="none" paint-order="stroke fill markers" d=" M 223.1328201424597 85.8349083550437 A 18.952414693333367 18.952414693333367 0 1 1 223.13281066625314 85.81595594350908"/><path fill="rgb(191, 130, 113)" stroke="none" paint-order="stroke fill markers" d=" M 255.30160312452284 106.41031983087976 A 18.952414693333367 18.952414693333367 0 1 1 255.30159364831627 106.39136741934514"/><path fill="rgb(191, 130, 113)" stroke="none" paint-order="stroke fill markers" d=" M 296.308973956766 108.80630948083194 A 29.726666666666688 29.726666666666688 0 1 1 296.30895909343394 108.7765828191197"/><path fill="rgb(192, 129, 115)" stroke="none" paint-order="stroke fill markers" d=" M 336.5044330530524 104.42460127237393 A 18.952414693333253 18.952414693333253 0 1 1 336.50442357684585 104.40564886083932"/><path fill="rgb(58, 162, 125)" stroke="none" paint-order="stroke fill markers" d=" M 413.3922203751035 383.58777444317036 A 29.726666666666688 29.726666666666688 0 1 1 413.3922055117714 383.55804778145813"/><path fill="rgb(195, 122, 164)" stroke="none" paint-order="stroke fill markers" d=" M 377.3284071379276 425.91544575259496 A 18.952414693333253 18.952414693333253 0 1 1 377.32839766172106 425.89649334106036"/><path fill="rgb(58, 162, 125)" stroke="none" paint-order="stroke fill markers" d=" M 372.38263949181504 385.95721873671425 A 18.952414693333253 18.952414693333253 0 1 1 372.38263001560847 385.93826632517965"/><path fill="rgb(188, 132, 106)" stroke="none" paint-order="stroke fill markers" d=" M 377.19597667660497 336.85916494199387 A 29.726666666666574 29.726666666666574 0 1 1 377.1959618132729 336.82943828028164"/><path fill="rgb(188, 132, 106)" stroke="none" paint-order="stroke fill markers" d=" M 380.23362455374064 310.5947552410623 A 18.952414693333253 18.952414693333253 0 1 1 380.23361507753407 310.5758028295277"/><path fill="rgb(40, 159, 175)" stroke="none" paint-order="stroke fill markers" d=" M 335.19858729871504 296.94449481826643 A 18.952414693333253 18.952414693333253 0 1 1 335.19857782250847 296.92554240673184"/><path fill="rgb(192, 129, 114)" stroke="none" paint-order="stroke fill markers" d=" M 301.23339644106255 311.57458363652637 A 18.952414693333253 18.952414693333253 0 1 1 301.233386964856 311.55563122499177"/><path fill="rgb(192, 129, 114)" stroke="none" paint-order="stroke fill markers" d=" M 294.3823000383945 335.58357211666925 A 29.726666666666688 29.726666666666688 0 1 1 294.3822851750624 335.553845454957"/><path fill="rgb(188, 132, 106)" stroke="none" paint-order="stroke fill markers" d=" M 336.12759596434506 338.35852498067067 A 18.952414693333367 18.952414693333367 0 1 1 336.1275864881385 338.33957256913607"/><path fill="rgb(60, 162, 124)" stroke="none" paint-order="stroke fill markers" d=" M 334.1996135004625 383.5770535651616 A 29.726666666666688 29.726666666666688 0 1 1 334.1995986371304 383.54732690344935"/><path fill="rgb(60, 162, 124)" stroke="none" paint-order="stroke fill markers" d=" M 340.15766218363757 408.18298429172273 A 18.952414693333367 18.952414693333367 0 1 1 340.157652707431 408.16403188018813"/><path fill="rgb(195, 122, 165)" stroke="none" paint-order="stroke fill markers" d=" M 298.1300705202851 424.75138530895373 A 18.952414693333253 18.952414693333253 0 1 1 298.1300610440785 424.73243289741913"/><path fill="rgb(60, 162, 124)" stroke="none" paint-order="stroke fill markers" d=" M 293.14789094723614 385.3665929261968 A 18.952414693333253 18.952414693333253 0 1 1 293.14788147102956 385.3476405146622"/><path fill="rgb(55, 162, 127)" stroke="none" paint-order="stroke fill markers" d=" M 257.75464852422584 398.1005483584253 A 18.952414693333253 18.952414693333253 0 1 1 257.75463904801927 398.08159594689073"/><path fill="rgb(55, 162, 127)" stroke="none" paint-order="stroke fill markers" d=" M 250.49926299401653 374.377189860752 A 29.726666666666688 29.726666666666688 0 1 1 250.49924813068444 374.3474631990398"/><path fill="rgb(192, 129, 114)" stroke="none" paint-order="stroke fill markers" d=" M 253.41562371633228 332.7434074143764 A 18.952414693333253 18.952414693333253 0 1 1 253.4156142401257 332.7244550028418"/><path fill="rgb(78, 161, 113)" stroke="none" paint-order="stroke fill markers" d=" M 378.9178340846658 155.7936646031677 A 18.952414693333367 18.952414693333367 0 1 1 378.9178246084592 155.7747121916331"/><path fill="rgb(195, 122, 165)" stroke="none" paint-order="stroke fill markers" d=" M 378.34992326474884 200.9185607111756 A 18.952414693333367 18.952414693333367 0 1 1 378.34991378854227 200.899608299641"/><path fill="rgb(195, 122, 165)" stroke="none" paint-order="stroke fill markers" d=" M 405.1140487691303 225.98704903750513 A 29.726666666666688 29.726666666666688 0 1 1 405.11403390579824 225.9573223757929"/><path fill="rgb(195, 122, 165)" stroke="none" paint-order="stroke fill markers" d=" M 346.87928355942455 222.30382096662458 A 18.952414693333253 18.952414693333253 0 1 1 346.879274083218 222.28486855509"/><path fill="rgb(40, 159, 175)" stroke="none" paint-order="stroke fill markers" d=" M 362.0250296575418 271.9137037805259 A 29.726666666666688 29.726666666666688 0 1 1 362.0250147942097 271.8839771188137"/><path fill="rgb(40, 159, 175)" stroke="none" paint-order="stroke fill markers" d=" M 381.5665266343079 272.9180016957024 A 18.952414693333253 18.952414693333253 0 1 1 381.5665171581013 272.8990492841678"/><path fill="rgb(42, 158, 175)" stroke="none" paint-order="stroke fill markers" d=" M 442.3133678109239 273.51387566569815 A 29.726666666666688 29.726666666666688 0 1 1 442.31335294759185 273.4841490039859"/><path fill="rgb(195, 122, 165)" stroke="none" paint-order="stroke fill markers" d=" M 424.65795675871203 225.05408606735932 A 18.952414693333367 18.952414693333367 0 1 1 424.65794728250546 225.03513365582472"/><path fill="rgb(42, 158, 175)" stroke="none" paint-order="stroke fill markers" d=" M 461.8702880480345 273.86593711394926 A 18.952414693333253 18.952414693333253 0 1 1 461.87027857182795 273.84698470241466"/><path fill="rgb(191, 130, 113)" stroke="none" paint-order="stroke fill markers" d=" M 459.72255308242217 315.3194871648513 A 18.952414693333253 18.952414693333253 0 1 1 459.7225436062156 315.3005347533167"/><path fill="rgb(42, 158, 175)" stroke="none" paint-order="stroke fill markers" d=" M 416.06002471891094 298.8837761256871 A 18.952414693333367 18.952414693333367 0 1 1 416.06001524270437 298.8648237141525"/><path fill="rgb(191, 130, 113)" stroke="none" paint-order="stroke fill markers" d=" M 412.28817211279005 337.2889810352914 A 18.952414693333253 18.952414693333253 0 1 1 412.2881626365835 337.2700286237568"/><path fill="rgb(191, 130, 113)" stroke="none" paint-order="stroke fill markers" d=" M 453.30081503231537 339.6211756215736 A 29.726666666666688 29.726666666666688 0 1 1 453.3008001689833 339.5914489598614"/><path fill="rgb(51, 162, 129)" stroke="none" paint-order="stroke fill markers" d=" M 455.05051244133637 385.8349241320884 A 18.952414693333367 18.952414693333367 0 1 1 455.0505029651298 385.8159717205538"/><path fill="rgb(194, 122, 168)" stroke="none" paint-order="stroke fill markers" d=" M 458.33149459751377 424.4137378354852 A 18.952414693333367 18.952414693333367 0 1 1 458.3314851213072 424.3947854239506"/><path fill="rgb(58, 162, 125)" stroke="none" paint-order="stroke fill markers" d=" M 419.845596452528 407.8682606042951 A 18.952414693333367 18.952414693333367 0 1 1 419.84558697632144 407.8493081927605"/><path fill="rgb(62, 162, 123)" stroke="none" paint-order="stroke fill markers" d=" M 541.7680377090487 155.85877438799946 A 18.95241469333314 18.95241469333314 0 1 1 541.7680282328422 155.83982197646486"/><path fill="rgb(196, 122, 163)" stroke="none" paint-order="stroke fill markers" d=" M 541.9401724586837 195.47832798750767 A 18.952414693333367 18.952414693333367 0 1 1 541.9401629824772 195.45937557597307"/><path fill="rgb(196, 122, 163)" stroke="none" paint-order="stroke fill markers" d=" M 588.8287027830836 218.5294720210063 A 18.952414693333367 18.952414693333367 0 1 1 588.8286933068771 218.51051960947171"/><path fill="rgb(44, 158, 176)" stroke="none" paint-order="stroke fill markers" d=" M 604.1945410310454 271.4061233295575 A 29.726666666666688 29.726666666666688 0 1 1 604.1945261677133 271.37639666784526"/><path fill="rgb(42, 158, 175)" stroke="none" paint-order="stroke fill markers" d=" M 544.2992287097559 265.6327436485227 A 18.952414693333367 18.952414693333367 0 1 1 544.2992192335494 265.6137912369881"/><path fill="rgb(196, 122, 163)" stroke="none" paint-order="stroke fill markers" d=" M 569.3164229203308 220.1675969107365 A 29.726666666666688 29.726666666666688 0 1 1 569.3164080569986 220.13787024902427"/><path fill="rgb(42, 158, 175)" stroke="none" paint-order="stroke fill markers" d=" M 524.741194887878 265.3877132574384 A 29.72666666666663 29.72666666666663 0 1 1 524.7411800245459 265.3579865957262"/><path fill="rgb(42, 158, 175)" stroke="none" paint-order="stroke fill markers" d=" M 498.5826038277698 290.81206596314905 A 18.952414693333253 18.952414693333253 0 1 1 498.5825943515632 290.79311355161445"/><path fill="rgb(197, 122, 156)" stroke="none" paint-order="stroke fill markers" d=" M 487.32096651615797 222.7445187967428 A 29.726666666666574 29.726666666666574 0 1 1 487.3209516528259 222.71479213503056"/><path fill="rgb(197, 122, 156)" stroke="none" paint-order="stroke fill markers" d=" M 506.24533012267415 216.74131828256066 A 18.952414693333367 18.952414693333367 0 1 1 506.2453206464676 216.72236587102606"/><path fill="rgb(51, 162, 129)" stroke="none" paint-order="stroke fill markers" d=" M 505.2400200026746 180.70614539505937 A 18.952414693333253 18.952414693333253 0 1 1 505.24001052646804 180.68719298352477"/><path fill="rgb(51, 162, 129)" stroke="none" paint-order="stroke fill markers" d=" M 497.06646857851155 157.66951949035183 A 29.726666666666688 29.726666666666688 0 1 1 497.0664537151795 157.6397928286396"/><path fill="rgb(51, 162, 129)" stroke="none" paint-order="stroke fill markers" d=" M 456.30444434653674 162.10968286239154 A 18.952414693333253 18.952414693333253 0 1 1 456.30443487033017 162.09073045085694"/><path fill="rgb(197, 122, 156)" stroke="none" paint-order="stroke fill markers" d=" M 456.3516202366447 200.7329501139949 A 18.952414693333367 18.952414693333367 0 1 1 456.3516107604381 200.7139977024603"/><path fill="rgb(78, 161, 113)" stroke="none" paint-order="stroke fill markers" d=" M 420.39057803720385 187.1619307622966 A 18.952414693333367 18.952414693333367 0 1 1 420.3905685609973 187.142978350762"/><path fill="rgb(78, 161, 113)" stroke="none" paint-order="stroke fill markers" d=" M 419.7394943776307 159.83455241590775 A 29.726666666666688 29.726666666666688 0 1 1 419.73947951429864 159.80482575419552"/><path fill="rgb(192, 129, 115)" stroke="none" paint-order="stroke fill markers" d=" M 613.0499432639538 340.09517706881894 A 29.726666666666688 29.726666666666688 0 1 1 613.0499284006216 340.0654504071067"/><path fill="rgb(192, 129, 115)" stroke="none" paint-order="stroke fill markers" d=" M 620.3458412530249 316.4009888679577 A 18.95241469333314 18.95241469333314 0 1 1 620.3458317768184 316.3820364564231"/><path fill="rgb(44, 158, 176)" stroke="none" paint-order="stroke fill markers" d=" M 623.7523972027077 271.14098474932547 A 18.952414693333367 18.952414693333367 0 1 1 623.7523877265012 271.12203233779087"/><path fill="rgb(195, 122, 164)" stroke="none" paint-order="stroke fill markers" d=" M 652.629393666708 224.42975958328577 A 29.726666666666688 29.726666666666688 0 1 1 652.6293788033759 224.40003292157354"/><path fill="rgb(36, 162, 137)" stroke="none" paint-order="stroke fill markers" d=" M 658.0271759178818 280.1941727035773 A 18.95241469333314 18.95241469333314 0 1 1 658.0271664416753 280.1752202920427"/><path fill="rgb(36, 162, 137)" stroke="none" paint-order="stroke fill markers" d=" M 697.9209223232488 271.93248404987423 A 29.726666666666688 29.726666666666688 0 1 1 697.9209074599166 271.902757388162"/><path fill="rgb(36, 162, 137)" stroke="none" paint-order="stroke fill markers" d=" M 709.0633626406939 292.32705475625306 A 18.952414693333367 18.952414693333367 0 1 1 709.0633531644874 292.30810234471846"/><path fill="rgb(195, 122, 164)" stroke="none" paint-order="stroke fill markers" d=" M 672.1583185539528 223.11467620958763 A 18.952414693333367 18.952414693333367 0 1 1 672.1583090777463 223.09572379805303"/><path fill="rgb(197, 122, 159)" stroke="none" paint-order="stroke fill markers" d=" M 704.0988940654356 199.34915689733987 A 18.95241469333314 18.95241469333314 0 1 1 704.0988845892291 199.33020448580527"/><path fill="rgb(57, 162, 126)" stroke="none" paint-order="stroke fill markers" d=" M 701.799918502926 160.36823360495055 A 18.952414693333367 18.952414693333367 0 1 1 701.7999090267194 160.34928119341595"/><path fill="rgb(60, 162, 124)" stroke="none" paint-order="stroke fill markers" d=" M 666.5822280843809 176.74177957614768 A 18.952414693333367 18.952414693333367 0 1 1 666.5822186081743 176.72282716461308"/><path fill="rgb(60, 162, 124)" stroke="none" paint-order="stroke fill markers" d=" M 660.7833561971902 152.03417291785377 A 29.726666666666688 29.726666666666688 0 1 1 660.7833413338581 152.00444625614153"/><path fill="rgb(195, 122, 164)" stroke="none" paint-order="stroke fill markers" d=" M 625.5324854623113 199.56495065121862 A 18.952414693333367 18.952414693333367 0 1 1 625.5324759861048 199.54599823968402"/><path fill="rgb(60, 162, 124)" stroke="none" paint-order="stroke fill markers" d=" M 619.7206809062839 153.638810956621 A 18.952414693333367 18.952414693333367 0 1 1 619.7206714300773 153.6198585450864"/><path fill="rgb(62, 162, 123)" stroke="none" paint-order="stroke fill markers" d=" M 588.4427806666611 179.31668139565943 A 18.95241469333314 18.95241469333314 0 1 1 588.4427711904546 179.29772898412483"/><path fill="rgb(62, 162, 123)" stroke="none" paint-order="stroke fill markers" d=" M 582.8426671185412 154.4840500604571 A 29.726666666666688 29.726666666666688 0 1 1 582.842652255209 154.45432339874486"/><path fill="rgb(189, 131, 108)" stroke="none" paint-order="stroke fill markers" d=" M 537.3229283397088 308.7177151984751 A 18.952414693333367 18.952414693333367 0 1 1 537.3229188635023 308.6987627869405"/><path fill="rgb(44, 158, 176)" stroke="none" paint-order="stroke fill markers" d=" M 578.4903401376955 297.08541211993906 A 18.952414693333367 18.952414693333367 0 1 1 578.490330661489 297.06645970840447"/><path fill="rgb(192, 129, 115)" stroke="none" paint-order="stroke fill markers" d=" M 572.1411928748555 336.72298556011054 A 18.952414693333367 18.952414693333367 0 1 1 572.141183398649 336.70403314857595"/><path fill="rgb(75, 161, 115)" stroke="none" paint-order="stroke fill markers" d=" M 576.700502974764 383.1519788356226 A 29.726666666666688 29.726666666666688 0 1 1 576.7004881114319 383.12225217391034"/><path fill="rgb(75, 161, 115)" stroke="none" paint-order="stroke fill markers" d=" M 535.7552746378094 380.10386379298683 A 18.952414693333367 18.952414693333367 0 1 1 535.7552651616029 380.08491138145223"/><path fill="rgb(195, 122, 165)" stroke="none" paint-order="stroke fill markers" d=" M 534.3336648255197 424.3734287371198 A 18.952414693333367 18.952414693333367 0 1 1 534.3336553493132 424.3544763255852"/><path fill="rgb(75, 161, 115)" stroke="none" paint-order="stroke fill markers" d=" M 578.2974244496709 410.0870438192971 A 18.95241469333314 18.95241469333314 0 1 1 578.2974149734644 410.0680914077625"/><path fill="rgb(196, 122, 163)" stroke="none" paint-order="stroke fill markers" d=" M 616.1026645093857 424.45411264292306 A 18.952414693333367 18.952414693333367 0 1 1 616.1026550331792 424.43516023138847"/><path fill="rgb(55, 162, 127)" stroke="none" paint-order="stroke fill markers" d=" M 614.9087874145639 385.4558183073184 A 18.95241469333314 18.95241469333314 0 1 1 614.9087779383574 385.4368658957838"/><path fill="rgb(55, 162, 127)" stroke="none" paint-order="stroke fill markers" d=" M 655.8114750944658 382.03278799351557 A 29.726666666666688 29.726666666666688 0 1 1 655.8114602311337 382.00306133180334"/><path fill="rgb(55, 162, 127)" stroke="none" paint-order="stroke fill markers" d=" M 663.1496120690838 405.6964518160789 A 18.95241469333314 18.95241469333314 0 1 1 663.1496025928773 405.6774994045443"/><path fill="rgb(194, 122, 167)" stroke="none" paint-order="stroke fill markers" d=" M 699.8182409513506 426.61761331289426 A 18.95241469333314 18.95241469333314 0 1 1 699.8182314751441 426.59866090135966"/><path fill="rgb(72, 161, 117)" stroke="none" paint-order="stroke fill markers" d=" M 698.8447511772024 386.5515493394872 A 18.952414693333367 18.952414693333367 0 1 1 698.8447417009959 386.5325969279526"/><path fill="rgb(198, 122, 154)" stroke="none" paint-order="stroke fill markers" d=" M 691.4240865982467 339.2117574266471 A 29.72666666666646 29.72666666666646 0 1 1 691.4240717349146 339.1820307649349"/><path fill="rgb(198, 122, 154)" stroke="none" paint-order="stroke fill markers" d=" M 710.1764012513293 332.45335064241476 A 18.952414693333367 18.952414693333367 0 1 1 710.1763917751227 332.43439823088016"/><path fill="rgb(198, 122, 154)" stroke="none" paint-order="stroke fill markers" d=" M 659.8682617743136 317.7226973928217 A 18.952414693333367 18.952414693333367 0 1 1 659.8682522981071 317.7037449812871"/><path fill="rgb(195, 122, 165)" stroke="none" paint-order="stroke fill markers" d=" M 560.7770911225177 449.63272246489475 A 29.726666666666688 29.726666666666688 0 1 1 560.7770762591856 449.6029958031825"/><path fill="rgb(40, 159, 175)" stroke="none" paint-order="stroke fill markers" d=" M 546.7524430764252 496.0391239913024 A 18.95241469333314 18.95241469333314 0 1 1 546.7524336002186 496.0201715797678"/><path fill="rgb(48, 158, 178)" stroke="none" paint-order="stroke fill markers" d=" M 604.4651615306489 495.6669701137892 A 29.726666666666688 29.726666666666688 0 1 1 604.4651466673167 495.637243452077"/><path fill="rgb(48, 158, 178)" stroke="none" paint-order="stroke fill markers" d=" M 579.6385299836209 521.8104492768073 A 18.952414693333367 18.952414693333367 0 1 1 579.6385205074143 521.7914968652726"/><path fill="rgb(192, 129, 114)" stroke="none" paint-order="stroke fill markers" d=" M 575.402997551693 558.4073525784682 A 18.952414693333367 18.952414693333367 0 1 1 575.4029880754865 558.3884001669336"/><path fill="rgb(192, 129, 115)" stroke="none" paint-order="stroke fill markers" d=" M 543.8931963603497 537.2303512832502 A 18.952414693333367 18.952414693333367 0 1 1 543.8931868841432 537.2113988717156"/><path fill="rgb(192, 129, 115)" stroke="none" paint-order="stroke fill markers" d=" M 536.8189732606786 561.0829227308662 A 29.72666666666663 29.72666666666663 0 1 1 536.8189583973465 561.053196069154"/><path fill="rgb(192, 129, 115)" stroke="none" paint-order="stroke fill markers" d=" M 495.8800216990284 557.976624858259 A 18.952414693333253 18.952414693333253 0 1 1 495.88001222282185 557.9576724467244"/><path fill="rgb(40, 159, 175)" stroke="none" paint-order="stroke fill markers" d=" M 500.6382298721866 520.523126546597 A 18.952414693333367 18.952414693333367 0 1 1 500.63822039598006 520.5041741350624"/><path fill="rgb(40, 159, 175)" stroke="none" paint-order="stroke fill markers" d=" M 527.202006652695 495.3348127174106 A 29.72666666666663 29.72666666666663 0 1 1 527.2019917893629 495.3050860556984"/><path fill="rgb(194, 122, 168)" stroke="none" paint-order="stroke fill markers" d=" M 503.35884398915783 450.74160258862116 A 18.952414693333367 18.952414693333367 0 1 1 503.35883451295126 450.72265017708656"/><path fill="rgb(194, 122, 168)" stroke="none" paint-order="stroke fill markers" d=" M 483.80452645469876 450.21885086007336 A 29.726666666666688 29.726666666666688 0 1 1 483.8045115913667 450.1891241983611"/><path fill="rgb(51, 162, 129)" stroke="none" paint-order="stroke fill markers" d=" M 504.0519084310541 404.26672831568453 A 18.952414693333253 18.952414693333253 0 1 1 504.0518989548475 404.24777590414993"/><path fill="rgb(51, 162, 129)" stroke="none" paint-order="stroke fill markers" d=" M 495.7965712899516 381.2939531163445 A 29.726666666666688 29.726666666666688 0 1 1 495.79655642661953 381.26422645463225"/><path fill="rgb(189, 131, 108)" stroke="none" paint-order="stroke fill markers" d=" M 492.01229401742347 334.58182559494486 A 18.952414693333253 18.952414693333253 0 1 1 492.0122845412169 334.56287318341026"/><path fill="rgb(189, 131, 108)" stroke="none" paint-order="stroke fill markers" d=" M 533.1191019890475 334.3704816942204 A 29.72666666666663 29.72666666666663 0 1 1 533.1190871257154 334.3407550325082"/><path fill="rgb(40, 159, 175)" stroke="none" paint-order="stroke fill markers" d=" M 673.0227147226319 610.4754467933494 A 18.952414693333367 18.952414693333367 0 1 1 673.0227052464254 610.4564943818148"/><path fill="rgb(40, 159, 175)" stroke="none" paint-order="stroke fill markers" d=" M 653.4796220607648 609.517766491314 A 29.726666666666688 29.726666666666688 0 1 1 653.4796071974326 609.4880398296017"/><path fill="rgb(192, 129, 114)" stroke="none" paint-order="stroke fill markers" d=" M 616.3851433915431 561.0874242366622 A 29.72666666666646 29.72666666666646 0 1 1 616.385128528211 561.0576975749499"/><path fill="rgb(192, 129, 114)" stroke="none" paint-order="stroke fill markers" d=" M 623.1014136580707 536.9853600562075 A 18.952414693333367 18.952414693333367 0 1 1 623.1014041818642 536.9664076446728"/><path fill="rgb(34, 159, 172)" stroke="none" paint-order="stroke fill markers" d=" M 655.6235067501757 520.3350173620652 A 18.952414693333367 18.952414693333367 0 1 1 655.6234972739692 520.3160649505305"/><path fill="rgb(192, 129, 114)" stroke="none" paint-order="stroke fill markers" d=" M 655.6092428115517 560.2983228390275 A 18.952414693333367 18.952414693333367 0 1 1 655.6092333353452 560.2793704274928"/><path fill="rgb(192, 129, 114)" stroke="none" paint-order="stroke fill markers" d=" M 696.5979752447977 562.907204123408 A 29.726666666666688 29.726666666666688 0 1 1 696.5979603814656 562.8774774616957"/><path fill="rgb(192, 129, 114)" stroke="none" paint-order="stroke fill markers" d=" M 703.2541444062856 538.7639974211095 A 18.952414693333367 18.952414693333367 0 1 1 703.2541349300791 538.7450450095748"/><path fill="rgb(34, 159, 172)" stroke="none" paint-order="stroke fill markers" d=" M 683.6767195399339 496.08905451929695 A 29.72666666666646 29.72666666666646 0 1 1 683.6767046766017 496.0593278575847"/><path fill="rgb(34, 159, 172)" stroke="none" paint-order="stroke fill markers" d=" M 703.1327204925935 498.5189937619485 A 18.952414693333367 18.952414693333367 0 1 1 703.132711016387 498.5000413504139"/><path fill="rgb(194, 122, 167)" stroke="none" paint-order="stroke fill markers" d=" M 725.694567667877 452.2015255750468 A 29.726666666666688 29.726666666666688 0 1 1 725.6945528045449 452.17179891333456"/><path fill="rgb(196, 122, 163)" stroke="none" paint-order="stroke fill markers" d=" M 663.6265012837703 446.23999258658216 A 18.952414693333367 18.952414693333367 0 1 1 663.6264918075638 446.22104017504756"/><path fill="rgb(196, 122, 163)" stroke="none" paint-order="stroke fill markers" d=" M 644.1721361683803 448.6891082905448 A 29.726666666666688 29.726666666666688 0 1 1 644.1721213050482 448.6593816288326"/><path fill="rgb(48, 158, 178)" stroke="none" paint-order="stroke fill markers" d=" M 623.9975902293711 494.4306158877238 A 18.95241469333314 18.95241469333314 0 1 1 623.9975807531646 494.4116634761892"/><path fill="rgb(195, 122, 165)" stroke="none" paint-order="stroke fill markers" d=" M 580.3305602804669 449.06526565284383 A 18.952414693333367 18.952414693333367 0 1 1 580.3305508042604 449.04631324130924"/><path fill="rgb(34, 159, 172)" stroke="none" paint-order="stroke fill markers" d=" M 574.1886041477155 608.5156250153834 A 29.726666666666688 29.726666666666688 0 1 1 574.1885892843834 608.4858983536711"/><path fill="rgb(34, 159, 172)" stroke="none" paint-order="stroke fill markers" d=" M 593.6404333156033 610.9941622971594 A 18.95241469333314 18.95241469333314 0 1 1 593.6404238393968 610.9752098856247"/><path fill="rgb(29, 159, 171)" stroke="none" paint-order="stroke fill markers" d=" M 429.99447037805515 611.0001308944233 A 18.952414693333253 18.952414693333253 0 1 1 429.9944609018486 610.9811784828886"/><path fill="rgb(29, 159, 171)" stroke="none" paint-order="stroke fill markers" d=" M 410.63961620600475 607.5826939748181 A 29.726666666666688 29.726666666666688 0 1 1 410.6396013426727 607.5529673131058"/><path fill="rgb(20, 160, 168)" stroke="none" paint-order="stroke fill markers" d=" M 348.23110103601647 614.4356141186606 A 18.952414693333253 18.952414693333253 0 1 1 348.2310915598099 614.416661707126"/><path fill="rgb(27, 160, 170)" stroke="none" paint-order="stroke fill markers" d=" M 492.67488025100505 611.5448089160338 A 29.726666666666688 29.726666666666688 0 1 1 492.674865387673 611.5150822543216"/><path fill="rgb(27, 160, 170)" stroke="none" paint-order="stroke fill markers" d=" M 511.94915033235094 615.5778594819801 A 18.952414693333253 18.952414693333253 0 1 1 511.94914085614437 615.5589070704455"/><path fill="rgb(188, 132, 105)" stroke="none" paint-order="stroke fill markers" d=" M 293.8920991519379 560.7820409217436 A 29.726666666666688 29.726666666666688 0 1 1 293.8920842886058 560.7523142600313"/><path fill="rgb(196, 126, 127)" stroke="none" paint-order="stroke fill markers" d=" M 332.03398950834475 556.0633419631765 A 18.952414693333367 18.952414693333367 0 1 1 332.0339800321382 556.0443895516419"/><path fill="rgb(196, 126, 127)" stroke="none" paint-order="stroke fill markers" d=" M 371.5292036219675 565.553210594018 A 29.726666666666688 29.726666666666688 0 1 1 371.5291887586354 565.5234839323057"/><path fill="rgb(196, 126, 127)" stroke="none" paint-order="stroke fill markers" d=" M 383.56605988102893 546.1083886964676 A 18.952414693333367 18.952414693333367 0 1 1 383.56605040482236 546.089436284933"/><path fill="rgb(11, 161, 164)" stroke="none" paint-order="stroke fill markers" d=" M 364.05143240279523 497.7507564416709 A 29.726666666666688 29.726666666666688 0 1 1 364.05141753946316 497.72102977995866"/><path fill="rgb(195, 122, 164)" stroke="none" paint-order="stroke fill markers" d=" M 404.41674360191604 450.78557609241705 A 29.726666666666688 29.726666666666688 0 1 1 404.41672873858397 450.7558494307048"/><path fill="rgb(11, 161, 164)" stroke="none" paint-order="stroke fill markers" d=" M 382.6894318910757 504.9652198777028 A 18.952414693333253 18.952414693333253 0 1 1 382.6894224148691 504.9462674661682"/><path fill="rgb(32, 159, 172)" stroke="none" paint-order="stroke fill markers" d=" M 447.09339550714043 495.05891889328933 A 29.726666666666688 29.726666666666688 0 1 1 447.09338064380836 495.0291922315771"/><path fill="rgb(195, 122, 164)" stroke="none" paint-order="stroke fill markers" d=" M 423.9461216196418 449.4803727320143 A 18.952414693333253 18.952414693333253 0 1 1 423.94611214343524 449.4614203204797"/><path fill="rgb(32, 159, 172)" stroke="none" paint-order="stroke fill markers" d=" M 466.51937127929926 497.8194966120434 A 18.952414693333367 18.952414693333367 0 1 1 466.5193618030927 497.8005442005088"/><path fill="rgb(189, 131, 109)" stroke="none" paint-order="stroke fill markers" d=" M 463.10763225183706 537.8339269967598 A 18.952414693333367 18.952414693333367 0 1 1 463.1076227756305 537.8149745852252"/><path fill="rgb(32, 159, 172)" stroke="none" paint-order="stroke fill markers" d=" M 418.76076417900293 519.1142731505206 A 18.952414693333367 18.952414693333367 0 1 1 418.76075470279636 519.095320738986"/><path fill="rgb(189, 131, 109)" stroke="none" paint-order="stroke fill markers" d=" M 417.49737962858495 563.1950554899432 A 18.952414693333367 18.952414693333367 0 1 1 417.4973701523784 563.1761030784086"/><path fill="rgb(189, 131, 109)" stroke="none" paint-order="stroke fill markers" d=" M 458.60469691094846 563.3193186855533 A 29.726666666666688 29.726666666666688 0 1 1 458.6046820476164 563.289592023841"/><path fill="rgb(20, 160, 168)" stroke="none" paint-order="stroke fill markers" d=" M 329.1487894312323 609.2258435282047 A 29.726666666666688 29.726666666666688 0 1 1 329.1487745679002 609.1961168664924"/><path fill="rgb(27, 160, 170)" stroke="none" paint-order="stroke fill markers" d=" M 265.69804204027884 609.0664376732495 A 18.952414693333367 18.952414693333367 0 1 1 265.69803256407226 609.0474852617149"/><path fill="rgb(27, 160, 170)" stroke="none" paint-order="stroke fill markers" d=" M 246.36935232805303 605.4374645816048 A 29.726666666666688 29.726666666666688 0 1 1 246.36933746472093 605.4077379198925"/><path fill="rgb(188, 132, 105)" stroke="none" paint-order="stroke fill markers" d=" M 252.84836443945318 562.6951001809134 A 18.952414693333253 18.952414693333253 0 1 1 252.8483549632466 562.6761477693788"/><path fill="rgb(46, 158, 177)" stroke="none" paint-order="stroke fill markers" d=" M 251.90424884638622 523.9777681971582 A 18.952414693333253 18.952414693333253 0 1 1 251.90423937017965 523.9588157856235"/><path fill="rgb(197, 122, 160)" stroke="none" paint-order="stroke fill markers" d=" M 245.2955043395861 446.52597079089725 A 29.726666666666574 29.726666666666574 0 1 1 245.295489476254 446.496244129185"/><path fill="rgb(197, 122, 160)" stroke="none" paint-order="stroke fill markers" d=" M 264.602561783382 442.73111553738926 A 18.952414693333253 18.952414693333253 0 1 1 264.6025523071754 442.71216312585466"/><path fill="rgb(46, 158, 177)" stroke="none" paint-order="stroke fill markers" d=" M 277.00704198823183 497.9764496334184 A 29.726666666666688 29.726666666666688 0 1 1 277.00702712489976 497.94672297170615"/><path fill="rgb(46, 158, 177)" stroke="none" paint-order="stroke fill markers" d=" M 296.5509585451312 497.0437699166158 A 18.952414693333367 18.952414693333367 0 1 1 296.55094906892464 497.0248175050812"/><path fill="rgb(195, 122, 165)" stroke="none" paint-order="stroke fill markers" d=" M 324.6411182091038 449.970887717182 A 29.726666666666688 29.726666666666688 0 1 1 324.64110334577174 449.94116105546976"/><path fill="rgb(195, 122, 165)" stroke="none" paint-order="stroke fill markers" d=" M 344.1929641842958 449.32658227858224 A 18.952414693333253 18.952414693333253 0 1 1 344.19295470808925 449.30762986704764"/><path fill="rgb(11, 161, 164)" stroke="none" paint-order="stroke fill markers" d=" M 332.1466513517475 518.9155079507221 A 18.952414693333367 18.952414693333367 0 1 1 332.1466418755409 518.8965555391875"/><path fill="rgb(188, 132, 105)" stroke="none" paint-order="stroke fill markers" d=" M 296.54902959328984 534.3315389548686 A 18.952414693333367 18.952414693333367 0 1 1 296.5490201170833 534.312586543334"/><path fill="rgb(36, 159, 173)" stroke="none" paint-order="stroke fill markers" d=" M 105.2845619260404 602.4496128381747 A 18.95241469333331 18.95241469333331 0 1 1 105.28455244983384 602.4306604266401"/><path fill="rgb(44, 158, 176)" stroke="none" paint-order="stroke fill markers" d=" M 164.8015721407627 605.203225690545 A 29.726666666666688 29.726666666666688 0 1 1 164.8015572774306 605.1734990288327"/><path fill="rgb(44, 158, 176)" stroke="none" paint-order="stroke fill markers" d=" M 184.36064238444885 605.1787751464555 A 18.95241469333331 18.95241469333331 0 1 1 184.36063290824228 605.1598227349208"/><path fill="rgb(192, 129, 114)" stroke="none" paint-order="stroke fill markers" d=" M 52.611477343853664 533.01562915281 A 18.95241469333331 18.95241469333331 0 1 1 52.61146786764711 532.9966767412753"/><path fill="rgb(193, 129, 117)" stroke="none" paint-order="stroke fill markers" d=" M 86.25809342460161 551.5968358760625 A 18.95241469333331 18.95241469333331 0 1 1 86.25808394839505 551.5778834645279"/><path fill="rgb(36, 159, 173)" stroke="none" paint-order="stroke fill markers" d=" M 85.77449657065449 600.7732460048771 A 29.726666666666688 29.726666666666688 0 1 1 85.7744817073224 600.7435193431648"/><path fill="rgb(13, 161, 165)" stroke="none" paint-order="stroke fill markers" d=" M 25.725813182009006 607.862112298897 A 18.95241469333331 18.95241469333331 0 1 1 25.72580370580245 607.8431598873624"/><path fill="rgb(13, 161, 165)" stroke="none" paint-order="stroke fill markers" d=" M 6.976617055018949 601.0908355909056 A 29.726666666666688 29.726666666666688 0 1 1 6.976602191686855 601.0611089291933"/><path fill="rgb(193, 129, 117)" stroke="none" paint-order="stroke fill markers" d=" M 126.99481368739009 556.1957406915046 A 29.726666666666688 29.726666666666688 0 1 1 126.994798824058 556.1660140297923"/><path fill="rgb(27, 160, 170)" stroke="none" paint-order="stroke fill markers" d=" M 116.76974249733769 490.8663236336314 A 29.726666666666688 29.726666666666688 0 1 1 116.76972763400559 490.83659697191916"/><path fill="rgb(27, 160, 170)" stroke="none" paint-order="stroke fill markers" d=" M 136.09363626702145 494.53272797904197 A 18.95241469333331 18.95241469333331 0 1 1 136.09362679081488 494.51377556750737"/><path fill="rgb(196, 122, 163)" stroke="none" paint-order="stroke fill markers" d=" M 161.07338417520867 444.0985442358078 A 29.726666666666688 29.726666666666688 0 1 1 161.07336931187658 444.0688175740956"/><path fill="rgb(196, 122, 163)" stroke="none" paint-order="stroke fill markers" d=" M 98.36706092281031 442.9865545157924 A 18.95241469333331 18.95241469333331 0 1 1 98.36705144660375 442.9676021042578"/><path fill="rgb(196, 122, 163)" stroke="none" paint-order="stroke fill markers" d=" M 78.86934700991009 444.86208232041196 A 29.72666666666663 29.72666666666663 0 1 1 78.86933214657799 444.8323556586997"/><path fill="rgb(27, 160, 170)" stroke="none" paint-order="stroke fill markers" d=" M 87.68152366104448 514.3827882348913 A 18.95241469333331 18.95241469333331 0 1 1 87.68151418483792 514.3638358233567"/><path fill="rgb(40, 159, 175)" stroke="none" paint-order="stroke fill markers" d=" M 54.497790298952964 491.3396378695711 A 18.95241469333331 18.95241469333331 0 1 1 54.49778082274641 491.3206854580365"/><path fill="rgb(193, 122, 169)" stroke="none" paint-order="stroke fill markers" d=" M 14.33200687908095 445.4082991872629 A 18.95241469333331 18.95241469333331 0 1 1 14.331997402874393 445.3893467757283"/><path fill="rgb(40, 159, 175)" stroke="none" paint-order="stroke fill markers" d=" M 8.381983446323943 515.8207874998118 A 18.95241469333331 18.95241469333331 0 1 1 8.381973970117386 515.8018350882771"/><path fill="rgb(40, 159, 175)" stroke="none" paint-order="stroke fill markers" d=" M 34.94740388001685 490.6334527090778 A 29.72666666666663 29.72666666666663 0 1 1 34.94738901668475 490.60372604736557"/><path fill="rgb(192, 129, 114)" stroke="none" paint-order="stroke fill markers" d=" M 4.653844548370898 553.8830640328017 A 18.95241469333331 18.95241469333331 0 1 1 4.653835072164341 553.864111621267"/><path fill="rgb(192, 129, 114)" stroke="none" paint-order="stroke fill markers" d=" M 45.600989758642925 556.9131881181755 A 29.726666666666688 29.726666666666688 0 1 1 45.60097489531083 556.8834614564632"/><path fill="rgb(190, 130, 111)" stroke="none" paint-order="stroke fill markers" d=" M 130.72739081997702 331.5740799217848 A 29.726666666666688 29.726666666666688 0 1 1 130.72737595664492 331.54435326007257"/><path fill="rgb(62, 162, 123)" stroke="none" paint-order="stroke fill markers" d=" M 132.3107959215751 378.5388873190196 A 18.95241469333331 18.95241469333331 0 1 1 132.31078644536854 378.519934907485"/><path fill="rgb(62, 162, 123)" stroke="none" paint-order="stroke fill markers" d=" M 96.26933060009924 404.66853589363234 A 18.95241469333331 18.95241469333331 0 1 1 96.26932112389268 404.64958348209774"/><path fill="rgb(196, 122, 163)" stroke="none" paint-order="stroke fill markers" d=" M 133.2775781482087 419.68098135951715 A 18.95241469333331 18.95241469333331 0 1 1 133.27756867200213 419.66202894798255"/><path fill="rgb(196, 122, 163)" stroke="none" paint-order="stroke fill markers" d=" M 180.55349057806052 441.9712025350156 A 18.95241469333331 18.95241469333331 0 1 1 180.55348110185395 441.952250123481"/><path fill="rgb(62, 162, 123)" stroke="none" paint-order="stroke fill markers" d=" M 173.39821891127121 377.46351510024726 A 29.726666666666688 29.726666666666688 0 1 1 173.39820404793912 377.43378843853503"/><path fill="rgb(62, 162, 123)" stroke="none" paint-order="stroke fill markers" d=" M 178.73815981698363 402.4565972145223 A 18.95241469333331 18.95241469333331 0 1 1 178.73815034077705 402.4376448029877"/><path fill="rgb(55, 162, 127)" stroke="none" paint-order="stroke fill markers" d=" M 209.58479316851373 377.7006756487731 A 18.95241469333331 18.95241469333331 0 1 1 209.58478369230716 377.6817232372385"/><path fill="rgb(197, 122, 160)" stroke="none" paint-order="stroke fill markers" d=" M 216.10131933466215 423.08791203139367 A 18.95241469333331 18.95241469333331 0 1 1 216.10130985845558 423.0689596198591"/><path fill="rgb(23, 160, 169)" stroke="none" paint-order="stroke fill markers" d=" M 198.08958092255085 491.8236465729879 A 29.726666666666688 29.726666666666688 0 1 1 198.08956605921875 491.7939199112757"/><path fill="rgb(23, 160, 169)" stroke="none" paint-order="stroke fill markers" d=" M 168.02600740926158 514.5906184187588 A 18.95241469333331 18.95241469333331 0 1 1 168.025997933055 514.5716660072242"/><path fill="rgb(23, 160, 169)" stroke="none" paint-order="stroke fill markers" d=" M 217.23373647213117 496.6862742157117 A 18.952414693333253 18.952414693333253 0 1 1 217.2337269959246 496.6673218041771"/><path fill="rgb(193, 129, 117)" stroke="none" paint-order="stroke fill markers" d=" M 216.88687432019873 535.3357526893561 A 18.952414693333367 18.952414693333367 0 1 1 216.88686484399216 535.3168002778215"/><path fill="rgb(193, 129, 117)" stroke="none" paint-order="stroke fill markers" d=" M 208.6147337715525 558.2953529589973 A 29.72666666666663 29.72666666666663 0 1 1 208.6147189082204 558.265626297285"/><path fill="rgb(193, 129, 117)" stroke="none" paint-order="stroke fill markers" d=" M 167.87200488968267 553.7336433064195 A 18.95241469333331 18.95241469333331 0 1 1 167.8719954134761 553.7146908948848"/><path fill="rgb(193, 129, 117)" stroke="none" paint-order="stroke fill markers" d=" M 135.29707172179815 533.2597987490528 A 18.95241469333331 18.95241469333331 0 1 1 135.29706224559158 533.2408463375182"/><path fill="rgb(194, 122, 168)" stroke="none" paint-order="stroke fill markers" d=" M 101.05806808973097 217.66760909541938 A 18.95241469333331 18.95241469333331 0 1 1 101.05805861352441 217.64865668388478"/><path fill="rgb(67, 161, 120)" stroke="none" paint-order="stroke fill markers" d=" M 101.93402307041629 177.59153008012697 A 18.95241469333331 18.95241469333331 0 1 1 101.93401359420973 177.57257766859237"/><path fill="rgb(65, 161, 121)" stroke="none" paint-order="stroke fill markers" d=" M 134.96119445641858 156.26223141011315 A 18.95241469333331 18.95241469333331 0 1 1 134.961184980212 156.24327899857855"/><path fill="rgb(196, 122, 163)" stroke="none" paint-order="stroke fill markers" d=" M 134.32472799108234 196.37462805726034 A 18.95241469333331 18.95241469333331 0 1 1 134.32471851487577 196.35567564572574"/><path fill="rgb(196, 122, 163)" stroke="none" paint-order="stroke fill markers" d=" M 181.93735412130934 217.97636581170855 A 18.95241469333331 18.95241469333331 0 1 1 181.93734464510277 217.95741340017395"/><path fill="rgb(65, 161, 121)" stroke="none" paint-order="stroke fill markers" d=" M 176.06840221509532 156.11475474825818 A 29.726666666666688 29.726666666666688 0 1 1 176.06838735176322 156.08502808654595"/><path fill="rgb(65, 161, 121)" stroke="none" paint-order="stroke fill markers" d=" M 180.59195446604792 181.58844791603053 A 18.95241469333331 18.95241469333331 0 1 1 180.59194498984135 181.56949550449593"/><path fill="rgb(60, 162, 124)" stroke="none" paint-order="stroke fill markers" d=" M 215.76226222220913 153.11640327857026 A 18.95241469333331 18.95241469333331 0 1 1 215.76225274600256 153.09745086703566"/><path fill="rgb(196, 122, 162)" stroke="none" paint-order="stroke fill markers" d=" M 217.96448520448627 191.05977741978472 A 18.952414693333367 18.952414693333367 0 1 1 217.9644757282797 191.04082500825012"/><path fill="rgb(56, 157, 180)" stroke="none" paint-order="stroke fill markers" d=" M 196.90099905003296 264.80164423080646 A 29.726666666666688 29.726666666666688 0 1 1 196.90098418670087 264.7719175690942"/><path fill="rgb(56, 157, 180)" stroke="none" paint-order="stroke fill markers" d=" M 173.79529844405732 291.75393187055465 A 18.95241469333331 18.95241469333331 0 1 1 173.79528896785075 291.73497945902005"/><path fill="rgb(56, 157, 180)" stroke="none" paint-order="stroke fill markers" d=" M 216.29319740720445 261.7114612903015 A 18.95241469333331 18.95241469333331 0 1 1 216.29318793099787 261.6925088787669"/><path fill="rgb(188, 132, 106)" stroke="none" paint-order="stroke fill markers" d=" M 216.59637941789168 302.39532061708127 A 18.952414693333253 18.952414693333253 0 1 1 216.5963699416851 302.37636820554667"/><path fill="rgb(188, 132, 106)" stroke="none" paint-order="stroke fill markers" d=" M 213.55215833095383 328.6564583366225 A 29.72666666666663 29.72666666666663 0 1 1 213.55214346762173 328.6267316749103"/><path fill="rgb(188, 132, 106)" stroke="none" paint-order="stroke fill markers" d=" M 172.48340462406776 330.1486461943065 A 18.95241469333331 18.95241469333331 0 1 1 172.4833951478612 330.1296937827719"/><path fill="rgb(190, 130, 111)" stroke="none" paint-order="stroke fill markers" d=" M 136.4403338077969 306.8121584691727 A 18.95241469333331 18.95241469333331 0 1 1 136.44032433159032 306.7932060576381"/><path fill="rgb(34, 159, 172)" stroke="none" paint-order="stroke fill markers" d=" M 37.28109390260232 264.6406041154461 A 29.726666666666688 29.726666666666688 0 1 1 37.281079039270224 264.61087745373385"/><path fill="rgb(53, 162, 128)" stroke="none" paint-order="stroke fill markers" d=" M 13.774610199175243 151.18369426180777 A 29.72666666666663 29.72666666666663 0 1 1 13.774595335843149 151.15396760009554"/><path fill="rgb(53, 162, 128)" stroke="none" paint-order="stroke fill markers" d=" M 21.57822604040973 174.50355495296606 A 18.95241469333331 18.95241469333331 0 1 1 21.578216564203174 174.48460254143146"/><path fill="rgb(194, 122, 168)" stroke="none" paint-order="stroke fill markers" d=" M 17.426596954980766 217.39386140750753 A 18.95241469333331 18.95241469333331 0 1 1 17.42658747877421 217.37490899597293"/><path fill="rgb(194, 122, 168)" stroke="none" paint-order="stroke fill markers" d=" M 56.48458770083113 190.61913422295459 A 18.95241469333331 18.95241469333331 0 1 1 56.48457822462457 190.60018181142"/><path fill="rgb(67, 161, 120)" stroke="none" paint-order="stroke fill markers" d=" M 56.892805382611755 151.2861157791425 A 18.95241469333331 18.95241469333331 0 1 1 56.8927959064052 151.2671633676079"/><path fill="rgb(67, 161, 120)" stroke="none" paint-order="stroke fill markers" d=" M 97.99589742055662 151.79374753520085 A 29.72666666666663 29.72666666666663 0 1 1 97.99588255722452 151.76402087348862"/><path fill="rgb(194, 122, 168)" stroke="none" paint-order="stroke fill markers" d=" M 81.51678635346946 216.657131040757 A 29.726666666666688 29.726666666666688 0 1 1 81.51677149013736 216.62740437904478"/><path fill="rgb(34, 159, 172)" stroke="none" paint-order="stroke fill markers" d=" M 56.74648545638183 266.95739471296423 A 18.95241469333331 18.95241469333331 0 1 1 56.746475980175276 266.93844230142963"/><path fill="rgb(34, 159, 172)" stroke="none" paint-order="stroke fill markers" d=" M 89.38282477093628 291.98779911770157 A 18.95241469333331 18.95241469333331 0 1 1 89.38281529472972 291.96884670616697"/><path fill="rgb(34, 159, 172)" stroke="none" paint-order="stroke fill markers" d=" M 117.39475502498141 267.71405886368757 A 29.726666666666688 29.726666666666688 0 1 1 117.39474016164931 267.68433220197534"/><path fill="rgb(34, 159, 172)" stroke="none" paint-order="stroke fill markers" d=" M 136.85484990457138 270.09534079104134 A 18.95241469333331 18.95241469333331 0 1 1 136.8548404283648 270.07638837950674"/><path fill="rgb(196, 122, 163)" stroke="none" paint-order="stroke fill markers" d=" M 162.49325331929856 220.54247975621422 A 29.726666666666688 29.726666666666688 0 1 1 162.49323845596646 220.512753094502"/><path fill="rgb(62, 162, 123)" stroke="none" paint-order="stroke fill markers" d=" M 10.272433395134044 377.8897917796925 A 29.726666666666688 29.726666666666688 0 1 1 10.27241853180195 377.86006511798024"/><path fill="rgb(62, 162, 123)" stroke="none" paint-order="stroke fill markers" d=" M 15.578473517902239 402.9035182471725 A 18.95241469333331 18.95241469333331 0 1 1 15.578464041695682 402.8845658356379"/><path fill="rgb(196, 122, 163)" stroke="none" paint-order="stroke fill markers" d=" M 51.28897468677502 420.3037827309038 A 18.95241469333331 18.95241469333331 0 1 1 51.28896521056846 420.2848303193692"/><path fill="rgb(62, 162, 123)" stroke="none" paint-order="stroke fill markers" d=" M 90.80813562694294 379.7497845382269 A 29.72666666666663 29.72666666666663 0 1 1 90.80812076361084 379.72005787651466"/><path fill="rgb(62, 162, 123)" stroke="none" paint-order="stroke fill markers" d=" M 49.726276759274526 380.964447722285 A 18.95241469333331 18.95241469333331 0 1 1 49.72626728306797 380.9454953107504"/><path fill="rgb(193, 128, 118)" stroke="none" paint-order="stroke fill markers" d=" M 47.685889928754136 333.8237693368215 A 29.726666666666688 29.726666666666688 0 1 1 47.68587506542204 333.79404267510927"/><path fill="rgb(190, 130, 111)" stroke="none" paint-order="stroke fill markers" d=" M 89.65931280739534 330.06897277160965 A 18.95241469333331 18.95241469333331 0 1 1 89.65930333118878 330.05002036007505"/><path fill="rgb(193, 128, 118)" stroke="none" paint-order="stroke fill markers" d=" M 56.28244387931909 311.1223262025745 A 18.95241469333331 18.95241469333331 0 1 1 56.28243440311253 311.1033737910399"/><path fill="rgb(193, 128, 118)" stroke="none" paint-order="stroke fill markers" d=" M 7.0108404297694165 328.8597492443869 A 18.95241469333331 18.95241469333331 0 1 1 7.010830953562859 328.8407968328523"/><path fill="rgb(34, 159, 172)" stroke="none" paint-order="stroke fill markers" d=" M 9.323943664258763 288.9510505490311 A 18.95241469333331 18.95241469333331 0 1 1 9.323934188052206 288.9320981374965"/></g></g></g><g/><g/><g/><g clip-path="url(#dRKBWdICzBNC)"><g/></g></g></g></svg>