<svg version="1.1" xmlns="http://www.w3.org/2000/svg" xmlns:xlink="http://www.w3.org/1999/xlink" width="920" height="600" style="width: 920px; height: 600px;"><defs><clipPath id="nMffrawGbUgT"><path fill="none" stroke="none" d=" M 5 5 L 915 5 L 915 595 L 5 595 L 5 5 Z"/></clipPath><clipPath id="VgIOobTAQrrK"><path fill="none" stroke="none" d=" M 5 5 L 915 5 L 915 595 L 5 595 L 5 5 Z"/></clipPath><clipPath id="yVJohSGsxSAv"><path fill="none" stroke="none" d=" M 5 5 L 915 5 L 915 595 L 5 595 L 5 5 Z"/></clipPath><clipPath id="qtNlGkPcBdTP"><path fill="none" stroke="none" d=" M 5 5 L 915 5 L 915 595 L 5 595 L 5 5 Z"/></clipPath></defs><g><g transform="scale(1,1) translate(0.5,0.5)"><rect fill="#FFFFFF" stroke="none" x="0" y="0" width="920" height="600"/><rect fill="#ffffff" stroke="none" x="0" y="0" width="920" height="600"/><rect fill="#FFFFFF" stroke="none" x="5" y="5" width="910" height="590"/><rect fill="#ffffff" stroke="none" x="5" y="5" width="910" height="590"/><g><rect fill="none" stroke="#e5e5e5" x="5" y="5" width="910" height="590" stroke-linejoin="bevel" stroke-miterlimit="10"/></g><g clip-path="url(#nMffrawGbUgT)"><g/></g><g clip-path="url(#VgIOobTAQrrK)"><g/></g><g clip-path="url(#yVJohSGsxSAv)"><g><g><path fill="none" stroke="none"/><path fill="rgb(36, 159, 173)" stroke="none" paint-order="stroke fill markers" d=" M 898.9078819267422 607.3290073558705 A 29.726666666666688 29.726666666666688 0 1 1 898.9078670634101 607.2992806941583"/><path fill="rgb(36, 159, 173)" stroke="none" paint-order="stroke fill markers" d=" M 918.4144012303764 609.0649066041414 A 18.952414693333367 18.952414693333367 0 1 1 918.4143917541699 609.0459541926067"/><path fill="rgb(194, 122, 169)" stroke="none" paint-order="stroke fill markers" d=" M 807.3748645202979 450.6820475255231 A 29.726666666666688 29.726666666666688 0 1 1 807.3748496569658 450.65232086381087"/><path fill="rgb(194, 122, 169)" stroke="none" paint-order="stroke fill markers" d=" M 744.8661373941218 450.05608181917756 A 18.952414693333367 18.952414693333367 0 1 1 744.8661279179153 450.03712940764296"/><path fill="rgb(36, 159, 173)" stroke="none" paint-order="stroke fill markers" d=" M 766.6964890492222 496.752232387566 A 29.72666666666646 29.72666666666646 0 1 1 766.6964741858901 496.72250572585375"/><path fill="rgb(36, 159, 173)" stroke="none" paint-order="stroke fill markers" d=" M 739.1003998438098 521.3003545082217 A 18.952414693333367 18.952414693333367 0 1 1 739.1003903676033 521.2814020966871"/><path fill="rgb(192, 129, 115)" stroke="none" paint-order="stroke fill markers" d=" M 737.4968942989585 557.9765897744336 A 18.952414693333367 18.952414693333367 0 1 1 737.496884822752 557.9576373628989"/><path fill="rgb(192, 129, 115)" stroke="none" paint-order="stroke fill markers" d=" M 778.4099316940062 561.3123260531625 A 29.726666666666688 29.726666666666688 0 1 1 778.4099168306741 561.2825993914502"/><path fill="rgb(192, 129, 115)" stroke="none" paint-order="stroke fill markers" d=" M 785.6755100567063 537.5962996932626 A 18.952414693333367 18.952414693333367 0 1 1 785.6755005804998 537.577347281728"/><path fill="rgb(192, 129, 114)" stroke="none" paint-order="stroke fill markers" d=" M 816.8613776563643 558.3105257083798 A 18.952414693333367 18.952414693333367 0 1 1 816.8613681801578 558.2915732968452"/><path fill="rgb(38, 159, 174)" stroke="none" paint-order="stroke fill markers" d=" M 836.3512645660323 607.517739523798 A 18.952414693333367 18.952414693333367 0 1 1 836.3512550898258 607.4987871122634"/><path fill="rgb(38, 159, 174)" stroke="none" paint-order="stroke fill markers" d=" M 816.8260250856995 606.1246793934434 A 29.72666666666646 29.72666666666646 0 1 1 816.8260102223674 606.0949527317312"/><path fill="rgb(18, 160, 167)" stroke="none" paint-order="stroke fill markers" d=" M 756.9485868744243 610.7200723690077 A 18.95241469333314 18.95241469333314 0 1 1 756.9485773982178 610.701119957473"/><path fill="rgb(18, 160, 167)" stroke="none" paint-order="stroke fill markers" d=" M 738.0469337872071 604.6115594277164 A 29.726666666666688 29.726666666666688 0 1 1 738.046918923875 604.5818327660041"/><path fill="rgb(196, 122, 161)" stroke="none" paint-order="stroke fill markers" d=" M 944.2833715955833 419.6890901252674 A 18.952414693333367 18.952414693333367 0 1 1 944.2833621193768 419.6701377137328"/><path fill="rgb(196, 122, 161)" stroke="none" paint-order="stroke fill markers" d=" M 972.9993996423495 443.47536383970936 A 29.72666666666646 29.72666666666646 0 1 1 972.9993847790174 443.4456371779971"/><path fill="rgb(20, 160, 168)" stroke="none" paint-order="stroke fill markers" d=" M 932.3205618477907 492.66412338616834 A 29.726666666666688 29.726666666666688 0 1 1 932.3205469844586 492.6343967244561"/><path fill="rgb(20, 160, 168)" stroke="none" paint-order="stroke fill markers" d=" M 951.3818900326742 497.9863662011386 A 18.952414693333367 18.952414693333367 0 1 1 951.3818805564676 497.967413789604"/><path fill="rgb(187, 132, 104)" stroke="none" paint-order="stroke fill markers" d=" M 942.4453672695379 531.4210719229138 A 18.952414693333367 18.952414693333367 0 1 1 942.4453577933314 531.4021195113792"/><path fill="rgb(187, 132, 104)" stroke="none" paint-order="stroke fill markers" d=" M 940.2653419535609 558.0956004884631 A 29.72666666666646 29.72666666666646 0 1 1 940.2653270902288 558.0658738267508"/><path fill="rgb(187, 132, 104)" stroke="none" paint-order="stroke fill markers" d=" M 899.2605657303811 560.5223383517914 A 18.952414693333367 18.952414693333367 0 1 1 899.2605562541746 560.5033859402567"/><path fill="rgb(192, 129, 114)" stroke="none" paint-order="stroke fill markers" d=" M 857.824943417123 561.1817904816722 A 29.726666666666688 29.726666666666688 0 1 1 857.8249285537909 561.15206381996"/><path fill="rgb(192, 129, 114)" stroke="none" paint-order="stroke fill markers" d=" M 864.7021787640258 537.1909719073294 A 18.952414693333367 18.952414693333367 0 1 1 864.7021692878193 537.1720194957948"/><path fill="rgb(32, 159, 172)" stroke="none" paint-order="stroke fill markers" d=" M 869.1240362843682 498.6459032244089 A 18.952414693333367 18.952414693333367 0 1 1 869.1240268081617 498.6269508128743"/><path fill="rgb(20, 160, 168)" stroke="none" paint-order="stroke fill markers" d=" M 901.8891195512863 515.1315276436806 A 18.952414693333367 18.952414693333367 0 1 1 901.8891100750798 515.1125752321459"/><path fill="rgb(197, 122, 157)" stroke="none" paint-order="stroke fill markers" d=" M 890.1617537243189 451.3775716623692 A 29.726666666666688 29.726666666666688 0 1 1 890.1617388609868 451.34784500065695"/><path fill="rgb(194, 122, 169)" stroke="none" paint-order="stroke fill markers" d=" M 826.9040183616617 451.99218326050794 A 18.952414693333367 18.952414693333367 0 1 1 826.9040088854551 451.97323084897334"/><path fill="rgb(32, 159, 172)" stroke="none" paint-order="stroke fill markers" d=" M 849.6856010800511 496.01746464754956 A 29.72666666666646 29.72666666666646 0 1 1 849.685586216719 495.9877379858373"/><path fill="rgb(32, 159, 172)" stroke="none" paint-order="stroke fill markers" d=" M 821.464410111033 520.149383898061 A 18.952414693333367 18.952414693333367 0 1 1 821.4644006348265 520.1304314865264"/><path fill="rgb(36, 159, 173)" stroke="none" paint-order="stroke fill markers" d=" M 786.1929979684066 498.6460868293404 A 18.952414693333367 18.952414693333367 0 1 1 786.1929884922001 498.6271344178058"/><path fill="rgb(55, 162, 127)" stroke="none" paint-order="stroke fill markers" d=" M 739.2027895483823 382.43725458746735 A 29.726666666666688 29.726666666666688 0 1 1 739.2027746850501 382.4075279257551"/><path fill="rgb(55, 162, 127)" stroke="none" paint-order="stroke fill markers" d=" M 746.6512036756096 406.02070724302484 A 18.952414693333367 18.952414693333367 0 1 1 746.6511941994031 406.00175483149025"/><path fill="rgb(194, 122, 169)" stroke="none" paint-order="stroke fill markers" d=" M 782.6155716979854 424.50443628245034 A 18.952414693333367 18.952414693333367 0 1 1 782.6155622217789 424.48548387091574"/><path fill="rgb(68, 161, 119)" stroke="none" paint-order="stroke fill markers" d=" M 818.8418965868202 383.6964625780392 A 29.726666666666688 29.726666666666688 0 1 1 818.8418817234881 383.66673591632696"/><path fill="rgb(68, 161, 119)" stroke="none" paint-order="stroke fill markers" d=" M 822.4071232569659 409.6920756303092 A 18.952414693333367 18.952414693333367 0 1 1 822.4071137807593 409.6731232187746"/><path fill="rgb(197, 122, 157)" stroke="none" paint-order="stroke fill markers" d=" M 859.6362589011771 428.9883202931943 A 18.95241469333314 18.95241469333314 0 1 1 859.6362494249706 428.9693678816597"/><path fill="rgb(63, 162, 122)" stroke="none" paint-order="stroke fill markers" d=" M 905.4164356783162 409.2715335483636 A 18.95241469333314 18.95241469333314 0 1 1 905.4164262021097 409.252581136829"/><path fill="rgb(63, 162, 122)" stroke="none" paint-order="stroke fill markers" d=" M 900.2486885670116 384.1742252550765 A 29.72666666666646 29.72666666666646 0 1 1 900.2486737036795 384.1444985933643"/><path fill="rgb(63, 162, 122)" stroke="none" paint-order="stroke fill markers" d=" M 859.1545508241184 385.0524592560997 A 18.952414693333367 18.952414693333367 0 1 1 859.1545413479118 385.0335068445651"/><path fill="rgb(187, 132, 104)" stroke="none" paint-order="stroke fill markers" d=" M 864.0582152356567 335.8197098149715 A 29.726666666666688 29.726666666666688 0 1 1 864.0582003723246 335.78998315325924"/><path fill="rgb(187, 132, 104)" stroke="none" paint-order="stroke fill markers" d=" M 866.1112535102038 309.08720205473134 A 18.952414693333367 18.952414693333367 0 1 1 866.1112440339973 309.06824964319674"/><path fill="rgb(190, 130, 110)" stroke="none" paint-order="stroke fill markers" d=" M 903.8516235448953 334.6626900188759 A 18.952414693333367 18.952414693333367 0 1 1 903.8516140686888 334.6437376073413"/><path fill="rgb(190, 130, 110)" stroke="none" paint-order="stroke fill markers" d=" M 944.9440092450955 335.5965132090829 A 29.72666666666646 29.72666666666646 0 1 1 944.9439943817633 335.56678654737067"/><path fill="rgb(190, 130, 110)" stroke="none" paint-order="stroke fill markers" d=" M 950.1603833744266 310.52847739795675 A 18.95241469333314 18.95241469333314 0 1 1 950.1603738982201 310.50952498642215"/><path fill="rgb(62, 162, 123)" stroke="none" paint-order="stroke fill markers" d=" M 943.5071677396138 381.4104574920547 A 18.952414693333367 18.952414693333367 0 1 1 943.5071582634073 381.3915050805201"/><path fill="rgb(197, 122, 157)" stroke="none" paint-order="stroke fill markers" d=" M 909.200514525249 445.9370388763457 A 18.95241469333314 18.95241469333314 0 1 1 909.2005050490425 445.9180864648111"/><path fill="rgb(68, 161, 119)" stroke="none" paint-order="stroke fill markers" d=" M 779.9022866184928 158.42015803603533 A 18.952414693333367 18.952414693333367 0 1 1 779.9022771422863 158.40120562450073"/><path fill="rgb(63, 162, 122)" stroke="none" paint-order="stroke fill markers" d=" M 741.5768025345253 157.25852732560736 A 29.726666666666688 29.726666666666688 0 1 1 741.5767876711932 157.22880066389513"/><path fill="rgb(63, 162, 122)" stroke="none" paint-order="stroke fill markers" d=" M 746.5152670099194 182.49222638683761 A 18.95241469333314 18.95241469333314 0 1 1 746.5152575337129 182.47327397530302"/><path fill="rgb(196, 122, 161)" stroke="none" paint-order="stroke fill markers" d=" M 779.7189074781963 200.9297074868756 A 18.952414693333367 18.952414693333367 0 1 1 779.7188980019898 200.910755075341"/><path fill="rgb(195, 122, 166)" stroke="none" paint-order="stroke fill markers" d=" M 744.2676468827331 224.66934115310175 A 18.952414693333367 18.952414693333367 0 1 1 744.2676374065265 224.65038874156716"/><path fill="rgb(32, 159, 172)" stroke="none" paint-order="stroke fill markers" d=" M 742.3085663817396 293.2585124133931 A 18.952414693333367 18.952414693333367 0 1 1 742.3085569055331 293.2395600018585"/><path fill="rgb(32, 159, 172)" stroke="none" paint-order="stroke fill markers" d=" M 770.7498821287998 269.27854259468154 A 29.726666666666688 29.726666666666688 0 1 1 770.7498672654676 269.2488159329693"/><path fill="rgb(32, 159, 172)" stroke="none" paint-order="stroke fill markers" d=" M 790.1630705835657 272.1683516577274 A 18.952414693333367 18.952414693333367 0 1 1 790.1630611073592 272.1493992461928"/><path fill="rgb(196, 122, 161)" stroke="none" paint-order="stroke fill markers" d=" M 808.4487480959049 224.70612215933454 A 29.72666666666646 29.72666666666646 0 1 1 808.4487332325727 224.6763954976223"/><path fill="rgb(38, 159, 174)" stroke="none" paint-order="stroke fill markers" d=" M 849.4005533688 270.46137587643545 A 29.72666666666646 29.72666666666646 0 1 1 849.4005385054679 270.4316492147232"/><path fill="rgb(38, 159, 174)" stroke="none" paint-order="stroke fill markers" d=" M 822.1413776275001 295.22472759623236 A 18.95241469333314 18.95241469333314 0 1 1 822.1413681512936 295.20577518469776"/><path fill="rgb(187, 132, 104)" stroke="none" paint-order="stroke fill markers" d=" M 823.0653026065452 338.3823900025506 A 18.95241469333314 18.95241469333314 0 1 1 823.0652931303387 338.363437591016"/><path fill="rgb(191, 130, 113)" stroke="none" paint-order="stroke fill markers" d=" M 787.9618577207491 312.6581270109596 A 18.952414693333367 18.952414693333367 0 1 1 787.9618482445426 312.639174599425"/><path fill="rgb(191, 130, 113)" stroke="none" paint-order="stroke fill markers" d=" M 740.5290184946489 334.6307740999702 A 18.952414693333367 18.952414693333367 0 1 1 740.5290090184424 334.6118216884356"/><path fill="rgb(191, 130, 113)" stroke="none" paint-order="stroke fill markers" d=" M 781.5418268081503 336.96095917578276 A 29.726666666666688 29.726666666666688 0 1 1 781.5418119448182 336.93123251407053"/><path fill="rgb(68, 161, 119)" stroke="none" paint-order="stroke fill markers" d=" M 777.7490876902602 382.77584615673334 A 18.952414693333367 18.952414693333367 0 1 1 777.7490782140537 382.75689374519874"/><path fill="rgb(60, 156, 181)" stroke="none" paint-order="stroke fill markers" d=" M 963.2367179028274 166.10583351052298 A 29.726666666666688 29.726666666666688 0 1 1 963.2367030394953 166.07610684881075"/><path fill="rgb(60, 156, 181)" stroke="none" paint-order="stroke fill markers" d=" M 941.3110090347313 193.54000736343676 A 18.95241469333314 18.95241469333314 0 1 1 941.3109995585248 193.52105495190216"/><path fill="rgb(233, 190, 163)" stroke="none" paint-order="stroke fill markers" d=" M 951.4205475237618 231.5848045811004 A 18.95241469333314 18.95241469333314 0 1 1 951.4205380475553 231.5658521695658"/><path fill="rgb(34, 159, 172)" stroke="none" paint-order="stroke fill markers" d=" M 951.0741570195337 272.7755006217983 A 18.952414693333367 18.952414693333367 0 1 1 951.0741475433272 272.7565482102637"/><path fill="rgb(34, 159, 172)" stroke="none" paint-order="stroke fill markers" d=" M 931.6093884067839 270.4510108358135 A 29.72666666666646 29.72666666666646 0 1 1 931.6093735434517 270.4212841741013"/><path fill="rgb(243, 181, 213)" stroke="none" paint-order="stroke fill markers" d=" M 911.2206813751357 224.2843417434973 A 18.952414693333367 18.952414693333367 0 1 1 911.2206718989291 224.2653893319627"/><path fill="rgb(243, 181, 213)" stroke="none" paint-order="stroke fill markers" d=" M 891.7845215746115 226.9374240718464 A 29.726666666666688 29.726666666666688 0 1 1 891.7845067112794 226.90769741013418"/><path fill="rgb(34, 159, 172)" stroke="none" paint-order="stroke fill markers" d=" M 903.6456930891738 294.7570824831231 A 18.95241469333314 18.95241469333314 0 1 1 903.6456836129673 294.7381300715885"/><path fill="rgb(38, 159, 174)" stroke="none" paint-order="stroke fill markers" d=" M 868.9202649776873 271.9638565683784 A 18.952414693333367 18.952414693333367 0 1 1 868.9202555014808 271.9449041568438"/><path fill="rgb(243, 181, 213)" stroke="none" paint-order="stroke fill markers" d=" M 863.5425223516331 202.8197447666264 A 18.952414693333367 18.952414693333367 0 1 1 863.5425128754266 202.8007923550918"/><path fill="rgb(62, 162, 123)" stroke="none" paint-order="stroke fill markers" d=" M 905.5885502280173 183.41207002288616 A 18.952414693333367 18.952414693333367 0 1 1 905.5885407518108 183.39311761135156"/><path fill="rgb(62, 162, 123)" stroke="none" paint-order="stroke fill markers" d=" M 899.8989783394975 158.63544297174872 A 29.726666666666688 29.726666666666688 0 1 1 899.8989634761654 158.60571631003648"/><path fill="rgb(62, 162, 123)" stroke="none" paint-order="stroke fill markers" d=" M 858.829491472635 160.11351586736464 A 18.952414693333367 18.952414693333367 0 1 1 858.8294819964285 160.09456345583004"/><path fill="rgb(68, 161, 119)" stroke="none" paint-order="stroke fill markers" d=" M 824.666195711151 185.16954003840817 A 18.95241469333314 18.95241469333314 0 1 1 824.6661862349445 185.15058762687357"/><path fill="rgb(196, 122, 161)" stroke="none" paint-order="stroke fill markers" d=" M 827.8249359076988 221.4715311936336 A 18.95241469333314 18.95241469333314 0 1 1 827.8249264314923 221.452578782099"/><path fill="rgb(68, 161, 119)" stroke="none" paint-order="stroke fill markers" d=" M 820.9985071929277 159.2276265639232 A 29.72666666666646 29.72666666666646 0 1 1 820.9984923295956 159.19789990221096"/><path fill="rgb(23, 160, 169)" stroke="none" paint-order="stroke fill markers" d=" M 739.6778947752862 68.43265113775317 A 18.952414693333367 18.952414693333367 0 1 1 739.6778852990797 68.41369872621856"/><path fill="rgb(23, 160, 169)" stroke="none" paint-order="stroke fill markers" d=" M 769.7393430287998 45.6639733071064 A 29.72666666666646 29.72666666666646 0 1 1 769.7393281654677 45.634246645394164"/><path fill="rgb(192, 129, 115)" stroke="none" paint-order="stroke fill markers" d=" M 737.4819866758153 109.970333838682 A 18.952414693333367 18.952414693333367 0 1 1 737.4819771996088 109.95138142714738"/><path fill="rgb(192, 129, 115)" stroke="none" paint-order="stroke fill markers" d=" M 778.3957168264278 113.3001620854485 A 29.726666666666688 29.726666666666688 0 1 1 778.3957019630957 113.27043542373626"/><path fill="rgb(192, 129, 115)" stroke="none" paint-order="stroke fill markers" d=" M 785.6563804417151 89.58059832178037 A 18.952414693333367 18.952414693333367 0 1 1 785.6563709655086 89.56164591024576"/><path fill="rgb(190, 130, 110)" stroke="none" paint-order="stroke fill markers" d=" M 819.8885859446389 111.60227042647773 A 18.95241469333314 18.95241469333314 0 1 1 819.8885764684323 111.58331801494312"/><path fill="rgb(190, 130, 110)" stroke="none" paint-order="stroke fill markers" d=" M 860.9908824600307 112.15305766869062 A 29.72666666666646 29.72666666666646 0 1 1 860.9908675966985 112.12333100697838"/><path fill="rgb(194, 127, 121)" stroke="none" paint-order="stroke fill markers" d=" M 898.8464243933852 104.97809085820268 A 18.952414693333367 18.952414693333367 0 1 1 898.8464149171787 104.95913844666806"/><path fill="rgb(190, 130, 110)" stroke="none" paint-order="stroke fill markers" d=" M 865.8711224972965 86.88515671470714 A 18.952414693333367 18.952414693333367 0 1 1 865.87111302109 86.86620430317252"/><path fill="rgb(36, 159, 173)" stroke="none" paint-order="stroke fill markers" d=" M 870.4163346837161 48.531701029250826 A 18.952414693333367 18.952414693333367 0 1 1 870.4163252075095 48.51274861771622"/><path fill="rgb(134, 211, 219)" stroke="none" paint-order="stroke fill markers" d=" M 907.0866275462326 66.52072626341783 A 18.95241469333314 18.95241469333314 0 1 1 907.0866180700261 66.50177385188321"/><path fill="rgb(134, 211, 219)" stroke="none" paint-order="stroke fill markers" d=" M 937.2191510981017 43.80917036488415 A 29.726666666666688 29.726666666666688 0 1 1 937.2191362347696 43.779443703171914"/><path fill="rgb(134, 211, 219)" stroke="none" paint-order="stroke fill markers" d=" M 956.3484339312156 48.757579148370496 A 18.952414693333367 18.952414693333367 0 1 1 956.3484244550091 48.73862673683589"/><path fill="rgb(194, 127, 121)" stroke="none" paint-order="stroke fill markers" d=" M 948.9833474210179 89.70531096993886 A 18.952414693333367 18.952414693333367 0 1 1 948.9833379448114 89.68635855840425"/><path fill="rgb(194, 127, 121)" stroke="none" paint-order="stroke fill markers" d=" M 939.2225540118793 111.41736626115289 A 29.72666666666646 29.72666666666646 0 1 1 939.2225391485472 111.38763959944065"/><path fill="rgb(196, 122, 163)" stroke="none" paint-order="stroke fill markers" d=" M 783.6748461396687 -23.80444122140807 A 18.952414693333367 18.952414693333367 0 1 1 783.6748366634622 -23.82339363294268"/><path fill="rgb(196, 122, 163)" stroke="none" paint-order="stroke fill markers" d=" M 830.9887290911433 -1.5905463762443333 A 18.952414693333367 18.952414693333367 0 1 1 830.9887196149368 -1.609498787778942"/><path fill="rgb(36, 159, 173)" stroke="none" paint-order="stroke fill markers" d=" M 850.9299655633706 46.49035392965936 A 29.72666666666646 29.72666666666646 0 1 1 850.9299507000385 46.460627267947125"/><path fill="rgb(36, 159, 173)" stroke="none" paint-order="stroke fill markers" d=" M 823.2076048638637 70.95618886890963 A 18.952414693333367 18.952414693333367 0 1 1 823.2075953876572 70.93723645737502"/><path fill="rgb(23, 160, 169)" stroke="none" paint-order="stroke fill markers" d=" M 788.8839550571086 50.523958135706835 A 18.95241469333314 18.95241469333314 0 1 1 788.883945580902 50.50500572417223"/><path fill="rgb(196, 122, 163)" stroke="none" paint-order="stroke fill markers" d=" M 811.5122933811149 0.5856185104331644 A 29.72666666666646 29.72666666666646 0 1 1 811.5122785177828 0.5558918487209249"/><path fill="rgb(195, 122, 165)" stroke="none" paint-order="stroke fill markers" d=" M 749.7613476685717 -0.31824709112174787 A 18.95241469333314 18.95241469333314 0 1 1 749.7613381923652 -0.33719950265635634"/><path fill="rgb(196, 122, 163)" stroke="none" paint-order="stroke fill markers" d=" M 912.4820782104321 -2.8904308008435464 A 18.952414693333367 18.952414693333367 0 1 1 912.4820687342255 -2.909383212378155"/><path fill="rgb(196, 122, 163)" stroke="none" paint-order="stroke fill markers" d=" M 893.0036013356821 -0.7412504906425283 A 29.726666666666688 29.726666666666688 0 1 1 893.00358647235 -0.770977152354768"/><path fill="rgb(190, 130, 110)" stroke="none" paint-order="stroke fill markers" d=" M 46.302806655312395 112.59323394369812 A 29.72666666666663 29.72666666666663 0 1 1 46.3027917919803 112.56350728198588"/><path fill="rgb(190, 130, 110)" stroke="none" paint-order="stroke fill markers" d=" M 51.535078811275355 87.53479750580516 A 18.95241469333331 18.95241469333331 0 1 1 51.5350693350688 87.51584509427055"/><path fill="rgb(190, 130, 110)" stroke="none" paint-order="stroke fill markers" d=" M 5.211020483596144 111.6412213275961 A 18.95241469333331 18.95241469333331 0 1 1 5.211011007389587 111.62226891606149"/><path fill="rgb(46, 158, 177)" stroke="none" paint-order="stroke fill markers" d=" M 10.439636267325568 71.84528191229231 A 18.95241469333331 18.95241469333331 0 1 1 10.43962679111901 71.8263295007577"/><path fill="rgb(46, 158, 177)" stroke="none" paint-order="stroke fill markers" d=" M 35.91913930205425 46.043655951371534 A 29.726666666666688 29.726666666666688 0 1 1 35.91912443872215 46.013929289659295"/><path fill="rgb(194, 122, 168)" stroke="none" paint-order="stroke fill markers" d=" M 14.85229076276272 -2.716685393129751 A 18.95241469333331 18.95241469333331 0 1 1 14.852281286556163 -2.7356378046643597"/><path fill="rgb(196, 122, 162)" stroke="none" paint-order="stroke fill markers" d=" M 79.37369783511275 -4.654537094865077 A 29.726666666666688 29.726666666666688 0 1 1 79.37368297178065 -4.684263756577317"/><path fill="rgb(18, 160, 167)" stroke="none" paint-order="stroke fill markers" d=" M 199.07072269305883 40.62342027154784 A 29.726666666666688 29.726666666666688 0 1 1 199.07070782972673 40.593693609835604"/><path fill="rgb(18, 160, 167)" stroke="none" paint-order="stroke fill markers" d=" M 168.33253936977093 62.83353966892673 A 18.95241469333331 18.95241469333331 0 1 1 168.33252989356436 62.81458725739213"/><path fill="rgb(18, 160, 167)" stroke="none" paint-order="stroke fill markers" d=" M 218.05631130678768 46.33265473695462 A 18.952414693333253 18.952414693333253 0 1 1 218.0563018305811 46.31370232542002"/><path fill="rgb(193, 129, 117)" stroke="none" paint-order="stroke fill markers" d=" M 214.0650271635928 85.3966872984688 A 18.952414693333253 18.952414693333253 0 1 1 214.06501768738622 85.37773488693419"/><path fill="rgb(193, 129, 117)" stroke="none" paint-order="stroke fill markers" d=" M 205.80906404110897 108.36897346391436 A 29.726666666666688 29.726666666666688 0 1 1 205.80904917777687 108.33924680220211"/><path fill="rgb(193, 129, 117)" stroke="none" paint-order="stroke fill markers" d=" M 165.06312708526485 103.82723188440639 A 18.95241469333331 18.95241469333331 0 1 1 165.06311760905828 103.80827947287177"/><path fill="rgb(190, 130, 111)" stroke="none" paint-order="stroke fill markers" d=" M 131.3165342780705 85.55465323758426 A 18.95241469333331 18.95241469333331 0 1 1 131.31652480186392 85.53570082604965"/><path fill="rgb(190, 130, 111)" stroke="none" paint-order="stroke fill markers" d=" M 125.68963666588911 110.37056121345529 A 29.726666666666688 29.726666666666688 0 1 1 125.68962180255701 110.34083455174304"/><path fill="rgb(46, 158, 177)" stroke="none" paint-order="stroke fill markers" d=" M 115.41222349372049 44.06180762256986 A 29.726666666666688 29.726666666666688 0 1 1 115.41220863038839 44.03208096085762"/><path fill="rgb(46, 158, 177)" stroke="none" paint-order="stroke fill markers" d=" M 134.96329564058374 43.38392848935655 A 18.95241469333331 18.95241469333331 0 1 1 134.96328616437717 43.36497607782194"/><path fill="rgb(46, 158, 177)" stroke="none" paint-order="stroke fill markers" d=" M 55.4735871831723 45.5280981928546 A 18.95241469333331 18.95241469333331 0 1 1 55.47357770696574 45.509145781319994"/><path fill="rgb(46, 158, 177)" stroke="none" paint-order="stroke fill markers" d=" M 90.07895398506912 69.94175129957262 A 18.95241469333331 18.95241469333331 0 1 1 90.07894450886256 69.922798888038"/><path fill="rgb(190, 130, 111)" stroke="none" paint-order="stroke fill markers" d=" M 84.61650648296995 108.96491749933887 A 18.95241469333331 18.95241469333331 0 1 1 84.6164970067634 108.94596508780425"/><path fill="rgb(196, 122, 162)" stroke="none" paint-order="stroke fill markers" d=" M 98.7950971554148 -7.462039911602346 A 18.95241469333331 18.95241469333331 0 1 1 98.79508767920824 -7.480992323136955"/><path fill="rgb(197, 122, 159)" stroke="none" paint-order="stroke fill markers" d=" M 162.8014628778381 -5.605258322422401 A 29.726666666666688 29.726666666666688 0 1 1 162.801448014506 -5.634984984134641"/><path fill="rgb(197, 122, 159)" stroke="none" paint-order="stroke fill markers" d=" M 182.05706593920655 -9.767747167513903 A 18.95241469333331 18.95241469333331 0 1 1 182.05705646299998 -9.786699579048511"/><path fill="rgb(195, 122, 165)" stroke="none" paint-order="stroke fill markers" d=" M 588.834984099301 -6.357680165859847 A 18.952414693333367 18.952414693333367 0 1 1 588.8349746230945 -6.376632577394456"/><path fill="rgb(195, 122, 165)" stroke="none" paint-order="stroke fill markers" d=" M 569.2864549602359 -5.579622598429523 A 29.726666666666688 29.726666666666688 0 1 1 569.2864400969038 -5.609349260141763"/><path fill="rgb(196, 122, 162)" stroke="none" paint-order="stroke fill markers" d=" M 506.0911376427077 -4.861292488769436 A 18.952414693333253 18.952414693333253 0 1 1 506.0911281665011 -4.880244900304045"/><path fill="rgb(196, 122, 162)" stroke="none" paint-order="stroke fill markers" d=" M 486.66026662896326 -2.151859856716328 A 29.726666666666688 29.726666666666688 0 1 1 486.6602517656312 -2.181586518428568"/><path fill="rgb(42, 158, 175)" stroke="none" paint-order="stroke fill markers" d=" M 689.8029588654001 46.76822195967077 A 29.726666666666688 29.726666666666688 0 1 1 689.802944002068 46.73849529795853"/><path fill="rgb(42, 158, 175)" stroke="none" paint-order="stroke fill markers" d=" M 709.3618603606826 46.869271428526304 A 18.95241469333314 18.95241469333314 0 1 1 709.3618508844761 46.8503190169917"/><path fill="rgb(195, 122, 165)" stroke="none" paint-order="stroke fill markers" d=" M 730.2088347464246 0.2955479231694653 A 29.726666666666688 29.726666666666688 0 1 1 730.2088198830925 0.2658212614572256"/><path fill="rgb(36, 159, 173)" stroke="none" paint-order="stroke fill markers" d=" M 628.8023789344254 45.48341461037444 A 18.95241469333314 18.95241469333314 0 1 1 628.8023694582189 45.46446219883983"/><path fill="rgb(36, 159, 173)" stroke="none" paint-order="stroke fill markers" d=" M 609.3110625055244 43.51261928730378 A 29.726666666666688 29.726666666666688 0 1 1 609.3110476421923 43.48289262559154"/><path fill="rgb(196, 122, 163)" stroke="none" paint-order="stroke fill markers" d=" M 650.8296213598899 -1.7442668809570705 A 29.726666666666688 29.726666666666688 0 1 1 650.8296064965577 -1.7739935426693103"/><path fill="rgb(196, 122, 163)" stroke="none" paint-order="stroke fill markers" d=" M 670.3090521536478 -3.8806707994000362 A 18.952414693333367 18.952414693333367 0 1 1 670.3090426774413 -3.899623210934645"/><path fill="rgb(189, 131, 107)" stroke="none" paint-order="stroke fill markers" d=" M 463.21528007573824 85.81343295368572 A 18.952414693333253 18.952414693333253 0 1 1 463.21527059953166 85.7944805421511"/><path fill="rgb(189, 131, 107)" stroke="none" paint-order="stroke fill markers" d=" M 459.30257445774583 111.62491463918855 A 29.726666666666688 29.726666666666688 0 1 1 459.30255959441376 111.5951879774763"/><path fill="rgb(190, 130, 111)" stroke="none" paint-order="stroke fill markers" d=" M 538.2163588637898 112.05948171858176 A 29.726666666666745 29.726666666666745 0 1 1 538.2163440004576 112.02975505686952"/><path fill="rgb(190, 130, 111)" stroke="none" paint-order="stroke fill markers" d=" M 497.14015340129805 110.71799859426892 A 18.952414693333253 18.952414693333253 0 1 1 497.1401439250915 110.6990461827343"/><path fill="rgb(42, 158, 175)" stroke="none" paint-order="stroke fill markers" d=" M 498.6680129314853 71.95043748102785 A 18.952414693333367 18.952414693333367 0 1 1 498.6680034552787 71.93148506949323"/><path fill="rgb(42, 158, 175)" stroke="none" paint-order="stroke fill markers" d=" M 525.0517937194952 46.65623934681503 A 29.72666666666663 29.72666666666663 0 1 1 525.0517788561631 46.62651268510279"/><path fill="rgb(42, 158, 175)" stroke="none" paint-order="stroke fill markers" d=" M 544.6065212504973 47.156008947914074 A 18.952414693333367 18.952414693333367 0 1 1 544.6065117742908 47.13705653637947"/><path fill="rgb(36, 159, 173)" stroke="none" paint-order="stroke fill markers" d=" M 581.6490551321822 68.01789833041005 A 18.95241469333314 18.95241469333314 0 1 1 581.6490456559757 67.99894591887544"/><path fill="rgb(191, 130, 112)" stroke="none" paint-order="stroke fill markers" d=" M 578.3945165876298 107.01249136543879 A 18.95241469333314 18.95241469333314 0 1 1 578.3945071114233 106.99353895390418"/><path fill="rgb(190, 130, 111)" stroke="none" paint-order="stroke fill markers" d=" M 543.7876600272591 87.20890312525967 A 18.952414693333367 18.952414693333367 0 1 1 543.7876505510526 87.18995071372505"/><path fill="rgb(191, 130, 112)" stroke="none" paint-order="stroke fill markers" d=" M 619.4533640298107 108.6841090790449 A 29.726666666666688 29.726666666666688 0 1 1 619.4533491664786 108.65438241733266"/><path fill="rgb(191, 130, 112)" stroke="none" paint-order="stroke fill markers" d=" M 625.3099673646036 84.01321744186885 A 18.952414693333367 18.952414693333367 0 1 1 625.3099578883971 83.99426503033423"/><path fill="rgb(190, 130, 110)" stroke="none" paint-order="stroke fill markers" d=" M 657.9541099092437 112.5758290341031 A 18.952414693333367 18.952414693333367 0 1 1 657.9541004330372 112.55687662256848"/><path fill="rgb(190, 130, 110)" stroke="none" paint-order="stroke fill markers" d=" M 699.05356124888 113.25897324201958 A 29.726666666666688 29.726666666666688 0 1 1 699.0535463855479 113.22924658030733"/><path fill="rgb(190, 130, 110)" stroke="none" paint-order="stroke fill markers" d=" M 704.0502412923042 88.059646957886 A 18.95241469333314 18.95241469333314 0 1 1 704.0502318160977 88.04069454635139"/><path fill="rgb(42, 158, 175)" stroke="none" paint-order="stroke fill markers" d=" M 663.7721482475388 72.265296681383 A 18.952414693333367 18.952414693333367 0 1 1 663.7721387713323 72.2463442698484"/><path fill="rgb(198, 122, 151)" stroke="none" paint-order="stroke fill markers" d=" M 425.27766247792505 -9.029713799131741 A 18.952414693333367 18.952414693333367 0 1 1 425.2776530017185 -9.048666210666351"/><path fill="rgb(38, 159, 174)" stroke="none" paint-order="stroke fill markers" d=" M 463.37087631260243 46.26999784602697 A 18.952414693333367 18.952414693333367 0 1 1 463.37086683639586 46.25104543449236"/><path fill="rgb(38, 159, 174)" stroke="none" paint-order="stroke fill markers" d=" M 443.8347004450397 45.12380185017844 A 29.726666666666688 29.726666666666688 0 1 1 443.8346855817076 45.0940751884662"/><path fill="rgb(38, 159, 174)" stroke="none" paint-order="stroke fill markers" d=" M 416.8845603479372 70.07916268325005 A 18.952414693333253 18.952414693333253 0 1 1 416.88455087173065 70.06021027171543"/><path fill="rgb(198, 122, 151)" stroke="none" paint-order="stroke fill markers" d=" M 407.1217760769211 -0.16112113717758803 A 29.726666666666688 29.726666666666688 0 1 1 407.121761213589 -0.19084779888982772"/><path fill="rgb(42, 158, 175)" stroke="none" paint-order="stroke fill markers" d=" M 360.0487947088281 49.51648230718661 A 29.726666666666688 29.726666666666688 0 1 1 360.04877984549603 49.48675564547437"/><path fill="rgb(42, 158, 175)" stroke="none" paint-order="stroke fill markers" d=" M 379.6054362190726 49.89061403166693 A 18.952414693333367 18.952414693333367 0 1 1 379.60542674286603 49.87166162013232"/><path fill="rgb(189, 131, 108)" stroke="none" paint-order="stroke fill markers" d=" M 377.1855711220383 87.05551950952872 A 18.952414693333253 18.952414693333253 0 1 1 377.18556164583174 87.03656709799411"/><path fill="rgb(189, 131, 108)" stroke="none" paint-order="stroke fill markers" d=" M 372.91369856919727 112.67059326016408 A 29.726666666666688 29.726666666666688 0 1 1 372.9136837058652 112.64086659845184"/><path fill="rgb(189, 131, 107)" stroke="none" paint-order="stroke fill markers" d=" M 418.1999929145025 112.16080783315101 A 18.952414693333253 18.952414693333253 0 1 1 418.19998343829593 112.1418554216164"/><path fill="rgb(196, 122, 162)" stroke="none" paint-order="stroke fill markers" d=" M 260.8249120178604 -6.752947893804844 A 18.952414693333367 18.952414693333367 0 1 1 260.82490254165384 -6.771900305339453"/><path fill="rgb(194, 122, 167)" stroke="none" paint-order="stroke fill markers" d=" M 296.7629211689104 -23.70060319844265 A 18.952414693333367 18.952414693333367 0 1 1 296.7629116927038 -23.71955560997726"/><path fill="rgb(198, 122, 151)" stroke="none" paint-order="stroke fill markers" d=" M 373.9850672946299 -20.09275633413756 A 18.952414693333367 18.952414693333367 0 1 1 373.98505781842334 -20.11170874567217"/><path fill="rgb(51, 162, 129)" stroke="none" paint-order="stroke fill markers" d=" M 293.6356691070209 162.7841070587233 A 18.952414693333253 18.952414693333253 0 1 1 293.6356596308143 162.7651546471887"/><path fill="rgb(55, 162, 127)" stroke="none" paint-order="stroke fill markers" d=" M 256.7242405409673 180.00408683393937 A 18.952414693333367 18.952414693333367 0 1 1 256.7242310647607 179.98513442240477"/><path fill="rgb(194, 122, 167)" stroke="none" paint-order="stroke fill markers" d=" M 256.3905215648394 220.899312513018 A 18.952414693333253 18.952414693333253 0 1 1 256.3905120886328 220.8803601014834"/><path fill="rgb(194, 122, 167)" stroke="none" paint-order="stroke fill markers" d=" M 236.83150583604805 220.83783785080414 A 29.726666666666688 29.726666666666688 0 1 1 236.83149097271595 220.8081111890919"/><path fill="rgb(55, 162, 127)" stroke="none" paint-order="stroke fill markers" d=" M 249.26045820605367 156.43187290116737 A 29.726666666666574 29.726666666666574 0 1 1 249.26044334272157 156.40214623945513"/><path fill="rgb(193, 128, 119)" stroke="none" paint-order="stroke fill markers" d=" M 250.5996466785138 106.19673346009608 A 18.952414693333367 18.952414693333367 0 1 1 250.59963720230724 106.17778104856147"/><path fill="rgb(193, 128, 119)" stroke="none" paint-order="stroke fill markers" d=" M 291.22192175784556 111.45257345285233 A 29.726666666666688 29.726666666666688 0 1 1 291.2219068945135 111.42284679114009"/><path fill="rgb(189, 131, 108)" stroke="none" paint-order="stroke fill markers" d=" M 331.8064325235967 112.80578000679645 A 18.952414693333367 18.952414693333367 0 1 1 331.8064230473901 112.78682759526184"/><path fill="rgb(42, 158, 175)" stroke="none" paint-order="stroke fill markers" d=" M 333.7759368478448 74.87511210383457 A 18.952414693333367 18.952414693333367 0 1 1 333.7759273716382 74.85615969229995"/><path fill="rgb(193, 128, 119)" stroke="none" paint-order="stroke fill markers" d=" M 300.0519510849916 88.94148860401936 A 18.952414693333367 18.952414693333367 0 1 1 300.051941608785 88.92253619248474"/><path fill="rgb(16, 160, 166)" stroke="none" paint-order="stroke fill markers" d=" M 299.9378628921349 52.876641902142296 A 18.952414693333367 18.952414693333367 0 1 1 299.9378534159283 52.85768949060769"/><path fill="rgb(194, 122, 167)" stroke="none" paint-order="stroke fill markers" d=" M 342.009067441578 2.2700615931815946 A 18.952414693333367 18.952414693333367 0 1 1 342.0090579653714 2.251109181646986"/><path fill="rgb(194, 122, 167)" stroke="none" paint-order="stroke fill markers" d=" M 322.45137870444177 1.9873357718259967 A 29.726666666666688 29.726666666666688 0 1 1 322.4513638411097 1.957609110113757"/><path fill="rgb(16, 160, 166)" stroke="none" paint-order="stroke fill markers" d=" M 281.0924086686387 46.515390010495366 A 29.726666666666688 29.726666666666688 0 1 1 281.09239380530664 46.48566334878313"/><path fill="rgb(16, 160, 166)" stroke="none" paint-order="stroke fill markers" d=" M 249.8436771140196 68.28147387044339 A 18.952414693333253 18.952414693333253 0 1 1 249.84366763781304 68.26252145890878"/><path fill="rgb(196, 122, 162)" stroke="none" paint-order="stroke fill markers" d=" M 241.38140658591925 -4.180213988915625 A 29.726666666666688 29.726666666666688 0 1 1 241.38139172258715 -4.209940650627865"/><path fill="rgb(70, 161, 118)" stroke="none" paint-order="stroke fill markers" d=" M 291.6697059078055 379.5139882431191 A 18.952414693333367 18.952414693333367 0 1 1 291.66969643159894 379.4950358315845"/><path fill="rgb(55, 162, 127)" stroke="none" paint-order="stroke fill markers" d=" M 256.99239959388063 401.1235403092396 A 18.952414693333367 18.952414693333367 0 1 1 256.99239011767406 401.104587897705"/><path fill="rgb(197, 122, 160)" stroke="none" paint-order="stroke fill markers" d=" M 260.1111131430769 441.5954237169629 A 18.952414693333253 18.952414693333253 0 1 1 260.11110366687035 441.5764713054283"/><path fill="rgb(197, 122, 160)" stroke="none" paint-order="stroke fill markers" d=" M 240.80550626607163 445.40113728742216 A 29.726666666666688 29.726666666666688 0 1 1 240.80549140273953 445.3714106257099"/><path fill="rgb(55, 162, 127)" stroke="none" paint-order="stroke fill markers" d=" M 249.653375692314 377.46051965483196 A 29.726666666666688 29.726666666666688 0 1 1 249.6533608289819 377.4307929931197"/><path fill="rgb(189, 131, 108)" stroke="none" paint-order="stroke fill markers" d=" M 291.42880788313045 332.2474460182576 A 29.726666666666688 29.726666666666688 0 1 1 291.4287930197984 332.2177193565454"/><path fill="rgb(189, 131, 108)" stroke="none" paint-order="stroke fill markers" d=" M 250.32177381658488 332.42510640552973 A 18.952414693333253 18.952414693333253 0 1 1 250.3217643403783 332.40615399399513"/><path fill="rgb(38, 159, 174)" stroke="none" paint-order="stroke fill markers" d=" M 247.53735002548348 292.5527582493208 A 18.952414693333367 18.952414693333367 0 1 1 247.5373405492769 292.5338058377862"/><path fill="rgb(38, 159, 174)" stroke="none" paint-order="stroke fill markers" d=" M 274.4355070261989 267.5655989844682 A 29.726666666666688 29.726666666666688 0 1 1 274.4354921628668 267.53587232275595"/><path fill="rgb(38, 159, 174)" stroke="none" paint-order="stroke fill markers" d=" M 293.97400765399476 268.6521133854127 A 18.952414693333367 18.952414693333367 0 1 1 293.9739981777882 268.6331609738781"/><path fill="rgb(54, 157, 180)" stroke="none" paint-order="stroke fill markers" d=" M 354.8058090404441 271.0671285291741 A 29.726666666666688 29.726666666666688 0 1 1 354.80579417711203 271.0374018674619"/><path fill="rgb(196, 122, 162)" stroke="none" paint-order="stroke fill markers" d=" M 317.2453476558914 222.75539269487751 A 29.726666666666688 29.726666666666688 0 1 1 317.24533279255934 222.72566603316528"/><path fill="rgb(196, 122, 162)" stroke="none" paint-order="stroke fill markers" d=" M 289.008094158798 198.63446122843084 A 18.952414693333367 18.952414693333367 0 1 1 289.0080846825914 198.61550881689624"/><path fill="rgb(196, 122, 162)" stroke="none" paint-order="stroke fill markers" d=" M 336.68203029760383 220.10793355227747 A 18.952414693333253 18.952414693333253 0 1 1 336.68202082139726 220.08898114074287"/><path fill="rgb(51, 162, 129)" stroke="none" paint-order="stroke fill markers" d=" M 342.53029830505733 181.48215481735224 A 18.952414693333253 18.952414693333253 0 1 1 342.53028882885076 181.46320240581764"/><path fill="rgb(51, 162, 129)" stroke="none" paint-order="stroke fill markers" d=" M 334.4073735814407 158.40623205855582 A 29.726666666666688 29.726666666666688 0 1 1 334.40735871810864 158.37650539684358"/><path fill="rgb(194, 122, 167)" stroke="none" paint-order="stroke fill markers" d=" M 456.28547437474566 421.2454162162029 A 18.952414693333253 18.952414693333253 0 1 1 456.2854648985391 421.2264638046683"/><path fill="rgb(197, 122, 160)" stroke="none" paint-order="stroke fill markers" d=" M 419.7086785650525 443.7124554952531 A 18.952414693333367 18.952414693333367 0 1 1 419.7086690888459 443.6935030837185"/><path fill="rgb(65, 161, 121)" stroke="none" paint-order="stroke fill markers" d=" M 417.884797385932 406.26971565150467 A 18.952414693333253 18.952414693333253 0 1 1 417.88478790972545 406.25076323997007"/><path fill="rgb(65, 161, 121)" stroke="none" paint-order="stroke fill markers" d=" M 413.06576604210085 380.96604344462924 A 29.726666666666688 29.726666666666688 0 1 1 413.0657511787688 380.936316782917"/><path fill="rgb(197, 122, 160)" stroke="none" paint-order="stroke fill markers" d=" M 371.26548782349295 423.9342354479302 A 18.952414693333253 18.952414693333253 0 1 1 371.2654783472864 423.9152830363956"/><path fill="rgb(65, 161, 121)" stroke="none" paint-order="stroke fill markers" d=" M 371.96222077227304 381.44739357949476 A 18.952414693333367 18.952414693333367 0 1 1 371.96221129606647 381.42844116796016"/><path fill="rgb(190, 130, 110)" stroke="none" paint-order="stroke fill markers" d=" M 372.1596655098984 335.08714614166877 A 29.726666666666688 29.726666666666688 0 1 1 372.1596506465663 335.05741947995654"/><path fill="rgb(190, 130, 110)" stroke="none" paint-order="stroke fill markers" d=" M 377.16208128484703 309.89121469431745 A 18.952414693333253 18.952414693333253 0 1 1 377.16207180864046 309.87226228278286"/><path fill="rgb(54, 157, 180)" stroke="none" paint-order="stroke fill markers" d=" M 331.4196792043413 297.8964047419819 A 18.952414693333367 18.952414693333367 0 1 1 331.41966972813475 297.8774523304473"/><path fill="rgb(190, 130, 110)" stroke="none" paint-order="stroke fill markers" d=" M 331.0603691468935 334.39747362904063 A 18.952414693333367 18.952414693333367 0 1 1 331.0603596706869 334.37852121750603"/><path fill="rgb(189, 131, 108)" stroke="none" paint-order="stroke fill markers" d=" M 295.66274228025367 306.61133067100025 A 18.952414693333253 18.952414693333253 0 1 1 295.6627328040471 306.59237825946565"/><path fill="rgb(70, 161, 118)" stroke="none" paint-order="stroke fill markers" d=" M 332.7375224649904 381.024054520754 A 29.726666666666688 29.726666666666688 0 1 1 332.7375076016583 380.9943278590418"/><path fill="rgb(70, 161, 118)" stroke="none" paint-order="stroke fill markers" d=" M 335.7653538774369 407.29334332545176 A 18.952414693333367 18.952414693333367 0 1 1 335.7653444012303 407.27439091391716"/><path fill="rgb(195, 122, 164)" stroke="none" paint-order="stroke fill markers" d=" M 339.50708195236183 443.80816213204906 A 18.952414693333367 18.952414693333367 0 1 1 339.50707247615526 443.78920972051446"/><path fill="rgb(195, 122, 164)" stroke="none" paint-order="stroke fill markers" d=" M 319.9853744835429 445.2721353993938 A 29.726666666666688 29.726666666666688 0 1 1 319.98535962021083 445.24240873768156"/><path fill="rgb(195, 122, 164)" stroke="none" paint-order="stroke fill markers" d=" M 292.75949059093927 420.48785060469606 A 18.952414693333367 18.952414693333367 0 1 1 292.7594811147327 420.46889819316146"/><path fill="rgb(50, 162, 130)" stroke="none" paint-order="stroke fill markers" d=" M 456.60504067246 161.3764084896959 A 18.952414693333367 18.952414693333367 0 1 1 456.60503119625344 161.3574560781613"/><path fill="rgb(196, 122, 163)" stroke="none" paint-order="stroke fill markers" d=" M 456.523874900861 199.83365166328815 A 18.952414693333253 18.952414693333253 0 1 1 456.52386542465445 199.81469925175355"/><path fill="rgb(196, 122, 163)" stroke="none" paint-order="stroke fill markers" d=" M 422.73277919702724 221.92697498920438 A 18.952414693333367 18.952414693333367 0 1 1 422.73276972082067 221.90802257766978"/><path fill="rgb(65, 161, 121)" stroke="none" paint-order="stroke fill markers" d=" M 421.0847609274709 183.62497781074387 A 18.952414693333253 18.952414693333253 0 1 1 421.0847514512643 183.60602539920927"/><path fill="rgb(65, 161, 121)" stroke="none" paint-order="stroke fill markers" d=" M 416.3475875713422 158.27376296322404 A 29.726666666666688 29.726666666666688 0 1 1 416.34757270801015 158.2440363015118"/><path fill="rgb(65, 161, 121)" stroke="none" paint-order="stroke fill markers" d=" M 375.2426351033483 158.66239833278257 A 18.952414693333253 18.952414693333253 0 1 1 375.2426256271417 158.64344592124797"/><path fill="rgb(196, 122, 163)" stroke="none" paint-order="stroke fill markers" d=" M 375.578551806864 199.39428030159866 A 18.952414693333253 18.952414693333253 0 1 1 375.57854233065746 199.37532789006406"/><path fill="rgb(196, 122, 163)" stroke="none" paint-order="stroke fill markers" d=" M 403.2415422314488 223.8989175912768 A 29.726666666666688 29.726666666666688 0 1 1 403.24152736811675 223.86919092956458"/><path fill="rgb(54, 157, 180)" stroke="none" paint-order="stroke fill markers" d=" M 374.22868160615536 268.2746383062976 A 18.952414693333367 18.952414693333367 0 1 1 374.2286721299488 268.255685894763"/><path fill="rgb(42, 158, 175)" stroke="none" paint-order="stroke fill markers" d=" M 412.2562794720871 294.4457410701572 A 18.952414693333253 18.952414693333253 0 1 1 412.25626999588053 294.4267886586226"/><path fill="rgb(42, 158, 175)" stroke="none" paint-order="stroke fill markers" d=" M 438.4527481795399 269.0431029023922 A 29.726666666666688 29.726666666666688 0 1 1 438.45273331620785 269.01337624068"/><path fill="rgb(42, 158, 175)" stroke="none" paint-order="stroke fill markers" d=" M 458.01038382223845 269.33089393867493 A 18.952414693333253 18.952414693333253 0 1 1 458.0103743460319 269.31194152714033"/><path fill="rgb(191, 130, 112)" stroke="none" paint-order="stroke fill markers" d=" M 456.858687079876 309.5137906554683 A 18.952414693333367 18.952414693333367 0 1 1 456.85867760366943 309.4948382439337"/><path fill="rgb(191, 130, 112)" stroke="none" paint-order="stroke fill markers" d=" M 451.0476854236021 334.213700061561 A 29.726666666666688 29.726666666666688 0 1 1 451.04767056027003 334.18397339984875"/><path fill="rgb(191, 130, 112)" stroke="none" paint-order="stroke fill markers" d=" M 409.9857989801531 332.5949985445979 A 18.952414693333367 18.952414693333367 0 1 1 409.98578950394653 332.5760461330633"/><path fill="rgb(48, 162, 131)" stroke="none" paint-order="stroke fill markers" d=" M 451.9804191455366 385.1302071017024 A 18.952414693333253 18.952414693333253 0 1 1 451.98040966933 385.1112546901678"/><path fill="rgb(60, 162, 124)" stroke="none" paint-order="stroke fill markers" d=" M 615.703220437829 161.80339189928782 A 18.95241469333314 18.95241469333314 0 1 1 615.7032109616225 161.78443948775322"/><path fill="rgb(67, 161, 120)" stroke="none" paint-order="stroke fill markers" d=" M 581.8894484942546 183.097433020547 A 18.95241469333314 18.95241469333314 0 1 1 581.889439018048 183.0784806090124"/><path fill="rgb(67, 161, 120)" stroke="none" paint-order="stroke fill markers" d=" M 577.5582631241555 157.51539777749656 A 29.726666666666688 29.726666666666688 0 1 1 577.5582482608233 157.48567111578433"/><path fill="rgb(67, 161, 120)" stroke="none" paint-order="stroke fill markers" d=" M 536.450761745104 157.44668706236905 A 18.952414693333367 18.952414693333367 0 1 1 536.4507522688975 157.42773465083445"/><path fill="rgb(195, 122, 165)" stroke="none" paint-order="stroke fill markers" d=" M 537.6243047807675 201.04262786631773 A 18.952414693333367 18.952414693333367 0 1 1 537.624295304561 201.02367545478313"/><path fill="rgb(195, 122, 165)" stroke="none" paint-order="stroke fill markers" d=" M 583.5811010160141 225.80498646161652 A 18.952414693333367 18.952414693333367 0 1 1 583.5810915398076 225.78603405008192"/><path fill="rgb(46, 158, 177)" stroke="none" paint-order="stroke fill markers" d=" M 604.586519944811 271.0992919550511 A 29.726666666666688 29.726666666666688 0 1 1 604.5865050814789 271.0695652933389"/><path fill="rgb(46, 158, 177)" stroke="none" paint-order="stroke fill markers" d=" M 579.4774818415506 297.0973549763867 A 18.952414693333367 18.952414693333367 0 1 1 579.477472365344 297.0784025648521"/><path fill="rgb(25, 160, 169)" stroke="none" paint-order="stroke fill markers" d=" M 541.4568037799572 277.3208258383042 A 18.952414693333367 18.952414693333367 0 1 1 541.4567943037507 277.3018734267696"/><path fill="rgb(195, 122, 165)" stroke="none" paint-order="stroke fill markers" d=" M 564.0267486732996 226.325924833748 A 29.726666666666688 29.726666666666688 0 1 1 564.0267338099675 226.29619817203576"/><path fill="rgb(25, 160, 169)" stroke="none" paint-order="stroke fill markers" d=" M 522.2496040878132 272.84048316438236 A 29.72666666666663 29.72666666666663 0 1 1 522.249589224481 272.81075650267013"/><path fill="rgb(25, 160, 169)" stroke="none" paint-order="stroke fill markers" d=" M 492.49492957045055 295.8516957771291 A 18.952414693333367 18.952414693333367 0 1 1 492.494920094244 295.8327433655945"/><path fill="rgb(196, 122, 163)" stroke="none" paint-order="stroke fill markers" d=" M 483.9981844008328 224.46028811686983 A 29.726666666666688 29.726666666666688 0 1 1 483.99816953750076 224.4305614551576"/><path fill="rgb(196, 122, 163)" stroke="none" paint-order="stroke fill markers" d=" M 503.503720046317 222.70825843914156 A 18.952414693333367 18.952414693333367 0 1 1 503.50371057011046 222.68930602760696"/><path fill="rgb(50, 162, 130)" stroke="none" paint-order="stroke fill markers" d=" M 505.84025367795726 179.20915640002306 A 18.952414693333367 18.952414693333367 0 1 1 505.8402442017507 179.19020398848846"/><path fill="rgb(50, 162, 130)" stroke="none" paint-order="stroke fill markers" d=" M 497.29019035037715 156.4702660657863 A 29.726666666666688 29.726666666666688 0 1 1 497.2901754870451 156.44053940407406"/><path fill="rgb(192, 129, 115)" stroke="none" paint-order="stroke fill markers" d=" M 705.1176024353883 314.80485605759867 A 18.95241469333314 18.95241469333314 0 1 1 705.1175929591818 314.78590364606407"/><path fill="rgb(192, 129, 115)" stroke="none" paint-order="stroke fill markers" d=" M 657.0198629842853 335.36503437280453 A 18.95241469333314 18.95241469333314 0 1 1 657.0198535080788 335.34608196126993"/><path fill="rgb(189, 131, 109)" stroke="none" paint-order="stroke fill markers" d=" M 617.4433475401222 338.0124171559223 A 29.726666666666688 29.726666666666688 0 1 1 617.4433326767901 337.9826904942101"/><path fill="rgb(189, 131, 109)" stroke="none" paint-order="stroke fill markers" d=" M 622.0372723736175 312.57882108232275 A 18.95241469333314 18.95241469333314 0 1 1 622.037262897411 312.55986867078815"/><path fill="rgb(46, 158, 177)" stroke="none" paint-order="stroke fill markers" d=" M 624.1306599316445 270.17349981996597 A 18.952414693333367 18.952414693333367 0 1 1 624.130650455438 270.15454740843137"/><path fill="rgb(197, 122, 156)" stroke="none" paint-order="stroke fill markers" d=" M 646.1273167612846 227.85990841336707 A 29.726666666666688 29.726666666666688 0 1 1 646.1273018979525 227.83018175165483"/><path fill="rgb(32, 159, 172)" stroke="none" paint-order="stroke fill markers" d=" M 660.6566127122464 295.01765828690725 A 18.95241469333314 18.95241469333314 0 1 1 660.6566032360399 294.99870587537265"/><path fill="rgb(32, 159, 172)" stroke="none" paint-order="stroke fill markers" d=" M 689.2076522284531 271.1145032707036 A 29.72666666666646 29.72666666666646 0 1 1 689.207637365121 271.0847766089914"/><path fill="rgb(32, 159, 172)" stroke="none" paint-order="stroke fill markers" d=" M 708.6072999297724 274.13513237244285 A 18.952414693333367 18.952414693333367 0 1 1 708.6072904535658 274.11617996090825"/><path fill="rgb(195, 122, 166)" stroke="none" paint-order="stroke fill markers" d=" M 724.7095736593749 224.9099894798884 A 29.726666666666688 29.726666666666688 0 1 1 724.7095587960428 224.88026281817616"/><path fill="rgb(197, 122, 156)" stroke="none" paint-order="stroke fill markers" d=" M 665.1238123183502 222.2046968438757 A 18.952414693333367 18.952414693333367 0 1 1 665.1238028421437 222.1857444323411"/><path fill="rgb(195, 122, 166)" stroke="none" paint-order="stroke fill markers" d=" M 698.5548645004831 199.48341350763474 A 18.952414693333367 18.952414693333367 0 1 1 698.5548550242765 199.46446109610014"/><path fill="rgb(63, 162, 122)" stroke="none" paint-order="stroke fill markers" d=" M 700.4758507642596 157.87545363923948 A 18.952414693333367 18.952414693333367 0 1 1 700.4758412880531 157.85650122770488"/><path fill="rgb(60, 162, 124)" stroke="none" paint-order="stroke fill markers" d=" M 662.7557700757307 184.5362222547883 A 18.952414693333367 18.952414693333367 0 1 1 662.7557605995241 184.5172698432537"/><path fill="rgb(60, 162, 124)" stroke="none" paint-order="stroke fill markers" d=" M 656.7515289009796 159.96006178739117 A 29.726666666666688 29.726666666666688 0 1 1 656.7515140376474 159.93033512567894"/><path fill="rgb(197, 122, 156)" stroke="none" paint-order="stroke fill markers" d=" M 615.4317852781417 205.61359355714933 A 18.95241469333314 18.95241469333314 0 1 1 615.4317758019351 205.59464114561473"/><path fill="rgb(48, 162, 131)" stroke="none" paint-order="stroke fill markers" d=" M 492.6080992455798 379.90348236272695 A 29.726666666666688 29.726666666666688 0 1 1 492.60808438224774 379.8737557010147"/><path fill="rgb(193, 128, 119)" stroke="none" paint-order="stroke fill markers" d=" M 495.03234379976715 334.17548486178464 A 18.952414693333367 18.952414693333367 0 1 1 495.0323343235606 334.15653245025004"/><path fill="rgb(193, 128, 119)" stroke="none" paint-order="stroke fill markers" d=" M 535.6152246966446 339.63870474732676 A 29.726666666666745 29.726666666666745 0 1 1 535.6152098333125 339.6089780856145"/><path fill="rgb(193, 128, 119)" stroke="none" paint-order="stroke fill markers" d=" M 544.6102264613405 317.26448899882934 A 18.952414693333367 18.952414693333367 0 1 1 544.610216985134 317.24553658729474"/><path fill="rgb(189, 131, 109)" stroke="none" paint-order="stroke fill markers" d=" M 576.3366595258237 337.7856219035091 A 18.95241469333314 18.95241469333314 0 1 1 576.3366500496172 337.7666694919745"/><path fill="rgb(60, 162, 124)" stroke="none" paint-order="stroke fill markers" d=" M 580.4467779086372 405.94536433541214 A 18.952414693333367 18.952414693333367 0 1 1 580.4467684324306 405.92641192387754"/><path fill="rgb(60, 162, 124)" stroke="none" paint-order="stroke fill markers" d=" M 574.3434737485227 381.4334409959845 A 29.726666666666688 29.726666666666688 0 1 1 574.3434588851906 381.40371433427225"/><path fill="rgb(197, 122, 158)" stroke="none" paint-order="stroke fill markers" d=" M 582.4685174562624 445.38813800724756 A 18.952414693333367 18.952414693333367 0 1 1 582.4685079800558 445.36918559571296"/><path fill="rgb(196, 122, 161)" stroke="none" paint-order="stroke fill markers" d=" M 618.0329621667554 425.39731597581635 A 18.952414693333367 18.952414693333367 0 1 1 618.0329526905489 425.37836356428176"/><path fill="rgb(53, 162, 128)" stroke="none" paint-order="stroke fill markers" d=" M 613.3360581240174 385.94455048176525 A 18.952414693333367 18.952414693333367 0 1 1 613.3360486478109 385.92559807023065"/><path fill="rgb(53, 162, 128)" stroke="none" paint-order="stroke fill markers" d=" M 654.2142572044754 382.3234634968522 A 29.726666666666688 29.726666666666688 0 1 1 654.2142423411433 382.29373683513995"/><path fill="rgb(196, 122, 161)" stroke="none" paint-order="stroke fill markers" d=" M 666.3726007918694 445.4137317603622 A 18.952414693333367 18.952414693333367 0 1 1 666.3725913156629 445.3947793488276"/><path fill="rgb(194, 122, 169)" stroke="none" paint-order="stroke fill markers" d=" M 700.4133422560021 422.8204070619108 A 18.95241469333314 18.95241469333314 0 1 1 700.4133327797956 422.80145465037623"/><path fill="rgb(55, 162, 127)" stroke="none" paint-order="stroke fill markers" d=" M 698.3163898532671 385.9932677418039 A 18.952414693333367 18.952414693333367 0 1 1 698.3163803770606 385.9743153302693"/><path fill="rgb(53, 162, 128)" stroke="none" paint-order="stroke fill markers" d=" M 661.7165166470818 405.8674745315144 A 18.952414693333367 18.952414693333367 0 1 1 661.7165071708753 405.8485221199798"/><path fill="rgb(192, 129, 115)" stroke="none" paint-order="stroke fill markers" d=" M 697.945858636589 338.58812091069177 A 29.726666666666688 29.726666666666688 0 1 1 697.9458437732569 338.55839424897954"/><path fill="rgb(16, 160, 166)" stroke="none" paint-order="stroke fill markers" d=" M 625.146729613057 500.1701020443968 A 18.95241469333314 18.95241469333314 0 1 1 625.1467201368505 500.1511496328622"/><path fill="rgb(197, 122, 158)" stroke="none" paint-order="stroke fill markers" d=" M 563.3147754868646 450.1946586456027 A 29.726666666666688 29.726666666666688 0 1 1 563.3147606235325 450.1649319838905"/><path fill="rgb(25, 160, 169)" stroke="none" paint-order="stroke fill markers" d=" M 542.9854444609232 497.0376632280246 A 18.952414693333367 18.952414693333367 0 1 1 542.9854349847167 497.01871081649"/><path fill="rgb(16, 160, 166)" stroke="none" paint-order="stroke fill markers" d=" M 574.9235211036419 515.1723383664854 A 18.95241469333314 18.95241469333314 0 1 1 574.9235116274353 515.1533859549507"/><path fill="rgb(16, 160, 166)" stroke="none" paint-order="stroke fill markers" d=" M 606.3562663937632 493.5713297879398 A 29.726666666666688 29.726666666666688 0 1 1 606.3562515304311 493.5416031262276"/><path fill="rgb(193, 128, 119)" stroke="none" paint-order="stroke fill markers" d=" M 570.596725253949 558.2440253180064 A 18.952414693333367 18.952414693333367 0 1 1 570.5967157777425 558.2250729064717"/><path fill="rgb(190, 130, 110)" stroke="none" paint-order="stroke fill markers" d=" M 538.6102989259734 534.4374777911046 A 18.95241469333314 18.95241469333314 0 1 1 538.6102894497669 534.4185253795699"/><path fill="rgb(190, 130, 110)" stroke="none" paint-order="stroke fill markers" d=" M 533.7429558337033 559.7129343684021 A 29.72666666666663 29.72666666666663 0 1 1 533.7429409703711 559.6832077066898"/><path fill="rgb(190, 130, 110)" stroke="none" paint-order="stroke fill markers" d=" M 492.6403800418254 559.1767872995691 A 18.952414693333253 18.952414693333253 0 1 1 492.6403705656188 559.1578348880345"/><path fill="rgb(25, 160, 169)" stroke="none" paint-order="stroke fill markers" d=" M 494.10969093461216 515.782330493329 A 18.952414693333253 18.952414693333253 0 1 1 494.1096814584056 515.7633780817944"/><path fill="rgb(25, 160, 169)" stroke="none" paint-order="stroke fill markers" d=" M 523.7578438883888 492.6883981357936 A 29.726666666666745 29.726666666666745 0 1 1 523.7578290250567 492.65867147408136"/><path fill="rgb(194, 122, 167)" stroke="none" paint-order="stroke fill markers" d=" M 501.48291658398836 447.2961695102644 A 18.952414693333253 18.952414693333253 0 1 1 501.4829071077818 447.2772170987298"/><path fill="rgb(194, 122, 167)" stroke="none" paint-order="stroke fill markers" d=" M 481.9258072735543 446.95972605255497 A 29.726666666666688 29.726666666666688 0 1 1 481.92579241022224 446.92999939084274"/><path fill="rgb(197, 122, 158)" stroke="none" paint-order="stroke fill markers" d=" M 533.2963709111095 427.39155999845593 A 18.95241469333314 18.95241469333314 0 1 1 533.296361434903 427.37260758692133"/><path fill="rgb(60, 162, 124)" stroke="none" paint-order="stroke fill markers" d=" M 533.3028361167546 383.39232332308336 A 18.952414693333367 18.952414693333367 0 1 1 533.3028266405481 383.37337091154876"/><path fill="rgb(48, 162, 131)" stroke="none" paint-order="stroke fill markers" d=" M 501.41490301622065 402.4336786614861 A 18.952414693333367 18.952414693333367 0 1 1 501.4148935400141 402.4147262499515"/><path fill="rgb(44, 158, 176)" stroke="none" paint-order="stroke fill markers" d=" M 671.9608560172189 606.5836730228195 A 18.952414693333367 18.952414693333367 0 1 1 671.9608465410124 606.5647206112849"/><path fill="rgb(44, 158, 176)" stroke="none" paint-order="stroke fill markers" d=" M 652.4018539749195 606.6501763947648 A 29.726666666666688 29.726666666666688 0 1 1 652.4018391115874 606.6204497330525"/><path fill="rgb(193, 128, 119)" stroke="none" paint-order="stroke fill markers" d=" M 611.1897154788373 563.6548159695756 A 29.726666666666688 29.726666666666688 0 1 1 611.1897006155052 563.6250893078633"/><path fill="rgb(193, 128, 119)" stroke="none" paint-order="stroke fill markers" d=" M 620.1430842664699 541.2458711605382 A 18.952414693333367 18.952414693333367 0 1 1 620.1430747902634 541.2269187490035"/><path fill="rgb(192, 129, 115)" stroke="none" paint-order="stroke fill markers" d=" M 652.5431773418829 561.135931066497 A 18.952414693333367 18.952414693333367 0 1 1 652.5431678656764 561.1169786549624"/><path fill="rgb(192, 129, 115)" stroke="none" paint-order="stroke fill markers" d=" M 693.4767028403623 564.2916865718597 A 29.72666666666646 29.72666666666646 0 1 1 693.4766879770302 564.2619599101474"/><path fill="rgb(192, 129, 115)" stroke="none" paint-order="stroke fill markers" d=" M 700.592254375116 540.4684139797615 A 18.952414693333367 18.952414693333367 0 1 1 700.5922448989095 540.4494615682269"/><path fill="rgb(38, 159, 174)" stroke="none" paint-order="stroke fill markers" d=" M 658.8654268416265 521.1273843843353 A 18.95241469333314 18.95241469333314 0 1 1 658.86541736542 521.1084319728006"/><path fill="rgb(38, 159, 174)" stroke="none" paint-order="stroke fill markers" d=" M 685.9832988829608 496.2756027917335 A 29.72666666666646 29.72666666666646 0 1 1 685.9832840196286 496.24587613002126"/><path fill="rgb(38, 159, 174)" stroke="none" paint-order="stroke fill markers" d=" M 705.5111047556256 497.6148570240655 A 18.95241469333314 18.95241469333314 0 1 1 705.5110952794191 497.5959046125309"/><path fill="rgb(194, 122, 169)" stroke="none" paint-order="stroke fill markers" d=" M 725.3296317596544 448.9181220960846 A 29.72666666666646 29.72666666666646 0 1 1 725.3296168963222 448.88839543437234"/><path fill="rgb(196, 122, 161)" stroke="none" paint-order="stroke fill markers" d=" M 647.0355644423648 448.9766114320648 A 29.726666666666688 29.726666666666688 0 1 1 647.0355495790327 448.94688477035254"/><path fill="rgb(48, 158, 178)" stroke="none" paint-order="stroke fill markers" d=" M 487.5264909245505 606.4239206194832 A 29.726666666666688 29.726666666666688 0 1 1 487.52647606121843 606.3941939577709"/><path fill="rgb(48, 158, 178)" stroke="none" paint-order="stroke fill markers" d=" M 507.06590318524394 605.3617083006641 A 18.952414693333253 18.952414693333253 0 1 1 507.06589370903737 605.3427558891294"/><path fill="rgb(18, 160, 167)" stroke="none" paint-order="stroke fill markers" d=" M 570.4049312458665 606.1592490825697 A 29.726666666666688 29.726666666666688 0 1 1 570.4049163825343 606.1295224208574"/><path fill="rgb(18, 160, 167)" stroke="none" paint-order="stroke fill markers" d=" M 589.3076864037721 612.2626873708653 A 18.952414693333367 18.952414693333367 0 1 1 589.3076769275656 612.2437349593306"/><path fill="rgb(27, 160, 170)" stroke="none" paint-order="stroke fill markers" d=" M 428.25529926241444 611.4640567730569 A 18.952414693333367 18.952414693333367 0 1 1 428.25528978620787 611.4451043615222"/><path fill="rgb(27, 160, 170)" stroke="none" paint-order="stroke fill markers" d=" M 408.99059062284704 607.3641888417418 A 29.726666666666688 29.726666666666688 0 1 1 408.99057575951497 607.3344621800295"/><path fill="rgb(34, 159, 172)" stroke="none" paint-order="stroke fill markers" d=" M 279.83918175163814 489.761422460988 A 29.726666666666574 29.726666666666574 0 1 1 279.83916688830607 489.73169579927577"/><path fill="rgb(34, 159, 172)" stroke="none" paint-order="stroke fill markers" d=" M 299.2963616967343 492.17745200411497 A 18.952414693333253 18.952414693333253 0 1 1 299.29635222052775 492.15849959258037"/><path fill="rgb(29, 159, 171)" stroke="none" paint-order="stroke fill markers" d=" M 331.60288466308174 515.2722338827998 A 18.952414693333253 18.952414693333253 0 1 1 331.60287518687517 515.2532814712652"/><path fill="rgb(191, 130, 112)" stroke="none" paint-order="stroke fill markers" d=" M 297.8597378082904 530.0846178344777 A 18.952414693333367 18.952414693333367 0 1 1 297.8597283320838 530.0656654229431"/><path fill="rgb(186, 133, 101)" stroke="none" paint-order="stroke fill markers" d=" M 331.8959765827306 563.3083568565023 A 18.952414693333367 18.952414693333367 0 1 1 331.89596710652404 563.2894044449677"/><path fill="rgb(186, 133, 101)" stroke="none" paint-order="stroke fill markers" d=" M 372.7744486380065 559.689423489688 A 29.726666666666688 29.726666666666688 0 1 1 372.77443377467443 559.6596968279757"/><path fill="rgb(186, 133, 101)" stroke="none" paint-order="stroke fill markers" d=" M 373.8296850293736 532.5251741177684 A 18.952414693333367 18.952414693333367 0 1 1 373.829675553167 532.5062217062338"/><path fill="rgb(29, 159, 171)" stroke="none" paint-order="stroke fill markers" d=" M 360.28515751034325 491.4619091935414 A 29.726666666666688 29.726666666666688 0 1 1 360.2851426470112 491.43218253182914"/><path fill="rgb(197, 122, 160)" stroke="none" paint-order="stroke fill markers" d=" M 400.3905697923513 447.42350473171297 A 29.726666666666688 29.726666666666688 0 1 1 400.39055492901923 447.39377807000074"/><path fill="rgb(29, 159, 171)" stroke="none" paint-order="stroke fill markers" d=" M 379.66775693471783 494.63948410948035 A 18.952414693333253 18.952414693333253 0 1 1 379.66774745851126 494.62053169794575"/><path fill="rgb(42, 158, 175)" stroke="none" paint-order="stroke fill markers" d=" M 443.23108222986144 495.10827609579763 A 29.726666666666688 29.726666666666688 0 1 1 443.2310673665294 495.0785494340854"/><path fill="rgb(42, 158, 175)" stroke="none" paint-order="stroke fill markers" d=" M 462.79011798860773 495.15940259503236 A 18.952414693333367 18.952414693333367 0 1 1 462.79010851240116 495.14045018349776"/><path fill="rgb(190, 130, 111)" stroke="none" paint-order="stroke fill markers" d=" M 456.3210976852385 537.5094731213987 A 18.952414693333367 18.952414693333367 0 1 1 456.3210882090319 537.4905207098641"/><path fill="rgb(42, 158, 175)" stroke="none" paint-order="stroke fill markers" d=" M 417.24465900930267 520.630424069485 A 18.952414693333367 18.952414693333367 0 1 1 417.2446495330961 520.6114716579503"/><path fill="rgb(190, 130, 111)" stroke="none" paint-order="stroke fill markers" d=" M 409.6864426287678 561.0426724573047 A 18.952414693333253 18.952414693333253 0 1 1 409.6864331525612 561.02372004577"/><path fill="rgb(190, 130, 111)" stroke="none" paint-order="stroke fill markers" d=" M 450.76337720233954 562.3684956051497 A 29.726666666666688 29.726666666666688 0 1 1 450.7633623390075 562.3387689434375"/><path fill="rgb(40, 159, 175)" stroke="none" paint-order="stroke fill markers" d=" M 345.41678350512865 605.3152158029517 A 18.952414693333367 18.952414693333367 0 1 1 345.4167740289221 605.296263391417"/><path fill="rgb(40, 159, 175)" stroke="none" paint-order="stroke fill markers" d=" M 325.8760368062223 604.2897305300507 A 29.726666666666688 29.726666666666688 0 1 1 325.87602194289025 604.2600038683385"/><path fill="rgb(42, 158, 175)" stroke="none" paint-order="stroke fill markers" d=" M 264.9781419732706 601.8546501991839 A 18.952414693333367 18.952414693333367 0 1 1 264.97813249706405 601.8356977876492"/><path fill="rgb(42, 158, 175)" stroke="none" paint-order="stroke fill markers" d=" M 245.42281254925928 601.3907500972541 A 29.726666666666688 29.726666666666688 0 1 1 245.42279768592718 601.3610234355418"/><path fill="rgb(191, 130, 112)" stroke="none" paint-order="stroke fill markers" d=" M 291.7694028713833 554.6049791754228 A 29.726666666666574 29.726666666666574 0 1 1 291.76938800805124 554.5752525137106"/><path fill="rgb(191, 130, 112)" stroke="none" paint-order="stroke fill markers" d=" M 250.7277353175072 552.6612397439446 A 18.952414693333253 18.952414693333253 0 1 1 250.72772584130064 552.64228733241"/><path fill="rgb(34, 159, 172)" stroke="none" paint-order="stroke fill markers" d=" M 251.79776573057114 514.0153329552462 A 18.952414693333367 18.952414693333367 0 1 1 251.79775625436457 513.9963805437116"/><path fill="rgb(44, 158, 176)" stroke="none" paint-order="stroke fill markers" d=" M 102.40503225930706 604.0118459605596 A 18.95241469333331 18.95241469333331 0 1 1 102.4050227831005 603.992893549025"/><path fill="rgb(27, 160, 170)" stroke="none" paint-order="stroke fill markers" d=" M 136.4894576631064 623.8203291227622 A 18.95241469333331 18.95241469333331 0 1 1 136.48944818689984 623.8013767112276"/><path fill="rgb(27, 160, 170)" stroke="none" paint-order="stroke fill markers" d=" M 165.78052335265733 600.4545847603822 A 29.726666666666688 29.726666666666688 0 1 1 165.78050848932523 600.4248580986699"/><path fill="rgb(27, 160, 170)" stroke="none" paint-order="stroke fill markers" d=" M 185.07162570193725 604.367193841999 A 18.95241469333331 18.95241469333331 0 1 1 185.07161622573068 604.3482414304643"/><path fill="rgb(192, 129, 114)" stroke="none" paint-order="stroke fill markers" d=" M 43.813706373697016 558.1383988925613 A 29.726666666666688 29.726666666666688 0 1 1 43.81369151036492 558.108672230849"/><path fill="rgb(192, 129, 114)" stroke="none" paint-order="stroke fill markers" d=" M 50.7719562169475 534.2041531995401 A 18.95241469333331 18.95241469333331 0 1 1 50.771946740740944 534.1852007880054"/><path fill="rgb(189, 131, 107)" stroke="none" paint-order="stroke fill markers" d=" M 86.44103422330642 556.808906528531 A 18.95241469333331 18.95241469333331 0 1 1 86.44102474709986 556.7899541169963"/><path fill="rgb(44, 158, 176)" stroke="none" paint-order="stroke fill markers" d=" M 82.84605430930628 604.0886193887226 A 29.726666666666688 29.726666666666688 0 1 1 82.84603944597418 604.0588927270103"/><path fill="rgb(38, 159, 174)" stroke="none" paint-order="stroke fill markers" d=" M 19.41765938845242 604.7732198208362 A 18.95241469333331 18.95241469333331 0 1 1 19.417649912245864 604.7542674093015"/><path fill="rgb(23, 160, 169)" stroke="none" paint-order="stroke fill markers" d=" M 197.3282009480581 487.87713004637385 A 29.72666666666663 29.72666666666663 0 1 1 197.328186084726 487.8474033846616"/><path fill="rgb(23, 160, 169)" stroke="none" paint-order="stroke fill markers" d=" M 167.23195349220327 510.617882660914 A 18.95241469333331 18.95241469333331 0 1 1 167.2319440159967 510.5989302493794"/><path fill="rgb(23, 160, 169)" stroke="none" paint-order="stroke fill markers" d=" M 216.4653454811749 492.780386500781 A 18.952414693333367 18.952414693333367 0 1 1 216.46533600496832 492.7614340892464"/><path fill="rgb(194, 128, 120)" stroke="none" paint-order="stroke fill markers" d=" M 211.55160484069148 533.694373550209 A 18.95241469333331 18.95241469333331 0 1 1 211.5515953644849 533.6754211386743"/><path fill="rgb(194, 128, 120)" stroke="none" paint-order="stroke fill markers" d=" M 202.36307850280065 555.9054757944042 A 29.726666666666574 29.726666666666574 0 1 1 202.36306363946855 555.8757491326919"/><path fill="rgb(194, 128, 120)" stroke="none" paint-order="stroke fill markers" d=" M 161.82868633655016 550.1977063404302 A 18.95241469333331 18.95241469333331 0 1 1 161.8286768603436 550.1787539288955"/><path fill="rgb(189, 131, 107)" stroke="none" paint-order="stroke fill markers" d=" M 131.37865809260268 530.3364380360335 A 18.95241469333331 18.95241469333331 0 1 1 131.3786486163961 530.3174856244989"/><path fill="rgb(189, 131, 107)" stroke="none" paint-order="stroke fill markers" d=" M 127.54191581322988 556.1886629370377 A 29.726666666666688 29.726666666666688 0 1 1 127.54190094989778 556.1589362753255"/><path fill="rgb(40, 159, 175)" stroke="none" paint-order="stroke fill markers" d=" M 114.02388711352944 490.63301767048983 A 29.72666666666663 29.72666666666663 0 1 1 114.02387225019734 490.6032910087776"/><path fill="rgb(40, 159, 175)" stroke="none" paint-order="stroke fill markers" d=" M 133.57329704601779 491.37789355240716 A 18.95241469333331 18.95241469333331 0 1 1 133.5732875698112 491.35894114087256"/><path fill="rgb(40, 159, 175)" stroke="none" paint-order="stroke fill markers" d=" M 87.42450106462343 515.8001844916721 A 18.95241469333331 18.95241469333331 0 1 1 87.42449158841687 515.7812320801374"/><path fill="rgb(20, 160, 168)" stroke="none" paint-order="stroke fill markers" d=" M 53.62976876712435 495.68863867888456 A 18.95241469333331 18.95241469333331 0 1 1 53.62975929091779 495.66968626734996"/><path fill="rgb(20, 160, 168)" stroke="none" paint-order="stroke fill markers" d=" M 4.15094629866968 512.8718482779425 A 18.95241469333331 18.95241469333331 0 1 1 4.150936822463123 512.8528958664078"/><path fill="rgb(20, 160, 168)" stroke="none" paint-order="stroke fill markers" d=" M 34.56412079314225 490.3893359458524 A 29.72666666666663 29.72666666666663 0 1 1 34.564105929810154 490.35960928414016"/><path fill="rgb(192, 129, 114)" stroke="none" paint-order="stroke fill markers" d=" M 2.860010975811349 555.1706145739294 A 18.95241469333331 18.95241469333331 0 1 1 2.8600014996047918 555.1516621623947"/><path fill="rgb(48, 158, 178)" stroke="none" paint-order="stroke fill markers" d=" M 195.6737017229463 270.4607424411124 A 29.726666666666688 29.726666666666688 0 1 1 195.6736868596142 270.4310157794002"/><path fill="rgb(48, 158, 178)" stroke="none" paint-order="stroke fill markers" d=" M 170.8097402311883 296.5852122655991 A 18.95241469333331 18.95241469333331 0 1 1 170.80973075498173 296.5662598540645"/><path fill="rgb(48, 158, 178)" stroke="none" paint-order="stroke fill markers" d=" M 215.20786759864944 269.2653341269066 A 18.95241469333331 18.95241469333331 0 1 1 215.20785812244287 269.246381715372"/><path fill="rgb(189, 131, 108)" stroke="none" paint-order="stroke fill markers" d=" M 212.93525098710165 310.6634733342936 A 18.95241469333331 18.95241469333331 0 1 1 212.93524151089508 310.644520922759"/><path fill="rgb(189, 131, 108)" stroke="none" paint-order="stroke fill markers" d=" M 208.80383012501215 336.35609657433946 A 29.726666666666688 29.726666666666688 0 1 1 208.80381526168006 336.32636991262723"/><path fill="rgb(189, 131, 108)" stroke="none" paint-order="stroke fill markers" d=" M 167.69773281994264 336.64835115765106 A 18.95241469333331 18.95241469333331 0 1 1 167.69772334373607 336.62939874611646"/><path fill="rgb(189, 131, 108)" stroke="none" paint-order="stroke fill markers" d=" M 129.4573700321534 306.77523072706117 A 18.95241469333331 18.95241469333331 0 1 1 129.45736055594682 306.7562783155266"/><path fill="rgb(189, 131, 108)" stroke="none" paint-order="stroke fill markers" d=" M 125.15235080590423 332.3718650547729 A 29.72666666666663 29.72666666666663 0 1 1 125.15233594257214 332.3421383930607"/><path fill="rgb(58, 162, 125)" stroke="none" paint-order="stroke fill markers" d=" M 168.13748566315968 379.83833355916926 A 29.726666666666688 29.726666666666688 0 1 1 168.13747079982758 379.808606897457"/><path fill="rgb(58, 162, 125)" stroke="none" paint-order="stroke fill markers" d=" M 127.10501707200757 381.9131011284663 A 18.95241469333331 18.95241469333331 0 1 1 127.10500759580101 381.8941487169317"/><path fill="rgb(196, 122, 162)" stroke="none" paint-order="stroke fill markers" d=" M 128.60927872159732 419.929195657498 A 18.95241469333331 18.95241469333331 0 1 1 128.60926924539075 419.9102432459634"/><path fill="rgb(196, 122, 162)" stroke="none" paint-order="stroke fill markers" d=" M 157.0228881397333 443.92844848795505 A 29.726666666666688 29.726666666666688 0 1 1 157.0228732764012 443.8987218262428"/><path fill="rgb(196, 122, 162)" stroke="none" paint-order="stroke fill markers" d=" M 176.43939552958807 441.07161706212753 A 18.95241469333331 18.95241469333331 0 1 1 176.4393860533815 441.05266465059293"/><path fill="rgb(58, 162, 125)" stroke="none" paint-order="stroke fill markers" d=" M 174.33989911803178 404.28543483827383 A 18.95241469333331 18.95241469333331 0 1 1 174.3398896418252 404.26648242673923"/><path fill="rgb(55, 162, 127)" stroke="none" paint-order="stroke fill markers" d=" M 208.75081743156755 380.88461898719186 A 18.95241469333331 18.95241469333331 0 1 1 208.75080795536098 380.86566657565726"/><path fill="rgb(197, 122, 160)" stroke="none" paint-order="stroke fill markers" d=" M 211.60237740712415 421.96972946955293 A 18.95241469333331 18.95241469333331 0 1 1 211.60236793091758 421.95077705801833"/><path fill="rgb(55, 162, 127)" stroke="none" paint-order="stroke fill markers" d=" M 45.28014828664345 159.324030119741 A 18.95241469333331 18.95241469333331 0 1 1 45.280138810436895 159.3050777082064"/><path fill="rgb(55, 162, 127)" stroke="none" paint-order="stroke fill markers" d=" M 86.17536540935191 155.83936971308708 A 29.726666666666688 29.726666666666688 0 1 1 86.17535054601981 155.80964305137485"/><path fill="rgb(55, 162, 127)" stroke="none" paint-order="stroke fill markers" d=" M 93.5646485102921 179.46592603387103 A 18.95241469333331 18.95241469333331 0 1 1 93.56463903408554 179.44697362233643"/><path fill="rgb(196, 122, 163)" stroke="none" paint-order="stroke fill markers" d=" M 92.28194095196477 219.58814547715633 A 18.95241469333331 18.95241469333331 0 1 1 92.28193147575821 219.56919306562173"/><path fill="rgb(42, 158, 175)" stroke="none" paint-order="stroke fill markers" d=" M 54.23231370675484 268.55227640103595 A 18.95241469333331 18.95241469333331 0 1 1 54.23230423054828 268.53332398950135"/><path fill="rgb(46, 158, 177)" stroke="none" paint-order="stroke fill markers" d=" M 89.16572787642758 292.5399112339979 A 18.95241469333331 18.95241469333331 0 1 1 89.16571840022102 292.5209588224633"/><path fill="rgb(46, 158, 177)" stroke="none" paint-order="stroke fill markers" d=" M 114.49059417979782 266.6554965892506 A 29.726666666666688 29.726666666666688 0 1 1 114.49057931646573 266.6257699275384"/><path fill="rgb(46, 158, 177)" stroke="none" paint-order="stroke fill markers" d=" M 134.0414457790293 265.9683056319517 A 18.95241469333331 18.95241469333331 0 1 1 134.04143630282272 265.9493532204171"/><path fill="rgb(55, 162, 127)" stroke="none" paint-order="stroke fill markers" d=" M 126.75968729753754 158.36424054593306 A 18.95241469333331 18.95241469333331 0 1 1 126.75967782133098 158.34528813439846"/><path fill="rgb(55, 162, 127)" stroke="none" paint-order="stroke fill markers" d=" M 167.67904816257555 155.08297590700863 A 29.726666666666688 29.726666666666688 0 1 1 167.67903329924346 155.0532492452964"/><path fill="rgb(195, 122, 166)" stroke="none" paint-order="stroke fill markers" d=" M 129.6328557876147 194.9422244229778 A 18.952414693333253 18.952414693333253 0 1 1 129.63284631140812 194.9232720114432"/><path fill="rgb(195, 122, 166)" stroke="none" paint-order="stroke fill markers" d=" M 155.82961763011633 220.34469508692166 A 29.726666666666688 29.726666666666688 0 1 1 155.82960276678423 220.31496842520943"/><path fill="rgb(195, 122, 166)" stroke="none" paint-order="stroke fill markers" d=" M 175.38725192942553 220.05657585905806 A 18.95241469333331 18.95241469333331 0 1 1 175.38724245321896 220.03762344752346"/><path fill="rgb(55, 162, 127)" stroke="none" paint-order="stroke fill markers" d=" M 174.89928162746088 178.83156448425314 A 18.95241469333331 18.95241469333331 0 1 1 174.8992721512543 178.81261207271854"/><path fill="rgb(55, 162, 127)" stroke="none" paint-order="stroke fill markers" d=" M 208.37638295389536 160.00645073394833 A 18.95241469333331 18.95241469333331 0 1 1 208.3763734776888 159.98749832241373"/><path fill="rgb(194, 122, 167)" stroke="none" paint-order="stroke fill markers" d=" M 210.94536304636677 195.25940687189564 A 18.95241469333331 18.95241469333331 0 1 1 210.9453535701602 195.24045446036104"/><path fill="rgb(60, 162, 124)" stroke="none" paint-order="stroke fill markers" d=" M 92.36318537398392 403.4926916486221 A 18.95241469333331 18.95241469333331 0 1 1 92.36317589777737 403.4737392370875"/><path fill="rgb(60, 162, 124)" stroke="none" paint-order="stroke fill markers" d=" M 86.43081236970016 378.87026660607506 A 29.726666666666688 29.726666666666688 0 1 1 86.43079750636807 378.84053994436283"/><path fill="rgb(60, 162, 124)" stroke="none" paint-order="stroke fill markers" d=" M 45.3772398257625 380.6299344874598 A 18.95241469333331 18.95241469333331 0 1 1 45.377230349555944 380.6109820759252"/><path fill="rgb(189, 131, 109)" stroke="none" paint-order="stroke fill markers" d=" M 44.35835251470519 334.81477542087384 A 29.726666666666688 29.726666666666688 0 1 1 44.35833765137309 334.7850487591616"/><path fill="rgb(189, 131, 108)" stroke="none" paint-order="stroke fill markers" d=" M 84.04493138135234 332.4699148115802 A 18.95241469333331 18.95241469333331 0 1 1 84.04492190514578 332.4509624000456"/><path fill="rgb(189, 131, 109)" stroke="none" paint-order="stroke fill markers" d=" M 48.86583982739444 309.33196562862526 A 18.95241469333331 18.95241469333331 0 1 1 48.86583035118788 309.31301321709066"/><path fill="rgb(189, 131, 109)" stroke="none" paint-order="stroke fill markers" d=" M 3.2510584796052626 334.6853874752812 A 18.95241469333331 18.95241469333331 0 1 1 3.2510490033987054 334.6664350637466"/><path fill="rgb(42, 158, 175)" stroke="none" paint-order="stroke fill markers" d=" M 8.588354524546105 293.85598451537663 A 18.95241469333331 18.95241469333331 0 1 1 8.588345048339548 293.83703210384203"/><path fill="rgb(42, 158, 175)" stroke="none" paint-order="stroke fill markers" d=" M 34.673691362681666 268.3898395550839 A 29.72666666666663 29.72666666666663 0 1 1 34.67367649934957 268.36011289337165"/><path fill="rgb(62, 162, 123)" stroke="none" paint-order="stroke fill markers" d=" M 6.102486037787344 156.33835308711127 A 29.726666666666688 29.726666666666688 0 1 1 6.10247117445525 156.30862642539904"/><path fill="rgb(62, 162, 123)" stroke="none" paint-order="stroke fill markers" d=" M 11.645219417865007 181.20668460197385 A 18.95241469333331 18.95241469333331 0 1 1 11.64520994165845 181.18773219043925"/><path fill="rgb(196, 122, 161)" stroke="none" paint-order="stroke fill markers" d=" M 13.40766491752521 222.61650054394067 A 18.95241469333331 18.95241469333331 0 1 1 13.407655441318653 222.59754813240608"/><path fill="rgb(196, 122, 163)" stroke="none" paint-order="stroke fill markers" d=" M 72.76773171546887 221.19213078674727 A 29.726666666666688 29.726666666666688 0 1 1 72.76771685213677 221.16240412503504"/><path fill="rgb(196, 122, 163)" stroke="none" paint-order="stroke fill markers" d=" M 45.42091754788697 196.48416713361848 A 18.95241469333331 18.95241469333331 0 1 1 45.420908071680415 196.46521472208389"/><path fill="rgb(63, 162, 122)" stroke="none" paint-order="stroke fill markers" d=" M 7.627795294547127 381.1641568487583 A 29.726666666666688 29.726666666666688 0 1 1 7.627780431215033 381.13443018704606"/><path fill="rgb(63, 162, 122)" stroke="none" paint-order="stroke fill markers" d=" M 12.508061081679273 406.4320438954114 A 18.95241469333331 18.95241469333331 0 1 1 12.508051605472716 406.4130914838768"/><path fill="rgb(195, 122, 165)" stroke="none" paint-order="stroke fill markers" d=" M 10.67791911000063 445.786500770008 A 18.95241469333331 18.95241469333331 0 1 1 10.677909633794073 445.7675483584734"/><path fill="rgb(195, 122, 165)" stroke="none" paint-order="stroke fill markers" d=" M 47.147296363691 419.81674100958793 A 18.95241469333331 18.95241469333331 0 1 1 47.14728688748444 419.79778859805333"/><path fill="rgb(195, 122, 165)" stroke="none" paint-order="stroke fill markers" d=" M 73.82701015286682 444.93596947268173 A 29.72666666666663 29.72666666666663 0 1 1 73.82699528953472 444.9062428109695"/><path fill="rgb(195, 122, 165)" stroke="none" paint-order="stroke fill markers" d=" M 93.37389581271543 444.0994709523617 A 18.95241469333331 18.95241469333331 0 1 1 93.37388633650887 444.0805185408271"/></g></g></g><g/><g/><g/><g clip-path="url(#qtNlGkPcBdTP)"><g/></g></g></g></svg>