<svg version="1.1" xmlns="http://www.w3.org/2000/svg" xmlns:xlink="http://www.w3.org/1999/xlink" width="920" height="600" style="width: 920px; height: 600px;"><defs><clipPath id="ecLTRRryEDwP"><path fill="none" stroke="none" d=" M 5 5 L 915 5 L 915 595 L 5 595 L 5 5 Z"/></clipPath><clipPath id="TpRczTpePKTQ"><path fill="none" stroke="none" d=" M 5 5 L 915 5 L 915 595 L 5 595 L 5 5 Z"/></clipPath><clipPath id="kDCvDaDTpEDv"><path fill="none" stroke="none" d=" M 5 5 L 915 5 L 915 595 L 5 595 L 5 5 Z"/></clipPath><clipPath id="DXvBcoOlyzsN"><path fill="none" stroke="none" d=" M 5 5 L 915 5 L 915 595 L 5 595 L 5 5 Z"/></clipPath></defs><g><g transform="scale(1,1) translate(0.5,0.5)"><rect fill="#FFFFFF" stroke="none" x="0" y="0" width="920" height="600"/><rect fill="#ffffff" stroke="none" x="0" y="0" width="920" height="600"/><rect fill="#FFFFFF" stroke="none" x="5" y="5" width="910" height="590"/><rect fill="#ffffff" stroke="none" x="5" y="5" width="910" height="590"/><g><rect fill="none" stroke="#e5e5e5" x="5" y="5" width="910" height="590" stroke-linejoin="bevel" stroke-miterlimit="10"/></g><g clip-path="url(#ecLTRRryEDwP)"><g/></g><g clip-path="url(#TpRczTpePKTQ)"><g/></g><g clip-path="url(#kDCvDaDTpEDv)"><g><g><path fill="none" stroke="none"/><path fill="rgb(138, 210, 224)" stroke="none" paint-order="stroke fill markers" d=" M 974.288686722115 601.8751086024278 A 29.726666666666688 29.726666666666688 0 1 1 974.2886718587829 601.8453819407155"/><path fill="rgb(27, 160, 170)" stroke="none" paint-order="stroke fill markers" d=" M 732.5270070104482 607.8103606308814 A 29.72666666666646 29.72666666666646 0 1 1 732.5269921471161 607.7806339691691"/><path fill="rgb(34, 159, 172)" stroke="none" paint-order="stroke fill markers" d=" M 897.1647460324559 605.0524670168218 A 29.72666666666646 29.72666666666646 0 1 1 897.1647311691238 605.0227403551095"/><path fill="rgb(34, 159, 172)" stroke="none" paint-order="stroke fill markers" d=" M 916.6323504798384 607.3417550067394 A 18.952414693333367 18.952414693333367 0 1 1 916.6323410036318 607.3228025952047"/><path fill="rgb(36, 159, 173)" stroke="none" paint-order="stroke fill markers" d=" M 788.0878981764258 496.8613413715776 A 18.952414693333367 18.952414693333367 0 1 1 788.0878887002193 496.842388960043"/><path fill="rgb(197, 122, 157)" stroke="none" paint-order="stroke fill markers" d=" M 807.5896390957184 446.8250861891716 A 29.726666666666688 29.726666666666688 0 1 1 807.5896242323863 446.79535952745937"/><path fill="rgb(196, 122, 163)" stroke="none" paint-order="stroke fill markers" d=" M 743.869780921163 447.58635521211403 A 18.952414693333367 18.952414693333367 0 1 1 743.8697714449565 447.56740280057943"/><path fill="rgb(36, 159, 173)" stroke="none" paint-order="stroke fill markers" d=" M 768.5725575707281 495.2776661216567 A 29.72666666666646 29.72666666666646 0 1 1 768.572542707396 495.24793945994446"/><path fill="rgb(36, 159, 173)" stroke="none" paint-order="stroke fill markers" d=" M 741.2432647324488 519.9967394626372 A 18.952414693333367 18.952414693333367 0 1 1 741.2432552562423 519.9777870511025"/><path fill="rgb(192, 129, 114)" stroke="none" paint-order="stroke fill markers" d=" M 735.0687336888755 559.832015365748 A 18.952414693333367 18.952414693333367 0 1 1 735.0687242126689 559.8130629542134"/><path fill="rgb(192, 129, 114)" stroke="none" paint-order="stroke fill markers" d=" M 776.0486970733546 562.5352348436993 A 29.726666666666688 29.726666666666688 0 1 1 776.0486822100224 562.505508181987"/><path fill="rgb(192, 129, 115)" stroke="none" paint-order="stroke fill markers" d=" M 812.2063271320883 559.8084128856434 A 18.952414693333367 18.952414693333367 0 1 1 812.2063176558818 559.7894604741088"/><path fill="rgb(192, 129, 114)" stroke="none" paint-order="stroke fill markers" d=" M 782.7844891802636 538.4465825504099 A 18.952414693333367 18.952414693333367 0 1 1 782.784479704057 538.4276301388752"/><path fill="rgb(34, 159, 172)" stroke="none" paint-order="stroke fill markers" d=" M 822.5227392238455 520.0492926936461 A 18.952414693333367 18.952414693333367 0 1 1 822.522729747639 520.0303402821114"/><path fill="rgb(192, 129, 115)" stroke="none" paint-order="stroke fill markers" d=" M 853.1365145566801 562.9942065080368 A 29.726666666666688 29.726666666666688 0 1 1 853.136499693348 562.9644798463245"/><path fill="rgb(36, 159, 173)" stroke="none" paint-order="stroke fill markers" d=" M 834.220632623938 609.2148705530611 A 18.952414693333367 18.952414693333367 0 1 1 834.2206231477314 609.1959181415265"/><path fill="rgb(36, 159, 173)" stroke="none" paint-order="stroke fill markers" d=" M 814.7332837524439 607.1872791244112 A 29.726666666666688 29.726666666666688 0 1 1 814.7332688891117 607.157552462699"/><path fill="rgb(27, 160, 170)" stroke="none" paint-order="stroke fill markers" d=" M 751.8269916772356 611.6578434244758 A 18.952414693333367 18.952414693333367 0 1 1 751.8269822010291 611.6388910129411"/><path fill="rgb(239, 187, 172)" stroke="none" paint-order="stroke fill markers" d=" M 949.3180848726063 332.96321292612186 A 29.726666666666688 29.726666666666688 0 1 1 949.3180700092742 332.9334862644096"/><path fill="rgb(53, 162, 128)" stroke="none" paint-order="stroke fill markers" d=" M 946.1900284090166 381.7242932558868 A 18.952414693333367 18.952414693333367 0 1 1 946.1900189328101 381.7053408443522"/><path fill="rgb(50, 162, 130)" stroke="none" paint-order="stroke fill markers" d=" M 909.416458414463 398.0890160041058 A 18.952414693333367 18.952414693333367 0 1 1 909.4164489382565 398.0700635925712"/><path fill="rgb(197, 122, 155)" stroke="none" paint-order="stroke fill markers" d=" M 937.3360702588132 422.0907867110617 A 18.95241469333314 18.95241469333314 0 1 1 937.3360607826066 422.0718342995271"/><path fill="rgb(197, 122, 155)" stroke="none" paint-order="stroke fill markers" d=" M 968.5609660056027 443.8780567171251 A 29.726666666666688 29.726666666666688 0 1 1 968.5609511422706 443.8483300554129"/><path fill="rgb(193, 122, 170)" stroke="none" paint-order="stroke fill markers" d=" M 908.8425248512378 452.21976313587936 A 18.952414693333367 18.952414693333367 0 1 1 908.8425153750313 452.20081072434476"/><path fill="rgb(149, 213, 175)" stroke="none" paint-order="stroke fill markers" d=" M 909.8946352021044 492.841105733214 A 18.95241469333314 18.95241469333314 0 1 1 909.8946257258979 492.8221533216794"/><path fill="rgb(149, 213, 175)" stroke="none" paint-order="stroke fill markers" d=" M 950.8832545991906 495.451233144826 A 29.726666666666688 29.726666666666688 0 1 1 950.8832397358585 495.4215064831138"/><path fill="rgb(149, 213, 175)" stroke="none" paint-order="stroke fill markers" d=" M 952.8918943684932 522.2038502393916 A 18.952414693333367 18.952414693333367 0 1 1 952.8918848922867 522.184897827857"/><path fill="rgb(241, 181, 218)" stroke="none" paint-order="stroke fill markers" d=" M 946.6795458980148 560.2817723866477 A 18.95241469333314 18.95241469333314 0 1 1 946.6795364218083 560.2628199751131"/><path fill="rgb(241, 181, 218)" stroke="none" paint-order="stroke fill markers" d=" M 927.1418912508759 559.1731973995693 A 29.726666666666688 29.726666666666688 0 1 1 927.1418763875438 559.143470737857"/><path fill="rgb(241, 181, 218)" stroke="none" paint-order="stroke fill markers" d=" M 902.1988604791495 533.0892070307234 A 18.95241469333314 18.95241469333314 0 1 1 902.198851002943 533.0702546191887"/><path fill="rgb(192, 129, 115)" stroke="none" paint-order="stroke fill markers" d=" M 860.2771454229146 539.1887646357084 A 18.952414693333367 18.952414693333367 0 1 1 860.2771359467081 539.1698122241737"/><path fill="rgb(34, 159, 172)" stroke="none" paint-order="stroke fill markers" d=" M 869.8692409636803 497.9012294248625 A 18.952414693333367 18.952414693333367 0 1 1 869.8692314874738 497.8822770133279"/><path fill="rgb(193, 122, 170)" stroke="none" paint-order="stroke fill markers" d=" M 889.387837341299 449.7743970401259 A 29.72666666666646 29.72666666666646 0 1 1 889.3878224779669 449.7446703784137"/><path fill="rgb(34, 159, 172)" stroke="none" paint-order="stroke fill markers" d=" M 850.396036709313 495.6829903784396 A 29.72666666666646 29.72666666666646 0 1 1 850.3960218459808 495.6532637167274"/><path fill="rgb(195, 122, 165)" stroke="none" paint-order="stroke fill markers" d=" M 789.8357568030967 337.59423019893063 A 18.95241469333314 18.95241469333314 0 1 1 789.8357473268902 337.57527778739603"/><path fill="rgb(195, 122, 165)" stroke="none" paint-order="stroke fill markers" d=" M 743.5494920814695 313.4192455340806 A 18.952414693333367 18.952414693333367 0 1 1 743.5494826052629 313.400293122546"/><path fill="rgb(195, 122, 165)" stroke="none" paint-order="stroke fill markers" d=" M 770.2910202705737 338.5013519952603 A 29.72666666666646 29.72666666666646 0 1 1 770.2910054072415 338.47162533354805"/><path fill="rgb(50, 162, 130)" stroke="none" paint-order="stroke fill markers" d=" M 777.2362292029848 386.6634883884918 A 18.952414693333367 18.952414693333367 0 1 1 777.2362197267782 386.64453597695723"/><path fill="rgb(57, 162, 126)" stroke="none" paint-order="stroke fill markers" d=" M 738.0405676250527 383.7592789599273 A 29.726666666666688 29.726666666666688 0 1 1 738.0405527617206 383.7295522982151"/><path fill="rgb(57, 162, 126)" stroke="none" paint-order="stroke fill markers" d=" M 744.7049027817295 407.89691178036026 A 18.95241469333314 18.95241469333314 0 1 1 744.704893305523 407.87795936882566"/><path fill="rgb(197, 122, 157)" stroke="none" paint-order="stroke fill markers" d=" M 777.1148404411604 424.393628763111 A 18.95241469333314 18.95241469333314 0 1 1 777.1148309649539 424.3746763515764"/><path fill="rgb(50, 162, 130)" stroke="none" paint-order="stroke fill markers" d=" M 817.930241093776 381.8087207182741 A 29.726666666666688 29.726666666666688 0 1 1 817.9302262304438 381.7789940565619"/><path fill="rgb(50, 162, 130)" stroke="none" paint-order="stroke fill markers" d=" M 826.4389866330373 404.58076273313884 A 18.95241469333314 18.95241469333314 0 1 1 826.4389771568308 404.56181032160424"/><path fill="rgb(197, 122, 157)" stroke="none" paint-order="stroke fill markers" d=" M 826.6406357486321 441.448354482837 A 18.952414693333367 18.952414693333367 0 1 1 826.6406262724256 441.4294020713024"/><path fill="rgb(193, 122, 170)" stroke="none" paint-order="stroke fill markers" d=" M 865.6766885177788 423.09188890388975 A 18.95241469333314 18.95241469333314 0 1 1 865.6766790415722 423.07293649235515"/><path fill="rgb(50, 162, 130)" stroke="none" paint-order="stroke fill markers" d=" M 901.0952767143699 375.1679747665184 A 29.72666666666646 29.72666666666646 0 1 1 901.0952618510378 375.13824810480617"/><path fill="rgb(50, 162, 130)" stroke="none" paint-order="stroke fill markers" d=" M 860.3623642265022 379.7902695137996 A 18.952414693333367 18.952414693333367 0 1 1 860.3623547502957 379.771317102265"/><path fill="rgb(196, 122, 163)" stroke="none" paint-order="stroke fill markers" d=" M 868.3095457993629 328.2252378438226 A 18.95241469333314 18.95241469333314 0 1 1 868.3095363231564 328.206285432288"/><path fill="rgb(239, 187, 172)" stroke="none" paint-order="stroke fill markers" d=" M 908.2298882254863 331.90865097531804 A 18.952414693333367 18.952414693333367 0 1 1 908.2298787492798 331.88969856378344"/><path fill="rgb(239, 187, 172)" stroke="none" paint-order="stroke fill markers" d=" M 954.6398812926432 307.9590744377935 A 18.952414693333367 18.952414693333367 0 1 1 954.6398718164367 307.9401220262589"/><path fill="rgb(46, 162, 132)" stroke="none" paint-order="stroke fill markers" d=" M 825.9234078702632 156.31639804834208 A 29.726666666666688 29.726666666666688 0 1 1 825.9233930069311 156.28667138662985"/><path fill="rgb(46, 162, 132)" stroke="none" paint-order="stroke fill markers" d=" M 835.3228675720711 178.34650696265805 A 18.952414693333367 18.952414693333367 0 1 1 835.3228580958646 178.32755455112346"/><path fill="rgb(196, 122, 162)" stroke="none" paint-order="stroke fill markers" d=" M 834.9700603967292 218.55787184241183 A 18.952414693333367 18.952414693333367 0 1 1 834.9700509205227 218.53891943087723"/><path fill="rgb(196, 122, 162)" stroke="none" paint-order="stroke fill markers" d=" M 786.9763186278844 197.76911450592718 A 18.952414693333367 18.952414693333367 0 1 1 786.9763091516779 197.75016209439258"/><path fill="rgb(46, 162, 132)" stroke="none" paint-order="stroke fill markers" d=" M 785.4447222589483 162.2923209335189 A 18.952414693333367 18.952414693333367 0 1 1 785.4447127827418 162.2733685219843"/><path fill="rgb(63, 162, 122)" stroke="none" paint-order="stroke fill markers" d=" M 745.4498328350978 155.7735447413463 A 29.726666666666688 29.726666666666688 0 1 1 745.4498179717657 155.74381807963408"/><path fill="rgb(63, 162, 122)" stroke="none" paint-order="stroke fill markers" d=" M 750.550643978888 180.91095261807732 A 18.952414693333367 18.952414693333367 0 1 1 750.5506345026815 180.89200020654272"/><path fill="rgb(196, 122, 163)" stroke="none" paint-order="stroke fill markers" d=" M 753.4978342796846 220.69141358506045 A 18.952414693333367 18.952414693333367 0 1 1 753.4978248034781 220.67246117352585"/><path fill="rgb(196, 122, 163)" stroke="none" paint-order="stroke fill markers" d=" M 733.9888403585312 222.38602258972173 A 29.726666666666688 29.726666666666688 0 1 1 733.9888254951991 222.3562959280095"/><path fill="rgb(62, 162, 123)" stroke="none" paint-order="stroke fill markers" d=" M 734.9078063488435 269.36592074690986 A 18.952414693333367 18.952414693333367 0 1 1 734.9077968726369 269.34696833537527"/><path fill="rgb(62, 162, 123)" stroke="none" paint-order="stroke fill markers" d=" M 775.9868389542166 268.08624117426245 A 29.72666666666646 29.72666666666646 0 1 1 775.9868240908845 268.0565145125502"/><path fill="rgb(62, 162, 123)" stroke="none" paint-order="stroke fill markers" d=" M 781.5045166133104 292.97010456213457 A 18.952414693333367 18.952414693333367 0 1 1 781.5045071371039 292.95115215059997"/><path fill="rgb(196, 122, 162)" stroke="none" paint-order="stroke fill markers" d=" M 815.5767185912196 221.63747211723717 A 29.72666666666646 29.72666666666646 0 1 1 815.5767037278874 221.60774545552493"/><path fill="rgb(138, 214, 186)" stroke="none" paint-order="stroke fill markers" d=" M 819.1387111901681 269.60135672611034 A 18.95241469333314 18.95241469333314 0 1 1 819.1387017139616 269.58240431457574"/><path fill="rgb(196, 122, 163)" stroke="none" paint-order="stroke fill markers" d=" M 820.7511036569827 306.51089247594564 A 18.95241469333314 18.95241469333314 0 1 1 820.7510941807761 306.49194006441104"/><path fill="rgb(196, 122, 163)" stroke="none" paint-order="stroke fill markers" d=" M 848.8591118252589 330.71983615285745 A 29.726666666666688 29.726666666666688 0 1 1 848.8590969619268 330.6901094911452"/><path fill="rgb(144, 208, 228)" stroke="none" paint-order="stroke fill markers" d=" M 970.1034193938965 165.63679873125648 A 29.72666666666646 29.72666666666646 0 1 1 970.1034045305644 165.60707206954424"/><path fill="rgb(65, 161, 121)" stroke="none" paint-order="stroke fill markers" d=" M 909.0456966137651 178.668198618549 A 18.952414693333367 18.952414693333367 0 1 1 909.0456871375586 178.64924620701441"/><path fill="rgb(144, 208, 228)" stroke="none" paint-order="stroke fill markers" d=" M 947.0845187961727 192.6264878320552 A 18.952414693333367 18.952414693333367 0 1 1 947.0845093199662 192.6075354205206"/><path fill="rgb(237, 188, 168)" stroke="none" paint-order="stroke fill markers" d=" M 953.7681700786234 229.84282088522218 A 18.952414693333367 18.952414693333367 0 1 1 953.7681606024169 229.82386847368758"/><path fill="rgb(139, 210, 224)" stroke="none" paint-order="stroke fill markers" d=" M 953.1424226746065 268.2320194423276 A 18.95241469333314 18.95241469333314 0 1 1 953.1424131983999 268.213067030793"/><path fill="rgb(139, 210, 224)" stroke="none" paint-order="stroke fill markers" d=" M 933.5844241581472 267.98267515591255 A 29.726666666666688 29.726666666666688 0 1 1 933.584409294815 267.9529484942003"/><path fill="rgb(139, 210, 224)" stroke="none" paint-order="stroke fill markers" d=" M 907.4220099078354 293.4048418016012 A 18.952414693333367 18.952414693333367 0 1 1 907.4220004316289 293.3858893900666"/><path fill="rgb(196, 122, 163)" stroke="none" paint-order="stroke fill markers" d=" M 915.8166824183672 219.79499316245142 A 18.95241469333314 18.95241469333314 0 1 1 915.8166729421607 219.77604075091682"/><path fill="rgb(196, 122, 163)" stroke="none" paint-order="stroke fill markers" d=" M 896.345143560447 222.03460637750277 A 29.72666666666646 29.72666666666646 0 1 1 896.3451286971149 222.00487971579054"/><path fill="rgb(138, 214, 186)" stroke="none" paint-order="stroke fill markers" d=" M 868.0419387536299 288.2781298607258 A 18.952414693333367 18.952414693333367 0 1 1 868.0419292774234 288.2591774491912"/><path fill="rgb(138, 214, 186)" stroke="none" paint-order="stroke fill markers" d=" M 859.9083999730606 265.2104301192491 A 29.72666666666646 29.72666666666646 0 1 1 859.9083851097284 265.1807034575369"/><path fill="rgb(196, 122, 163)" stroke="none" paint-order="stroke fill markers" d=" M 868.4536445313058 197.68039496688175 A 18.95241469333314 18.95241469333314 0 1 1 868.4536350550993 197.66144255534715"/><path fill="rgb(65, 161, 121)" stroke="none" paint-order="stroke fill markers" d=" M 904.3316010507333 153.30364026195548 A 29.726666666666688 29.726666666666688 0 1 1 904.3315861874012 153.27391360024325"/><path fill="rgb(65, 161, 121)" stroke="none" paint-order="stroke fill markers" d=" M 863.2263053224287 153.66616732982266 A 18.952414693333367 18.952414693333367 0 1 1 863.2262958462222 153.64721491828806"/><path fill="rgb(194, 127, 122)" stroke="none" paint-order="stroke fill markers" d=" M 945.9853950813451 111.6445586024787 A 29.726666666666688 29.726666666666688 0 1 1 945.985380218013 111.61483194076645"/><path fill="rgb(56, 157, 180)" stroke="none" paint-order="stroke fill markers" d=" M 751.1443985576966 72.93155649614528 A 18.952414693333367 18.952414693333367 0 1 1 751.1443890814901 72.91260408461066"/><path fill="rgb(189, 131, 107)" stroke="none" paint-order="stroke fill markers" d=" M 750.5459968501971 112.2886576556972 A 18.952414693333367 18.952414693333367 0 1 1 750.5459873739906 112.26970524416258"/><path fill="rgb(189, 131, 107)" stroke="none" paint-order="stroke fill markers" d=" M 791.635838336578 111.27973346999477 A 29.72666666666646 29.72666666666646 0 1 1 791.6358234732459 111.25000680828252"/><path fill="rgb(189, 131, 107)" stroke="none" paint-order="stroke fill markers" d=" M 795.120944588482 85.24246664713507 A 18.952414693333367 18.952414693333367 0 1 1 795.1209351122754 85.22351423560046"/><path fill="rgb(190, 130, 111)" stroke="none" paint-order="stroke fill markers" d=" M 827.429290766034 104.00747848766889 A 18.95241469333314 18.95241469333314 0 1 1 827.4292812898275 103.98852607613428"/><path fill="rgb(194, 127, 122)" stroke="none" paint-order="stroke fill markers" d=" M 905.6589108835913 104.99310849250094 A 18.952414693333367 18.952414693333367 0 1 1 905.6589014073847 104.97415608096632"/><path fill="rgb(190, 130, 111)" stroke="none" paint-order="stroke fill markers" d=" M 874.2325126719836 80.79294712236526 A 18.952414693333367 18.952414693333367 0 1 1 874.2325031957771 80.77399471083065"/><path fill="rgb(190, 130, 111)" stroke="none" paint-order="stroke fill markers" d=" M 868.4959186590168 105.53995982697757 A 29.726666666666688 29.726666666666688 0 1 1 868.4959037956846 105.51023316526532"/><path fill="rgb(18, 160, 167)" stroke="none" paint-order="stroke fill markers" d=" M 857.3299867998858 40.281447441245064 A 29.726666666666688 29.726666666666688 0 1 1 857.3299719365536 40.251720779532825"/><path fill="rgb(198, 122, 154)" stroke="none" paint-order="stroke fill markers" d=" M 900.2517666945021 -0.6194422264081823 A 29.726666666666688 29.726666666666688 0 1 1 900.2517518311699 -0.649168888120422"/><path fill="rgb(18, 160, 167)" stroke="none" paint-order="stroke fill markers" d=" M 876.2483041580799 46.31287458250142 A 18.952414693333367 18.952414693333367 0 1 1 876.2482946818734 46.293922170966816"/><path fill="rgb(134, 211, 219)" stroke="none" paint-order="stroke fill markers" d=" M 911.8934711651511 65.98517988747358 A 18.952414693333367 18.952414693333367 0 1 1 911.8934616889446 65.96622747593896"/><path fill="rgb(134, 211, 219)" stroke="none" paint-order="stroke fill markers" d=" M 941.7124784385583 43.02429136322803 A 29.72666666666646 29.72666666666646 0 1 1 941.7124635752261 42.99456470151579"/><path fill="rgb(134, 211, 219)" stroke="none" paint-order="stroke fill markers" d=" M 960.9070314349754 47.58397929556304 A 18.952414693333367 18.952414693333367 0 1 1 960.9070219587688 47.565026884028434"/><path fill="rgb(194, 127, 122)" stroke="none" paint-order="stroke fill markers" d=" M 955.9103048650081 90.08040388890709 A 18.952414693333367 18.952414693333367 0 1 1 955.9102953888016 90.06145147737247"/><path fill="rgb(195, 122, 164)" stroke="none" paint-order="stroke fill markers" d=" M 757.1719686503063 -5.512656512034937 A 18.952414693333367 18.952414693333367 0 1 1 757.1719591740998 -5.531608923569546"/><path fill="rgb(194, 122, 167)" stroke="none" paint-order="stroke fill markers" d=" M 835.4960932923036 -3.500231557279335 A 18.952414693333367 18.952414693333367 0 1 1 835.4960838160971 -3.5191839688139437"/><path fill="rgb(18, 160, 167)" stroke="none" paint-order="stroke fill markers" d=" M 826.3385291920474 62.27381152117539 A 18.952414693333367 18.952414693333367 0 1 1 826.3385197158409 62.25485910964078"/><path fill="rgb(56, 157, 180)" stroke="none" paint-order="stroke fill markers" d=" M 793.4561236144152 42.64156408890892 A 18.952414693333367 18.952414693333367 0 1 1 793.4561141382087 42.622611677374316"/><path fill="rgb(194, 122, 167)" stroke="none" paint-order="stroke fill markers" d=" M 815.9408076717739 -3.9669902624385713 A 29.726666666666688 29.726666666666688 0 1 1 815.9407928084418 -3.996716924150811"/><path fill="rgb(195, 122, 164)" stroke="none" paint-order="stroke fill markers" d=" M 737.6541480725227 -3.9744831967470873 A 29.726666666666688 29.726666666666688 0 1 1 737.6541332091906 -4.004209858459327"/><path fill="rgb(56, 157, 180)" stroke="none" paint-order="stroke fill markers" d=" M 774.0835404095419 45.90777541103955 A 29.72666666666646 29.72666666666646 0 1 1 774.0835255462098 45.87804874932731"/><path fill="rgb(198, 122, 154)" stroke="none" paint-order="stroke fill markers" d=" M 918.9791773206036 -7.479940665595791 A 18.952414693333367 18.952414693333367 0 1 1 918.9791678443971 -7.4988930771304"/><path fill="rgb(198, 122, 154)" stroke="none" paint-order="stroke fill markers" d=" M 868.617482427632 -22.036481365808527 A 18.952414693333367 18.952414693333367 0 1 1 868.6174729514255 -22.055433777343136"/><path fill="rgb(40, 159, 175)" stroke="none" paint-order="stroke fill markers" d=" M 145.47107379657712 47.479384589924734 A 18.95241469333331 18.95241469333331 0 1 1 145.47106432037054 47.46043217839013"/><path fill="rgb(197, 122, 158)" stroke="none" paint-order="stroke fill markers" d=" M 85.89744254462289 -1.576815785394274 A 29.726666666666688 29.726666666666688 0 1 1 85.8974276812908 -1.6065424471065137"/><path fill="rgb(36, 159, 173)" stroke="none" paint-order="stroke fill markers" d=" M 45.03232740747433 43.04262780020042 A 29.726666666666688 29.726666666666688 0 1 1 45.03231254414223 43.01290113848818"/><path fill="rgb(36, 159, 173)" stroke="none" paint-order="stroke fill markers" d=" M 64.52058227918923 45.05737634161528 A 18.95241469333331 18.95241469333331 0 1 1 64.52057280298267 45.038423930080675"/><path fill="rgb(192, 129, 115)" stroke="none" paint-order="stroke fill markers" d=" M 63.318587975692196 84.97529080083041 A 18.95241469333331 18.95241469333331 0 1 1 63.31857849948564 84.9563383892958"/><path fill="rgb(192, 129, 115)" stroke="none" paint-order="stroke fill markers" d=" M 56.22766678924887 108.81603811809248 A 29.726666666666688 29.726666666666688 0 1 1 56.227651925916774 108.78631145638023"/><path fill="rgb(192, 129, 115)" stroke="none" paint-order="stroke fill markers" d=" M 15.29089543267935 105.68976448775436 A 18.95241469333331 18.95241469333331 0 1 1 15.290885956472792 105.67081207621975"/><path fill="rgb(36, 159, 173)" stroke="none" paint-order="stroke fill markers" d=" M 17.33271005441395 67.5233507699885 A 18.95241469333331 18.95241469333331 0 1 1 17.332700578207394 67.50439835845388"/><path fill="rgb(197, 122, 157)" stroke="none" paint-order="stroke fill markers" d=" M 23.456952935937693 -3.192170577163324 A 18.95241469333331 18.95241469333331 0 1 1 23.456943459731136 -3.211122988697933"/><path fill="rgb(194, 122, 168)" stroke="none" paint-order="stroke fill markers" d=" M 188.13580373834083 1.794652463753664 A 18.952414693333367 18.952414693333367 0 1 1 188.13579426213425 1.7757000522190554"/><path fill="rgb(194, 122, 168)" stroke="none" paint-order="stroke fill markers" d=" M 168.59198822569164 0.8588703297953089 A 29.726666666666688 29.726666666666688 0 1 1 168.59197336235954 0.8291436680830692"/><path fill="rgb(34, 159, 172)" stroke="none" paint-order="stroke fill markers" d=" M 206.88364207671344 46.70416226755776 A 29.726666666666688 29.726666666666688 0 1 1 206.88362721338135 46.674435605845524"/><path fill="rgb(194, 128, 120)" stroke="none" paint-order="stroke fill markers" d=" M 216.8561464147786 111.59087581618337 A 29.726666666666688 29.726666666666688 0 1 1 216.8561315514465 111.56114915447112"/><path fill="rgb(194, 128, 120)" stroke="none" paint-order="stroke fill markers" d=" M 176.35904772324113 105.7021875306524 A 18.95241469333331 18.95241469333331 0 1 1 176.35903824703456 105.68323511911778"/><path fill="rgb(34, 159, 172)" stroke="none" paint-order="stroke fill markers" d=" M 179.00114392872717 71.06435647791102 A 18.95241469333331 18.95241469333331 0 1 1 179.0011344525206 71.0454040663764"/><path fill="rgb(191, 130, 113)" stroke="none" paint-order="stroke fill markers" d=" M 143.5880605665675 88.43236033646656 A 18.95241469333331 18.95241469333331 0 1 1 143.58805109036092 88.41340792493195"/><path fill="rgb(191, 130, 113)" stroke="none" paint-order="stroke fill markers" d=" M 137.3481584597127 112.85480309032835 A 29.726666666666688 29.726666666666688 0 1 1 137.3481435963806 112.8250764286161"/><path fill="rgb(191, 130, 113)" stroke="none" paint-order="stroke fill markers" d=" M 96.31890278236318 110.73613388308058 A 18.95241469333331 18.95241469333331 0 1 1 96.31889330615662 110.71718147154597"/><path fill="rgb(40, 159, 175)" stroke="none" paint-order="stroke fill markers" d=" M 99.29230529038063 71.84803255393558 A 18.95241469333331 18.95241469333331 0 1 1 99.29229581417407 71.82908014240097"/><path fill="rgb(40, 159, 175)" stroke="none" paint-order="stroke fill markers" d=" M 125.9226003800718 46.69927238555863 A 29.72666666666663 29.72666666666663 0 1 1 125.9225855167397 46.66954572384639"/><path fill="rgb(197, 122, 158)" stroke="none" paint-order="stroke fill markers" d=" M 105.00221941870666 -6.663298643157191 A 18.95241469333331 18.95241469333331 0 1 1 105.0022099425001 -6.6822510546917995"/><path fill="rgb(196, 122, 163)" stroke="none" paint-order="stroke fill markers" d=" M 508.2138133201584 -4.44748508062014 A 18.952414693333367 18.952414693333367 0 1 1 508.21380384395184 -4.466437492154749"/><path fill="rgb(194, 122, 167)" stroke="none" paint-order="stroke fill markers" d=" M 590.7737946280699 -5.163867102575978 A 18.95241469333314 18.95241469333314 0 1 1 590.7737851518634 -5.182819514110586"/><path fill="rgb(194, 122, 167)" stroke="none" paint-order="stroke fill markers" d=" M 571.2165495813404 -5.488381280957583 A 29.726666666666688 29.726666666666688 0 1 1 571.2165347180082 -5.518107942669823"/><path fill="rgb(190, 130, 111)" stroke="none" paint-order="stroke fill markers" d=" M 581.9341569237295 108.560942585269 A 18.952414693333367 18.952414693333367 0 1 1 581.934147447523 108.54199017373439"/><path fill="rgb(190, 130, 111)" stroke="none" paint-order="stroke fill markers" d=" M 623.0053738164236 110.00507884217552 A 29.726666666666688 29.726666666666688 0 1 1 623.0053589530914 109.97535218046328"/><path fill="rgb(190, 130, 111)" stroke="none" paint-order="stroke fill markers" d=" M 628.6655924036343 85.21002818650811 A 18.952414693333367 18.952414693333367 0 1 1 628.6655829274277 85.1910757749735"/><path fill="rgb(191, 130, 113)" stroke="none" paint-order="stroke fill markers" d=" M 704.5424738554952 109.30530704381022 A 29.72666666666646 29.72666666666646 0 1 1 704.5424589921631 109.27558038209797"/><path fill="rgb(191, 130, 113)" stroke="none" paint-order="stroke fill markers" d=" M 710.9635722314445 85.00318925007366 A 18.952414693333367 18.952414693333367 0 1 1 710.963562755238 84.98423683853905"/><path fill="rgb(191, 130, 113)" stroke="none" paint-order="stroke fill markers" d=" M 663.5297678222282 106.97386569036894 A 18.95241469333314 18.95241469333314 0 1 1 663.5297583460217 106.95491327883433"/><path fill="rgb(38, 159, 174)" stroke="none" paint-order="stroke fill markers" d=" M 664.8317512368767 68.29127425537115 A 18.952414693333367 18.952414693333367 0 1 1 664.8317417606702 68.27232184383654"/><path fill="rgb(38, 159, 174)" stroke="none" paint-order="stroke fill markers" d=" M 691.994931775426 43.46772831651822 A 29.726666666666688 29.726666666666688 0 1 1 691.9949169120939 43.43800165480598"/><path fill="rgb(38, 159, 174)" stroke="none" paint-order="stroke fill markers" d=" M 711.5202480691066 44.85926162641397 A 18.952414693333367 18.952414693333367 0 1 1 711.5202385929001 44.84030921487936"/><path fill="rgb(196, 122, 163)" stroke="none" paint-order="stroke fill markers" d=" M 650.5426851444188 -2.1710625967203896 A 29.726666666666688 29.726666666666688 0 1 1 650.5426702810867 -2.2007892584326294"/><path fill="rgb(38, 159, 174)" stroke="none" paint-order="stroke fill markers" d=" M 632.3173243720337 45.261798923200104 A 18.95241469333314 18.95241469333314 0 1 1 632.3173148958272 45.2428465116655"/><path fill="rgb(38, 159, 174)" stroke="none" paint-order="stroke fill markers" d=" M 612.7787191496402 44.17806380803995 A 29.726666666666688 29.726666666666688 0 1 1 612.7787042863081 44.14833714632771"/><path fill="rgb(196, 122, 163)" stroke="none" paint-order="stroke fill markers" d=" M 670.0337365651089 -4.145689757254104 A 18.95241469333314 18.95241469333314 0 1 1 670.0337270889024 -4.1646421687887125"/><path fill="rgb(40, 159, 175)" stroke="none" paint-order="stroke fill markers" d=" M 368.90215376567727 44.15290901904541 A 29.726666666666574 29.726666666666574 0 1 1 368.9021389023452 44.12318235733317"/><path fill="rgb(40, 159, 175)" stroke="none" paint-order="stroke fill markers" d=" M 388.4554383720021 44.7295050472128 A 18.952414693333367 18.952414693333367 0 1 1 388.45542889579554 44.71055263567819"/><path fill="rgb(190, 130, 111)" stroke="none" paint-order="stroke fill markers" d=" M 386.95936362344725 83.92622056794164 A 18.952414693333367 18.952414693333367 0 1 1 386.9593541472407 83.90726815640703"/><path fill="rgb(190, 130, 111)" stroke="none" paint-order="stroke fill markers" d=" M 381.37858532213176 108.77090325212805 A 29.726666666666688 29.726666666666688 0 1 1 381.3785704587997 108.7411765904158"/><path fill="rgb(189, 131, 108)" stroke="none" paint-order="stroke fill markers" d=" M 420.37351997995546 108.91263687206947 A 18.952414693333367 18.952414693333367 0 1 1 420.3735105037489 108.89368446053486"/><path fill="rgb(189, 131, 108)" stroke="none" paint-order="stroke fill markers" d=" M 465.6583996359141 83.00590481184076 A 18.952414693333253 18.952414693333253 0 1 1 465.65839015970755 82.98695240030615"/><path fill="rgb(189, 131, 108)" stroke="none" paint-order="stroke fill markers" d=" M 461.4801020264529 108.67275165105082 A 29.726666666666688 29.726666666666688 0 1 1 461.48008716312086 108.64302498933857"/><path fill="rgb(189, 131, 109)" stroke="none" paint-order="stroke fill markers" d=" M 539.5950060127188 104.98687904680469 A 29.726666666666745 29.726666666666745 0 1 1 539.5949911493867 104.95715238509244"/><path fill="rgb(189, 131, 109)" stroke="none" paint-order="stroke fill markers" d=" M 498.4874419103167 104.95161224440994 A 18.952414693333253 18.952414693333253 0 1 1 498.48743243411013 104.93265983287533"/><path fill="rgb(36, 159, 173)" stroke="none" paint-order="stroke fill markers" d=" M 469.5116226902475 43.814699211589186 A 18.952414693333367 18.952414693333367 0 1 1 469.51161321404095 43.79574680005458"/><path fill="rgb(196, 122, 163)" stroke="none" paint-order="stroke fill markers" d=" M 488.74226151477563 -2.208019850542769 A 29.726666666666688 29.726666666666688 0 1 1 488.74224665144357 -2.2377465122550086"/><path fill="rgb(27, 160, 170)" stroke="none" paint-order="stroke fill markers" d=" M 533.2931976119805 38.187704713371545 A 29.726666666666745 29.726666666666745 0 1 1 533.2931827486484 38.157978051659306"/><path fill="rgb(27, 160, 170)" stroke="none" paint-order="stroke fill markers" d=" M 504.1629847840174 61.67318377774666 A 18.952414693333367 18.952414693333367 0 1 1 504.1629753078108 61.65423136621205"/><path fill="rgb(27, 160, 170)" stroke="none" paint-order="stroke fill markers" d=" M 552.6104962287466 41.904970159089316 A 18.952414693333367 18.952414693333367 0 1 1 552.61048675254 41.88601774755471"/><path fill="rgb(38, 159, 174)" stroke="none" paint-order="stroke fill markers" d=" M 585.8829848039982 69.16670083687518 A 18.95241469333314 18.95241469333314 0 1 1 585.8829753277917 69.14774842534057"/><path fill="rgb(189, 131, 109)" stroke="none" paint-order="stroke fill markers" d=" M 544.018814747119 79.4567809637291 A 18.952414693333367 18.952414693333367 0 1 1 544.0188052709125 79.43782855219449"/><path fill="rgb(194, 122, 168)" stroke="none" paint-order="stroke fill markers" d=" M 406.8556007650985 -5.682368136632249 A 29.726666666666688 29.726666666666688 0 1 1 406.8555859017664 -5.712094798344489"/><path fill="rgb(194, 122, 168)" stroke="none" paint-order="stroke fill markers" d=" M 426.3964065204744 -4.658480002747524 A 18.952414693333367 18.952414693333367 0 1 1 426.3963970442678 -4.677432414282133"/><path fill="rgb(36, 159, 173)" stroke="none" paint-order="stroke fill markers" d=" M 450.00926462423917 42.011429125862264 A 29.726666666666688 29.726666666666688 0 1 1 450.0092497609071 41.981702464150025"/><path fill="rgb(36, 159, 173)" stroke="none" paint-order="stroke fill markers" d=" M 422.49091498274294 66.6097694896971 A 18.952414693333253 18.952414693333253 0 1 1 422.49090550653636 66.59081707816249"/><path fill="rgb(197, 122, 160)" stroke="none" paint-order="stroke fill markers" d=" M 326.9232516083653 -4.100878830791316 A 29.726666666666688 29.726666666666688 0 1 1 326.92323674503325 -4.130605492503556"/><path fill="rgb(50, 157, 178)" stroke="none" paint-order="stroke fill markers" d=" M 287.30581774934313 43.8667561525217 A 29.726666666666688 29.726666666666688 0 1 1 287.30580288601107 43.83702949080946"/><path fill="rgb(50, 157, 178)" stroke="none" paint-order="stroke fill markers" d=" M 262.80442460423734 70.17316149648002 A 18.952414693333253 18.952414693333253 0 1 1 262.80441512803077 70.1542090849454"/><path fill="rgb(34, 159, 172)" stroke="none" paint-order="stroke fill markers" d=" M 226.35600780027306 48.933203399611784 A 18.95241469333331 18.95241469333331 0 1 1 226.3559983240665 48.91425098807718"/><path fill="rgb(197, 122, 160)" stroke="none" paint-order="stroke fill markers" d=" M 247.08654225793697 -2.088534992318614 A 29.726666666666688 29.726666666666688 0 1 1 247.08652739460487 -2.118261654030854"/><path fill="rgb(197, 122, 160)" stroke="none" paint-order="stroke fill markers" d=" M 266.36055074769064 -6.123424741114832 A 18.952414693333253 18.952414693333253 0 1 1 266.36054127148407 -6.14237715264944"/><path fill="rgb(197, 122, 160)" stroke="none" paint-order="stroke fill markers" d=" M 346.23505207838747 -7.859984587563304 A 18.952414693333253 18.952414693333253 0 1 1 346.2350426021809 -7.878936999097912"/><path fill="rgb(58, 162, 125)" stroke="none" paint-order="stroke fill markers" d=" M 332.790326364837 271.08137399425215 A 18.952414693333253 18.952414693333253 0 1 1 332.7903168886304 271.06242158271755"/><path fill="rgb(197, 122, 157)" stroke="none" paint-order="stroke fill markers" d=" M 333.9151148403293 225.71727135880167 A 29.726666666666688 29.726666666666688 0 1 1 333.9150999769972 225.68754469708944"/><path fill="rgb(197, 122, 157)" stroke="none" paint-order="stroke fill markers" d=" M 303.63445080269054 203.1259190209181 A 18.952414693333253 18.952414693333253 0 1 1 303.63444132648397 203.1069666093835"/><path fill="rgb(62, 162, 123)" stroke="none" paint-order="stroke fill markers" d=" M 342.70850252255747 156.3454830803787 A 29.726666666666688 29.726666666666688 0 1 1 342.7084876592254 156.31575641866647"/><path fill="rgb(62, 162, 123)" stroke="none" paint-order="stroke fill markers" d=" M 301.6308807043843 157.6563333834946 A 18.952414693333253 18.952414693333253 0 1 1 301.63087122817774 157.63738097196"/><path fill="rgb(58, 162, 125)" stroke="none" paint-order="stroke fill markers" d=" M 261.7333898133831 157.7549139683531 A 29.726666666666688 29.726666666666688 0 1 1 261.73337495005103 157.72518730664086"/><path fill="rgb(58, 162, 125)" stroke="none" paint-order="stroke fill markers" d=" M 267.96751026680096 182.18116227535882 A 18.952414693333367 18.952414693333367 0 1 1 267.9675007905944 182.16220986382422"/><path fill="rgb(195, 122, 164)" stroke="none" paint-order="stroke fill markers" d=" M 221.91766112548538 199.9178775895457 A 18.952414693333367 18.952414693333367 0 1 1 221.9176516492788 199.8989251780111"/><path fill="rgb(58, 162, 125)" stroke="none" paint-order="stroke fill markers" d=" M 220.70363674463368 159.86681167285303 A 18.952414693333367 18.952414693333367 0 1 1 220.7036272684271 159.84785926131843"/><path fill="rgb(194, 128, 120)" stroke="none" paint-order="stroke fill markers" d=" M 226.1871320697325 89.50164299776884 A 18.95241469333331 18.95241469333331 0 1 1 226.18712259352594 89.48269058623423"/><path fill="rgb(192, 129, 114)" stroke="none" paint-order="stroke fill markers" d=" M 257.2689217362443 106.08596047110075 A 18.952414693333367 18.952414693333367 0 1 1 257.2689122600377 106.06700805956613"/><path fill="rgb(192, 129, 114)" stroke="none" paint-order="stroke fill markers" d=" M 298.22429749628253 109.03752187660655 A 29.726666666666574 29.726666666666574 0 1 1 298.22428263295046 109.0077952148943"/><path fill="rgb(190, 130, 111)" stroke="none" paint-order="stroke fill markers" d=" M 340.3028912087065 107.41849011730824 A 18.952414693333367 18.952414693333367 0 1 1 340.30288173249994 107.39953770577362"/><path fill="rgb(192, 129, 114)" stroke="none" paint-order="stroke fill markers" d=" M 305.16894126477615 85.09374940278099 A 18.952414693333253 18.952414693333253 0 1 1 305.1689317885696 85.07479699124637"/><path fill="rgb(50, 157, 178)" stroke="none" paint-order="stroke fill markers" d=" M 306.8207112498016 42.27501231315637 A 18.952414693333253 18.952414693333253 0 1 1 306.82070177359503 42.25605990162176"/><path fill="rgb(40, 159, 175)" stroke="none" paint-order="stroke fill markers" d=" M 342.45068270898884 69.4074800377457 A 18.952414693333253 18.952414693333253 0 1 1 342.45067323278226 69.38852762621109"/><path fill="rgb(65, 161, 121)" stroke="none" paint-order="stroke fill markers" d=" M 298.0441472275185 297.955837206933 A 18.952414693333253 18.952414693333253 0 1 1 298.04413775131195 297.9368847953984"/><path fill="rgb(193, 122, 170)" stroke="none" paint-order="stroke fill markers" d=" M 300.4819222171139 339.75720134206125 A 18.952414693333367 18.952414693333367 0 1 1 300.4819127409073 339.73824893052665"/><path fill="rgb(58, 162, 125)" stroke="none" paint-order="stroke fill markers" d=" M 330.31853089618863 385.82157912784044 A 29.726666666666688 29.726666666666688 0 1 1 330.31851603285656 385.7918524661282"/><path fill="rgb(58, 162, 125)" stroke="none" paint-order="stroke fill markers" d=" M 336.85916400453954 410.04328937729395 A 18.952414693333253 18.952414693333253 0 1 1 336.85915452833297 410.02433696575935"/><path fill="rgb(194, 122, 167)" stroke="none" paint-order="stroke fill markers" d=" M 290.3380298986505 424.54515837302836 A 18.952414693333253 18.952414693333253 0 1 1 290.33802042244395 424.52620596149376"/><path fill="rgb(58, 162, 125)" stroke="none" paint-order="stroke fill markers" d=" M 289.31766032924094 388.2939006255724 A 18.952414693333367 18.952414693333367 0 1 1 289.31765085303437 388.2749482140378"/><path fill="rgb(51, 162, 129)" stroke="none" paint-order="stroke fill markers" d=" M 255.34089002041316 406.48417575806855 A 18.952414693333253 18.952414693333253 0 1 1 255.34088054420658 406.46522334653395"/><path fill="rgb(51, 162, 129)" stroke="none" paint-order="stroke fill markers" d=" M 247.29284004100822 383.3504482594065 A 29.726666666666688 29.726666666666688 0 1 1 247.29282517767612 383.3207215976943"/><path fill="rgb(196, 122, 163)" stroke="none" paint-order="stroke fill markers" d=" M 222.11622736790315 335.0190564652619 A 18.95241469333331 18.95241469333331 0 1 1 222.11621789169658 335.0001040537273"/><path fill="rgb(193, 122, 170)" stroke="none" paint-order="stroke fill markers" d=" M 281.0324543337537 337.2515718751064 A 29.726666666666688 29.726666666666688 0 1 1 281.03243947042165 337.22184521339415"/><path fill="rgb(193, 122, 170)" stroke="none" paint-order="stroke fill markers" d=" M 257.377579402368 310.5433283949234 A 18.952414693333253 18.952414693333253 0 1 1 257.3775699261614 310.5243759833888"/><path fill="rgb(63, 162, 122)" stroke="none" paint-order="stroke fill markers" d=" M 220.4714104259993 297.18327882434767 A 18.952414693333367 18.952414693333367 0 1 1 220.47140094979272 297.16432641281307"/><path fill="rgb(195, 122, 164)" stroke="none" paint-order="stroke fill markers" d=" M 249.15175051639045 224.69700920215735 A 29.726666666666688 29.726666666666688 0 1 1 249.15173565305835 224.66728254044511"/><path fill="rgb(195, 122, 164)" stroke="none" paint-order="stroke fill markers" d=" M 268.67297193892324 223.22354838133174 A 18.952414693333253 18.952414693333253 0 1 1 268.67296246271667 223.20459596979714"/><path fill="rgb(65, 161, 121)" stroke="none" paint-order="stroke fill markers" d=" M 252.49891984589925 272.48442825809803 A 18.952414693333367 18.952414693333367 0 1 1 252.49891036969268 272.46547584656344"/><path fill="rgb(65, 161, 121)" stroke="none" paint-order="stroke fill markers" d=" M 293.60645914654157 272.43355913137395 A 29.726666666666688 29.726666666666688 0 1 1 293.6064442832095 272.4038324696617"/><path fill="rgb(68, 161, 119)" stroke="none" paint-order="stroke fill markers" d=" M 417.3277690855563 271.1163279919067 A 18.952414693333367 18.952414693333367 0 1 1 417.32775960934976 271.0973755803721"/><path fill="rgb(195, 122, 165)" stroke="none" paint-order="stroke fill markers" d=" M 435.3959734722633 224.09404882303681 A 18.952414693333253 18.952414693333253 0 1 1 435.3959639960567 224.07509641150222"/><path fill="rgb(68, 161, 119)" stroke="none" paint-order="stroke fill markers" d=" M 458.4180443956105 272.1128092655718 A 29.726666666666688 29.726666666666688 0 1 1 458.4180295322784 272.08308260385957"/><path fill="rgb(68, 161, 119)" stroke="none" paint-order="stroke fill markers" d=" M 461.9144472968978 298.1442209921858 A 18.952414693333253 18.952414693333253 0 1 1 461.9144378206912 298.1252685806512"/><path fill="rgb(194, 122, 169)" stroke="none" paint-order="stroke fill markers" d=" M 418.7276135017693 312.00986009817353 A 18.952414693333367 18.952414693333367 0 1 1 418.72760402556275 311.99090768663893"/><path fill="rgb(194, 122, 169)" stroke="none" paint-order="stroke fill markers" d=" M 443.311653400623 338.2753195408278 A 29.726666666666688 29.726666666666688 0 1 1 443.31163853729095 338.2455928791156"/><path fill="rgb(194, 122, 169)" stroke="none" paint-order="stroke fill markers" d=" M 462.8314087621471 339.7769832371278 A 18.952414693333367 18.952414693333367 0 1 1 462.8313992859405 339.7580308255932"/><path fill="rgb(60, 162, 124)" stroke="none" paint-order="stroke fill markers" d=" M 449.24361285816184 386.8012799119648 A 18.952414693333253 18.952414693333253 0 1 1 449.24360338195527 386.7823275004302"/><path fill="rgb(197, 122, 155)" stroke="none" paint-order="stroke fill markers" d=" M 453.4084893254912 430.97032551159157 A 18.952414693333367 18.952414693333367 0 1 1 453.4084798492846 430.95137310005697"/><path fill="rgb(62, 162, 123)" stroke="none" paint-order="stroke fill markers" d=" M 416.84443358593654 407.5941617066894 A 18.952414693333253 18.952414693333253 0 1 1 416.84442410972997 407.5752092951548"/><path fill="rgb(62, 162, 123)" stroke="none" paint-order="stroke fill markers" d=" M 411.30457153967285 382.72405042351727 A 29.726666666666688 29.726666666666688 0 1 1 411.3045566763408 382.69432376180504"/><path fill="rgb(196, 122, 163)" stroke="none" paint-order="stroke fill markers" d=" M 373.20043652744124 427.71387603003654 A 18.952414693333253 18.952414693333253 0 1 1 373.20042705123467 427.69492361850195"/><path fill="rgb(62, 162, 123)" stroke="none" paint-order="stroke fill markers" d=" M 370.2266925878801 384.02928962455405 A 18.952414693333253 18.952414693333253 0 1 1 370.22668311167354 384.01033721301945"/><path fill="rgb(195, 122, 165)" stroke="none" paint-order="stroke fill markers" d=" M 362.7277507218974 337.58665048427486 A 29.726666666666688 29.726666666666688 0 1 1 362.7277358585653 337.5569238225626"/><path fill="rgb(195, 122, 165)" stroke="none" paint-order="stroke fill markers" d=" M 382.2805543969843 336.9864960391328 A 18.952414693333367 18.952414693333367 0 1 1 382.28054492077774 336.9675436275982"/><path fill="rgb(195, 122, 165)" stroke="none" paint-order="stroke fill markers" d=" M 336.2555399487339 312.3442657576287 A 18.952414693333367 18.952414693333367 0 1 1 336.2555304725273 312.3253133460941"/><path fill="rgb(72, 161, 117)" stroke="none" paint-order="stroke fill markers" d=" M 537.8226866716493 269.8839367955222 A 29.72666666666663 29.72666666666663 0 1 1 537.8226718083172 269.85421013380994"/><path fill="rgb(72, 161, 117)" stroke="none" paint-order="stroke fill markers" d=" M 496.7772015572103 267.99722264076695 A 18.952414693333367 18.952414693333367 0 1 1 496.7771920810037 267.97827022923235"/><path fill="rgb(194, 122, 169)" stroke="none" paint-order="stroke fill markers" d=" M 495.44091328754547 223.92381928342377 A 29.726666666666688 29.726666666666688 0 1 1 495.4408984242134 223.89409262171154"/><path fill="rgb(194, 122, 169)" stroke="none" paint-order="stroke fill markers" d=" M 470.80895021641 197.6822435712678 A 18.952414693333253 18.952414693333253 0 1 1 470.8089407402034 197.6632911597332"/><path fill="rgb(65, 161, 121)" stroke="none" paint-order="stroke fill markers" d=" M 509.157844752087 180.12642063909914 A 18.952414693333253 18.952414693333253 0 1 1 509.1578352758804 180.10746822756454"/><path fill="rgb(65, 161, 121)" stroke="none" paint-order="stroke fill markers" d=" M 504.7570156101346 154.58339520293453 A 29.726666666666688 29.726666666666688 0 1 1 504.75700074680253 154.5536685412223"/><path fill="rgb(65, 161, 121)" stroke="none" paint-order="stroke fill markers" d=" M 463.6494302620344 154.5928460537183 A 18.952414693333253 18.952414693333253 0 1 1 463.64942078582783 154.5738936421837"/><path fill="rgb(58, 162, 125)" stroke="none" paint-order="stroke fill markers" d=" M 428.9703582750979 180.2904753288915 A 18.952414693333367 18.952414693333367 0 1 1 428.97034879889134 180.2715229173569"/><path fill="rgb(58, 162, 125)" stroke="none" paint-order="stroke fill markers" d=" M 422.41636055741543 156.0778029751898 A 29.726666666666688 29.726666666666688 0 1 1 422.41634569408336 156.04807631347757"/><path fill="rgb(58, 162, 125)" stroke="none" paint-order="stroke fill markers" d=" M 381.4168563071236 158.565901001949 A 18.952414693333253 18.952414693333253 0 1 1 381.41684683091705 158.5469485904144"/><path fill="rgb(62, 162, 123)" stroke="none" paint-order="stroke fill markers" d=" M 348.2532334318602 181.21257142980335 A 18.952414693333367 18.952414693333367 0 1 1 348.25322395565365 181.19361901826875"/><path fill="rgb(195, 122, 165)" stroke="none" paint-order="stroke fill markers" d=" M 389.30045866115444 199.5767751078356 A 18.952414693333253 18.952414693333253 0 1 1 389.30044918494787 199.557822696301"/><path fill="rgb(195, 122, 165)" stroke="none" paint-order="stroke fill markers" d=" M 415.8450103615658 224.77647411905434 A 29.726666666666688 29.726666666666688 0 1 1 415.84499549823374 224.7467474573421"/><path fill="rgb(197, 122, 157)" stroke="none" paint-order="stroke fill markers" d=" M 353.01142908279877 220.58399372519966 A 18.952414693333253 18.952414693333253 0 1 1 353.0114196065922 220.56504131366506"/><path fill="rgb(58, 162, 125)" stroke="none" paint-order="stroke fill markers" d=" M 373.78384761425315 268.52548371017184 A 29.726666666666688 29.726666666666688 0 1 1 373.7838327509211 268.4957570484596"/><path fill="rgb(58, 162, 125)" stroke="none" paint-order="stroke fill markers" d=" M 380.3952222359863 292.69922072956655 A 18.952414693333367 18.952414693333367 0 1 1 380.3952127597797 292.68026831803195"/><path fill="rgb(50, 162, 130)" stroke="none" paint-order="stroke fill markers" d=" M 700.8046303167282 271.87698991122556 A 29.72666666666646 29.72666666666646 0 1 1 700.8046154533961 271.84726324951333"/><path fill="rgb(194, 122, 169)" stroke="none" paint-order="stroke fill markers" d=" M 676.2937540480236 225.16194444127973 A 18.952414693333367 18.952414693333367 0 1 1 676.2937445718171 225.14299202974513"/><path fill="rgb(196, 122, 163)" stroke="none" paint-order="stroke fill markers" d=" M 706.5639345742973 197.72776344832573 A 18.952414693333367 18.952414693333367 0 1 1 706.5639250980907 197.70881103679113"/><path fill="rgb(63, 162, 122)" stroke="none" paint-order="stroke fill markers" d=" M 704.3534542369061 156.5753512352419 A 18.952414693333367 18.952414693333367 0 1 1 704.3534447606996 156.5563988237073"/><path fill="rgb(68, 161, 119)" stroke="none" paint-order="stroke fill markers" d=" M 667.7884945308674 181.58391508422596 A 18.952414693333367 18.952414693333367 0 1 1 667.7884850546609 181.56496267269137"/><path fill="rgb(68, 161, 119)" stroke="none" paint-order="stroke fill markers" d=" M 664.2863626105268 155.55547387253 A 29.726666666666688 29.726666666666688 0 1 1 664.2863477471947 155.52574721081777"/><path fill="rgb(194, 122, 169)" stroke="none" paint-order="stroke fill markers" d=" M 632.0898297251331 197.54582231970687 A 18.95241469333314 18.95241469333314 0 1 1 632.0898202489266 197.52686990817227"/><path fill="rgb(197, 122, 156)" stroke="none" paint-order="stroke fill markers" d=" M 596.8167849060667 217.42100087513484 A 18.952414693333367 18.952414693333367 0 1 1 596.8167754298602 217.40204846360024"/><path fill="rgb(68, 161, 119)" stroke="none" paint-order="stroke fill markers" d=" M 623.19586773274 154.5653019764717 A 18.952414693333367 18.952414693333367 0 1 1 623.1958582565335 154.5463495649371"/><path fill="rgb(63, 162, 122)" stroke="none" paint-order="stroke fill markers" d=" M 590.7586887451023 180.88328967148573 A 18.952414693333367 18.952414693333367 0 1 1 590.7586792688958 180.86433725995113"/><path fill="rgb(63, 162, 122)" stroke="none" paint-order="stroke fill markers" d=" M 585.6181968694555 155.76962527270484 A 29.726666666666688 29.726666666666688 0 1 1 585.6181820061233 155.7398986109926"/><path fill="rgb(63, 162, 122)" stroke="none" paint-order="stroke fill markers" d=" M 544.5231212572569 156.61672407100718 A 18.95241469333314 18.95241469333314 0 1 1 544.5231117810504 156.59777165947258"/><path fill="rgb(197, 122, 156)" stroke="none" paint-order="stroke fill markers" d=" M 547.0424622441992 201.0648950321622 A 18.952414693333367 18.952414693333367 0 1 1 547.0424527679927 201.0459426206276"/><path fill="rgb(197, 122, 156)" stroke="none" paint-order="stroke fill markers" d=" M 577.8488957078771 223.21681519804963 A 29.726666666666688 29.726666666666688 0 1 1 577.848880844545 223.1870885363374"/><path fill="rgb(60, 162, 124)" stroke="none" paint-order="stroke fill markers" d=" M 584.2346580611381 273.4562108442612 A 18.952414693333367 18.952414693333367 0 1 1 584.2346485849316 273.4372584327266"/><path fill="rgb(194, 122, 169)" stroke="none" paint-order="stroke fill markers" d=" M 514.9633624382939 225.3731785164632 A 18.952414693333424 18.952414693333424 0 1 1 514.9633529620874 225.3542261049286"/><path fill="rgb(195, 122, 165)" stroke="none" paint-order="stroke fill markers" d=" M 615.8661000042982 424.7237101724763 A 18.952414693333367 18.952414693333367 0 1 1 615.8660905280917 424.7047577609417"/><path fill="rgb(67, 161, 120)" stroke="none" paint-order="stroke fill markers" d=" M 614.0345524154252 385.60910781421114 A 18.952414693333367 18.952414693333367 0 1 1 614.0345429392187 385.59015540267654"/><path fill="rgb(67, 161, 120)" stroke="none" paint-order="stroke fill markers" d=" M 655.1421375199996 385.6171016158767 A 29.726666666666688 29.726666666666688 0 1 1 655.1421226566674 385.5873749541645"/><path fill="rgb(67, 161, 120)" stroke="none" paint-order="stroke fill markers" d=" M 659.5274322318003 411.1688492018091 A 18.952414693333367 18.952414693333367 0 1 1 659.5274227555938 411.1498967902745"/><path fill="rgb(196, 122, 163)" stroke="none" paint-order="stroke fill markers" d=" M 696.3817787959858 425.72669864489205 A 18.952414693333367 18.952414693333367 0 1 1 696.3817693197793 425.70774623335745"/><path fill="rgb(57, 162, 126)" stroke="none" paint-order="stroke fill markers" d=" M 697.052716472967 386.3778263457414 A 18.95241469333314 18.95241469333314 0 1 1 697.0527069967604 386.3588739342068"/><path fill="rgb(197, 122, 156)" stroke="none" paint-order="stroke fill markers" d=" M 690.6595537996955 338.75580396788257 A 29.726666666666688 29.726666666666688 0 1 1 690.6595389363633 338.72607730617034"/><path fill="rgb(197, 122, 156)" stroke="none" paint-order="stroke fill markers" d=" M 709.6484272838834 333.0627761668592 A 18.95241469333314 18.95241469333314 0 1 1 709.6484178076769 333.0438237553246"/><path fill="rgb(50, 162, 130)" stroke="none" paint-order="stroke fill markers" d=" M 709.3337947601442 294.63266319963975 A 18.952414693333367 18.952414693333367 0 1 1 709.3337852839377 294.61371078810515"/><path fill="rgb(197, 122, 156)" stroke="none" paint-order="stroke fill markers" d=" M 659.9341583565949 316.53481675780586 A 18.952414693333367 18.952414693333367 0 1 1 659.9341488803884 316.51586434627126"/><path fill="rgb(60, 162, 124)" stroke="none" paint-order="stroke fill markers" d=" M 631.2245459117075 296.31129759327536 A 18.952414693333367 18.952414693333367 0 1 1 631.224536435501 296.29234518174076"/><path fill="rgb(195, 122, 164)" stroke="none" paint-order="stroke fill markers" d=" M 628.405575541658 334.9827954545524 A 18.952414693333367 18.952414693333367 0 1 1 628.4055660654515 334.9638430430178"/><path fill="rgb(195, 122, 164)" stroke="none" paint-order="stroke fill markers" d=" M 608.872769440851 336.2103766637812 A 29.726666666666688 29.726666666666688 0 1 1 608.8727545775189 336.18065000206894"/><path fill="rgb(60, 162, 124)" stroke="none" paint-order="stroke fill markers" d=" M 625.2879250913518 271.69160039196174 A 29.726666666666688 29.726666666666688 0 1 1 625.2879102280197 271.6618737302495"/><path fill="rgb(194, 122, 169)" stroke="none" paint-order="stroke fill markers" d=" M 656.7687557860359 223.76389194567844 A 29.726666666666688 29.726666666666688 0 1 1 656.7687409227037 223.7341652839662"/><path fill="rgb(50, 162, 130)" stroke="none" paint-order="stroke fill markers" d=" M 660.1149848863727 276.7571387096608 A 18.95241469333314 18.95241469333314 0 1 1 660.1149754101662 276.7381862981262"/><path fill="rgb(190, 130, 111)" stroke="none" paint-order="stroke fill markers" d=" M 492.4897480033089 560.5458952127224 A 18.952414693333367 18.952414693333367 0 1 1 492.4897385271023 560.5269428011877"/><path fill="rgb(54, 157, 180)" stroke="none" paint-order="stroke fill markers" d=" M 498.10206014551403 522.5884952266545 A 18.952414693333367 18.952414693333367 0 1 1 498.10205066930746 522.5695428151198"/><path fill="rgb(54, 157, 180)" stroke="none" paint-order="stroke fill markers" d=" M 521.6170343695997 495.8168587637171 A 29.72666666666663 29.72666666666663 0 1 1 521.6170195062675 495.7871321020049"/><path fill="rgb(197, 122, 155)" stroke="none" paint-order="stroke fill markers" d=" M 503.4122134462554 446.65067256468 A 18.952414693333367 18.952414693333367 0 1 1 503.41220397004884 446.6317201531454"/><path fill="rgb(197, 122, 155)" stroke="none" paint-order="stroke fill markers" d=" M 484.5302089462596 452.84876949422403 A 29.726666666666688 29.726666666666688 0 1 1 484.53019408292755 452.8190428325118"/><path fill="rgb(60, 162, 124)" stroke="none" paint-order="stroke fill markers" d=" M 496.33103869949315 409.465718525565 A 18.952414693333253 18.952414693333253 0 1 1 496.3310292232866 409.4467661140304"/><path fill="rgb(50, 162, 130)" stroke="none" paint-order="stroke fill markers" d=" M 530.4194502584241 386.0830343952495 A 18.952414693333196 18.952414693333196 0 1 1 530.4194407822176 386.0640819837149"/><path fill="rgb(60, 162, 124)" stroke="none" paint-order="stroke fill markers" d=" M 490.2890584696773 384.91396364819406 A 29.726666666666688 29.726666666666688 0 1 1 490.2890436063452 384.8842369864818"/><path fill="rgb(196, 122, 162)" stroke="none" paint-order="stroke fill markers" d=" M 498.7125555753419 314.74478391413356 A 18.952414693333367 18.952414693333367 0 1 1 498.71254609913535 314.72583150259896"/><path fill="rgb(196, 122, 162)" stroke="none" paint-order="stroke fill markers" d=" M 527.3153894511765 338.61142202623483 A 29.726666666666745 29.726666666666745 0 1 1 527.3153745878444 338.5816953645226"/><path fill="rgb(196, 122, 162)" stroke="none" paint-order="stroke fill markers" d=" M 546.708417054647 335.5289120672915 A 18.952414693333367 18.952414693333367 0 1 1 546.7084075784405 335.5099596557569"/><path fill="rgb(72, 161, 117)" stroke="none" paint-order="stroke fill markers" d=" M 540.5039512692979 296.3227413777673 A 18.952414693333367 18.952414693333367 0 1 1 540.5039417930914 296.3037889662327"/><path fill="rgb(195, 122, 164)" stroke="none" paint-order="stroke fill markers" d=" M 581.8518407223135 311.2985480812514 A 18.95241469333314 18.95241469333314 0 1 1 581.8518312461069 311.2795956697168"/><path fill="rgb(50, 162, 130)" stroke="none" paint-order="stroke fill markers" d=" M 579.6999914721837 403.79695725099214 A 18.952414693333367 18.952414693333367 0 1 1 579.6999819959772 403.77800483945754"/><path fill="rgb(50, 162, 130)" stroke="none" paint-order="stroke fill markers" d=" M 571.0919932112752 381.1047538562303 A 29.726666666666688 29.726666666666688 0 1 1 571.091978347943 381.07502719451804"/><path fill="rgb(195, 122, 166)" stroke="none" paint-order="stroke fill markers" d=" M 534.3258450759845 420.7500170381213 A 18.952414693333367 18.952414693333367 0 1 1 534.325835599778 420.7310646265867"/><path fill="rgb(191, 130, 112)" stroke="none" paint-order="stroke fill markers" d=" M 694.300808820977 564.6928621103068 A 29.72666666666646 29.72666666666646 0 1 1 694.3007939576448 564.6631354485945"/><path fill="rgb(191, 130, 112)" stroke="none" paint-order="stroke fill markers" d=" M 700.3848245270744 540.168391365289 A 18.952414693333367 18.952414693333367 0 1 1 700.3848150508679 540.1494389537544"/><path fill="rgb(23, 160, 169)" stroke="none" paint-order="stroke fill markers" d=" M 686.0907798430624 498.35857437080335 A 29.72666666666646 29.72666666666646 0 1 1 686.0907649797302 498.3288477090911"/><path fill="rgb(23, 160, 169)" stroke="none" paint-order="stroke fill markers" d=" M 705.2168258954559 503.3254431698066 A 18.952414693333367 18.952414693333367 0 1 1 705.2168164192494 503.306490758272"/><path fill="rgb(196, 122, 163)" stroke="none" paint-order="stroke fill markers" d=" M 724.4114342915063 449.9885222805367 A 29.72666666666646 29.72666666666646 0 1 1 724.4114194281742 449.95879561882447"/><path fill="rgb(195, 122, 165)" stroke="none" paint-order="stroke fill markers" d=" M 662.0718514037733 449.0439351413736 A 18.95241469333314 18.95241469333314 0 1 1 662.0718419275668 449.024982729839"/><path fill="rgb(195, 122, 165)" stroke="none" paint-order="stroke fill markers" d=" M 642.524259824705 449.85583309877836 A 29.726666666666688 29.726666666666688 0 1 1 642.5242449613729 449.82610643706613"/><path fill="rgb(32, 159, 172)" stroke="none" paint-order="stroke fill markers" d=" M 624.2017604787081 499.5897180215198 A 18.952414693333367 18.952414693333367 0 1 1 624.2017510025016 499.5707656099852"/><path fill="rgb(195, 122, 166)" stroke="none" paint-order="stroke fill markers" d=" M 580.2503628373013 445.56894584570927 A 18.952414693333367 18.952414693333367 0 1 1 580.2503533610948 445.54999343417467"/><path fill="rgb(195, 122, 166)" stroke="none" paint-order="stroke fill markers" d=" M 560.6953581015955 446.0525371314282 A 29.726666666666688 29.726666666666688 0 1 1 560.6953432382634 446.022810469716"/><path fill="rgb(54, 157, 180)" stroke="none" paint-order="stroke fill markers" d=" M 541.0530017426872 493.1617045728609 A 18.95241469333314 18.95241469333314 0 1 1 541.0529922664807 493.1427521613263"/><path fill="rgb(32, 159, 172)" stroke="none" paint-order="stroke fill markers" d=" M 604.763916540589 496.9548328758061 A 29.726666666666688 29.726666666666688 0 1 1 604.7639016772569 496.9251062140939"/><path fill="rgb(32, 159, 172)" stroke="none" paint-order="stroke fill markers" d=" M 576.5372809023222 521.0830311758857 A 18.952414693333367 18.952414693333367 0 1 1 576.5372714261157 521.064078764351"/><path fill="rgb(192, 129, 115)" stroke="none" paint-order="stroke fill markers" d=" M 571.7731569611851 560.4251364378085 A 18.952414693333367 18.952414693333367 0 1 1 571.7731474849786 560.4061840262739"/><path fill="rgb(190, 130, 111)" stroke="none" paint-order="stroke fill markers" d=" M 539.2246669303997 537.2015783277586 A 18.952414693333367 18.952414693333367 0 1 1 539.2246574541932 537.182625916224"/><path fill="rgb(190, 130, 111)" stroke="none" paint-order="stroke fill markers" d=" M 533.5607483406941 561.9943081710974 A 29.726666666666745 29.726666666666745 0 1 1 533.560733477362 561.9645815093851"/><path fill="rgb(34, 159, 172)" stroke="none" paint-order="stroke fill markers" d=" M 665.6659166396023 612.9519371766481 A 18.952414693333367 18.952414693333367 0 1 1 665.6659071633958 612.9329847651135"/><path fill="rgb(34, 159, 172)" stroke="none" paint-order="stroke fill markers" d=" M 646.2016913554123 610.6208060972975 A 29.726666666666688 29.726666666666688 0 1 1 646.2016764920802 610.5910794355852"/><path fill="rgb(192, 129, 115)" stroke="none" paint-order="stroke fill markers" d=" M 612.6889821906022 563.7369655843452 A 29.726666666666688 29.726666666666688 0 1 1 612.6889673272701 563.7072389226329"/><path fill="rgb(192, 129, 115)" stroke="none" paint-order="stroke fill markers" d=" M 619.934665281673 540.0066377735311 A 18.952414693333367 18.952414693333367 0 1 1 619.9346558054665 539.9876853619965"/><path fill="rgb(23, 160, 169)" stroke="none" paint-order="stroke fill markers" d=" M 655.9434352977248 521.0581730588315 A 18.952414693333367 18.952414693333367 0 1 1 655.9434258215183 521.0392206472968"/><path fill="rgb(191, 130, 112)" stroke="none" paint-order="stroke fill markers" d=" M 653.258641178182 562.7564995532738 A 18.95241469333314 18.95241469333314 0 1 1 653.2586317019754 562.7375471417391"/><path fill="rgb(52, 157, 179)" stroke="none" paint-order="stroke fill markers" d=" M 484.48465720767916 606.9419855360107 A 29.726666666666688 29.726666666666688 0 1 1 484.4846423443471 606.9122588742985"/><path fill="rgb(52, 157, 179)" stroke="none" paint-order="stroke fill markers" d=" M 503.95706239858674 604.7134583800362 A 18.952414693333253 18.952414693333253 0 1 1 503.95705292238017 604.6945059685015"/><path fill="rgb(32, 159, 172)" stroke="none" paint-order="stroke fill markers" d=" M 564.9255256688475 610.6533824102396 A 29.726666666666688 29.726666666666688 0 1 1 564.9255108055154 610.6236557485273"/><path fill="rgb(32, 159, 172)" stroke="none" paint-order="stroke fill markers" d=" M 584.3468811591342 613.4613509968646 A 18.952414693333367 18.952414693333367 0 1 1 584.3468716829277 613.4423985853299"/><path fill="rgb(29, 159, 171)" stroke="none" paint-order="stroke fill markers" d=" M 378.06218662132443 497.95376752344964 A 18.952414693333253 18.952414693333253 0 1 1 378.06217714511786 497.93481511191504"/><path fill="rgb(16, 160, 166)" stroke="none" paint-order="stroke fill markers" d=" M 410.77795333938815 515.6492081942165 A 18.952414693333367 18.952414693333367 0 1 1 410.7779438631816 515.6302557826818"/><path fill="rgb(16, 160, 166)" stroke="none" paint-order="stroke fill markers" d=" M 442.1957546828772 494.0346893667422 A 29.726666666666688 29.726666666666688 0 1 1 442.1957398195451 494.00496270503"/><path fill="rgb(196, 122, 163)" stroke="none" paint-order="stroke fill markers" d=" M 420.31272058062126 450.329400943085 A 18.952414693333253 18.952414693333253 0 1 1 420.3127111044147 450.3104485315504"/><path fill="rgb(16, 160, 166)" stroke="none" paint-order="stroke fill markers" d=" M 460.9907767700817 500.61411994087234 A 18.952414693333367 18.952414693333367 0 1 1 460.99076729387514 500.59516752933774"/><path fill="rgb(193, 128, 119)" stroke="none" paint-order="stroke fill markers" d=" M 457.5817596736303 537.1412178226989 A 18.952414693333253 18.952414693333253 0 1 1 457.58175019742373 537.1222654111642"/><path fill="rgb(193, 128, 119)" stroke="none" paint-order="stroke fill markers" d=" M 407.9899226246752 554.0134704470224 A 18.952414693333253 18.952414693333253 0 1 1 407.98991314846864 553.9945180354878"/><path fill="rgb(193, 128, 119)" stroke="none" paint-order="stroke fill markers" d=" M 448.5682804756089 559.4999795845878 A 29.726666666666688 29.726666666666688 0 1 1 448.56826561227683 559.4702529228755"/><path fill="rgb(29, 159, 171)" stroke="none" paint-order="stroke fill markers" d=" M 424.98497258190156 609.2087420653843 A 18.952414693333253 18.952414693333253 0 1 1 424.984963105695 609.1897896538496"/><path fill="rgb(29, 159, 171)" stroke="none" paint-order="stroke fill markers" d=" M 405.6263601245524 605.8227638108428 A 29.726666666666688 29.726666666666688 0 1 1 405.6263452612203 605.7930371491306"/><path fill="rgb(36, 159, 173)" stroke="none" paint-order="stroke fill markers" d=" M 344.50726092878955 609.93698260158 A 18.952414693333253 18.952414693333253 0 1 1 344.507251452583 609.9180301900453"/><path fill="rgb(184, 134, 99)" stroke="none" paint-order="stroke fill markers" d=" M 246.45245297029425 568.7269612486148 A 18.952414693333367 18.952414693333367 0 1 1 246.45244349408767 568.7080088370801"/><path fill="rgb(184, 134, 99)" stroke="none" paint-order="stroke fill markers" d=" M 287.05664460852535 563.3749014152969 A 29.726666666666688 29.726666666666688 0 1 1 287.0566297451933 563.3451747535846"/><path fill="rgb(34, 159, 172)" stroke="none" paint-order="stroke fill markers" d=" M 247.86144043138341 519.3521924221637 A 18.952414693333253 18.952414693333253 0 1 1 247.86143095517684 519.3332400106291"/><path fill="rgb(196, 122, 161)" stroke="none" paint-order="stroke fill markers" d=" M 238.5230631399566 448.2978623217854 A 29.72666666666663 29.72666666666663 0 1 1 238.5230482766245 448.26813566007314"/><path fill="rgb(196, 122, 161)" stroke="none" paint-order="stroke fill markers" d=" M 257.8946488078314 445.0229348362889 A 18.952414693333253 18.952414693333253 0 1 1 257.89463933162483 445.0039824247543"/><path fill="rgb(34, 159, 172)" stroke="none" paint-order="stroke fill markers" d=" M 276.0318914933178 495.18565110504903 A 29.726666666666688 29.726666666666688 0 1 1 276.03187662998573 495.1559244433368"/><path fill="rgb(34, 159, 172)" stroke="none" paint-order="stroke fill markers" d=" M 295.4757873433537 497.7540437561124 A 18.952414693333253 18.952414693333253 0 1 1 295.47577786714714 497.7350913445778"/><path fill="rgb(194, 122, 167)" stroke="none" paint-order="stroke fill markers" d=" M 316.19676404948126 450.1388863079796 A 29.726666666666688 29.726666666666688 0 1 1 316.1967491861492 450.10915964626736"/><path fill="rgb(194, 122, 167)" stroke="none" paint-order="stroke fill markers" d=" M 335.7556967798841 450.2310940404582 A 18.952414693333253 18.952414693333253 0 1 1 335.7556873036775 450.2121416289236"/><path fill="rgb(29, 159, 171)" stroke="none" paint-order="stroke fill markers" d=" M 329.8376518271796 518.2310823851082 A 18.952414693333253 18.952414693333253 0 1 1 329.83764235097306 518.2121299735735"/><path fill="rgb(184, 134, 99)" stroke="none" paint-order="stroke fill markers" d=" M 286.43140993386424 535.5750970891247 A 18.952414693333253 18.952414693333253 0 1 1 286.4314004576577 535.55614467759"/><path fill="rgb(193, 129, 117)" stroke="none" paint-order="stroke fill markers" d=" M 324.8068338788683 558.1385153598985 A 18.952414693333367 18.952414693333367 0 1 1 324.80682440266173 558.1195629483639"/><path fill="rgb(193, 129, 117)" stroke="none" paint-order="stroke fill markers" d=" M 365.5834558136408 562.4844058679961 A 29.726666666666688 29.726666666666688 0 1 1 365.5834409503087 562.4546792062838"/><path fill="rgb(193, 129, 117)" stroke="none" paint-order="stroke fill markers" d=" M 373.6803581247403 539.3883502488511 A 18.952414693333367 18.952414693333367 0 1 1 373.6803486485337 539.3693978373165"/><path fill="rgb(29, 159, 171)" stroke="none" paint-order="stroke fill markers" d=" M 358.70525989975107 494.5536521170464 A 29.726666666666688 29.726666666666688 0 1 1 358.705245036419 494.52392545533417"/><path fill="rgb(196, 122, 163)" stroke="none" paint-order="stroke fill markers" d=" M 400.8178685930979 452.24815302336896 A 29.726666666666688 29.726666666666688 0 1 1 400.81785372976583 452.2184263616567"/><path fill="rgb(36, 159, 173)" stroke="none" paint-order="stroke fill markers" d=" M 325.0088819100534 608.0716423059707 A 29.726666666666688 29.726666666666688 0 1 1 325.0088670467213 608.0419156442584"/><path fill="rgb(42, 158, 175)" stroke="none" paint-order="stroke fill markers" d=" M 262.05137611299443 608.9523212219144 A 18.952414693333367 18.952414693333367 0 1 1 262.05136663678786 608.9333688103798"/><path fill="rgb(42, 158, 175)" stroke="none" paint-order="stroke fill markers" d=" M 242.49290922336928 608.7642355718092 A 29.72666666666663 29.72666666666663 0 1 1 242.49289436003718 608.7345089100969"/><path fill="rgb(48, 158, 178)" stroke="none" paint-order="stroke fill markers" d=" M 99.85408720075355 602.3212919115781 A 18.95241469333331 18.95241469333331 0 1 1 99.854077724547 602.3023395000434"/><path fill="rgb(25, 160, 169)" stroke="none" paint-order="stroke fill markers" d=" M 161.5682821518311 607.9427457487579 A 29.72666666666663 29.72666666666663 0 1 1 161.56826728849902 607.9130190870457"/><path fill="rgb(25, 160, 169)" stroke="none" paint-order="stroke fill markers" d=" M 180.79751711375292 612.2813346789437 A 18.95241469333331 18.95241469333331 0 1 1 180.79750763754635 612.2623822674091"/><path fill="rgb(194, 122, 169)" stroke="none" paint-order="stroke fill markers" d=" M 15.968488887722344 444.26912419112114 A 18.95241469333331 18.95241469333331 0 1 1 15.968479411515787 444.25017177958654"/><path fill="rgb(44, 158, 176)" stroke="none" paint-order="stroke fill markers" d=" M 7.342370865564135 516.0734952947291 A 18.95241469333331 18.95241469333331 0 1 1 7.342361389357578 516.0545428831945"/><path fill="rgb(44, 158, 176)" stroke="none" paint-order="stroke fill markers" d=" M 33.23483079411858 490.49859634340874 A 29.726666666666688 29.726666666666688 0 1 1 33.23481593078648 490.4688696816965"/><path fill="rgb(190, 130, 110)" stroke="none" paint-order="stroke fill markers" d=" M 1.5133407674174464 554.7913878022092 A 18.95241469333331 18.95241469333331 0 1 1 1.5133312912108892 554.7724353906746"/><path fill="rgb(190, 130, 110)" stroke="none" paint-order="stroke fill markers" d=" M 42.60282125453318 555.8104936640043 A 29.726666666666688 29.726666666666688 0 1 1 42.602806391201085 555.780767002292"/><path fill="rgb(190, 130, 110)" stroke="none" paint-order="stroke fill markers" d=" M 47.893686196604904 530.7875459572638 A 18.95241469333331 18.95241469333331 0 1 1 47.893676720398346 530.7685935457291"/><path fill="rgb(190, 130, 110)" stroke="none" paint-order="stroke fill markers" d=" M 85.80488306335519 558.380157820334 A 18.95241469333331 18.95241469333331 0 1 1 85.80487358714863 558.3612054087994"/><path fill="rgb(48, 158, 178)" stroke="none" paint-order="stroke fill markers" d=" M 80.32669299854564 603.6693293359358 A 29.726666666666688 29.726666666666688 0 1 1 80.32667813521354 603.6396026742235"/><path fill="rgb(29, 159, 171)" stroke="none" paint-order="stroke fill markers" d=" M 18.982390931432235 602.7609848621979 A 18.95241469333331 18.95241469333331 0 1 1 18.982381455225678 602.7420324506633"/><path fill="rgb(196, 122, 161)" stroke="none" paint-order="stroke fill markers" d=" M 209.75960434175119 424.54549198071965 A 18.95241469333331 18.95241469333331 0 1 1 209.7595948655446 424.52653956918505"/><path fill="rgb(195, 122, 165)" stroke="none" paint-order="stroke fill markers" d=" M 174.70618736929464 443.01870108748574 A 18.95241469333331 18.95241469333331 0 1 1 174.70617789308807 442.99974867595114"/><path fill="rgb(20, 160, 168)" stroke="none" paint-order="stroke fill markers" d=" M 195.72338840539146 493.76479657045707 A 29.726666666666688 29.726666666666688 0 1 1 195.72337354205936 493.73506990874483"/><path fill="rgb(20, 160, 168)" stroke="none" paint-order="stroke fill markers" d=" M 165.080934209468 516.055959682627 A 18.95241469333331 18.95241469333331 0 1 1 165.08092473326144 516.0370072710923"/><path fill="rgb(20, 160, 168)" stroke="none" paint-order="stroke fill markers" d=" M 214.7332813410007 499.3528820907269 A 18.95241469333331 18.95241469333331 0 1 1 214.73327186479412 499.3339296791923"/><path fill="rgb(195, 126, 125)" stroke="none" paint-order="stroke fill markers" d=" M 214.85809180882808 541.3911688633722 A 18.95241469333331 18.95241469333331 0 1 1 214.8580823326215 541.3722164518375"/><path fill="rgb(195, 126, 125)" stroke="none" paint-order="stroke fill markers" d=" M 203.60567928382477 561.6733700134389 A 29.72666666666663 29.72666666666663 0 1 1 203.60566442049267 561.6436433517266"/><path fill="rgb(195, 126, 125)" stroke="none" paint-order="stroke fill markers" d=" M 163.757009857531 553.2628758742418 A 18.95241469333331 18.95241469333331 0 1 1 163.75700038132442 553.2439234627071"/><path fill="rgb(190, 130, 110)" stroke="none" paint-order="stroke fill markers" d=" M 131.82821256517065 533.734954036238 A 18.95241469333331 18.95241469333331 0 1 1 131.82820308896407 533.7160016247034"/><path fill="rgb(190, 130, 110)" stroke="none" paint-order="stroke fill markers" d=" M 126.90623066314976 558.9783525179702 A 29.726666666666688 29.726666666666688 0 1 1 126.90621579981766 558.9486258562579"/><path fill="rgb(36, 159, 173)" stroke="none" paint-order="stroke fill markers" d=" M 111.56984374480555 490.5406085597886 A 29.726666666666688 29.726666666666688 0 1 1 111.56982888147346 490.5108818980764"/><path fill="rgb(36, 159, 173)" stroke="none" paint-order="stroke fill markers" d=" M 131.078117345004 492.24733975148314 A 18.95241469333331 18.95241469333331 0 1 1 131.07810786879742 492.22838733994854"/><path fill="rgb(195, 122, 165)" stroke="none" paint-order="stroke fill markers" d=" M 155.1566713833422 443.7594613226442 A 29.726666666666688 29.726666666666688 0 1 1 155.1566565200101 443.72973466093197"/><path fill="rgb(36, 159, 173)" stroke="none" paint-order="stroke fill markers" d=" M 84.13450351515945 515.1922009578323 A 18.95241469333331 18.95241469333331 0 1 1 84.1344940389529 515.1732485462976"/><path fill="rgb(44, 158, 176)" stroke="none" paint-order="stroke fill markers" d=" M 52.79385928928053 490.4442076096039 A 18.95241469333331 18.95241469333331 0 1 1 52.793849813073976 490.4252551980693"/><path fill="rgb(196, 122, 161)" stroke="none" paint-order="stroke fill markers" d=" M 73.1858601092132 444.6160375926482 A 29.726666666666688 29.726666666666688 0 1 1 73.1858452458811 444.58631093093595"/><path fill="rgb(197, 122, 158)" stroke="none" paint-order="stroke fill markers" d=" M 140.4268860985997 204.07046072619607 A 18.95241469333331 18.95241469333331 0 1 1 140.42687662239314 204.05150831466148"/><path fill="rgb(46, 162, 132)" stroke="none" paint-order="stroke fill markers" d=" M 177.87791059275975 159.3706408481156 A 29.726666666666688 29.726666666666688 0 1 1 177.87789572942765 159.34091418640338"/><path fill="rgb(46, 162, 132)" stroke="none" paint-order="stroke fill markers" d=" M 187.38041069786237 181.31109395591204 A 18.95241469333331 18.95241469333331 0 1 1 187.3804012216558 181.29214154437744"/><path fill="rgb(197, 122, 158)" stroke="none" paint-order="stroke fill markers" d=" M 189.7501301126249 221.67162477712452 A 18.95241469333331 18.95241469333331 0 1 1 189.75012063641833 221.65267236558992"/><path fill="rgb(197, 122, 158)" stroke="none" paint-order="stroke fill markers" d=" M 170.63820996753594 226.71827216269503 A 29.726666666666688 29.726666666666688 0 1 1 170.63819510420385 226.6885455009828"/><path fill="rgb(63, 162, 122)" stroke="none" paint-order="stroke fill markers" d=" M 174.2263080824971 272.9339031964711 A 18.95241469333331 18.95241469333331 0 1 1 174.22629860629053 272.9149507849365"/><path fill="rgb(63, 162, 122)" stroke="none" paint-order="stroke fill markers" d=" M 215.3210484722661 272.07553314718047 A 29.726666666666688 29.726666666666688 0 1 1 215.32103360893402 272.04580648546823"/><path fill="rgb(196, 122, 163)" stroke="none" paint-order="stroke fill markers" d=" M 202.62731359763768 337.02440556449585 A 29.726666666666688 29.726666666666688 0 1 1 202.62729873430558 336.9946789027836"/><path fill="rgb(196, 122, 163)" stroke="none" paint-order="stroke fill markers" d=" M 174.93573703206738 312.5384285532806 A 18.95241469333331 18.95241469333331 0 1 1 174.9357275558608 312.519476141746"/><path fill="rgb(189, 131, 108)" stroke="none" paint-order="stroke fill markers" d=" M 132.8167458517354 306.85940503595646 A 18.95241469333331 18.95241469333331 0 1 1 132.81673637552882 306.84045262442186"/><path fill="rgb(189, 131, 108)" stroke="none" paint-order="stroke fill markers" d=" M 128.73680062174788 332.58020900798056 A 29.726666666666688 29.726666666666688 0 1 1 128.73678575841578 332.5504823462683"/><path fill="rgb(60, 162, 124)" stroke="none" paint-order="stroke fill markers" d=" M 164.8441685012453 379.36021021331715 A 29.726666666666688 29.726666666666688 0 1 1 164.8441536379132 379.3304835516049"/><path fill="rgb(60, 162, 124)" stroke="none" paint-order="stroke fill markers" d=" M 123.7823877934901 380.9807994786936 A 18.95241469333331 18.95241469333331 0 1 1 123.78237831728354 380.961847067159"/><path fill="rgb(195, 122, 165)" stroke="none" paint-order="stroke fill markers" d=" M 128.56089651700506 418.59014851821485 A 18.95241469333331 18.95241469333331 0 1 1 128.5608870407985 418.57119610668025"/><path fill="rgb(60, 162, 124)" stroke="none" paint-order="stroke fill markers" d=" M 170.65679808837086 404.0590872012998 A 18.95241469333331 18.95241469333331 0 1 1 170.6567886121643 404.0401347897652"/><path fill="rgb(51, 162, 129)" stroke="none" paint-order="stroke fill markers" d=" M 206.50709864877223 387.636359487774 A 18.95241469333331 18.95241469333331 0 1 1 206.50708917256566 387.6174070762394"/><path fill="rgb(58, 162, 125)" stroke="none" paint-order="stroke fill markers" d=" M 11.683923963680684 153.31556028835826 A 29.726666666666688 29.726666666666688 0 1 1 11.68390910034859 153.28583362664602"/><path fill="rgb(58, 162, 125)" stroke="none" paint-order="stroke fill markers" d=" M 18.056891596775017 177.64981961228534 A 18.95241469333331 18.95241469333331 0 1 1 18.05688212056846 177.63086720075074"/><path fill="rgb(195, 122, 165)" stroke="none" paint-order="stroke fill markers" d=" M 17.969885050732614 217.9293188485342 A 18.95241469333331 18.95241469333331 0 1 1 17.969875574526057 217.9103664369996"/><path fill="rgb(196, 122, 163)" stroke="none" paint-order="stroke fill markers" d=" M 57.026425681706144 194.18247681957462 A 18.95241469333331 18.95241469333331 0 1 1 57.02641620549959 194.16352440804002"/><path fill="rgb(57, 162, 126)" stroke="none" paint-order="stroke fill markers" d=" M 52.482725072222536 157.66645728059393 A 18.95241469333331 18.95241469333331 0 1 1 52.48271559601598 157.64750486905933"/><path fill="rgb(57, 162, 126)" stroke="none" paint-order="stroke fill markers" d=" M 93.42559282743588 154.5963311550496 A 29.726666666666688 29.726666666666688 0 1 1 93.42557796410378 154.56660449333737"/><path fill="rgb(196, 122, 163)" stroke="none" paint-order="stroke fill markers" d=" M 84.63266913335787 218.7240141807447 A 29.726666666666688 29.726666666666688 0 1 1 84.63265427002577 218.69428751903246"/><path fill="rgb(27, 160, 170)" stroke="none" paint-order="stroke fill markers" d=" M 61.67349701970767 266.95267863061804 A 18.95241469333331 18.95241469333331 0 1 1 61.67348754350111 266.93372621908344"/><path fill="rgb(27, 160, 170)" stroke="none" paint-order="stroke fill markers" d=" M 42.4067417266366 262.86702378190483 A 29.726666666666688 29.726666666666688 0 1 1 42.4067268633045 262.8372971201926"/><path fill="rgb(23, 160, 169)" stroke="none" paint-order="stroke fill markers" d=" M 90.34219092221826 288.47653174929684 A 18.95241469333331 18.95241469333331 0 1 1 90.34218144601171 288.45757933776224"/><path fill="rgb(23, 160, 169)" stroke="none" paint-order="stroke fill markers" d=" M 120.46934343510645 265.7606469803096 A 29.72666666666663 29.72666666666663 0 1 1 120.46932857177435 265.7309203185974"/><path fill="rgb(23, 160, 169)" stroke="none" paint-order="stroke fill markers" d=" M 139.59979548964867 270.7023678554765 A 18.95241469333331 18.95241469333331 0 1 1 139.5997860134421 270.6834154439419"/><path fill="rgb(196, 122, 163)" stroke="none" paint-order="stroke fill markers" d=" M 104.1283918388553 216.81831578526408 A 18.95241469333331 18.95241469333331 0 1 1 104.12838236264874 216.79936337372948"/><path fill="rgb(57, 162, 126)" stroke="none" paint-order="stroke fill markers" d=" M 100.4695627743414 178.47028765993753 A 18.95241469333331 18.95241469333331 0 1 1 100.46955329813484 178.45133524840293"/><path fill="rgb(46, 162, 132)" stroke="none" paint-order="stroke fill markers" d=" M 137.42754182814093 165.4781744443244 A 18.95241469333331 18.95241469333331 0 1 1 137.42753235193436 165.4592220327898"/><path fill="rgb(63, 162, 122)" stroke="none" paint-order="stroke fill markers" d=" M 8.351594211905876 375.88172546432673 A 29.726666666666688 29.726666666666688 0 1 1 8.351579348573782 375.8519988026145"/><path fill="rgb(63, 162, 122)" stroke="none" paint-order="stroke fill markers" d=" M 13.31218207207678 401.10238216009526 A 18.95241469333331 18.95241469333331 0 1 1 13.312172595870223 401.08342974856066"/><path fill="rgb(196, 122, 161)" stroke="none" paint-order="stroke fill markers" d=" M 44.5708236362845 420.75802515469826 A 18.95241469333331 18.95241469333331 0 1 1 44.570814160077944 420.73907274316366"/><path fill="rgb(196, 122, 161)" stroke="none" paint-order="stroke fill markers" d=" M 92.57730788278678 441.51893737853857 A 18.95241469333331 18.95241469333331 0 1 1 92.57729840658023 441.49998496700397"/><path fill="rgb(70, 161, 118)" stroke="none" paint-order="stroke fill markers" d=" M 90.10262340747562 405.35121924883117 A 18.95241469333331 18.95241469333331 0 1 1 90.10261393126906 405.3322668372966"/><path fill="rgb(70, 161, 118)" stroke="none" paint-order="stroke fill markers" d=" M 86.79390824515195 379.2233088421604 A 29.72666666666663 29.72666666666663 0 1 1 86.79389338181986 379.1935821804482"/><path fill="rgb(70, 161, 118)" stroke="none" paint-order="stroke fill markers" d=" M 45.711545974192006 378.02050221677814 A 18.95241469333331 18.95241469333331 0 1 1 45.71153649798545 378.00154980524354"/><path fill="rgb(189, 131, 108)" stroke="none" paint-order="stroke fill markers" d=" M 87.63134675849994 332.92990852762665 A 18.95241469333331 18.95241469333331 0 1 1 87.63133728229339 332.91095611609205"/><path fill="rgb(192, 129, 114)" stroke="none" paint-order="stroke fill markers" d=" M 55.66988329664184 306.50907730234866 A 18.95241469333331 18.95241469333331 0 1 1 55.669873820435285 306.49012489081406"/><path fill="rgb(192, 129, 114)" stroke="none" paint-order="stroke fill markers" d=" M 48.84434854755307 330.53579264431283 A 29.726666666666688 29.726666666666688 0 1 1 48.84433368422097 330.5060659826006"/><path fill="rgb(192, 129, 114)" stroke="none" paint-order="stroke fill markers" d=" M 7.874667582856716 327.7260202892394 A 18.95241469333331 18.95241469333331 0 1 1 7.874658106650159 327.7070678777048"/><path fill="rgb(27, 160, 170)" stroke="none" paint-order="stroke fill markers" d=" M 12.973754102643397 286.125739310347 A 18.95241469333331 18.95241469333331 0 1 1 12.97374462643684 286.1067868988124"/></g></g></g><g/><g/><g/><g clip-path="url(#DXvBcoOlyzsN)"><g/></g></g></g></svg>