<svg class="marks" width="800" height="465" viewBox="0 0 800 465" version="1.1" xmlns="http://www.w3.org/2000/svg" xmlns:xlink="http://www.w3.org/1999/xlink"><rect width="800" height="465" style="fill: white;"></rect><g transform="translate(77,13)"><g class="mark-group role-frame root"><g transform="translate(0,0)"><path class="background" d="M0.5,0.5h600v400h-600Z" style="fill: none; stroke: #ddd;"></path><g><g class="mark-rule role-mark layer_0_layer_0_marks"><line transform="translate(23.076923076923094,155.59125151704114)" x2="0" y2="-68.98643402445674" style="fill: none; stroke: #4c78a8;"></line><line transform="translate(138.4615384615386,145.16827700106583)" x2="0" y2="-69.82386595085163" style="fill: none; stroke: #4c78a8;"></line><line transform="translate(184.61538461538476,138.08389502361644)" x2="0" y2="-69.45940359994552" style="fill: none; stroke: #4c78a8;"></line><line transform="translate(207.69230769230785,126.46541929890265)" x2="0" y2="-54.9659540152644" style="fill: none; stroke: #4c78a8;"></line><line transform="translate(207.69230769230785,399.6453313701816)" x2="0" y2="-35.222533913837424" style="fill: none; stroke: #f58518;"></line><line transform="translate(207.69230769230785,385.63613223162974)" x2="0" y2="-33.80038608670043" style="fill: none; stroke: #e45756;"></line><line transform="translate(207.69230769230785,247.49292258418706)" x2="0" y2="-37.63017350241617" style="fill: none; stroke: #72b7b2;"></line><line transform="translate(253.84615384615407,128.8569876227541)" x2="0" y2="-70.97922700129351" style="fill: none; stroke: #4c78a8;"></line><line transform="translate(253.84615384615407,394.07140029324324)" x2="0" y2="-32.95505759116605" style="fill: none; stroke: #f58518;"></line><line transform="translate(253.84615384615407,382.86923085415924)" x2="0" y2="-33.362558413245154" style="fill: none; stroke: #e45756;"></line><line transform="translate(253.84615384615407,245.2169812719372)" x2="0" y2="-38.79080035566395" style="fill: none; stroke: #72b7b2;"></line><line transform="translate(300.0000000000003,121.05312898818312)" x2="0" y2="-71.474879210523" style="fill: none; stroke: #4c78a8;"></line><line transform="translate(323.07692307692287,112.52923151748098)" x2="0" y2="-56.034775782330144" style="fill: none; stroke: #4c78a8;"></line><line transform="translate(323.07692307692287,388.75146622991355)" x2="0" y2="-33.112581722866594" style="fill: none; stroke: #f58518;"></line><line transform="translate(323.07692307692287,378.7923056549681)" x2="0" y2="-40.93556604704037" style="fill: none; stroke: #e45756;"></line><line transform="translate(323.07692307692287,236.65148478032708)" x2="0" y2="-32.99763382156826" style="fill: none; stroke: #72b7b2;"></line><line transform="translate(369.23076923076906,112.79637707083367)" x2="0" y2="-72.28128322093534" style="fill: none; stroke: #4c78a8;"></line><line transform="translate(369.23076923076906,384.83427678859766)" x2="0" y2="-32.050715170164665" style="fill: none; stroke: #f58518;"></line><line transform="translate(369.23076923076906,373.35650101076925)" x2="0" y2="-33.66999360316731" style="fill: none; stroke: #e45756;"></line><line transform="translate(369.23076923076906,236.68400175986082)" x2="0" y2="-38.3913865589777" style="fill: none; stroke: #72b7b2;"></line><line transform="translate(415.38461538461524,108.43705922264581)" x2="0" y2="-72.54865425740883" style="fill: none; stroke: #4c78a8;"></line><line transform="translate(461.53846153846143,101.41049202526676)" x2="0" y2="-73.1753763082857" style="fill: none; stroke: #4c78a8;"></line><line transform="translate(484.61538461538447,91.24865662020801)" x2="0" y2="-57.713760348827236" style="fill: none; stroke: #4c78a8;"></line><line transform="translate(484.61538461538447,374.5887502442922)" x2="0" y2="-30.600087531526185" style="fill: none; stroke: #f58518;"></line><line transform="translate(484.61538461538447,362.6400080035614)" x2="0" y2="-34.2367511793164" style="fill: none; stroke: #e45756;"></line><line transform="translate(484.61538461538447,223.61540394834128)" x2="0" y2="-32.07336016071085" style="fill: none; stroke: #72b7b2;"></line><line transform="translate(507.6923076923076,96.08174826835227)" x2="0" y2="-73.68273595252208" style="fill: none; stroke: #4c78a8;"></line><line transform="translate(600,84.16675378955568)" x2="0" y2="-74.47041322533505" style="fill: none; stroke: #4c78a8;"></line><line transform="translate(600,362.7114124640489)" x2="0" y2="-28.296133052391667" style="fill: none; stroke: #f58518;"></line><line transform="translate(600,353.96787487339066)" x2="0" y2="-35.242918652675314" style="fill: none; stroke: #e45756;"></line><line transform="translate(600,213.64218124763966)" x2="0" y2="-30.961441863904668" style="fill: none; stroke: #72b7b2;"></line></g><g class="mark-symbol role-mark layer_1_marks"><path transform="translate(23.076923076923094,121.09803450481274)" d="M2.7386127875258306,0A2.7386127875258306,2.7386127875258306,0,1,1,-2.7386127875258306,0A2.7386127875258306,2.7386127875258306,0,1,1,2.7386127875258306,0" style="fill: none; stroke: #4c78a8; stroke-width: 2; opacity: 0.7;"></path><path transform="translate(138.4615384615386,110.25634402564003)" d="M2.7386127875258306,0A2.7386127875258306,2.7386127875258306,0,1,1,-2.7386127875258306,0A2.7386127875258306,2.7386127875258306,0,1,1,2.7386127875258306,0" style="fill: none; stroke: #4c78a8; stroke-width: 2; opacity: 0.7;"></path><path transform="translate(184.61538461538476,103.35419322364368)" d="M2.7386127875258306,0A2.7386127875258306,2.7386127875258306,0,1,1,-2.7386127875258306,0A2.7386127875258306,2.7386127875258306,0,1,1,2.7386127875258306,0" style="fill: none; stroke: #4c78a8; stroke-width: 2; opacity: 0.7;"></path><path transform="translate(207.69230769230785,98.98244229127044)" d="M2.7386127875258306,0A2.7386127875258306,2.7386127875258306,0,1,1,-2.7386127875258306,0A2.7386127875258306,2.7386127875258306,0,1,1,2.7386127875258306,0" style="fill: none; stroke: #4c78a8; stroke-width: 2; opacity: 0.7;"></path><path transform="translate(207.69230769230785,382.0340644132629)" d="M2.7386127875258306,0A2.7386127875258306,2.7386127875258306,0,1,1,-2.7386127875258306,0A2.7386127875258306,2.7386127875258306,0,1,1,2.7386127875258306,0" style="fill: none; stroke: #f58518; stroke-width: 2; opacity: 0.7;"></path><path transform="translate(207.69230769230785,368.73593918827953)" d="M2.7386127875258306,0A2.7386127875258306,2.7386127875258306,0,1,1,-2.7386127875258306,0A2.7386127875258306,2.7386127875258306,0,1,1,2.7386127875258306,0" style="fill: none; stroke: #e45756; stroke-width: 2; opacity: 0.7;"></path><path transform="translate(207.69230769230785,228.67783583297899)" d="M2.7386127875258306,0A2.7386127875258306,2.7386127875258306,0,1,1,-2.7386127875258306,0A2.7386127875258306,2.7386127875258306,0,1,1,2.7386127875258306,0" style="fill: none; stroke: #72b7b2; stroke-width: 2; opacity: 0.7;"></path><path transform="translate(253.84615384615407,93.36737412210732)" d="M2.7386127875258306,0A2.7386127875258306,2.7386127875258306,0,1,1,-2.7386127875258306,0A2.7386127875258306,2.7386127875258306,0,1,1,2.7386127875258306,0" style="fill: none; stroke: #4c78a8; stroke-width: 2; opacity: 0.7;"></path><path transform="translate(253.84615384615407,377.59387149766025)" d="M2.7386127875258306,0A2.7386127875258306,2.7386127875258306,0,1,1,-2.7386127875258306,0A2.7386127875258306,2.7386127875258306,0,1,1,2.7386127875258306,0" style="fill: none; stroke: #f58518; stroke-width: 2; opacity: 0.7;"></path><path transform="translate(253.84615384615407,366.18795164753664)" d="M2.7386127875258306,0A2.7386127875258306,2.7386127875258306,0,1,1,-2.7386127875258306,0A2.7386127875258306,2.7386127875258306,0,1,1,2.7386127875258306,0" style="fill: none; stroke: #e45756; stroke-width: 2; opacity: 0.7;"></path><path transform="translate(253.84615384615407,225.82158109410523)" d="M2.7386127875258306,0A2.7386127875258306,2.7386127875258306,0,1,1,-2.7386127875258306,0A2.7386127875258306,2.7386127875258306,0,1,1,2.7386127875258306,0" style="fill: none; stroke: #72b7b2; stroke-width: 2; opacity: 0.7;"></path><path transform="translate(300.0000000000003,85.31568938292162)" d="M2.7386127875258306,0A2.7386127875258306,2.7386127875258306,0,1,1,-2.7386127875258306,0A2.7386127875258306,2.7386127875258306,0,1,1,2.7386127875258306,0" style="fill: none; stroke: #4c78a8; stroke-width: 2; opacity: 0.7;"></path><path transform="translate(323.07692307692287,84.51184362631591)" d="M2.7386127875258306,0A2.7386127875258306,2.7386127875258306,0,1,1,-2.7386127875258306,0A2.7386127875258306,2.7386127875258306,0,1,1,2.7386127875258306,0" style="fill: none; stroke: #4c78a8; stroke-width: 2; opacity: 0.7;"></path><path transform="translate(323.07692307692287,372.19517536848025)" d="M2.7386127875258306,0A2.7386127875258306,2.7386127875258306,0,1,1,-2.7386127875258306,0A2.7386127875258306,2.7386127875258306,0,1,1,2.7386127875258306,0" style="fill: none; stroke: #f58518; stroke-width: 2; opacity: 0.7;"></path><path transform="translate(323.07692307692287,358.32452263144796)" d="M2.7386127875258306,0A2.7386127875258306,2.7386127875258306,0,1,1,-2.7386127875258306,0A2.7386127875258306,2.7386127875258306,0,1,1,2.7386127875258306,0" style="fill: none; stroke: #e45756; stroke-width: 2; opacity: 0.7;"></path><path transform="translate(323.07692307692287,220.15266786954294)" d="M2.7386127875258306,0A2.7386127875258306,2.7386127875258306,0,1,1,-2.7386127875258306,0A2.7386127875258306,2.7386127875258306,0,1,1,2.7386127875258306,0" style="fill: none; stroke: #72b7b2; stroke-width: 2; opacity: 0.7;"></path><path transform="translate(369.23076923076906,76.65573546036597)" d="M2.7386127875258306,0A2.7386127875258306,2.7386127875258306,0,1,1,-2.7386127875258306,0A2.7386127875258306,2.7386127875258306,0,1,1,2.7386127875258306,0" style="fill: none; stroke: #4c78a8; stroke-width: 2; opacity: 0.7;"></path><path transform="translate(369.23076923076906,368.8089192035153)" d="M2.7386127875258306,0A2.7386127875258306,2.7386127875258306,0,1,1,-2.7386127875258306,0A2.7386127875258306,2.7386127875258306,0,1,1,2.7386127875258306,0" style="fill: none; stroke: #f58518; stroke-width: 2; opacity: 0.7;"></path><path transform="translate(369.23076923076906,356.5215042091856)" d="M2.7386127875258306,0A2.7386127875258306,2.7386127875258306,0,1,1,-2.7386127875258306,0A2.7386127875258306,2.7386127875258306,0,1,1,2.7386127875258306,0" style="fill: none; stroke: #e45756; stroke-width: 2; opacity: 0.7;"></path><path transform="translate(369.23076923076906,217.48830848037198)" d="M2.7386127875258306,0A2.7386127875258306,2.7386127875258306,0,1,1,-2.7386127875258306,0A2.7386127875258306,2.7386127875258306,0,1,1,2.7386127875258306,0" style="fill: none; stroke: #72b7b2; stroke-width: 2; opacity: 0.7;"></path><path transform="translate(415.38461538461524,72.16273209394137)" d="M2.7386127875258306,0A2.7386127875258306,2.7386127875258306,0,1,1,-2.7386127875258306,0A2.7386127875258306,2.7386127875258306,0,1,1,2.7386127875258306,0" style="fill: none; stroke: #4c78a8; stroke-width: 2; opacity: 0.7;"></path><path transform="translate(461.53846153846143,64.82280387112388)" d="M2.7386127875258306,0A2.7386127875258306,2.7386127875258306,0,1,1,-2.7386127875258306,0A2.7386127875258306,2.7386127875258306,0,1,1,2.7386127875258306,0" style="fill: none; stroke: #4c78a8; stroke-width: 2; opacity: 0.7;"></path><path transform="translate(484.61538461538447,62.39177644579439)" d="M2.7386127875258306,0A2.7386127875258306,2.7386127875258306,0,1,1,-2.7386127875258306,0A2.7386127875258306,2.7386127875258306,0,1,1,2.7386127875258306,0" style="fill: none; stroke: #4c78a8; stroke-width: 2; opacity: 0.7;"></path><path transform="translate(484.61538461538447,359.2887064785291)" d="M2.7386127875258306,0A2.7386127875258306,2.7386127875258306,0,1,1,-2.7386127875258306,0A2.7386127875258306,2.7386127875258306,0,1,1,2.7386127875258306,0" style="fill: none; stroke: #f58518; stroke-width: 2; opacity: 0.7;"></path><path transform="translate(484.61538461538447,345.52163241390315)" d="M2.7386127875258306,0A2.7386127875258306,2.7386127875258306,0,1,1,-2.7386127875258306,0A2.7386127875258306,2.7386127875258306,0,1,1,2.7386127875258306,0" style="fill: none; stroke: #e45756; stroke-width: 2; opacity: 0.7;"></path><path transform="translate(484.61538461538447,207.57872386798587)" d="M2.7386127875258306,0A2.7386127875258306,2.7386127875258306,0,1,1,-2.7386127875258306,0A2.7386127875258306,2.7386127875258306,0,1,1,2.7386127875258306,0" style="fill: none; stroke: #72b7b2; stroke-width: 2; opacity: 0.7;"></path><path transform="translate(507.6923076923076,59.24038029209123)" d="M2.7386127875258306,0A2.7386127875258306,2.7386127875258306,0,1,1,-2.7386127875258306,0A2.7386127875258306,2.7386127875258306,0,1,1,2.7386127875258306,0" style="fill: none; stroke: #4c78a8; stroke-width: 2; opacity: 0.7;"></path><path transform="translate(600,46.9315471768881)" d="M2.7386127875258306,0A2.7386127875258306,2.7386127875258306,0,1,1,-2.7386127875258306,0A2.7386127875258306,2.7386127875258306,0,1,1,2.7386127875258306,0" style="fill: none; stroke: #4c78a8; stroke-width: 2; opacity: 0.7;"></path><path transform="translate(600,348.56334593785306)" d="M2.7386127875258306,0A2.7386127875258306,2.7386127875258306,0,1,1,-2.7386127875258306,0A2.7386127875258306,2.7386127875258306,0,1,1,2.7386127875258306,0" style="fill: none; stroke: #f58518; stroke-width: 2; opacity: 0.7;"></path><path transform="translate(600,336.34641554705297)" d="M2.7386127875258306,0A2.7386127875258306,2.7386127875258306,0,1,1,-2.7386127875258306,0A2.7386127875258306,2.7386127875258306,0,1,1,2.7386127875258306,0" style="fill: none; stroke: #e45756; stroke-width: 2; opacity: 0.7;"></path><path transform="translate(600,198.16146031568732)" d="M2.7386127875258306,0A2.7386127875258306,2.7386127875258306,0,1,1,-2.7386127875258306,0A2.7386127875258306,2.7386127875258306,0,1,1,2.7386127875258306,0" style="fill: none; stroke: #72b7b2; stroke-width: 2; opacity: 0.7;"></path></g><g class="mark-group role-legend"><g transform="translate(618,0)"><path class="background" d="M0,0h78v95h-78Z" style="pointer-events: none; fill: none;"></path><g><g class="mark-group role-legend-entry"><g transform="translate(0,25)"><path class="background" d="M0,0h0v0h0Z" style="pointer-events: none; fill: none;"></path><g><g class="mark-group role-scope"><g transform="translate(0,0)"><path class="background" d="M0,0h62v16h-62Z" style="pointer-events: none; fill: none; opacity: 1;"></path><g><g class="mark-symbol role-legend-symbol" style="pointer-events: none;"><path transform="translate(8,8)" d="M5,0A5,5,0,1,1,-5,0A5,5,0,1,1,5,0" style="fill: none; stroke: #4c78a8; stroke-width: 1.5; opacity: 0.7;"></path></g><g class="mark-text role-legend-label" style="pointer-events: none;"><text text-anchor="start" transform="translate(20,13)" style="font-family: sans-serif; font-size: 16px; fill: #000; opacity: 1;">liquid</text></g></g></g><g transform="translate(0,18)"><path class="background" d="M0,0h62v16h-62Z" style="pointer-events: none; fill: none; opacity: 1;"></path><g><g class="mark-symbol role-legend-symbol" style="pointer-events: none;"><path transform="translate(8,8)" d="M5,0A5,5,0,1,1,-5,0A5,5,0,1,1,5,0" style="fill: none; stroke: #f58518; stroke-width: 1.5; opacity: 0.7;"></path></g><g class="mark-text role-legend-label" style="pointer-events: none;"><text text-anchor="start" transform="translate(20,13)" style="font-family: sans-serif; font-size: 16px; fill: #000; opacity: 1;">p2</text></g></g></g><g transform="translate(0,36)"><path class="background" d="M0,0h62v16h-62Z" style="pointer-events: none; fill: none; opacity: 1;"></path><g><g class="mark-symbol role-legend-symbol" style="pointer-events: none;"><path transform="translate(8,8)" d="M5,0A5,5,0,1,1,-5,0A5,5,0,1,1,5,0" style="fill: none; stroke: #e45756; stroke-width: 1.5; opacity: 0.7;"></path></g><g class="mark-text role-legend-label" style="pointer-events: none;"><text text-anchor="start" transform="translate(20,13)" style="font-family: sans-serif; font-size: 16px; fill: #000; opacity: 1;">p2gg</text></g></g></g><g transform="translate(0,54)"><path class="background" d="M0,0h62v16h-62Z" style="pointer-events: none; fill: none; opacity: 1;"></path><g><g class="mark-symbol role-legend-symbol" style="pointer-events: none;"><path transform="translate(8,8)" d="M5,0A5,5,0,1,1,-5,0A5,5,0,1,1,5,0" style="fill: none; stroke: #72b7b2; stroke-width: 1.5; opacity: 0.7;"></path></g><g class="mark-text role-legend-label" style="pointer-events: none;"><text text-anchor="start" transform="translate(20,13)" style="font-family: sans-serif; font-size: 16px; fill: #000; opacity: 1;">pg</text></g></g></g></g></g></g></g><g class="mark-text role-legend-title" style="pointer-events: none;"><text text-anchor="start" transform="translate(0,16)" style="font-family: sans-serif; font-size: 20px; font-weight: bold; fill: #000; opacity: 1;">crystal</text></g></g></g></g><g class="mark-group role-legend"><g transform="translate(618,103)"><path class="background" d="M0,0h100v41h-100Z" style="pointer-events: none; fill: none;"></path><g><g class="mark-group role-legend-entry"><g transform="translate(0,25)"><path class="background" d="M0,0h0v0h0Z" style="pointer-events: none; fill: none;"></path><g><g class="mark-group role-scope"><g transform="translate(0,0)"><path class="background" d="M0,0h55v16h-55Z" style="pointer-events: none; fill: none; opacity: 1;"></path><g><g class="mark-symbol role-legend-symbol" style="pointer-events: none;"><path transform="translate(8,8)" d="M5,0A5,5,0,1,1,-5,0A5,5,0,1,1,5,0" style="fill: none; stroke: #888; stroke-width: 1.5; opacity: 0.7;"></path></g><g class="mark-text role-legend-label" style="pointer-events: none;"><text text-anchor="start" transform="translate(20,13)" style="font-family: sans-serif; font-size: 16px; fill: #000; opacity: 1;">13.5</text></g></g></g></g></g></g></g><g class="mark-text role-legend-title" style="pointer-events: none;"><text text-anchor="start" transform="translate(0,16)" style="font-family: sans-serif; font-size: 20px; font-weight: bold; fill: #000; opacity: 1;">pressure</text></g></g></g></g><g class="mark-group role-axis"><g transform="translate(0.5,400.5)"><path class="background" d="M0,0h0v0h0Z" style="pointer-events: none; fill: none;"></path><g><g class="mark-rule role-axis-tick" style="pointer-events: none;"><line transform="translate(0,0)" x2="0" y2="5" style="fill: none; stroke: #888; stroke-width: 1; opacity: 1;"></line><line transform="translate(46,0)" x2="0" y2="5" style="fill: none; stroke: #888; stroke-width: 1; opacity: 1;"></line><line transform="translate(92,0)" x2="0" y2="5" style="fill: none; stroke: #888; stroke-width: 1; opacity: 1;"></line><line transform="translate(138,0)" x2="0" y2="5" style="fill: none; stroke: #888; stroke-width: 1; opacity: 1;"></line><line transform="translate(185,0)" x2="0" y2="5" style="fill: none; stroke: #888; stroke-width: 1; opacity: 1;"></line><line transform="translate(231,0)" x2="0" y2="5" style="fill: none; stroke: #888; stroke-width: 1; opacity: 1;"></line><line transform="translate(277,0)" x2="0" y2="5" style="fill: none; stroke: #888; stroke-width: 1; opacity: 1;"></line><line transform="translate(323,0)" x2="0" y2="5" style="fill: none; stroke: #888; stroke-width: 1; opacity: 1;"></line><line transform="translate(369,0)" x2="0" y2="5" style="fill: none; stroke: #888; stroke-width: 1; opacity: 1;"></line><line transform="translate(415,0)" x2="0" y2="5" style="fill: none; stroke: #888; stroke-width: 1; opacity: 1;"></line><line transform="translate(462,0)" x2="0" y2="5" style="fill: none; stroke: #888; stroke-width: 1; opacity: 1;"></line><line transform="translate(508,0)" x2="0" y2="5" style="fill: none; stroke: #888; stroke-width: 1; opacity: 1;"></line><line transform="translate(554,0)" x2="0" y2="5" style="fill: none; stroke: #888; stroke-width: 1; opacity: 1;"></line><line transform="translate(600,0)" x2="0" y2="5" style="fill: none; stroke: #888; stroke-width: 1; opacity: 1;"></line></g><g class="mark-text role-axis-label" style="pointer-events: none;"><text text-anchor="start" transform="translate(0,20)" style="font-family: sans-serif; font-size: 16px; fill: #000; opacity: 1;">1.24</text><text text-anchor="middle" transform="translate(46.15384615384619,20)" style="font-family: sans-serif; font-size: 16px; fill: #000; opacity: 0;">1.26</text><text text-anchor="middle" transform="translate(92.30769230769238,20)" style="font-family: sans-serif; font-size: 16px; fill: #000; opacity: 1;">1.28</text><text text-anchor="middle" transform="translate(138.4615384615386,20)" style="font-family: sans-serif; font-size: 16px; fill: #000; opacity: 0;">1.30</text><text text-anchor="middle" transform="translate(184.61538461538476,20)" style="font-family: sans-serif; font-size: 16px; fill: #000; opacity: 1;">1.32</text><text text-anchor="middle" transform="translate(230.76923076923097,20)" style="font-family: sans-serif; font-size: 16px; fill: #000; opacity: 0;">1.34</text><text text-anchor="middle" transform="translate(276.9230769230772,20)" style="font-family: sans-serif; font-size: 16px; fill: #000; opacity: 1;">1.36</text><text text-anchor="middle" transform="translate(323.07692307692287,20)" style="font-family: sans-serif; font-size: 16px; fill: #000; opacity: 0;">1.38</text><text text-anchor="middle" transform="translate(369.23076923076906,20)" style="font-family: sans-serif; font-size: 16px; fill: #000; opacity: 1;">1.40</text><text text-anchor="middle" transform="translate(415.38461538461524,20)" style="font-family: sans-serif; font-size: 16px; fill: #000; opacity: 0;">1.42</text><text text-anchor="middle" transform="translate(461.53846153846143,20)" style="font-family: sans-serif; font-size: 16px; fill: #000; opacity: 1;">1.44</text><text text-anchor="middle" transform="translate(507.6923076923076,20)" style="font-family: sans-serif; font-size: 16px; fill: #000; opacity: 0;">1.46</text><text text-anchor="middle" transform="translate(553.8461538461538,20)" style="font-family: sans-serif; font-size: 16px; fill: #000; opacity: 1;">1.48</text><text text-anchor="end" transform="translate(600,20)" style="font-family: sans-serif; font-size: 16px; fill: #000; opacity: 0;">1.50</text></g><g class="mark-rule role-axis-domain" style="pointer-events: none;"><line transform="translate(0,0)" x2="600" y2="0" style="fill: none; stroke: #888; stroke-width: 1; opacity: 1;"></line></g><g class="mark-text role-axis-title" style="pointer-events: none;"><text text-anchor="middle" transform="translate(300,43)" style="font-family: sans-serif; font-size: 20px; font-weight: bold; fill: #000; opacity: 1;">temperature</text></g></g></g></g><g class="mark-group role-axis"><g transform="translate(0.5,0.5)"><path class="background" d="M0,0h0v0h0Z" style="pointer-events: none; fill: none;"></path><g><g class="mark-rule role-axis-tick" style="pointer-events: none;"><line transform="translate(0,400)" x2="-5" y2="0" style="fill: none; stroke: #888; stroke-width: 1; opacity: 1;"></line><line transform="translate(0,371)" x2="-5" y2="0" style="fill: none; stroke: #888; stroke-width: 1; opacity: 1;"></line><line transform="translate(0,343)" x2="-5" y2="0" style="fill: none; stroke: #888; stroke-width: 1; opacity: 1;"></line><line transform="translate(0,314)" x2="-5" y2="0" style="fill: none; stroke: #888; stroke-width: 1; opacity: 1;"></line><line transform="translate(0,286)" x2="-5" y2="0" style="fill: none; stroke: #888; stroke-width: 1; opacity: 1;"></line><line transform="translate(0,257)" x2="-5" y2="0" style="fill: none; stroke: #888; stroke-width: 1; opacity: 1;"></line><line transform="translate(0,229)" x2="-5" y2="0" style="fill: none; stroke: #888; stroke-width: 1; opacity: 1;"></line><line transform="translate(0,200)" x2="-5" y2="0" style="fill: none; stroke: #888; stroke-width: 1; opacity: 1;"></line><line transform="translate(0,171)" x2="-5" y2="0" style="fill: none; stroke: #888; stroke-width: 1; opacity: 1;"></line><line transform="translate(0,143)" x2="-5" y2="0" style="fill: none; stroke: #888; stroke-width: 1; opacity: 1;"></line><line transform="translate(0,114)" x2="-5" y2="0" style="fill: none; stroke: #888; stroke-width: 1; opacity: 1;"></line><line transform="translate(0,86)" x2="-5" y2="0" style="fill: none; stroke: #888; stroke-width: 1; opacity: 1;"></line><line transform="translate(0,57)" x2="-5" y2="0" style="fill: none; stroke: #888; stroke-width: 1; opacity: 1;"></line><line transform="translate(0,29)" x2="-5" y2="0" style="fill: none; stroke: #888; stroke-width: 1; opacity: 1;"></line><line transform="translate(0,0)" x2="-5" y2="0" style="fill: none; stroke: #888; stroke-width: 1; opacity: 1;"></line></g><g class="mark-text role-axis-label" style="pointer-events: none;"><text text-anchor="end" transform="translate(-7,405)" style="font-family: sans-serif; font-size: 16px; fill: #000; opacity: 1;">-1.26</text><text text-anchor="end" transform="translate(-7,376.4285714285714)" style="font-family: sans-serif; font-size: 16px; fill: #000; opacity: 1;">-1.24</text><text text-anchor="end" transform="translate(-7,347.85714285714283)" style="font-family: sans-serif; font-size: 16px; fill: #000; opacity: 1;">-1.22</text><text text-anchor="end" transform="translate(-7,319.2857142857142)" style="font-family: sans-serif; font-size: 16px; fill: #000; opacity: 1;">-1.20</text><text text-anchor="end" transform="translate(-7,290.71428571428567)" style="font-family: sans-serif; font-size: 16px; fill: #000; opacity: 1;">-1.18</text><text text-anchor="end" transform="translate(-7,262.142857142857)" style="font-family: sans-serif; font-size: 16px; fill: #000; opacity: 1;">-1.16</text><text text-anchor="end" transform="translate(-7,233.5714285714284)" style="font-family: sans-serif; font-size: 16px; fill: #000; opacity: 1;">-1.14</text><text text-anchor="end" transform="translate(-7,205.00000000000014)" style="font-family: sans-serif; font-size: 16px; fill: #000; opacity: 1;">-1.12</text><text text-anchor="end" transform="translate(-7,176.4285714285716)" style="font-family: sans-serif; font-size: 16px; fill: #000; opacity: 1;">-1.10</text><text text-anchor="end" transform="translate(-7,147.85714285714295)" style="font-family: sans-serif; font-size: 16px; fill: #000; opacity: 1;">-1.08</text><text text-anchor="end" transform="translate(-7,119.28571428571439)" style="font-family: sans-serif; font-size: 16px; fill: #000; opacity: 1;">-1.06</text><text text-anchor="end" transform="translate(-7,90.71428571428578)" style="font-family: sans-serif; font-size: 16px; fill: #000; opacity: 1;">-1.04</text><text text-anchor="end" transform="translate(-7,62.142857142857224)" style="font-family: sans-serif; font-size: 16px; fill: #000; opacity: 1;">-1.02</text><text text-anchor="end" transform="translate(-7,33.57142857142861)" style="font-family: sans-serif; font-size: 16px; fill: #000; opacity: 1;">-1.00</text><text text-anchor="end" transform="translate(-7,5)" style="font-family: sans-serif; font-size: 16px; fill: #000; opacity: 1;">-0.98</text></g><g class="mark-rule role-axis-domain" style="pointer-events: none;"><line transform="translate(0,400)" x2="0" y2="-400" style="fill: none; stroke: #888; stroke-width: 1; opacity: 1;"></line></g><g class="mark-text role-axis-title" style="pointer-events: none;"><text text-anchor="middle" transform="translate(-52,200) rotate(-90) translate(0,-4)" style="font-family: sans-serif; font-size: 20px; font-weight: bold; fill: #000; opacity: 1;">potential_energy</text></g></g></g></g></g></g></g></g></svg>