<svg class="marks" width="801" height="465" viewBox="0 0 801 465" version="1.1" xmlns="http://www.w3.org/2000/svg" xmlns:xlink="http://www.w3.org/1999/xlink"><rect width="801" height="465" style="fill: white;"></rect><g transform="translate(78,13)"><g class="mark-group role-frame root"><g transform="translate(0,0)"><path class="background" d="M0.5,0.5h600v400h-600Z" style="fill: none; stroke: #ddd;"></path><g><g class="mark-rule role-mark layer_0_layer_0_marks"><line transform="translate(33.33333333333337,127.66365130774906)" x2="0" y2="-55.00563287191427" style="fill: none; stroke: #4c78a8;"></line><line transform="translate(33.33333333333337,399.6453313701816)" x2="0" y2="-35.22253391383737" style="fill: none; stroke: #f58518;"></line><line transform="translate(33.33333333333337,385.63613223162974)" x2="0" y2="-33.80038608670043" style="fill: none; stroke: #e45756;"></line><line transform="translate(33.33333333333337,247.49292258418708)" x2="0" y2="-37.63017350241623" style="fill: none; stroke: #72b7b2;"></line><line transform="translate(100.00000000000013,121.07384324090131)" x2="0" y2="-55.373177736919615" style="fill: none; stroke: #4c78a8;"></line><line transform="translate(100.00000000000013,394.07140029324324)" x2="0" y2="-32.95505759116605" style="fill: none; stroke: #f58518;"></line><line transform="translate(100.00000000000013,382.8692308541592)" x2="0" y2="-33.3625584132451" style="fill: none; stroke: #e45756;"></line><line transform="translate(100.00000000000013,245.2169812719372)" x2="0" y2="-38.79080035566395" style="fill: none; stroke: #72b7b2;"></line><line transform="translate(199.99999999999952,111.96368962678011)" x2="0" y2="-56.08784909863131" style="fill: none; stroke: #4c78a8;"></line><line transform="translate(199.99999999999952,388.75146622991355)" x2="0" y2="-33.112581722866594" style="fill: none; stroke: #f58518;"></line><line transform="translate(199.99999999999952,378.7923056549682)" x2="0" y2="-40.935566047040425" style="fill: none; stroke: #e45756;"></line><line transform="translate(199.99999999999952,236.65148478032708)" x2="0" y2="-32.99763382156826" style="fill: none; stroke: #72b7b2;"></line><line transform="translate(266.66666666666623,106.3095773133742)" x2="0" y2="-56.64424989024815" style="fill: none; stroke: #4c78a8;"></line><line transform="translate(266.66666666666623,384.8342767885976)" x2="0" y2="-32.05071517016461" style="fill: none; stroke: #f58518;"></line><line transform="translate(266.66666666666623,373.3565010107693)" x2="0" y2="-33.66999360316737" style="fill: none; stroke: #e45756;"></line><line transform="translate(266.66666666666623,236.68400175986082)" x2="0" y2="-38.3913865589777" style="fill: none; stroke: #72b7b2;"></line><line transform="translate(433.33333333333314,91.75930427091652)" x2="0" y2="-57.408232728676985" style="fill: none; stroke: #4c78a8;"></line><line transform="translate(433.33333333333314,374.5887502442922)" x2="0" y2="-30.600087531526185" style="fill: none; stroke: #f58518;"></line><line transform="translate(433.33333333333314,362.6400080035614)" x2="0" y2="-34.2367511793164" style="fill: none; stroke: #e45756;"></line><line transform="translate(433.33333333333314,223.61540394834128)" x2="0" y2="-32.07336016071085" style="fill: none; stroke: #72b7b2;"></line><line transform="translate(600,76.75694642058386)" x2="0" y2="-58.43141052997787" style="fill: none; stroke: #4c78a8;"></line><line transform="translate(600,362.7114124640489)" x2="0" y2="-28.296133052391667" style="fill: none; stroke: #f58518;"></line><line transform="translate(600,353.96787487339066)" x2="0" y2="-35.242918652675314" style="fill: none; stroke: #e45756;"></line><line transform="translate(600,213.64218124763968)" x2="0" y2="-30.961441863904696" style="fill: none; stroke: #72b7b2;"></line></g><g class="mark-symbol role-mark layer_1_marks"><path transform="translate(33.33333333333337,100.16083487179195)" d="M2.7386127875258306,0A2.7386127875258306,2.7386127875258306,0,1,1,-2.7386127875258306,0A2.7386127875258306,2.7386127875258306,0,1,1,2.7386127875258306,0" style="fill: none; stroke: #4c78a8; stroke-width: 2; opacity: 0.7;"></path><path transform="translate(33.33333333333337,382.0340644132629)" d="M2.7386127875258306,0A2.7386127875258306,2.7386127875258306,0,1,1,-2.7386127875258306,0A2.7386127875258306,2.7386127875258306,0,1,1,2.7386127875258306,0" style="fill: none; stroke: #f58518; stroke-width: 2; opacity: 0.7;"></path><path transform="translate(33.33333333333337,368.73593918827953)" d="M2.7386127875258306,0A2.7386127875258306,2.7386127875258306,0,1,1,-2.7386127875258306,0A2.7386127875258306,2.7386127875258306,0,1,1,2.7386127875258306,0" style="fill: none; stroke: #e45756; stroke-width: 2; opacity: 0.7;"></path><path transform="translate(33.33333333333337,228.67783583297899)" d="M2.7386127875258306,0A2.7386127875258306,2.7386127875258306,0,1,1,-2.7386127875258306,0A2.7386127875258306,2.7386127875258306,0,1,1,2.7386127875258306,0" style="fill: none; stroke: #72b7b2; stroke-width: 2; opacity: 0.7;"></path><path transform="translate(100.00000000000013,93.38725437244153)" d="M2.7386127875258306,0A2.7386127875258306,2.7386127875258306,0,1,1,-2.7386127875258306,0A2.7386127875258306,2.7386127875258306,0,1,1,2.7386127875258306,0" style="fill: none; stroke: #4c78a8; stroke-width: 2; opacity: 0.7;"></path><path transform="translate(100.00000000000013,377.59387149766025)" d="M2.7386127875258306,0A2.7386127875258306,2.7386127875258306,0,1,1,-2.7386127875258306,0A2.7386127875258306,2.7386127875258306,0,1,1,2.7386127875258306,0" style="fill: none; stroke: #f58518; stroke-width: 2; opacity: 0.7;"></path><path transform="translate(100.00000000000013,366.18795164753664)" d="M2.7386127875258306,0A2.7386127875258306,2.7386127875258306,0,1,1,-2.7386127875258306,0A2.7386127875258306,2.7386127875258306,0,1,1,2.7386127875258306,0" style="fill: none; stroke: #e45756; stroke-width: 2; opacity: 0.7;"></path><path transform="translate(100.00000000000013,225.8215810941052)" d="M2.7386127875258306,0A2.7386127875258306,2.7386127875258306,0,1,1,-2.7386127875258306,0A2.7386127875258306,2.7386127875258306,0,1,1,2.7386127875258306,0" style="fill: none; stroke: #72b7b2; stroke-width: 2; opacity: 0.7;"></path><path transform="translate(199.99999999999952,83.91976507746448)" d="M2.7386127875258306,0A2.7386127875258306,2.7386127875258306,0,1,1,-2.7386127875258306,0A2.7386127875258306,2.7386127875258306,0,1,1,2.7386127875258306,0" style="fill: none; stroke: #4c78a8; stroke-width: 2; opacity: 0.7;"></path><path transform="translate(199.99999999999952,372.1951753684803)" d="M2.7386127875258306,0A2.7386127875258306,2.7386127875258306,0,1,1,-2.7386127875258306,0A2.7386127875258306,2.7386127875258306,0,1,1,2.7386127875258306,0" style="fill: none; stroke: #f58518; stroke-width: 2; opacity: 0.7;"></path><path transform="translate(199.99999999999952,358.32452263144796)" d="M2.7386127875258306,0A2.7386127875258306,2.7386127875258306,0,1,1,-2.7386127875258306,0A2.7386127875258306,2.7386127875258306,0,1,1,2.7386127875258306,0" style="fill: none; stroke: #e45756; stroke-width: 2; opacity: 0.7;"></path><path transform="translate(199.99999999999952,220.15266786954294)" d="M2.7386127875258306,0A2.7386127875258306,2.7386127875258306,0,1,1,-2.7386127875258306,0A2.7386127875258306,2.7386127875258306,0,1,1,2.7386127875258306,0" style="fill: none; stroke: #72b7b2; stroke-width: 2; opacity: 0.7;"></path><path transform="translate(266.66666666666623,77.98745236825013)" d="M2.7386127875258306,0A2.7386127875258306,2.7386127875258306,0,1,1,-2.7386127875258306,0A2.7386127875258306,2.7386127875258306,0,1,1,2.7386127875258306,0" style="fill: none; stroke: #4c78a8; stroke-width: 2; opacity: 0.7;"></path><path transform="translate(266.66666666666623,368.8089192035153)" d="M2.7386127875258306,0A2.7386127875258306,2.7386127875258306,0,1,1,-2.7386127875258306,0A2.7386127875258306,2.7386127875258306,0,1,1,2.7386127875258306,0" style="fill: none; stroke: #f58518; stroke-width: 2; opacity: 0.7;"></path><path transform="translate(266.66666666666623,356.5215042091856)" d="M2.7386127875258306,0A2.7386127875258306,2.7386127875258306,0,1,1,-2.7386127875258306,0A2.7386127875258306,2.7386127875258306,0,1,1,2.7386127875258306,0" style="fill: none; stroke: #e45756; stroke-width: 2; opacity: 0.7;"></path><path transform="translate(266.66666666666623,217.48830848037198)" d="M2.7386127875258306,0A2.7386127875258306,2.7386127875258306,0,1,1,-2.7386127875258306,0A2.7386127875258306,2.7386127875258306,0,1,1,2.7386127875258306,0" style="fill: none; stroke: #72b7b2; stroke-width: 2; opacity: 0.7;"></path><path transform="translate(433.33333333333314,63.05518790657803)" d="M2.7386127875258306,0A2.7386127875258306,2.7386127875258306,0,1,1,-2.7386127875258306,0A2.7386127875258306,2.7386127875258306,0,1,1,2.7386127875258306,0" style="fill: none; stroke: #4c78a8; stroke-width: 2; opacity: 0.7;"></path><path transform="translate(433.33333333333314,359.2887064785291)" d="M2.7386127875258306,0A2.7386127875258306,2.7386127875258306,0,1,1,-2.7386127875258306,0A2.7386127875258306,2.7386127875258306,0,1,1,2.7386127875258306,0" style="fill: none; stroke: #f58518; stroke-width: 2; opacity: 0.7;"></path><path transform="translate(433.33333333333314,345.52163241390315)" d="M2.7386127875258306,0A2.7386127875258306,2.7386127875258306,0,1,1,-2.7386127875258306,0A2.7386127875258306,2.7386127875258306,0,1,1,2.7386127875258306,0" style="fill: none; stroke: #e45756; stroke-width: 2; opacity: 0.7;"></path><path transform="translate(433.33333333333314,207.57872386798587)" d="M2.7386127875258306,0A2.7386127875258306,2.7386127875258306,0,1,1,-2.7386127875258306,0A2.7386127875258306,2.7386127875258306,0,1,1,2.7386127875258306,0" style="fill: none; stroke: #72b7b2; stroke-width: 2; opacity: 0.7;"></path><path transform="translate(600,47.54124115559502)" d="M2.7386127875258306,0A2.7386127875258306,2.7386127875258306,0,1,1,-2.7386127875258306,0A2.7386127875258306,2.7386127875258306,0,1,1,2.7386127875258306,0" style="fill: none; stroke: #4c78a8; stroke-width: 2; opacity: 0.7;"></path><path transform="translate(600,348.56334593785306)" d="M2.7386127875258306,0A2.7386127875258306,2.7386127875258306,0,1,1,-2.7386127875258306,0A2.7386127875258306,2.7386127875258306,0,1,1,2.7386127875258306,0" style="fill: none; stroke: #f58518; stroke-width: 2; opacity: 0.7;"></path><path transform="translate(600,336.34641554705297)" d="M2.7386127875258306,0A2.7386127875258306,2.7386127875258306,0,1,1,-2.7386127875258306,0A2.7386127875258306,2.7386127875258306,0,1,1,2.7386127875258306,0" style="fill: none; stroke: #e45756; stroke-width: 2; opacity: 0.7;"></path><path transform="translate(600,198.16146031568732)" d="M2.7386127875258306,0A2.7386127875258306,2.7386127875258306,0,1,1,-2.7386127875258306,0A2.7386127875258306,2.7386127875258306,0,1,1,2.7386127875258306,0" style="fill: none; stroke: #72b7b2; stroke-width: 2; opacity: 0.7;"></path></g><g class="mark-group role-legend"><g transform="translate(618,0)"><path class="background" d="M0,0h77v95h-77Z" style="pointer-events: none; fill: none;"></path><g><g class="mark-group role-legend-entry"><g transform="translate(0,25)"><path class="background" d="M0,0h0v0h0Z" style="pointer-events: none; fill: none;"></path><g><g class="mark-group role-scope"><g transform="translate(0,0)"><path class="background" d="M0,0h63.78333282470703v16h-63.78333282470703Z" style="pointer-events: none; fill: none; opacity: 1;"></path><g><g class="mark-symbol role-legend-symbol" style="pointer-events: none;"><path transform="translate(8,8)" d="M5,0A5,5,0,1,1,-5,0A5,5,0,1,1,5,0" style="fill: none; stroke: #4c78a8; stroke-width: 1.5; opacity: 0.7;"></path></g><g class="mark-text role-legend-label" style="pointer-events: none;"><text text-anchor="start" transform="translate(20,13)" style="font-family: sans-serif; font-size: 16px; fill: #000; opacity: 1;">liquid</text></g></g><path class="foreground" d="" style="pointer-events: none; display: none; fill: none;"></path></g><g transform="translate(0,18)"><path class="background" d="M0,0h63.78333282470703v16h-63.78333282470703Z" style="pointer-events: none; fill: none; opacity: 1;"></path><g><g class="mark-symbol role-legend-symbol" style="pointer-events: none;"><path transform="translate(8,8)" d="M5,0A5,5,0,1,1,-5,0A5,5,0,1,1,5,0" style="fill: none; stroke: #f58518; stroke-width: 1.5; opacity: 0.7;"></path></g><g class="mark-text role-legend-label" style="pointer-events: none;"><text text-anchor="start" transform="translate(20,13)" style="font-family: sans-serif; font-size: 16px; fill: #000; opacity: 1;">p2</text></g></g><path class="foreground" d="" style="pointer-events: none; display: none; fill: none;"></path></g><g transform="translate(0,36)"><path class="background" d="M0,0h63.78333282470703v16h-63.78333282470703Z" style="pointer-events: none; fill: none; opacity: 1;"></path><g><g class="mark-symbol role-legend-symbol" style="pointer-events: none;"><path transform="translate(8,8)" d="M5,0A5,5,0,1,1,-5,0A5,5,0,1,1,5,0" style="fill: none; stroke: #e45756; stroke-width: 1.5; opacity: 0.7;"></path></g><g class="mark-text role-legend-label" style="pointer-events: none;"><text text-anchor="start" transform="translate(20,13)" style="font-family: sans-serif; font-size: 16px; fill: #000; opacity: 1;">p2gg</text></g></g><path class="foreground" d="" style="pointer-events: none; display: none; fill: none;"></path></g><g transform="translate(0,54)"><path class="background" d="M0,0h63.78333282470703v16h-63.78333282470703Z" style="pointer-events: none; fill: none; opacity: 1;"></path><g><g class="mark-symbol role-legend-symbol" style="pointer-events: none;"><path transform="translate(8,8)" d="M5,0A5,5,0,1,1,-5,0A5,5,0,1,1,5,0" style="fill: none; stroke: #72b7b2; stroke-width: 1.5; opacity: 0.7;"></path></g><g class="mark-text role-legend-label" style="pointer-events: none;"><text text-anchor="start" transform="translate(20,13)" style="font-family: sans-serif; font-size: 16px; fill: #000; opacity: 1;">pg</text></g></g><path class="foreground" d="" style="pointer-events: none; display: none; fill: none;"></path></g></g></g><path class="foreground" d="" style="pointer-events: none; display: none; fill: none;"></path></g></g><g class="mark-text role-legend-title" style="pointer-events: none;"><text text-anchor="start" transform="translate(0,16)" style="font-family: sans-serif; font-size: 20px; font-weight: bold; fill: #000; opacity: 1;">crystal</text></g></g><path class="foreground" d="" style="pointer-events: none; display: none; fill: none;"></path></g></g><g class="mark-group role-legend"><g transform="translate(618,103)"><path class="background" d="M0,0h100v41h-100Z" style="pointer-events: none; fill: none;"></path><g><g class="mark-group role-legend-entry"><g transform="translate(0,25)"><path class="background" d="M0,0h0v0h0Z" style="pointer-events: none; fill: none;"></path><g><g class="mark-group role-scope"><g transform="translate(0,0)"><path class="background" d="M0,0h55.63333511352539v16h-55.63333511352539Z" style="pointer-events: none; fill: none; opacity: 1;"></path><g><g class="mark-symbol role-legend-symbol" style="pointer-events: none;"><path transform="translate(8,8)" d="M5,0A5,5,0,1,1,-5,0A5,5,0,1,1,5,0" style="fill: none; stroke: #888; stroke-width: 1.5; opacity: 0.7;"></path></g><g class="mark-text role-legend-label" style="pointer-events: none;"><text text-anchor="start" transform="translate(20,13)" style="font-family: sans-serif; font-size: 16px; fill: #000; opacity: 1;">13.5</text></g></g><path class="foreground" d="" style="pointer-events: none; display: none; fill: none;"></path></g></g></g><path class="foreground" d="" style="pointer-events: none; display: none; fill: none;"></path></g></g><g class="mark-text role-legend-title" style="pointer-events: none;"><text text-anchor="start" transform="translate(0,16)" style="font-family: sans-serif; font-size: 20px; font-weight: bold; fill: #000; opacity: 1;">pressure</text></g></g><path class="foreground" d="" style="pointer-events: none; display: none; fill: none;"></path></g></g><g class="mark-group role-axis"><g transform="translate(0.5,400.5)"><path class="background" d="M0,0h0v0h0Z" style="pointer-events: none; fill: none;"></path><g><g class="mark-rule role-axis-tick" style="pointer-events: none;"><line transform="translate(0,0)" x2="0" y2="5" style="fill: none; stroke: #888; stroke-width: 1; opacity: 1;"></line><line transform="translate(33,0)" x2="0" y2="5" style="fill: none; stroke: #888; stroke-width: 1; opacity: 1;"></line><line transform="translate(67,0)" x2="0" y2="5" style="fill: none; stroke: #888; stroke-width: 1; opacity: 1;"></line><line transform="translate(100,0)" x2="0" y2="5" style="fill: none; stroke: #888; stroke-width: 1; opacity: 1;"></line><line transform="translate(133,0)" x2="0" y2="5" style="fill: none; stroke: #888; stroke-width: 1; opacity: 1;"></line><line transform="translate(167,0)" x2="0" y2="5" style="fill: none; stroke: #888; stroke-width: 1; opacity: 1;"></line><line transform="translate(200,0)" x2="0" y2="5" style="fill: none; stroke: #888; stroke-width: 1; opacity: 1;"></line><line transform="translate(233,0)" x2="0" y2="5" style="fill: none; stroke: #888; stroke-width: 1; opacity: 1;"></line><line transform="translate(267,0)" x2="0" y2="5" style="fill: none; stroke: #888; stroke-width: 1; opacity: 1;"></line><line transform="translate(300,0)" x2="0" y2="5" style="fill: none; stroke: #888; stroke-width: 1; opacity: 1;"></line><line transform="translate(333,0)" x2="0" y2="5" style="fill: none; stroke: #888; stroke-width: 1; opacity: 1;"></line><line transform="translate(367,0)" x2="0" y2="5" style="fill: none; stroke: #888; stroke-width: 1; opacity: 1;"></line><line transform="translate(400,0)" x2="0" y2="5" style="fill: none; stroke: #888; stroke-width: 1; opacity: 1;"></line><line transform="translate(433,0)" x2="0" y2="5" style="fill: none; stroke: #888; stroke-width: 1; opacity: 1;"></line><line transform="translate(467,0)" x2="0" y2="5" style="fill: none; stroke: #888; stroke-width: 1; opacity: 1;"></line><line transform="translate(500,0)" x2="0" y2="5" style="fill: none; stroke: #888; stroke-width: 1; opacity: 1;"></line><line transform="translate(533,0)" x2="0" y2="5" style="fill: none; stroke: #888; stroke-width: 1; opacity: 1;"></line><line transform="translate(567,0)" x2="0" y2="5" style="fill: none; stroke: #888; stroke-width: 1; opacity: 1;"></line><line transform="translate(600,0)" x2="0" y2="5" style="fill: none; stroke: #888; stroke-width: 1; opacity: 1;"></line></g><g class="mark-text role-axis-label" style="pointer-events: none;"><text text-anchor="start" transform="translate(0,20)" style="font-family: sans-serif; font-size: 16px; fill: #000; opacity: 1;">1.32</text><text text-anchor="middle" transform="translate(33.33333333333337,20)" style="font-family: sans-serif; font-size: 16px; fill: #000; opacity: 0;">1.33</text><text text-anchor="middle" transform="translate(66.66666666666674,20)" style="font-family: sans-serif; font-size: 16px; fill: #000; opacity: 1;">1.34</text><text text-anchor="middle" transform="translate(100.00000000000013,20)" style="font-family: sans-serif; font-size: 16px; fill: #000; opacity: 0;">1.35</text><text text-anchor="middle" transform="translate(133.33333333333348,20)" style="font-family: sans-serif; font-size: 16px; fill: #000; opacity: 1;">1.36</text><text text-anchor="middle" transform="translate(166.66666666666688,20)" style="font-family: sans-serif; font-size: 16px; fill: #000; opacity: 0;">1.37</text><text text-anchor="middle" transform="translate(199.99999999999952,20)" style="font-family: sans-serif; font-size: 16px; fill: #000; opacity: 1;">1.38</text><text text-anchor="middle" transform="translate(233.33333333333286,20)" style="font-family: sans-serif; font-size: 16px; fill: #000; opacity: 0;">1.39</text><text text-anchor="middle" transform="translate(266.66666666666623,20)" style="font-family: sans-serif; font-size: 16px; fill: #000; opacity: 1;">1.40</text><text text-anchor="middle" transform="translate(299.99999999999966,20)" style="font-family: sans-serif; font-size: 16px; fill: #000; opacity: 0;">1.41</text><text text-anchor="middle" transform="translate(333.33333333333303,20)" style="font-family: sans-serif; font-size: 16px; fill: #000; opacity: 1;">1.42</text><text text-anchor="middle" transform="translate(366.66666666666634,20)" style="font-family: sans-serif; font-size: 16px; fill: #000; opacity: 0;">1.43</text><text text-anchor="middle" transform="translate(399.9999999999998,20)" style="font-family: sans-serif; font-size: 16px; fill: #000; opacity: 1;">1.44</text><text text-anchor="middle" transform="translate(433.33333333333314,20)" style="font-family: sans-serif; font-size: 16px; fill: #000; opacity: 0;">1.45</text><text text-anchor="middle" transform="translate(466.66666666666646,20)" style="font-family: sans-serif; font-size: 16px; fill: #000; opacity: 1;">1.46</text><text text-anchor="middle" transform="translate(499.9999999999999,20)" style="font-family: sans-serif; font-size: 16px; fill: #000; opacity: 0;">1.47</text><text text-anchor="middle" transform="translate(533.3333333333333,20)" style="font-family: sans-serif; font-size: 16px; fill: #000; opacity: 1;">1.48</text><text text-anchor="middle" transform="translate(566.6666666666666,20)" style="font-family: sans-serif; font-size: 16px; fill: #000; opacity: 0;">1.49</text><text text-anchor="end" transform="translate(600,20)" style="font-family: sans-serif; font-size: 16px; fill: #000; opacity: 1;">1.50</text></g><g class="mark-rule role-axis-domain" style="pointer-events: none;"><line transform="translate(0,0)" x2="600" y2="0" style="fill: none; stroke: #888; stroke-width: 1; opacity: 1;"></line></g><g class="mark-text role-axis-title" style="pointer-events: none;"><text text-anchor="middle" transform="translate(300,43)" style="font-family: sans-serif; font-size: 20px; font-weight: bold; fill: #000; opacity: 1;">temperature</text></g></g><path class="foreground" d="" style="pointer-events: none; display: none; fill: none;"></path></g></g><g class="mark-group role-axis"><g transform="translate(0.5,0.5)"><path class="background" d="M0,0h0v0h0Z" style="pointer-events: none; fill: none;"></path><g><g class="mark-rule role-axis-tick" style="pointer-events: none;"><line transform="translate(0,400)" x2="-5" y2="0" style="fill: none; stroke: #888; stroke-width: 1; opacity: 1;"></line><line transform="translate(0,371)" x2="-5" y2="0" style="fill: none; stroke: #888; stroke-width: 1; opacity: 1;"></line><line transform="translate(0,343)" x2="-5" y2="0" style="fill: none; stroke: #888; stroke-width: 1; opacity: 1;"></line><line transform="translate(0,314)" x2="-5" y2="0" style="fill: none; stroke: #888; stroke-width: 1; opacity: 1;"></line><line transform="translate(0,286)" x2="-5" y2="0" style="fill: none; stroke: #888; stroke-width: 1; opacity: 1;"></line><line transform="translate(0,257)" x2="-5" y2="0" style="fill: none; stroke: #888; stroke-width: 1; opacity: 1;"></line><line transform="translate(0,229)" x2="-5" y2="0" style="fill: none; stroke: #888; stroke-width: 1; opacity: 1;"></line><line transform="translate(0,200)" x2="-5" y2="0" style="fill: none; stroke: #888; stroke-width: 1; opacity: 1;"></line><line transform="translate(0,171)" x2="-5" y2="0" style="fill: none; stroke: #888; stroke-width: 1; opacity: 1;"></line><line transform="translate(0,143)" x2="-5" y2="0" style="fill: none; stroke: #888; stroke-width: 1; opacity: 1;"></line><line transform="translate(0,114)" x2="-5" y2="0" style="fill: none; stroke: #888; stroke-width: 1; opacity: 1;"></line><line transform="translate(0,86)" x2="-5" y2="0" style="fill: none; stroke: #888; stroke-width: 1; opacity: 1;"></line><line transform="translate(0,57)" x2="-5" y2="0" style="fill: none; stroke: #888; stroke-width: 1; opacity: 1;"></line><line transform="translate(0,29)" x2="-5" y2="0" style="fill: none; stroke: #888; stroke-width: 1; opacity: 1;"></line><line transform="translate(0,0)" x2="-5" y2="0" style="fill: none; stroke: #888; stroke-width: 1; opacity: 1;"></line></g><g class="mark-text role-axis-label" style="pointer-events: none;"><text text-anchor="end" transform="translate(-7,405)" style="font-family: sans-serif; font-size: 16px; fill: #000; opacity: 1;">-1.26</text><text text-anchor="end" transform="translate(-7,376.4285714285714)" style="font-family: sans-serif; font-size: 16px; fill: #000; opacity: 1;">-1.24</text><text text-anchor="end" transform="translate(-7,347.8571428571428)" style="font-family: sans-serif; font-size: 16px; fill: #000; opacity: 1;">-1.22</text><text text-anchor="end" transform="translate(-7,319.2857142857142)" style="font-family: sans-serif; font-size: 16px; fill: #000; opacity: 1;">-1.20</text><text text-anchor="end" transform="translate(-7,290.7142857142856)" style="font-family: sans-serif; font-size: 16px; fill: #000; opacity: 1;">-1.18</text><text text-anchor="end" transform="translate(-7,262.14285714285705)" style="font-family: sans-serif; font-size: 16px; fill: #000; opacity: 1;">-1.16</text><text text-anchor="end" transform="translate(-7,233.5714285714284)" style="font-family: sans-serif; font-size: 16px; fill: #000; opacity: 1;">-1.14</text><text text-anchor="end" transform="translate(-7,205.00000000000017)" style="font-family: sans-serif; font-size: 16px; fill: #000; opacity: 1;">-1.12</text><text text-anchor="end" transform="translate(-7,176.4285714285716)" style="font-family: sans-serif; font-size: 16px; fill: #000; opacity: 1;">-1.10</text><text text-anchor="end" transform="translate(-7,147.85714285714297)" style="font-family: sans-serif; font-size: 16px; fill: #000; opacity: 1;">-1.08</text><text text-anchor="end" transform="translate(-7,119.28571428571436)" style="font-family: sans-serif; font-size: 16px; fill: #000; opacity: 1;">-1.06</text><text text-anchor="end" transform="translate(-7,90.71428571428577)" style="font-family: sans-serif; font-size: 16px; fill: #000; opacity: 1;">-1.04</text><text text-anchor="end" transform="translate(-7,62.14285714285721)" style="font-family: sans-serif; font-size: 16px; fill: #000; opacity: 1;">-1.02</text><text text-anchor="end" transform="translate(-7,33.571428571428605)" style="font-family: sans-serif; font-size: 16px; fill: #000; opacity: 1;">-1.00</text><text text-anchor="end" transform="translate(-7,5)" style="font-family: sans-serif; font-size: 16px; fill: #000; opacity: 1;">-0.98</text></g><g class="mark-rule role-axis-domain" style="pointer-events: none;"><line transform="translate(0,400)" x2="0" y2="-400" style="fill: none; stroke: #888; stroke-width: 1; opacity: 1;"></line></g><g class="mark-text role-axis-title" style="pointer-events: none;"><text text-anchor="middle" transform="translate(-52.400001525878906,200) rotate(-90) translate(0,-4)" style="font-family: sans-serif; font-size: 20px; font-weight: bold; fill: #000; opacity: 1;">potential_energy</text></g></g><path class="foreground" d="" style="pointer-events: none; display: none; fill: none;"></path></g></g></g><path class="foreground" d="" style="display: none; fill: none;"></path></g></g></g></svg>