<svg class="marks" width="801" height="465" viewBox="0 0 801 465" version="1.1" xmlns="http://www.w3.org/2000/svg" xmlns:xlink="http://www.w3.org/1999/xlink"><rect width="801" height="465" style="fill: white;"></rect><g transform="translate(78,13)"><g class="mark-group role-frame root"><g transform="translate(0,0)"><path class="background" d="M0.5,0.5h600v400h-600Z" style="fill: none; stroke: #ddd;"></path><g><g class="mark-rule role-mark layer_0_layer_0_marks"><line transform="translate(37.49999999999983,174.50360100668186)" x2="0" y2="-11.968831275051429" style="fill: none; stroke: #4c78a8;"></line><line transform="translate(37.49999999999983,364.42682116852876)" x2="0" y2="-4.424497922375565" style="fill: none; stroke: #f58518;"></line><line transform="translate(37.49999999999983,356.732533921878)" x2="0" y2="-4.205133912703843" style="fill: none; stroke: #e45756;"></line><line transform="translate(37.49999999999983,252.75784152525455)" x2="0" y2="-3.712601346640213" style="fill: none; stroke: #72b7b2;"></line><line transform="translate(74.99999999999987,166.7572145271035)" x2="0" y2="-12.989812384025981" style="fill: none; stroke: #4c78a8;"></line><line transform="translate(74.99999999999987,360.1862818315032)" x2="0" y2="-4.769597090585421" style="fill: none; stroke: #f58518;"></line><line transform="translate(74.99999999999987,352.0812914420773)" x2="0" y2="-4.139382038421672" style="fill: none; stroke: #e45756;"></line><line transform="translate(74.99999999999987,246.1594976105053)" x2="0" y2="-3.983823750272734" style="fill: none; stroke: #72b7b2;"></line><line transform="translate(112.49999999999991,156.98966959905007)" x2="0" y2="-13.005909697504592" style="fill: none; stroke: #4c78a8;"></line><line transform="translate(112.49999999999991,355.6966003217857)" x2="0" y2="-4.886528994266087" style="fill: none; stroke: #f58518;"></line><line transform="translate(112.49999999999991,347.6427706788742)" x2="0" y2="-4.4996356186599655" style="fill: none; stroke: #e45756;"></line><line transform="translate(112.49999999999991,241.98004402060153)" x2="0" y2="-4.026937277312754" style="fill: none; stroke: #72b7b2;"></line><line transform="translate(149.99999999999994,147.57016714507913)" x2="0" y2="-13.303064825792347" style="fill: none; stroke: #4c78a8;"></line><line transform="translate(149.99999999999994,351.20018962634134)" x2="0" y2="-5.265566306253504" style="fill: none; stroke: #f58518;"></line><line transform="translate(149.99999999999994,343.5266778499678)" x2="0" y2="-4.674866935055377" style="fill: none; stroke: #e45756;"></line><line transform="translate(149.99999999999994,241.55853908240803)" x2="0" y2="-4.07409674120629" style="fill: none; stroke: #72b7b2;"></line><line transform="translate(187.5,139.04589585137253)" x2="0" y2="-13.607759077399066" style="fill: none; stroke: #4c78a8;"></line><line transform="translate(187.5,346.22357643961607)" x2="0" y2="-4.8485893102832165" style="fill: none; stroke: #f58518;"></line><line transform="translate(187.5,338.81508657539416)" x2="0" y2="-5.097577835807783" style="fill: none; stroke: #e45756;"></line><line transform="translate(187.5,235.25208570465742)" x2="0" y2="-4.201951887985871" style="fill: none; stroke: #72b7b2;"></line><line transform="translate(225.00000000000003,129.4367516005102)" x2="0" y2="-13.575665810853906" style="fill: none; stroke: #4c78a8;"></line><line transform="translate(225.00000000000003,341.5146718651648)" x2="0" y2="-5.031440277947695" style="fill: none; stroke: #f58518;"></line><line transform="translate(225.00000000000003,334.4642755968602)" x2="0" y2="-5.1134889293354036" style="fill: none; stroke: #e45756;"></line><line transform="translate(225.00000000000003,227.88026295920832)" x2="0" y2="-4.289785062761894" style="fill: none; stroke: #72b7b2;"></line><line transform="translate(299.9999999999999,111.46310117734598)" x2="0" y2="-14.232103076001366" style="fill: none; stroke: #4c78a8;"></line><line transform="translate(299.9999999999999,331.9297083192044)" x2="0" y2="-5.794230232159862" style="fill: none; stroke: #f58518;"></line><line transform="translate(299.9999999999999,326.20356927731916)" x2="0" y2="-5.223602111185755" style="fill: none; stroke: #e45756;"></line><line transform="translate(299.9999999999999,222.840328331849)" x2="0" y2="-4.427835751000146" style="fill: none; stroke: #72b7b2;"></line><line transform="translate(412.5,84.79339014899323)" x2="0" y2="-14.754915294394422" style="fill: none; stroke: #4c78a8;"></line><line transform="translate(412.5,316.7699408834753)" x2="0" y2="-6.189416960404458" style="fill: none; stroke: #f58518;"></line><line transform="translate(412.5,313.31394166656963)" x2="0" y2="-5.895223973020791" style="fill: none; stroke: #e45756;"></line><line transform="translate(412.5,204.82909637235406)" x2="0" y2="-5.309260621694875" style="fill: none; stroke: #72b7b2;"></line><line transform="translate(600,41.25125425909526)" x2="0" y2="-15.893763580975943" style="fill: none; stroke: #4c78a8;"></line><line transform="translate(600,289.411082853051)" x2="0" y2="-6.833333419395956" style="fill: none; stroke: #f58518;"></line><line transform="translate(600,285.455397502795)" x2="0" y2="-6.319054742695641" style="fill: none; stroke: #e45756;"></line><line transform="translate(600,111.71959501875466)" x2="0" y2="-28.86308261687148" style="fill: none; stroke: #72b7b2;"></line></g><g class="mark-symbol role-mark layer_1_marks"><path transform="translate(37.49999999999983,168.51918536915616)" d="M2.7386127875258306,0A2.7386127875258306,2.7386127875258306,0,1,1,-2.7386127875258306,0A2.7386127875258306,2.7386127875258306,0,1,1,2.7386127875258306,0" style="fill: none; stroke: #4c78a8; stroke-width: 2; opacity: 0.7;"></path><path transform="translate(37.49999999999983,362.21457220734095)" d="M2.7386127875258306,0A2.7386127875258306,2.7386127875258306,0,1,1,-2.7386127875258306,0A2.7386127875258306,2.7386127875258306,0,1,1,2.7386127875258306,0" style="fill: none; stroke: #f58518; stroke-width: 2; opacity: 0.7;"></path><path transform="translate(37.49999999999983,354.629966965526)" d="M2.7386127875258306,0A2.7386127875258306,2.7386127875258306,0,1,1,-2.7386127875258306,0A2.7386127875258306,2.7386127875258306,0,1,1,2.7386127875258306,0" style="fill: none; stroke: #e45756; stroke-width: 2; opacity: 0.7;"></path><path transform="translate(37.49999999999983,250.90154085193444)" d="M2.7386127875258306,0A2.7386127875258306,2.7386127875258306,0,1,1,-2.7386127875258306,0A2.7386127875258306,2.7386127875258306,0,1,1,2.7386127875258306,0" style="fill: none; stroke: #72b7b2; stroke-width: 2; opacity: 0.7;"></path><path transform="translate(74.99999999999987,160.26230833509052)" d="M2.7386127875258306,0A2.7386127875258306,2.7386127875258306,0,1,1,-2.7386127875258306,0A2.7386127875258306,2.7386127875258306,0,1,1,2.7386127875258306,0" style="fill: none; stroke: #4c78a8; stroke-width: 2; opacity: 0.7;"></path><path transform="translate(74.99999999999987,357.8014832862105)" d="M2.7386127875258306,0A2.7386127875258306,2.7386127875258306,0,1,1,-2.7386127875258306,0A2.7386127875258306,2.7386127875258306,0,1,1,2.7386127875258306,0" style="fill: none; stroke: #f58518; stroke-width: 2; opacity: 0.7;"></path><path transform="translate(74.99999999999987,350.0116004228665)" d="M2.7386127875258306,0A2.7386127875258306,2.7386127875258306,0,1,1,-2.7386127875258306,0A2.7386127875258306,2.7386127875258306,0,1,1,2.7386127875258306,0" style="fill: none; stroke: #e45756; stroke-width: 2; opacity: 0.7;"></path><path transform="translate(74.99999999999987,244.16758573536893)" d="M2.7386127875258306,0A2.7386127875258306,2.7386127875258306,0,1,1,-2.7386127875258306,0A2.7386127875258306,2.7386127875258306,0,1,1,2.7386127875258306,0" style="fill: none; stroke: #72b7b2; stroke-width: 2; opacity: 0.7;"></path><path transform="translate(112.49999999999991,150.48671475029778)" d="M2.7386127875258306,0A2.7386127875258306,2.7386127875258306,0,1,1,-2.7386127875258306,0A2.7386127875258306,2.7386127875258306,0,1,1,2.7386127875258306,0" style="fill: none; stroke: #4c78a8; stroke-width: 2; opacity: 0.7;"></path><path transform="translate(112.49999999999991,353.25333582465265)" d="M2.7386127875258306,0A2.7386127875258306,2.7386127875258306,0,1,1,-2.7386127875258306,0A2.7386127875258306,2.7386127875258306,0,1,1,2.7386127875258306,0" style="fill: none; stroke: #f58518; stroke-width: 2; opacity: 0.7;"></path><path transform="translate(112.49999999999991,345.39295286954416)" d="M2.7386127875258306,0A2.7386127875258306,2.7386127875258306,0,1,1,-2.7386127875258306,0A2.7386127875258306,2.7386127875258306,0,1,1,2.7386127875258306,0" style="fill: none; stroke: #e45756; stroke-width: 2; opacity: 0.7;"></path><path transform="translate(112.49999999999991,239.96657538194515)" d="M2.7386127875258306,0A2.7386127875258306,2.7386127875258306,0,1,1,-2.7386127875258306,0A2.7386127875258306,2.7386127875258306,0,1,1,2.7386127875258306,0" style="fill: none; stroke: #72b7b2; stroke-width: 2; opacity: 0.7;"></path><path transform="translate(149.99999999999994,140.91863473218297)" d="M2.7386127875258306,0A2.7386127875258306,2.7386127875258306,0,1,1,-2.7386127875258306,0A2.7386127875258306,2.7386127875258306,0,1,1,2.7386127875258306,0" style="fill: none; stroke: #4c78a8; stroke-width: 2; opacity: 0.7;"></path><path transform="translate(149.99999999999994,348.5674064732146)" d="M2.7386127875258306,0A2.7386127875258306,2.7386127875258306,0,1,1,-2.7386127875258306,0A2.7386127875258306,2.7386127875258306,0,1,1,2.7386127875258306,0" style="fill: none; stroke: #f58518; stroke-width: 2; opacity: 0.7;"></path><path transform="translate(149.99999999999994,341.1892443824401)" d="M2.7386127875258306,0A2.7386127875258306,2.7386127875258306,0,1,1,-2.7386127875258306,0A2.7386127875258306,2.7386127875258306,0,1,1,2.7386127875258306,0" style="fill: none; stroke: #e45756; stroke-width: 2; opacity: 0.7;"></path><path transform="translate(149.99999999999994,239.5214907118049)" d="M2.7386127875258306,0A2.7386127875258306,2.7386127875258306,0,1,1,-2.7386127875258306,0A2.7386127875258306,2.7386127875258306,0,1,1,2.7386127875258306,0" style="fill: none; stroke: #72b7b2; stroke-width: 2; opacity: 0.7;"></path><path transform="translate(187.5,132.242016312673)" d="M2.7386127875258306,0A2.7386127875258306,2.7386127875258306,0,1,1,-2.7386127875258306,0A2.7386127875258306,2.7386127875258306,0,1,1,2.7386127875258306,0" style="fill: none; stroke: #4c78a8; stroke-width: 2; opacity: 0.7;"></path><path transform="translate(187.5,343.7992817844745)" d="M2.7386127875258306,0A2.7386127875258306,2.7386127875258306,0,1,1,-2.7386127875258306,0A2.7386127875258306,2.7386127875258306,0,1,1,2.7386127875258306,0" style="fill: none; stroke: #f58518; stroke-width: 2; opacity: 0.7;"></path><path transform="translate(187.5,336.26629765749027)" d="M2.7386127875258306,0A2.7386127875258306,2.7386127875258306,0,1,1,-2.7386127875258306,0A2.7386127875258306,2.7386127875258306,0,1,1,2.7386127875258306,0" style="fill: none; stroke: #e45756; stroke-width: 2; opacity: 0.7;"></path><path transform="translate(187.5,233.1511097606645)" d="M2.7386127875258306,0A2.7386127875258306,2.7386127875258306,0,1,1,-2.7386127875258306,0A2.7386127875258306,2.7386127875258306,0,1,1,2.7386127875258306,0" style="fill: none; stroke: #72b7b2; stroke-width: 2; opacity: 0.7;"></path><path transform="translate(225.00000000000003,122.64891869508325)" d="M2.7386127875258306,0A2.7386127875258306,2.7386127875258306,0,1,1,-2.7386127875258306,0A2.7386127875258306,2.7386127875258306,0,1,1,2.7386127875258306,0" style="fill: none; stroke: #4c78a8; stroke-width: 2; opacity: 0.7;"></path><path transform="translate(225.00000000000003,338.99895172619097)" d="M2.7386127875258306,0A2.7386127875258306,2.7386127875258306,0,1,1,-2.7386127875258306,0A2.7386127875258306,2.7386127875258306,0,1,1,2.7386127875258306,0" style="fill: none; stroke: #f58518; stroke-width: 2; opacity: 0.7;"></path><path transform="translate(225.00000000000003,331.9075311321925)" d="M2.7386127875258306,0A2.7386127875258306,2.7386127875258306,0,1,1,-2.7386127875258306,0A2.7386127875258306,2.7386127875258306,0,1,1,2.7386127875258306,0" style="fill: none; stroke: #e45756; stroke-width: 2; opacity: 0.7;"></path><path transform="translate(225.00000000000003,225.73537042782738)" d="M2.7386127875258306,0A2.7386127875258306,2.7386127875258306,0,1,1,-2.7386127875258306,0A2.7386127875258306,2.7386127875258306,0,1,1,2.7386127875258306,0" style="fill: none; stroke: #72b7b2; stroke-width: 2; opacity: 0.7;"></path><path transform="translate(299.9999999999999,104.34704963934531)" d="M2.7386127875258306,0A2.7386127875258306,2.7386127875258306,0,1,1,-2.7386127875258306,0A2.7386127875258306,2.7386127875258306,0,1,1,2.7386127875258306,0" style="fill: none; stroke: #4c78a8; stroke-width: 2; opacity: 0.7;"></path><path transform="translate(299.9999999999999,329.03259320312446)" d="M2.7386127875258306,0A2.7386127875258306,2.7386127875258306,0,1,1,-2.7386127875258306,0A2.7386127875258306,2.7386127875258306,0,1,1,2.7386127875258306,0" style="fill: none; stroke: #f58518; stroke-width: 2; opacity: 0.7;"></path><path transform="translate(299.9999999999999,323.5917682217263)" d="M2.7386127875258306,0A2.7386127875258306,2.7386127875258306,0,1,1,-2.7386127875258306,0A2.7386127875258306,2.7386127875258306,0,1,1,2.7386127875258306,0" style="fill: none; stroke: #e45756; stroke-width: 2; opacity: 0.7;"></path><path transform="translate(299.9999999999999,220.62641045634894)" d="M2.7386127875258306,0A2.7386127875258306,2.7386127875258306,0,1,1,-2.7386127875258306,0A2.7386127875258306,2.7386127875258306,0,1,1,2.7386127875258306,0" style="fill: none; stroke: #72b7b2; stroke-width: 2; opacity: 0.7;"></path><path transform="translate(412.5,77.41593250179602)" d="M2.7386127875258306,0A2.7386127875258306,2.7386127875258306,0,1,1,-2.7386127875258306,0A2.7386127875258306,2.7386127875258306,0,1,1,2.7386127875258306,0" style="fill: none; stroke: #4c78a8; stroke-width: 2; opacity: 0.7;"></path><path transform="translate(412.5,313.67523240327307)" d="M2.7386127875258306,0A2.7386127875258306,2.7386127875258306,0,1,1,-2.7386127875258306,0A2.7386127875258306,2.7386127875258306,0,1,1,2.7386127875258306,0" style="fill: none; stroke: #f58518; stroke-width: 2; opacity: 0.7;"></path><path transform="translate(412.5,310.3663296800592)" d="M2.7386127875258306,0A2.7386127875258306,2.7386127875258306,0,1,1,-2.7386127875258306,0A2.7386127875258306,2.7386127875258306,0,1,1,2.7386127875258306,0" style="fill: none; stroke: #e45756; stroke-width: 2; opacity: 0.7;"></path><path transform="translate(412.5,202.17446606150662)" d="M2.7386127875258306,0A2.7386127875258306,2.7386127875258306,0,1,1,-2.7386127875258306,0A2.7386127875258306,2.7386127875258306,0,1,1,2.7386127875258306,0" style="fill: none; stroke: #72b7b2; stroke-width: 2; opacity: 0.7;"></path><path transform="translate(600,33.30437246860729)" d="M2.7386127875258306,0A2.7386127875258306,2.7386127875258306,0,1,1,-2.7386127875258306,0A2.7386127875258306,2.7386127875258306,0,1,1,2.7386127875258306,0" style="fill: none; stroke: #4c78a8; stroke-width: 2; opacity: 0.7;"></path><path transform="translate(600,285.994416143353)" d="M2.7386127875258306,0A2.7386127875258306,2.7386127875258306,0,1,1,-2.7386127875258306,0A2.7386127875258306,2.7386127875258306,0,1,1,2.7386127875258306,0" style="fill: none; stroke: #f58518; stroke-width: 2; opacity: 0.7;"></path><path transform="translate(600,282.29587013144715)" d="M2.7386127875258306,0A2.7386127875258306,2.7386127875258306,0,1,1,-2.7386127875258306,0A2.7386127875258306,2.7386127875258306,0,1,1,2.7386127875258306,0" style="fill: none; stroke: #e45756; stroke-width: 2; opacity: 0.7;"></path><path transform="translate(600,97.2880537103189)" d="M2.7386127875258306,0A2.7386127875258306,2.7386127875258306,0,1,1,-2.7386127875258306,0A2.7386127875258306,2.7386127875258306,0,1,1,2.7386127875258306,0" style="fill: none; stroke: #72b7b2; stroke-width: 2; opacity: 0.7;"></path></g><g class="mark-group role-legend"><g transform="translate(618,0)"><path class="background" d="M0,0h77v95h-77Z" style="pointer-events: none; fill: none;"></path><g><g class="mark-group role-legend-entry"><g transform="translate(0,25)"><path class="background" d="M0,0h0v0h0Z" style="pointer-events: none; fill: none;"></path><g><g class="mark-group role-scope"><g transform="translate(0,0)"><path class="background" d="M0,0h63.78333282470703v16h-63.78333282470703Z" style="pointer-events: none; fill: none; opacity: 1;"></path><g><g class="mark-symbol role-legend-symbol" style="pointer-events: none;"><path transform="translate(8,8)" d="M5,0A5,5,0,1,1,-5,0A5,5,0,1,1,5,0" style="fill: none; stroke: #4c78a8; stroke-width: 1.5; opacity: 0.7;"></path></g><g class="mark-text role-legend-label" style="pointer-events: none;"><text text-anchor="start" transform="translate(20,13)" style="font-family: sans-serif; font-size: 16px; fill: #000; opacity: 1;">liquid</text></g></g><path class="foreground" d="" style="pointer-events: none; display: none; fill: none;"></path></g><g transform="translate(0,18)"><path class="background" d="M0,0h63.78333282470703v16h-63.78333282470703Z" style="pointer-events: none; fill: none; opacity: 1;"></path><g><g class="mark-symbol role-legend-symbol" style="pointer-events: none;"><path transform="translate(8,8)" d="M5,0A5,5,0,1,1,-5,0A5,5,0,1,1,5,0" style="fill: none; stroke: #f58518; stroke-width: 1.5; opacity: 0.7;"></path></g><g class="mark-text role-legend-label" style="pointer-events: none;"><text text-anchor="start" transform="translate(20,13)" style="font-family: sans-serif; font-size: 16px; fill: #000; opacity: 1;">p2</text></g></g><path class="foreground" d="" style="pointer-events: none; display: none; fill: none;"></path></g><g transform="translate(0,36)"><path class="background" d="M0,0h63.78333282470703v16h-63.78333282470703Z" style="pointer-events: none; fill: none; opacity: 1;"></path><g><g class="mark-symbol role-legend-symbol" style="pointer-events: none;"><path transform="translate(8,8)" d="M5,0A5,5,0,1,1,-5,0A5,5,0,1,1,5,0" style="fill: none; stroke: #e45756; stroke-width: 1.5; opacity: 0.7;"></path></g><g class="mark-text role-legend-label" style="pointer-events: none;"><text text-anchor="start" transform="translate(20,13)" style="font-family: sans-serif; font-size: 16px; fill: #000; opacity: 1;">p2gg</text></g></g><path class="foreground" d="" style="pointer-events: none; display: none; fill: none;"></path></g><g transform="translate(0,54)"><path class="background" d="M0,0h63.78333282470703v16h-63.78333282470703Z" style="pointer-events: none; fill: none; opacity: 1;"></path><g><g class="mark-symbol role-legend-symbol" style="pointer-events: none;"><path transform="translate(8,8)" d="M5,0A5,5,0,1,1,-5,0A5,5,0,1,1,5,0" style="fill: none; stroke: #72b7b2; stroke-width: 1.5; opacity: 0.7;"></path></g><g class="mark-text role-legend-label" style="pointer-events: none;"><text text-anchor="start" transform="translate(20,13)" style="font-family: sans-serif; font-size: 16px; fill: #000; opacity: 1;">pg</text></g></g><path class="foreground" d="" style="pointer-events: none; display: none; fill: none;"></path></g></g></g><path class="foreground" d="" style="pointer-events: none; display: none; fill: none;"></path></g></g><g class="mark-text role-legend-title" style="pointer-events: none;"><text text-anchor="start" transform="translate(0,16)" style="font-family: sans-serif; font-size: 20px; font-weight: bold; fill: #000; opacity: 1;">crystal</text></g></g><path class="foreground" d="" style="pointer-events: none; display: none; fill: none;"></path></g></g><g class="mark-group role-legend"><g transform="translate(618,103)"><path class="background" d="M0,0h100v41h-100Z" style="pointer-events: none; fill: none;"></path><g><g class="mark-group role-legend-entry"><g transform="translate(0,25)"><path class="background" d="M0,0h0v0h0Z" style="pointer-events: none; fill: none;"></path><g><g class="mark-group role-scope"><g transform="translate(0,0)"><path class="background" d="M0,0h30.18333339691162v16h-30.18333339691162Z" style="pointer-events: none; fill: none; opacity: 1;"></path><g><g class="mark-symbol role-legend-symbol" style="pointer-events: none;"><path transform="translate(8,8)" d="M5,0A5,5,0,1,1,-5,0A5,5,0,1,1,5,0" style="fill: none; stroke: #888; stroke-width: 1.5; opacity: 0.7;"></path></g><g class="mark-text role-legend-label" style="pointer-events: none;"><text text-anchor="start" transform="translate(20,13)" style="font-family: sans-serif; font-size: 16px; fill: #000; opacity: 1;">1</text></g></g><path class="foreground" d="" style="pointer-events: none; display: none; fill: none;"></path></g></g></g><path class="foreground" d="" style="pointer-events: none; display: none; fill: none;"></path></g></g><g class="mark-text role-legend-title" style="pointer-events: none;"><text text-anchor="start" transform="translate(0,16)" style="font-family: sans-serif; font-size: 20px; font-weight: bold; fill: #000; opacity: 1;">pressure</text></g></g><path class="foreground" d="" style="pointer-events: none; display: none; fill: none;"></path></g></g><g class="mark-group role-axis"><g transform="translate(0.5,400.5)"><path class="background" d="M0,0h0v0h0Z" style="pointer-events: none; fill: none;"></path><g><g class="mark-rule role-axis-tick" style="pointer-events: none;"><line transform="translate(0,0)" x2="0" y2="5" style="fill: none; stroke: #888; stroke-width: 1; opacity: 1;"></line><line transform="translate(37,0)" x2="0" y2="5" style="fill: none; stroke: #888; stroke-width: 1; opacity: 1;"></line><line transform="translate(75,0)" x2="0" y2="5" style="fill: none; stroke: #888; stroke-width: 1; opacity: 1;"></line><line transform="translate(112,0)" x2="0" y2="5" style="fill: none; stroke: #888; stroke-width: 1; opacity: 1;"></line><line transform="translate(150,0)" x2="0" y2="5" style="fill: none; stroke: #888; stroke-width: 1; opacity: 1;"></line><line transform="translate(188,0)" x2="0" y2="5" style="fill: none; stroke: #888; stroke-width: 1; opacity: 1;"></line><line transform="translate(225,0)" x2="0" y2="5" style="fill: none; stroke: #888; stroke-width: 1; opacity: 1;"></line><line transform="translate(262,0)" x2="0" y2="5" style="fill: none; stroke: #888; stroke-width: 1; opacity: 1;"></line><line transform="translate(300,0)" x2="0" y2="5" style="fill: none; stroke: #888; stroke-width: 1; opacity: 1;"></line><line transform="translate(337,0)" x2="0" y2="5" style="fill: none; stroke: #888; stroke-width: 1; opacity: 1;"></line><line transform="translate(375,0)" x2="0" y2="5" style="fill: none; stroke: #888; stroke-width: 1; opacity: 1;"></line><line transform="translate(413,0)" x2="0" y2="5" style="fill: none; stroke: #888; stroke-width: 1; opacity: 1;"></line><line transform="translate(450,0)" x2="0" y2="5" style="fill: none; stroke: #888; stroke-width: 1; opacity: 1;"></line><line transform="translate(487,0)" x2="0" y2="5" style="fill: none; stroke: #888; stroke-width: 1; opacity: 1;"></line><line transform="translate(525,0)" x2="0" y2="5" style="fill: none; stroke: #888; stroke-width: 1; opacity: 1;"></line><line transform="translate(562,0)" x2="0" y2="5" style="fill: none; stroke: #888; stroke-width: 1; opacity: 1;"></line><line transform="translate(600,0)" x2="0" y2="5" style="fill: none; stroke: #888; stroke-width: 1; opacity: 1;"></line></g><g class="mark-text role-axis-label" style="pointer-events: none;"><text text-anchor="start" transform="translate(0,20)" style="font-family: sans-serif; font-size: 16px; fill: #000; opacity: 1;">0.34</text><text text-anchor="middle" transform="translate(37.49999999999983,20)" style="font-family: sans-serif; font-size: 16px; fill: #000; opacity: 0;">0.35</text><text text-anchor="middle" transform="translate(74.99999999999987,20)" style="font-family: sans-serif; font-size: 16px; fill: #000; opacity: 1;">0.36</text><text text-anchor="middle" transform="translate(112.49999999999991,20)" style="font-family: sans-serif; font-size: 16px; fill: #000; opacity: 0;">0.37</text><text text-anchor="middle" transform="translate(149.99999999999994,20)" style="font-family: sans-serif; font-size: 16px; fill: #000; opacity: 1;">0.38</text><text text-anchor="middle" transform="translate(187.5,20)" style="font-family: sans-serif; font-size: 16px; fill: #000; opacity: 0;">0.39</text><text text-anchor="middle" transform="translate(225.00000000000003,20)" style="font-family: sans-serif; font-size: 16px; fill: #000; opacity: 1;">0.40</text><text text-anchor="middle" transform="translate(262.4999999999999,20)" style="font-family: sans-serif; font-size: 16px; fill: #000; opacity: 0;">0.41</text><text text-anchor="middle" transform="translate(299.9999999999999,20)" style="font-family: sans-serif; font-size: 16px; fill: #000; opacity: 1;">0.42</text><text text-anchor="middle" transform="translate(337.49999999999994,20)" style="font-family: sans-serif; font-size: 16px; fill: #000; opacity: 0;">0.43</text><text text-anchor="middle" transform="translate(375,20)" style="font-family: sans-serif; font-size: 16px; fill: #000; opacity: 1;">0.44</text><text text-anchor="middle" transform="translate(412.5,20)" style="font-family: sans-serif; font-size: 16px; fill: #000; opacity: 0;">0.45</text><text text-anchor="middle" transform="translate(450.00000000000006,20)" style="font-family: sans-serif; font-size: 16px; fill: #000; opacity: 1;">0.46</text><text text-anchor="middle" transform="translate(487.4999999999999,20)" style="font-family: sans-serif; font-size: 16px; fill: #000; opacity: 0;">0.47</text><text text-anchor="middle" transform="translate(524.9999999999999,20)" style="font-family: sans-serif; font-size: 16px; fill: #000; opacity: 1;">0.48</text><text text-anchor="middle" transform="translate(562.4999999999999,20)" style="font-family: sans-serif; font-size: 16px; fill: #000; opacity: 0;">0.49</text><text text-anchor="end" transform="translate(600,20)" style="font-family: sans-serif; font-size: 16px; fill: #000; opacity: 1;">0.50</text></g><g class="mark-rule role-axis-domain" style="pointer-events: none;"><line transform="translate(0,0)" x2="600" y2="0" style="fill: none; stroke: #888; stroke-width: 1; opacity: 1;"></line></g><g class="mark-text role-axis-title" style="pointer-events: none;"><text text-anchor="middle" transform="translate(300,43)" style="font-family: sans-serif; font-size: 20px; font-weight: bold; fill: #000; opacity: 1;">temperature</text></g></g><path class="foreground" d="" style="pointer-events: none; display: none; fill: none;"></path></g></g><g class="mark-group role-axis"><g transform="translate(0.5,0.5)"><path class="background" d="M0,0h0v0h0Z" style="pointer-events: none; fill: none;"></path><g><g class="mark-rule role-axis-tick" style="pointer-events: none;"><line transform="translate(0,400)" x2="-5" y2="0" style="fill: none; stroke: #888; stroke-width: 1; opacity: 1;"></line><line transform="translate(0,350)" x2="-5" y2="0" style="fill: none; stroke: #888; stroke-width: 1; opacity: 1;"></line><line transform="translate(0,300)" x2="-5" y2="0" style="fill: none; stroke: #888; stroke-width: 1; opacity: 1;"></line><line transform="translate(0,250)" x2="-5" y2="0" style="fill: none; stroke: #888; stroke-width: 1; opacity: 1;"></line><line transform="translate(0,200)" x2="-5" y2="0" style="fill: none; stroke: #888; stroke-width: 1; opacity: 1;"></line><line transform="translate(0,150)" x2="-5" y2="0" style="fill: none; stroke: #888; stroke-width: 1; opacity: 1;"></line><line transform="translate(0,100)" x2="-5" y2="0" style="fill: none; stroke: #888; stroke-width: 1; opacity: 1;"></line><line transform="translate(0,50)" x2="-5" y2="0" style="fill: none; stroke: #888; stroke-width: 1; opacity: 1;"></line><line transform="translate(0,0)" x2="-5" y2="0" style="fill: none; stroke: #888; stroke-width: 1; opacity: 1;"></line></g><g class="mark-text role-axis-label" style="pointer-events: none;"><text text-anchor="end" transform="translate(-7,405)" style="font-family: sans-serif; font-size: 16px; fill: #000; opacity: 1;">-2.05</text><text text-anchor="end" transform="translate(-7,355.00000000000017)" style="font-family: sans-serif; font-size: 16px; fill: #000; opacity: 1;">-2.00</text><text text-anchor="end" transform="translate(-7,305.0000000000001)" style="font-family: sans-serif; font-size: 16px; fill: #000; opacity: 1;">-1.95</text><text text-anchor="end" transform="translate(-7,255.00000000000009)" style="font-family: sans-serif; font-size: 16px; fill: #000; opacity: 1;">-1.90</text><text text-anchor="end" transform="translate(-7,205.00000000000023)" style="font-family: sans-serif; font-size: 16px; fill: #000; opacity: 1;">-1.85</text><text text-anchor="end" transform="translate(-7,155.00000000000017)" style="font-family: sans-serif; font-size: 16px; fill: #000; opacity: 1;">-1.80</text><text text-anchor="end" transform="translate(-7,105.00000000000013)" style="font-family: sans-serif; font-size: 16px; fill: #000; opacity: 1;">-1.75</text><text text-anchor="end" transform="translate(-7,55.00000000000004)" style="font-family: sans-serif; font-size: 16px; fill: #000; opacity: 1;">-1.70</text><text text-anchor="end" transform="translate(-7,5)" style="font-family: sans-serif; font-size: 16px; fill: #000; opacity: 1;">-1.65</text></g><g class="mark-rule role-axis-domain" style="pointer-events: none;"><line transform="translate(0,400)" x2="0" y2="-400" style="fill: none; stroke: #888; stroke-width: 1; opacity: 1;"></line></g><g class="mark-text role-axis-title" style="pointer-events: none;"><text text-anchor="middle" transform="translate(-52.400001525878906,200) rotate(-90) translate(0,-4)" style="font-family: sans-serif; font-size: 20px; font-weight: bold; fill: #000; opacity: 1;">potential_energy</text></g></g><path class="foreground" d="" style="pointer-events: none; display: none; fill: none;"></path></g></g></g><path class="foreground" d="" style="display: none; fill: none;"></path></g></g></g></svg>