<svg class="marks" width="774" height="465" viewBox="0 0 774 465" version="1.1" xmlns="http://www.w3.org/2000/svg" xmlns:xlink="http://www.w3.org/1999/xlink"><rect width="774" height="465" style="fill: white;"></rect><g transform="translate(72,13)"><g class="mark-group role-frame root"><g transform="translate(0,0)"><path class="background" d="M0.5,0.5h600v400h-600Z" style="fill: none; stroke: #ddd;"></path><g><g class="mark-group role-axis"><g transform="translate(0.5,400.5)"><path class="background" d="M0,0h0v0h0Z" style="pointer-events: none; fill: none;"></path><g><g class="mark-rule role-axis-tick" style="pointer-events: none;"><line transform="translate(0,0)" x2="0" y2="5" style="fill: none; stroke: #888; stroke-width: 1; opacity: 1;"></line><line transform="translate(37,0)" x2="0" y2="5" style="fill: none; stroke: #888; stroke-width: 1; opacity: 1;"></line><line transform="translate(75,0)" x2="0" y2="5" style="fill: none; stroke: #888; stroke-width: 1; opacity: 1;"></line><line transform="translate(112,0)" x2="0" y2="5" style="fill: none; stroke: #888; stroke-width: 1; opacity: 1;"></line><line transform="translate(150,0)" x2="0" y2="5" style="fill: none; stroke: #888; stroke-width: 1; opacity: 1;"></line><line transform="translate(188,0)" x2="0" y2="5" style="fill: none; stroke: #888; stroke-width: 1; opacity: 1;"></line><line transform="translate(225,0)" x2="0" y2="5" style="fill: none; stroke: #888; stroke-width: 1; opacity: 1;"></line><line transform="translate(262,0)" x2="0" y2="5" style="fill: none; stroke: #888; stroke-width: 1; opacity: 1;"></line><line transform="translate(300,0)" x2="0" y2="5" style="fill: none; stroke: #888; stroke-width: 1; opacity: 1;"></line><line transform="translate(337,0)" x2="0" y2="5" style="fill: none; stroke: #888; stroke-width: 1; opacity: 1;"></line><line transform="translate(375,0)" x2="0" y2="5" style="fill: none; stroke: #888; stroke-width: 1; opacity: 1;"></line><line transform="translate(413,0)" x2="0" y2="5" style="fill: none; stroke: #888; stroke-width: 1; opacity: 1;"></line><line transform="translate(450,0)" x2="0" y2="5" style="fill: none; stroke: #888; stroke-width: 1; opacity: 1;"></line><line transform="translate(487,0)" x2="0" y2="5" style="fill: none; stroke: #888; stroke-width: 1; opacity: 1;"></line><line transform="translate(525,0)" x2="0" y2="5" style="fill: none; stroke: #888; stroke-width: 1; opacity: 1;"></line><line transform="translate(562,0)" x2="0" y2="5" style="fill: none; stroke: #888; stroke-width: 1; opacity: 1;"></line><line transform="translate(600,0)" x2="0" y2="5" style="fill: none; stroke: #888; stroke-width: 1; opacity: 1;"></line></g><g class="mark-text role-axis-label" style="pointer-events: none;"><text text-anchor="start" transform="translate(0,20)" style="font-family: Roboto; font-size: 16px; fill: #000; opacity: 1;">0.34</text><text text-anchor="middle" transform="translate(37.49999999999983,20)" style="font-family: Roboto; font-size: 16px; fill: #000; opacity: 0;">0.35</text><text text-anchor="middle" transform="translate(74.99999999999987,20)" style="font-family: Roboto; font-size: 16px; fill: #000; opacity: 1;">0.36</text><text text-anchor="middle" transform="translate(112.49999999999991,20)" style="font-family: Roboto; font-size: 16px; fill: #000; opacity: 0;">0.37</text><text text-anchor="middle" transform="translate(149.99999999999994,20)" style="font-family: Roboto; font-size: 16px; fill: #000; opacity: 1;">0.38</text><text text-anchor="middle" transform="translate(187.5,20)" style="font-family: Roboto; font-size: 16px; fill: #000; opacity: 0;">0.39</text><text text-anchor="middle" transform="translate(225.00000000000003,20)" style="font-family: Roboto; font-size: 16px; fill: #000; opacity: 1;">0.40</text><text text-anchor="middle" transform="translate(262.4999999999999,20)" style="font-family: Roboto; font-size: 16px; fill: #000; opacity: 0;">0.41</text><text text-anchor="middle" transform="translate(299.9999999999999,20)" style="font-family: Roboto; font-size: 16px; fill: #000; opacity: 1;">0.42</text><text text-anchor="middle" transform="translate(337.49999999999994,20)" style="font-family: Roboto; font-size: 16px; fill: #000; opacity: 0;">0.43</text><text text-anchor="middle" transform="translate(375,20)" style="font-family: Roboto; font-size: 16px; fill: #000; opacity: 1;">0.44</text><text text-anchor="middle" transform="translate(412.5,20)" style="font-family: Roboto; font-size: 16px; fill: #000; opacity: 0;">0.45</text><text text-anchor="middle" transform="translate(450.00000000000006,20)" style="font-family: Roboto; font-size: 16px; fill: #000; opacity: 1;">0.46</text><text text-anchor="middle" transform="translate(487.4999999999999,20)" style="font-family: Roboto; font-size: 16px; fill: #000; opacity: 0;">0.47</text><text text-anchor="middle" transform="translate(524.9999999999999,20)" style="font-family: Roboto; font-size: 16px; fill: #000; opacity: 1;">0.48</text><text text-anchor="middle" transform="translate(562.4999999999999,20)" style="font-family: Roboto; font-size: 16px; fill: #000; opacity: 0;">0.49</text><text text-anchor="end" transform="translate(600,20)" style="font-family: Roboto; font-size: 16px; fill: #000; opacity: 1;">0.50</text></g><g class="mark-rule role-axis-domain" style="pointer-events: none;"><line transform="translate(0,0)" x2="600" y2="0" style="fill: none; stroke: #888; stroke-width: 1; opacity: 1;"></line></g><g class="mark-text role-axis-title" style="pointer-events: none;"><text text-anchor="middle" transform="translate(300,43)" style="font-family: Roboto; font-size: 20px; font-weight: bold; fill: #000; opacity: 1;">temperature</text></g></g><path class="foreground" d="" style="pointer-events: none; display: none; fill: none;"></path></g></g><g class="mark-group role-axis"><g transform="translate(0.5,0.5)"><path class="background" d="M0,0h0v0h0Z" style="pointer-events: none; fill: none;"></path><g><g class="mark-rule role-axis-tick" style="pointer-events: none;"><line transform="translate(0,400)" x2="-5" y2="0" style="fill: none; stroke: #888; stroke-width: 1; opacity: 1;"></line><line transform="translate(0,356)" x2="-5" y2="0" style="fill: none; stroke: #888; stroke-width: 1; opacity: 1;"></line><line transform="translate(0,311)" x2="-5" y2="0" style="fill: none; stroke: #888; stroke-width: 1; opacity: 1;"></line><line transform="translate(0,267)" x2="-5" y2="0" style="fill: none; stroke: #888; stroke-width: 1; opacity: 1;"></line><line transform="translate(0,222)" x2="-5" y2="0" style="fill: none; stroke: #888; stroke-width: 1; opacity: 1;"></line><line transform="translate(0,178)" x2="-5" y2="0" style="fill: none; stroke: #888; stroke-width: 1; opacity: 1;"></line><line transform="translate(0,133)" x2="-5" y2="0" style="fill: none; stroke: #888; stroke-width: 1; opacity: 1;"></line><line transform="translate(0,89)" x2="-5" y2="0" style="fill: none; stroke: #888; stroke-width: 1; opacity: 1;"></line><line transform="translate(0,44)" x2="-5" y2="0" style="fill: none; stroke: #888; stroke-width: 1; opacity: 1;"></line><line transform="translate(0,0)" x2="-5" y2="0" style="fill: none; stroke: #888; stroke-width: 1; opacity: 1;"></line></g><g class="mark-text role-axis-label" style="pointer-events: none;"><text text-anchor="end" transform="translate(-7,405)" style="font-family: Roboto; font-size: 16px; fill: #000; opacity: 1;">-1.90</text><text text-anchor="end" transform="translate(-7,360.5555555555557)" style="font-family: Roboto; font-size: 16px; fill: #000; opacity: 1;">-1.85</text><text text-anchor="end" transform="translate(-7,316.1111111111112)" style="font-family: Roboto; font-size: 16px; fill: #000; opacity: 1;">-1.80</text><text text-anchor="end" transform="translate(-7,271.66666666666674)" style="font-family: Roboto; font-size: 16px; fill: #000; opacity: 1;">-1.75</text><text text-anchor="end" transform="translate(-7,227.22222222222223)" style="font-family: Roboto; font-size: 16px; fill: #000; opacity: 1;">-1.70</text><text text-anchor="end" transform="translate(-7,182.77777777777777)" style="font-family: Roboto; font-size: 16px; fill: #000; opacity: 1;">-1.65</text><text text-anchor="end" transform="translate(-7,138.33333333333348)" style="font-family: Roboto; font-size: 16px; fill: #000; opacity: 1;">-1.60</text><text text-anchor="end" transform="translate(-7,93.88888888888897)" style="font-family: Roboto; font-size: 16px; fill: #000; opacity: 1;">-1.55</text><text text-anchor="end" transform="translate(-7,49.44444444444451)" style="font-family: Roboto; font-size: 16px; fill: #000; opacity: 1;">-1.50</text><text text-anchor="end" transform="translate(-7,5)" style="font-family: Roboto; font-size: 16px; fill: #000; opacity: 1;">-1.45</text></g><g class="mark-rule role-axis-domain" style="pointer-events: none;"><line transform="translate(0,400)" x2="0" y2="-400" style="fill: none; stroke: #888; stroke-width: 1; opacity: 1;"></line></g><g class="mark-text role-axis-title" style="pointer-events: none;"><text text-anchor="middle" transform="translate(-46.63333511352539,200) rotate(-90) translate(0,-4)" style="font-family: Roboto; font-size: 20px; font-weight: bold; fill: #000; opacity: 1;">enthalpy</text></g></g><path class="foreground" d="" style="pointer-events: none; display: none; fill: none;"></path></g></g><g class="mark-rule role-mark layer_0_layer_0_marks"><line transform="translate(37.49999999999983,216.82816031724826)" x2="0" y2="-12.331761866064596" style="fill: none; stroke: #4c78a8;"></line><line transform="translate(37.49999999999983,386.0620811123061)" x2="0" y2="-5.913271969507889" style="fill: none; stroke: #f58518;"></line><line transform="translate(37.49999999999983,379.03717777956604)" x2="0" y2="-5.584709443515237" style="fill: none; stroke: #e45756;"></line><line transform="translate(37.49999999999983,286.4571612549567)" x2="0" y2="-4.670242555823961" style="fill: none; stroke: #72b7b2;"></line><line transform="translate(74.99999999999987,206.576811019886)" x2="0" y2="-13.16508991951082" style="fill: none; stroke: #4c78a8;"></line><line transform="translate(74.99999999999987,378.93587503952637)" x2="0" y2="-6.377408219878987" style="fill: none; stroke: #f58518;"></line><line transform="translate(74.99999999999987,371.25011056448824)" x2="0" y2="-4.89848750458242" style="fill: none; stroke: #e45756;"></line><line transform="translate(74.99999999999987,277.39073613324143)" x2="0" y2="-5.311510893547904" style="fill: none; stroke: #72b7b2;"></line><line transform="translate(112.49999999999991,194.6125743659959)" x2="0" y2="-13.264996760184204" style="fill: none; stroke: #4c78a8;"></line><line transform="translate(112.49999999999991,371.41188575364544)" x2="0" y2="-6.129528967780573" style="fill: none; stroke: #f58518;"></line><line transform="translate(112.49999999999991,364.34411773196456)" x2="0" y2="-5.900622454993879" style="fill: none; stroke: #e45756;"></line><line transform="translate(112.49999999999991,270.37391412756824)" x2="0" y2="-5.147243831656851" style="fill: none; stroke: #72b7b2;"></line><line transform="translate(149.99999999999994,182.89850388643853)" x2="0" y2="-13.537145511447477" style="fill: none; stroke: #4c78a8;"></line><line transform="translate(149.99999999999994,364.04516678937824)" x2="0" y2="-6.275117850891604" style="fill: none; stroke: #f58518;"></line><line transform="translate(149.99999999999994,357.2322331574647)" x2="0" y2="-5.75188013821105" style="fill: none; stroke: #e45756;"></line><line transform="translate(149.99999999999994,266.43559997435915)" x2="0" y2="-5.00316422251143" style="fill: none; stroke: #72b7b2;"></line><line transform="translate(187.5,172.0130992650755)" x2="0" y2="-13.82370668898028" style="fill: none; stroke: #4c78a8;"></line><line transform="translate(187.5,356.37275136129085)" x2="0" y2="-6.017687195226756" style="fill: none; stroke: #f58518;"></line><line transform="translate(187.5,349.65033048047604)" x2="0" y2="-6.2504444626977715" style="fill: none; stroke: #e45756;"></line><line transform="translate(187.5,257.5061166333179)" x2="0" y2="-5.236670556118327" style="fill: none; stroke: #72b7b2;"></line><line transform="translate(225.00000000000003,160.20655522054662)" x2="0" y2="-13.910326564780547" style="fill: none; stroke: #4c78a8;"></line><line transform="translate(225.00000000000003,348.8400823210627)" x2="0" y2="-6.211858279208911" style="fill: none; stroke: #f58518;"></line><line transform="translate(225.00000000000003,342.6684748927809)" x2="0" y2="-6.348865111083967" style="fill: none; stroke: #e45756;"></line><line transform="translate(225.00000000000003,247.86951545921082)" x2="0" y2="-5.653898267016501" style="fill: none; stroke: #72b7b2;"></line><line transform="translate(299.9999999999999,137.61359481758225)" x2="0" y2="-14.57486531200854" style="fill: none; stroke: #4c78a8;"></line><line transform="translate(299.9999999999999,333.8082862558329)" x2="0" y2="-7.055547814425495" style="fill: none; stroke: #f58518;"></line><line transform="translate(299.9999999999999,328.51005094292225)" x2="0" y2="-6.276143050443125" style="fill: none; stroke: #e45756;"></line><line transform="translate(299.9999999999999,236.69453947994415)" x2="0" y2="-5.615872809805069" style="fill: none; stroke: #72b7b2;"></line><line transform="translate(412.5,103.98280290758977)" x2="0" y2="-15.285461210664991" style="fill: none; stroke: #4c78a8;"></line><line transform="translate(412.5,310.14994914436244)" x2="0" y2="-7.150388455713937" style="fill: none; stroke: #f58518;"></line><line transform="translate(412.5,306.79790563148305)" x2="0" y2="-6.4442153665626165" style="fill: none; stroke: #e45756;"></line><line transform="translate(412.5,210.63219673289288)" x2="0" y2="-6.316952653739577" style="fill: none; stroke: #72b7b2;"></line><line transform="translate(600,48.87911072800244)" x2="0" y2="-16.66499331675042" style="fill: none; stroke: #4c78a8;"></line><line transform="translate(600,268.9030303877499)" x2="0" y2="-7.562137648797318" style="fill: none; stroke: #f58518;"></line><line transform="translate(600,265.30911384402305)" x2="0" y2="-6.91915580227743" style="fill: none; stroke: #e45756;"></line><line transform="translate(600,110.39927775167256)" x2="0" y2="-25.926436482221334" style="fill: none; stroke: #72b7b2;"></line></g><g class="mark-symbol role-mark layer_1_marks"><path transform="translate(37.49999999999983,210.662279384216)" d="M2.7386127875258306,0A2.7386127875258306,2.7386127875258306,0,1,1,-2.7386127875258306,0A2.7386127875258306,2.7386127875258306,0,1,1,2.7386127875258306,0" style="fill: none; stroke: #4c78a8; stroke-width: 2; opacity: 0.7;"></path><path transform="translate(37.49999999999983,383.1054451275521)" d="M2.7386127875258306,0A2.7386127875258306,2.7386127875258306,0,1,1,-2.7386127875258306,0A2.7386127875258306,2.7386127875258306,0,1,1,2.7386127875258306,0" style="fill: none; stroke: #f58518; stroke-width: 2; opacity: 0.7;"></path><path transform="translate(37.49999999999983,376.24482305780845)" d="M2.7386127875258306,0A2.7386127875258306,2.7386127875258306,0,1,1,-2.7386127875258306,0A2.7386127875258306,2.7386127875258306,0,1,1,2.7386127875258306,0" style="fill: none; stroke: #e45756; stroke-width: 2; opacity: 0.7;"></path><path transform="translate(37.49999999999983,284.12203997704466)" d="M2.7386127875258306,0A2.7386127875258306,2.7386127875258306,0,1,1,-2.7386127875258306,0A2.7386127875258306,2.7386127875258306,0,1,1,2.7386127875258306,0" style="fill: none; stroke: #72b7b2; stroke-width: 2; opacity: 0.7;"></path><path transform="translate(74.99999999999987,199.9942660601306)" d="M2.7386127875258306,0A2.7386127875258306,2.7386127875258306,0,1,1,-2.7386127875258306,0A2.7386127875258306,2.7386127875258306,0,1,1,2.7386127875258306,0" style="fill: none; stroke: #4c78a8; stroke-width: 2; opacity: 0.7;"></path><path transform="translate(74.99999999999987,375.7471709295869)" d="M2.7386127875258306,0A2.7386127875258306,2.7386127875258306,0,1,1,-2.7386127875258306,0A2.7386127875258306,2.7386127875258306,0,1,1,2.7386127875258306,0" style="fill: none; stroke: #f58518; stroke-width: 2; opacity: 0.7;"></path><path transform="translate(74.99999999999987,368.800866812197)" d="M2.7386127875258306,0A2.7386127875258306,2.7386127875258306,0,1,1,-2.7386127875258306,0A2.7386127875258306,2.7386127875258306,0,1,1,2.7386127875258306,0" style="fill: none; stroke: #e45756; stroke-width: 2; opacity: 0.7;"></path><path transform="translate(74.99999999999987,274.73498068646745)" d="M2.7386127875258306,0A2.7386127875258306,2.7386127875258306,0,1,1,-2.7386127875258306,0A2.7386127875258306,2.7386127875258306,0,1,1,2.7386127875258306,0" style="fill: none; stroke: #72b7b2; stroke-width: 2; opacity: 0.7;"></path><path transform="translate(112.49999999999991,187.9800759859038)" d="M2.7386127875258306,0A2.7386127875258306,2.7386127875258306,0,1,1,-2.7386127875258306,0A2.7386127875258306,2.7386127875258306,0,1,1,2.7386127875258306,0" style="fill: none; stroke: #4c78a8; stroke-width: 2; opacity: 0.7;"></path><path transform="translate(112.49999999999991,368.3471212697552)" d="M2.7386127875258306,0A2.7386127875258306,2.7386127875258306,0,1,1,-2.7386127875258306,0A2.7386127875258306,2.7386127875258306,0,1,1,2.7386127875258306,0" style="fill: none; stroke: #f58518; stroke-width: 2; opacity: 0.7;"></path><path transform="translate(112.49999999999991,361.39380650446765)" d="M2.7386127875258306,0A2.7386127875258306,2.7386127875258306,0,1,1,-2.7386127875258306,0A2.7386127875258306,2.7386127875258306,0,1,1,2.7386127875258306,0" style="fill: none; stroke: #e45756; stroke-width: 2; opacity: 0.7;"></path><path transform="translate(112.49999999999991,267.8002922117399)" d="M2.7386127875258306,0A2.7386127875258306,2.7386127875258306,0,1,1,-2.7386127875258306,0A2.7386127875258306,2.7386127875258306,0,1,1,2.7386127875258306,0" style="fill: none; stroke: #72b7b2; stroke-width: 2; opacity: 0.7;"></path><path transform="translate(149.99999999999994,176.12993113071482)" d="M2.7386127875258306,0A2.7386127875258306,2.7386127875258306,0,1,1,-2.7386127875258306,0A2.7386127875258306,2.7386127875258306,0,1,1,2.7386127875258306,0" style="fill: none; stroke: #4c78a8; stroke-width: 2; opacity: 0.7;"></path><path transform="translate(149.99999999999994,360.9076078639324)" d="M2.7386127875258306,0A2.7386127875258306,2.7386127875258306,0,1,1,-2.7386127875258306,0A2.7386127875258306,2.7386127875258306,0,1,1,2.7386127875258306,0" style="fill: none; stroke: #f58518; stroke-width: 2; opacity: 0.7;"></path><path transform="translate(149.99999999999994,354.35629308835917)" d="M2.7386127875258306,0A2.7386127875258306,2.7386127875258306,0,1,1,-2.7386127875258306,0A2.7386127875258306,2.7386127875258306,0,1,1,2.7386127875258306,0" style="fill: none; stroke: #e45756; stroke-width: 2; opacity: 0.7;"></path><path transform="translate(149.99999999999994,263.9340178631034)" d="M2.7386127875258306,0A2.7386127875258306,2.7386127875258306,0,1,1,-2.7386127875258306,0A2.7386127875258306,2.7386127875258306,0,1,1,2.7386127875258306,0" style="fill: none; stroke: #72b7b2; stroke-width: 2; opacity: 0.7;"></path><path transform="translate(187.5,165.1012459205854)" d="M2.7386127875258306,0A2.7386127875258306,2.7386127875258306,0,1,1,-2.7386127875258306,0A2.7386127875258306,2.7386127875258306,0,1,1,2.7386127875258306,0" style="fill: none; stroke: #4c78a8; stroke-width: 2; opacity: 0.7;"></path><path transform="translate(187.5,353.3639077636775)" d="M2.7386127875258306,0A2.7386127875258306,2.7386127875258306,0,1,1,-2.7386127875258306,0A2.7386127875258306,2.7386127875258306,0,1,1,2.7386127875258306,0" style="fill: none; stroke: #f58518; stroke-width: 2; opacity: 0.7;"></path><path transform="translate(187.5,346.5251082491272)" d="M2.7386127875258306,0A2.7386127875258306,2.7386127875258306,0,1,1,-2.7386127875258306,0A2.7386127875258306,2.7386127875258306,0,1,1,2.7386127875258306,0" style="fill: none; stroke: #e45756; stroke-width: 2; opacity: 0.7;"></path><path transform="translate(187.5,254.8877813552587)" d="M2.7386127875258306,0A2.7386127875258306,2.7386127875258306,0,1,1,-2.7386127875258306,0A2.7386127875258306,2.7386127875258306,0,1,1,2.7386127875258306,0" style="fill: none; stroke: #72b7b2; stroke-width: 2; opacity: 0.7;"></path><path transform="translate(225.00000000000003,153.25139193815636)" d="M2.7386127875258306,0A2.7386127875258306,2.7386127875258306,0,1,1,-2.7386127875258306,0A2.7386127875258306,2.7386127875258306,0,1,1,2.7386127875258306,0" style="fill: none; stroke: #4c78a8; stroke-width: 2; opacity: 0.7;"></path><path transform="translate(225.00000000000003,345.7341531814583)" d="M2.7386127875258306,0A2.7386127875258306,2.7386127875258306,0,1,1,-2.7386127875258306,0A2.7386127875258306,2.7386127875258306,0,1,1,2.7386127875258306,0" style="fill: none; stroke: #f58518; stroke-width: 2; opacity: 0.7;"></path><path transform="translate(225.00000000000003,339.4940423372389)" d="M2.7386127875258306,0A2.7386127875258306,2.7386127875258306,0,1,1,-2.7386127875258306,0A2.7386127875258306,2.7386127875258306,0,1,1,2.7386127875258306,0" style="fill: none; stroke: #e45756; stroke-width: 2; opacity: 0.7;"></path><path transform="translate(225.00000000000003,245.04256632570252)" d="M2.7386127875258306,0A2.7386127875258306,2.7386127875258306,0,1,1,-2.7386127875258306,0A2.7386127875258306,2.7386127875258306,0,1,1,2.7386127875258306,0" style="fill: none; stroke: #72b7b2; stroke-width: 2; opacity: 0.7;"></path><path transform="translate(299.9999999999999,130.32616216157797)" d="M2.7386127875258306,0A2.7386127875258306,2.7386127875258306,0,1,1,-2.7386127875258306,0A2.7386127875258306,2.7386127875258306,0,1,1,2.7386127875258306,0" style="fill: none; stroke: #4c78a8; stroke-width: 2; opacity: 0.7;"></path><path transform="translate(299.9999999999999,330.28051234862016)" d="M2.7386127875258306,0A2.7386127875258306,2.7386127875258306,0,1,1,-2.7386127875258306,0A2.7386127875258306,2.7386127875258306,0,1,1,2.7386127875258306,0" style="fill: none; stroke: #f58518; stroke-width: 2; opacity: 0.7;"></path><path transform="translate(299.9999999999999,325.3719794177007)" d="M2.7386127875258306,0A2.7386127875258306,2.7386127875258306,0,1,1,-2.7386127875258306,0A2.7386127875258306,2.7386127875258306,0,1,1,2.7386127875258306,0" style="fill: none; stroke: #e45756; stroke-width: 2; opacity: 0.7;"></path><path transform="translate(299.9999999999999,233.8866030750416)" d="M2.7386127875258306,0A2.7386127875258306,2.7386127875258306,0,1,1,-2.7386127875258306,0A2.7386127875258306,2.7386127875258306,0,1,1,2.7386127875258306,0" style="fill: none; stroke: #72b7b2; stroke-width: 2; opacity: 0.7;"></path><path transform="translate(412.5,96.34007230225725)" d="M2.7386127875258306,0A2.7386127875258306,2.7386127875258306,0,1,1,-2.7386127875258306,0A2.7386127875258306,2.7386127875258306,0,1,1,2.7386127875258306,0" style="fill: none; stroke: #4c78a8; stroke-width: 2; opacity: 0.7;"></path><path transform="translate(412.5,306.57475491650547)" d="M2.7386127875258306,0A2.7386127875258306,2.7386127875258306,0,1,1,-2.7386127875258306,0A2.7386127875258306,2.7386127875258306,0,1,1,2.7386127875258306,0" style="fill: none; stroke: #f58518; stroke-width: 2; opacity: 0.7;"></path><path transform="translate(412.5,303.57579794820174)" d="M2.7386127875258306,0A2.7386127875258306,2.7386127875258306,0,1,1,-2.7386127875258306,0A2.7386127875258306,2.7386127875258306,0,1,1,2.7386127875258306,0" style="fill: none; stroke: #e45756; stroke-width: 2; opacity: 0.7;"></path><path transform="translate(412.5,207.47372040602306)" d="M2.7386127875258306,0A2.7386127875258306,2.7386127875258306,0,1,1,-2.7386127875258306,0A2.7386127875258306,2.7386127875258306,0,1,1,2.7386127875258306,0" style="fill: none; stroke: #72b7b2; stroke-width: 2; opacity: 0.7;"></path><path transform="translate(600,40.54661406962721)" d="M2.7386127875258306,0A2.7386127875258306,2.7386127875258306,0,1,1,-2.7386127875258306,0A2.7386127875258306,2.7386127875258306,0,1,1,2.7386127875258306,0" style="fill: none; stroke: #4c78a8; stroke-width: 2; opacity: 0.7;"></path><path transform="translate(600,265.12196156335125)" d="M2.7386127875258306,0A2.7386127875258306,2.7386127875258306,0,1,1,-2.7386127875258306,0A2.7386127875258306,2.7386127875258306,0,1,1,2.7386127875258306,0" style="fill: none; stroke: #f58518; stroke-width: 2; opacity: 0.7;"></path><path transform="translate(600,261.84953594288436)" d="M2.7386127875258306,0A2.7386127875258306,2.7386127875258306,0,1,1,-2.7386127875258306,0A2.7386127875258306,2.7386127875258306,0,1,1,2.7386127875258306,0" style="fill: none; stroke: #e45756; stroke-width: 2; opacity: 0.7;"></path><path transform="translate(600,97.43605951056189)" d="M2.7386127875258306,0A2.7386127875258306,2.7386127875258306,0,1,1,-2.7386127875258306,0A2.7386127875258306,2.7386127875258306,0,1,1,2.7386127875258306,0" style="fill: none; stroke: #72b7b2; stroke-width: 2; opacity: 0.7;"></path></g><g class="mark-group role-legend"><g transform="translate(618,0)"><path class="background" d="M0,0h62v95h-62Z" style="pointer-events: none; fill: none;"></path><g><g class="mark-group role-legend-entry"><g transform="translate(0,25)"><path class="background" d="M0,0h0v0h0Z" style="pointer-events: none; fill: none;"></path><g><g class="mark-group role-scope"><g transform="translate(0,0)"><path class="background" d="M0,0h58.58333206176758v16h-58.58333206176758Z" style="pointer-events: none; fill: none; opacity: 1;"></path><g><g class="mark-symbol role-legend-symbol" style="pointer-events: none;"><path transform="translate(8,8)" d="M5,0A5,5,0,1,1,-5,0A5,5,0,1,1,5,0" style="fill: none; stroke: #4c78a8; stroke-width: 1.5; opacity: 0.7;"></path></g><g class="mark-text role-legend-label" style="pointer-events: none;"><text text-anchor="start" transform="translate(20,13)" style="font-family: Roboto; font-size: 16px; fill: #000; opacity: 1;">liquid</text></g></g><path class="foreground" d="" style="pointer-events: none; display: none; fill: none;"></path></g><g transform="translate(0,18)"><path class="background" d="M0,0h58.58333206176758v16h-58.58333206176758Z" style="pointer-events: none; fill: none; opacity: 1;"></path><g><g class="mark-symbol role-legend-symbol" style="pointer-events: none;"><path transform="translate(8,8)" d="M5,0A5,5,0,1,1,-5,0A5,5,0,1,1,5,0" style="fill: none; stroke: #f58518; stroke-width: 1.5; opacity: 0.7;"></path></g><g class="mark-text role-legend-label" style="pointer-events: none;"><text text-anchor="start" transform="translate(20,13)" style="font-family: Roboto; font-size: 16px; fill: #000; opacity: 1;">p2</text></g></g><path class="foreground" d="" style="pointer-events: none; display: none; fill: none;"></path></g><g transform="translate(0,36)"><path class="background" d="M0,0h58.58333206176758v16h-58.58333206176758Z" style="pointer-events: none; fill: none; opacity: 1;"></path><g><g class="mark-symbol role-legend-symbol" style="pointer-events: none;"><path transform="translate(8,8)" d="M5,0A5,5,0,1,1,-5,0A5,5,0,1,1,5,0" style="fill: none; stroke: #e45756; stroke-width: 1.5; opacity: 0.7;"></path></g><g class="mark-text role-legend-label" style="pointer-events: none;"><text text-anchor="start" transform="translate(20,13)" style="font-family: Roboto; font-size: 16px; fill: #000; opacity: 1;">p2gg</text></g></g><path class="foreground" d="" style="pointer-events: none; display: none; fill: none;"></path></g><g transform="translate(0,54)"><path class="background" d="M0,0h58.58333206176758v16h-58.58333206176758Z" style="pointer-events: none; fill: none; opacity: 1;"></path><g><g class="mark-symbol role-legend-symbol" style="pointer-events: none;"><path transform="translate(8,8)" d="M5,0A5,5,0,1,1,-5,0A5,5,0,1,1,5,0" style="fill: none; stroke: #72b7b2; stroke-width: 1.5; opacity: 0.7;"></path></g><g class="mark-text role-legend-label" style="pointer-events: none;"><text text-anchor="start" transform="translate(20,13)" style="font-family: Roboto; font-size: 16px; fill: #000; opacity: 1;">pg</text></g></g><path class="foreground" d="" style="pointer-events: none; display: none; fill: none;"></path></g></g></g><path class="foreground" d="" style="pointer-events: none; display: none; fill: none;"></path></g></g><g class="mark-text role-legend-title" style="pointer-events: none;"><text text-anchor="start" transform="translate(0,16)" style="font-family: Roboto; font-size: 20px; font-weight: bold; fill: #000; opacity: 1;">crystal</text></g></g><path class="foreground" d="" style="pointer-events: none; display: none; fill: none;"></path></g></g><g class="mark-group role-legend"><g transform="translate(618,103)"><path class="background" d="M0,0h79v41h-79Z" style="pointer-events: none; fill: none;"></path><g><g class="mark-group role-legend-entry"><g transform="translate(0,25)"><path class="background" d="M0,0h0v0h0Z" style="pointer-events: none; fill: none;"></path><g><g class="mark-group role-scope"><g transform="translate(0,0)"><path class="background" d="M0,0h29v16h-29Z" style="pointer-events: none; fill: none; opacity: 1;"></path><g><g class="mark-symbol role-legend-symbol" style="pointer-events: none;"><path transform="translate(8,8)" d="M5,0A5,5,0,1,1,-5,0A5,5,0,1,1,5,0" style="fill: none; stroke: #888; stroke-width: 1.5; opacity: 0.7;"></path></g><g class="mark-text role-legend-label" style="pointer-events: none;"><text text-anchor="start" transform="translate(20,13)" style="font-family: Roboto; font-size: 16px; fill: #000; opacity: 1;">1</text></g></g><path class="foreground" d="" style="pointer-events: none; display: none; fill: none;"></path></g></g></g><path class="foreground" d="" style="pointer-events: none; display: none; fill: none;"></path></g></g><g class="mark-text role-legend-title" style="pointer-events: none;"><text text-anchor="start" transform="translate(0,16)" style="font-family: Roboto; font-size: 20px; font-weight: bold; fill: #000; opacity: 1;">pressure</text></g></g><path class="foreground" d="" style="pointer-events: none; display: none; fill: none;"></path></g></g></g><path class="foreground" d="" style="display: none; fill: none;"></path></g></g></g></svg>