<svg transform="rotate(90, 0, 0)" viewBox="-6.9790005867884854 -5.601349847194989 13.958001173576971 11.202699694389977" xmlns="http://www.w3.org/2000/svg">
<defs>
<g id="cell">
<path d="M-1.3606256,-1.8198425 L-1.3606256,1.8198425 L1.3606256,1.8198425 L1.3606256,-1.8198425 z" fill="None" stroke="grey" stroke-width="0.1"/>
</g>
<g id="mol">
<circle cx="0" cy="-0.33333333333333337" r="1"/>
<circle cx="-0.8660254037844386" cy="0.16666666666666669" r="0.637556"/>
<circle cx="0.8660254037844386" cy="0.16666666666666669" r="0.637556"/>
</g>
</defs>
<use href="#cell" transform="matrix(1 0 0 1 -2.721251162337861 -3.639684988733526)"/>
<use href="#cell" transform="matrix(1 0 0 1 -2.7212511623378606 0)"/>
<use href="#cell" transform="matrix(1 0 0 1 -2.72125116233786 3.639684988733526)"/>
<use href="#cell" transform="matrix(1 0 0 1 -0.00000000000000022286642856785913 -3.639684988733526)"/>
<use href="#cell" transform="matrix(1 0 0 1 0 0)"/>
<use href="#cell" transform="matrix(1 0 0 1 0.00000000000000022286642856785913 3.639684988733526)"/>
<use href="#cell" transform="matrix(1 0 0 1 2.72125116233786 -3.639684988733526)"/>
<use href="#cell" transform="matrix(1 0 0 1 2.7212511623378606 0)"/>
<use href="#cell" transform="matrix(1 0 0 1 2.721251162337861 3.639684988733526)"/>
<use fill="blue" href="#mol" transform="matrix(0.9311204392680852 -0.36471184183846855 0.36471184183846855 0.9311204392680852 1.0671206573661762 -0.06075370762148956)"/>
<use fill="green" href="#mol" transform="matrix(0.9311204392680852 -0.36471184183846855 0.36471184183846855 0.9311204392680852 -1.6541305049716846 -3.7004386963550155)"/>
<use fill="green" href="#mol" transform="matrix(0.9311204392680852 -0.36471184183846855 0.36471184183846855 0.9311204392680852 -1.6541305049716843 -0.06075370762148956)"/>
<use fill="green" href="#mol" transform="matrix(0.9311204392680852 -0.36471184183846855 0.36471184183846855 0.9311204392680852 -1.6541305049716841 3.5789312811120366)"/>
<use fill="green" href="#mol" transform="matrix(0.9311204392680852 -0.36471184183846855 0.36471184183846855 0.9311204392680852 1.067120657366176 -3.7004386963550155)"/>
<use fill="green" href="#mol" transform="matrix(0.9311204392680852 -0.36471184183846855 0.36471184183846855 0.9311204392680852 1.0671206573661765 3.5789312811120366)"/>
<use fill="green" href="#mol" transform="matrix(0.9311204392680852 -0.36471184183846855 0.36471184183846855 0.9311204392680852 3.7883718197040364 -3.7004386963550155)"/>
<use fill="green" href="#mol" transform="matrix(0.9311204392680852 -0.36471184183846855 0.36471184183846855 0.9311204392680852 3.788371819704037 -0.06075370762148956)"/>
<use fill="green" href="#mol" transform="matrix(0.9311204392680852 -0.36471184183846855 0.36471184183846855 0.9311204392680852 3.788371819704037 3.5789312811120366)"/>
<use fill="blue" href="#mol" transform="matrix(-0.9311204392680852 -0.36471184183846855 -0.36471184183846855 0.9311204392680852 -1.0671206573661762 1.7590887867452736)"/>
<use fill="green" href="#mol" transform="matrix(-0.9311204392680852 -0.36471184183846855 -0.36471184183846855 0.9311204392680852 -3.788371819704037 -1.8805962019882525)"/>
<use fill="green" href="#mol" transform="matrix(-0.9311204392680852 -0.36471184183846855 -0.36471184183846855 0.9311204392680852 -3.788371819704037 1.7590887867452736)"/>
<use fill="green" href="#mol" transform="matrix(-0.9311204392680852 -0.36471184183846855 -0.36471184183846855 0.9311204392680852 -3.7883718197040364 5.3987737754788)"/>
<use fill="green" href="#mol" transform="matrix(-0.9311204392680852 -0.36471184183846855 -0.36471184183846855 0.9311204392680852 -1.0671206573661765 -1.8805962019882525)"/>
<use fill="green" href="#mol" transform="matrix(-0.9311204392680852 -0.36471184183846855 -0.36471184183846855 0.9311204392680852 -1.067120657366176 5.3987737754788)"/>
<use fill="green" href="#mol" transform="matrix(-0.9311204392680852 -0.36471184183846855 -0.36471184183846855 0.9311204392680852 1.6541305049716841 -1.8805962019882525)"/>
<use fill="green" href="#mol" transform="matrix(-0.9311204392680852 -0.36471184183846855 -0.36471184183846855 0.9311204392680852 1.6541305049716843 1.7590887867452736)"/>
<use fill="green" href="#mol" transform="matrix(-0.9311204392680852 -0.36471184183846855 -0.36471184183846855 0.9311204392680852 1.6541305049716846 5.3987737754788)"/>
</svg>
