<svg viewBox="-13.633011955013481 -6.118085145607488 27.266023910026963 12.236170291214975" xmlns="http://www.w3.org/2000/svg">
<defs>
<g id="cell">
<path d="M-4.037846,-1.5328707 L-4.037846,1.5328707 L4.037846,1.5328707 L4.037846,-1.5328707 z" fill="None" stroke="grey" stroke-width="0.1"/>
</g>
<g id="mol">
<circle cx="0" cy="-0.33333333333333337" r="1"/>
<circle cx="-0.8660254037844386" cy="0.16666666666666669" r="0.637556"/>
<circle cx="0.8660254037844386" cy="0.16666666666666669" r="0.637556"/>
</g>
</defs>
<use href="#cell" transform="matrix(1 0 0 1 -8.07569256755019 -3.0657413612795277)"/>
<use href="#cell" transform="matrix(1 0 0 1 -8.07569256755019 0)"/>
<use href="#cell" transform="matrix(1 0 0 1 -8.07569256755019 3.0657413612795277)"/>
<use href="#cell" transform="matrix(1 0 0 1 -0.00000000000000018772251725523114 -3.0657413612795277)"/>
<use href="#cell" transform="matrix(1 0 0 1 0 0)"/>
<use href="#cell" transform="matrix(1 0 0 1 0.00000000000000018772251725523114 3.0657413612795277)"/>
<use href="#cell" transform="matrix(1 0 0 1 8.07569256755019 -3.0657413612795277)"/>
<use href="#cell" transform="matrix(1 0 0 1 8.07569256755019 0)"/>
<use href="#cell" transform="matrix(1 0 0 1 8.07569256755019 3.0657413612795277)"/>
<use fill="blue" href="#mol" transform="matrix(-0.18615783297592028 0.9825198528384601 -0.9825198528384601 -0.18615783297592028 -3.1729305205457994 0.22502303136626195)"/>
<use fill="green" href="#mol" transform="matrix(-0.18615783297592028 0.9825198528384601 -0.9825198528384601 -0.18615783297592028 -11.24862308809599 -2.840718329913266)"/>
<use fill="green" href="#mol" transform="matrix(-0.18615783297592028 0.9825198528384601 -0.9825198528384601 -0.18615783297592028 -11.24862308809599 0.22502303136626195)"/>
<use fill="green" href="#mol" transform="matrix(-0.18615783297592028 0.9825198528384601 -0.9825198528384601 -0.18615783297592028 -11.24862308809599 3.2907643926457895)"/>
<use fill="green" href="#mol" transform="matrix(-0.18615783297592028 0.9825198528384601 -0.9825198528384601 -0.18615783297592028 -3.1729305205457994 -2.840718329913266)"/>
<use fill="green" href="#mol" transform="matrix(-0.18615783297592028 0.9825198528384601 -0.9825198528384601 -0.18615783297592028 -3.1729305205457994 3.2907643926457895)"/>
<use fill="green" href="#mol" transform="matrix(-0.18615783297592028 0.9825198528384601 -0.9825198528384601 -0.18615783297592028 4.902762047004391 -2.840718329913266)"/>
<use fill="green" href="#mol" transform="matrix(-0.18615783297592028 0.9825198528384601 -0.9825198528384601 -0.18615783297592028 4.902762047004391 0.22502303136626195)"/>
<use fill="green" href="#mol" transform="matrix(-0.18615783297592028 0.9825198528384601 -0.9825198528384601 -0.18615783297592028 4.902762047004391 3.2907643926457895)"/>
<use fill="blue" href="#mol" transform="matrix(0.18615783297592028 -0.9825198528384601 0.9825198528384601 0.18615783297592028 3.1729305205457994 -0.22502303136626195)"/>
<use fill="green" href="#mol" transform="matrix(0.18615783297592028 -0.9825198528384601 0.9825198528384601 0.18615783297592028 -4.902762047004391 -3.2907643926457895)"/>
<use fill="green" href="#mol" transform="matrix(0.18615783297592028 -0.9825198528384601 0.9825198528384601 0.18615783297592028 -4.902762047004391 -0.22502303136626195)"/>
<use fill="green" href="#mol" transform="matrix(0.18615783297592028 -0.9825198528384601 0.9825198528384601 0.18615783297592028 -4.902762047004391 2.840718329913266)"/>
<use fill="green" href="#mol" transform="matrix(0.18615783297592028 -0.9825198528384601 0.9825198528384601 0.18615783297592028 3.1729305205457994 -3.2907643926457895)"/>
<use fill="green" href="#mol" transform="matrix(0.18615783297592028 -0.9825198528384601 0.9825198528384601 0.18615783297592028 3.1729305205457994 2.840718329913266)"/>
<use fill="green" href="#mol" transform="matrix(0.18615783297592028 -0.9825198528384601 0.9825198528384601 0.18615783297592028 11.24862308809599 -3.2907643926457895)"/>
<use fill="green" href="#mol" transform="matrix(0.18615783297592028 -0.9825198528384601 0.9825198528384601 0.18615783297592028 11.24862308809599 -0.22502303136626195)"/>
<use fill="green" href="#mol" transform="matrix(0.18615783297592028 -0.9825198528384601 0.9825198528384601 0.18615783297592028 11.24862308809599 2.840718329913266)"/>
<use fill="blue" href="#mol" transform="matrix(0.18615783297592028 0.9825198528384601 0.9825198528384601 -0.18615783297592028 -0.8649157632292956 -1.3078476492735018)"/>
<use fill="green" href="#mol" transform="matrix(0.18615783297592028 0.9825198528384601 0.9825198528384601 -0.18615783297592028 -8.940608330779485 -4.3735890105530295)"/>
<use fill="green" href="#mol" transform="matrix(0.18615783297592028 0.9825198528384601 0.9825198528384601 -0.18615783297592028 -8.940608330779485 -1.3078476492735018)"/>
<use fill="green" href="#mol" transform="matrix(0.18615783297592028 0.9825198528384601 0.9825198528384601 -0.18615783297592028 -8.940608330779485 1.7578937120060258)"/>
<use fill="green" href="#mol" transform="matrix(0.18615783297592028 0.9825198528384601 0.9825198528384601 -0.18615783297592028 -0.8649157632292958 -4.3735890105530295)"/>
<use fill="green" href="#mol" transform="matrix(0.18615783297592028 0.9825198528384601 0.9825198528384601 -0.18615783297592028 -0.8649157632292954 1.7578937120060258)"/>
<use fill="green" href="#mol" transform="matrix(0.18615783297592028 0.9825198528384601 0.9825198528384601 -0.18615783297592028 7.210776804320894 -4.3735890105530295)"/>
<use fill="green" href="#mol" transform="matrix(0.18615783297592028 0.9825198528384601 0.9825198528384601 -0.18615783297592028 7.210776804320894 -1.3078476492735018)"/>
<use fill="green" href="#mol" transform="matrix(0.18615783297592028 0.9825198528384601 0.9825198528384601 -0.18615783297592028 7.210776804320894 1.7578937120060258)"/>
<use fill="blue" href="#mol" transform="matrix(-0.18615783297592028 -0.9825198528384601 -0.9825198528384601 0.18615783297592028 0.8649157632292956 1.3078476492735018)"/>
<use fill="green" href="#mol" transform="matrix(-0.18615783297592028 -0.9825198528384601 -0.9825198528384601 0.18615783297592028 -7.210776804320894 -1.7578937120060258)"/>
<use fill="green" href="#mol" transform="matrix(-0.18615783297592028 -0.9825198528384601 -0.9825198528384601 0.18615783297592028 -7.210776804320894 1.3078476492735018)"/>
<use fill="green" href="#mol" transform="matrix(-0.18615783297592028 -0.9825198528384601 -0.9825198528384601 0.18615783297592028 -7.210776804320894 4.3735890105530295)"/>
<use fill="green" href="#mol" transform="matrix(-0.18615783297592028 -0.9825198528384601 -0.9825198528384601 0.18615783297592028 0.8649157632292954 -1.7578937120060258)"/>
<use fill="green" href="#mol" transform="matrix(-0.18615783297592028 -0.9825198528384601 -0.9825198528384601 0.18615783297592028 0.8649157632292958 4.3735890105530295)"/>
<use fill="green" href="#mol" transform="matrix(-0.18615783297592028 -0.9825198528384601 -0.9825198528384601 0.18615783297592028 8.940608330779485 -1.7578937120060258)"/>
<use fill="green" href="#mol" transform="matrix(-0.18615783297592028 -0.9825198528384601 -0.9825198528384601 0.18615783297592028 8.940608330779485 1.3078476492735018)"/>
<use fill="green" href="#mol" transform="matrix(-0.18615783297592028 -0.9825198528384601 -0.9825198528384601 0.18615783297592028 8.940608330779485 4.3735890105530295)"/>
</svg>