<svg viewBox="-12.156337644536057 -4.3392965102772045 24.312675289072114 8.678593020554409" xmlns="http://www.w3.org/2000/svg">
<defs>
<g id="cell">
<path d="M-3.5456214,-0.9399411 L-1.6657393,0.9399411 L3.5456214,0.9399411 L1.6657393,-0.9399411 z" fill="None" stroke="grey" stroke-width="0.1"/>
</g>
<g id="mol">
<circle cx="0" cy="-0.33333333333333337" r="1"/>
<circle cx="-0.8660254037844386" cy="0.16666666666666669" r="0.637556"/>
<circle cx="0.8660254037844386" cy="0.16666666666666669" r="0.637556"/>
</g>
</defs>
<use href="#cell" transform="matrix(1 0 0 1 -7.091243027231906 -1.8798822710593381)"/>
<use href="#cell" transform="matrix(1 0 0 1 -5.211360756172567 0)"/>
<use href="#cell" transform="matrix(1 0 0 1 -3.331478485113229 1.8798822710593381)"/>
<use href="#cell" transform="matrix(1 0 0 1 -1.8798822710593384 -1.8798822710593381)"/>
<use href="#cell" transform="matrix(1 0 0 1 0 0)"/>
<use href="#cell" transform="matrix(1 0 0 1 1.8798822710593384 1.8798822710593381)"/>
<use href="#cell" transform="matrix(1 0 0 1 3.331478485113229 -1.8798822710593381)"/>
<use href="#cell" transform="matrix(1 0 0 1 5.211360756172567 0)"/>
<use href="#cell" transform="matrix(1 0 0 1 7.091243027231906 1.8798822710593381)"/>
<use fill="blue" href="#mol" transform="matrix(0.9340684979498005 0.35709388280647364 -0.35709388280647364 0.9340684979498005 0.5458496025742705 -0.5690201309873827)"/>
<use fill="green" href="#mol" transform="matrix(0.9340684979498005 0.35709388280647364 -0.35709388280647364 0.9340684979498005 -6.545393424657634 -2.4489024020467207)"/>
<use fill="green" href="#mol" transform="matrix(0.9340684979498005 0.35709388280647364 -0.35709388280647364 0.9340684979498005 -4.665511153598296 -0.5690201309873827)"/>
<use fill="green" href="#mol" transform="matrix(0.9340684979498005 0.35709388280647364 -0.35709388280647364 0.9340684979498005 -2.785628882538958 1.3108621400719553)"/>
<use fill="green" href="#mol" transform="matrix(0.9340684979498005 0.35709388280647364 -0.35709388280647364 0.9340684979498005 -1.3340326684850679 -2.4489024020467207)"/>
<use fill="green" href="#mol" transform="matrix(0.9340684979498005 0.35709388280647364 -0.35709388280647364 0.9340684979498005 2.425731873633609 1.3108621400719553)"/>
<use fill="green" href="#mol" transform="matrix(0.9340684979498005 0.35709388280647364 -0.35709388280647364 0.9340684979498005 3.8773280876875 -2.4489024020467207)"/>
<use fill="green" href="#mol" transform="matrix(0.9340684979498005 0.35709388280647364 -0.35709388280647364 0.9340684979498005 5.757210358746838 -0.5690201309873827)"/>
<use fill="green" href="#mol" transform="matrix(0.9340684979498005 0.35709388280647364 -0.35709388280647364 0.9340684979498005 7.637092629806176 1.3108621400719553)"/>
<use fill="blue" href="#mol" transform="matrix(-0.9340684979498005 -0.35709388280647364 0.35709388280647364 -0.9340684979498005 -0.5458496025742705 0.5690201309873827)"/>
<use fill="green" href="#mol" transform="matrix(-0.9340684979498005 -0.35709388280647364 0.35709388280647364 -0.9340684979498005 -7.637092629806176 -1.3108621400719553)"/>
<use fill="green" href="#mol" transform="matrix(-0.9340684979498005 -0.35709388280647364 0.35709388280647364 -0.9340684979498005 -5.757210358746838 0.5690201309873827)"/>
<use fill="green" href="#mol" transform="matrix(-0.9340684979498005 -0.35709388280647364 0.35709388280647364 -0.9340684979498005 -3.8773280876875 2.4489024020467207)"/>
<use fill="green" href="#mol" transform="matrix(-0.9340684979498005 -0.35709388280647364 0.35709388280647364 -0.9340684979498005 -2.425731873633609 -1.3108621400719553)"/>
<use fill="green" href="#mol" transform="matrix(-0.9340684979498005 -0.35709388280647364 0.35709388280647364 -0.9340684979498005 1.3340326684850679 2.4489024020467207)"/>
<use fill="green" href="#mol" transform="matrix(-0.9340684979498005 -0.35709388280647364 0.35709388280647364 -0.9340684979498005 2.785628882538958 -1.3108621400719553)"/>
<use fill="green" href="#mol" transform="matrix(-0.9340684979498005 -0.35709388280647364 0.35709388280647364 -0.9340684979498005 4.665511153598296 0.5690201309873827)"/>
<use fill="green" href="#mol" transform="matrix(-0.9340684979498005 -0.35709388280647364 0.35709388280647364 -0.9340684979498005 6.545393424657634 2.4489024020467207)"/>
</svg>