<svg viewBox="-12.596809664461933 -5.466201514392726 25.193619328923866 10.932403028785451" xmlns="http://www.w3.org/2000/svg">
<defs>
<g id="cell">
<path d="M-3.6924455,-1.3155762 L-3.6924455,1.3155762 L3.6924455,1.3155762 L3.6924455,-1.3155762 z" fill="None" stroke="grey" stroke-width="0.1"/>
</g>
<g id="mol">
<circle cx="0" cy="-0.33333333333333337" r="1"/>
<circle cx="-0.8660254037844386" cy="0.16666666666666669" r="0.637556"/>
<circle cx="0.8660254037844386" cy="0.16666666666666669" r="0.637556"/>
</g>
</defs>
<use href="#cell" transform="matrix(1 0 0 1 -7.384891040515824 -2.6311522738030195)"/>
<use href="#cell" transform="matrix(1 0 0 1 -7.384891040515824 0)"/>
<use href="#cell" transform="matrix(1 0 0 1 -7.384891040515824 2.6311522738030195)"/>
<use href="#cell" transform="matrix(1 0 0 1 -0.0000000000000001611116105091074 -2.6311522738030195)"/>
<use href="#cell" transform="matrix(1 0 0 1 0 0)"/>
<use href="#cell" transform="matrix(1 0 0 1 0.0000000000000001611116105091074 2.6311522738030195)"/>
<use href="#cell" transform="matrix(1 0 0 1 7.384891040515824 -2.6311522738030195)"/>
<use href="#cell" transform="matrix(1 0 0 1 7.384891040515824 0)"/>
<use href="#cell" transform="matrix(1 0 0 1 7.384891040515824 2.6311522738030195)"/>
<use fill="blue" href="#mol" transform="matrix(-0.4145170985052982 -0.9100415238035838 0.9100415238035838 -0.4145170985052982 -0.7877331004813275 -1.2939000083949177)"/>
<use fill="green" href="#mol" transform="matrix(-0.4145170985052982 -0.9100415238035838 0.9100415238035838 -0.4145170985052982 -8.17262414099715 -3.9250522821979374)"/>
<use fill="green" href="#mol" transform="matrix(-0.4145170985052982 -0.9100415238035838 0.9100415238035838 -0.4145170985052982 -8.17262414099715 -1.2939000083949177)"/>
<use fill="green" href="#mol" transform="matrix(-0.4145170985052982 -0.9100415238035838 0.9100415238035838 -0.4145170985052982 -8.17262414099715 1.3372522654081018)"/>
<use fill="green" href="#mol" transform="matrix(-0.4145170985052982 -0.9100415238035838 0.9100415238035838 -0.4145170985052982 -0.7877331004813276 -3.9250522821979374)"/>
<use fill="green" href="#mol" transform="matrix(-0.4145170985052982 -0.9100415238035838 0.9100415238035838 -0.4145170985052982 -0.7877331004813273 1.3372522654081018)"/>
<use fill="green" href="#mol" transform="matrix(-0.4145170985052982 -0.9100415238035838 0.9100415238035838 -0.4145170985052982 6.597157940034497 -3.9250522821979374)"/>
<use fill="green" href="#mol" transform="matrix(-0.4145170985052982 -0.9100415238035838 0.9100415238035838 -0.4145170985052982 6.597157940034497 -1.2939000083949177)"/>
<use fill="green" href="#mol" transform="matrix(-0.4145170985052982 -0.9100415238035838 0.9100415238035838 -0.4145170985052982 6.597157940034497 1.3372522654081018)"/>
<use fill="blue" href="#mol" transform="matrix(0.4145170985052982 0.9100415238035838 -0.9100415238035838 0.4145170985052982 0.7877331004813275 1.2939000083949177)"/>
<use fill="green" href="#mol" transform="matrix(0.4145170985052982 0.9100415238035838 -0.9100415238035838 0.4145170985052982 -6.597157940034497 -1.3372522654081018)"/>
<use fill="green" href="#mol" transform="matrix(0.4145170985052982 0.9100415238035838 -0.9100415238035838 0.4145170985052982 -6.597157940034497 1.2939000083949177)"/>
<use fill="green" href="#mol" transform="matrix(0.4145170985052982 0.9100415238035838 -0.9100415238035838 0.4145170985052982 -6.597157940034497 3.9250522821979374)"/>
<use fill="green" href="#mol" transform="matrix(0.4145170985052982 0.9100415238035838 -0.9100415238035838 0.4145170985052982 0.7877331004813273 -1.3372522654081018)"/>
<use fill="green" href="#mol" transform="matrix(0.4145170985052982 0.9100415238035838 -0.9100415238035838 0.4145170985052982 0.7877331004813276 3.9250522821979374)"/>
<use fill="green" href="#mol" transform="matrix(0.4145170985052982 0.9100415238035838 -0.9100415238035838 0.4145170985052982 8.17262414099715 -1.3372522654081018)"/>
<use fill="green" href="#mol" transform="matrix(0.4145170985052982 0.9100415238035838 -0.9100415238035838 0.4145170985052982 8.17262414099715 1.2939000083949177)"/>
<use fill="green" href="#mol" transform="matrix(0.4145170985052982 0.9100415238035838 -0.9100415238035838 0.4145170985052982 8.17262414099715 3.9250522821979374)"/>
<use fill="blue" href="#mol" transform="matrix(0.4145170985052982 -0.9100415238035838 -0.9100415238035838 -0.4145170985052982 -2.9047124197765846 0.021676128506591962)"/>
<use fill="green" href="#mol" transform="matrix(0.4145170985052982 -0.9100415238035838 -0.9100415238035838 -0.4145170985052982 -10.289603460292408 -2.6094761452964277)"/>
<use fill="green" href="#mol" transform="matrix(0.4145170985052982 -0.9100415238035838 -0.9100415238035838 -0.4145170985052982 -10.289603460292408 0.021676128506591962)"/>
<use fill="green" href="#mol" transform="matrix(0.4145170985052982 -0.9100415238035838 -0.9100415238035838 -0.4145170985052982 -10.289603460292408 2.6528284023096114)"/>
<use fill="green" href="#mol" transform="matrix(0.4145170985052982 -0.9100415238035838 -0.9100415238035838 -0.4145170985052982 -2.9047124197765846 -2.6094761452964277)"/>
<use fill="green" href="#mol" transform="matrix(0.4145170985052982 -0.9100415238035838 -0.9100415238035838 -0.4145170985052982 -2.9047124197765846 2.6528284023096114)"/>
<use fill="green" href="#mol" transform="matrix(0.4145170985052982 -0.9100415238035838 -0.9100415238035838 -0.4145170985052982 4.480178620739239 -2.6094761452964277)"/>
<use fill="green" href="#mol" transform="matrix(0.4145170985052982 -0.9100415238035838 -0.9100415238035838 -0.4145170985052982 4.480178620739239 0.021676128506591962)"/>
<use fill="green" href="#mol" transform="matrix(0.4145170985052982 -0.9100415238035838 -0.9100415238035838 -0.4145170985052982 4.480178620739239 2.6528284023096114)"/>
<use fill="blue" href="#mol" transform="matrix(-0.4145170985052982 0.9100415238035838 0.9100415238035838 0.4145170985052982 2.9047124197765846 -0.021676128506591962)"/>
<use fill="green" href="#mol" transform="matrix(-0.4145170985052982 0.9100415238035838 0.9100415238035838 0.4145170985052982 -4.480178620739239 -2.6528284023096114)"/>
<use fill="green" href="#mol" transform="matrix(-0.4145170985052982 0.9100415238035838 0.9100415238035838 0.4145170985052982 -4.480178620739239 -0.021676128506591962)"/>
<use fill="green" href="#mol" transform="matrix(-0.4145170985052982 0.9100415238035838 0.9100415238035838 0.4145170985052982 -4.480178620739239 2.6094761452964277)"/>
<use fill="green" href="#mol" transform="matrix(-0.4145170985052982 0.9100415238035838 0.9100415238035838 0.4145170985052982 2.9047124197765846 -2.6528284023096114)"/>
<use fill="green" href="#mol" transform="matrix(-0.4145170985052982 0.9100415238035838 0.9100415238035838 0.4145170985052982 2.9047124197765846 2.6094761452964277)"/>
<use fill="green" href="#mol" transform="matrix(-0.4145170985052982 0.9100415238035838 0.9100415238035838 0.4145170985052982 10.289603460292408 -2.6528284023096114)"/>
<use fill="green" href="#mol" transform="matrix(-0.4145170985052982 0.9100415238035838 0.9100415238035838 0.4145170985052982 10.289603460292408 -0.021676128506591962)"/>
<use fill="green" href="#mol" transform="matrix(-0.4145170985052982 0.9100415238035838 0.9100415238035838 0.4145170985052982 10.289603460292408 2.6094761452964277)"/>
</svg>