<svg transform="rotate(270, 0, 0)" viewBox="-6.1024630093809655 -8.25718487782614 12.204926018761931 16.51436975565228" xmlns="http://www.w3.org/2000/svg">
<defs>
<g id="cell">
<path d="M-1.5276634,-2.245904 L-1.5276634,2.245904 L1.5276634,2.245904 L1.5276634,-2.245904 z" fill="None" stroke="grey" stroke-width="0.1"/>
</g>
<g id="mol">
<circle cx="0" cy="-0.33333333333333337" r="1"/>
<circle cx="-0.8660254037844386" cy="0.16666666666666669" r="0.637556"/>
<circle cx="0.8660254037844386" cy="0.16666666666666669" r="0.637556"/>
</g>
</defs>
<use href="#cell" transform="matrix(1 0 0 1 -3.0553266037951787 -4.491807849425295)"/>
<use href="#cell" transform="matrix(1 0 0 1 -3.0553266037951783 0)"/>
<use href="#cell" transform="matrix(1 0 0 1 -3.055326603795178 4.491807849425295)"/>
<use href="#cell" transform="matrix(1 0 0 1 -0.0000000000000002750439052591822 -4.491807849425295)"/>
<use href="#cell" transform="matrix(1 0 0 1 0 0)"/>
<use href="#cell" transform="matrix(1 0 0 1 0.0000000000000002750439052591822 4.491807849425295)"/>
<use href="#cell" transform="matrix(1 0 0 1 3.055326603795178 -4.491807849425295)"/>
<use href="#cell" transform="matrix(1 0 0 1 3.0553266037951783 0)"/>
<use href="#cell" transform="matrix(1 0 0 1 3.0553266037951787 4.491807849425295)"/>
<use fill="blue" href="#mol" transform="matrix(-0.933210037675412 0.3593313590293173 -0.3593313590293173 -0.933210037675412 -1.2158837591770542 -2.001082388082567)"/>
<use fill="green" href="#mol" transform="matrix(-0.933210037675412 0.3593313590293173 -0.3593313590293173 -0.933210037675412 -4.271210362972233 -6.492890237507862)"/>
<use fill="green" href="#mol" transform="matrix(-0.933210037675412 0.3593313590293173 -0.3593313590293173 -0.933210037675412 -4.271210362972233 -2.001082388082567)"/>
<use fill="green" href="#mol" transform="matrix(-0.933210037675412 0.3593313590293173 -0.3593313590293173 -0.933210037675412 -4.271210362972233 2.490725461342728)"/>
<use fill="green" href="#mol" transform="matrix(-0.933210037675412 0.3593313590293173 -0.3593313590293173 -0.933210037675412 -1.2158837591770544 -6.492890237507862)"/>
<use fill="green" href="#mol" transform="matrix(-0.933210037675412 0.3593313590293173 -0.3593313590293173 -0.933210037675412 -1.2158837591770537 2.490725461342728)"/>
<use fill="green" href="#mol" transform="matrix(-0.933210037675412 0.3593313590293173 -0.3593313590293173 -0.933210037675412 1.839442844618124 -6.492890237507862)"/>
<use fill="green" href="#mol" transform="matrix(-0.933210037675412 0.3593313590293173 -0.3593313590293173 -0.933210037675412 1.8394428446181241 -2.001082388082567)"/>
<use fill="green" href="#mol" transform="matrix(-0.933210037675412 0.3593313590293173 -0.3593313590293173 -0.933210037675412 1.8394428446181246 2.490725461342728)"/>
<use fill="blue" href="#mol" transform="matrix(0.933210037675412 0.3593313590293173 0.3593313590293173 -0.933210037675412 1.215883759177054 0.24482153663008038)"/>
<use fill="green" href="#mol" transform="matrix(0.933210037675412 0.3593313590293173 0.3593313590293173 -0.933210037675412 -1.8394428446181246 -4.246986312795214)"/>
<use fill="green" href="#mol" transform="matrix(0.933210037675412 0.3593313590293173 0.3593313590293173 -0.933210037675412 -1.8394428446181244 0.24482153663008038)"/>
<use fill="green" href="#mol" transform="matrix(0.933210037675412 0.3593313590293173 0.3593313590293173 -0.933210037675412 -1.8394428446181241 4.736629386055376)"/>
<use fill="green" href="#mol" transform="matrix(0.933210037675412 0.3593313590293173 0.3593313590293173 -0.933210037675412 1.2158837591770537 -4.246986312795214)"/>
<use fill="green" href="#mol" transform="matrix(0.933210037675412 0.3593313590293173 0.3593313590293173 -0.933210037675412 1.2158837591770542 4.736629386055376)"/>
<use fill="green" href="#mol" transform="matrix(0.933210037675412 0.3593313590293173 0.3593313590293173 -0.933210037675412 4.271210362972233 -4.246986312795214)"/>
<use fill="green" href="#mol" transform="matrix(0.933210037675412 0.3593313590293173 0.3593313590293173 -0.933210037675412 4.271210362972233 0.24482153663008038)"/>
<use fill="green" href="#mol" transform="matrix(0.933210037675412 0.3593313590293173 0.3593313590293173 -0.933210037675412 4.271210362972233 4.736629386055376)"/>
</svg>
