<svg viewBox="-13.410285397496384 -4.763375906902999 26.82057079499277 9.526751813805998" xmlns="http://www.w3.org/2000/svg">
<defs>
<g id="cell">
<path d="M-3.9636042,-1.081301 L-1.8010023,1.081301 L3.9636042,1.081301 L1.8010023,-1.081301 z" fill="None" stroke="grey" stroke-width="0.1"/>
</g>
<g id="mol">
<circle cx="0" cy="-0.33333333333333337" r="1"/>
<circle cx="-0.8660254037844386" cy="0.16666666666666669" r="0.637556"/>
<circle cx="0.8660254037844386" cy="0.16666666666666669" r="0.637556"/>
</g>
</defs>
<use href="#cell" transform="matrix(1 0 0 1 -7.927208195872125 -2.1626018688098676)"/>
<use href="#cell" transform="matrix(1 0 0 1 -5.764606327062257 0)"/>
<use href="#cell" transform="matrix(1 0 0 1 -3.602004458252389 2.1626018688098676)"/>
<use href="#cell" transform="matrix(1 0 0 1 -2.162601868809868 -2.1626018688098676)"/>
<use href="#cell" transform="matrix(1 0 0 1 0 0)"/>
<use href="#cell" transform="matrix(1 0 0 1 2.162601868809868 2.1626018688098676)"/>
<use href="#cell" transform="matrix(1 0 0 1 3.602004458252389 -2.1626018688098676)"/>
<use href="#cell" transform="matrix(1 0 0 1 5.764606327062257 0)"/>
<use href="#cell" transform="matrix(1 0 0 1 7.927208195872125 2.1626018688098676)"/>
<use fill="blue" href="#mol" transform="matrix(0.8312043222326265 0.555967062605151 -0.555967062605151 0.8312043222326265 -2.4398947075666655 -0.7813577143064543)"/>
<use fill="green" href="#mol" transform="matrix(0.8312043222326265 0.555967062605151 -0.555967062605151 0.8312043222326265 -10.36710290343879 -2.943959583116322)"/>
<use fill="green" href="#mol" transform="matrix(0.8312043222326265 0.555967062605151 -0.555967062605151 0.8312043222326265 -8.204501034628922 -0.7813577143064543)"/>
<use fill="green" href="#mol" transform="matrix(0.8312043222326265 0.555967062605151 -0.555967062605151 0.8312043222326265 -6.041899165819054 1.3812441545034133)"/>
<use fill="green" href="#mol" transform="matrix(0.8312043222326265 0.555967062605151 -0.555967062605151 0.8312043222326265 -4.6024965763765335 -2.943959583116322)"/>
<use fill="green" href="#mol" transform="matrix(0.8312043222326265 0.555967062605151 -0.555967062605151 0.8312043222326265 -0.27729283875679744 1.3812441545034133)"/>
<use fill="green" href="#mol" transform="matrix(0.8312043222326265 0.555967062605151 -0.555967062605151 0.8312043222326265 1.1621097506857239 -2.943959583116322)"/>
<use fill="green" href="#mol" transform="matrix(0.8312043222326265 0.555967062605151 -0.555967062605151 0.8312043222326265 3.324711619495592 -0.7813577143064543)"/>
<use fill="green" href="#mol" transform="matrix(0.8312043222326265 0.555967062605151 -0.555967062605151 0.8312043222326265 5.4873134883054595 1.3812441545034133)"/>
<use fill="blue" href="#mol" transform="matrix(-0.8312043222326265 -0.555967062605151 0.555967062605151 -0.8312043222326265 2.4398947075666655 0.7813577143064543)"/>
<use fill="green" href="#mol" transform="matrix(-0.8312043222326265 -0.555967062605151 0.555967062605151 -0.8312043222326265 -5.4873134883054595 -1.3812441545034133)"/>
<use fill="green" href="#mol" transform="matrix(-0.8312043222326265 -0.555967062605151 0.555967062605151 -0.8312043222326265 -3.324711619495592 0.7813577143064543)"/>
<use fill="green" href="#mol" transform="matrix(-0.8312043222326265 -0.555967062605151 0.555967062605151 -0.8312043222326265 -1.1621097506857239 2.943959583116322)"/>
<use fill="green" href="#mol" transform="matrix(-0.8312043222326265 -0.555967062605151 0.555967062605151 -0.8312043222326265 0.27729283875679744 -1.3812441545034133)"/>
<use fill="green" href="#mol" transform="matrix(-0.8312043222326265 -0.555967062605151 0.555967062605151 -0.8312043222326265 4.6024965763765335 2.943959583116322)"/>
<use fill="green" href="#mol" transform="matrix(-0.8312043222326265 -0.555967062605151 0.555967062605151 -0.8312043222326265 6.041899165819054 -1.3812441545034133)"/>
<use fill="green" href="#mol" transform="matrix(-0.8312043222326265 -0.555967062605151 0.555967062605151 -0.8312043222326265 8.204501034628922 0.7813577143064543)"/>
<use fill="green" href="#mol" transform="matrix(-0.8312043222326265 -0.555967062605151 0.555967062605151 -0.8312043222326265 10.36710290343879 2.943959583116322)"/>
</svg>